G04*
G04 #@! TF.GenerationSoftware,Altium Limited,Altium Designer,19.1.5 (86)*
G04*
G04 Layer_Color=16711935*
%FSLAX25Y25*%
%MOIN*%
G70*
G01*
G75*
%ADD12C,0.18517*%
%ADD13C,0.07099*%
%ADD14C,0.07887*%
%ADD15C,0.22453*%
D12*
X413386Y-212598D02*
D03*
Y-27559D02*
D03*
X19685Y-212598D02*
D03*
Y-27559D02*
D03*
D13*
X285433Y-214567D02*
D03*
X275433Y-204567D02*
D03*
Y-224567D02*
D03*
X295433D02*
D03*
Y-204567D02*
D03*
X246063Y-214567D02*
D03*
X236063Y-204567D02*
D03*
Y-224567D02*
D03*
X256063D02*
D03*
Y-204567D02*
D03*
X187008Y-214567D02*
D03*
X177008Y-204567D02*
D03*
Y-224567D02*
D03*
X197008D02*
D03*
Y-204567D02*
D03*
X147638Y-214567D02*
D03*
X137638Y-204567D02*
D03*
Y-224567D02*
D03*
X157638D02*
D03*
Y-204567D02*
D03*
X108268Y-214567D02*
D03*
X98268Y-204567D02*
D03*
Y-224567D02*
D03*
X118268D02*
D03*
Y-204567D02*
D03*
X68898Y-214567D02*
D03*
X58898Y-204567D02*
D03*
Y-224567D02*
D03*
X78898D02*
D03*
Y-204567D02*
D03*
X187008Y-27559D02*
D03*
X177008Y-17559D02*
D03*
Y-37559D02*
D03*
X197008D02*
D03*
Y-17559D02*
D03*
X147638Y-27559D02*
D03*
X137638Y-17559D02*
D03*
Y-37559D02*
D03*
X157638D02*
D03*
Y-17559D02*
D03*
X157795Y-165354D02*
D03*
Y-185354D02*
D03*
X137795D02*
D03*
Y-165354D02*
D03*
X147795Y-175354D02*
D03*
X118425Y-165354D02*
D03*
Y-185354D02*
D03*
X98425D02*
D03*
Y-165354D02*
D03*
X108425Y-175354D02*
D03*
X79055Y-165354D02*
D03*
Y-185354D02*
D03*
X59055D02*
D03*
Y-165354D02*
D03*
X69055Y-175354D02*
D03*
X39685Y-165354D02*
D03*
Y-185354D02*
D03*
X19685D02*
D03*
Y-165354D02*
D03*
X29685Y-175354D02*
D03*
X161260Y-66772D02*
D03*
Y-86772D02*
D03*
X141260D02*
D03*
Y-66772D02*
D03*
X151260Y-76772D02*
D03*
X121890Y-66772D02*
D03*
Y-86772D02*
D03*
X101890D02*
D03*
Y-66772D02*
D03*
X111890Y-76772D02*
D03*
X82520Y-66772D02*
D03*
Y-86772D02*
D03*
X62520D02*
D03*
Y-66772D02*
D03*
X72520Y-76772D02*
D03*
X43465Y-66772D02*
D03*
Y-86772D02*
D03*
X23465D02*
D03*
Y-66772D02*
D03*
X33465Y-76772D02*
D03*
X118268Y-17559D02*
D03*
Y-37559D02*
D03*
X98268D02*
D03*
Y-17559D02*
D03*
X108268Y-27559D02*
D03*
X78898Y-17559D02*
D03*
Y-37559D02*
D03*
X58898D02*
D03*
Y-17559D02*
D03*
X68898Y-27559D02*
D03*
D14*
X283412Y-120384D02*
D03*
X272545D02*
D03*
X261678D02*
D03*
X250811D02*
D03*
X239944D02*
D03*
X229077D02*
D03*
X218210D02*
D03*
X207343D02*
D03*
X196476D02*
D03*
X185609D02*
D03*
X174742D02*
D03*
X163875D02*
D03*
X288829Y-131584D02*
D03*
X277962D02*
D03*
X267095D02*
D03*
X256228D02*
D03*
X245361D02*
D03*
X234494D02*
D03*
X223627D02*
D03*
X212760D02*
D03*
X201893D02*
D03*
X191026D02*
D03*
X180159D02*
D03*
X169292D02*
D03*
X158425D02*
D03*
X299696D02*
D03*
X310563D02*
D03*
X321430D02*
D03*
X294279Y-120384D02*
D03*
X305146D02*
D03*
X316013D02*
D03*
X125824Y-131584D02*
D03*
X136691D02*
D03*
X147558D02*
D03*
X131274Y-120384D02*
D03*
X142141D02*
D03*
X153008D02*
D03*
D15*
X98425Y-125984D02*
D03*
X348824D02*
D03*
M02*
