G04*
G04 #@! TF.GenerationSoftware,Altium Limited,Altium Designer,19.1.5 (86)*
G04*
G04 Layer_Physical_Order=1*
G04 Layer_Color=255*
%FSLAX25Y25*%
%MOIN*%
G70*
G01*
G75*
%ADD10C,0.00787*%
%ADD11C,0.01000*%
%ADD16C,0.06299*%
%ADD17C,0.17717*%
%ADD18C,0.07087*%
%ADD19C,0.21654*%
D10*
X216535Y421260D02*
X649606D01*
X216535Y185039D02*
Y421260D01*
Y185039D02*
X649606D01*
Y366142D02*
Y421260D01*
Y185039D02*
Y248032D01*
Y366142D01*
D11*
X578740Y384527D02*
Y393543D01*
X532677Y367323D02*
X538115Y372761D01*
X509055Y367323D02*
X532677D01*
X500000Y358268D02*
X509055Y367323D01*
X505118Y299439D02*
X507868Y296690D01*
X509417Y341701D02*
Y347669D01*
X505118Y337402D02*
X509417Y341701D01*
X505118Y299439D02*
Y337402D01*
X505512Y358268D02*
X509417Y362173D01*
X505512Y351575D02*
Y358268D01*
Y351575D02*
X509417Y347669D01*
Y362173D02*
X556387D01*
X500000Y352362D02*
Y358268D01*
X484252Y336614D02*
X500000Y352362D01*
X484252Y306914D02*
Y336614D01*
X460630Y370079D02*
Y374016D01*
X453170Y362619D02*
X460630Y370079D01*
X453170Y353917D02*
Y362619D01*
X301024Y245906D02*
X303150Y248031D01*
Y255906D01*
X285591Y245906D02*
X301024D01*
X251571Y262796D02*
X256491Y267717D01*
X251571Y251256D02*
Y262796D01*
X246220Y245906D02*
X251571Y251256D01*
X256491Y267717D02*
X304834D01*
X326793Y289676D01*
X342359D01*
X303150Y255906D02*
X311024Y263779D01*
X323595D01*
X348327Y288511D01*
X352062D01*
X353226Y289676D01*
X348594Y274177D02*
X364093Y289676D01*
X324961Y245906D02*
Y258032D01*
X341106Y274177D01*
X348594D01*
X336028Y211343D02*
X342520Y217834D01*
X322877Y211343D02*
X336028D01*
X318228Y206693D02*
X322877Y211343D01*
X285433Y206693D02*
X318228D01*
X342520Y217834D02*
Y259842D01*
X354331Y271654D01*
X367805D01*
X385827Y289676D01*
X364331Y245906D02*
Y254094D01*
X390870Y280634D01*
Y291765D01*
X386803Y295832D02*
X390870Y291765D01*
X381117Y295832D02*
X386803D01*
X374960Y289676D02*
X381117Y295832D01*
X324803Y206693D02*
X339217D01*
X339803Y207279D01*
Y209882D01*
X396694Y266773D01*
Y289676D01*
X364173Y206693D02*
Y218504D01*
X390206Y244537D01*
Y255239D01*
X407561Y272594D01*
Y289676D01*
X407003Y210153D02*
Y269208D01*
X403543Y206693D02*
X407003Y210153D01*
Y269208D02*
X418428Y280633D01*
Y289676D01*
X429295Y249839D02*
X433071Y246063D01*
X429295Y249839D02*
Y289676D01*
X462598Y206693D02*
Y242293D01*
X451029Y253862D02*
X462598Y242293D01*
X451029Y253862D02*
Y289676D01*
X486220Y206693D02*
X501968D01*
X484252Y208661D02*
X486220Y206693D01*
X484252Y208661D02*
Y224409D01*
X461896Y246765D02*
X484252Y224409D01*
X461896Y246765D02*
Y289676D01*
X541339Y206693D02*
Y218504D01*
X535433Y224410D02*
X541339Y218504D01*
X492126Y224410D02*
X535433D01*
X484252Y232283D02*
X492126Y224410D01*
X484252Y232283D02*
Y244094D01*
X483630Y252590D02*
X507874Y228346D01*
X578154D01*
X483630Y252590D02*
Y289676D01*
X472763Y255583D02*
X484252Y244094D01*
X472763Y255583D02*
Y289676D01*
X578154Y228346D02*
X580709Y225792D01*
Y206693D02*
Y225792D01*
X501811Y245906D02*
Y282362D01*
X494497Y289676D02*
X501811Y282362D01*
X541181Y245906D02*
Y257506D01*
X510176Y288511D02*
X541181Y257506D01*
X506529Y288511D02*
X510176D01*
X505364Y289676D02*
X506529Y288511D01*
X580551Y245906D02*
Y265590D01*
X582263Y267302D01*
Y268131D01*
X578740Y271654D02*
X582263Y268131D01*
X534253Y271654D02*
X578740D01*
X516231Y289676D02*
X534253Y271654D01*
X619921Y245906D02*
Y273780D01*
X618110Y275590D02*
X619921Y273780D01*
X544918Y275590D02*
X618110D01*
X531997Y288511D02*
X544918Y275590D01*
X528263Y288511D02*
X531997D01*
X527098Y289676D02*
X528263Y288511D01*
X594488Y291339D02*
X606299D01*
X610236Y295276D01*
X574803Y311024D02*
X594488Y291339D01*
X555704Y311024D02*
X574803D01*
X555118Y310438D02*
X555704Y311024D01*
X555118Y306828D02*
Y310438D01*
X537965Y289676D02*
X555118Y306828D01*
X619921Y337755D02*
Y344331D01*
X599389Y317223D02*
X619921Y337755D01*
X548895Y317223D02*
X599389D01*
X532548Y300876D02*
X548895Y317223D01*
X559055Y335629D02*
Y338583D01*
X542261Y318835D02*
X559055Y335629D01*
X539640Y318835D02*
X542261D01*
X521681Y300876D02*
X539640Y318835D01*
X559055Y338583D02*
X564803Y344331D01*
X580551D01*
X510814Y300876D02*
X541181Y331242D01*
Y344331D01*
X499947Y305919D02*
X501811Y307783D01*
Y344331D01*
X501811Y344331D01*
X499947Y300876D02*
Y305919D01*
X501811Y344331D02*
X501811Y344331D01*
X501811Y344331D02*
X501811D01*
X578740Y393543D02*
X581181D01*
X556387Y362173D02*
X578740Y384527D01*
X507868Y295861D02*
Y296690D01*
X507282Y295276D02*
X507868Y295861D01*
X498415Y295276D02*
X507282D01*
X493980Y299711D02*
X498415Y295276D01*
X490245Y299711D02*
X493980D01*
X489080Y300876D02*
X490245Y299711D01*
X478213Y300876D02*
X484252Y306914D01*
X538115Y372761D02*
Y389532D01*
X541811Y393228D01*
X467346Y300876D02*
X480315Y313844D01*
Y354331D01*
X502126Y376142D01*
Y393228D01*
X460630Y338938D02*
Y346457D01*
X456479Y334787D02*
X460630Y338938D01*
X456479Y300876D02*
Y334787D01*
X453170Y353917D02*
X460630Y346457D01*
Y374016D02*
X462756Y376142D01*
Y393543D01*
X429134Y306487D02*
X434745Y300876D01*
X429134Y306487D02*
Y335316D01*
X419961Y344488D02*
X429134Y335316D01*
X413386Y344488D02*
X419961D01*
X423878Y300876D02*
Y308405D01*
X417323Y314961D02*
X423878Y308405D01*
X417323Y314961D02*
Y333976D01*
X408736Y342562D02*
X417323Y333976D01*
X408736Y342562D02*
Y355713D01*
X403543Y360906D02*
X408736Y355713D01*
X403543Y360906D02*
Y393701D01*
X413011Y300876D02*
Y335020D01*
X403543Y344488D02*
X413011Y335020D01*
X399606Y344488D02*
X403543D01*
X393701Y350394D02*
X399606Y344488D01*
X393701Y350394D02*
Y356567D01*
X369524Y380744D02*
X393701Y356567D01*
X369524Y380744D02*
Y388350D01*
X364173Y393701D02*
X369524Y388350D01*
X402144Y300876D02*
Y326202D01*
X385827Y342520D02*
X402144Y326202D01*
X385827Y342520D02*
Y358268D01*
X377953Y366142D02*
X385827Y358268D01*
X362205Y366142D02*
X377953D01*
X348425Y379921D02*
X362205Y366142D01*
X348425Y379921D02*
Y383858D01*
X342520Y389764D02*
X348425Y383858D01*
X328740Y389764D02*
X342520D01*
X324803Y393701D02*
X328740Y389764D01*
X391277Y300876D02*
Y333132D01*
X350394Y374016D02*
X391277Y333132D01*
X287402Y374016D02*
X350394D01*
X285433Y375984D02*
X287402Y374016D01*
X285433Y375984D02*
Y393701D01*
X333776Y332562D02*
Y339138D01*
X328425Y344488D02*
X333776Y339138D01*
X373146Y308140D02*
X380410Y300876D01*
X373146Y308140D02*
Y339138D01*
X367795Y344488D02*
X373146Y339138D01*
X353118Y317301D02*
X369543Y300876D01*
X349037Y317301D02*
X353118D01*
X333776Y332562D02*
X349037Y317301D01*
X295276Y324803D02*
X331014D01*
X353777Y302040D01*
X357512D01*
X358676Y300876D01*
X289055Y331024D02*
X295276Y324803D01*
X289055Y331024D02*
Y344488D01*
X333724Y314961D02*
X347809Y300876D01*
X272952Y314961D02*
X333724D01*
X255350Y332562D02*
X272952Y314961D01*
X255350Y332562D02*
Y339138D01*
X250000Y344488D02*
X255350Y339138D01*
X221472Y301722D02*
Y307720D01*
X225471Y301722D01*
Y307720D01*
X227470D02*
X229470D01*
X228470D01*
Y301722D01*
X227470D01*
X229470D01*
X238467Y302722D02*
X239467Y301722D01*
X241466D01*
X242466Y302722D01*
Y306721D01*
X241466Y307720D01*
X239467D01*
X238467Y306721D01*
Y305721D01*
X239467Y304721D01*
X242466D01*
X248464Y301722D02*
X244465D01*
X248464Y305721D01*
Y306721D01*
X247464Y307720D01*
X245465D01*
X244465Y306721D01*
X250463D02*
X251463Y307720D01*
X253462D01*
X254462Y306721D01*
Y302722D01*
X253462Y301722D01*
X251463D01*
X250463Y302722D01*
Y306721D01*
X260460Y307720D02*
X256461D01*
Y304721D01*
X258460Y305721D01*
X259460D01*
X260460Y304721D01*
Y302722D01*
X259460Y301722D01*
X257461D01*
X256461Y302722D01*
X221472Y292125D02*
Y296123D01*
X223472Y298123D01*
X225471Y296123D01*
Y292125D01*
Y295124D01*
X221472D01*
X227470Y292125D02*
X229470D01*
X228470D01*
Y298123D01*
X227470D01*
X232469Y292125D02*
X234468D01*
X233469D01*
Y296123D01*
X232469D01*
X241466Y298123D02*
X237467D01*
Y295124D01*
X239467D01*
X237467D01*
Y292125D01*
X246464D02*
X244465D01*
X243465Y293124D01*
Y295124D01*
X244465Y296123D01*
X246464D01*
X247464Y295124D01*
Y294124D01*
X243465D01*
X249463Y292125D02*
X251463D01*
X250463D01*
Y298123D01*
X249463D01*
X257461Y292125D02*
X255461D01*
X254462Y293124D01*
Y295124D01*
X255461Y296123D01*
X257461D01*
X258460Y295124D01*
Y294124D01*
X254462D01*
X260460Y292125D02*
Y298123D01*
X263459D01*
X264458Y297123D01*
Y295124D01*
X263459Y294124D01*
X260460D01*
X267458Y296123D02*
X269457D01*
X270457Y295124D01*
Y292125D01*
X267458D01*
X266458Y293124D01*
X267458Y294124D01*
X270457D01*
X272456Y296123D02*
Y292125D01*
Y294124D01*
X273456Y295124D01*
X274455Y296123D01*
X275455D01*
X279454D02*
X281453D01*
X282453Y295124D01*
Y292125D01*
X279454D01*
X278454Y293124D01*
X279454Y294124D01*
X282453D01*
X284452Y292125D02*
Y296123D01*
X287451D01*
X288451Y295124D01*
Y292125D01*
X290450Y290125D02*
X291450D01*
X292449Y291125D01*
Y296123D01*
X221472Y280528D02*
X223472D01*
X222472D01*
Y286526D01*
X221472Y285526D01*
X226471Y280528D02*
X228470D01*
X227470D01*
Y286526D01*
X226471Y285526D01*
X231469D02*
X232469Y286526D01*
X234468D01*
X235468Y285526D01*
Y281527D01*
X234468Y280528D01*
X232469D01*
X231469Y281527D01*
Y285526D01*
X237467D02*
X238467Y286526D01*
X240466D01*
X241466Y285526D01*
Y284526D01*
X240466Y283527D01*
X241466Y282527D01*
Y281527D01*
X240466Y280528D01*
X238467D01*
X237467Y281527D01*
Y282527D01*
X238467Y283527D01*
X237467Y284526D01*
Y285526D01*
X238467Y283527D02*
X240466D01*
X247464Y280528D02*
X243465D01*
X247464Y284526D01*
Y285526D01*
X246464Y286526D01*
X244465D01*
X243465Y285526D01*
X249463D02*
X250463Y286526D01*
X252462D01*
X253462Y285526D01*
Y281527D01*
X252462Y280528D01*
X250463D01*
X249463Y281527D01*
Y285526D01*
X255461Y280528D02*
X257461D01*
X256461D01*
Y286526D01*
X255461Y285526D01*
X260460Y281527D02*
X261459Y280528D01*
X263459D01*
X264458Y281527D01*
Y285526D01*
X263459Y286526D01*
X261459D01*
X260460Y285526D01*
Y284526D01*
X261459Y283527D01*
X264458D01*
D16*
X581181Y393543D02*
D03*
X571181Y403543D02*
D03*
Y383543D02*
D03*
X591181D02*
D03*
Y403543D02*
D03*
X580709Y206693D02*
D03*
X570709Y216693D02*
D03*
Y196693D02*
D03*
X590709D02*
D03*
Y216693D02*
D03*
X541339Y206693D02*
D03*
X531339Y216693D02*
D03*
Y196693D02*
D03*
X551339D02*
D03*
Y216693D02*
D03*
X501968Y206693D02*
D03*
X491968Y216693D02*
D03*
Y196693D02*
D03*
X511968D02*
D03*
Y216693D02*
D03*
X462598Y206693D02*
D03*
X452598Y216693D02*
D03*
Y196693D02*
D03*
X472598D02*
D03*
Y216693D02*
D03*
X403543Y206693D02*
D03*
X393543Y216693D02*
D03*
Y196693D02*
D03*
X413543D02*
D03*
Y216693D02*
D03*
X364173Y206693D02*
D03*
X354173Y216693D02*
D03*
Y196693D02*
D03*
X374173D02*
D03*
Y216693D02*
D03*
X324803Y206693D02*
D03*
X314803Y216693D02*
D03*
Y196693D02*
D03*
X334803D02*
D03*
Y216693D02*
D03*
X285433Y206693D02*
D03*
X275433Y216693D02*
D03*
Y196693D02*
D03*
X295433D02*
D03*
Y216693D02*
D03*
X403543Y393701D02*
D03*
X393543Y403701D02*
D03*
Y383701D02*
D03*
X413543D02*
D03*
Y403701D02*
D03*
X364173Y393701D02*
D03*
X354173Y403701D02*
D03*
Y383701D02*
D03*
X374173D02*
D03*
Y403701D02*
D03*
X374331Y255906D02*
D03*
Y235906D02*
D03*
X354331D02*
D03*
Y255906D02*
D03*
X364331Y245906D02*
D03*
X334961Y255906D02*
D03*
Y235906D02*
D03*
X314961D02*
D03*
Y255906D02*
D03*
X324961Y245906D02*
D03*
X295591Y255906D02*
D03*
Y235906D02*
D03*
X275591D02*
D03*
Y255906D02*
D03*
X285591Y245906D02*
D03*
X256220Y255906D02*
D03*
Y235906D02*
D03*
X236220D02*
D03*
Y255906D02*
D03*
X246220Y245906D02*
D03*
X377795Y354488D02*
D03*
Y334488D02*
D03*
X357795D02*
D03*
Y354488D02*
D03*
X367795Y344488D02*
D03*
X338425Y354488D02*
D03*
Y334488D02*
D03*
X318425D02*
D03*
Y354488D02*
D03*
X328425Y344488D02*
D03*
X299055Y354488D02*
D03*
Y334488D02*
D03*
X279055D02*
D03*
Y354488D02*
D03*
X289055Y344488D02*
D03*
X260000Y354488D02*
D03*
Y334488D02*
D03*
X240000D02*
D03*
Y354488D02*
D03*
X250000Y344488D02*
D03*
X334803Y403701D02*
D03*
Y383701D02*
D03*
X314803D02*
D03*
Y403701D02*
D03*
X324803Y393701D02*
D03*
X295433Y403701D02*
D03*
Y383701D02*
D03*
X275433D02*
D03*
Y403701D02*
D03*
X285433Y393701D02*
D03*
X629921Y255906D02*
D03*
Y235906D02*
D03*
X609921D02*
D03*
Y255906D02*
D03*
X619921Y245906D02*
D03*
X590551Y255906D02*
D03*
Y235906D02*
D03*
X570551D02*
D03*
Y255906D02*
D03*
X580551Y245906D02*
D03*
X551181Y255906D02*
D03*
Y235906D02*
D03*
X531181D02*
D03*
Y255906D02*
D03*
X541181Y245906D02*
D03*
X511811Y255906D02*
D03*
Y235906D02*
D03*
X491811D02*
D03*
Y255906D02*
D03*
X501811Y245906D02*
D03*
X551811Y403228D02*
D03*
Y383228D02*
D03*
X531811D02*
D03*
Y403228D02*
D03*
X541811Y393228D02*
D03*
X512126Y403228D02*
D03*
Y383228D02*
D03*
X492126D02*
D03*
Y403228D02*
D03*
X502126Y393228D02*
D03*
X472756Y403543D02*
D03*
Y383543D02*
D03*
X452756D02*
D03*
Y403543D02*
D03*
X462756Y393543D02*
D03*
X629921Y354331D02*
D03*
Y334331D02*
D03*
X609921D02*
D03*
Y354331D02*
D03*
X619921Y344331D02*
D03*
X590551Y354331D02*
D03*
Y334331D02*
D03*
X570551D02*
D03*
Y354331D02*
D03*
X580551Y344331D02*
D03*
X551181Y354331D02*
D03*
Y334331D02*
D03*
X531181D02*
D03*
Y354331D02*
D03*
X541181Y344331D02*
D03*
X511811Y354331D02*
D03*
Y334331D02*
D03*
X491811D02*
D03*
Y354331D02*
D03*
X501811Y344331D02*
D03*
X620236Y305276D02*
D03*
Y285276D02*
D03*
X600236D02*
D03*
Y305276D02*
D03*
X610236Y295276D02*
D03*
X443071Y256063D02*
D03*
Y236063D02*
D03*
X423071D02*
D03*
Y256063D02*
D03*
X433071Y246063D02*
D03*
X423386Y354488D02*
D03*
Y334488D02*
D03*
X403386D02*
D03*
Y354488D02*
D03*
X413386Y344488D02*
D03*
X462756Y354488D02*
D03*
Y334488D02*
D03*
X442756D02*
D03*
Y354488D02*
D03*
X452756Y344488D02*
D03*
D17*
X236220Y208661D02*
D03*
Y393701D02*
D03*
X629921Y208661D02*
D03*
Y393701D02*
D03*
D18*
X499947Y300876D02*
D03*
X489080D02*
D03*
X478213D02*
D03*
X467346D02*
D03*
X456479D02*
D03*
X445612D02*
D03*
X434745D02*
D03*
X423878D02*
D03*
X413011D02*
D03*
X402144D02*
D03*
X391277D02*
D03*
X380410D02*
D03*
X505364Y289676D02*
D03*
X494497D02*
D03*
X483630D02*
D03*
X472763D02*
D03*
X461896D02*
D03*
X451029D02*
D03*
X440162D02*
D03*
X429295D02*
D03*
X418428D02*
D03*
X407561D02*
D03*
X396694D02*
D03*
X385827D02*
D03*
X374960D02*
D03*
X516231D02*
D03*
X527098D02*
D03*
X537965D02*
D03*
X510814Y300876D02*
D03*
X521681D02*
D03*
X532548D02*
D03*
X342359Y289676D02*
D03*
X353226D02*
D03*
X364093D02*
D03*
X347809Y300876D02*
D03*
X358676D02*
D03*
X369543D02*
D03*
D19*
X314961Y295276D02*
D03*
X565360D02*
D03*
M02*
