G04*
G04 #@! TF.GenerationSoftware,Altium Limited,Altium Designer,19.1.5 (86)*
G04*
G04 Layer_Color=16711935*
%FSLAX25Y25*%
%MOIN*%
G70*
G01*
G75*
%ADD12C,0.07099*%
%ADD13C,0.18517*%
%ADD14C,0.07887*%
%ADD15C,0.22453*%
D12*
X581181Y393543D02*
D03*
X571181Y403543D02*
D03*
Y383543D02*
D03*
X591181D02*
D03*
Y403543D02*
D03*
X580709Y206693D02*
D03*
X570709Y216693D02*
D03*
Y196693D02*
D03*
X590709D02*
D03*
Y216693D02*
D03*
X541339Y206693D02*
D03*
X531339Y216693D02*
D03*
Y196693D02*
D03*
X551339D02*
D03*
Y216693D02*
D03*
X501968Y206693D02*
D03*
X491968Y216693D02*
D03*
Y196693D02*
D03*
X511968D02*
D03*
Y216693D02*
D03*
X462598Y206693D02*
D03*
X452598Y216693D02*
D03*
Y196693D02*
D03*
X472598D02*
D03*
Y216693D02*
D03*
X403543Y206693D02*
D03*
X393543Y216693D02*
D03*
Y196693D02*
D03*
X413543D02*
D03*
Y216693D02*
D03*
X364173Y206693D02*
D03*
X354173Y216693D02*
D03*
Y196693D02*
D03*
X374173D02*
D03*
Y216693D02*
D03*
X324803Y206693D02*
D03*
X314803Y216693D02*
D03*
Y196693D02*
D03*
X334803D02*
D03*
Y216693D02*
D03*
X285433Y206693D02*
D03*
X275433Y216693D02*
D03*
Y196693D02*
D03*
X295433D02*
D03*
Y216693D02*
D03*
X403543Y393701D02*
D03*
X393543Y403701D02*
D03*
Y383701D02*
D03*
X413543D02*
D03*
Y403701D02*
D03*
X364173Y393701D02*
D03*
X354173Y403701D02*
D03*
Y383701D02*
D03*
X374173D02*
D03*
Y403701D02*
D03*
X374331Y255906D02*
D03*
Y235906D02*
D03*
X354331D02*
D03*
Y255906D02*
D03*
X364331Y245906D02*
D03*
X334961Y255906D02*
D03*
Y235906D02*
D03*
X314961D02*
D03*
Y255906D02*
D03*
X324961Y245906D02*
D03*
X295591Y255906D02*
D03*
Y235906D02*
D03*
X275591D02*
D03*
Y255906D02*
D03*
X285591Y245906D02*
D03*
X256220Y255906D02*
D03*
Y235906D02*
D03*
X236220D02*
D03*
Y255906D02*
D03*
X246220Y245906D02*
D03*
X377795Y354488D02*
D03*
Y334488D02*
D03*
X357795D02*
D03*
Y354488D02*
D03*
X367795Y344488D02*
D03*
X338425Y354488D02*
D03*
Y334488D02*
D03*
X318425D02*
D03*
Y354488D02*
D03*
X328425Y344488D02*
D03*
X299055Y354488D02*
D03*
Y334488D02*
D03*
X279055D02*
D03*
Y354488D02*
D03*
X289055Y344488D02*
D03*
X260000Y354488D02*
D03*
Y334488D02*
D03*
X240000D02*
D03*
Y354488D02*
D03*
X250000Y344488D02*
D03*
X334803Y403701D02*
D03*
Y383701D02*
D03*
X314803D02*
D03*
Y403701D02*
D03*
X324803Y393701D02*
D03*
X295433Y403701D02*
D03*
Y383701D02*
D03*
X275433D02*
D03*
Y403701D02*
D03*
X285433Y393701D02*
D03*
X629921Y255906D02*
D03*
Y235906D02*
D03*
X609921D02*
D03*
Y255906D02*
D03*
X619921Y245906D02*
D03*
X590551Y255906D02*
D03*
Y235906D02*
D03*
X570551D02*
D03*
Y255906D02*
D03*
X580551Y245906D02*
D03*
X551181Y255906D02*
D03*
Y235906D02*
D03*
X531181D02*
D03*
Y255906D02*
D03*
X541181Y245906D02*
D03*
X511811Y255906D02*
D03*
Y235906D02*
D03*
X491811D02*
D03*
Y255906D02*
D03*
X501811Y245906D02*
D03*
X551811Y403228D02*
D03*
Y383228D02*
D03*
X531811D02*
D03*
Y403228D02*
D03*
X541811Y393228D02*
D03*
X512126Y403228D02*
D03*
Y383228D02*
D03*
X492126D02*
D03*
Y403228D02*
D03*
X502126Y393228D02*
D03*
X472756Y403543D02*
D03*
Y383543D02*
D03*
X452756D02*
D03*
Y403543D02*
D03*
X462756Y393543D02*
D03*
X629921Y354331D02*
D03*
Y334331D02*
D03*
X609921D02*
D03*
Y354331D02*
D03*
X619921Y344331D02*
D03*
X590551Y354331D02*
D03*
Y334331D02*
D03*
X570551D02*
D03*
Y354331D02*
D03*
X580551Y344331D02*
D03*
X551181Y354331D02*
D03*
Y334331D02*
D03*
X531181D02*
D03*
Y354331D02*
D03*
X541181Y344331D02*
D03*
X511811Y354331D02*
D03*
Y334331D02*
D03*
X491811D02*
D03*
Y354331D02*
D03*
X501811Y344331D02*
D03*
X620236Y305276D02*
D03*
Y285276D02*
D03*
X600236D02*
D03*
Y305276D02*
D03*
X610236Y295276D02*
D03*
X443071Y256063D02*
D03*
Y236063D02*
D03*
X423071D02*
D03*
Y256063D02*
D03*
X433071Y246063D02*
D03*
X423386Y354488D02*
D03*
Y334488D02*
D03*
X403386D02*
D03*
Y354488D02*
D03*
X413386Y344488D02*
D03*
X462756Y354488D02*
D03*
Y334488D02*
D03*
X442756D02*
D03*
Y354488D02*
D03*
X452756Y344488D02*
D03*
D13*
X236220Y208661D02*
D03*
Y393701D02*
D03*
X629921Y208661D02*
D03*
Y393701D02*
D03*
D14*
X499947Y300876D02*
D03*
X489080D02*
D03*
X478213D02*
D03*
X467346D02*
D03*
X456479D02*
D03*
X445612D02*
D03*
X434745D02*
D03*
X423878D02*
D03*
X413011D02*
D03*
X402144D02*
D03*
X391277D02*
D03*
X380410D02*
D03*
X505364Y289676D02*
D03*
X494497D02*
D03*
X483630D02*
D03*
X472763D02*
D03*
X461896D02*
D03*
X451029D02*
D03*
X440162D02*
D03*
X429295D02*
D03*
X418428D02*
D03*
X407561D02*
D03*
X396694D02*
D03*
X385827D02*
D03*
X374960D02*
D03*
X516231D02*
D03*
X527098D02*
D03*
X537965D02*
D03*
X510814Y300876D02*
D03*
X521681D02*
D03*
X532548D02*
D03*
X342359Y289676D02*
D03*
X353226D02*
D03*
X364093D02*
D03*
X347809Y300876D02*
D03*
X358676D02*
D03*
X369543D02*
D03*
D15*
X314961Y295276D02*
D03*
X565360D02*
D03*
M02*
