G04*
G04 #@! TF.GenerationSoftware,Altium Limited,Altium Designer,19.1.5 (86)*
G04*
G04 Layer_Physical_Order=2*
G04 Layer_Color=16711680*
%FSLAX25Y25*%
%MOIN*%
G70*
G01*
G75*
%ADD16C,0.06299*%
%ADD17C,0.17717*%
%ADD18C,0.07087*%
%ADD19C,0.21654*%
G36*
X159449Y190453D02*
D01*
D02*
G37*
G36*
X649606Y185039D02*
X649606Y185039D01*
X217035D01*
X216535Y185539D01*
X216535Y421260D01*
X216535Y421260D01*
X649606D01*
Y185039D01*
D02*
G37*
%LPC*%
G36*
X414043Y407820D02*
Y404201D01*
X417663D01*
X417586Y404784D01*
X417168Y405794D01*
X416503Y406660D01*
X415636Y407326D01*
X414627Y407744D01*
X414043Y407820D01*
D02*
G37*
G36*
X413043D02*
X412460Y407744D01*
X411451Y407326D01*
X410584Y406660D01*
X409919Y405794D01*
X409501Y404784D01*
X409424Y404201D01*
X413043D01*
Y407820D01*
D02*
G37*
G36*
X394043D02*
Y404201D01*
X397663D01*
X397586Y404784D01*
X397168Y405794D01*
X396503Y406660D01*
X395636Y407326D01*
X394627Y407744D01*
X394043Y407820D01*
D02*
G37*
G36*
X393043D02*
X392460Y407744D01*
X391451Y407326D01*
X390584Y406660D01*
X389919Y405794D01*
X389501Y404784D01*
X389424Y404201D01*
X393043D01*
Y407820D01*
D02*
G37*
G36*
X374673D02*
Y404201D01*
X378293D01*
X378216Y404784D01*
X377798Y405794D01*
X377133Y406660D01*
X376266Y407326D01*
X375257Y407744D01*
X374673Y407820D01*
D02*
G37*
G36*
X373673D02*
X373090Y407744D01*
X372081Y407326D01*
X371214Y406660D01*
X370549Y405794D01*
X370131Y404784D01*
X370054Y404201D01*
X373673D01*
Y407820D01*
D02*
G37*
G36*
X354673D02*
Y404201D01*
X358293D01*
X358216Y404784D01*
X357798Y405794D01*
X357133Y406660D01*
X356266Y407326D01*
X355257Y407744D01*
X354673Y407820D01*
D02*
G37*
G36*
X353673D02*
X353090Y407744D01*
X352081Y407326D01*
X351214Y406660D01*
X350549Y405794D01*
X350131Y404784D01*
X350054Y404201D01*
X353673D01*
Y407820D01*
D02*
G37*
G36*
X335303D02*
Y404201D01*
X338923D01*
X338846Y404784D01*
X338428Y405794D01*
X337763Y406660D01*
X336896Y407326D01*
X335887Y407744D01*
X335303Y407820D01*
D02*
G37*
G36*
X334303D02*
X333720Y407744D01*
X332711Y407326D01*
X331844Y406660D01*
X331179Y405794D01*
X330761Y404784D01*
X330684Y404201D01*
X334303D01*
Y407820D01*
D02*
G37*
G36*
X315303D02*
Y404201D01*
X318923D01*
X318846Y404784D01*
X318428Y405794D01*
X317763Y406660D01*
X316896Y407326D01*
X315887Y407744D01*
X315303Y407820D01*
D02*
G37*
G36*
X314303D02*
X313720Y407744D01*
X312711Y407326D01*
X311844Y406660D01*
X311179Y405794D01*
X310761Y404784D01*
X310684Y404201D01*
X314303D01*
Y407820D01*
D02*
G37*
G36*
X295933D02*
Y404201D01*
X299553D01*
X299476Y404784D01*
X299058Y405794D01*
X298393Y406660D01*
X297526Y407326D01*
X296516Y407744D01*
X295933Y407820D01*
D02*
G37*
G36*
X294933D02*
X294350Y407744D01*
X293340Y407326D01*
X292474Y406660D01*
X291809Y405794D01*
X291390Y404784D01*
X291314Y404201D01*
X294933D01*
Y407820D01*
D02*
G37*
G36*
X275933D02*
Y404201D01*
X279553D01*
X279476Y404784D01*
X279058Y405794D01*
X278393Y406660D01*
X277526Y407326D01*
X276517Y407744D01*
X275933Y407820D01*
D02*
G37*
G36*
X274933D02*
X274350Y407744D01*
X273341Y407326D01*
X272474Y406660D01*
X271809Y405794D01*
X271390Y404784D01*
X271314Y404201D01*
X274933D01*
Y407820D01*
D02*
G37*
G36*
X591681Y407663D02*
Y404043D01*
X595301D01*
X595224Y404627D01*
X594806Y405636D01*
X594141Y406503D01*
X593274Y407168D01*
X592265Y407586D01*
X591681Y407663D01*
D02*
G37*
G36*
X590681D02*
X590098Y407586D01*
X589088Y407168D01*
X588222Y406503D01*
X587557Y405636D01*
X587138Y404627D01*
X587062Y404043D01*
X590681D01*
Y407663D01*
D02*
G37*
G36*
X571681D02*
Y404043D01*
X575301D01*
X575224Y404627D01*
X574806Y405636D01*
X574141Y406503D01*
X573274Y407168D01*
X572264Y407586D01*
X571681Y407663D01*
D02*
G37*
G36*
X570681D02*
X570098Y407586D01*
X569089Y407168D01*
X568222Y406503D01*
X567556Y405636D01*
X567138Y404627D01*
X567062Y404043D01*
X570681D01*
Y407663D01*
D02*
G37*
G36*
X473256D02*
Y404043D01*
X476876D01*
X476799Y404627D01*
X476381Y405636D01*
X475715Y406503D01*
X474849Y407168D01*
X473839Y407586D01*
X473256Y407663D01*
D02*
G37*
G36*
X472256D02*
X471673Y407586D01*
X470663Y407168D01*
X469797Y406503D01*
X469131Y405636D01*
X468713Y404627D01*
X468636Y404043D01*
X472256D01*
Y407663D01*
D02*
G37*
G36*
X453256D02*
Y404043D01*
X456876D01*
X456799Y404627D01*
X456381Y405636D01*
X455716Y406503D01*
X454849Y407168D01*
X453839Y407586D01*
X453256Y407663D01*
D02*
G37*
G36*
X452256D02*
X451673Y407586D01*
X450663Y407168D01*
X449796Y406503D01*
X449131Y405636D01*
X448713Y404627D01*
X448636Y404043D01*
X452256D01*
Y407663D01*
D02*
G37*
G36*
X552311Y407348D02*
Y403728D01*
X555931D01*
X555854Y404312D01*
X555436Y405321D01*
X554771Y406188D01*
X553904Y406853D01*
X552894Y407271D01*
X552311Y407348D01*
D02*
G37*
G36*
X551311D02*
X550728Y407271D01*
X549719Y406853D01*
X548852Y406188D01*
X548186Y405321D01*
X547768Y404312D01*
X547692Y403728D01*
X551311D01*
Y407348D01*
D02*
G37*
G36*
X532311D02*
Y403728D01*
X535931D01*
X535854Y404312D01*
X535436Y405321D01*
X534771Y406188D01*
X533904Y406853D01*
X532895Y407271D01*
X532311Y407348D01*
D02*
G37*
G36*
X531311D02*
X530728Y407271D01*
X529718Y406853D01*
X528852Y406188D01*
X528187Y405321D01*
X527768Y404312D01*
X527692Y403728D01*
X531311D01*
Y407348D01*
D02*
G37*
G36*
X512626D02*
Y403728D01*
X516246D01*
X516169Y404312D01*
X515751Y405321D01*
X515086Y406188D01*
X514219Y406853D01*
X513209Y407271D01*
X512626Y407348D01*
D02*
G37*
G36*
X511626D02*
X511043Y407271D01*
X510033Y406853D01*
X509166Y406188D01*
X508501Y405321D01*
X508083Y404312D01*
X508006Y403728D01*
X511626D01*
Y407348D01*
D02*
G37*
G36*
X492626D02*
Y403728D01*
X496246D01*
X496169Y404312D01*
X495751Y405321D01*
X495085Y406188D01*
X494219Y406853D01*
X493209Y407271D01*
X492626Y407348D01*
D02*
G37*
G36*
X491626D02*
X491043Y407271D01*
X490033Y406853D01*
X489166Y406188D01*
X488501Y405321D01*
X488083Y404312D01*
X488006Y403728D01*
X491626D01*
Y407348D01*
D02*
G37*
G36*
X417663Y403201D02*
X414043D01*
Y399581D01*
X414627Y399658D01*
X415636Y400076D01*
X416503Y400741D01*
X417168Y401608D01*
X417586Y402618D01*
X417663Y403201D01*
D02*
G37*
G36*
X413043D02*
X409424D01*
X409501Y402618D01*
X409919Y401608D01*
X410584Y400741D01*
X411451Y400076D01*
X412460Y399658D01*
X413043Y399581D01*
Y403201D01*
D02*
G37*
G36*
X397663D02*
X394043D01*
Y399581D01*
X394627Y399658D01*
X395636Y400076D01*
X396503Y400741D01*
X397168Y401608D01*
X397586Y402618D01*
X397663Y403201D01*
D02*
G37*
G36*
X393043D02*
X389424D01*
X389501Y402618D01*
X389919Y401608D01*
X390584Y400741D01*
X391451Y400076D01*
X392460Y399658D01*
X393043Y399581D01*
Y403201D01*
D02*
G37*
G36*
X378293D02*
X374673D01*
Y399581D01*
X375257Y399658D01*
X376266Y400076D01*
X377133Y400741D01*
X377798Y401608D01*
X378216Y402618D01*
X378293Y403201D01*
D02*
G37*
G36*
X373673D02*
X370054D01*
X370131Y402618D01*
X370549Y401608D01*
X371214Y400741D01*
X372081Y400076D01*
X373090Y399658D01*
X373673Y399581D01*
Y403201D01*
D02*
G37*
G36*
X358293D02*
X354673D01*
Y399581D01*
X355257Y399658D01*
X356266Y400076D01*
X357133Y400741D01*
X357798Y401608D01*
X358216Y402618D01*
X358293Y403201D01*
D02*
G37*
G36*
X353673D02*
X350054D01*
X350131Y402618D01*
X350549Y401608D01*
X351214Y400741D01*
X352081Y400076D01*
X353090Y399658D01*
X353673Y399581D01*
Y403201D01*
D02*
G37*
G36*
X338923D02*
X335303D01*
Y399581D01*
X335887Y399658D01*
X336896Y400076D01*
X337763Y400741D01*
X338428Y401608D01*
X338846Y402618D01*
X338923Y403201D01*
D02*
G37*
G36*
X334303D02*
X330684D01*
X330761Y402618D01*
X331179Y401608D01*
X331844Y400741D01*
X332711Y400076D01*
X333720Y399658D01*
X334303Y399581D01*
Y403201D01*
D02*
G37*
G36*
X318923D02*
X315303D01*
Y399581D01*
X315887Y399658D01*
X316896Y400076D01*
X317763Y400741D01*
X318428Y401608D01*
X318846Y402618D01*
X318923Y403201D01*
D02*
G37*
G36*
X314303D02*
X310684D01*
X310761Y402618D01*
X311179Y401608D01*
X311844Y400741D01*
X312711Y400076D01*
X313720Y399658D01*
X314303Y399581D01*
Y403201D01*
D02*
G37*
G36*
X299553D02*
X295933D01*
Y399581D01*
X296516Y399658D01*
X297526Y400076D01*
X298393Y400741D01*
X299058Y401608D01*
X299476Y402618D01*
X299553Y403201D01*
D02*
G37*
G36*
X294933D02*
X291314D01*
X291390Y402618D01*
X291809Y401608D01*
X292474Y400741D01*
X293340Y400076D01*
X294350Y399658D01*
X294933Y399581D01*
Y403201D01*
D02*
G37*
G36*
X279553D02*
X275933D01*
Y399581D01*
X276517Y399658D01*
X277526Y400076D01*
X278393Y400741D01*
X279058Y401608D01*
X279476Y402618D01*
X279553Y403201D01*
D02*
G37*
G36*
X274933D02*
X271314D01*
X271390Y402618D01*
X271809Y401608D01*
X272474Y400741D01*
X273341Y400076D01*
X274350Y399658D01*
X274933Y399581D01*
Y403201D01*
D02*
G37*
G36*
X595301Y403043D02*
X591681D01*
Y399424D01*
X592265Y399501D01*
X593274Y399919D01*
X594141Y400584D01*
X594806Y401451D01*
X595224Y402460D01*
X595301Y403043D01*
D02*
G37*
G36*
X590681D02*
X587062D01*
X587138Y402460D01*
X587557Y401451D01*
X588222Y400584D01*
X589088Y399919D01*
X590098Y399501D01*
X590681Y399424D01*
Y403043D01*
D02*
G37*
G36*
X575301D02*
X571681D01*
Y399424D01*
X572264Y399501D01*
X573274Y399919D01*
X574141Y400584D01*
X574806Y401451D01*
X575224Y402460D01*
X575301Y403043D01*
D02*
G37*
G36*
X570681D02*
X567062D01*
X567138Y402460D01*
X567556Y401451D01*
X568222Y400584D01*
X569089Y399919D01*
X570098Y399501D01*
X570681Y399424D01*
Y403043D01*
D02*
G37*
G36*
X476876D02*
X473256D01*
Y399424D01*
X473839Y399501D01*
X474849Y399919D01*
X475715Y400584D01*
X476381Y401451D01*
X476799Y402460D01*
X476876Y403043D01*
D02*
G37*
G36*
X472256D02*
X468636D01*
X468713Y402460D01*
X469131Y401451D01*
X469797Y400584D01*
X470663Y399919D01*
X471673Y399501D01*
X472256Y399424D01*
Y403043D01*
D02*
G37*
G36*
X456876D02*
X453256D01*
Y399424D01*
X453839Y399501D01*
X454849Y399919D01*
X455716Y400584D01*
X456381Y401451D01*
X456799Y402460D01*
X456876Y403043D01*
D02*
G37*
G36*
X452256D02*
X448636D01*
X448713Y402460D01*
X449131Y401451D01*
X449796Y400584D01*
X450663Y399919D01*
X451673Y399501D01*
X452256Y399424D01*
Y403043D01*
D02*
G37*
G36*
X555931Y402728D02*
X552311D01*
Y399109D01*
X552894Y399186D01*
X553904Y399604D01*
X554771Y400269D01*
X555436Y401136D01*
X555854Y402145D01*
X555931Y402728D01*
D02*
G37*
G36*
X551311D02*
X547692D01*
X547768Y402145D01*
X548186Y401136D01*
X548852Y400269D01*
X549719Y399604D01*
X550728Y399186D01*
X551311Y399109D01*
Y402728D01*
D02*
G37*
G36*
X535931D02*
X532311D01*
Y399109D01*
X532895Y399186D01*
X533904Y399604D01*
X534771Y400269D01*
X535436Y401136D01*
X535854Y402145D01*
X535931Y402728D01*
D02*
G37*
G36*
X531311D02*
X527692D01*
X527768Y402145D01*
X528187Y401136D01*
X528852Y400269D01*
X529718Y399604D01*
X530728Y399186D01*
X531311Y399109D01*
Y402728D01*
D02*
G37*
G36*
X516246D02*
X512626D01*
Y399109D01*
X513209Y399186D01*
X514219Y399604D01*
X515086Y400269D01*
X515751Y401136D01*
X516169Y402145D01*
X516246Y402728D01*
D02*
G37*
G36*
X511626D02*
X508006D01*
X508083Y402145D01*
X508501Y401136D01*
X509166Y400269D01*
X510033Y399604D01*
X511043Y399186D01*
X511626Y399109D01*
Y402728D01*
D02*
G37*
G36*
X496246D02*
X492626D01*
Y399109D01*
X493209Y399186D01*
X494219Y399604D01*
X495085Y400269D01*
X495751Y401136D01*
X496169Y402145D01*
X496246Y402728D01*
D02*
G37*
G36*
X491626D02*
X488006D01*
X488083Y402145D01*
X488501Y401136D01*
X489166Y400269D01*
X490033Y399604D01*
X491043Y399186D01*
X491626Y399109D01*
Y402728D01*
D02*
G37*
G36*
X630421Y403557D02*
Y394201D01*
X639778D01*
X639637Y395633D01*
X639073Y397492D01*
X638158Y399204D01*
X636926Y400705D01*
X635425Y401937D01*
X633712Y402853D01*
X631854Y403416D01*
X630421Y403557D01*
D02*
G37*
G36*
X629421D02*
X627989Y403416D01*
X626130Y402853D01*
X624418Y401937D01*
X622917Y400705D01*
X621685Y399204D01*
X620769Y397492D01*
X620206Y395633D01*
X620064Y394201D01*
X629421D01*
Y403557D01*
D02*
G37*
G36*
X236720D02*
Y394201D01*
X246077D01*
X245936Y395633D01*
X245372Y397492D01*
X244457Y399204D01*
X243225Y400705D01*
X241724Y401937D01*
X240011Y402853D01*
X238153Y403416D01*
X236720Y403557D01*
D02*
G37*
G36*
X235720D02*
X234288Y403416D01*
X232430Y402853D01*
X230717Y401937D01*
X229216Y400705D01*
X227984Y399204D01*
X227068Y397492D01*
X226505Y395633D01*
X226364Y394201D01*
X235720D01*
Y403557D01*
D02*
G37*
G36*
X403543Y397886D02*
X402460Y397744D01*
X401451Y397325D01*
X400584Y396660D01*
X399919Y395794D01*
X399501Y394784D01*
X399358Y393701D01*
X399501Y392618D01*
X399919Y391608D01*
X400584Y390741D01*
X401451Y390076D01*
X402460Y389658D01*
X403543Y389515D01*
X404627Y389658D01*
X405636Y390076D01*
X406503Y390741D01*
X407168Y391608D01*
X407586Y392618D01*
X407729Y393701D01*
X407586Y394784D01*
X407168Y395794D01*
X406503Y396660D01*
X405636Y397325D01*
X404627Y397744D01*
X403543Y397886D01*
D02*
G37*
G36*
X364173D02*
X363090Y397744D01*
X362081Y397325D01*
X361214Y396660D01*
X360549Y395794D01*
X360131Y394784D01*
X359988Y393701D01*
X360131Y392618D01*
X360549Y391608D01*
X361214Y390741D01*
X362081Y390076D01*
X363090Y389658D01*
X364173Y389515D01*
X365257Y389658D01*
X366266Y390076D01*
X367133Y390741D01*
X367798Y391608D01*
X368216Y392618D01*
X368359Y393701D01*
X368216Y394784D01*
X367798Y395794D01*
X367133Y396660D01*
X366266Y397325D01*
X365257Y397744D01*
X364173Y397886D01*
D02*
G37*
G36*
X324803D02*
X323720Y397744D01*
X322711Y397325D01*
X321844Y396660D01*
X321179Y395794D01*
X320761Y394784D01*
X320618Y393701D01*
X320761Y392618D01*
X321179Y391608D01*
X321844Y390741D01*
X322711Y390076D01*
X323720Y389658D01*
X324803Y389515D01*
X325887Y389658D01*
X326896Y390076D01*
X327763Y390741D01*
X328428Y391608D01*
X328846Y392618D01*
X328989Y393701D01*
X328846Y394784D01*
X328428Y395794D01*
X327763Y396660D01*
X326896Y397325D01*
X325887Y397744D01*
X324803Y397886D01*
D02*
G37*
G36*
X285433D02*
X284350Y397744D01*
X283341Y397325D01*
X282474Y396660D01*
X281808Y395794D01*
X281390Y394784D01*
X281248Y393701D01*
X281390Y392618D01*
X281808Y391608D01*
X282474Y390741D01*
X283341Y390076D01*
X284350Y389658D01*
X285433Y389515D01*
X286516Y389658D01*
X287526Y390076D01*
X288393Y390741D01*
X289058Y391608D01*
X289476Y392618D01*
X289619Y393701D01*
X289476Y394784D01*
X289058Y395794D01*
X288393Y396660D01*
X287526Y397325D01*
X286516Y397744D01*
X285433Y397886D01*
D02*
G37*
G36*
X581181Y397729D02*
X580098Y397586D01*
X579088Y397168D01*
X578222Y396503D01*
X577557Y395636D01*
X577138Y394627D01*
X576996Y393543D01*
X577138Y392460D01*
X577557Y391451D01*
X578222Y390584D01*
X579088Y389919D01*
X580098Y389501D01*
X581181Y389358D01*
X582265Y389501D01*
X583274Y389919D01*
X584141Y390584D01*
X584806Y391451D01*
X585224Y392460D01*
X585367Y393543D01*
X585224Y394627D01*
X584806Y395636D01*
X584141Y396503D01*
X583274Y397168D01*
X582265Y397586D01*
X581181Y397729D01*
D02*
G37*
G36*
X462756D02*
X461673Y397586D01*
X460663Y397168D01*
X459796Y396503D01*
X459131Y395636D01*
X458713Y394627D01*
X458571Y393543D01*
X458713Y392460D01*
X459131Y391451D01*
X459796Y390584D01*
X460663Y389919D01*
X461673Y389501D01*
X462756Y389358D01*
X463839Y389501D01*
X464849Y389919D01*
X465716Y390584D01*
X466381Y391451D01*
X466799Y392460D01*
X466941Y393543D01*
X466799Y394627D01*
X466381Y395636D01*
X465716Y396503D01*
X464849Y397168D01*
X463839Y397586D01*
X462756Y397729D01*
D02*
G37*
G36*
X541811Y397414D02*
X540728Y397271D01*
X539718Y396853D01*
X538852Y396188D01*
X538187Y395321D01*
X537768Y394312D01*
X537626Y393228D01*
X537768Y392145D01*
X538187Y391136D01*
X538852Y390269D01*
X539718Y389604D01*
X540728Y389186D01*
X541811Y389043D01*
X542895Y389186D01*
X543904Y389604D01*
X544771Y390269D01*
X545436Y391136D01*
X545854Y392145D01*
X545997Y393228D01*
X545854Y394312D01*
X545436Y395321D01*
X544771Y396188D01*
X543904Y396853D01*
X542895Y397271D01*
X541811Y397414D01*
D02*
G37*
G36*
X502126D02*
X501043Y397271D01*
X500033Y396853D01*
X499166Y396188D01*
X498501Y395321D01*
X498083Y394312D01*
X497941Y393228D01*
X498083Y392145D01*
X498501Y391136D01*
X499166Y390269D01*
X500033Y389604D01*
X501043Y389186D01*
X502126Y389043D01*
X503209Y389186D01*
X504219Y389604D01*
X505086Y390269D01*
X505751Y391136D01*
X506169Y392145D01*
X506311Y393228D01*
X506169Y394312D01*
X505751Y395321D01*
X505086Y396188D01*
X504219Y396853D01*
X503209Y397271D01*
X502126Y397414D01*
D02*
G37*
G36*
X414043Y387820D02*
Y384201D01*
X417663D01*
X417586Y384784D01*
X417168Y385793D01*
X416503Y386660D01*
X415636Y387326D01*
X414627Y387744D01*
X414043Y387820D01*
D02*
G37*
G36*
X413043D02*
X412460Y387744D01*
X411451Y387326D01*
X410584Y386660D01*
X409919Y385793D01*
X409501Y384784D01*
X409424Y384201D01*
X413043D01*
Y387820D01*
D02*
G37*
G36*
X394043D02*
Y384201D01*
X397663D01*
X397586Y384784D01*
X397168Y385793D01*
X396503Y386660D01*
X395636Y387326D01*
X394627Y387744D01*
X394043Y387820D01*
D02*
G37*
G36*
X393043D02*
X392460Y387744D01*
X391451Y387326D01*
X390584Y386660D01*
X389919Y385793D01*
X389501Y384784D01*
X389424Y384201D01*
X393043D01*
Y387820D01*
D02*
G37*
G36*
X374673D02*
Y384201D01*
X378293D01*
X378216Y384784D01*
X377798Y385793D01*
X377133Y386660D01*
X376266Y387326D01*
X375257Y387744D01*
X374673Y387820D01*
D02*
G37*
G36*
X373673D02*
X373090Y387744D01*
X372081Y387326D01*
X371214Y386660D01*
X370549Y385793D01*
X370131Y384784D01*
X370054Y384201D01*
X373673D01*
Y387820D01*
D02*
G37*
G36*
X354673D02*
Y384201D01*
X358293D01*
X358216Y384784D01*
X357798Y385793D01*
X357133Y386660D01*
X356266Y387326D01*
X355257Y387744D01*
X354673Y387820D01*
D02*
G37*
G36*
X353673D02*
X353090Y387744D01*
X352081Y387326D01*
X351214Y386660D01*
X350549Y385793D01*
X350131Y384784D01*
X350054Y384201D01*
X353673D01*
Y387820D01*
D02*
G37*
G36*
X335303D02*
Y384201D01*
X338923D01*
X338846Y384784D01*
X338428Y385793D01*
X337763Y386660D01*
X336896Y387326D01*
X335887Y387744D01*
X335303Y387820D01*
D02*
G37*
G36*
X334303D02*
X333720Y387744D01*
X332711Y387326D01*
X331844Y386660D01*
X331179Y385793D01*
X330761Y384784D01*
X330684Y384201D01*
X334303D01*
Y387820D01*
D02*
G37*
G36*
X315303D02*
Y384201D01*
X318923D01*
X318846Y384784D01*
X318428Y385793D01*
X317763Y386660D01*
X316896Y387326D01*
X315887Y387744D01*
X315303Y387820D01*
D02*
G37*
G36*
X314303D02*
X313720Y387744D01*
X312711Y387326D01*
X311844Y386660D01*
X311179Y385793D01*
X310761Y384784D01*
X310684Y384201D01*
X314303D01*
Y387820D01*
D02*
G37*
G36*
X295933D02*
Y384201D01*
X299553D01*
X299476Y384784D01*
X299058Y385793D01*
X298393Y386660D01*
X297526Y387326D01*
X296516Y387744D01*
X295933Y387820D01*
D02*
G37*
G36*
X294933D02*
X294350Y387744D01*
X293340Y387326D01*
X292474Y386660D01*
X291809Y385793D01*
X291390Y384784D01*
X291314Y384201D01*
X294933D01*
Y387820D01*
D02*
G37*
G36*
X275933D02*
Y384201D01*
X279553D01*
X279476Y384784D01*
X279058Y385793D01*
X278393Y386660D01*
X277526Y387326D01*
X276517Y387744D01*
X275933Y387820D01*
D02*
G37*
G36*
X274933D02*
X274350Y387744D01*
X273341Y387326D01*
X272474Y386660D01*
X271809Y385793D01*
X271390Y384784D01*
X271314Y384201D01*
X274933D01*
Y387820D01*
D02*
G37*
G36*
X591681Y387663D02*
Y384043D01*
X595301D01*
X595224Y384627D01*
X594806Y385636D01*
X594141Y386503D01*
X593274Y387168D01*
X592265Y387586D01*
X591681Y387663D01*
D02*
G37*
G36*
X590681D02*
X590098Y387586D01*
X589088Y387168D01*
X588222Y386503D01*
X587557Y385636D01*
X587138Y384627D01*
X587062Y384043D01*
X590681D01*
Y387663D01*
D02*
G37*
G36*
X571681D02*
Y384043D01*
X575301D01*
X575224Y384627D01*
X574806Y385636D01*
X574141Y386503D01*
X573274Y387168D01*
X572264Y387586D01*
X571681Y387663D01*
D02*
G37*
G36*
X570681D02*
X570098Y387586D01*
X569089Y387168D01*
X568222Y386503D01*
X567556Y385636D01*
X567138Y384627D01*
X567062Y384043D01*
X570681D01*
Y387663D01*
D02*
G37*
G36*
X473256D02*
Y384043D01*
X476876D01*
X476799Y384627D01*
X476381Y385636D01*
X475715Y386503D01*
X474849Y387168D01*
X473839Y387586D01*
X473256Y387663D01*
D02*
G37*
G36*
X472256D02*
X471673Y387586D01*
X470663Y387168D01*
X469797Y386503D01*
X469131Y385636D01*
X468713Y384627D01*
X468636Y384043D01*
X472256D01*
Y387663D01*
D02*
G37*
G36*
X453256D02*
Y384043D01*
X456876D01*
X456799Y384627D01*
X456381Y385636D01*
X455716Y386503D01*
X454849Y387168D01*
X453839Y387586D01*
X453256Y387663D01*
D02*
G37*
G36*
X452256D02*
X451673Y387586D01*
X450663Y387168D01*
X449796Y386503D01*
X449131Y385636D01*
X448713Y384627D01*
X448636Y384043D01*
X452256D01*
Y387663D01*
D02*
G37*
G36*
X639778Y393201D02*
X630421D01*
Y383844D01*
X631854Y383985D01*
X633712Y384549D01*
X635425Y385464D01*
X636926Y386696D01*
X638158Y388197D01*
X639073Y389910D01*
X639637Y391768D01*
X639778Y393201D01*
D02*
G37*
G36*
X629421D02*
X620064D01*
X620206Y391768D01*
X620769Y389910D01*
X621685Y388197D01*
X622917Y386696D01*
X624418Y385464D01*
X626130Y384549D01*
X627989Y383985D01*
X629421Y383844D01*
Y393201D01*
D02*
G37*
G36*
X246077D02*
X236720D01*
Y383844D01*
X238153Y383985D01*
X240011Y384549D01*
X241724Y385464D01*
X243225Y386696D01*
X244457Y388197D01*
X245372Y389910D01*
X245936Y391768D01*
X246077Y393201D01*
D02*
G37*
G36*
X235720D02*
X226364D01*
X226505Y391768D01*
X227068Y389910D01*
X227984Y388197D01*
X229216Y386696D01*
X230717Y385464D01*
X232430Y384549D01*
X234288Y383985D01*
X235720Y383844D01*
Y393201D01*
D02*
G37*
G36*
X552311Y387348D02*
Y383728D01*
X555931D01*
X555854Y384312D01*
X555436Y385321D01*
X554771Y386188D01*
X553904Y386853D01*
X552894Y387271D01*
X552311Y387348D01*
D02*
G37*
G36*
X551311D02*
X550728Y387271D01*
X549719Y386853D01*
X548852Y386188D01*
X548186Y385321D01*
X547768Y384312D01*
X547692Y383728D01*
X551311D01*
Y387348D01*
D02*
G37*
G36*
X532311D02*
Y383728D01*
X535931D01*
X535854Y384312D01*
X535436Y385321D01*
X534771Y386188D01*
X533904Y386853D01*
X532895Y387271D01*
X532311Y387348D01*
D02*
G37*
G36*
X531311D02*
X530728Y387271D01*
X529718Y386853D01*
X528852Y386188D01*
X528187Y385321D01*
X527768Y384312D01*
X527692Y383728D01*
X531311D01*
Y387348D01*
D02*
G37*
G36*
X512626D02*
Y383728D01*
X516246D01*
X516169Y384312D01*
X515751Y385321D01*
X515086Y386188D01*
X514219Y386853D01*
X513209Y387271D01*
X512626Y387348D01*
D02*
G37*
G36*
X511626D02*
X511043Y387271D01*
X510033Y386853D01*
X509166Y386188D01*
X508501Y385321D01*
X508083Y384312D01*
X508006Y383728D01*
X511626D01*
Y387348D01*
D02*
G37*
G36*
X492626D02*
Y383728D01*
X496246D01*
X496169Y384312D01*
X495751Y385321D01*
X495085Y386188D01*
X494219Y386853D01*
X493209Y387271D01*
X492626Y387348D01*
D02*
G37*
G36*
X491626D02*
X491043Y387271D01*
X490033Y386853D01*
X489166Y386188D01*
X488501Y385321D01*
X488083Y384312D01*
X488006Y383728D01*
X491626D01*
Y387348D01*
D02*
G37*
G36*
X417663Y383201D02*
X414043D01*
Y379581D01*
X414627Y379658D01*
X415636Y380076D01*
X416503Y380741D01*
X417168Y381608D01*
X417586Y382617D01*
X417663Y383201D01*
D02*
G37*
G36*
X413043D02*
X409424D01*
X409501Y382617D01*
X409919Y381608D01*
X410584Y380741D01*
X411451Y380076D01*
X412460Y379658D01*
X413043Y379581D01*
Y383201D01*
D02*
G37*
G36*
X397663D02*
X394043D01*
Y379581D01*
X394627Y379658D01*
X395636Y380076D01*
X396503Y380741D01*
X397168Y381608D01*
X397586Y382617D01*
X397663Y383201D01*
D02*
G37*
G36*
X393043D02*
X389424D01*
X389501Y382617D01*
X389919Y381608D01*
X390584Y380741D01*
X391451Y380076D01*
X392460Y379658D01*
X393043Y379581D01*
Y383201D01*
D02*
G37*
G36*
X378293D02*
X374673D01*
Y379581D01*
X375257Y379658D01*
X376266Y380076D01*
X377133Y380741D01*
X377798Y381608D01*
X378216Y382617D01*
X378293Y383201D01*
D02*
G37*
G36*
X373673D02*
X370054D01*
X370131Y382617D01*
X370549Y381608D01*
X371214Y380741D01*
X372081Y380076D01*
X373090Y379658D01*
X373673Y379581D01*
Y383201D01*
D02*
G37*
G36*
X358293D02*
X354673D01*
Y379581D01*
X355257Y379658D01*
X356266Y380076D01*
X357133Y380741D01*
X357798Y381608D01*
X358216Y382617D01*
X358293Y383201D01*
D02*
G37*
G36*
X353673D02*
X350054D01*
X350131Y382617D01*
X350549Y381608D01*
X351214Y380741D01*
X352081Y380076D01*
X353090Y379658D01*
X353673Y379581D01*
Y383201D01*
D02*
G37*
G36*
X338923D02*
X335303D01*
Y379581D01*
X335887Y379658D01*
X336896Y380076D01*
X337763Y380741D01*
X338428Y381608D01*
X338846Y382617D01*
X338923Y383201D01*
D02*
G37*
G36*
X334303D02*
X330684D01*
X330761Y382617D01*
X331179Y381608D01*
X331844Y380741D01*
X332711Y380076D01*
X333720Y379658D01*
X334303Y379581D01*
Y383201D01*
D02*
G37*
G36*
X318923D02*
X315303D01*
Y379581D01*
X315887Y379658D01*
X316896Y380076D01*
X317763Y380741D01*
X318428Y381608D01*
X318846Y382617D01*
X318923Y383201D01*
D02*
G37*
G36*
X314303D02*
X310684D01*
X310761Y382617D01*
X311179Y381608D01*
X311844Y380741D01*
X312711Y380076D01*
X313720Y379658D01*
X314303Y379581D01*
Y383201D01*
D02*
G37*
G36*
X299553D02*
X295933D01*
Y379581D01*
X296516Y379658D01*
X297526Y380076D01*
X298393Y380741D01*
X299058Y381608D01*
X299476Y382617D01*
X299553Y383201D01*
D02*
G37*
G36*
X294933D02*
X291314D01*
X291390Y382617D01*
X291809Y381608D01*
X292474Y380741D01*
X293340Y380076D01*
X294350Y379658D01*
X294933Y379581D01*
Y383201D01*
D02*
G37*
G36*
X279553D02*
X275933D01*
Y379581D01*
X276517Y379658D01*
X277526Y380076D01*
X278393Y380741D01*
X279058Y381608D01*
X279476Y382617D01*
X279553Y383201D01*
D02*
G37*
G36*
X274933D02*
X271314D01*
X271390Y382617D01*
X271809Y381608D01*
X272474Y380741D01*
X273341Y380076D01*
X274350Y379658D01*
X274933Y379581D01*
Y383201D01*
D02*
G37*
G36*
X595301Y383043D02*
X591681D01*
Y379424D01*
X592265Y379501D01*
X593274Y379919D01*
X594141Y380584D01*
X594806Y381451D01*
X595224Y382460D01*
X595301Y383043D01*
D02*
G37*
G36*
X590681D02*
X587062D01*
X587138Y382460D01*
X587557Y381451D01*
X588222Y380584D01*
X589088Y379919D01*
X590098Y379501D01*
X590681Y379424D01*
Y383043D01*
D02*
G37*
G36*
X575301D02*
X571681D01*
Y379424D01*
X572264Y379501D01*
X573274Y379919D01*
X574141Y380584D01*
X574806Y381451D01*
X575224Y382460D01*
X575301Y383043D01*
D02*
G37*
G36*
X570681D02*
X567062D01*
X567138Y382460D01*
X567556Y381451D01*
X568222Y380584D01*
X569089Y379919D01*
X570098Y379501D01*
X570681Y379424D01*
Y383043D01*
D02*
G37*
G36*
X476876D02*
X473256D01*
Y379424D01*
X473839Y379501D01*
X474849Y379919D01*
X475715Y380584D01*
X476381Y381451D01*
X476799Y382460D01*
X476876Y383043D01*
D02*
G37*
G36*
X472256D02*
X468636D01*
X468713Y382460D01*
X469131Y381451D01*
X469797Y380584D01*
X470663Y379919D01*
X471673Y379501D01*
X472256Y379424D01*
Y383043D01*
D02*
G37*
G36*
X456876D02*
X453256D01*
Y379424D01*
X453839Y379501D01*
X454849Y379919D01*
X455716Y380584D01*
X456381Y381451D01*
X456799Y382460D01*
X456876Y383043D01*
D02*
G37*
G36*
X452256D02*
X448636D01*
X448713Y382460D01*
X449131Y381451D01*
X449796Y380584D01*
X450663Y379919D01*
X451673Y379501D01*
X452256Y379424D01*
Y383043D01*
D02*
G37*
G36*
X555931Y382728D02*
X552311D01*
Y379109D01*
X552894Y379186D01*
X553904Y379604D01*
X554771Y380269D01*
X555436Y381136D01*
X555854Y382145D01*
X555931Y382728D01*
D02*
G37*
G36*
X551311D02*
X547692D01*
X547768Y382145D01*
X548186Y381136D01*
X548852Y380269D01*
X549719Y379604D01*
X550728Y379186D01*
X551311Y379109D01*
Y382728D01*
D02*
G37*
G36*
X535931D02*
X532311D01*
Y379109D01*
X532895Y379186D01*
X533904Y379604D01*
X534771Y380269D01*
X535436Y381136D01*
X535854Y382145D01*
X535931Y382728D01*
D02*
G37*
G36*
X531311D02*
X527692D01*
X527768Y382145D01*
X528187Y381136D01*
X528852Y380269D01*
X529718Y379604D01*
X530728Y379186D01*
X531311Y379109D01*
Y382728D01*
D02*
G37*
G36*
X516246D02*
X512626D01*
Y379109D01*
X513209Y379186D01*
X514219Y379604D01*
X515086Y380269D01*
X515751Y381136D01*
X516169Y382145D01*
X516246Y382728D01*
D02*
G37*
G36*
X511626D02*
X508006D01*
X508083Y382145D01*
X508501Y381136D01*
X509166Y380269D01*
X510033Y379604D01*
X511043Y379186D01*
X511626Y379109D01*
Y382728D01*
D02*
G37*
G36*
X496246D02*
X492626D01*
Y379109D01*
X493209Y379186D01*
X494219Y379604D01*
X495085Y380269D01*
X495751Y381136D01*
X496169Y382145D01*
X496246Y382728D01*
D02*
G37*
G36*
X491626D02*
X488006D01*
X488083Y382145D01*
X488501Y381136D01*
X489166Y380269D01*
X490033Y379604D01*
X491043Y379186D01*
X491626Y379109D01*
Y382728D01*
D02*
G37*
G36*
X463256Y358608D02*
Y354988D01*
X466876D01*
X466799Y355572D01*
X466381Y356581D01*
X465716Y357448D01*
X464849Y358113D01*
X463839Y358531D01*
X463256Y358608D01*
D02*
G37*
G36*
X462256D02*
X461673Y358531D01*
X460663Y358113D01*
X459796Y357448D01*
X459131Y356581D01*
X458713Y355572D01*
X458636Y354988D01*
X462256D01*
Y358608D01*
D02*
G37*
G36*
X443256D02*
Y354988D01*
X446876D01*
X446799Y355572D01*
X446381Y356581D01*
X445716Y357448D01*
X444849Y358113D01*
X443839Y358531D01*
X443256Y358608D01*
D02*
G37*
G36*
X442256D02*
X441673Y358531D01*
X440663Y358113D01*
X439796Y357448D01*
X439131Y356581D01*
X438713Y355572D01*
X438636Y354988D01*
X442256D01*
Y358608D01*
D02*
G37*
G36*
X423886D02*
Y354988D01*
X427505D01*
X427429Y355572D01*
X427010Y356581D01*
X426345Y357448D01*
X425479Y358113D01*
X424469Y358531D01*
X423886Y358608D01*
D02*
G37*
G36*
X422886D02*
X422302Y358531D01*
X421293Y358113D01*
X420426Y357448D01*
X419761Y356581D01*
X419343Y355572D01*
X419266Y354988D01*
X422886D01*
Y358608D01*
D02*
G37*
G36*
X403886D02*
Y354988D01*
X407505D01*
X407429Y355572D01*
X407011Y356581D01*
X406345Y357448D01*
X405478Y358113D01*
X404469Y358531D01*
X403886Y358608D01*
D02*
G37*
G36*
X402886D02*
X402303Y358531D01*
X401293Y358113D01*
X400426Y357448D01*
X399761Y356581D01*
X399343Y355572D01*
X399266Y354988D01*
X402886D01*
Y358608D01*
D02*
G37*
G36*
X378295D02*
Y354988D01*
X381915D01*
X381838Y355572D01*
X381420Y356581D01*
X380755Y357448D01*
X379888Y358113D01*
X378878Y358531D01*
X378295Y358608D01*
D02*
G37*
G36*
X377295D02*
X376712Y358531D01*
X375703Y358113D01*
X374836Y357448D01*
X374170Y356581D01*
X373752Y355572D01*
X373676Y354988D01*
X377295D01*
Y358608D01*
D02*
G37*
G36*
X358295D02*
Y354988D01*
X361915D01*
X361838Y355572D01*
X361420Y356581D01*
X360755Y357448D01*
X359888Y358113D01*
X358878Y358531D01*
X358295Y358608D01*
D02*
G37*
G36*
X357295D02*
X356712Y358531D01*
X355702Y358113D01*
X354836Y357448D01*
X354170Y356581D01*
X353752Y355572D01*
X353676Y354988D01*
X357295D01*
Y358608D01*
D02*
G37*
G36*
X338925D02*
Y354988D01*
X342545D01*
X342468Y355572D01*
X342050Y356581D01*
X341385Y357448D01*
X340518Y358113D01*
X339509Y358531D01*
X338925Y358608D01*
D02*
G37*
G36*
X337925D02*
X337342Y358531D01*
X336333Y358113D01*
X335466Y357448D01*
X334801Y356581D01*
X334382Y355572D01*
X334306Y354988D01*
X337925D01*
Y358608D01*
D02*
G37*
G36*
X318925D02*
Y354988D01*
X322545D01*
X322468Y355572D01*
X322050Y356581D01*
X321385Y357448D01*
X320518Y358113D01*
X319509Y358531D01*
X318925Y358608D01*
D02*
G37*
G36*
X317925D02*
X317342Y358531D01*
X316333Y358113D01*
X315466Y357448D01*
X314801Y356581D01*
X314382Y355572D01*
X314306Y354988D01*
X317925D01*
Y358608D01*
D02*
G37*
G36*
X299555D02*
Y354988D01*
X303175D01*
X303098Y355572D01*
X302680Y356581D01*
X302014Y357448D01*
X301148Y358113D01*
X300138Y358531D01*
X299555Y358608D01*
D02*
G37*
G36*
X298555D02*
X297972Y358531D01*
X296962Y358113D01*
X296095Y357448D01*
X295430Y356581D01*
X295012Y355572D01*
X294935Y354988D01*
X298555D01*
Y358608D01*
D02*
G37*
G36*
X279555D02*
Y354988D01*
X283175D01*
X283098Y355572D01*
X282680Y356581D01*
X282014Y357448D01*
X281148Y358113D01*
X280138Y358531D01*
X279555Y358608D01*
D02*
G37*
G36*
X278555D02*
X277972Y358531D01*
X276962Y358113D01*
X276096Y357448D01*
X275430Y356581D01*
X275012Y355572D01*
X274935Y354988D01*
X278555D01*
Y358608D01*
D02*
G37*
G36*
X260500D02*
Y354988D01*
X264120D01*
X264043Y355572D01*
X263625Y356581D01*
X262960Y357448D01*
X262093Y358113D01*
X261083Y358531D01*
X260500Y358608D01*
D02*
G37*
G36*
X259500D02*
X258917Y358531D01*
X257907Y358113D01*
X257041Y357448D01*
X256375Y356581D01*
X255957Y355572D01*
X255880Y354988D01*
X259500D01*
Y358608D01*
D02*
G37*
G36*
X240500D02*
Y354988D01*
X244120D01*
X244043Y355572D01*
X243625Y356581D01*
X242959Y357448D01*
X242093Y358113D01*
X241083Y358531D01*
X240500Y358608D01*
D02*
G37*
G36*
X239500D02*
X238917Y358531D01*
X237907Y358113D01*
X237040Y357448D01*
X236375Y356581D01*
X235957Y355572D01*
X235880Y354988D01*
X239500D01*
Y358608D01*
D02*
G37*
G36*
X630421Y358450D02*
Y354831D01*
X634041D01*
X633964Y355414D01*
X633546Y356423D01*
X632881Y357290D01*
X632014Y357956D01*
X631004Y358374D01*
X630421Y358450D01*
D02*
G37*
G36*
X629421D02*
X628838Y358374D01*
X627829Y357956D01*
X626962Y357290D01*
X626297Y356423D01*
X625878Y355414D01*
X625802Y354831D01*
X629421D01*
Y358450D01*
D02*
G37*
G36*
X610421D02*
Y354831D01*
X614041D01*
X613964Y355414D01*
X613546Y356423D01*
X612881Y357290D01*
X612014Y357956D01*
X611004Y358374D01*
X610421Y358450D01*
D02*
G37*
G36*
X609421D02*
X608838Y358374D01*
X607829Y357956D01*
X606962Y357290D01*
X606296Y356423D01*
X605878Y355414D01*
X605802Y354831D01*
X609421D01*
Y358450D01*
D02*
G37*
G36*
X591051D02*
Y354831D01*
X594671D01*
X594594Y355414D01*
X594176Y356423D01*
X593510Y357290D01*
X592644Y357956D01*
X591634Y358374D01*
X591051Y358450D01*
D02*
G37*
G36*
X590051D02*
X589468Y358374D01*
X588458Y357956D01*
X587592Y357290D01*
X586926Y356423D01*
X586508Y355414D01*
X586431Y354831D01*
X590051D01*
Y358450D01*
D02*
G37*
G36*
X571051D02*
Y354831D01*
X574671D01*
X574594Y355414D01*
X574176Y356423D01*
X573511Y357290D01*
X572644Y357956D01*
X571634Y358374D01*
X571051Y358450D01*
D02*
G37*
G36*
X570051D02*
X569468Y358374D01*
X568458Y357956D01*
X567591Y357290D01*
X566926Y356423D01*
X566508Y355414D01*
X566431Y354831D01*
X570051D01*
Y358450D01*
D02*
G37*
G36*
X551681D02*
Y354831D01*
X555301D01*
X555224Y355414D01*
X554806Y356423D01*
X554141Y357290D01*
X553274Y357956D01*
X552264Y358374D01*
X551681Y358450D01*
D02*
G37*
G36*
X550681D02*
X550098Y358374D01*
X549088Y357956D01*
X548221Y357290D01*
X547556Y356423D01*
X547138Y355414D01*
X547061Y354831D01*
X550681D01*
Y358450D01*
D02*
G37*
G36*
X531681D02*
Y354831D01*
X535301D01*
X535224Y355414D01*
X534806Y356423D01*
X534140Y357290D01*
X533274Y357956D01*
X532264Y358374D01*
X531681Y358450D01*
D02*
G37*
G36*
X530681D02*
X530098Y358374D01*
X529088Y357956D01*
X528222Y357290D01*
X527556Y356423D01*
X527138Y355414D01*
X527061Y354831D01*
X530681D01*
Y358450D01*
D02*
G37*
G36*
X512311D02*
Y354831D01*
X515930D01*
X515854Y355414D01*
X515436Y356423D01*
X514770Y357290D01*
X513904Y357956D01*
X512894Y358374D01*
X512311Y358450D01*
D02*
G37*
G36*
X511311D02*
X510728Y358374D01*
X509718Y357956D01*
X508851Y357290D01*
X508186Y356423D01*
X507768Y355414D01*
X507691Y354831D01*
X511311D01*
Y358450D01*
D02*
G37*
G36*
X492311D02*
Y354831D01*
X495930D01*
X495854Y355414D01*
X495435Y356423D01*
X494770Y357290D01*
X493903Y357956D01*
X492894Y358374D01*
X492311Y358450D01*
D02*
G37*
G36*
X491311D02*
X490728Y358374D01*
X489718Y357956D01*
X488851Y357290D01*
X488186Y356423D01*
X487768Y355414D01*
X487691Y354831D01*
X491311D01*
Y358450D01*
D02*
G37*
G36*
X466876Y353988D02*
X463256D01*
Y350369D01*
X463839Y350445D01*
X464849Y350864D01*
X465716Y351529D01*
X466381Y352396D01*
X466799Y353405D01*
X466876Y353988D01*
D02*
G37*
G36*
X462256D02*
X458636D01*
X458713Y353405D01*
X459131Y352396D01*
X459796Y351529D01*
X460663Y350864D01*
X461673Y350445D01*
X462256Y350369D01*
Y353988D01*
D02*
G37*
G36*
X446876D02*
X443256D01*
Y350369D01*
X443839Y350445D01*
X444849Y350864D01*
X445716Y351529D01*
X446381Y352396D01*
X446799Y353405D01*
X446876Y353988D01*
D02*
G37*
G36*
X442256D02*
X438636D01*
X438713Y353405D01*
X439131Y352396D01*
X439796Y351529D01*
X440663Y350864D01*
X441673Y350445D01*
X442256Y350369D01*
Y353988D01*
D02*
G37*
G36*
X427505D02*
X423886D01*
Y350369D01*
X424469Y350445D01*
X425479Y350864D01*
X426345Y351529D01*
X427010Y352396D01*
X427429Y353405D01*
X427505Y353988D01*
D02*
G37*
G36*
X422886D02*
X419266D01*
X419343Y353405D01*
X419761Y352396D01*
X420426Y351529D01*
X421293Y350864D01*
X422302Y350445D01*
X422886Y350369D01*
Y353988D01*
D02*
G37*
G36*
X407505D02*
X403886D01*
Y350369D01*
X404469Y350445D01*
X405478Y350864D01*
X406345Y351529D01*
X407011Y352396D01*
X407429Y353405D01*
X407505Y353988D01*
D02*
G37*
G36*
X402886D02*
X399266D01*
X399343Y353405D01*
X399761Y352396D01*
X400426Y351529D01*
X401293Y350864D01*
X402303Y350445D01*
X402886Y350369D01*
Y353988D01*
D02*
G37*
G36*
X381915D02*
X378295D01*
Y350369D01*
X378878Y350445D01*
X379888Y350864D01*
X380755Y351529D01*
X381420Y352396D01*
X381838Y353405D01*
X381915Y353988D01*
D02*
G37*
G36*
X377295D02*
X373676D01*
X373752Y353405D01*
X374170Y352396D01*
X374836Y351529D01*
X375703Y350864D01*
X376712Y350445D01*
X377295Y350369D01*
Y353988D01*
D02*
G37*
G36*
X361915D02*
X358295D01*
Y350369D01*
X358878Y350445D01*
X359888Y350864D01*
X360755Y351529D01*
X361420Y352396D01*
X361838Y353405D01*
X361915Y353988D01*
D02*
G37*
G36*
X357295D02*
X353676D01*
X353752Y353405D01*
X354170Y352396D01*
X354836Y351529D01*
X355702Y350864D01*
X356712Y350445D01*
X357295Y350369D01*
Y353988D01*
D02*
G37*
G36*
X342545D02*
X338925D01*
Y350369D01*
X339509Y350445D01*
X340518Y350864D01*
X341385Y351529D01*
X342050Y352396D01*
X342468Y353405D01*
X342545Y353988D01*
D02*
G37*
G36*
X337925D02*
X334306D01*
X334382Y353405D01*
X334801Y352396D01*
X335466Y351529D01*
X336333Y350864D01*
X337342Y350445D01*
X337925Y350369D01*
Y353988D01*
D02*
G37*
G36*
X322545D02*
X318925D01*
Y350369D01*
X319509Y350445D01*
X320518Y350864D01*
X321385Y351529D01*
X322050Y352396D01*
X322468Y353405D01*
X322545Y353988D01*
D02*
G37*
G36*
X317925D02*
X314306D01*
X314382Y353405D01*
X314801Y352396D01*
X315466Y351529D01*
X316333Y350864D01*
X317342Y350445D01*
X317925Y350369D01*
Y353988D01*
D02*
G37*
G36*
X303175D02*
X299555D01*
Y350369D01*
X300138Y350445D01*
X301148Y350864D01*
X302014Y351529D01*
X302680Y352396D01*
X303098Y353405D01*
X303175Y353988D01*
D02*
G37*
G36*
X298555D02*
X294935D01*
X295012Y353405D01*
X295430Y352396D01*
X296095Y351529D01*
X296962Y350864D01*
X297972Y350445D01*
X298555Y350369D01*
Y353988D01*
D02*
G37*
G36*
X283175D02*
X279555D01*
Y350369D01*
X280138Y350445D01*
X281148Y350864D01*
X282014Y351529D01*
X282680Y352396D01*
X283098Y353405D01*
X283175Y353988D01*
D02*
G37*
G36*
X278555D02*
X274935D01*
X275012Y353405D01*
X275430Y352396D01*
X276096Y351529D01*
X276962Y350864D01*
X277972Y350445D01*
X278555Y350369D01*
Y353988D01*
D02*
G37*
G36*
X264120D02*
X260500D01*
Y350369D01*
X261083Y350445D01*
X262093Y350864D01*
X262960Y351529D01*
X263625Y352396D01*
X264043Y353405D01*
X264120Y353988D01*
D02*
G37*
G36*
X259500D02*
X255880D01*
X255957Y353405D01*
X256375Y352396D01*
X257041Y351529D01*
X257907Y350864D01*
X258917Y350445D01*
X259500Y350369D01*
Y353988D01*
D02*
G37*
G36*
X244120D02*
X240500D01*
Y350369D01*
X241083Y350445D01*
X242093Y350864D01*
X242959Y351529D01*
X243625Y352396D01*
X244043Y353405D01*
X244120Y353988D01*
D02*
G37*
G36*
X239500D02*
X235880D01*
X235957Y353405D01*
X236375Y352396D01*
X237040Y351529D01*
X237907Y350864D01*
X238917Y350445D01*
X239500Y350369D01*
Y353988D01*
D02*
G37*
G36*
X634041Y353831D02*
X630421D01*
Y350211D01*
X631004Y350288D01*
X632014Y350706D01*
X632881Y351371D01*
X633546Y352238D01*
X633964Y353247D01*
X634041Y353831D01*
D02*
G37*
G36*
X629421D02*
X625802D01*
X625878Y353247D01*
X626297Y352238D01*
X626962Y351371D01*
X627829Y350706D01*
X628838Y350288D01*
X629421Y350211D01*
Y353831D01*
D02*
G37*
G36*
X614041D02*
X610421D01*
Y350211D01*
X611004Y350288D01*
X612014Y350706D01*
X612881Y351371D01*
X613546Y352238D01*
X613964Y353247D01*
X614041Y353831D01*
D02*
G37*
G36*
X609421D02*
X605802D01*
X605878Y353247D01*
X606296Y352238D01*
X606962Y351371D01*
X607829Y350706D01*
X608838Y350288D01*
X609421Y350211D01*
Y353831D01*
D02*
G37*
G36*
X594671D02*
X591051D01*
Y350211D01*
X591634Y350288D01*
X592644Y350706D01*
X593510Y351371D01*
X594176Y352238D01*
X594594Y353247D01*
X594671Y353831D01*
D02*
G37*
G36*
X590051D02*
X586431D01*
X586508Y353247D01*
X586926Y352238D01*
X587592Y351371D01*
X588458Y350706D01*
X589468Y350288D01*
X590051Y350211D01*
Y353831D01*
D02*
G37*
G36*
X574671D02*
X571051D01*
Y350211D01*
X571634Y350288D01*
X572644Y350706D01*
X573511Y351371D01*
X574176Y352238D01*
X574594Y353247D01*
X574671Y353831D01*
D02*
G37*
G36*
X570051D02*
X566431D01*
X566508Y353247D01*
X566926Y352238D01*
X567591Y351371D01*
X568458Y350706D01*
X569468Y350288D01*
X570051Y350211D01*
Y353831D01*
D02*
G37*
G36*
X555301D02*
X551681D01*
Y350211D01*
X552264Y350288D01*
X553274Y350706D01*
X554141Y351371D01*
X554806Y352238D01*
X555224Y353247D01*
X555301Y353831D01*
D02*
G37*
G36*
X550681D02*
X547061D01*
X547138Y353247D01*
X547556Y352238D01*
X548221Y351371D01*
X549088Y350706D01*
X550098Y350288D01*
X550681Y350211D01*
Y353831D01*
D02*
G37*
G36*
X535301D02*
X531681D01*
Y350211D01*
X532264Y350288D01*
X533274Y350706D01*
X534140Y351371D01*
X534806Y352238D01*
X535224Y353247D01*
X535301Y353831D01*
D02*
G37*
G36*
X530681D02*
X527061D01*
X527138Y353247D01*
X527556Y352238D01*
X528222Y351371D01*
X529088Y350706D01*
X530098Y350288D01*
X530681Y350211D01*
Y353831D01*
D02*
G37*
G36*
X515930D02*
X512311D01*
Y350211D01*
X512894Y350288D01*
X513904Y350706D01*
X514770Y351371D01*
X515436Y352238D01*
X515854Y353247D01*
X515930Y353831D01*
D02*
G37*
G36*
X511311D02*
X507691D01*
X507768Y353247D01*
X508186Y352238D01*
X508851Y351371D01*
X509718Y350706D01*
X510728Y350288D01*
X511311Y350211D01*
Y353831D01*
D02*
G37*
G36*
X495930D02*
X492311D01*
Y350211D01*
X492894Y350288D01*
X493903Y350706D01*
X494770Y351371D01*
X495435Y352238D01*
X495854Y353247D01*
X495930Y353831D01*
D02*
G37*
G36*
X491311D02*
X487691D01*
X487768Y353247D01*
X488186Y352238D01*
X488851Y351371D01*
X489718Y350706D01*
X490728Y350288D01*
X491311Y350211D01*
Y353831D01*
D02*
G37*
G36*
X453256Y348608D02*
Y344988D01*
X456876D01*
X456799Y345571D01*
X456381Y346581D01*
X455716Y347448D01*
X454849Y348113D01*
X453839Y348531D01*
X453256Y348608D01*
D02*
G37*
G36*
X452256D02*
X451673Y348531D01*
X450663Y348113D01*
X449796Y347448D01*
X449131Y346581D01*
X448713Y345571D01*
X448636Y344988D01*
X452256D01*
Y348608D01*
D02*
G37*
G36*
X456876Y343988D02*
X453256D01*
Y340369D01*
X453839Y340445D01*
X454849Y340863D01*
X455716Y341529D01*
X456381Y342395D01*
X456799Y343405D01*
X456876Y343988D01*
D02*
G37*
G36*
X452256D02*
X448636D01*
X448713Y343405D01*
X449131Y342395D01*
X449796Y341529D01*
X450663Y340863D01*
X451673Y340445D01*
X452256Y340369D01*
Y343988D01*
D02*
G37*
G36*
X413386Y348674D02*
X412302Y348531D01*
X411293Y348113D01*
X410426Y347448D01*
X409761Y346581D01*
X409343Y345571D01*
X409200Y344488D01*
X409343Y343405D01*
X409761Y342395D01*
X410426Y341529D01*
X411293Y340863D01*
X412302Y340445D01*
X413386Y340303D01*
X414469Y340445D01*
X415479Y340863D01*
X416345Y341529D01*
X417010Y342395D01*
X417429Y343405D01*
X417571Y344488D01*
X417429Y345571D01*
X417010Y346581D01*
X416345Y347448D01*
X415479Y348113D01*
X414469Y348531D01*
X413386Y348674D01*
D02*
G37*
G36*
X367795D02*
X366712Y348531D01*
X365703Y348113D01*
X364836Y347448D01*
X364171Y346581D01*
X363752Y345571D01*
X363610Y344488D01*
X363752Y343405D01*
X364171Y342395D01*
X364836Y341529D01*
X365703Y340863D01*
X366712Y340445D01*
X367795Y340303D01*
X368879Y340445D01*
X369888Y340863D01*
X370755Y341529D01*
X371420Y342395D01*
X371838Y343405D01*
X371981Y344488D01*
X371838Y345571D01*
X371420Y346581D01*
X370755Y347448D01*
X369888Y348113D01*
X368879Y348531D01*
X367795Y348674D01*
D02*
G37*
G36*
X328425D02*
X327342Y348531D01*
X326332Y348113D01*
X325466Y347448D01*
X324800Y346581D01*
X324382Y345571D01*
X324240Y344488D01*
X324382Y343405D01*
X324800Y342395D01*
X325466Y341529D01*
X326332Y340863D01*
X327342Y340445D01*
X328425Y340303D01*
X329508Y340445D01*
X330518Y340863D01*
X331385Y341529D01*
X332050Y342395D01*
X332468Y343405D01*
X332611Y344488D01*
X332468Y345571D01*
X332050Y346581D01*
X331385Y347448D01*
X330518Y348113D01*
X329508Y348531D01*
X328425Y348674D01*
D02*
G37*
G36*
X289055D02*
X287972Y348531D01*
X286962Y348113D01*
X286095Y347448D01*
X285430Y346581D01*
X285012Y345571D01*
X284870Y344488D01*
X285012Y343405D01*
X285430Y342395D01*
X286095Y341529D01*
X286962Y340863D01*
X287972Y340445D01*
X289055Y340303D01*
X290138Y340445D01*
X291148Y340863D01*
X292015Y341529D01*
X292680Y342395D01*
X293098Y343405D01*
X293240Y344488D01*
X293098Y345571D01*
X292680Y346581D01*
X292015Y347448D01*
X291148Y348113D01*
X290138Y348531D01*
X289055Y348674D01*
D02*
G37*
G36*
X250000D02*
X248917Y348531D01*
X247907Y348113D01*
X247041Y347448D01*
X246375Y346581D01*
X245957Y345571D01*
X245815Y344488D01*
X245957Y343405D01*
X246375Y342395D01*
X247041Y341529D01*
X247907Y340863D01*
X248917Y340445D01*
X250000Y340303D01*
X251083Y340445D01*
X252093Y340863D01*
X252959Y341529D01*
X253625Y342395D01*
X254043Y343405D01*
X254185Y344488D01*
X254043Y345571D01*
X253625Y346581D01*
X252959Y347448D01*
X252093Y348113D01*
X251083Y348531D01*
X250000Y348674D01*
D02*
G37*
G36*
X619921Y348516D02*
X618838Y348374D01*
X617829Y347955D01*
X616962Y347290D01*
X616296Y346424D01*
X615878Y345414D01*
X615736Y344331D01*
X615878Y343248D01*
X616296Y342238D01*
X616962Y341371D01*
X617829Y340706D01*
X618838Y340288D01*
X619921Y340145D01*
X621004Y340288D01*
X622014Y340706D01*
X622881Y341371D01*
X623546Y342238D01*
X623964Y343248D01*
X624107Y344331D01*
X623964Y345414D01*
X623546Y346424D01*
X622881Y347290D01*
X622014Y347955D01*
X621004Y348374D01*
X619921Y348516D01*
D02*
G37*
G36*
X580551D02*
X579468Y348374D01*
X578458Y347955D01*
X577592Y347290D01*
X576926Y346424D01*
X576508Y345414D01*
X576366Y344331D01*
X576508Y343248D01*
X576926Y342238D01*
X577592Y341371D01*
X578458Y340706D01*
X579468Y340288D01*
X580551Y340145D01*
X581634Y340288D01*
X582644Y340706D01*
X583510Y341371D01*
X584176Y342238D01*
X584594Y343248D01*
X584736Y344331D01*
X584594Y345414D01*
X584176Y346424D01*
X583510Y347290D01*
X582644Y347955D01*
X581634Y348374D01*
X580551Y348516D01*
D02*
G37*
G36*
X541181D02*
X540098Y348374D01*
X539088Y347955D01*
X538222Y347290D01*
X537556Y346424D01*
X537138Y345414D01*
X536996Y344331D01*
X537138Y343248D01*
X537556Y342238D01*
X538222Y341371D01*
X539088Y340706D01*
X540098Y340288D01*
X541181Y340145D01*
X542264Y340288D01*
X543274Y340706D01*
X544140Y341371D01*
X544806Y342238D01*
X545224Y343248D01*
X545366Y344331D01*
X545224Y345414D01*
X544806Y346424D01*
X544140Y347290D01*
X543274Y347955D01*
X542264Y348374D01*
X541181Y348516D01*
D02*
G37*
G36*
X501811D02*
X500728Y348374D01*
X499718Y347955D01*
X498851Y347290D01*
X498186Y346424D01*
X497768Y345414D01*
X497625Y344331D01*
X497768Y343248D01*
X498186Y342238D01*
X498851Y341371D01*
X499718Y340706D01*
X500728Y340288D01*
X501811Y340145D01*
X502894Y340288D01*
X503903Y340706D01*
X504770Y341371D01*
X505436Y342238D01*
X505854Y343248D01*
X505996Y344331D01*
X505854Y345414D01*
X505436Y346424D01*
X504770Y347290D01*
X503903Y347955D01*
X502894Y348374D01*
X501811Y348516D01*
D02*
G37*
G36*
X463256Y338608D02*
Y334988D01*
X466876D01*
X466799Y335572D01*
X466381Y336581D01*
X465716Y337448D01*
X464849Y338113D01*
X463839Y338531D01*
X463256Y338608D01*
D02*
G37*
G36*
X462256D02*
X461673Y338531D01*
X460663Y338113D01*
X459796Y337448D01*
X459131Y336581D01*
X458713Y335572D01*
X458636Y334988D01*
X462256D01*
Y338608D01*
D02*
G37*
G36*
X443256D02*
Y334988D01*
X446876D01*
X446799Y335572D01*
X446381Y336581D01*
X445716Y337448D01*
X444849Y338113D01*
X443839Y338531D01*
X443256Y338608D01*
D02*
G37*
G36*
X442256D02*
X441673Y338531D01*
X440663Y338113D01*
X439796Y337448D01*
X439131Y336581D01*
X438713Y335572D01*
X438636Y334988D01*
X442256D01*
Y338608D01*
D02*
G37*
G36*
X423886D02*
Y334988D01*
X427505D01*
X427429Y335572D01*
X427010Y336581D01*
X426345Y337448D01*
X425479Y338113D01*
X424469Y338531D01*
X423886Y338608D01*
D02*
G37*
G36*
X422886D02*
X422302Y338531D01*
X421293Y338113D01*
X420426Y337448D01*
X419761Y336581D01*
X419343Y335572D01*
X419266Y334988D01*
X422886D01*
Y338608D01*
D02*
G37*
G36*
X403886D02*
Y334988D01*
X407505D01*
X407429Y335572D01*
X407011Y336581D01*
X406345Y337448D01*
X405478Y338113D01*
X404469Y338531D01*
X403886Y338608D01*
D02*
G37*
G36*
X402886D02*
X402303Y338531D01*
X401293Y338113D01*
X400426Y337448D01*
X399761Y336581D01*
X399343Y335572D01*
X399266Y334988D01*
X402886D01*
Y338608D01*
D02*
G37*
G36*
X378295D02*
Y334988D01*
X381915D01*
X381838Y335572D01*
X381420Y336581D01*
X380755Y337448D01*
X379888Y338113D01*
X378878Y338531D01*
X378295Y338608D01*
D02*
G37*
G36*
X377295D02*
X376712Y338531D01*
X375703Y338113D01*
X374836Y337448D01*
X374170Y336581D01*
X373752Y335572D01*
X373676Y334988D01*
X377295D01*
Y338608D01*
D02*
G37*
G36*
X358295D02*
Y334988D01*
X361915D01*
X361838Y335572D01*
X361420Y336581D01*
X360755Y337448D01*
X359888Y338113D01*
X358878Y338531D01*
X358295Y338608D01*
D02*
G37*
G36*
X357295D02*
X356712Y338531D01*
X355702Y338113D01*
X354836Y337448D01*
X354170Y336581D01*
X353752Y335572D01*
X353676Y334988D01*
X357295D01*
Y338608D01*
D02*
G37*
G36*
X338925D02*
Y334988D01*
X342545D01*
X342468Y335572D01*
X342050Y336581D01*
X341385Y337448D01*
X340518Y338113D01*
X339509Y338531D01*
X338925Y338608D01*
D02*
G37*
G36*
X337925D02*
X337342Y338531D01*
X336333Y338113D01*
X335466Y337448D01*
X334801Y336581D01*
X334382Y335572D01*
X334306Y334988D01*
X337925D01*
Y338608D01*
D02*
G37*
G36*
X318925D02*
Y334988D01*
X322545D01*
X322468Y335572D01*
X322050Y336581D01*
X321385Y337448D01*
X320518Y338113D01*
X319509Y338531D01*
X318925Y338608D01*
D02*
G37*
G36*
X317925D02*
X317342Y338531D01*
X316333Y338113D01*
X315466Y337448D01*
X314801Y336581D01*
X314382Y335572D01*
X314306Y334988D01*
X317925D01*
Y338608D01*
D02*
G37*
G36*
X299555D02*
Y334988D01*
X303175D01*
X303098Y335572D01*
X302680Y336581D01*
X302014Y337448D01*
X301148Y338113D01*
X300138Y338531D01*
X299555Y338608D01*
D02*
G37*
G36*
X298555D02*
X297972Y338531D01*
X296962Y338113D01*
X296095Y337448D01*
X295430Y336581D01*
X295012Y335572D01*
X294935Y334988D01*
X298555D01*
Y338608D01*
D02*
G37*
G36*
X279555D02*
Y334988D01*
X283175D01*
X283098Y335572D01*
X282680Y336581D01*
X282014Y337448D01*
X281148Y338113D01*
X280138Y338531D01*
X279555Y338608D01*
D02*
G37*
G36*
X278555D02*
X277972Y338531D01*
X276962Y338113D01*
X276096Y337448D01*
X275430Y336581D01*
X275012Y335572D01*
X274935Y334988D01*
X278555D01*
Y338608D01*
D02*
G37*
G36*
X260500D02*
Y334988D01*
X264120D01*
X264043Y335572D01*
X263625Y336581D01*
X262960Y337448D01*
X262093Y338113D01*
X261083Y338531D01*
X260500Y338608D01*
D02*
G37*
G36*
X259500D02*
X258917Y338531D01*
X257907Y338113D01*
X257041Y337448D01*
X256375Y336581D01*
X255957Y335572D01*
X255880Y334988D01*
X259500D01*
Y338608D01*
D02*
G37*
G36*
X240500D02*
Y334988D01*
X244120D01*
X244043Y335572D01*
X243625Y336581D01*
X242959Y337448D01*
X242093Y338113D01*
X241083Y338531D01*
X240500Y338608D01*
D02*
G37*
G36*
X239500D02*
X238917Y338531D01*
X237907Y338113D01*
X237040Y337448D01*
X236375Y336581D01*
X235957Y335572D01*
X235880Y334988D01*
X239500D01*
Y338608D01*
D02*
G37*
G36*
X630421Y338450D02*
Y334831D01*
X634041D01*
X633964Y335414D01*
X633546Y336423D01*
X632881Y337290D01*
X632014Y337955D01*
X631004Y338374D01*
X630421Y338450D01*
D02*
G37*
G36*
X629421D02*
X628838Y338374D01*
X627829Y337955D01*
X626962Y337290D01*
X626297Y336423D01*
X625878Y335414D01*
X625802Y334831D01*
X629421D01*
Y338450D01*
D02*
G37*
G36*
X610421D02*
Y334831D01*
X614041D01*
X613964Y335414D01*
X613546Y336423D01*
X612881Y337290D01*
X612014Y337955D01*
X611004Y338374D01*
X610421Y338450D01*
D02*
G37*
G36*
X609421D02*
X608838Y338374D01*
X607829Y337955D01*
X606962Y337290D01*
X606296Y336423D01*
X605878Y335414D01*
X605802Y334831D01*
X609421D01*
Y338450D01*
D02*
G37*
G36*
X591051D02*
Y334831D01*
X594671D01*
X594594Y335414D01*
X594176Y336423D01*
X593510Y337290D01*
X592644Y337955D01*
X591634Y338374D01*
X591051Y338450D01*
D02*
G37*
G36*
X590051D02*
X589468Y338374D01*
X588458Y337955D01*
X587592Y337290D01*
X586926Y336423D01*
X586508Y335414D01*
X586431Y334831D01*
X590051D01*
Y338450D01*
D02*
G37*
G36*
X571051D02*
Y334831D01*
X574671D01*
X574594Y335414D01*
X574176Y336423D01*
X573511Y337290D01*
X572644Y337955D01*
X571634Y338374D01*
X571051Y338450D01*
D02*
G37*
G36*
X570051D02*
X569468Y338374D01*
X568458Y337955D01*
X567591Y337290D01*
X566926Y336423D01*
X566508Y335414D01*
X566431Y334831D01*
X570051D01*
Y338450D01*
D02*
G37*
G36*
X551681D02*
Y334831D01*
X555301D01*
X555224Y335414D01*
X554806Y336423D01*
X554141Y337290D01*
X553274Y337955D01*
X552264Y338374D01*
X551681Y338450D01*
D02*
G37*
G36*
X550681D02*
X550098Y338374D01*
X549088Y337955D01*
X548221Y337290D01*
X547556Y336423D01*
X547138Y335414D01*
X547061Y334831D01*
X550681D01*
Y338450D01*
D02*
G37*
G36*
X531681D02*
Y334831D01*
X535301D01*
X535224Y335414D01*
X534806Y336423D01*
X534140Y337290D01*
X533274Y337955D01*
X532264Y338374D01*
X531681Y338450D01*
D02*
G37*
G36*
X530681D02*
X530098Y338374D01*
X529088Y337955D01*
X528222Y337290D01*
X527556Y336423D01*
X527138Y335414D01*
X527061Y334831D01*
X530681D01*
Y338450D01*
D02*
G37*
G36*
X512311D02*
Y334831D01*
X515930D01*
X515854Y335414D01*
X515436Y336423D01*
X514770Y337290D01*
X513904Y337955D01*
X512894Y338374D01*
X512311Y338450D01*
D02*
G37*
G36*
X511311D02*
X510728Y338374D01*
X509718Y337955D01*
X508851Y337290D01*
X508186Y336423D01*
X507768Y335414D01*
X507691Y334831D01*
X511311D01*
Y338450D01*
D02*
G37*
G36*
X492311D02*
Y334831D01*
X495930D01*
X495854Y335414D01*
X495435Y336423D01*
X494770Y337290D01*
X493903Y337955D01*
X492894Y338374D01*
X492311Y338450D01*
D02*
G37*
G36*
X491311D02*
X490728Y338374D01*
X489718Y337955D01*
X488851Y337290D01*
X488186Y336423D01*
X487768Y335414D01*
X487691Y334831D01*
X491311D01*
Y338450D01*
D02*
G37*
G36*
X466876Y333988D02*
X463256D01*
Y330369D01*
X463839Y330445D01*
X464849Y330863D01*
X465716Y331529D01*
X466381Y332396D01*
X466799Y333405D01*
X466876Y333988D01*
D02*
G37*
G36*
X462256D02*
X458636D01*
X458713Y333405D01*
X459131Y332396D01*
X459796Y331529D01*
X460663Y330863D01*
X461673Y330445D01*
X462256Y330369D01*
Y333988D01*
D02*
G37*
G36*
X446876D02*
X443256D01*
Y330369D01*
X443839Y330445D01*
X444849Y330863D01*
X445716Y331529D01*
X446381Y332396D01*
X446799Y333405D01*
X446876Y333988D01*
D02*
G37*
G36*
X442256D02*
X438636D01*
X438713Y333405D01*
X439131Y332396D01*
X439796Y331529D01*
X440663Y330863D01*
X441673Y330445D01*
X442256Y330369D01*
Y333988D01*
D02*
G37*
G36*
X427505D02*
X423886D01*
Y330369D01*
X424469Y330445D01*
X425479Y330863D01*
X426345Y331529D01*
X427010Y332396D01*
X427429Y333405D01*
X427505Y333988D01*
D02*
G37*
G36*
X422886D02*
X419266D01*
X419343Y333405D01*
X419761Y332396D01*
X420426Y331529D01*
X421293Y330863D01*
X422302Y330445D01*
X422886Y330369D01*
Y333988D01*
D02*
G37*
G36*
X407505D02*
X403886D01*
Y330369D01*
X404469Y330445D01*
X405478Y330863D01*
X406345Y331529D01*
X407011Y332396D01*
X407429Y333405D01*
X407505Y333988D01*
D02*
G37*
G36*
X402886D02*
X399266D01*
X399343Y333405D01*
X399761Y332396D01*
X400426Y331529D01*
X401293Y330863D01*
X402303Y330445D01*
X402886Y330369D01*
Y333988D01*
D02*
G37*
G36*
X381915D02*
X378295D01*
Y330369D01*
X378878Y330445D01*
X379888Y330863D01*
X380755Y331529D01*
X381420Y332396D01*
X381838Y333405D01*
X381915Y333988D01*
D02*
G37*
G36*
X377295D02*
X373676D01*
X373752Y333405D01*
X374170Y332396D01*
X374836Y331529D01*
X375703Y330863D01*
X376712Y330445D01*
X377295Y330369D01*
Y333988D01*
D02*
G37*
G36*
X361915D02*
X358295D01*
Y330369D01*
X358878Y330445D01*
X359888Y330863D01*
X360755Y331529D01*
X361420Y332396D01*
X361838Y333405D01*
X361915Y333988D01*
D02*
G37*
G36*
X357295D02*
X353676D01*
X353752Y333405D01*
X354170Y332396D01*
X354836Y331529D01*
X355702Y330863D01*
X356712Y330445D01*
X357295Y330369D01*
Y333988D01*
D02*
G37*
G36*
X342545D02*
X338925D01*
Y330369D01*
X339509Y330445D01*
X340518Y330863D01*
X341385Y331529D01*
X342050Y332396D01*
X342468Y333405D01*
X342545Y333988D01*
D02*
G37*
G36*
X337925D02*
X334306D01*
X334382Y333405D01*
X334801Y332396D01*
X335466Y331529D01*
X336333Y330863D01*
X337342Y330445D01*
X337925Y330369D01*
Y333988D01*
D02*
G37*
G36*
X322545D02*
X318925D01*
Y330369D01*
X319509Y330445D01*
X320518Y330863D01*
X321385Y331529D01*
X322050Y332396D01*
X322468Y333405D01*
X322545Y333988D01*
D02*
G37*
G36*
X317925D02*
X314306D01*
X314382Y333405D01*
X314801Y332396D01*
X315466Y331529D01*
X316333Y330863D01*
X317342Y330445D01*
X317925Y330369D01*
Y333988D01*
D02*
G37*
G36*
X303175D02*
X299555D01*
Y330369D01*
X300138Y330445D01*
X301148Y330863D01*
X302014Y331529D01*
X302680Y332396D01*
X303098Y333405D01*
X303175Y333988D01*
D02*
G37*
G36*
X298555D02*
X294935D01*
X295012Y333405D01*
X295430Y332396D01*
X296095Y331529D01*
X296962Y330863D01*
X297972Y330445D01*
X298555Y330369D01*
Y333988D01*
D02*
G37*
G36*
X283175D02*
X279555D01*
Y330369D01*
X280138Y330445D01*
X281148Y330863D01*
X282014Y331529D01*
X282680Y332396D01*
X283098Y333405D01*
X283175Y333988D01*
D02*
G37*
G36*
X278555D02*
X274935D01*
X275012Y333405D01*
X275430Y332396D01*
X276096Y331529D01*
X276962Y330863D01*
X277972Y330445D01*
X278555Y330369D01*
Y333988D01*
D02*
G37*
G36*
X264120D02*
X260500D01*
Y330369D01*
X261083Y330445D01*
X262093Y330863D01*
X262960Y331529D01*
X263625Y332396D01*
X264043Y333405D01*
X264120Y333988D01*
D02*
G37*
G36*
X259500D02*
X255880D01*
X255957Y333405D01*
X256375Y332396D01*
X257041Y331529D01*
X257907Y330863D01*
X258917Y330445D01*
X259500Y330369D01*
Y333988D01*
D02*
G37*
G36*
X244120D02*
X240500D01*
Y330369D01*
X241083Y330445D01*
X242093Y330863D01*
X242959Y331529D01*
X243625Y332396D01*
X244043Y333405D01*
X244120Y333988D01*
D02*
G37*
G36*
X239500D02*
X235880D01*
X235957Y333405D01*
X236375Y332396D01*
X237040Y331529D01*
X237907Y330863D01*
X238917Y330445D01*
X239500Y330369D01*
Y333988D01*
D02*
G37*
G36*
X634041Y333831D02*
X630421D01*
Y330211D01*
X631004Y330288D01*
X632014Y330706D01*
X632881Y331371D01*
X633546Y332238D01*
X633964Y333247D01*
X634041Y333831D01*
D02*
G37*
G36*
X629421D02*
X625802D01*
X625878Y333247D01*
X626297Y332238D01*
X626962Y331371D01*
X627829Y330706D01*
X628838Y330288D01*
X629421Y330211D01*
Y333831D01*
D02*
G37*
G36*
X614041D02*
X610421D01*
Y330211D01*
X611004Y330288D01*
X612014Y330706D01*
X612881Y331371D01*
X613546Y332238D01*
X613964Y333247D01*
X614041Y333831D01*
D02*
G37*
G36*
X609421D02*
X605802D01*
X605878Y333247D01*
X606296Y332238D01*
X606962Y331371D01*
X607829Y330706D01*
X608838Y330288D01*
X609421Y330211D01*
Y333831D01*
D02*
G37*
G36*
X594671D02*
X591051D01*
Y330211D01*
X591634Y330288D01*
X592644Y330706D01*
X593510Y331371D01*
X594176Y332238D01*
X594594Y333247D01*
X594671Y333831D01*
D02*
G37*
G36*
X590051D02*
X586431D01*
X586508Y333247D01*
X586926Y332238D01*
X587592Y331371D01*
X588458Y330706D01*
X589468Y330288D01*
X590051Y330211D01*
Y333831D01*
D02*
G37*
G36*
X574671D02*
X571051D01*
Y330211D01*
X571634Y330288D01*
X572644Y330706D01*
X573511Y331371D01*
X574176Y332238D01*
X574594Y333247D01*
X574671Y333831D01*
D02*
G37*
G36*
X570051D02*
X566431D01*
X566508Y333247D01*
X566926Y332238D01*
X567591Y331371D01*
X568458Y330706D01*
X569468Y330288D01*
X570051Y330211D01*
Y333831D01*
D02*
G37*
G36*
X555301D02*
X551681D01*
Y330211D01*
X552264Y330288D01*
X553274Y330706D01*
X554141Y331371D01*
X554806Y332238D01*
X555224Y333247D01*
X555301Y333831D01*
D02*
G37*
G36*
X550681D02*
X547061D01*
X547138Y333247D01*
X547556Y332238D01*
X548221Y331371D01*
X549088Y330706D01*
X550098Y330288D01*
X550681Y330211D01*
Y333831D01*
D02*
G37*
G36*
X535301D02*
X531681D01*
Y330211D01*
X532264Y330288D01*
X533274Y330706D01*
X534140Y331371D01*
X534806Y332238D01*
X535224Y333247D01*
X535301Y333831D01*
D02*
G37*
G36*
X530681D02*
X527061D01*
X527138Y333247D01*
X527556Y332238D01*
X528222Y331371D01*
X529088Y330706D01*
X530098Y330288D01*
X530681Y330211D01*
Y333831D01*
D02*
G37*
G36*
X515930D02*
X512311D01*
Y330211D01*
X512894Y330288D01*
X513904Y330706D01*
X514770Y331371D01*
X515436Y332238D01*
X515854Y333247D01*
X515930Y333831D01*
D02*
G37*
G36*
X511311D02*
X507691D01*
X507768Y333247D01*
X508186Y332238D01*
X508851Y331371D01*
X509718Y330706D01*
X510728Y330288D01*
X511311Y330211D01*
Y333831D01*
D02*
G37*
G36*
X495930D02*
X492311D01*
Y330211D01*
X492894Y330288D01*
X493903Y330706D01*
X494770Y331371D01*
X495435Y332238D01*
X495854Y333247D01*
X495930Y333831D01*
D02*
G37*
G36*
X491311D02*
X487691D01*
X487768Y333247D01*
X488186Y332238D01*
X488851Y331371D01*
X489718Y330706D01*
X490728Y330288D01*
X491311Y330211D01*
Y333831D01*
D02*
G37*
G36*
X620736Y309395D02*
Y305776D01*
X624356D01*
X624279Y306359D01*
X623861Y307368D01*
X623196Y308235D01*
X622329Y308900D01*
X621319Y309318D01*
X620736Y309395D01*
D02*
G37*
G36*
X619736D02*
X619153Y309318D01*
X618144Y308900D01*
X617277Y308235D01*
X616611Y307368D01*
X616193Y306359D01*
X616117Y305776D01*
X619736D01*
Y309395D01*
D02*
G37*
G36*
X600736D02*
Y305776D01*
X604356D01*
X604279Y306359D01*
X603861Y307368D01*
X603196Y308235D01*
X602329Y308900D01*
X601320Y309318D01*
X600736Y309395D01*
D02*
G37*
G36*
X599736D02*
X599153Y309318D01*
X598143Y308900D01*
X597277Y308235D01*
X596611Y307368D01*
X596193Y306359D01*
X596117Y305776D01*
X599736D01*
Y309395D01*
D02*
G37*
G36*
X446112Y305392D02*
Y301376D01*
X450129D01*
X450039Y302062D01*
X449581Y303167D01*
X448852Y304116D01*
X447903Y304844D01*
X446798Y305302D01*
X446112Y305392D01*
D02*
G37*
G36*
X445112D02*
X444426Y305302D01*
X443321Y304844D01*
X442372Y304116D01*
X441644Y303167D01*
X441186Y302062D01*
X441095Y301376D01*
X445112D01*
Y305392D01*
D02*
G37*
G36*
X624356Y304776D02*
X620736D01*
Y301156D01*
X621319Y301233D01*
X622329Y301651D01*
X623196Y302316D01*
X623861Y303183D01*
X624279Y304192D01*
X624356Y304776D01*
D02*
G37*
G36*
X619736D02*
X616117D01*
X616193Y304192D01*
X616611Y303183D01*
X617277Y302316D01*
X618144Y301651D01*
X619153Y301233D01*
X619736Y301156D01*
Y304776D01*
D02*
G37*
G36*
X604356D02*
X600736D01*
Y301156D01*
X601320Y301233D01*
X602329Y301651D01*
X603196Y302316D01*
X603861Y303183D01*
X604279Y304192D01*
X604356Y304776D01*
D02*
G37*
G36*
X599736D02*
X596117D01*
X596193Y304192D01*
X596611Y303183D01*
X597277Y302316D01*
X598143Y301651D01*
X599153Y301233D01*
X599736Y301156D01*
Y304776D01*
D02*
G37*
G36*
X450129Y300376D02*
X446112D01*
Y296359D01*
X446798Y296449D01*
X447903Y296907D01*
X448852Y297635D01*
X449581Y298584D01*
X450039Y299690D01*
X450129Y300376D01*
D02*
G37*
G36*
X445112D02*
X441095D01*
X441186Y299690D01*
X441644Y298584D01*
X442372Y297635D01*
X443321Y296907D01*
X444426Y296449D01*
X445112Y296359D01*
Y300376D01*
D02*
G37*
G36*
X532548Y305458D02*
X531362Y305302D01*
X530257Y304844D01*
X529308Y304116D01*
X528580Y303167D01*
X528122Y302062D01*
X527966Y300876D01*
X528122Y299690D01*
X528580Y298584D01*
X529308Y297635D01*
X530257Y296907D01*
X531362Y296449D01*
X532548Y296293D01*
X533734Y296449D01*
X534839Y296907D01*
X535788Y297635D01*
X536517Y298584D01*
X536975Y299690D01*
X537131Y300876D01*
X536975Y302062D01*
X536517Y303167D01*
X535788Y304116D01*
X534839Y304844D01*
X533734Y305302D01*
X532548Y305458D01*
D02*
G37*
G36*
X521681D02*
X520495Y305302D01*
X519390Y304844D01*
X518441Y304116D01*
X517713Y303167D01*
X517255Y302062D01*
X517099Y300876D01*
X517255Y299690D01*
X517713Y298584D01*
X518441Y297635D01*
X519390Y296907D01*
X520495Y296449D01*
X521681Y296293D01*
X522867Y296449D01*
X523973Y296907D01*
X524922Y297635D01*
X525650Y298584D01*
X526108Y299690D01*
X526264Y300876D01*
X526108Y302062D01*
X525650Y303167D01*
X524922Y304116D01*
X523973Y304844D01*
X522867Y305302D01*
X521681Y305458D01*
D02*
G37*
G36*
X510814D02*
X509628Y305302D01*
X508523Y304844D01*
X507574Y304116D01*
X506846Y303167D01*
X506388Y302062D01*
X506232Y300876D01*
X506388Y299690D01*
X506846Y298584D01*
X507574Y297635D01*
X508523Y296907D01*
X509628Y296449D01*
X510814Y296293D01*
X512000Y296449D01*
X513105Y296907D01*
X514054Y297635D01*
X514783Y298584D01*
X515241Y299690D01*
X515397Y300876D01*
X515241Y302062D01*
X514783Y303167D01*
X514054Y304116D01*
X513105Y304844D01*
X512000Y305302D01*
X510814Y305458D01*
D02*
G37*
G36*
X499947D02*
X498761Y305302D01*
X497656Y304844D01*
X496707Y304116D01*
X495979Y303167D01*
X495521Y302062D01*
X495365Y300876D01*
X495521Y299690D01*
X495979Y298584D01*
X496707Y297635D01*
X497656Y296907D01*
X498761Y296449D01*
X499947Y296293D01*
X501133Y296449D01*
X502239Y296907D01*
X503188Y297635D01*
X503916Y298584D01*
X504374Y299690D01*
X504530Y300876D01*
X504374Y302062D01*
X503916Y303167D01*
X503188Y304116D01*
X502239Y304844D01*
X501133Y305302D01*
X499947Y305458D01*
D02*
G37*
G36*
X489080D02*
X487894Y305302D01*
X486789Y304844D01*
X485840Y304116D01*
X485112Y303167D01*
X484654Y302062D01*
X484498Y300876D01*
X484654Y299690D01*
X485112Y298584D01*
X485840Y297635D01*
X486789Y296907D01*
X487894Y296449D01*
X489080Y296293D01*
X490266Y296449D01*
X491371Y296907D01*
X492320Y297635D01*
X493049Y298584D01*
X493507Y299690D01*
X493663Y300876D01*
X493507Y302062D01*
X493049Y303167D01*
X492320Y304116D01*
X491371Y304844D01*
X490266Y305302D01*
X489080Y305458D01*
D02*
G37*
G36*
X478213D02*
X477027Y305302D01*
X475922Y304844D01*
X474973Y304116D01*
X474245Y303167D01*
X473787Y302062D01*
X473631Y300876D01*
X473787Y299690D01*
X474245Y298584D01*
X474973Y297635D01*
X475922Y296907D01*
X477027Y296449D01*
X478213Y296293D01*
X479399Y296449D01*
X480504Y296907D01*
X481454Y297635D01*
X482182Y298584D01*
X482640Y299690D01*
X482796Y300876D01*
X482640Y302062D01*
X482182Y303167D01*
X481454Y304116D01*
X480504Y304844D01*
X479399Y305302D01*
X478213Y305458D01*
D02*
G37*
G36*
X467346D02*
X466160Y305302D01*
X465055Y304844D01*
X464106Y304116D01*
X463378Y303167D01*
X462920Y302062D01*
X462764Y300876D01*
X462920Y299690D01*
X463378Y298584D01*
X464106Y297635D01*
X465055Y296907D01*
X466160Y296449D01*
X467346Y296293D01*
X468532Y296449D01*
X469637Y296907D01*
X470586Y297635D01*
X471315Y298584D01*
X471773Y299690D01*
X471929Y300876D01*
X471773Y302062D01*
X471315Y303167D01*
X470586Y304116D01*
X469637Y304844D01*
X468532Y305302D01*
X467346Y305458D01*
D02*
G37*
G36*
X456479D02*
X455293Y305302D01*
X454188Y304844D01*
X453239Y304116D01*
X452511Y303167D01*
X452053Y302062D01*
X451897Y300876D01*
X452053Y299690D01*
X452511Y298584D01*
X453239Y297635D01*
X454188Y296907D01*
X455293Y296449D01*
X456479Y296293D01*
X457665Y296449D01*
X458770Y296907D01*
X459720Y297635D01*
X460448Y298584D01*
X460906Y299690D01*
X461062Y300876D01*
X460906Y302062D01*
X460448Y303167D01*
X459720Y304116D01*
X458770Y304844D01*
X457665Y305302D01*
X456479Y305458D01*
D02*
G37*
G36*
X434745D02*
X433559Y305302D01*
X432454Y304844D01*
X431505Y304116D01*
X430777Y303167D01*
X430319Y302062D01*
X430163Y300876D01*
X430319Y299690D01*
X430777Y298584D01*
X431505Y297635D01*
X432454Y296907D01*
X433559Y296449D01*
X434745Y296293D01*
X435931Y296449D01*
X437036Y296907D01*
X437986Y297635D01*
X438714Y298584D01*
X439172Y299690D01*
X439328Y300876D01*
X439172Y302062D01*
X438714Y303167D01*
X437986Y304116D01*
X437036Y304844D01*
X435931Y305302D01*
X434745Y305458D01*
D02*
G37*
G36*
X423878D02*
X422692Y305302D01*
X421587Y304844D01*
X420638Y304116D01*
X419910Y303167D01*
X419452Y302062D01*
X419296Y300876D01*
X419452Y299690D01*
X419910Y298584D01*
X420638Y297635D01*
X421587Y296907D01*
X422692Y296449D01*
X423878Y296293D01*
X425064Y296449D01*
X426169Y296907D01*
X427118Y297635D01*
X427847Y298584D01*
X428305Y299690D01*
X428461Y300876D01*
X428305Y302062D01*
X427847Y303167D01*
X427118Y304116D01*
X426169Y304844D01*
X425064Y305302D01*
X423878Y305458D01*
D02*
G37*
G36*
X413011D02*
X411825Y305302D01*
X410720Y304844D01*
X409771Y304116D01*
X409043Y303167D01*
X408585Y302062D01*
X408429Y300876D01*
X408585Y299690D01*
X409043Y298584D01*
X409771Y297635D01*
X410720Y296907D01*
X411825Y296449D01*
X413011Y296293D01*
X414197Y296449D01*
X415303Y296907D01*
X416252Y297635D01*
X416980Y298584D01*
X417438Y299690D01*
X417594Y300876D01*
X417438Y302062D01*
X416980Y303167D01*
X416252Y304116D01*
X415303Y304844D01*
X414197Y305302D01*
X413011Y305458D01*
D02*
G37*
G36*
X402144D02*
X400958Y305302D01*
X399853Y304844D01*
X398904Y304116D01*
X398176Y303167D01*
X397718Y302062D01*
X397562Y300876D01*
X397718Y299690D01*
X398176Y298584D01*
X398904Y297635D01*
X399853Y296907D01*
X400958Y296449D01*
X402144Y296293D01*
X403330Y296449D01*
X404435Y296907D01*
X405384Y297635D01*
X406113Y298584D01*
X406571Y299690D01*
X406727Y300876D01*
X406571Y302062D01*
X406113Y303167D01*
X405384Y304116D01*
X404435Y304844D01*
X403330Y305302D01*
X402144Y305458D01*
D02*
G37*
G36*
X391277D02*
X390091Y305302D01*
X388986Y304844D01*
X388037Y304116D01*
X387309Y303167D01*
X386851Y302062D01*
X386695Y300876D01*
X386851Y299690D01*
X387309Y298584D01*
X388037Y297635D01*
X388986Y296907D01*
X390091Y296449D01*
X391277Y296293D01*
X392463Y296449D01*
X393568Y296907D01*
X394517Y297635D01*
X395246Y298584D01*
X395704Y299690D01*
X395860Y300876D01*
X395704Y302062D01*
X395246Y303167D01*
X394517Y304116D01*
X393568Y304844D01*
X392463Y305302D01*
X391277Y305458D01*
D02*
G37*
G36*
X380410D02*
X379224Y305302D01*
X378119Y304844D01*
X377170Y304116D01*
X376442Y303167D01*
X375984Y302062D01*
X375828Y300876D01*
X375984Y299690D01*
X376442Y298584D01*
X377170Y297635D01*
X378119Y296907D01*
X379224Y296449D01*
X380410Y296293D01*
X381596Y296449D01*
X382701Y296907D01*
X383650Y297635D01*
X384379Y298584D01*
X384837Y299690D01*
X384993Y300876D01*
X384837Y302062D01*
X384379Y303167D01*
X383650Y304116D01*
X382701Y304844D01*
X381596Y305302D01*
X380410Y305458D01*
D02*
G37*
G36*
X369543D02*
X368357Y305302D01*
X367252Y304844D01*
X366303Y304116D01*
X365575Y303167D01*
X365117Y302062D01*
X364961Y300876D01*
X365117Y299690D01*
X365575Y298584D01*
X366303Y297635D01*
X367252Y296907D01*
X368357Y296449D01*
X369543Y296293D01*
X370729Y296449D01*
X371834Y296907D01*
X372783Y297635D01*
X373512Y298584D01*
X373970Y299690D01*
X374126Y300876D01*
X373970Y302062D01*
X373512Y303167D01*
X372783Y304116D01*
X371834Y304844D01*
X370729Y305302D01*
X369543Y305458D01*
D02*
G37*
G36*
X358676D02*
X357490Y305302D01*
X356385Y304844D01*
X355436Y304116D01*
X354708Y303167D01*
X354250Y302062D01*
X354094Y300876D01*
X354250Y299690D01*
X354708Y298584D01*
X355436Y297635D01*
X356385Y296907D01*
X357490Y296449D01*
X358676Y296293D01*
X359862Y296449D01*
X360967Y296907D01*
X361916Y297635D01*
X362645Y298584D01*
X363103Y299690D01*
X363259Y300876D01*
X363103Y302062D01*
X362645Y303167D01*
X361916Y304116D01*
X360967Y304844D01*
X359862Y305302D01*
X358676Y305458D01*
D02*
G37*
G36*
X347809D02*
X346623Y305302D01*
X345518Y304844D01*
X344569Y304116D01*
X343841Y303167D01*
X343383Y302062D01*
X343227Y300876D01*
X343383Y299690D01*
X343841Y298584D01*
X344569Y297635D01*
X345518Y296907D01*
X346623Y296449D01*
X347809Y296293D01*
X348995Y296449D01*
X350100Y296907D01*
X351049Y297635D01*
X351778Y298584D01*
X352236Y299690D01*
X352392Y300876D01*
X352236Y302062D01*
X351778Y303167D01*
X351049Y304116D01*
X350100Y304844D01*
X348995Y305302D01*
X347809Y305458D01*
D02*
G37*
G36*
X565860Y307100D02*
Y295776D01*
X577184D01*
X577077Y297131D01*
X576642Y298942D01*
X575930Y300661D01*
X574957Y302249D01*
X573748Y303664D01*
X572333Y304873D01*
X570745Y305846D01*
X569026Y306558D01*
X567215Y306993D01*
X565860Y307100D01*
D02*
G37*
G36*
X315461D02*
Y295776D01*
X326785D01*
X326678Y297131D01*
X326243Y298942D01*
X325531Y300661D01*
X324558Y302249D01*
X323349Y303664D01*
X321934Y304873D01*
X320346Y305846D01*
X318627Y306558D01*
X316816Y306993D01*
X315461Y307100D01*
D02*
G37*
G36*
X564860D02*
X563504Y306993D01*
X561694Y306558D01*
X559974Y305846D01*
X558387Y304873D01*
X556971Y303664D01*
X555762Y302249D01*
X554789Y300661D01*
X554077Y298942D01*
X553642Y297131D01*
X553536Y295776D01*
X564860D01*
Y307100D01*
D02*
G37*
G36*
X314461D02*
X313105Y306993D01*
X311295Y306558D01*
X309575Y305846D01*
X307987Y304873D01*
X306572Y303664D01*
X305363Y302249D01*
X304390Y300661D01*
X303678Y298942D01*
X303243Y297131D01*
X303137Y295776D01*
X314461D01*
Y307100D01*
D02*
G37*
G36*
X610236Y299461D02*
X609153Y299318D01*
X608144Y298900D01*
X607277Y298235D01*
X606611Y297368D01*
X606193Y296359D01*
X606051Y295276D01*
X606193Y294192D01*
X606611Y293183D01*
X607277Y292316D01*
X608144Y291651D01*
X609153Y291233D01*
X610236Y291090D01*
X611319Y291233D01*
X612329Y291651D01*
X613196Y292316D01*
X613861Y293183D01*
X614279Y294192D01*
X614422Y295276D01*
X614279Y296359D01*
X613861Y297368D01*
X613196Y298235D01*
X612329Y298900D01*
X611319Y299318D01*
X610236Y299461D01*
D02*
G37*
G36*
X440662Y294192D02*
Y290176D01*
X444679D01*
X444589Y290862D01*
X444131Y291967D01*
X443402Y292916D01*
X442453Y293644D01*
X441348Y294102D01*
X440662Y294192D01*
D02*
G37*
G36*
X439662D02*
X438976Y294102D01*
X437871Y293644D01*
X436922Y292916D01*
X436194Y291967D01*
X435736Y290862D01*
X435645Y290176D01*
X439662D01*
Y294192D01*
D02*
G37*
G36*
X620736Y289395D02*
Y285776D01*
X624356D01*
X624279Y286359D01*
X623861Y287368D01*
X623196Y288235D01*
X622329Y288900D01*
X621319Y289318D01*
X620736Y289395D01*
D02*
G37*
G36*
X619736D02*
X619153Y289318D01*
X618144Y288900D01*
X617277Y288235D01*
X616611Y287368D01*
X616193Y286359D01*
X616117Y285776D01*
X619736D01*
Y289395D01*
D02*
G37*
G36*
X600736D02*
Y285776D01*
X604356D01*
X604279Y286359D01*
X603861Y287368D01*
X603196Y288235D01*
X602329Y288900D01*
X601320Y289318D01*
X600736Y289395D01*
D02*
G37*
G36*
X599736D02*
X599153Y289318D01*
X598143Y288900D01*
X597277Y288235D01*
X596611Y287368D01*
X596193Y286359D01*
X596117Y285776D01*
X599736D01*
Y289395D01*
D02*
G37*
G36*
X444679Y289176D02*
X440662D01*
Y285159D01*
X441348Y285249D01*
X442453Y285707D01*
X443402Y286435D01*
X444131Y287384D01*
X444589Y288490D01*
X444679Y289176D01*
D02*
G37*
G36*
X439662D02*
X435645D01*
X435736Y288490D01*
X436194Y287384D01*
X436922Y286435D01*
X437871Y285707D01*
X438976Y285249D01*
X439662Y285159D01*
Y289176D01*
D02*
G37*
G36*
X537965Y294258D02*
X536779Y294102D01*
X535674Y293644D01*
X534725Y292916D01*
X533997Y291967D01*
X533539Y290862D01*
X533383Y289676D01*
X533539Y288490D01*
X533997Y287384D01*
X534725Y286435D01*
X535674Y285707D01*
X536779Y285249D01*
X537965Y285093D01*
X539151Y285249D01*
X540257Y285707D01*
X541206Y286435D01*
X541934Y287384D01*
X542392Y288490D01*
X542548Y289676D01*
X542392Y290862D01*
X541934Y291967D01*
X541206Y292916D01*
X540257Y293644D01*
X539151Y294102D01*
X537965Y294258D01*
D02*
G37*
G36*
X527098D02*
X525912Y294102D01*
X524807Y293644D01*
X523858Y292916D01*
X523130Y291967D01*
X522672Y290862D01*
X522516Y289676D01*
X522672Y288490D01*
X523130Y287384D01*
X523858Y286435D01*
X524807Y285707D01*
X525912Y285249D01*
X527098Y285093D01*
X528284Y285249D01*
X529389Y285707D01*
X530338Y286435D01*
X531067Y287384D01*
X531525Y288490D01*
X531681Y289676D01*
X531525Y290862D01*
X531067Y291967D01*
X530338Y292916D01*
X529389Y293644D01*
X528284Y294102D01*
X527098Y294258D01*
D02*
G37*
G36*
X516231D02*
X515045Y294102D01*
X513940Y293644D01*
X512991Y292916D01*
X512263Y291967D01*
X511805Y290862D01*
X511649Y289676D01*
X511805Y288490D01*
X512263Y287384D01*
X512991Y286435D01*
X513940Y285707D01*
X515045Y285249D01*
X516231Y285093D01*
X517417Y285249D01*
X518523Y285707D01*
X519472Y286435D01*
X520200Y287384D01*
X520658Y288490D01*
X520814Y289676D01*
X520658Y290862D01*
X520200Y291967D01*
X519472Y292916D01*
X518523Y293644D01*
X517417Y294102D01*
X516231Y294258D01*
D02*
G37*
G36*
X505364D02*
X504178Y294102D01*
X503073Y293644D01*
X502124Y292916D01*
X501396Y291967D01*
X500938Y290862D01*
X500782Y289676D01*
X500938Y288490D01*
X501396Y287384D01*
X502124Y286435D01*
X503073Y285707D01*
X504178Y285249D01*
X505364Y285093D01*
X506550Y285249D01*
X507655Y285707D01*
X508604Y286435D01*
X509333Y287384D01*
X509791Y288490D01*
X509947Y289676D01*
X509791Y290862D01*
X509333Y291967D01*
X508604Y292916D01*
X507655Y293644D01*
X506550Y294102D01*
X505364Y294258D01*
D02*
G37*
G36*
X494497D02*
X493311Y294102D01*
X492206Y293644D01*
X491257Y292916D01*
X490529Y291967D01*
X490071Y290862D01*
X489915Y289676D01*
X490071Y288490D01*
X490529Y287384D01*
X491257Y286435D01*
X492206Y285707D01*
X493311Y285249D01*
X494497Y285093D01*
X495683Y285249D01*
X496789Y285707D01*
X497738Y286435D01*
X498466Y287384D01*
X498924Y288490D01*
X499080Y289676D01*
X498924Y290862D01*
X498466Y291967D01*
X497738Y292916D01*
X496789Y293644D01*
X495683Y294102D01*
X494497Y294258D01*
D02*
G37*
G36*
X483630D02*
X482444Y294102D01*
X481339Y293644D01*
X480390Y292916D01*
X479662Y291967D01*
X479204Y290862D01*
X479048Y289676D01*
X479204Y288490D01*
X479662Y287384D01*
X480390Y286435D01*
X481339Y285707D01*
X482444Y285249D01*
X483630Y285093D01*
X484816Y285249D01*
X485921Y285707D01*
X486870Y286435D01*
X487599Y287384D01*
X488057Y288490D01*
X488213Y289676D01*
X488057Y290862D01*
X487599Y291967D01*
X486870Y292916D01*
X485921Y293644D01*
X484816Y294102D01*
X483630Y294258D01*
D02*
G37*
G36*
X472763D02*
X471577Y294102D01*
X470472Y293644D01*
X469523Y292916D01*
X468795Y291967D01*
X468337Y290862D01*
X468181Y289676D01*
X468337Y288490D01*
X468795Y287384D01*
X469523Y286435D01*
X470472Y285707D01*
X471577Y285249D01*
X472763Y285093D01*
X473949Y285249D01*
X475054Y285707D01*
X476004Y286435D01*
X476732Y287384D01*
X477190Y288490D01*
X477346Y289676D01*
X477190Y290862D01*
X476732Y291967D01*
X476004Y292916D01*
X475054Y293644D01*
X473949Y294102D01*
X472763Y294258D01*
D02*
G37*
G36*
X461896D02*
X460710Y294102D01*
X459605Y293644D01*
X458656Y292916D01*
X457928Y291967D01*
X457470Y290862D01*
X457314Y289676D01*
X457470Y288490D01*
X457928Y287384D01*
X458656Y286435D01*
X459605Y285707D01*
X460710Y285249D01*
X461896Y285093D01*
X463082Y285249D01*
X464187Y285707D01*
X465136Y286435D01*
X465865Y287384D01*
X466323Y288490D01*
X466479Y289676D01*
X466323Y290862D01*
X465865Y291967D01*
X465136Y292916D01*
X464187Y293644D01*
X463082Y294102D01*
X461896Y294258D01*
D02*
G37*
G36*
X451029D02*
X449843Y294102D01*
X448738Y293644D01*
X447789Y292916D01*
X447061Y291967D01*
X446603Y290862D01*
X446447Y289676D01*
X446603Y288490D01*
X447061Y287384D01*
X447789Y286435D01*
X448738Y285707D01*
X449843Y285249D01*
X451029Y285093D01*
X452215Y285249D01*
X453320Y285707D01*
X454270Y286435D01*
X454998Y287384D01*
X455456Y288490D01*
X455612Y289676D01*
X455456Y290862D01*
X454998Y291967D01*
X454270Y292916D01*
X453320Y293644D01*
X452215Y294102D01*
X451029Y294258D01*
D02*
G37*
G36*
X429295D02*
X428109Y294102D01*
X427004Y293644D01*
X426055Y292916D01*
X425327Y291967D01*
X424869Y290862D01*
X424713Y289676D01*
X424869Y288490D01*
X425327Y287384D01*
X426055Y286435D01*
X427004Y285707D01*
X428109Y285249D01*
X429295Y285093D01*
X430481Y285249D01*
X431586Y285707D01*
X432536Y286435D01*
X433264Y287384D01*
X433722Y288490D01*
X433878Y289676D01*
X433722Y290862D01*
X433264Y291967D01*
X432536Y292916D01*
X431586Y293644D01*
X430481Y294102D01*
X429295Y294258D01*
D02*
G37*
G36*
X418428D02*
X417242Y294102D01*
X416137Y293644D01*
X415188Y292916D01*
X414460Y291967D01*
X414002Y290862D01*
X413846Y289676D01*
X414002Y288490D01*
X414460Y287384D01*
X415188Y286435D01*
X416137Y285707D01*
X417242Y285249D01*
X418428Y285093D01*
X419614Y285249D01*
X420719Y285707D01*
X421668Y286435D01*
X422397Y287384D01*
X422855Y288490D01*
X423011Y289676D01*
X422855Y290862D01*
X422397Y291967D01*
X421668Y292916D01*
X420719Y293644D01*
X419614Y294102D01*
X418428Y294258D01*
D02*
G37*
G36*
X407561D02*
X406375Y294102D01*
X405270Y293644D01*
X404321Y292916D01*
X403593Y291967D01*
X403135Y290862D01*
X402979Y289676D01*
X403135Y288490D01*
X403593Y287384D01*
X404321Y286435D01*
X405270Y285707D01*
X406375Y285249D01*
X407561Y285093D01*
X408747Y285249D01*
X409853Y285707D01*
X410802Y286435D01*
X411530Y287384D01*
X411988Y288490D01*
X412144Y289676D01*
X411988Y290862D01*
X411530Y291967D01*
X410802Y292916D01*
X409853Y293644D01*
X408747Y294102D01*
X407561Y294258D01*
D02*
G37*
G36*
X396694D02*
X395508Y294102D01*
X394403Y293644D01*
X393454Y292916D01*
X392726Y291967D01*
X392268Y290862D01*
X392112Y289676D01*
X392268Y288490D01*
X392726Y287384D01*
X393454Y286435D01*
X394403Y285707D01*
X395508Y285249D01*
X396694Y285093D01*
X397880Y285249D01*
X398985Y285707D01*
X399935Y286435D01*
X400663Y287384D01*
X401121Y288490D01*
X401277Y289676D01*
X401121Y290862D01*
X400663Y291967D01*
X399935Y292916D01*
X398985Y293644D01*
X397880Y294102D01*
X396694Y294258D01*
D02*
G37*
G36*
X385827D02*
X384641Y294102D01*
X383536Y293644D01*
X382587Y292916D01*
X381859Y291967D01*
X381401Y290862D01*
X381245Y289676D01*
X381401Y288490D01*
X381859Y287384D01*
X382587Y286435D01*
X383536Y285707D01*
X384641Y285249D01*
X385827Y285093D01*
X387013Y285249D01*
X388118Y285707D01*
X389068Y286435D01*
X389796Y287384D01*
X390254Y288490D01*
X390410Y289676D01*
X390254Y290862D01*
X389796Y291967D01*
X389068Y292916D01*
X388118Y293644D01*
X387013Y294102D01*
X385827Y294258D01*
D02*
G37*
G36*
X374960D02*
X373774Y294102D01*
X372669Y293644D01*
X371720Y292916D01*
X370992Y291967D01*
X370534Y290862D01*
X370378Y289676D01*
X370534Y288490D01*
X370992Y287384D01*
X371720Y286435D01*
X372669Y285707D01*
X373774Y285249D01*
X374960Y285093D01*
X376146Y285249D01*
X377252Y285707D01*
X378201Y286435D01*
X378929Y287384D01*
X379387Y288490D01*
X379543Y289676D01*
X379387Y290862D01*
X378929Y291967D01*
X378201Y292916D01*
X377252Y293644D01*
X376146Y294102D01*
X374960Y294258D01*
D02*
G37*
G36*
X364093D02*
X362907Y294102D01*
X361802Y293644D01*
X360853Y292916D01*
X360125Y291967D01*
X359667Y290862D01*
X359511Y289676D01*
X359667Y288490D01*
X360125Y287384D01*
X360853Y286435D01*
X361802Y285707D01*
X362907Y285249D01*
X364093Y285093D01*
X365279Y285249D01*
X366385Y285707D01*
X367334Y286435D01*
X368062Y287384D01*
X368520Y288490D01*
X368676Y289676D01*
X368520Y290862D01*
X368062Y291967D01*
X367334Y292916D01*
X366385Y293644D01*
X365279Y294102D01*
X364093Y294258D01*
D02*
G37*
G36*
X353226D02*
X352040Y294102D01*
X350935Y293644D01*
X349986Y292916D01*
X349258Y291967D01*
X348800Y290862D01*
X348644Y289676D01*
X348800Y288490D01*
X349258Y287384D01*
X349986Y286435D01*
X350935Y285707D01*
X352040Y285249D01*
X353226Y285093D01*
X354412Y285249D01*
X355518Y285707D01*
X356467Y286435D01*
X357195Y287384D01*
X357653Y288490D01*
X357809Y289676D01*
X357653Y290862D01*
X357195Y291967D01*
X356467Y292916D01*
X355518Y293644D01*
X354412Y294102D01*
X353226Y294258D01*
D02*
G37*
G36*
X342359D02*
X341173Y294102D01*
X340068Y293644D01*
X339119Y292916D01*
X338391Y291967D01*
X337933Y290862D01*
X337777Y289676D01*
X337933Y288490D01*
X338391Y287384D01*
X339119Y286435D01*
X340068Y285707D01*
X341173Y285249D01*
X342359Y285093D01*
X343545Y285249D01*
X344651Y285707D01*
X345600Y286435D01*
X346328Y287384D01*
X346786Y288490D01*
X346942Y289676D01*
X346786Y290862D01*
X346328Y291967D01*
X345600Y292916D01*
X344651Y293644D01*
X343545Y294102D01*
X342359Y294258D01*
D02*
G37*
G36*
X326785Y294776D02*
X315461D01*
Y283452D01*
X316816Y283558D01*
X318627Y283993D01*
X320346Y284705D01*
X321934Y285678D01*
X323349Y286887D01*
X324558Y288302D01*
X325531Y289890D01*
X326243Y291610D01*
X326678Y293420D01*
X326785Y294776D01*
D02*
G37*
G36*
X577184D02*
X565860D01*
Y283452D01*
X567215Y283558D01*
X569026Y283993D01*
X570745Y284705D01*
X572333Y285678D01*
X573748Y286887D01*
X574957Y288302D01*
X575930Y289890D01*
X576642Y291610D01*
X577077Y293420D01*
X577184Y294776D01*
D02*
G37*
G36*
X564860D02*
X553536D01*
X553642Y293420D01*
X554077Y291610D01*
X554789Y289890D01*
X555762Y288302D01*
X556971Y286887D01*
X558387Y285678D01*
X559974Y284705D01*
X561694Y283993D01*
X563504Y283558D01*
X564860Y283452D01*
Y294776D01*
D02*
G37*
G36*
X314461D02*
X303137D01*
X303243Y293420D01*
X303678Y291610D01*
X304390Y289890D01*
X305363Y288302D01*
X306572Y286887D01*
X307987Y285678D01*
X309575Y284705D01*
X311295Y283993D01*
X313105Y283558D01*
X314461Y283452D01*
Y294776D01*
D02*
G37*
G36*
X624356Y284776D02*
X620736D01*
Y281156D01*
X621319Y281233D01*
X622329Y281651D01*
X623196Y282316D01*
X623861Y283183D01*
X624279Y284192D01*
X624356Y284776D01*
D02*
G37*
G36*
X619736D02*
X616117D01*
X616193Y284192D01*
X616611Y283183D01*
X617277Y282316D01*
X618144Y281651D01*
X619153Y281233D01*
X619736Y281156D01*
Y284776D01*
D02*
G37*
G36*
X604356D02*
X600736D01*
Y281156D01*
X601320Y281233D01*
X602329Y281651D01*
X603196Y282316D01*
X603861Y283183D01*
X604279Y284192D01*
X604356Y284776D01*
D02*
G37*
G36*
X599736D02*
X596117D01*
X596193Y284192D01*
X596611Y283183D01*
X597277Y282316D01*
X598143Y281651D01*
X599153Y281233D01*
X599736Y281156D01*
Y284776D01*
D02*
G37*
G36*
X443571Y260183D02*
Y256563D01*
X447190D01*
X447114Y257146D01*
X446696Y258156D01*
X446030Y259022D01*
X445163Y259688D01*
X444154Y260106D01*
X443571Y260183D01*
D02*
G37*
G36*
X442571D02*
X441988Y260106D01*
X440978Y259688D01*
X440111Y259022D01*
X439446Y258156D01*
X439028Y257146D01*
X438951Y256563D01*
X442571D01*
Y260183D01*
D02*
G37*
G36*
X423571D02*
Y256563D01*
X427190D01*
X427114Y257146D01*
X426695Y258156D01*
X426030Y259022D01*
X425164Y259688D01*
X424154Y260106D01*
X423571Y260183D01*
D02*
G37*
G36*
X422571D02*
X421987Y260106D01*
X420978Y259688D01*
X420111Y259022D01*
X419446Y258156D01*
X419028Y257146D01*
X418951Y256563D01*
X422571D01*
Y260183D01*
D02*
G37*
G36*
X630421Y260025D02*
Y256406D01*
X634041D01*
X633964Y256989D01*
X633546Y257998D01*
X632881Y258865D01*
X632014Y259530D01*
X631004Y259948D01*
X630421Y260025D01*
D02*
G37*
G36*
X629421D02*
X628838Y259948D01*
X627829Y259530D01*
X626962Y258865D01*
X626297Y257998D01*
X625878Y256989D01*
X625802Y256406D01*
X629421D01*
Y260025D01*
D02*
G37*
G36*
X610421D02*
Y256406D01*
X614041D01*
X613964Y256989D01*
X613546Y257998D01*
X612881Y258865D01*
X612014Y259530D01*
X611004Y259948D01*
X610421Y260025D01*
D02*
G37*
G36*
X609421D02*
X608838Y259948D01*
X607829Y259530D01*
X606962Y258865D01*
X606296Y257998D01*
X605878Y256989D01*
X605802Y256406D01*
X609421D01*
Y260025D01*
D02*
G37*
G36*
X591051D02*
Y256406D01*
X594671D01*
X594594Y256989D01*
X594176Y257998D01*
X593510Y258865D01*
X592644Y259530D01*
X591634Y259948D01*
X591051Y260025D01*
D02*
G37*
G36*
X590051D02*
X589468Y259948D01*
X588458Y259530D01*
X587592Y258865D01*
X586926Y257998D01*
X586508Y256989D01*
X586431Y256406D01*
X590051D01*
Y260025D01*
D02*
G37*
G36*
X571051D02*
Y256406D01*
X574671D01*
X574594Y256989D01*
X574176Y257998D01*
X573511Y258865D01*
X572644Y259530D01*
X571634Y259948D01*
X571051Y260025D01*
D02*
G37*
G36*
X570051D02*
X569468Y259948D01*
X568458Y259530D01*
X567591Y258865D01*
X566926Y257998D01*
X566508Y256989D01*
X566431Y256406D01*
X570051D01*
Y260025D01*
D02*
G37*
G36*
X551681D02*
Y256406D01*
X555301D01*
X555224Y256989D01*
X554806Y257998D01*
X554141Y258865D01*
X553274Y259530D01*
X552264Y259948D01*
X551681Y260025D01*
D02*
G37*
G36*
X550681D02*
X550098Y259948D01*
X549088Y259530D01*
X548221Y258865D01*
X547556Y257998D01*
X547138Y256989D01*
X547061Y256406D01*
X550681D01*
Y260025D01*
D02*
G37*
G36*
X531681D02*
Y256406D01*
X535301D01*
X535224Y256989D01*
X534806Y257998D01*
X534140Y258865D01*
X533274Y259530D01*
X532264Y259948D01*
X531681Y260025D01*
D02*
G37*
G36*
X530681D02*
X530098Y259948D01*
X529088Y259530D01*
X528222Y258865D01*
X527556Y257998D01*
X527138Y256989D01*
X527061Y256406D01*
X530681D01*
Y260025D01*
D02*
G37*
G36*
X512311D02*
Y256406D01*
X515930D01*
X515854Y256989D01*
X515436Y257998D01*
X514770Y258865D01*
X513904Y259530D01*
X512894Y259948D01*
X512311Y260025D01*
D02*
G37*
G36*
X511311D02*
X510728Y259948D01*
X509718Y259530D01*
X508851Y258865D01*
X508186Y257998D01*
X507768Y256989D01*
X507691Y256406D01*
X511311D01*
Y260025D01*
D02*
G37*
G36*
X492311D02*
Y256406D01*
X495930D01*
X495854Y256989D01*
X495435Y257998D01*
X494770Y258865D01*
X493903Y259530D01*
X492894Y259948D01*
X492311Y260025D01*
D02*
G37*
G36*
X491311D02*
X490728Y259948D01*
X489718Y259530D01*
X488851Y258865D01*
X488186Y257998D01*
X487768Y256989D01*
X487691Y256406D01*
X491311D01*
Y260025D01*
D02*
G37*
G36*
X374831D02*
Y256406D01*
X378450D01*
X378373Y256989D01*
X377955Y257998D01*
X377290Y258865D01*
X376423Y259530D01*
X375414Y259948D01*
X374831Y260025D01*
D02*
G37*
G36*
X373831D02*
X373247Y259948D01*
X372238Y259530D01*
X371371Y258865D01*
X370706Y257998D01*
X370288Y256989D01*
X370211Y256406D01*
X373831D01*
Y260025D01*
D02*
G37*
G36*
X354831D02*
Y256406D01*
X358450D01*
X358373Y256989D01*
X357955Y257998D01*
X357290Y258865D01*
X356423Y259530D01*
X355414Y259948D01*
X354831Y260025D01*
D02*
G37*
G36*
X353831D02*
X353247Y259948D01*
X352238Y259530D01*
X351371Y258865D01*
X350706Y257998D01*
X350288Y256989D01*
X350211Y256406D01*
X353831D01*
Y260025D01*
D02*
G37*
G36*
X335461D02*
Y256406D01*
X339080D01*
X339003Y256989D01*
X338585Y257998D01*
X337920Y258865D01*
X337053Y259530D01*
X336044Y259948D01*
X335461Y260025D01*
D02*
G37*
G36*
X334461D02*
X333877Y259948D01*
X332868Y259530D01*
X332001Y258865D01*
X331336Y257998D01*
X330918Y256989D01*
X330841Y256406D01*
X334461D01*
Y260025D01*
D02*
G37*
G36*
X315461D02*
Y256406D01*
X319080D01*
X319003Y256989D01*
X318585Y257998D01*
X317920Y258865D01*
X317053Y259530D01*
X316044Y259948D01*
X315461Y260025D01*
D02*
G37*
G36*
X314461D02*
X313877Y259948D01*
X312868Y259530D01*
X312001Y258865D01*
X311336Y257998D01*
X310918Y256989D01*
X310841Y256406D01*
X314461D01*
Y260025D01*
D02*
G37*
G36*
X296091D02*
Y256406D01*
X299710D01*
X299633Y256989D01*
X299215Y257998D01*
X298550Y258865D01*
X297683Y259530D01*
X296674Y259948D01*
X296091Y260025D01*
D02*
G37*
G36*
X295091D02*
X294507Y259948D01*
X293498Y259530D01*
X292631Y258865D01*
X291966Y257998D01*
X291548Y256989D01*
X291471Y256406D01*
X295091D01*
Y260025D01*
D02*
G37*
G36*
X276091D02*
Y256406D01*
X279710D01*
X279633Y256989D01*
X279215Y257998D01*
X278550Y258865D01*
X277683Y259530D01*
X276674Y259948D01*
X276091Y260025D01*
D02*
G37*
G36*
X275091D02*
X274507Y259948D01*
X273498Y259530D01*
X272631Y258865D01*
X271966Y257998D01*
X271548Y256989D01*
X271471Y256406D01*
X275091D01*
Y260025D01*
D02*
G37*
G36*
X256720D02*
Y256406D01*
X260340D01*
X260263Y256989D01*
X259845Y257998D01*
X259180Y258865D01*
X258313Y259530D01*
X257304Y259948D01*
X256720Y260025D01*
D02*
G37*
G36*
X255720D02*
X255137Y259948D01*
X254128Y259530D01*
X253261Y258865D01*
X252596Y257998D01*
X252178Y256989D01*
X252101Y256406D01*
X255720D01*
Y260025D01*
D02*
G37*
G36*
X236720D02*
Y256406D01*
X240340D01*
X240263Y256989D01*
X239845Y257998D01*
X239180Y258865D01*
X238313Y259530D01*
X237304Y259948D01*
X236720Y260025D01*
D02*
G37*
G36*
X235720D02*
X235137Y259948D01*
X234128Y259530D01*
X233261Y258865D01*
X232596Y257998D01*
X232178Y256989D01*
X232101Y256406D01*
X235720D01*
Y260025D01*
D02*
G37*
G36*
X447190Y255563D02*
X443571D01*
Y251943D01*
X444154Y252020D01*
X445163Y252438D01*
X446030Y253103D01*
X446696Y253970D01*
X447114Y254980D01*
X447190Y255563D01*
D02*
G37*
G36*
X442571D02*
X438951D01*
X439028Y254980D01*
X439446Y253970D01*
X440111Y253103D01*
X440978Y252438D01*
X441988Y252020D01*
X442571Y251943D01*
Y255563D01*
D02*
G37*
G36*
X427190D02*
X423571D01*
Y251943D01*
X424154Y252020D01*
X425164Y252438D01*
X426030Y253103D01*
X426695Y253970D01*
X427114Y254980D01*
X427190Y255563D01*
D02*
G37*
G36*
X422571D02*
X418951D01*
X419028Y254980D01*
X419446Y253970D01*
X420111Y253103D01*
X420978Y252438D01*
X421987Y252020D01*
X422571Y251943D01*
Y255563D01*
D02*
G37*
G36*
X634041Y255406D02*
X630421D01*
Y251786D01*
X631004Y251863D01*
X632014Y252281D01*
X632881Y252946D01*
X633546Y253813D01*
X633964Y254822D01*
X634041Y255406D01*
D02*
G37*
G36*
X629421D02*
X625802D01*
X625878Y254822D01*
X626297Y253813D01*
X626962Y252946D01*
X627829Y252281D01*
X628838Y251863D01*
X629421Y251786D01*
Y255406D01*
D02*
G37*
G36*
X614041D02*
X610421D01*
Y251786D01*
X611004Y251863D01*
X612014Y252281D01*
X612881Y252946D01*
X613546Y253813D01*
X613964Y254822D01*
X614041Y255406D01*
D02*
G37*
G36*
X609421D02*
X605802D01*
X605878Y254822D01*
X606296Y253813D01*
X606962Y252946D01*
X607829Y252281D01*
X608838Y251863D01*
X609421Y251786D01*
Y255406D01*
D02*
G37*
G36*
X594671D02*
X591051D01*
Y251786D01*
X591634Y251863D01*
X592644Y252281D01*
X593510Y252946D01*
X594176Y253813D01*
X594594Y254822D01*
X594671Y255406D01*
D02*
G37*
G36*
X590051D02*
X586431D01*
X586508Y254822D01*
X586926Y253813D01*
X587592Y252946D01*
X588458Y252281D01*
X589468Y251863D01*
X590051Y251786D01*
Y255406D01*
D02*
G37*
G36*
X574671D02*
X571051D01*
Y251786D01*
X571634Y251863D01*
X572644Y252281D01*
X573511Y252946D01*
X574176Y253813D01*
X574594Y254822D01*
X574671Y255406D01*
D02*
G37*
G36*
X570051D02*
X566431D01*
X566508Y254822D01*
X566926Y253813D01*
X567591Y252946D01*
X568458Y252281D01*
X569468Y251863D01*
X570051Y251786D01*
Y255406D01*
D02*
G37*
G36*
X555301D02*
X551681D01*
Y251786D01*
X552264Y251863D01*
X553274Y252281D01*
X554141Y252946D01*
X554806Y253813D01*
X555224Y254822D01*
X555301Y255406D01*
D02*
G37*
G36*
X550681D02*
X547061D01*
X547138Y254822D01*
X547556Y253813D01*
X548221Y252946D01*
X549088Y252281D01*
X550098Y251863D01*
X550681Y251786D01*
Y255406D01*
D02*
G37*
G36*
X535301D02*
X531681D01*
Y251786D01*
X532264Y251863D01*
X533274Y252281D01*
X534140Y252946D01*
X534806Y253813D01*
X535224Y254822D01*
X535301Y255406D01*
D02*
G37*
G36*
X530681D02*
X527061D01*
X527138Y254822D01*
X527556Y253813D01*
X528222Y252946D01*
X529088Y252281D01*
X530098Y251863D01*
X530681Y251786D01*
Y255406D01*
D02*
G37*
G36*
X515930D02*
X512311D01*
Y251786D01*
X512894Y251863D01*
X513904Y252281D01*
X514770Y252946D01*
X515436Y253813D01*
X515854Y254822D01*
X515930Y255406D01*
D02*
G37*
G36*
X511311D02*
X507691D01*
X507768Y254822D01*
X508186Y253813D01*
X508851Y252946D01*
X509718Y252281D01*
X510728Y251863D01*
X511311Y251786D01*
Y255406D01*
D02*
G37*
G36*
X495930D02*
X492311D01*
Y251786D01*
X492894Y251863D01*
X493903Y252281D01*
X494770Y252946D01*
X495435Y253813D01*
X495854Y254822D01*
X495930Y255406D01*
D02*
G37*
G36*
X491311D02*
X487691D01*
X487768Y254822D01*
X488186Y253813D01*
X488851Y252946D01*
X489718Y252281D01*
X490728Y251863D01*
X491311Y251786D01*
Y255406D01*
D02*
G37*
G36*
X378450D02*
X374831D01*
Y251786D01*
X375414Y251863D01*
X376423Y252281D01*
X377290Y252946D01*
X377955Y253813D01*
X378373Y254822D01*
X378450Y255406D01*
D02*
G37*
G36*
X373831D02*
X370211D01*
X370288Y254822D01*
X370706Y253813D01*
X371371Y252946D01*
X372238Y252281D01*
X373247Y251863D01*
X373831Y251786D01*
Y255406D01*
D02*
G37*
G36*
X358450D02*
X354831D01*
Y251786D01*
X355414Y251863D01*
X356423Y252281D01*
X357290Y252946D01*
X357955Y253813D01*
X358373Y254822D01*
X358450Y255406D01*
D02*
G37*
G36*
X353831D02*
X350211D01*
X350288Y254822D01*
X350706Y253813D01*
X351371Y252946D01*
X352238Y252281D01*
X353247Y251863D01*
X353831Y251786D01*
Y255406D01*
D02*
G37*
G36*
X339080D02*
X335461D01*
Y251786D01*
X336044Y251863D01*
X337053Y252281D01*
X337920Y252946D01*
X338585Y253813D01*
X339003Y254822D01*
X339080Y255406D01*
D02*
G37*
G36*
X334461D02*
X330841D01*
X330918Y254822D01*
X331336Y253813D01*
X332001Y252946D01*
X332868Y252281D01*
X333877Y251863D01*
X334461Y251786D01*
Y255406D01*
D02*
G37*
G36*
X319080D02*
X315461D01*
Y251786D01*
X316044Y251863D01*
X317053Y252281D01*
X317920Y252946D01*
X318585Y253813D01*
X319003Y254822D01*
X319080Y255406D01*
D02*
G37*
G36*
X314461D02*
X310841D01*
X310918Y254822D01*
X311336Y253813D01*
X312001Y252946D01*
X312868Y252281D01*
X313877Y251863D01*
X314461Y251786D01*
Y255406D01*
D02*
G37*
G36*
X299710D02*
X296091D01*
Y251786D01*
X296674Y251863D01*
X297683Y252281D01*
X298550Y252946D01*
X299215Y253813D01*
X299633Y254822D01*
X299710Y255406D01*
D02*
G37*
G36*
X295091D02*
X291471D01*
X291548Y254822D01*
X291966Y253813D01*
X292631Y252946D01*
X293498Y252281D01*
X294507Y251863D01*
X295091Y251786D01*
Y255406D01*
D02*
G37*
G36*
X279710D02*
X276091D01*
Y251786D01*
X276674Y251863D01*
X277683Y252281D01*
X278550Y252946D01*
X279215Y253813D01*
X279633Y254822D01*
X279710Y255406D01*
D02*
G37*
G36*
X275091D02*
X271471D01*
X271548Y254822D01*
X271966Y253813D01*
X272631Y252946D01*
X273498Y252281D01*
X274507Y251863D01*
X275091Y251786D01*
Y255406D01*
D02*
G37*
G36*
X260340D02*
X256720D01*
Y251786D01*
X257304Y251863D01*
X258313Y252281D01*
X259180Y252946D01*
X259845Y253813D01*
X260263Y254822D01*
X260340Y255406D01*
D02*
G37*
G36*
X255720D02*
X252101D01*
X252178Y254822D01*
X252596Y253813D01*
X253261Y252946D01*
X254128Y252281D01*
X255137Y251863D01*
X255720Y251786D01*
Y255406D01*
D02*
G37*
G36*
X240340D02*
X236720D01*
Y251786D01*
X237304Y251863D01*
X238313Y252281D01*
X239180Y252946D01*
X239845Y253813D01*
X240263Y254822D01*
X240340Y255406D01*
D02*
G37*
G36*
X235720D02*
X232101D01*
X232178Y254822D01*
X232596Y253813D01*
X233261Y252946D01*
X234128Y252281D01*
X235137Y251863D01*
X235720Y251786D01*
Y255406D01*
D02*
G37*
G36*
X433071Y250248D02*
X431987Y250106D01*
X430978Y249688D01*
X430111Y249023D01*
X429446Y248156D01*
X429028Y247146D01*
X428885Y246063D01*
X429028Y244980D01*
X429446Y243970D01*
X430111Y243104D01*
X430978Y242438D01*
X431987Y242020D01*
X433071Y241878D01*
X434154Y242020D01*
X435163Y242438D01*
X436030Y243104D01*
X436695Y243970D01*
X437114Y244980D01*
X437256Y246063D01*
X437114Y247146D01*
X436695Y248156D01*
X436030Y249023D01*
X435163Y249688D01*
X434154Y250106D01*
X433071Y250248D01*
D02*
G37*
G36*
X619921Y250091D02*
X618838Y249948D01*
X617829Y249530D01*
X616962Y248865D01*
X616296Y247998D01*
X615878Y246989D01*
X615736Y245906D01*
X615878Y244822D01*
X616296Y243813D01*
X616962Y242946D01*
X617829Y242281D01*
X618838Y241863D01*
X619921Y241720D01*
X621004Y241863D01*
X622014Y242281D01*
X622881Y242946D01*
X623546Y243813D01*
X623964Y244822D01*
X624107Y245906D01*
X623964Y246989D01*
X623546Y247998D01*
X622881Y248865D01*
X622014Y249530D01*
X621004Y249948D01*
X619921Y250091D01*
D02*
G37*
G36*
X580551D02*
X579468Y249948D01*
X578458Y249530D01*
X577592Y248865D01*
X576926Y247998D01*
X576508Y246989D01*
X576366Y245906D01*
X576508Y244822D01*
X576926Y243813D01*
X577592Y242946D01*
X578458Y242281D01*
X579468Y241863D01*
X580551Y241720D01*
X581634Y241863D01*
X582644Y242281D01*
X583510Y242946D01*
X584176Y243813D01*
X584594Y244822D01*
X584736Y245906D01*
X584594Y246989D01*
X584176Y247998D01*
X583510Y248865D01*
X582644Y249530D01*
X581634Y249948D01*
X580551Y250091D01*
D02*
G37*
G36*
X541181D02*
X540098Y249948D01*
X539088Y249530D01*
X538222Y248865D01*
X537556Y247998D01*
X537138Y246989D01*
X536996Y245906D01*
X537138Y244822D01*
X537556Y243813D01*
X538222Y242946D01*
X539088Y242281D01*
X540098Y241863D01*
X541181Y241720D01*
X542264Y241863D01*
X543274Y242281D01*
X544140Y242946D01*
X544806Y243813D01*
X545224Y244822D01*
X545366Y245906D01*
X545224Y246989D01*
X544806Y247998D01*
X544140Y248865D01*
X543274Y249530D01*
X542264Y249948D01*
X541181Y250091D01*
D02*
G37*
G36*
X501811D02*
X500728Y249948D01*
X499718Y249530D01*
X498851Y248865D01*
X498186Y247998D01*
X497768Y246989D01*
X497625Y245906D01*
X497768Y244822D01*
X498186Y243813D01*
X498851Y242946D01*
X499718Y242281D01*
X500728Y241863D01*
X501811Y241720D01*
X502894Y241863D01*
X503903Y242281D01*
X504770Y242946D01*
X505436Y243813D01*
X505854Y244822D01*
X505996Y245906D01*
X505854Y246989D01*
X505436Y247998D01*
X504770Y248865D01*
X503903Y249530D01*
X502894Y249948D01*
X501811Y250091D01*
D02*
G37*
G36*
X364331D02*
X363247Y249948D01*
X362238Y249530D01*
X361371Y248865D01*
X360706Y247998D01*
X360288Y246989D01*
X360145Y245906D01*
X360288Y244822D01*
X360706Y243813D01*
X361371Y242946D01*
X362238Y242281D01*
X363247Y241863D01*
X364331Y241720D01*
X365414Y241863D01*
X366423Y242281D01*
X367290Y242946D01*
X367955Y243813D01*
X368373Y244822D01*
X368516Y245906D01*
X368373Y246989D01*
X367955Y247998D01*
X367290Y248865D01*
X366423Y249530D01*
X365414Y249948D01*
X364331Y250091D01*
D02*
G37*
G36*
X324961D02*
X323877Y249948D01*
X322868Y249530D01*
X322001Y248865D01*
X321336Y247998D01*
X320918Y246989D01*
X320775Y245906D01*
X320918Y244822D01*
X321336Y243813D01*
X322001Y242946D01*
X322868Y242281D01*
X323877Y241863D01*
X324961Y241720D01*
X326044Y241863D01*
X327053Y242281D01*
X327920Y242946D01*
X328585Y243813D01*
X329003Y244822D01*
X329146Y245906D01*
X329003Y246989D01*
X328585Y247998D01*
X327920Y248865D01*
X327053Y249530D01*
X326044Y249948D01*
X324961Y250091D01*
D02*
G37*
G36*
X285591D02*
X284507Y249948D01*
X283498Y249530D01*
X282631Y248865D01*
X281966Y247998D01*
X281548Y246989D01*
X281405Y245906D01*
X281548Y244822D01*
X281966Y243813D01*
X282631Y242946D01*
X283498Y242281D01*
X284507Y241863D01*
X285591Y241720D01*
X286674Y241863D01*
X287683Y242281D01*
X288550Y242946D01*
X289215Y243813D01*
X289633Y244822D01*
X289776Y245906D01*
X289633Y246989D01*
X289215Y247998D01*
X288550Y248865D01*
X287683Y249530D01*
X286674Y249948D01*
X285591Y250091D01*
D02*
G37*
G36*
X246220D02*
X245137Y249948D01*
X244128Y249530D01*
X243261Y248865D01*
X242596Y247998D01*
X242178Y246989D01*
X242035Y245906D01*
X242178Y244822D01*
X242596Y243813D01*
X243261Y242946D01*
X244128Y242281D01*
X245137Y241863D01*
X246220Y241720D01*
X247304Y241863D01*
X248313Y242281D01*
X249180Y242946D01*
X249845Y243813D01*
X250263Y244822D01*
X250406Y245906D01*
X250263Y246989D01*
X249845Y247998D01*
X249180Y248865D01*
X248313Y249530D01*
X247304Y249948D01*
X246220Y250091D01*
D02*
G37*
G36*
X443571Y240183D02*
Y236563D01*
X447190D01*
X447114Y237146D01*
X446696Y238156D01*
X446030Y239022D01*
X445163Y239688D01*
X444154Y240106D01*
X443571Y240183D01*
D02*
G37*
G36*
X442571D02*
X441988Y240106D01*
X440978Y239688D01*
X440111Y239022D01*
X439446Y238156D01*
X439028Y237146D01*
X438951Y236563D01*
X442571D01*
Y240183D01*
D02*
G37*
G36*
X423571D02*
Y236563D01*
X427190D01*
X427114Y237146D01*
X426695Y238156D01*
X426030Y239022D01*
X425164Y239688D01*
X424154Y240106D01*
X423571Y240183D01*
D02*
G37*
G36*
X422571D02*
X421987Y240106D01*
X420978Y239688D01*
X420111Y239022D01*
X419446Y238156D01*
X419028Y237146D01*
X418951Y236563D01*
X422571D01*
Y240183D01*
D02*
G37*
G36*
X630421Y240025D02*
Y236406D01*
X634041D01*
X633964Y236989D01*
X633546Y237998D01*
X632881Y238865D01*
X632014Y239530D01*
X631004Y239948D01*
X630421Y240025D01*
D02*
G37*
G36*
X629421D02*
X628838Y239948D01*
X627829Y239530D01*
X626962Y238865D01*
X626297Y237998D01*
X625878Y236989D01*
X625802Y236406D01*
X629421D01*
Y240025D01*
D02*
G37*
G36*
X610421D02*
Y236406D01*
X614041D01*
X613964Y236989D01*
X613546Y237998D01*
X612881Y238865D01*
X612014Y239530D01*
X611004Y239948D01*
X610421Y240025D01*
D02*
G37*
G36*
X609421D02*
X608838Y239948D01*
X607829Y239530D01*
X606962Y238865D01*
X606296Y237998D01*
X605878Y236989D01*
X605802Y236406D01*
X609421D01*
Y240025D01*
D02*
G37*
G36*
X591051D02*
Y236406D01*
X594671D01*
X594594Y236989D01*
X594176Y237998D01*
X593510Y238865D01*
X592644Y239530D01*
X591634Y239948D01*
X591051Y240025D01*
D02*
G37*
G36*
X590051D02*
X589468Y239948D01*
X588458Y239530D01*
X587592Y238865D01*
X586926Y237998D01*
X586508Y236989D01*
X586431Y236406D01*
X590051D01*
Y240025D01*
D02*
G37*
G36*
X571051D02*
Y236406D01*
X574671D01*
X574594Y236989D01*
X574176Y237998D01*
X573511Y238865D01*
X572644Y239530D01*
X571634Y239948D01*
X571051Y240025D01*
D02*
G37*
G36*
X570051D02*
X569468Y239948D01*
X568458Y239530D01*
X567591Y238865D01*
X566926Y237998D01*
X566508Y236989D01*
X566431Y236406D01*
X570051D01*
Y240025D01*
D02*
G37*
G36*
X551681D02*
Y236406D01*
X555301D01*
X555224Y236989D01*
X554806Y237998D01*
X554141Y238865D01*
X553274Y239530D01*
X552264Y239948D01*
X551681Y240025D01*
D02*
G37*
G36*
X550681D02*
X550098Y239948D01*
X549088Y239530D01*
X548221Y238865D01*
X547556Y237998D01*
X547138Y236989D01*
X547061Y236406D01*
X550681D01*
Y240025D01*
D02*
G37*
G36*
X531681D02*
Y236406D01*
X535301D01*
X535224Y236989D01*
X534806Y237998D01*
X534140Y238865D01*
X533274Y239530D01*
X532264Y239948D01*
X531681Y240025D01*
D02*
G37*
G36*
X530681D02*
X530098Y239948D01*
X529088Y239530D01*
X528222Y238865D01*
X527556Y237998D01*
X527138Y236989D01*
X527061Y236406D01*
X530681D01*
Y240025D01*
D02*
G37*
G36*
X512311D02*
Y236406D01*
X515930D01*
X515854Y236989D01*
X515436Y237998D01*
X514770Y238865D01*
X513904Y239530D01*
X512894Y239948D01*
X512311Y240025D01*
D02*
G37*
G36*
X511311D02*
X510728Y239948D01*
X509718Y239530D01*
X508851Y238865D01*
X508186Y237998D01*
X507768Y236989D01*
X507691Y236406D01*
X511311D01*
Y240025D01*
D02*
G37*
G36*
X492311D02*
Y236406D01*
X495930D01*
X495854Y236989D01*
X495435Y237998D01*
X494770Y238865D01*
X493903Y239530D01*
X492894Y239948D01*
X492311Y240025D01*
D02*
G37*
G36*
X491311D02*
X490728Y239948D01*
X489718Y239530D01*
X488851Y238865D01*
X488186Y237998D01*
X487768Y236989D01*
X487691Y236406D01*
X491311D01*
Y240025D01*
D02*
G37*
G36*
X374831D02*
Y236406D01*
X378450D01*
X378373Y236989D01*
X377955Y237998D01*
X377290Y238865D01*
X376423Y239530D01*
X375414Y239948D01*
X374831Y240025D01*
D02*
G37*
G36*
X373831D02*
X373247Y239948D01*
X372238Y239530D01*
X371371Y238865D01*
X370706Y237998D01*
X370288Y236989D01*
X370211Y236406D01*
X373831D01*
Y240025D01*
D02*
G37*
G36*
X354831D02*
Y236406D01*
X358450D01*
X358373Y236989D01*
X357955Y237998D01*
X357290Y238865D01*
X356423Y239530D01*
X355414Y239948D01*
X354831Y240025D01*
D02*
G37*
G36*
X353831D02*
X353247Y239948D01*
X352238Y239530D01*
X351371Y238865D01*
X350706Y237998D01*
X350288Y236989D01*
X350211Y236406D01*
X353831D01*
Y240025D01*
D02*
G37*
G36*
X335461D02*
Y236406D01*
X339080D01*
X339003Y236989D01*
X338585Y237998D01*
X337920Y238865D01*
X337053Y239530D01*
X336044Y239948D01*
X335461Y240025D01*
D02*
G37*
G36*
X334461D02*
X333877Y239948D01*
X332868Y239530D01*
X332001Y238865D01*
X331336Y237998D01*
X330918Y236989D01*
X330841Y236406D01*
X334461D01*
Y240025D01*
D02*
G37*
G36*
X315461D02*
Y236406D01*
X319080D01*
X319003Y236989D01*
X318585Y237998D01*
X317920Y238865D01*
X317053Y239530D01*
X316044Y239948D01*
X315461Y240025D01*
D02*
G37*
G36*
X314461D02*
X313877Y239948D01*
X312868Y239530D01*
X312001Y238865D01*
X311336Y237998D01*
X310918Y236989D01*
X310841Y236406D01*
X314461D01*
Y240025D01*
D02*
G37*
G36*
X296091D02*
Y236406D01*
X299710D01*
X299633Y236989D01*
X299215Y237998D01*
X298550Y238865D01*
X297683Y239530D01*
X296674Y239948D01*
X296091Y240025D01*
D02*
G37*
G36*
X295091D02*
X294507Y239948D01*
X293498Y239530D01*
X292631Y238865D01*
X291966Y237998D01*
X291548Y236989D01*
X291471Y236406D01*
X295091D01*
Y240025D01*
D02*
G37*
G36*
X276091D02*
Y236406D01*
X279710D01*
X279633Y236989D01*
X279215Y237998D01*
X278550Y238865D01*
X277683Y239530D01*
X276674Y239948D01*
X276091Y240025D01*
D02*
G37*
G36*
X275091D02*
X274507Y239948D01*
X273498Y239530D01*
X272631Y238865D01*
X271966Y237998D01*
X271548Y236989D01*
X271471Y236406D01*
X275091D01*
Y240025D01*
D02*
G37*
G36*
X256720D02*
Y236406D01*
X260340D01*
X260263Y236989D01*
X259845Y237998D01*
X259180Y238865D01*
X258313Y239530D01*
X257304Y239948D01*
X256720Y240025D01*
D02*
G37*
G36*
X255720D02*
X255137Y239948D01*
X254128Y239530D01*
X253261Y238865D01*
X252596Y237998D01*
X252178Y236989D01*
X252101Y236406D01*
X255720D01*
Y240025D01*
D02*
G37*
G36*
X236720D02*
Y236406D01*
X240340D01*
X240263Y236989D01*
X239845Y237998D01*
X239180Y238865D01*
X238313Y239530D01*
X237304Y239948D01*
X236720Y240025D01*
D02*
G37*
G36*
X235720D02*
X235137Y239948D01*
X234128Y239530D01*
X233261Y238865D01*
X232596Y237998D01*
X232178Y236989D01*
X232101Y236406D01*
X235720D01*
Y240025D01*
D02*
G37*
G36*
X447190Y235563D02*
X443571D01*
Y231943D01*
X444154Y232020D01*
X445163Y232438D01*
X446030Y233103D01*
X446696Y233970D01*
X447114Y234980D01*
X447190Y235563D01*
D02*
G37*
G36*
X442571D02*
X438951D01*
X439028Y234980D01*
X439446Y233970D01*
X440111Y233103D01*
X440978Y232438D01*
X441988Y232020D01*
X442571Y231943D01*
Y235563D01*
D02*
G37*
G36*
X427190D02*
X423571D01*
Y231943D01*
X424154Y232020D01*
X425164Y232438D01*
X426030Y233103D01*
X426695Y233970D01*
X427114Y234980D01*
X427190Y235563D01*
D02*
G37*
G36*
X422571D02*
X418951D01*
X419028Y234980D01*
X419446Y233970D01*
X420111Y233103D01*
X420978Y232438D01*
X421987Y232020D01*
X422571Y231943D01*
Y235563D01*
D02*
G37*
G36*
X634041Y235406D02*
X630421D01*
Y231786D01*
X631004Y231863D01*
X632014Y232281D01*
X632881Y232946D01*
X633546Y233813D01*
X633964Y234822D01*
X634041Y235406D01*
D02*
G37*
G36*
X629421D02*
X625802D01*
X625878Y234822D01*
X626297Y233813D01*
X626962Y232946D01*
X627829Y232281D01*
X628838Y231863D01*
X629421Y231786D01*
Y235406D01*
D02*
G37*
G36*
X614041D02*
X610421D01*
Y231786D01*
X611004Y231863D01*
X612014Y232281D01*
X612881Y232946D01*
X613546Y233813D01*
X613964Y234822D01*
X614041Y235406D01*
D02*
G37*
G36*
X609421D02*
X605802D01*
X605878Y234822D01*
X606296Y233813D01*
X606962Y232946D01*
X607829Y232281D01*
X608838Y231863D01*
X609421Y231786D01*
Y235406D01*
D02*
G37*
G36*
X594671D02*
X591051D01*
Y231786D01*
X591634Y231863D01*
X592644Y232281D01*
X593510Y232946D01*
X594176Y233813D01*
X594594Y234822D01*
X594671Y235406D01*
D02*
G37*
G36*
X590051D02*
X586431D01*
X586508Y234822D01*
X586926Y233813D01*
X587592Y232946D01*
X588458Y232281D01*
X589468Y231863D01*
X590051Y231786D01*
Y235406D01*
D02*
G37*
G36*
X574671D02*
X571051D01*
Y231786D01*
X571634Y231863D01*
X572644Y232281D01*
X573511Y232946D01*
X574176Y233813D01*
X574594Y234822D01*
X574671Y235406D01*
D02*
G37*
G36*
X570051D02*
X566431D01*
X566508Y234822D01*
X566926Y233813D01*
X567591Y232946D01*
X568458Y232281D01*
X569468Y231863D01*
X570051Y231786D01*
Y235406D01*
D02*
G37*
G36*
X555301D02*
X551681D01*
Y231786D01*
X552264Y231863D01*
X553274Y232281D01*
X554141Y232946D01*
X554806Y233813D01*
X555224Y234822D01*
X555301Y235406D01*
D02*
G37*
G36*
X550681D02*
X547061D01*
X547138Y234822D01*
X547556Y233813D01*
X548221Y232946D01*
X549088Y232281D01*
X550098Y231863D01*
X550681Y231786D01*
Y235406D01*
D02*
G37*
G36*
X535301D02*
X531681D01*
Y231786D01*
X532264Y231863D01*
X533274Y232281D01*
X534140Y232946D01*
X534806Y233813D01*
X535224Y234822D01*
X535301Y235406D01*
D02*
G37*
G36*
X530681D02*
X527061D01*
X527138Y234822D01*
X527556Y233813D01*
X528222Y232946D01*
X529088Y232281D01*
X530098Y231863D01*
X530681Y231786D01*
Y235406D01*
D02*
G37*
G36*
X515930D02*
X512311D01*
Y231786D01*
X512894Y231863D01*
X513904Y232281D01*
X514770Y232946D01*
X515436Y233813D01*
X515854Y234822D01*
X515930Y235406D01*
D02*
G37*
G36*
X511311D02*
X507691D01*
X507768Y234822D01*
X508186Y233813D01*
X508851Y232946D01*
X509718Y232281D01*
X510728Y231863D01*
X511311Y231786D01*
Y235406D01*
D02*
G37*
G36*
X495930D02*
X492311D01*
Y231786D01*
X492894Y231863D01*
X493903Y232281D01*
X494770Y232946D01*
X495435Y233813D01*
X495854Y234822D01*
X495930Y235406D01*
D02*
G37*
G36*
X491311D02*
X487691D01*
X487768Y234822D01*
X488186Y233813D01*
X488851Y232946D01*
X489718Y232281D01*
X490728Y231863D01*
X491311Y231786D01*
Y235406D01*
D02*
G37*
G36*
X378450D02*
X374831D01*
Y231786D01*
X375414Y231863D01*
X376423Y232281D01*
X377290Y232946D01*
X377955Y233813D01*
X378373Y234822D01*
X378450Y235406D01*
D02*
G37*
G36*
X373831D02*
X370211D01*
X370288Y234822D01*
X370706Y233813D01*
X371371Y232946D01*
X372238Y232281D01*
X373247Y231863D01*
X373831Y231786D01*
Y235406D01*
D02*
G37*
G36*
X358450D02*
X354831D01*
Y231786D01*
X355414Y231863D01*
X356423Y232281D01*
X357290Y232946D01*
X357955Y233813D01*
X358373Y234822D01*
X358450Y235406D01*
D02*
G37*
G36*
X353831D02*
X350211D01*
X350288Y234822D01*
X350706Y233813D01*
X351371Y232946D01*
X352238Y232281D01*
X353247Y231863D01*
X353831Y231786D01*
Y235406D01*
D02*
G37*
G36*
X339080D02*
X335461D01*
Y231786D01*
X336044Y231863D01*
X337053Y232281D01*
X337920Y232946D01*
X338585Y233813D01*
X339003Y234822D01*
X339080Y235406D01*
D02*
G37*
G36*
X334461D02*
X330841D01*
X330918Y234822D01*
X331336Y233813D01*
X332001Y232946D01*
X332868Y232281D01*
X333877Y231863D01*
X334461Y231786D01*
Y235406D01*
D02*
G37*
G36*
X319080D02*
X315461D01*
Y231786D01*
X316044Y231863D01*
X317053Y232281D01*
X317920Y232946D01*
X318585Y233813D01*
X319003Y234822D01*
X319080Y235406D01*
D02*
G37*
G36*
X314461D02*
X310841D01*
X310918Y234822D01*
X311336Y233813D01*
X312001Y232946D01*
X312868Y232281D01*
X313877Y231863D01*
X314461Y231786D01*
Y235406D01*
D02*
G37*
G36*
X299710D02*
X296091D01*
Y231786D01*
X296674Y231863D01*
X297683Y232281D01*
X298550Y232946D01*
X299215Y233813D01*
X299633Y234822D01*
X299710Y235406D01*
D02*
G37*
G36*
X295091D02*
X291471D01*
X291548Y234822D01*
X291966Y233813D01*
X292631Y232946D01*
X293498Y232281D01*
X294507Y231863D01*
X295091Y231786D01*
Y235406D01*
D02*
G37*
G36*
X279710D02*
X276091D01*
Y231786D01*
X276674Y231863D01*
X277683Y232281D01*
X278550Y232946D01*
X279215Y233813D01*
X279633Y234822D01*
X279710Y235406D01*
D02*
G37*
G36*
X275091D02*
X271471D01*
X271548Y234822D01*
X271966Y233813D01*
X272631Y232946D01*
X273498Y232281D01*
X274507Y231863D01*
X275091Y231786D01*
Y235406D01*
D02*
G37*
G36*
X260340D02*
X256720D01*
Y231786D01*
X257304Y231863D01*
X258313Y232281D01*
X259180Y232946D01*
X259845Y233813D01*
X260263Y234822D01*
X260340Y235406D01*
D02*
G37*
G36*
X255720D02*
X252101D01*
X252178Y234822D01*
X252596Y233813D01*
X253261Y232946D01*
X254128Y232281D01*
X255137Y231863D01*
X255720Y231786D01*
Y235406D01*
D02*
G37*
G36*
X240340D02*
X236720D01*
Y231786D01*
X237304Y231863D01*
X238313Y232281D01*
X239180Y232946D01*
X239845Y233813D01*
X240263Y234822D01*
X240340Y235406D01*
D02*
G37*
G36*
X235720D02*
X232101D01*
X232178Y234822D01*
X232596Y233813D01*
X233261Y232946D01*
X234128Y232281D01*
X235137Y231863D01*
X235720Y231786D01*
Y235406D01*
D02*
G37*
G36*
X591209Y220813D02*
Y217193D01*
X594828D01*
X594751Y217776D01*
X594333Y218786D01*
X593668Y219653D01*
X592801Y220318D01*
X591792Y220736D01*
X591209Y220813D01*
D02*
G37*
G36*
X590209D02*
X589625Y220736D01*
X588616Y220318D01*
X587749Y219653D01*
X587084Y218786D01*
X586666Y217776D01*
X586589Y217193D01*
X590209D01*
Y220813D01*
D02*
G37*
G36*
X571209D02*
Y217193D01*
X574828D01*
X574751Y217776D01*
X574333Y218786D01*
X573668Y219653D01*
X572801Y220318D01*
X571792Y220736D01*
X571209Y220813D01*
D02*
G37*
G36*
X570209D02*
X569625Y220736D01*
X568616Y220318D01*
X567749Y219653D01*
X567084Y218786D01*
X566666Y217776D01*
X566589Y217193D01*
X570209D01*
Y220813D01*
D02*
G37*
G36*
X551839D02*
Y217193D01*
X555458D01*
X555381Y217776D01*
X554963Y218786D01*
X554298Y219653D01*
X553431Y220318D01*
X552422Y220736D01*
X551839Y220813D01*
D02*
G37*
G36*
X550839D02*
X550255Y220736D01*
X549246Y220318D01*
X548379Y219653D01*
X547714Y218786D01*
X547296Y217776D01*
X547219Y217193D01*
X550839D01*
Y220813D01*
D02*
G37*
G36*
X531839D02*
Y217193D01*
X535458D01*
X535381Y217776D01*
X534963Y218786D01*
X534298Y219653D01*
X533431Y220318D01*
X532422Y220736D01*
X531839Y220813D01*
D02*
G37*
G36*
X530839D02*
X530255Y220736D01*
X529246Y220318D01*
X528379Y219653D01*
X527714Y218786D01*
X527296Y217776D01*
X527219Y217193D01*
X530839D01*
Y220813D01*
D02*
G37*
G36*
X512468D02*
Y217193D01*
X516088D01*
X516011Y217776D01*
X515593Y218786D01*
X514928Y219653D01*
X514061Y220318D01*
X513052Y220736D01*
X512468Y220813D01*
D02*
G37*
G36*
X511468D02*
X510885Y220736D01*
X509876Y220318D01*
X509009Y219653D01*
X508344Y218786D01*
X507926Y217776D01*
X507849Y217193D01*
X511468D01*
Y220813D01*
D02*
G37*
G36*
X492468D02*
Y217193D01*
X496088D01*
X496011Y217776D01*
X495593Y218786D01*
X494928Y219653D01*
X494061Y220318D01*
X493052Y220736D01*
X492468Y220813D01*
D02*
G37*
G36*
X491468D02*
X490885Y220736D01*
X489876Y220318D01*
X489009Y219653D01*
X488344Y218786D01*
X487926Y217776D01*
X487849Y217193D01*
X491468D01*
Y220813D01*
D02*
G37*
G36*
X473098D02*
Y217193D01*
X476718D01*
X476641Y217776D01*
X476223Y218786D01*
X475558Y219653D01*
X474691Y220318D01*
X473682Y220736D01*
X473098Y220813D01*
D02*
G37*
G36*
X472098D02*
X471515Y220736D01*
X470506Y220318D01*
X469639Y219653D01*
X468974Y218786D01*
X468556Y217776D01*
X468479Y217193D01*
X472098D01*
Y220813D01*
D02*
G37*
G36*
X453098D02*
Y217193D01*
X456718D01*
X456641Y217776D01*
X456223Y218786D01*
X455558Y219653D01*
X454691Y220318D01*
X453682Y220736D01*
X453098Y220813D01*
D02*
G37*
G36*
X452098D02*
X451515Y220736D01*
X450506Y220318D01*
X449639Y219653D01*
X448974Y218786D01*
X448556Y217776D01*
X448479Y217193D01*
X452098D01*
Y220813D01*
D02*
G37*
G36*
X414043D02*
Y217193D01*
X417663D01*
X417586Y217776D01*
X417168Y218786D01*
X416503Y219653D01*
X415636Y220318D01*
X414627Y220736D01*
X414043Y220813D01*
D02*
G37*
G36*
X413043D02*
X412460Y220736D01*
X411451Y220318D01*
X410584Y219653D01*
X409919Y218786D01*
X409501Y217776D01*
X409424Y217193D01*
X413043D01*
Y220813D01*
D02*
G37*
G36*
X394043D02*
Y217193D01*
X397663D01*
X397586Y217776D01*
X397168Y218786D01*
X396503Y219653D01*
X395636Y220318D01*
X394627Y220736D01*
X394043Y220813D01*
D02*
G37*
G36*
X393043D02*
X392460Y220736D01*
X391451Y220318D01*
X390584Y219653D01*
X389919Y218786D01*
X389501Y217776D01*
X389424Y217193D01*
X393043D01*
Y220813D01*
D02*
G37*
G36*
X374673D02*
Y217193D01*
X378293D01*
X378216Y217776D01*
X377798Y218786D01*
X377133Y219653D01*
X376266Y220318D01*
X375257Y220736D01*
X374673Y220813D01*
D02*
G37*
G36*
X373673D02*
X373090Y220736D01*
X372081Y220318D01*
X371214Y219653D01*
X370549Y218786D01*
X370131Y217776D01*
X370054Y217193D01*
X373673D01*
Y220813D01*
D02*
G37*
G36*
X354673D02*
Y217193D01*
X358293D01*
X358216Y217776D01*
X357798Y218786D01*
X357133Y219653D01*
X356266Y220318D01*
X355257Y220736D01*
X354673Y220813D01*
D02*
G37*
G36*
X353673D02*
X353090Y220736D01*
X352081Y220318D01*
X351214Y219653D01*
X350549Y218786D01*
X350131Y217776D01*
X350054Y217193D01*
X353673D01*
Y220813D01*
D02*
G37*
G36*
X335303D02*
Y217193D01*
X338923D01*
X338846Y217776D01*
X338428Y218786D01*
X337763Y219653D01*
X336896Y220318D01*
X335887Y220736D01*
X335303Y220813D01*
D02*
G37*
G36*
X334303D02*
X333720Y220736D01*
X332711Y220318D01*
X331844Y219653D01*
X331178Y218786D01*
X330760Y217776D01*
X330684Y217193D01*
X334303D01*
Y220813D01*
D02*
G37*
G36*
X315303D02*
Y217193D01*
X318923D01*
X318846Y217776D01*
X318428Y218786D01*
X317763Y219653D01*
X316896Y220318D01*
X315886Y220736D01*
X315303Y220813D01*
D02*
G37*
G36*
X314303D02*
X313720Y220736D01*
X312710Y220318D01*
X311844Y219653D01*
X311178Y218786D01*
X310760Y217776D01*
X310684Y217193D01*
X314303D01*
Y220813D01*
D02*
G37*
G36*
X295933D02*
Y217193D01*
X299553D01*
X299476Y217776D01*
X299058Y218786D01*
X298393Y219653D01*
X297526Y220318D01*
X296516Y220736D01*
X295933Y220813D01*
D02*
G37*
G36*
X294933D02*
X294350Y220736D01*
X293340Y220318D01*
X292474Y219653D01*
X291809Y218786D01*
X291390Y217776D01*
X291314Y217193D01*
X294933D01*
Y220813D01*
D02*
G37*
G36*
X275933D02*
Y217193D01*
X279553D01*
X279476Y217776D01*
X279058Y218786D01*
X278393Y219653D01*
X277526Y220318D01*
X276517Y220736D01*
X275933Y220813D01*
D02*
G37*
G36*
X274933D02*
X274350Y220736D01*
X273341Y220318D01*
X272474Y219653D01*
X271809Y218786D01*
X271390Y217776D01*
X271314Y217193D01*
X274933D01*
Y220813D01*
D02*
G37*
G36*
X594828Y216193D02*
X591209D01*
Y212573D01*
X591792Y212650D01*
X592801Y213068D01*
X593668Y213734D01*
X594333Y214600D01*
X594751Y215610D01*
X594828Y216193D01*
D02*
G37*
G36*
X590209D02*
X586589D01*
X586666Y215610D01*
X587084Y214600D01*
X587749Y213734D01*
X588616Y213068D01*
X589625Y212650D01*
X590209Y212573D01*
Y216193D01*
D02*
G37*
G36*
X574828D02*
X571209D01*
Y212573D01*
X571792Y212650D01*
X572801Y213068D01*
X573668Y213734D01*
X574333Y214600D01*
X574751Y215610D01*
X574828Y216193D01*
D02*
G37*
G36*
X570209D02*
X566589D01*
X566666Y215610D01*
X567084Y214600D01*
X567749Y213734D01*
X568616Y213068D01*
X569625Y212650D01*
X570209Y212573D01*
Y216193D01*
D02*
G37*
G36*
X555458D02*
X551839D01*
Y212573D01*
X552422Y212650D01*
X553431Y213068D01*
X554298Y213734D01*
X554963Y214600D01*
X555381Y215610D01*
X555458Y216193D01*
D02*
G37*
G36*
X550839D02*
X547219D01*
X547296Y215610D01*
X547714Y214600D01*
X548379Y213734D01*
X549246Y213068D01*
X550255Y212650D01*
X550839Y212573D01*
Y216193D01*
D02*
G37*
G36*
X535458D02*
X531839D01*
Y212573D01*
X532422Y212650D01*
X533431Y213068D01*
X534298Y213734D01*
X534963Y214600D01*
X535381Y215610D01*
X535458Y216193D01*
D02*
G37*
G36*
X530839D02*
X527219D01*
X527296Y215610D01*
X527714Y214600D01*
X528379Y213734D01*
X529246Y213068D01*
X530255Y212650D01*
X530839Y212573D01*
Y216193D01*
D02*
G37*
G36*
X516088D02*
X512468D01*
Y212573D01*
X513052Y212650D01*
X514061Y213068D01*
X514928Y213734D01*
X515593Y214600D01*
X516011Y215610D01*
X516088Y216193D01*
D02*
G37*
G36*
X511468D02*
X507849D01*
X507926Y215610D01*
X508344Y214600D01*
X509009Y213734D01*
X509876Y213068D01*
X510885Y212650D01*
X511468Y212573D01*
Y216193D01*
D02*
G37*
G36*
X496088D02*
X492468D01*
Y212573D01*
X493052Y212650D01*
X494061Y213068D01*
X494928Y213734D01*
X495593Y214600D01*
X496011Y215610D01*
X496088Y216193D01*
D02*
G37*
G36*
X491468D02*
X487849D01*
X487926Y215610D01*
X488344Y214600D01*
X489009Y213734D01*
X489876Y213068D01*
X490885Y212650D01*
X491468Y212573D01*
Y216193D01*
D02*
G37*
G36*
X476718D02*
X473098D01*
Y212573D01*
X473682Y212650D01*
X474691Y213068D01*
X475558Y213734D01*
X476223Y214600D01*
X476641Y215610D01*
X476718Y216193D01*
D02*
G37*
G36*
X472098D02*
X468479D01*
X468556Y215610D01*
X468974Y214600D01*
X469639Y213734D01*
X470506Y213068D01*
X471515Y212650D01*
X472098Y212573D01*
Y216193D01*
D02*
G37*
G36*
X456718D02*
X453098D01*
Y212573D01*
X453682Y212650D01*
X454691Y213068D01*
X455558Y213734D01*
X456223Y214600D01*
X456641Y215610D01*
X456718Y216193D01*
D02*
G37*
G36*
X452098D02*
X448479D01*
X448556Y215610D01*
X448974Y214600D01*
X449639Y213734D01*
X450506Y213068D01*
X451515Y212650D01*
X452098Y212573D01*
Y216193D01*
D02*
G37*
G36*
X417663D02*
X414043D01*
Y212573D01*
X414627Y212650D01*
X415636Y213068D01*
X416503Y213734D01*
X417168Y214600D01*
X417586Y215610D01*
X417663Y216193D01*
D02*
G37*
G36*
X413043D02*
X409424D01*
X409501Y215610D01*
X409919Y214600D01*
X410584Y213734D01*
X411451Y213068D01*
X412460Y212650D01*
X413043Y212573D01*
Y216193D01*
D02*
G37*
G36*
X397663D02*
X394043D01*
Y212573D01*
X394627Y212650D01*
X395636Y213068D01*
X396503Y213734D01*
X397168Y214600D01*
X397586Y215610D01*
X397663Y216193D01*
D02*
G37*
G36*
X393043D02*
X389424D01*
X389501Y215610D01*
X389919Y214600D01*
X390584Y213734D01*
X391451Y213068D01*
X392460Y212650D01*
X393043Y212573D01*
Y216193D01*
D02*
G37*
G36*
X378293D02*
X374673D01*
Y212573D01*
X375257Y212650D01*
X376266Y213068D01*
X377133Y213734D01*
X377798Y214600D01*
X378216Y215610D01*
X378293Y216193D01*
D02*
G37*
G36*
X373673D02*
X370054D01*
X370131Y215610D01*
X370549Y214600D01*
X371214Y213734D01*
X372081Y213068D01*
X373090Y212650D01*
X373673Y212573D01*
Y216193D01*
D02*
G37*
G36*
X358293D02*
X354673D01*
Y212573D01*
X355257Y212650D01*
X356266Y213068D01*
X357133Y213734D01*
X357798Y214600D01*
X358216Y215610D01*
X358293Y216193D01*
D02*
G37*
G36*
X353673D02*
X350054D01*
X350131Y215610D01*
X350549Y214600D01*
X351214Y213734D01*
X352081Y213068D01*
X353090Y212650D01*
X353673Y212573D01*
Y216193D01*
D02*
G37*
G36*
X338923D02*
X335303D01*
Y212573D01*
X335887Y212650D01*
X336896Y213068D01*
X337763Y213734D01*
X338428Y214600D01*
X338846Y215610D01*
X338923Y216193D01*
D02*
G37*
G36*
X334303D02*
X330684D01*
X330760Y215610D01*
X331178Y214600D01*
X331844Y213734D01*
X332711Y213068D01*
X333720Y212650D01*
X334303Y212573D01*
Y216193D01*
D02*
G37*
G36*
X318923D02*
X315303D01*
Y212573D01*
X315886Y212650D01*
X316896Y213068D01*
X317763Y213734D01*
X318428Y214600D01*
X318846Y215610D01*
X318923Y216193D01*
D02*
G37*
G36*
X314303D02*
X310684D01*
X310760Y215610D01*
X311178Y214600D01*
X311844Y213734D01*
X312710Y213068D01*
X313720Y212650D01*
X314303Y212573D01*
Y216193D01*
D02*
G37*
G36*
X299553D02*
X295933D01*
Y212573D01*
X296516Y212650D01*
X297526Y213068D01*
X298393Y213734D01*
X299058Y214600D01*
X299476Y215610D01*
X299553Y216193D01*
D02*
G37*
G36*
X294933D02*
X291314D01*
X291390Y215610D01*
X291809Y214600D01*
X292474Y213734D01*
X293340Y213068D01*
X294350Y212650D01*
X294933Y212573D01*
Y216193D01*
D02*
G37*
G36*
X279553D02*
X275933D01*
Y212573D01*
X276517Y212650D01*
X277526Y213068D01*
X278393Y213734D01*
X279058Y214600D01*
X279476Y215610D01*
X279553Y216193D01*
D02*
G37*
G36*
X274933D02*
X271314D01*
X271390Y215610D01*
X271809Y214600D01*
X272474Y213734D01*
X273341Y213068D01*
X274350Y212650D01*
X274933Y212573D01*
Y216193D01*
D02*
G37*
G36*
X630421Y218518D02*
Y209161D01*
X639778D01*
X639637Y210594D01*
X639073Y212452D01*
X638158Y214165D01*
X636926Y215666D01*
X635425Y216898D01*
X633712Y217813D01*
X631854Y218377D01*
X630421Y218518D01*
D02*
G37*
G36*
X629421D02*
X627989Y218377D01*
X626130Y217813D01*
X624418Y216898D01*
X622917Y215666D01*
X621685Y214165D01*
X620769Y212452D01*
X620206Y210594D01*
X620064Y209161D01*
X629421D01*
Y218518D01*
D02*
G37*
G36*
X236720D02*
Y209161D01*
X246077D01*
X245936Y210594D01*
X245372Y212452D01*
X244457Y214165D01*
X243225Y215666D01*
X241724Y216898D01*
X240011Y217813D01*
X238153Y218377D01*
X236720Y218518D01*
D02*
G37*
G36*
X235720D02*
X234288Y218377D01*
X232430Y217813D01*
X230717Y216898D01*
X229216Y215666D01*
X227984Y214165D01*
X227068Y212452D01*
X226505Y210594D01*
X226364Y209161D01*
X235720D01*
Y218518D01*
D02*
G37*
G36*
X580709Y210878D02*
X579625Y210736D01*
X578616Y210318D01*
X577749Y209652D01*
X577084Y208786D01*
X576666Y207776D01*
X576523Y206693D01*
X576666Y205610D01*
X577084Y204600D01*
X577749Y203733D01*
X578616Y203068D01*
X579625Y202650D01*
X580709Y202508D01*
X581792Y202650D01*
X582801Y203068D01*
X583668Y203733D01*
X584333Y204600D01*
X584751Y205610D01*
X584894Y206693D01*
X584751Y207776D01*
X584333Y208786D01*
X583668Y209652D01*
X582801Y210318D01*
X581792Y210736D01*
X580709Y210878D01*
D02*
G37*
G36*
X541339D02*
X540255Y210736D01*
X539246Y210318D01*
X538379Y209652D01*
X537714Y208786D01*
X537296Y207776D01*
X537153Y206693D01*
X537296Y205610D01*
X537714Y204600D01*
X538379Y203733D01*
X539246Y203068D01*
X540255Y202650D01*
X541339Y202508D01*
X542422Y202650D01*
X543431Y203068D01*
X544298Y203733D01*
X544963Y204600D01*
X545381Y205610D01*
X545524Y206693D01*
X545381Y207776D01*
X544963Y208786D01*
X544298Y209652D01*
X543431Y210318D01*
X542422Y210736D01*
X541339Y210878D01*
D02*
G37*
G36*
X501968D02*
X500885Y210736D01*
X499876Y210318D01*
X499009Y209652D01*
X498344Y208786D01*
X497926Y207776D01*
X497783Y206693D01*
X497926Y205610D01*
X498344Y204600D01*
X499009Y203733D01*
X499876Y203068D01*
X500885Y202650D01*
X501968Y202508D01*
X503052Y202650D01*
X504061Y203068D01*
X504928Y203733D01*
X505593Y204600D01*
X506011Y205610D01*
X506154Y206693D01*
X506011Y207776D01*
X505593Y208786D01*
X504928Y209652D01*
X504061Y210318D01*
X503052Y210736D01*
X501968Y210878D01*
D02*
G37*
G36*
X462598D02*
X461515Y210736D01*
X460506Y210318D01*
X459639Y209652D01*
X458974Y208786D01*
X458556Y207776D01*
X458413Y206693D01*
X458556Y205610D01*
X458974Y204600D01*
X459639Y203733D01*
X460506Y203068D01*
X461515Y202650D01*
X462598Y202508D01*
X463682Y202650D01*
X464691Y203068D01*
X465558Y203733D01*
X466223Y204600D01*
X466641Y205610D01*
X466784Y206693D01*
X466641Y207776D01*
X466223Y208786D01*
X465558Y209652D01*
X464691Y210318D01*
X463682Y210736D01*
X462598Y210878D01*
D02*
G37*
G36*
X403543D02*
X402460Y210736D01*
X401451Y210318D01*
X400584Y209652D01*
X399919Y208786D01*
X399501Y207776D01*
X399358Y206693D01*
X399501Y205610D01*
X399919Y204600D01*
X400584Y203733D01*
X401451Y203068D01*
X402460Y202650D01*
X403543Y202508D01*
X404627Y202650D01*
X405636Y203068D01*
X406503Y203733D01*
X407168Y204600D01*
X407586Y205610D01*
X407729Y206693D01*
X407586Y207776D01*
X407168Y208786D01*
X406503Y209652D01*
X405636Y210318D01*
X404627Y210736D01*
X403543Y210878D01*
D02*
G37*
G36*
X364173D02*
X363090Y210736D01*
X362081Y210318D01*
X361214Y209652D01*
X360549Y208786D01*
X360131Y207776D01*
X359988Y206693D01*
X360131Y205610D01*
X360549Y204600D01*
X361214Y203733D01*
X362081Y203068D01*
X363090Y202650D01*
X364173Y202508D01*
X365257Y202650D01*
X366266Y203068D01*
X367133Y203733D01*
X367798Y204600D01*
X368216Y205610D01*
X368359Y206693D01*
X368216Y207776D01*
X367798Y208786D01*
X367133Y209652D01*
X366266Y210318D01*
X365257Y210736D01*
X364173Y210878D01*
D02*
G37*
G36*
X324803D02*
X323720Y210736D01*
X322710Y210318D01*
X321844Y209652D01*
X321179Y208786D01*
X320760Y207776D01*
X320618Y206693D01*
X320760Y205610D01*
X321179Y204600D01*
X321844Y203733D01*
X322710Y203068D01*
X323720Y202650D01*
X324803Y202508D01*
X325887Y202650D01*
X326896Y203068D01*
X327763Y203733D01*
X328428Y204600D01*
X328846Y205610D01*
X328989Y206693D01*
X328846Y207776D01*
X328428Y208786D01*
X327763Y209652D01*
X326896Y210318D01*
X325887Y210736D01*
X324803Y210878D01*
D02*
G37*
G36*
X285433D02*
X284350Y210736D01*
X283341Y210318D01*
X282474Y209652D01*
X281808Y208786D01*
X281390Y207776D01*
X281248Y206693D01*
X281390Y205610D01*
X281808Y204600D01*
X282474Y203733D01*
X283341Y203068D01*
X284350Y202650D01*
X285433Y202508D01*
X286516Y202650D01*
X287526Y203068D01*
X288393Y203733D01*
X289058Y204600D01*
X289476Y205610D01*
X289619Y206693D01*
X289476Y207776D01*
X289058Y208786D01*
X288393Y209652D01*
X287526Y210318D01*
X286516Y210736D01*
X285433Y210878D01*
D02*
G37*
G36*
X246077Y208161D02*
X236720D01*
Y198805D01*
X238153Y198946D01*
X240011Y199510D01*
X241724Y200425D01*
X243225Y201657D01*
X244457Y203158D01*
X245372Y204871D01*
X245936Y206729D01*
X246077Y208161D01*
D02*
G37*
G36*
X235720D02*
X226364D01*
X226505Y206729D01*
X227068Y204871D01*
X227984Y203158D01*
X229216Y201657D01*
X230717Y200425D01*
X232430Y199510D01*
X234288Y198946D01*
X235720Y198805D01*
Y208161D01*
D02*
G37*
G36*
X639778D02*
X630421D01*
Y198805D01*
X631854Y198946D01*
X633712Y199510D01*
X635425Y200425D01*
X636926Y201657D01*
X638158Y203158D01*
X639073Y204871D01*
X639637Y206729D01*
X639778Y208161D01*
D02*
G37*
G36*
X629421D02*
X620064D01*
X620206Y206729D01*
X620769Y204871D01*
X621685Y203158D01*
X622917Y201657D01*
X624418Y200425D01*
X626130Y199510D01*
X627989Y198946D01*
X629421Y198805D01*
Y208161D01*
D02*
G37*
G36*
X591209Y200813D02*
Y197193D01*
X594828D01*
X594751Y197776D01*
X594333Y198786D01*
X593668Y199653D01*
X592801Y200318D01*
X591792Y200736D01*
X591209Y200813D01*
D02*
G37*
G36*
X590209D02*
X589625Y200736D01*
X588616Y200318D01*
X587749Y199653D01*
X587084Y198786D01*
X586666Y197776D01*
X586589Y197193D01*
X590209D01*
Y200813D01*
D02*
G37*
G36*
X571209D02*
Y197193D01*
X574828D01*
X574751Y197776D01*
X574333Y198786D01*
X573668Y199653D01*
X572801Y200318D01*
X571792Y200736D01*
X571209Y200813D01*
D02*
G37*
G36*
X570209D02*
X569625Y200736D01*
X568616Y200318D01*
X567749Y199653D01*
X567084Y198786D01*
X566666Y197776D01*
X566589Y197193D01*
X570209D01*
Y200813D01*
D02*
G37*
G36*
X551839D02*
Y197193D01*
X555458D01*
X555381Y197776D01*
X554963Y198786D01*
X554298Y199653D01*
X553431Y200318D01*
X552422Y200736D01*
X551839Y200813D01*
D02*
G37*
G36*
X550839D02*
X550255Y200736D01*
X549246Y200318D01*
X548379Y199653D01*
X547714Y198786D01*
X547296Y197776D01*
X547219Y197193D01*
X550839D01*
Y200813D01*
D02*
G37*
G36*
X531839D02*
Y197193D01*
X535458D01*
X535381Y197776D01*
X534963Y198786D01*
X534298Y199653D01*
X533431Y200318D01*
X532422Y200736D01*
X531839Y200813D01*
D02*
G37*
G36*
X530839D02*
X530255Y200736D01*
X529246Y200318D01*
X528379Y199653D01*
X527714Y198786D01*
X527296Y197776D01*
X527219Y197193D01*
X530839D01*
Y200813D01*
D02*
G37*
G36*
X512468D02*
Y197193D01*
X516088D01*
X516011Y197776D01*
X515593Y198786D01*
X514928Y199653D01*
X514061Y200318D01*
X513052Y200736D01*
X512468Y200813D01*
D02*
G37*
G36*
X511468D02*
X510885Y200736D01*
X509876Y200318D01*
X509009Y199653D01*
X508344Y198786D01*
X507926Y197776D01*
X507849Y197193D01*
X511468D01*
Y200813D01*
D02*
G37*
G36*
X492468D02*
Y197193D01*
X496088D01*
X496011Y197776D01*
X495593Y198786D01*
X494928Y199653D01*
X494061Y200318D01*
X493052Y200736D01*
X492468Y200813D01*
D02*
G37*
G36*
X491468D02*
X490885Y200736D01*
X489876Y200318D01*
X489009Y199653D01*
X488344Y198786D01*
X487926Y197776D01*
X487849Y197193D01*
X491468D01*
Y200813D01*
D02*
G37*
G36*
X473098D02*
Y197193D01*
X476718D01*
X476641Y197776D01*
X476223Y198786D01*
X475558Y199653D01*
X474691Y200318D01*
X473682Y200736D01*
X473098Y200813D01*
D02*
G37*
G36*
X472098D02*
X471515Y200736D01*
X470506Y200318D01*
X469639Y199653D01*
X468974Y198786D01*
X468556Y197776D01*
X468479Y197193D01*
X472098D01*
Y200813D01*
D02*
G37*
G36*
X453098D02*
Y197193D01*
X456718D01*
X456641Y197776D01*
X456223Y198786D01*
X455558Y199653D01*
X454691Y200318D01*
X453682Y200736D01*
X453098Y200813D01*
D02*
G37*
G36*
X452098D02*
X451515Y200736D01*
X450506Y200318D01*
X449639Y199653D01*
X448974Y198786D01*
X448556Y197776D01*
X448479Y197193D01*
X452098D01*
Y200813D01*
D02*
G37*
G36*
X414043D02*
Y197193D01*
X417663D01*
X417586Y197776D01*
X417168Y198786D01*
X416503Y199653D01*
X415636Y200318D01*
X414627Y200736D01*
X414043Y200813D01*
D02*
G37*
G36*
X413043D02*
X412460Y200736D01*
X411451Y200318D01*
X410584Y199653D01*
X409919Y198786D01*
X409501Y197776D01*
X409424Y197193D01*
X413043D01*
Y200813D01*
D02*
G37*
G36*
X394043D02*
Y197193D01*
X397663D01*
X397586Y197776D01*
X397168Y198786D01*
X396503Y199653D01*
X395636Y200318D01*
X394627Y200736D01*
X394043Y200813D01*
D02*
G37*
G36*
X393043D02*
X392460Y200736D01*
X391451Y200318D01*
X390584Y199653D01*
X389919Y198786D01*
X389501Y197776D01*
X389424Y197193D01*
X393043D01*
Y200813D01*
D02*
G37*
G36*
X374673D02*
Y197193D01*
X378293D01*
X378216Y197776D01*
X377798Y198786D01*
X377133Y199653D01*
X376266Y200318D01*
X375257Y200736D01*
X374673Y200813D01*
D02*
G37*
G36*
X373673D02*
X373090Y200736D01*
X372081Y200318D01*
X371214Y199653D01*
X370549Y198786D01*
X370131Y197776D01*
X370054Y197193D01*
X373673D01*
Y200813D01*
D02*
G37*
G36*
X354673D02*
Y197193D01*
X358293D01*
X358216Y197776D01*
X357798Y198786D01*
X357133Y199653D01*
X356266Y200318D01*
X355257Y200736D01*
X354673Y200813D01*
D02*
G37*
G36*
X353673D02*
X353090Y200736D01*
X352081Y200318D01*
X351214Y199653D01*
X350549Y198786D01*
X350131Y197776D01*
X350054Y197193D01*
X353673D01*
Y200813D01*
D02*
G37*
G36*
X335303D02*
Y197193D01*
X338923D01*
X338846Y197776D01*
X338428Y198786D01*
X337763Y199653D01*
X336896Y200318D01*
X335887Y200736D01*
X335303Y200813D01*
D02*
G37*
G36*
X334303D02*
X333720Y200736D01*
X332711Y200318D01*
X331844Y199653D01*
X331178Y198786D01*
X330760Y197776D01*
X330684Y197193D01*
X334303D01*
Y200813D01*
D02*
G37*
G36*
X315303D02*
Y197193D01*
X318923D01*
X318846Y197776D01*
X318428Y198786D01*
X317763Y199653D01*
X316896Y200318D01*
X315886Y200736D01*
X315303Y200813D01*
D02*
G37*
G36*
X314303D02*
X313720Y200736D01*
X312710Y200318D01*
X311844Y199653D01*
X311178Y198786D01*
X310760Y197776D01*
X310684Y197193D01*
X314303D01*
Y200813D01*
D02*
G37*
G36*
X295933D02*
Y197193D01*
X299553D01*
X299476Y197776D01*
X299058Y198786D01*
X298393Y199653D01*
X297526Y200318D01*
X296516Y200736D01*
X295933Y200813D01*
D02*
G37*
G36*
X294933D02*
X294350Y200736D01*
X293340Y200318D01*
X292474Y199653D01*
X291809Y198786D01*
X291390Y197776D01*
X291314Y197193D01*
X294933D01*
Y200813D01*
D02*
G37*
G36*
X275933D02*
Y197193D01*
X279553D01*
X279476Y197776D01*
X279058Y198786D01*
X278393Y199653D01*
X277526Y200318D01*
X276517Y200736D01*
X275933Y200813D01*
D02*
G37*
G36*
X274933D02*
X274350Y200736D01*
X273341Y200318D01*
X272474Y199653D01*
X271809Y198786D01*
X271390Y197776D01*
X271314Y197193D01*
X274933D01*
Y200813D01*
D02*
G37*
G36*
X594828Y196193D02*
X591209D01*
Y192573D01*
X591792Y192650D01*
X592801Y193068D01*
X593668Y193734D01*
X594333Y194600D01*
X594751Y195610D01*
X594828Y196193D01*
D02*
G37*
G36*
X590209D02*
X586589D01*
X586666Y195610D01*
X587084Y194600D01*
X587749Y193734D01*
X588616Y193068D01*
X589625Y192650D01*
X590209Y192573D01*
Y196193D01*
D02*
G37*
G36*
X574828D02*
X571209D01*
Y192573D01*
X571792Y192650D01*
X572801Y193068D01*
X573668Y193734D01*
X574333Y194600D01*
X574751Y195610D01*
X574828Y196193D01*
D02*
G37*
G36*
X570209D02*
X566589D01*
X566666Y195610D01*
X567084Y194600D01*
X567749Y193734D01*
X568616Y193068D01*
X569625Y192650D01*
X570209Y192573D01*
Y196193D01*
D02*
G37*
G36*
X555458D02*
X551839D01*
Y192573D01*
X552422Y192650D01*
X553431Y193068D01*
X554298Y193734D01*
X554963Y194600D01*
X555381Y195610D01*
X555458Y196193D01*
D02*
G37*
G36*
X550839D02*
X547219D01*
X547296Y195610D01*
X547714Y194600D01*
X548379Y193734D01*
X549246Y193068D01*
X550255Y192650D01*
X550839Y192573D01*
Y196193D01*
D02*
G37*
G36*
X535458D02*
X531839D01*
Y192573D01*
X532422Y192650D01*
X533431Y193068D01*
X534298Y193734D01*
X534963Y194600D01*
X535381Y195610D01*
X535458Y196193D01*
D02*
G37*
G36*
X530839D02*
X527219D01*
X527296Y195610D01*
X527714Y194600D01*
X528379Y193734D01*
X529246Y193068D01*
X530255Y192650D01*
X530839Y192573D01*
Y196193D01*
D02*
G37*
G36*
X516088D02*
X512468D01*
Y192573D01*
X513052Y192650D01*
X514061Y193068D01*
X514928Y193734D01*
X515593Y194600D01*
X516011Y195610D01*
X516088Y196193D01*
D02*
G37*
G36*
X511468D02*
X507849D01*
X507926Y195610D01*
X508344Y194600D01*
X509009Y193734D01*
X509876Y193068D01*
X510885Y192650D01*
X511468Y192573D01*
Y196193D01*
D02*
G37*
G36*
X496088D02*
X492468D01*
Y192573D01*
X493052Y192650D01*
X494061Y193068D01*
X494928Y193734D01*
X495593Y194600D01*
X496011Y195610D01*
X496088Y196193D01*
D02*
G37*
G36*
X491468D02*
X487849D01*
X487926Y195610D01*
X488344Y194600D01*
X489009Y193734D01*
X489876Y193068D01*
X490885Y192650D01*
X491468Y192573D01*
Y196193D01*
D02*
G37*
G36*
X476718D02*
X473098D01*
Y192573D01*
X473682Y192650D01*
X474691Y193068D01*
X475558Y193734D01*
X476223Y194600D01*
X476641Y195610D01*
X476718Y196193D01*
D02*
G37*
G36*
X472098D02*
X468479D01*
X468556Y195610D01*
X468974Y194600D01*
X469639Y193734D01*
X470506Y193068D01*
X471515Y192650D01*
X472098Y192573D01*
Y196193D01*
D02*
G37*
G36*
X456718D02*
X453098D01*
Y192573D01*
X453682Y192650D01*
X454691Y193068D01*
X455558Y193734D01*
X456223Y194600D01*
X456641Y195610D01*
X456718Y196193D01*
D02*
G37*
G36*
X452098D02*
X448479D01*
X448556Y195610D01*
X448974Y194600D01*
X449639Y193734D01*
X450506Y193068D01*
X451515Y192650D01*
X452098Y192573D01*
Y196193D01*
D02*
G37*
G36*
X417663D02*
X414043D01*
Y192573D01*
X414627Y192650D01*
X415636Y193068D01*
X416503Y193734D01*
X417168Y194600D01*
X417586Y195610D01*
X417663Y196193D01*
D02*
G37*
G36*
X413043D02*
X409424D01*
X409501Y195610D01*
X409919Y194600D01*
X410584Y193734D01*
X411451Y193068D01*
X412460Y192650D01*
X413043Y192573D01*
Y196193D01*
D02*
G37*
G36*
X397663D02*
X394043D01*
Y192573D01*
X394627Y192650D01*
X395636Y193068D01*
X396503Y193734D01*
X397168Y194600D01*
X397586Y195610D01*
X397663Y196193D01*
D02*
G37*
G36*
X393043D02*
X389424D01*
X389501Y195610D01*
X389919Y194600D01*
X390584Y193734D01*
X391451Y193068D01*
X392460Y192650D01*
X393043Y192573D01*
Y196193D01*
D02*
G37*
G36*
X378293D02*
X374673D01*
Y192573D01*
X375257Y192650D01*
X376266Y193068D01*
X377133Y193734D01*
X377798Y194600D01*
X378216Y195610D01*
X378293Y196193D01*
D02*
G37*
G36*
X373673D02*
X370054D01*
X370131Y195610D01*
X370549Y194600D01*
X371214Y193734D01*
X372081Y193068D01*
X373090Y192650D01*
X373673Y192573D01*
Y196193D01*
D02*
G37*
G36*
X358293D02*
X354673D01*
Y192573D01*
X355257Y192650D01*
X356266Y193068D01*
X357133Y193734D01*
X357798Y194600D01*
X358216Y195610D01*
X358293Y196193D01*
D02*
G37*
G36*
X353673D02*
X350054D01*
X350131Y195610D01*
X350549Y194600D01*
X351214Y193734D01*
X352081Y193068D01*
X353090Y192650D01*
X353673Y192573D01*
Y196193D01*
D02*
G37*
G36*
X338923D02*
X335303D01*
Y192573D01*
X335887Y192650D01*
X336896Y193068D01*
X337763Y193734D01*
X338428Y194600D01*
X338846Y195610D01*
X338923Y196193D01*
D02*
G37*
G36*
X334303D02*
X330684D01*
X330760Y195610D01*
X331178Y194600D01*
X331844Y193734D01*
X332711Y193068D01*
X333720Y192650D01*
X334303Y192573D01*
Y196193D01*
D02*
G37*
G36*
X318923D02*
X315303D01*
Y192573D01*
X315886Y192650D01*
X316896Y193068D01*
X317763Y193734D01*
X318428Y194600D01*
X318846Y195610D01*
X318923Y196193D01*
D02*
G37*
G36*
X314303D02*
X310684D01*
X310760Y195610D01*
X311178Y194600D01*
X311844Y193734D01*
X312710Y193068D01*
X313720Y192650D01*
X314303Y192573D01*
Y196193D01*
D02*
G37*
G36*
X299553D02*
X295933D01*
Y192573D01*
X296516Y192650D01*
X297526Y193068D01*
X298393Y193734D01*
X299058Y194600D01*
X299476Y195610D01*
X299553Y196193D01*
D02*
G37*
G36*
X294933D02*
X291314D01*
X291390Y195610D01*
X291809Y194600D01*
X292474Y193734D01*
X293340Y193068D01*
X294350Y192650D01*
X294933Y192573D01*
Y196193D01*
D02*
G37*
G36*
X279553D02*
X275933D01*
Y192573D01*
X276517Y192650D01*
X277526Y193068D01*
X278393Y193734D01*
X279058Y194600D01*
X279476Y195610D01*
X279553Y196193D01*
D02*
G37*
G36*
X274933D02*
X271314D01*
X271390Y195610D01*
X271809Y194600D01*
X272474Y193734D01*
X273341Y193068D01*
X274350Y192650D01*
X274933Y192573D01*
Y196193D01*
D02*
G37*
%LPD*%
D16*
X581181Y393543D02*
D03*
X571181Y403543D02*
D03*
Y383543D02*
D03*
X591181D02*
D03*
Y403543D02*
D03*
X580709Y206693D02*
D03*
X570709Y216693D02*
D03*
Y196693D02*
D03*
X590709D02*
D03*
Y216693D02*
D03*
X541339Y206693D02*
D03*
X531339Y216693D02*
D03*
Y196693D02*
D03*
X551339D02*
D03*
Y216693D02*
D03*
X501968Y206693D02*
D03*
X491968Y216693D02*
D03*
Y196693D02*
D03*
X511968D02*
D03*
Y216693D02*
D03*
X462598Y206693D02*
D03*
X452598Y216693D02*
D03*
Y196693D02*
D03*
X472598D02*
D03*
Y216693D02*
D03*
X403543Y206693D02*
D03*
X393543Y216693D02*
D03*
Y196693D02*
D03*
X413543D02*
D03*
Y216693D02*
D03*
X364173Y206693D02*
D03*
X354173Y216693D02*
D03*
Y196693D02*
D03*
X374173D02*
D03*
Y216693D02*
D03*
X324803Y206693D02*
D03*
X314803Y216693D02*
D03*
Y196693D02*
D03*
X334803D02*
D03*
Y216693D02*
D03*
X285433Y206693D02*
D03*
X275433Y216693D02*
D03*
Y196693D02*
D03*
X295433D02*
D03*
Y216693D02*
D03*
X403543Y393701D02*
D03*
X393543Y403701D02*
D03*
Y383701D02*
D03*
X413543D02*
D03*
Y403701D02*
D03*
X364173Y393701D02*
D03*
X354173Y403701D02*
D03*
Y383701D02*
D03*
X374173D02*
D03*
Y403701D02*
D03*
X374331Y255906D02*
D03*
Y235906D02*
D03*
X354331D02*
D03*
Y255906D02*
D03*
X364331Y245906D02*
D03*
X334961Y255906D02*
D03*
Y235906D02*
D03*
X314961D02*
D03*
Y255906D02*
D03*
X324961Y245906D02*
D03*
X295591Y255906D02*
D03*
Y235906D02*
D03*
X275591D02*
D03*
Y255906D02*
D03*
X285591Y245906D02*
D03*
X256220Y255906D02*
D03*
Y235906D02*
D03*
X236220D02*
D03*
Y255906D02*
D03*
X246220Y245906D02*
D03*
X377795Y354488D02*
D03*
Y334488D02*
D03*
X357795D02*
D03*
Y354488D02*
D03*
X367795Y344488D02*
D03*
X338425Y354488D02*
D03*
Y334488D02*
D03*
X318425D02*
D03*
Y354488D02*
D03*
X328425Y344488D02*
D03*
X299055Y354488D02*
D03*
Y334488D02*
D03*
X279055D02*
D03*
Y354488D02*
D03*
X289055Y344488D02*
D03*
X260000Y354488D02*
D03*
Y334488D02*
D03*
X240000D02*
D03*
Y354488D02*
D03*
X250000Y344488D02*
D03*
X334803Y403701D02*
D03*
Y383701D02*
D03*
X314803D02*
D03*
Y403701D02*
D03*
X324803Y393701D02*
D03*
X295433Y403701D02*
D03*
Y383701D02*
D03*
X275433D02*
D03*
Y403701D02*
D03*
X285433Y393701D02*
D03*
X629921Y255906D02*
D03*
Y235906D02*
D03*
X609921D02*
D03*
Y255906D02*
D03*
X619921Y245906D02*
D03*
X590551Y255906D02*
D03*
Y235906D02*
D03*
X570551D02*
D03*
Y255906D02*
D03*
X580551Y245906D02*
D03*
X551181Y255906D02*
D03*
Y235906D02*
D03*
X531181D02*
D03*
Y255906D02*
D03*
X541181Y245906D02*
D03*
X511811Y255906D02*
D03*
Y235906D02*
D03*
X491811D02*
D03*
Y255906D02*
D03*
X501811Y245906D02*
D03*
X551811Y403228D02*
D03*
Y383228D02*
D03*
X531811D02*
D03*
Y403228D02*
D03*
X541811Y393228D02*
D03*
X512126Y403228D02*
D03*
Y383228D02*
D03*
X492126D02*
D03*
Y403228D02*
D03*
X502126Y393228D02*
D03*
X472756Y403543D02*
D03*
Y383543D02*
D03*
X452756D02*
D03*
Y403543D02*
D03*
X462756Y393543D02*
D03*
X629921Y354331D02*
D03*
Y334331D02*
D03*
X609921D02*
D03*
Y354331D02*
D03*
X619921Y344331D02*
D03*
X590551Y354331D02*
D03*
Y334331D02*
D03*
X570551D02*
D03*
Y354331D02*
D03*
X580551Y344331D02*
D03*
X551181Y354331D02*
D03*
Y334331D02*
D03*
X531181D02*
D03*
Y354331D02*
D03*
X541181Y344331D02*
D03*
X511811Y354331D02*
D03*
Y334331D02*
D03*
X491811D02*
D03*
Y354331D02*
D03*
X501811Y344331D02*
D03*
X620236Y305276D02*
D03*
Y285276D02*
D03*
X600236D02*
D03*
Y305276D02*
D03*
X610236Y295276D02*
D03*
X443071Y256063D02*
D03*
Y236063D02*
D03*
X423071D02*
D03*
Y256063D02*
D03*
X433071Y246063D02*
D03*
X423386Y354488D02*
D03*
Y334488D02*
D03*
X403386D02*
D03*
Y354488D02*
D03*
X413386Y344488D02*
D03*
X462756Y354488D02*
D03*
Y334488D02*
D03*
X442756D02*
D03*
Y354488D02*
D03*
X452756Y344488D02*
D03*
D17*
X236220Y208661D02*
D03*
Y393701D02*
D03*
X629921Y208661D02*
D03*
Y393701D02*
D03*
D18*
X499947Y300876D02*
D03*
X489080D02*
D03*
X478213D02*
D03*
X467346D02*
D03*
X456479D02*
D03*
X445612D02*
D03*
X434745D02*
D03*
X423878D02*
D03*
X413011D02*
D03*
X402144D02*
D03*
X391277D02*
D03*
X380410D02*
D03*
X505364Y289676D02*
D03*
X494497D02*
D03*
X483630D02*
D03*
X472763D02*
D03*
X461896D02*
D03*
X451029D02*
D03*
X440162D02*
D03*
X429295D02*
D03*
X418428D02*
D03*
X407561D02*
D03*
X396694D02*
D03*
X385827D02*
D03*
X374960D02*
D03*
X516231D02*
D03*
X527098D02*
D03*
X537965D02*
D03*
X510814Y300876D02*
D03*
X521681D02*
D03*
X532548D02*
D03*
X342359Y289676D02*
D03*
X353226D02*
D03*
X364093D02*
D03*
X347809Y300876D02*
D03*
X358676D02*
D03*
X369543D02*
D03*
D19*
X314961Y295276D02*
D03*
X565360D02*
D03*
M02*
