G04*
G04 #@! TF.GenerationSoftware,Altium Limited,Altium Designer,19.1.5 (86)*
G04*
G04 Layer_Physical_Order=1*
G04 Layer_Color=255*
%FSLAX25Y25*%
%MOIN*%
G70*
G01*
G75*
%ADD10C,0.00787*%
%ADD11C,0.01000*%
%ADD16C,0.17717*%
%ADD17C,0.06299*%
%ADD18C,0.07087*%
%ADD19C,0.21654*%
D10*
X-0Y-0D02*
X433071D01*
X-0Y-236220D02*
Y-0D01*
Y-236220D02*
X433071D01*
Y-55118D02*
Y-0D01*
Y-236220D02*
Y-173228D01*
Y-55118D01*
D11*
X261010Y-115341D02*
X263767D01*
X224410Y-78740D02*
X261010Y-115341D01*
X144684Y-76772D02*
X159334Y-91421D01*
X111890Y-76772D02*
X144684D01*
X159334Y-91421D02*
X228980D01*
X256228Y-118669D01*
X230315Y-70866D02*
X269685Y-110236D01*
X183071Y-70866D02*
X230315D01*
X165354Y-53150D02*
X183071Y-70866D01*
X153228Y-78740D02*
X224410D01*
X151260Y-76772D02*
X153228Y-78740D01*
X68898Y-27559D02*
X72835Y-31496D01*
X82677D01*
X104331Y-53150D01*
X122047D01*
X129921Y-61024D01*
X145669D01*
X159417Y-74772D01*
X112712Y-32003D02*
X124523D01*
X108268Y-27559D02*
X112712Y-32003D01*
X124523D02*
X127953Y-35433D01*
X159417Y-74772D02*
X227206D01*
X227238Y-74803D01*
X228346D01*
X265780Y-112236D01*
X273654D01*
X277962Y-116544D01*
Y-131584D02*
Y-116544D01*
X126999Y-98457D02*
X225149D01*
X105314Y-76772D02*
X126999Y-98457D01*
X225149D02*
X244987Y-118295D01*
X57087Y-157480D02*
X84362D01*
X110258Y-131584D01*
X125824D01*
X39213Y-175354D02*
X57087Y-157480D01*
X29685Y-175354D02*
X39213D01*
X96457Y-159449D02*
X105092D01*
X131791Y-132749D01*
X135526D01*
X136691Y-131584D01*
X80551Y-175354D02*
X96457Y-159449D01*
X69055Y-175354D02*
X80551D01*
X129921Y-167323D02*
Y-149221D01*
X147558Y-131584D01*
X121890Y-175354D02*
X129921Y-167323D01*
X108425Y-175354D02*
X121890D01*
X165354Y-147638D02*
Y-138514D01*
X158425Y-131584D02*
X165354Y-138514D01*
X147795Y-165197D02*
X165354Y-147638D01*
X147795Y-175354D02*
Y-165197D01*
X169292Y-131584D02*
X177125Y-139417D01*
Y-159449D02*
Y-139417D01*
X152738Y-183836D02*
X177125Y-159449D01*
X152738Y-183876D02*
Y-183836D01*
X141790Y-194824D02*
X152738Y-183876D01*
X101435Y-194824D02*
X141790D01*
X93618Y-202641D02*
X101435Y-194824D01*
X93618Y-207563D02*
Y-202641D01*
X86614Y-214567D02*
X93618Y-207563D01*
X68898Y-214567D02*
X86614D01*
X180159Y-144726D02*
X190945Y-155512D01*
X180159Y-144726D02*
Y-131584D01*
X190945Y-167323D02*
Y-155512D01*
X167323Y-190945D02*
X190945Y-167323D01*
X161417Y-190945D02*
X167323D01*
X137795Y-214567D02*
X161417Y-190945D01*
X108268Y-214567D02*
X137795D01*
X200787Y-169291D02*
Y-141346D01*
X191026Y-131584D02*
X200787Y-141346D01*
X183071Y-187008D02*
X200787Y-169291D01*
X183071Y-188976D02*
Y-187008D01*
X169291Y-202756D02*
X183071Y-188976D01*
X169291Y-212598D02*
Y-202756D01*
X167323Y-214567D02*
X169291Y-212598D01*
X147638Y-214567D02*
X167323D01*
X210630Y-210630D02*
Y-140321D01*
X201893Y-131584D02*
X210630Y-140321D01*
X206693Y-214567D02*
X210630Y-210630D01*
X187008Y-214567D02*
X206693D01*
X223627Y-131584D02*
X280083Y-188040D01*
Y-209216D02*
Y-188040D01*
Y-209216D02*
X285433Y-214567D01*
X234494Y-131584D02*
Y-116383D01*
X224409Y-106299D02*
X234494Y-116383D01*
X127993Y-106299D02*
X224409D01*
X103816Y-82122D02*
X127993Y-106299D01*
X80594Y-82122D02*
X103816D01*
X80039Y-82677D02*
X80594Y-82122D01*
X66929Y-82677D02*
X80039D01*
X61024Y-76772D02*
X66929Y-82677D01*
X33465Y-76772D02*
X61024D01*
X245361Y-130756D02*
X248187Y-127930D01*
X245361Y-131584D02*
Y-130756D01*
X244987Y-124730D02*
X248187Y-127930D01*
X244987Y-124730D02*
Y-118295D01*
X72520Y-76772D02*
X105314D01*
X256228Y-131584D02*
Y-118669D01*
X263767Y-115341D02*
X267095Y-118669D01*
Y-131584D02*
Y-118669D01*
X278368Y-111631D02*
X281791D01*
X288829Y-118669D01*
Y-131584D02*
Y-118669D01*
X137795Y-53150D02*
X165354D01*
X269685Y-110236D02*
X276973D01*
X278368Y-111631D01*
X127953Y-43307D02*
X137795Y-53150D01*
X127953Y-43307D02*
Y-35433D01*
X147638Y-27559D02*
X157480D01*
X145669D02*
X147638D01*
X299696Y-131584D02*
Y-112688D01*
X251969Y-64961D02*
X299696Y-112688D01*
X187008Y-64961D02*
X251969D01*
X183071Y-61024D02*
X187008Y-64961D01*
X310563Y-131584D02*
Y-88122D01*
X250000Y-27559D02*
X310563Y-88122D01*
X183071Y-61024D02*
Y-53150D01*
X157480Y-27559D02*
X183071Y-53150D01*
X187008Y-27559D02*
X250000D01*
X4937Y-117876D02*
Y-111878D01*
X8936Y-117876D01*
Y-111878D01*
X10935D02*
X12934D01*
X11935D01*
Y-117876D01*
X10935D01*
X12934D01*
X21932Y-116876D02*
X22931Y-117876D01*
X24930D01*
X25930Y-116876D01*
Y-112878D01*
X24930Y-111878D01*
X22931D01*
X21932Y-112878D01*
Y-113877D01*
X22931Y-114877D01*
X25930D01*
X31928Y-117876D02*
X27930D01*
X31928Y-113877D01*
Y-112878D01*
X30929Y-111878D01*
X28929D01*
X27930Y-112878D01*
X37926Y-111878D02*
X35927Y-112878D01*
X33928Y-114877D01*
Y-116876D01*
X34927Y-117876D01*
X36927D01*
X37926Y-116876D01*
Y-115877D01*
X36927Y-114877D01*
X33928D01*
X42925Y-117876D02*
Y-111878D01*
X39926Y-114877D01*
X43924D01*
X4937Y-127474D02*
Y-123475D01*
X6936Y-121476D01*
X8936Y-123475D01*
Y-127474D01*
Y-124475D01*
X4937D01*
X10935Y-127474D02*
X12934D01*
X11935D01*
Y-121476D01*
X10935D01*
X15933Y-127474D02*
X17933D01*
X16933D01*
Y-123475D01*
X15933D01*
X24930Y-121476D02*
X20932D01*
Y-124475D01*
X22931D01*
X20932D01*
Y-127474D01*
X29929D02*
X27930D01*
X26930Y-126474D01*
Y-124475D01*
X27930Y-123475D01*
X29929D01*
X30929Y-124475D01*
Y-125474D01*
X26930D01*
X32928Y-127474D02*
X34927D01*
X33928D01*
Y-121476D01*
X32928D01*
X40925Y-127474D02*
X38926D01*
X37926Y-126474D01*
Y-124475D01*
X38926Y-123475D01*
X40925D01*
X41925Y-124475D01*
Y-125474D01*
X37926D01*
X43924Y-127474D02*
Y-121476D01*
X46923D01*
X47923Y-122475D01*
Y-124475D01*
X46923Y-125474D01*
X43924D01*
X50922Y-123475D02*
X52921D01*
X53921Y-124475D01*
Y-127474D01*
X50922D01*
X49922Y-126474D01*
X50922Y-125474D01*
X53921D01*
X55920Y-123475D02*
Y-127474D01*
Y-125474D01*
X56920Y-124475D01*
X57920Y-123475D01*
X58920D01*
X62918D02*
X64918D01*
X65917Y-124475D01*
Y-127474D01*
X62918D01*
X61919Y-126474D01*
X62918Y-125474D01*
X65917D01*
X67917Y-127474D02*
Y-123475D01*
X70916D01*
X71915Y-124475D01*
Y-127474D01*
X73915Y-129473D02*
X74914D01*
X75914Y-128473D01*
Y-123475D01*
X4937Y-139071D02*
X6936D01*
X5937D01*
Y-133073D01*
X4937Y-134072D01*
X9935Y-139071D02*
X11935D01*
X10935D01*
Y-133073D01*
X9935Y-134072D01*
X14934D02*
X15933Y-133073D01*
X17933D01*
X18933Y-134072D01*
Y-138071D01*
X17933Y-139071D01*
X15933D01*
X14934Y-138071D01*
Y-134072D01*
X20932D02*
X21932Y-133073D01*
X23931D01*
X24930Y-134072D01*
Y-135072D01*
X23931Y-136072D01*
X24930Y-137071D01*
Y-138071D01*
X23931Y-139071D01*
X21932D01*
X20932Y-138071D01*
Y-137071D01*
X21932Y-136072D01*
X20932Y-135072D01*
Y-134072D01*
X21932Y-136072D02*
X23931D01*
X30929Y-139071D02*
X26930D01*
X30929Y-135072D01*
Y-134072D01*
X29929Y-133073D01*
X27930D01*
X26930Y-134072D01*
X32928D02*
X33928Y-133073D01*
X35927D01*
X36927Y-134072D01*
Y-138071D01*
X35927Y-139071D01*
X33928D01*
X32928Y-138071D01*
Y-134072D01*
X38926Y-139071D02*
X40925D01*
X39926D01*
Y-133073D01*
X38926Y-134072D01*
X43924Y-138071D02*
X44924Y-139071D01*
X46923D01*
X47923Y-138071D01*
Y-134072D01*
X46923Y-133073D01*
X44924D01*
X43924Y-134072D01*
Y-135072D01*
X44924Y-136072D01*
X47923D01*
X4937Y-142670D02*
X8936D01*
D16*
X413386Y-212598D02*
D03*
Y-27559D02*
D03*
X19685Y-212598D02*
D03*
Y-27559D02*
D03*
D17*
X285433Y-214567D02*
D03*
X275433Y-204567D02*
D03*
Y-224567D02*
D03*
X295433D02*
D03*
Y-204567D02*
D03*
X246063Y-214567D02*
D03*
X236063Y-204567D02*
D03*
Y-224567D02*
D03*
X256063D02*
D03*
Y-204567D02*
D03*
X187008Y-214567D02*
D03*
X177008Y-204567D02*
D03*
Y-224567D02*
D03*
X197008D02*
D03*
Y-204567D02*
D03*
X147638Y-214567D02*
D03*
X137638Y-204567D02*
D03*
Y-224567D02*
D03*
X157638D02*
D03*
Y-204567D02*
D03*
X108268Y-214567D02*
D03*
X98268Y-204567D02*
D03*
Y-224567D02*
D03*
X118268D02*
D03*
Y-204567D02*
D03*
X68898Y-214567D02*
D03*
X58898Y-204567D02*
D03*
Y-224567D02*
D03*
X78898D02*
D03*
Y-204567D02*
D03*
X187008Y-27559D02*
D03*
X177008Y-17559D02*
D03*
Y-37559D02*
D03*
X197008D02*
D03*
Y-17559D02*
D03*
X147638Y-27559D02*
D03*
X137638Y-17559D02*
D03*
Y-37559D02*
D03*
X157638D02*
D03*
Y-17559D02*
D03*
X157795Y-165354D02*
D03*
Y-185354D02*
D03*
X137795D02*
D03*
Y-165354D02*
D03*
X147795Y-175354D02*
D03*
X118425Y-165354D02*
D03*
Y-185354D02*
D03*
X98425D02*
D03*
Y-165354D02*
D03*
X108425Y-175354D02*
D03*
X79055Y-165354D02*
D03*
Y-185354D02*
D03*
X59055D02*
D03*
Y-165354D02*
D03*
X69055Y-175354D02*
D03*
X39685Y-165354D02*
D03*
Y-185354D02*
D03*
X19685D02*
D03*
Y-165354D02*
D03*
X29685Y-175354D02*
D03*
X161260Y-66772D02*
D03*
Y-86772D02*
D03*
X141260D02*
D03*
Y-66772D02*
D03*
X151260Y-76772D02*
D03*
X121890Y-66772D02*
D03*
Y-86772D02*
D03*
X101890D02*
D03*
Y-66772D02*
D03*
X111890Y-76772D02*
D03*
X82520Y-66772D02*
D03*
Y-86772D02*
D03*
X62520D02*
D03*
Y-66772D02*
D03*
X72520Y-76772D02*
D03*
X43465Y-66772D02*
D03*
Y-86772D02*
D03*
X23465D02*
D03*
Y-66772D02*
D03*
X33465Y-76772D02*
D03*
X118268Y-17559D02*
D03*
Y-37559D02*
D03*
X98268D02*
D03*
Y-17559D02*
D03*
X108268Y-27559D02*
D03*
X78898Y-17559D02*
D03*
Y-37559D02*
D03*
X58898D02*
D03*
Y-17559D02*
D03*
X68898Y-27559D02*
D03*
D18*
X283412Y-120384D02*
D03*
X272545D02*
D03*
X261678D02*
D03*
X250811D02*
D03*
X239944D02*
D03*
X229077D02*
D03*
X218210D02*
D03*
X207343D02*
D03*
X196476D02*
D03*
X185609D02*
D03*
X174742D02*
D03*
X163875D02*
D03*
X288829Y-131584D02*
D03*
X277962D02*
D03*
X267095D02*
D03*
X256228D02*
D03*
X245361D02*
D03*
X234494D02*
D03*
X223627D02*
D03*
X212760D02*
D03*
X201893D02*
D03*
X191026D02*
D03*
X180159D02*
D03*
X169292D02*
D03*
X158425D02*
D03*
X299696D02*
D03*
X310563D02*
D03*
X321430D02*
D03*
X294279Y-120384D02*
D03*
X305146D02*
D03*
X316013D02*
D03*
X125824Y-131584D02*
D03*
X136691D02*
D03*
X147558D02*
D03*
X131274Y-120384D02*
D03*
X142141D02*
D03*
X153008D02*
D03*
D19*
X98425Y-125984D02*
D03*
X348824D02*
D03*
M02*
