G04*
G04 #@! TF.GenerationSoftware,Altium Limited,Altium Designer,19.1.5 (86)*
G04*
G04 Layer_Physical_Order=1*
G04 Layer_Color=255*
%FSLAX44Y44*%
%MOMM*%
G71*
G01*
G75*
%ADD10C,0.2000*%
%ADD11C,0.2540*%
%ADD16C,1.6000*%
%ADD17C,4.5000*%
%ADD18C,1.8000*%
%ADD19C,5.5000*%
D10*
X550000Y1070000D02*
X1650000D01*
X550000Y470000D02*
Y1070000D01*
Y470000D02*
X1650000D01*
Y930000D02*
Y1070000D01*
Y470000D02*
Y630000D01*
Y930000D01*
D11*
X1470000Y976698D02*
Y999600D01*
X1353000Y933000D02*
X1366812Y946813D01*
X1293000Y933000D02*
X1353000D01*
X1270000Y910000D02*
X1293000Y933000D01*
X1283000Y760576D02*
X1289984Y753592D01*
X1293920Y867920D02*
Y883080D01*
X1283000Y857000D02*
X1293920Y867920D01*
X1283000Y760576D02*
Y857000D01*
X1284000Y910000D02*
X1293920Y919920D01*
X1284000Y893000D02*
Y910000D01*
Y893000D02*
X1293920Y883080D01*
Y919920D02*
X1413222D01*
X1270000Y895000D02*
Y910000D01*
X1230000Y855000D02*
X1270000Y895000D01*
X1230000Y779563D02*
Y855000D01*
X1170000Y940000D02*
Y950000D01*
X1151052Y921052D02*
X1170000Y940000D01*
X1151052Y898948D02*
Y921052D01*
X764600Y624600D02*
X770000Y630000D01*
Y650000D01*
X725400Y624600D02*
X764600D01*
X638990Y667502D02*
X651488Y680000D01*
X638990Y638190D02*
Y667502D01*
X625400Y624600D02*
X638990Y638190D01*
X651488Y680000D02*
X774279D01*
X830055Y735776D01*
X869592D01*
X770000Y650000D02*
X790000Y670000D01*
X821932D01*
X884750Y732818D01*
X894236D01*
X897195Y735776D01*
X885430Y696409D02*
X924797Y735776D01*
X825400Y624600D02*
Y655400D01*
X866409Y696409D01*
X885430D01*
X853512Y536810D02*
X870000Y553298D01*
X820108Y536810D02*
X853512D01*
X808298Y525000D02*
X820108Y536810D01*
X725000Y525000D02*
X808298D01*
X870000Y553298D02*
Y660000D01*
X900000Y690000D01*
X934225D01*
X980001Y735776D01*
X925400Y624600D02*
Y645400D01*
X992811Y712811D01*
Y741082D01*
X982479Y751414D02*
X992811Y741082D01*
X968037Y751414D02*
X982479D01*
X952399Y735776D02*
X968037Y751414D01*
X825000Y525000D02*
X861612D01*
X863100Y526488D01*
Y533100D01*
X1007603Y677603D01*
Y735776D01*
X925000Y525000D02*
Y555000D01*
X991124Y621124D01*
Y648308D01*
X1035205Y692390D01*
Y735776D01*
X1033788Y533788D02*
Y683788D01*
X1025000Y525000D02*
X1033788Y533788D01*
Y683788D02*
X1062808Y712808D01*
Y735776D01*
X1090410Y634590D02*
X1100000Y625000D01*
X1090410Y634590D02*
Y735776D01*
X1175000Y525000D02*
Y615425D01*
X1145614Y644810D02*
X1175000Y615425D01*
X1145614Y644810D02*
Y735776D01*
X1235000Y525000D02*
X1275000D01*
X1230000Y530000D02*
X1235000Y525000D01*
X1230000Y530000D02*
Y570000D01*
X1173216Y626784D02*
X1230000Y570000D01*
X1173216Y626784D02*
Y735776D01*
X1375000Y525000D02*
Y555000D01*
X1360000Y570000D02*
X1375000Y555000D01*
X1250000Y570000D02*
X1360000D01*
X1230000Y590000D02*
X1250000Y570000D01*
X1230000Y590000D02*
Y620000D01*
X1228421Y641579D02*
X1290000Y580000D01*
X1468512D01*
X1228421Y641579D02*
Y735776D01*
X1200818Y649182D02*
X1230000Y620000D01*
X1200818Y649182D02*
Y735776D01*
X1468512Y580000D02*
X1475000Y573512D01*
Y525000D02*
Y573512D01*
X1274599Y624600D02*
Y717199D01*
X1256023Y735776D02*
X1274599Y717199D01*
X1374600Y624600D02*
Y654065D01*
X1295847Y732818D02*
X1374600Y654065D01*
X1286583Y732818D02*
X1295847D01*
X1283625Y735776D02*
X1286583Y732818D01*
X1474599Y624600D02*
Y674600D01*
X1478948Y678948D01*
Y681052D01*
X1470000Y690000D02*
X1478948Y681052D01*
X1357003Y690000D02*
X1470000D01*
X1311227Y735776D02*
X1357003Y690000D01*
X1574600Y624600D02*
Y695400D01*
X1570000Y700000D02*
X1574600Y695400D01*
X1384092Y700000D02*
X1570000D01*
X1351274Y732818D02*
X1384092Y700000D01*
X1341788Y732818D02*
X1351274D01*
X1338829Y735776D02*
X1341788Y732818D01*
X1510000Y740000D02*
X1540000D01*
X1550000Y750000D01*
X1460000Y790000D02*
X1510000Y740000D01*
X1411488Y790000D02*
X1460000D01*
X1410000Y788512D02*
X1411488Y790000D01*
X1410000Y779344D02*
Y788512D01*
X1366432Y735776D02*
X1410000Y779344D01*
X1574600Y857898D02*
Y874600D01*
X1522447Y805745D02*
X1574600Y857898D01*
X1394194Y805745D02*
X1522447D01*
X1352672Y764224D02*
X1394194Y805745D01*
X1420000Y852499D02*
Y860000D01*
X1377342Y809840D02*
X1420000Y852499D01*
X1370687Y809840D02*
X1377342D01*
X1325070Y764224D02*
X1370687Y809840D01*
X1420000Y860000D02*
X1434600Y874600D01*
X1474599D01*
X1297468Y764224D02*
X1374600Y841356D01*
Y874600D01*
X1269866Y777034D02*
X1274599Y781768D01*
Y874600D01*
X1274600Y874600D01*
X1269866Y764224D02*
Y777034D01*
X1274600Y874600D02*
X1274600Y874600D01*
X1274599Y874600D02*
X1274600D01*
X1470000Y999600D02*
X1476200D01*
X1413222Y919920D02*
X1470000Y976698D01*
X1289984Y751488D02*
Y753592D01*
X1288496Y750000D02*
X1289984Y751488D01*
X1265974Y750000D02*
X1288496D01*
X1254708Y761266D02*
X1265974Y750000D01*
X1245222Y761266D02*
X1254708D01*
X1242264Y764224D02*
X1245222Y761266D01*
X1214661Y764224D02*
X1230000Y779563D01*
X1366812Y946813D02*
Y989412D01*
X1376200Y998800D01*
X1187059Y764224D02*
X1220000Y797165D01*
Y900000D01*
X1275400Y955400D01*
Y998800D01*
X1170000Y860902D02*
Y880000D01*
X1159457Y850359D02*
X1170000Y860902D01*
X1159457Y764224D02*
Y850359D01*
X1151052Y898948D02*
X1170000Y880000D01*
Y950000D02*
X1175400Y955400D01*
Y999600D01*
X1090000Y778477D02*
X1104253Y764224D01*
X1090000Y778477D02*
Y851702D01*
X1066702Y875000D02*
X1090000Y851702D01*
X1050000Y875000D02*
X1066702D01*
X1076651Y764224D02*
Y783349D01*
X1060000Y800000D02*
X1076651Y783349D01*
X1060000Y800000D02*
Y848298D01*
X1038190Y870108D02*
X1060000Y848298D01*
X1038190Y870108D02*
Y903512D01*
X1025000Y916702D02*
X1038190Y903512D01*
X1025000Y916702D02*
Y1000000D01*
X1049048Y764224D02*
Y850952D01*
X1025000Y875000D02*
X1049048Y850952D01*
X1015000Y875000D02*
X1025000D01*
X1000000Y890000D02*
X1015000Y875000D01*
X1000000Y890000D02*
Y905679D01*
X938590Y967089D02*
X1000000Y905679D01*
X938590Y967089D02*
Y986410D01*
X925000Y1000000D02*
X938590Y986410D01*
X1021446Y764224D02*
Y828554D01*
X980000Y870000D02*
X1021446Y828554D01*
X980000Y870000D02*
Y910000D01*
X960000Y930000D02*
X980000Y910000D01*
X920000Y930000D02*
X960000D01*
X885000Y965000D02*
X920000Y930000D01*
X885000Y965000D02*
Y975000D01*
X870000Y990000D02*
X885000Y975000D01*
X835001Y990000D02*
X870000D01*
X825001Y1000000D02*
X835001Y990000D01*
X993844Y764224D02*
Y846156D01*
X890000Y950000D02*
X993844Y846156D01*
X730000Y950000D02*
X890000D01*
X725000Y955000D02*
X730000Y950000D01*
X725000Y955000D02*
Y1000000D01*
X847790Y844708D02*
Y861410D01*
X834200Y875000D02*
X847790Y861410D01*
X947790Y782676D02*
X966242Y764224D01*
X947790Y782676D02*
Y861410D01*
X934200Y875000D02*
X947790Y861410D01*
X896919Y805945D02*
X938640Y764224D01*
X886553Y805945D02*
X896919D01*
X847790Y844708D02*
X886553Y805945D01*
X750000Y825000D02*
X840776D01*
X898593Y767182D01*
X908079D01*
X911038Y764224D01*
X734200Y840800D02*
X750000Y825000D01*
X734200Y840800D02*
Y875000D01*
X847659Y800000D02*
X883435Y764224D01*
X693298Y800000D02*
X847659D01*
X648590Y844708D02*
X693298Y800000D01*
X648590Y844708D02*
Y861410D01*
X635000Y875000D02*
X648590Y861410D01*
X562540Y766375D02*
Y781610D01*
X572697Y766375D01*
Y781610D01*
X577775D02*
X582853D01*
X580314D01*
Y766375D01*
X577775D01*
X582853D01*
X605706Y768914D02*
X608245Y766375D01*
X613324D01*
X615863Y768914D01*
Y779070D01*
X613324Y781610D01*
X608245D01*
X605706Y779070D01*
Y776531D01*
X608245Y773992D01*
X615863D01*
X631098Y766375D02*
X620941D01*
X631098Y776531D01*
Y779070D01*
X628559Y781610D01*
X623480D01*
X620941Y779070D01*
X636176D02*
X638715Y781610D01*
X643794D01*
X646333Y779070D01*
Y768914D01*
X643794Y766375D01*
X638715D01*
X636176Y768914D01*
Y779070D01*
X661568Y781610D02*
X651411D01*
Y773992D01*
X656490Y776531D01*
X659029D01*
X661568Y773992D01*
Y768914D01*
X659029Y766375D01*
X653950D01*
X651411Y768914D01*
X562540Y741996D02*
Y752153D01*
X567618Y757232D01*
X572697Y752153D01*
Y741996D01*
Y749614D01*
X562540D01*
X577775Y741996D02*
X582853D01*
X580314D01*
Y757232D01*
X577775D01*
X590471Y741996D02*
X595549D01*
X593010D01*
Y752153D01*
X590471D01*
X613324Y757232D02*
X603167D01*
Y749614D01*
X608245D01*
X603167D01*
Y741996D01*
X626019D02*
X620941D01*
X618402Y744536D01*
Y749614D01*
X620941Y752153D01*
X626019D01*
X628559Y749614D01*
Y747075D01*
X618402D01*
X633637Y741996D02*
X638715D01*
X636176D01*
Y757232D01*
X633637D01*
X653950Y741996D02*
X648872D01*
X646333Y744536D01*
Y749614D01*
X648872Y752153D01*
X653950D01*
X656490Y749614D01*
Y747075D01*
X646333D01*
X661568Y741996D02*
Y757232D01*
X669185D01*
X671725Y754692D01*
Y749614D01*
X669185Y747075D01*
X661568D01*
X679342Y752153D02*
X684421D01*
X686960Y749614D01*
Y741996D01*
X679342D01*
X676803Y744536D01*
X679342Y747075D01*
X686960D01*
X692038Y752153D02*
Y741996D01*
Y747075D01*
X694577Y749614D01*
X697116Y752153D01*
X699656D01*
X709812D02*
X714891D01*
X717430Y749614D01*
Y741996D01*
X709812D01*
X707273Y744536D01*
X709812Y747075D01*
X717430D01*
X722508Y741996D02*
Y752153D01*
X730126D01*
X732665Y749614D01*
Y741996D01*
X737743Y736918D02*
X740283D01*
X742822Y739457D01*
Y752153D01*
X562540Y712540D02*
X567618D01*
X565079D01*
Y727775D01*
X562540Y725236D01*
X575236Y712540D02*
X580314D01*
X577775D01*
Y727775D01*
X575236Y725236D01*
X587932D02*
X590471Y727775D01*
X595549D01*
X598088Y725236D01*
Y715079D01*
X595549Y712540D01*
X590471D01*
X587932Y715079D01*
Y725236D01*
X603167D02*
X605706Y727775D01*
X610784D01*
X613324Y725236D01*
Y722697D01*
X610784Y720157D01*
X613324Y717618D01*
Y715079D01*
X610784Y712540D01*
X605706D01*
X603167Y715079D01*
Y717618D01*
X605706Y720157D01*
X603167Y722697D01*
Y725236D01*
X605706Y720157D02*
X610784D01*
X628559Y712540D02*
X618402D01*
X628559Y722697D01*
Y725236D01*
X626019Y727775D01*
X620941D01*
X618402Y725236D01*
X633637D02*
X636176Y727775D01*
X641255D01*
X643794Y725236D01*
Y715079D01*
X641255Y712540D01*
X636176D01*
X633637Y715079D01*
Y725236D01*
X648872Y712540D02*
X653950D01*
X651411D01*
Y727775D01*
X648872Y725236D01*
X661568Y715079D02*
X664107Y712540D01*
X669185D01*
X671725Y715079D01*
Y725236D01*
X669185Y727775D01*
X664107D01*
X661568Y725236D01*
Y722697D01*
X664107Y720157D01*
X671725D01*
D16*
X1476200Y999600D02*
D03*
X1450800Y1025000D02*
D03*
Y974200D02*
D03*
X1501600D02*
D03*
Y1025000D02*
D03*
X1475000Y525000D02*
D03*
X1449600Y550400D02*
D03*
Y499600D02*
D03*
X1500400D02*
D03*
Y550400D02*
D03*
X1375000Y525000D02*
D03*
X1349600Y550400D02*
D03*
Y499600D02*
D03*
X1400400D02*
D03*
Y550400D02*
D03*
X1275000Y525000D02*
D03*
X1249600Y550400D02*
D03*
Y499600D02*
D03*
X1300400D02*
D03*
Y550400D02*
D03*
X1175000Y525000D02*
D03*
X1149600Y550400D02*
D03*
Y499600D02*
D03*
X1200400D02*
D03*
Y550400D02*
D03*
X1025000Y525000D02*
D03*
X999600Y550400D02*
D03*
Y499600D02*
D03*
X1050400D02*
D03*
Y550400D02*
D03*
X925000Y525000D02*
D03*
X899600Y550400D02*
D03*
Y499600D02*
D03*
X950400D02*
D03*
Y550400D02*
D03*
X825000Y525000D02*
D03*
X799600Y550400D02*
D03*
Y499600D02*
D03*
X850400D02*
D03*
Y550400D02*
D03*
X725000Y525000D02*
D03*
X699600Y550400D02*
D03*
Y499600D02*
D03*
X750400D02*
D03*
Y550400D02*
D03*
X1025000Y1000000D02*
D03*
X999600Y1025400D02*
D03*
Y974600D02*
D03*
X1050400D02*
D03*
Y1025400D02*
D03*
X925000Y1000000D02*
D03*
X899600Y1025400D02*
D03*
Y974600D02*
D03*
X950400D02*
D03*
Y1025400D02*
D03*
X950800Y650000D02*
D03*
Y599200D02*
D03*
X900000D02*
D03*
Y650000D02*
D03*
X925400Y624600D02*
D03*
X850800Y650000D02*
D03*
Y599200D02*
D03*
X800000D02*
D03*
Y650000D02*
D03*
X825400Y624600D02*
D03*
X750800Y650000D02*
D03*
Y599200D02*
D03*
X700000D02*
D03*
Y650000D02*
D03*
X725400Y624600D02*
D03*
X650800Y650000D02*
D03*
Y599200D02*
D03*
X600000D02*
D03*
Y650000D02*
D03*
X625400Y624600D02*
D03*
X959600Y900400D02*
D03*
Y849600D02*
D03*
X908800D02*
D03*
Y900400D02*
D03*
X934200Y875000D02*
D03*
X859600Y900400D02*
D03*
Y849600D02*
D03*
X808800D02*
D03*
Y900400D02*
D03*
X834200Y875000D02*
D03*
X759600Y900400D02*
D03*
Y849600D02*
D03*
X708800D02*
D03*
Y900400D02*
D03*
X734200Y875000D02*
D03*
X660400Y900400D02*
D03*
Y849600D02*
D03*
X609600D02*
D03*
Y900400D02*
D03*
X635000Y875000D02*
D03*
X850401Y1025400D02*
D03*
Y974600D02*
D03*
X799601D02*
D03*
Y1025400D02*
D03*
X825001Y1000000D02*
D03*
X750400Y1025400D02*
D03*
Y974600D02*
D03*
X699600D02*
D03*
Y1025400D02*
D03*
X725000Y1000000D02*
D03*
X1600000Y650000D02*
D03*
Y599200D02*
D03*
X1549200D02*
D03*
Y650000D02*
D03*
X1574600Y624600D02*
D03*
X1500000Y650000D02*
D03*
Y599200D02*
D03*
X1449200D02*
D03*
Y650000D02*
D03*
X1474599Y624600D02*
D03*
X1400000Y650000D02*
D03*
Y599200D02*
D03*
X1349200D02*
D03*
Y650000D02*
D03*
X1374600Y624600D02*
D03*
X1299999Y650000D02*
D03*
Y599200D02*
D03*
X1249199D02*
D03*
Y650000D02*
D03*
X1274599Y624600D02*
D03*
X1401600Y1024200D02*
D03*
Y973400D02*
D03*
X1350800D02*
D03*
Y1024200D02*
D03*
X1376200Y998800D02*
D03*
X1300800Y1024200D02*
D03*
Y973400D02*
D03*
X1250000D02*
D03*
Y1024200D02*
D03*
X1275400Y998800D02*
D03*
X1200800Y1025000D02*
D03*
Y974200D02*
D03*
X1150000D02*
D03*
Y1025000D02*
D03*
X1175400Y999600D02*
D03*
X1600000Y900000D02*
D03*
Y849200D02*
D03*
X1549200D02*
D03*
Y900000D02*
D03*
X1574600Y874600D02*
D03*
X1500000Y900000D02*
D03*
Y849200D02*
D03*
X1449200D02*
D03*
Y900000D02*
D03*
X1474599Y874600D02*
D03*
X1400000Y900000D02*
D03*
Y849200D02*
D03*
X1349200D02*
D03*
Y900000D02*
D03*
X1374600Y874600D02*
D03*
X1299999Y900000D02*
D03*
Y849200D02*
D03*
X1249199D02*
D03*
Y900000D02*
D03*
X1274599Y874600D02*
D03*
X1575400Y775400D02*
D03*
Y724600D02*
D03*
X1524600D02*
D03*
Y775400D02*
D03*
X1550000Y750000D02*
D03*
X1125400Y650400D02*
D03*
Y599600D02*
D03*
X1074600D02*
D03*
Y650400D02*
D03*
X1100000Y625000D02*
D03*
X1075400Y900400D02*
D03*
Y849600D02*
D03*
X1024600D02*
D03*
Y900400D02*
D03*
X1050000Y875000D02*
D03*
X1175400Y900400D02*
D03*
Y849600D02*
D03*
X1124600D02*
D03*
Y900400D02*
D03*
X1150000Y875000D02*
D03*
D17*
X600000Y530000D02*
D03*
Y1000000D02*
D03*
X1600000Y530000D02*
D03*
Y1000000D02*
D03*
D18*
X1269866Y764224D02*
D03*
X1242264D02*
D03*
X1214661D02*
D03*
X1187059D02*
D03*
X1159457D02*
D03*
X1131855D02*
D03*
X1104253D02*
D03*
X1076651D02*
D03*
X1049048D02*
D03*
X1021446D02*
D03*
X993844D02*
D03*
X966242D02*
D03*
X1283625Y735776D02*
D03*
X1256023D02*
D03*
X1228421D02*
D03*
X1200818D02*
D03*
X1173216D02*
D03*
X1145614D02*
D03*
X1118012D02*
D03*
X1090410D02*
D03*
X1062808D02*
D03*
X1035205D02*
D03*
X1007603D02*
D03*
X980001D02*
D03*
X952399D02*
D03*
X1311227D02*
D03*
X1338829D02*
D03*
X1366432D02*
D03*
X1297468Y764224D02*
D03*
X1325070D02*
D03*
X1352672D02*
D03*
X869592Y735776D02*
D03*
X897195D02*
D03*
X924797D02*
D03*
X883435Y764224D02*
D03*
X911038D02*
D03*
X938640D02*
D03*
D19*
X800000Y750000D02*
D03*
X1436013D02*
D03*
M02*
