G04*
G04 #@! TF.GenerationSoftware,Altium Limited,Altium Designer,19.1.5 (86)*
G04*
G04 Layer_Color=8388736*
%FSLAX44Y44*%
%MOMM*%
G71*
G01*
G75*
%ADD10C,0.2000*%
%ADD20C,0.1000*%
D10*
X829205Y702288D02*
X828063Y701717D01*
X826349Y700003D01*
Y712000D01*
X1412176Y782003D02*
X1405892D01*
X1409319Y786573D01*
X1407605D01*
X1406463Y787144D01*
X1405892Y787716D01*
X1405320Y789429D01*
Y790572D01*
X1405892Y792286D01*
X1407034Y793429D01*
X1408748Y794000D01*
X1410462D01*
X1412176Y793429D01*
X1412747Y792857D01*
X1413319Y791715D01*
X1394637Y782003D02*
X1400350Y794000D01*
X1402635Y782003D02*
X1394637D01*
X1418319Y702288D02*
X1417176Y701717D01*
X1415462Y700003D01*
Y712000D01*
X1402094Y704002D02*
X1402665Y705716D01*
X1403807Y706858D01*
X1405521Y707430D01*
X1406093D01*
X1407807Y706858D01*
X1408949Y705716D01*
X1409521Y704002D01*
Y703430D01*
X1408949Y701717D01*
X1407807Y700574D01*
X1406093Y700003D01*
X1405521D01*
X1403807Y700574D01*
X1402665Y701717D01*
X1402094Y704002D01*
Y706858D01*
X1402665Y709715D01*
X1403807Y711429D01*
X1405521Y712000D01*
X1406664D01*
X1408378Y711429D01*
X1408949Y710286D01*
X837134Y784859D02*
Y784288D01*
X836563Y783145D01*
X835992Y782574D01*
X834849Y782003D01*
X832564D01*
X831421Y782574D01*
X830850Y783145D01*
X830278Y784288D01*
Y785430D01*
X830850Y786573D01*
X831992Y788287D01*
X837705Y794000D01*
X829707D01*
X823594Y782003D02*
X825308Y782574D01*
X826451Y784288D01*
X827022Y787144D01*
Y788858D01*
X826451Y791715D01*
X825308Y793429D01*
X823594Y794000D01*
X822451D01*
X820738Y793429D01*
X819595Y791715D01*
X819024Y788858D01*
Y787144D01*
X819595Y784288D01*
X820738Y782574D01*
X822451Y782003D01*
X823594D01*
D20*
X1510200Y999600D02*
G03*
X1510200Y999600I-34000J0D01*
G01*
X1509000Y525000D02*
G03*
X1509000Y525000I-34000J0D01*
G01*
X1409000D02*
G03*
X1409000Y525000I-34000J0D01*
G01*
X1309000D02*
G03*
X1309000Y525000I-34000J0D01*
G01*
X1209000D02*
G03*
X1209000Y525000I-34000J0D01*
G01*
X1059000D02*
G03*
X1059000Y525000I-34000J0D01*
G01*
X959000D02*
G03*
X959000Y525000I-34000J0D01*
G01*
X859000D02*
G03*
X859000Y525000I-34000J0D01*
G01*
X759000D02*
G03*
X759000Y525000I-34000J0D01*
G01*
X1059000Y1000000D02*
G03*
X1059000Y1000000I-34000J0D01*
G01*
X959000D02*
G03*
X959000Y1000000I-34000J0D01*
G01*
X820000Y750000D02*
G03*
X820000Y750000I-20000J0D01*
G01*
X815240D02*
G03*
X815240Y750000I-15240J0D01*
G01*
X1456014D02*
G03*
X1456014Y750000I-20000J0D01*
G01*
X1451254D02*
G03*
X1451254Y750000I-15240J0D01*
G01*
X1385706Y776706D02*
G03*
X1368947Y790767I-16759J-2957D01*
G01*
X1377329Y709233D02*
G03*
X1394088Y729209I0J17018D01*
G01*
X841926D02*
G03*
X858685Y709233I16759J-2957D01*
G01*
X867067Y790767D02*
G03*
X850308Y776706I0J-17018D01*
G01*
X1388208Y777148D02*
G03*
X1368947Y793307I-19260J-3399D01*
G01*
X1377329Y706693D02*
G03*
X1396590Y729650I0J19558D01*
G01*
X839424D02*
G03*
X858685Y706693I19260J-3399D01*
G01*
X867067Y793307D02*
G03*
X847806Y777148I0J-19558D01*
G01*
X1456973Y687008D02*
G03*
X1465863Y695898I0J8890D01*
G01*
Y804102D02*
G03*
X1456973Y812992I-8890J-0D01*
G01*
X779041Y812992D02*
G03*
X770151Y804102I0J-8890D01*
G01*
X770151Y695898D02*
G03*
X779041Y687008I8890J0D01*
G01*
X958495Y735776D02*
G03*
X958495Y735776I-6096J0D01*
G01*
X972338Y764224D02*
G03*
X972338Y764224I-6096J0D01*
G01*
X986097Y735776D02*
G03*
X986097Y735776I-6096J0D01*
G01*
X1013699D02*
G03*
X1013699Y735776I-6096J0D01*
G01*
X999940Y764224D02*
G03*
X999940Y764224I-6096J0D01*
G01*
X1027542D02*
G03*
X1027542Y764224I-6096J0D01*
G01*
X1041301Y735776D02*
G03*
X1041301Y735776I-6096J0D01*
G01*
X1055144Y764224D02*
G03*
X1055144Y764224I-6096J0D01*
G01*
X1068904Y735776D02*
G03*
X1068904Y735776I-6096J0D01*
G01*
X1082747Y764224D02*
G03*
X1082747Y764224I-6096J0D01*
G01*
X1096506Y735776D02*
G03*
X1096506Y735776I-6096J0D01*
G01*
X1124108D02*
G03*
X1124108Y735776I-6096J0D01*
G01*
X1110349Y764224D02*
G03*
X1110349Y764224I-6096J0D01*
G01*
X1137951D02*
G03*
X1137951Y764224I-6096J0D01*
G01*
X1151710Y735776D02*
G03*
X1151710Y735776I-6096J0D01*
G01*
X1165553Y764224D02*
G03*
X1165553Y764224I-6096J0D01*
G01*
X1179312Y735776D02*
G03*
X1179312Y735776I-6096J0D01*
G01*
X1193155Y764224D02*
G03*
X1193155Y764224I-6096J0D01*
G01*
X1206915Y735776D02*
G03*
X1206915Y735776I-6096J0D01*
G01*
X1220758Y764224D02*
G03*
X1220758Y764224I-6096J0D01*
G01*
X1234517Y735776D02*
G03*
X1234517Y735776I-6096J0D01*
G01*
X1248360Y764224D02*
G03*
X1248360Y764224I-6096J0D01*
G01*
X1262119Y735776D02*
G03*
X1262119Y735776I-6096J0D01*
G01*
X1275962Y764224D02*
G03*
X1275962Y764224I-6096J0D01*
G01*
X1289721Y735776D02*
G03*
X1289721Y735776I-6096J0D01*
G01*
X1372528D02*
G03*
X1372528Y735776I-6096J0D01*
G01*
X1358769Y764224D02*
G03*
X1358769Y764224I-6096J0D01*
G01*
X1344926Y735776D02*
G03*
X1344926Y735776I-6096J0D01*
G01*
X1331166Y764224D02*
G03*
X1331166Y764224I-6096J0D01*
G01*
X1317323Y735776D02*
G03*
X1317323Y735776I-6096J0D01*
G01*
X1303564Y764224D02*
G03*
X1303564Y764224I-6096J0D01*
G01*
X944736D02*
G03*
X944736Y764224I-6096J0D01*
G01*
X917133D02*
G03*
X917133Y764224I-6096J0D01*
G01*
X930893Y735776D02*
G03*
X930893Y735776I-6096J0D01*
G01*
X903290D02*
G03*
X903290Y735776I-6096J0D01*
G01*
X889531Y764224D02*
G03*
X889531Y764224I-6096J0D01*
G01*
X875688Y735776D02*
G03*
X875688Y735776I-6096J0D01*
G01*
X959400Y624600D02*
G03*
X959400Y624600I-34000J0D01*
G01*
X859400D02*
G03*
X859400Y624600I-34000J0D01*
G01*
X759400D02*
G03*
X759400Y624600I-34000J0D01*
G01*
X659400D02*
G03*
X659400Y624600I-34000J0D01*
G01*
X968200Y875000D02*
G03*
X968200Y875000I-34000J0D01*
G01*
X868200D02*
G03*
X868200Y875000I-34000J0D01*
G01*
X768200D02*
G03*
X768200Y875000I-34000J0D01*
G01*
X669000D02*
G03*
X669000Y875000I-34000J0D01*
G01*
X859000Y1000000D02*
G03*
X859000Y1000000I-34000J0D01*
G01*
X759000D02*
G03*
X759000Y1000000I-34000J0D01*
G01*
X1608600Y624600D02*
G03*
X1608600Y624600I-34000J0D01*
G01*
X1508600D02*
G03*
X1508600Y624600I-34000J0D01*
G01*
X1408600D02*
G03*
X1408600Y624600I-34000J0D01*
G01*
X1308600D02*
G03*
X1308600Y624600I-34000J0D01*
G01*
X1410200Y998800D02*
G03*
X1410200Y998800I-34000J0D01*
G01*
X1309400D02*
G03*
X1309400Y998800I-34000J0D01*
G01*
X1209400Y999600D02*
G03*
X1209400Y999600I-34000J0D01*
G01*
X1608600Y874600D02*
G03*
X1608600Y874600I-34000J0D01*
G01*
X1508600D02*
G03*
X1508600Y874600I-34000J0D01*
G01*
X1408600D02*
G03*
X1408600Y874600I-34000J0D01*
G01*
X1308600D02*
G03*
X1308600Y874600I-34000J0D01*
G01*
X1584000Y750000D02*
G03*
X1584000Y750000I-34000J0D01*
G01*
X1134000Y625000D02*
G03*
X1134000Y625000I-34000J0D01*
G01*
X1084000Y875000D02*
G03*
X1084000Y875000I-34000J0D01*
G01*
X1184000D02*
G03*
X1184000Y875000I-34000J0D01*
G01*
X1442300Y961500D02*
X1510100D01*
X1514300Y965700D02*
Y1033600D01*
X1442300Y1037700D02*
X1510200D01*
X1438100Y965700D02*
Y1033500D01*
X1510100Y961500D02*
X1514300Y965700D01*
X1438100D02*
X1442300Y961500D01*
X1438100Y1033500D02*
X1442300Y1037700D01*
X1510200D02*
X1514300Y1033600D01*
X1441100Y486900D02*
X1508900D01*
X1513100Y491100D02*
Y559000D01*
X1441100Y563100D02*
X1509000D01*
X1436900Y491100D02*
Y558900D01*
X1508900Y486900D02*
X1513100Y491100D01*
X1436900D02*
X1441100Y486900D01*
X1436900Y558900D02*
X1441100Y563100D01*
X1509000D02*
X1513100Y559000D01*
X1341100Y486900D02*
X1408900D01*
X1413100Y491100D02*
Y559000D01*
X1341100Y563100D02*
X1409000D01*
X1336900Y491100D02*
Y558900D01*
X1408900Y486900D02*
X1413100Y491100D01*
X1336900D02*
X1341100Y486900D01*
X1336900Y558900D02*
X1341100Y563100D01*
X1409000D02*
X1413100Y559000D01*
X1241100Y486900D02*
X1308900D01*
X1313100Y491100D02*
Y559000D01*
X1241100Y563100D02*
X1309000D01*
X1236900Y491100D02*
Y558900D01*
X1308900Y486900D02*
X1313100Y491100D01*
X1236900D02*
X1241100Y486900D01*
X1236900Y558900D02*
X1241100Y563100D01*
X1309000D02*
X1313100Y559000D01*
X1141100Y486900D02*
X1208900D01*
X1213100Y491100D02*
Y559000D01*
X1141100Y563100D02*
X1209000D01*
X1136900Y491100D02*
Y558900D01*
X1208900Y486900D02*
X1213100Y491100D01*
X1136900D02*
X1141100Y486900D01*
X1136900Y558900D02*
X1141100Y563100D01*
X1209000D02*
X1213100Y559000D01*
X991100Y486900D02*
X1058900D01*
X1063100Y491100D02*
Y559000D01*
X991100Y563100D02*
X1059000D01*
X986900Y491100D02*
Y558900D01*
X1058900Y486900D02*
X1063100Y491100D01*
X986900D02*
X991100Y486900D01*
X986900Y558900D02*
X991100Y563100D01*
X1059000D02*
X1063100Y559000D01*
X891101Y486900D02*
X958900D01*
X963100Y491100D02*
Y559000D01*
X891101Y563100D02*
X959000D01*
X886900Y491100D02*
Y558900D01*
X958900Y486900D02*
X963100Y491100D01*
X886900D02*
X891101Y486900D01*
X886900Y558900D02*
X891101Y563100D01*
X959000D02*
X963100Y559000D01*
X791100Y486900D02*
X858900D01*
X863100Y491100D02*
Y559000D01*
X791100Y563100D02*
X859000D01*
X786900Y491100D02*
Y558900D01*
X858900Y486900D02*
X863100Y491100D01*
X786900D02*
X791100Y486900D01*
X786900Y558900D02*
X791100Y563100D01*
X859000D02*
X863100Y559000D01*
X691100Y486900D02*
X758900D01*
X763100Y491100D02*
Y559000D01*
X691100Y563100D02*
X759000D01*
X686900Y491100D02*
Y558900D01*
X758900Y486900D02*
X763100Y491100D01*
X686900D02*
X691100Y486900D01*
X686900Y558900D02*
X691100Y563100D01*
X759000D02*
X763100Y559000D01*
X991100Y961900D02*
X1058900D01*
X1063100Y966100D02*
Y1034000D01*
X991100Y1038100D02*
X1059000D01*
X986900Y966100D02*
Y1033900D01*
X1058900Y961900D02*
X1063100Y966100D01*
X986900D02*
X991100Y961900D01*
X986900Y1033900D02*
X991100Y1038100D01*
X1059000D02*
X1063100Y1034000D01*
X891101Y961900D02*
X958900D01*
X963100Y966100D02*
Y1034000D01*
X891101Y1038100D02*
X959000D01*
X886900Y966100D02*
Y1033900D01*
X958900Y961900D02*
X963100Y966100D01*
X886900D02*
X891101Y961900D01*
X886900Y1033900D02*
X891101Y1038100D01*
X959000D02*
X963100Y1034000D01*
X1385706Y776707D02*
X1394088Y729209D01*
X858685Y709233D02*
X1377329D01*
X841926Y729209D02*
X850308Y776707D01*
X867067Y790767D02*
X1368947D01*
X1388208Y777148D02*
X1396590Y729650D01*
X858685Y706693D02*
X1377329D01*
X839424Y729650D02*
X847806Y777148D01*
X867067Y793307D02*
X1368947D01*
X1465862Y695898D02*
Y804102D01*
X779041Y812992D02*
X1456972D01*
X770151Y695898D02*
Y804102D01*
X779041Y687008D02*
X1456972D01*
X959400Y662700D02*
X963500Y658600D01*
X887300Y658500D02*
X891500Y662700D01*
X887300Y590700D02*
X891500Y586500D01*
X959300D02*
X963500Y590700D01*
X887300D02*
Y658500D01*
X891500Y662700D02*
X959400D01*
X963500Y590700D02*
Y658600D01*
X891500Y586500D02*
X959300D01*
X859400Y662700D02*
X863500Y658600D01*
X787300Y658500D02*
X791500Y662700D01*
X787300Y590700D02*
X791500Y586500D01*
X859300D02*
X863500Y590700D01*
X787300D02*
Y658500D01*
X791500Y662700D02*
X859400D01*
X863500Y590700D02*
Y658600D01*
X791500Y586500D02*
X859300D01*
X759400Y662700D02*
X763500Y658600D01*
X687300Y658500D02*
X691500Y662700D01*
X687300Y590700D02*
X691500Y586500D01*
X759300D02*
X763500Y590700D01*
X687300D02*
Y658500D01*
X691500Y662700D02*
X759400D01*
X763500Y590700D02*
Y658600D01*
X691500Y586500D02*
X759300D01*
X659400Y662700D02*
X663500Y658600D01*
X587300Y658500D02*
X591500Y662700D01*
X587300Y590700D02*
X591500Y586500D01*
X659300D02*
X663500Y590700D01*
X587300D02*
Y658500D01*
X591500Y662700D02*
X659400D01*
X663500Y590700D02*
Y658600D01*
X591500Y586500D02*
X659300D01*
X968200Y913100D02*
X972300Y909000D01*
X896100Y908900D02*
X900300Y913100D01*
X896100Y841100D02*
X900300Y836900D01*
X968100D02*
X972300Y841100D01*
X896100D02*
Y908900D01*
X900300Y913100D02*
X968200D01*
X972300Y841100D02*
Y909000D01*
X900300Y836900D02*
X968100D01*
X868200Y913100D02*
X872300Y909000D01*
X796100Y908900D02*
X800300Y913100D01*
X796100Y841100D02*
X800300Y836900D01*
X868100D02*
X872300Y841100D01*
X796100D02*
Y908900D01*
X800300Y913100D02*
X868200D01*
X872300Y841100D02*
Y909000D01*
X800300Y836900D02*
X868100D01*
X768200Y913100D02*
X772300Y909000D01*
X696100Y908900D02*
X700300Y913100D01*
X696100Y841100D02*
X700300Y836900D01*
X768100D02*
X772300Y841100D01*
X696100D02*
Y908900D01*
X700300Y913100D02*
X768200D01*
X772300Y841100D02*
Y909000D01*
X700300Y836900D02*
X768100D01*
X669000Y913100D02*
X673100Y909000D01*
X596900Y908900D02*
X601100Y913100D01*
X596900Y841100D02*
X601100Y836900D01*
X668900D02*
X673100Y841100D01*
X596900D02*
Y908900D01*
X601100Y913100D02*
X669000D01*
X673100Y841100D02*
Y909000D01*
X601100Y836900D02*
X668900D01*
X859001Y1038100D02*
X863101Y1034000D01*
X786901Y1033900D02*
X791101Y1038100D01*
X786901Y966100D02*
X791101Y961900D01*
X858901D02*
X863101Y966100D01*
X786901D02*
Y1033900D01*
X791101Y1038100D02*
X859001D01*
X863101Y966100D02*
Y1034000D01*
X791101Y961900D02*
X858901D01*
X759000Y1038100D02*
X763100Y1034000D01*
X686900Y1033900D02*
X691100Y1038100D01*
X686900Y966100D02*
X691100Y961900D01*
X758900D02*
X763100Y966100D01*
X686900D02*
Y1033900D01*
X691100Y1038100D02*
X759000D01*
X763100Y966100D02*
Y1034000D01*
X691100Y961900D02*
X758900D01*
X1608600Y662700D02*
X1612700Y658600D01*
X1536500Y658500D02*
X1540700Y662700D01*
X1536500Y590700D02*
X1540700Y586500D01*
X1608500D02*
X1612700Y590700D01*
X1536500D02*
Y658500D01*
X1540700Y662700D02*
X1608600D01*
X1612700Y590700D02*
Y658600D01*
X1540700Y586500D02*
X1608500D01*
X1508600Y662700D02*
X1512699Y658600D01*
X1436499Y658500D02*
X1440700Y662700D01*
X1436499Y590700D02*
X1440700Y586500D01*
X1508499D02*
X1512699Y590700D01*
X1436499D02*
Y658500D01*
X1440700Y662700D02*
X1508600D01*
X1512699Y590700D02*
Y658600D01*
X1440700Y586500D02*
X1508499D01*
X1408600Y662700D02*
X1412700Y658600D01*
X1336500Y658500D02*
X1340700Y662700D01*
X1336500Y590700D02*
X1340700Y586500D01*
X1408500D02*
X1412700Y590700D01*
X1336500D02*
Y658500D01*
X1340700Y662700D02*
X1408600D01*
X1412700Y590700D02*
Y658600D01*
X1340700Y586500D02*
X1408500D01*
X1308599Y662700D02*
X1312699Y658600D01*
X1236499Y658500D02*
X1240700Y662700D01*
X1236499Y590700D02*
X1240700Y586500D01*
X1308499D02*
X1312699Y590700D01*
X1236499D02*
Y658500D01*
X1240700Y662700D02*
X1308599D01*
X1312699Y590700D02*
Y658600D01*
X1240700Y586500D02*
X1308499D01*
X1410200Y1036900D02*
X1414300Y1032800D01*
X1338100Y1032700D02*
X1342301Y1036900D01*
X1338100Y964900D02*
X1342301Y960700D01*
X1410100D02*
X1414300Y964900D01*
X1338100D02*
Y1032700D01*
X1342301Y1036900D02*
X1410200D01*
X1414300Y964900D02*
Y1032800D01*
X1342301Y960700D02*
X1410100D01*
X1309400Y1036900D02*
X1313500Y1032800D01*
X1237300Y1032700D02*
X1241500Y1036900D01*
X1237300Y964900D02*
X1241500Y960700D01*
X1309300D02*
X1313500Y964900D01*
X1237300D02*
Y1032700D01*
X1241500Y1036900D02*
X1309400D01*
X1313500Y964900D02*
Y1032800D01*
X1241500Y960700D02*
X1309300D01*
X1209400Y1037700D02*
X1213500Y1033600D01*
X1137300Y1033500D02*
X1141500Y1037700D01*
X1137300Y965700D02*
X1141500Y961500D01*
X1209300D02*
X1213500Y965700D01*
X1137300D02*
Y1033500D01*
X1141500Y1037700D02*
X1209400D01*
X1213500Y965700D02*
Y1033600D01*
X1141500Y961500D02*
X1209300D01*
X1608600Y912700D02*
X1612700Y908600D01*
X1536500Y908500D02*
X1540700Y912700D01*
X1536500Y840700D02*
X1540700Y836500D01*
X1608500D02*
X1612700Y840700D01*
X1536500D02*
Y908500D01*
X1540700Y912700D02*
X1608600D01*
X1612700Y840700D02*
Y908600D01*
X1540700Y836500D02*
X1608500D01*
X1508600Y912700D02*
X1512699Y908600D01*
X1436499Y908500D02*
X1440700Y912700D01*
X1436499Y840700D02*
X1440700Y836500D01*
X1508499D02*
X1512699Y840700D01*
X1436499D02*
Y908500D01*
X1440700Y912700D02*
X1508600D01*
X1512699Y840700D02*
Y908600D01*
X1440700Y836500D02*
X1508499D01*
X1408600Y912700D02*
X1412700Y908600D01*
X1336500Y908500D02*
X1340700Y912700D01*
X1336500Y840700D02*
X1340700Y836500D01*
X1408500D02*
X1412700Y840700D01*
X1336500D02*
Y908500D01*
X1340700Y912700D02*
X1408600D01*
X1412700Y840700D02*
Y908600D01*
X1340700Y836500D02*
X1408500D01*
X1308599Y912700D02*
X1312699Y908600D01*
X1236499Y908500D02*
X1240700Y912700D01*
X1236499Y840700D02*
X1240700Y836500D01*
X1308499D02*
X1312699Y840700D01*
X1236499D02*
Y908500D01*
X1240700Y912700D02*
X1308599D01*
X1312699Y840700D02*
Y908600D01*
X1240700Y836500D02*
X1308499D01*
X1584000Y788100D02*
X1588100Y784000D01*
X1511900Y783900D02*
X1516100Y788100D01*
X1511900Y716100D02*
X1516100Y711900D01*
X1583900D02*
X1588100Y716100D01*
X1511900D02*
Y783900D01*
X1516100Y788100D02*
X1584000D01*
X1588100Y716100D02*
Y784000D01*
X1516100Y711900D02*
X1583900D01*
X1134000Y663100D02*
X1138100Y659000D01*
X1061900Y658900D02*
X1066100Y663100D01*
X1061900Y591100D02*
X1066100Y586900D01*
X1133900D02*
X1138100Y591100D01*
X1061900D02*
Y658900D01*
X1066100Y663100D02*
X1134000D01*
X1138100Y591100D02*
Y659000D01*
X1066100Y586900D02*
X1133900D01*
X1084000Y913100D02*
X1088100Y909000D01*
X1011900Y908900D02*
X1016100Y913100D01*
X1011900Y841100D02*
X1016100Y836900D01*
X1083900D02*
X1088100Y841100D01*
X1011900D02*
Y908900D01*
X1016100Y913100D02*
X1084000D01*
X1088100Y841100D02*
Y909000D01*
X1016100Y836900D02*
X1083900D01*
X1184000Y913100D02*
X1188100Y909000D01*
X1111900Y908900D02*
X1116100Y913100D01*
X1111900Y841100D02*
X1116100Y836900D01*
X1183900D02*
X1188100Y841100D01*
X1111900D02*
Y908900D01*
X1116100Y913100D02*
X1184000D01*
X1188100Y841100D02*
Y909000D01*
X1116100Y836900D02*
X1183900D01*
M02*
