G04*
G04 #@! TF.GenerationSoftware,Altium Limited,Altium Designer,19.1.5 (86)*
G04*
G04 Layer_Physical_Order=2*
G04 Layer_Color=16711680*
%FSLAX44Y44*%
%MOMM*%
G71*
G01*
G75*
%ADD16C,1.6000*%
%ADD17C,4.5000*%
%ADD18C,1.8000*%
%ADD19C,5.5000*%
G36*
X405000Y483750D02*
D01*
D02*
G37*
G36*
X1625000Y1008221D02*
X1623730Y1008033D01*
X1623246Y1009629D01*
X1620921Y1013979D01*
X1617792Y1017792D01*
X1613979Y1020921D01*
X1609629Y1023246D01*
X1604909Y1024678D01*
X1601270Y1025036D01*
Y1000000D01*
Y974964D01*
X1604909Y975322D01*
X1609629Y976754D01*
X1613979Y979079D01*
X1617792Y982208D01*
X1620921Y986021D01*
X1623246Y990371D01*
X1623730Y991967D01*
X1625000Y991779D01*
Y538221D01*
X1623730Y538033D01*
X1623246Y539629D01*
X1620921Y543979D01*
X1617792Y547792D01*
X1613979Y550921D01*
X1609629Y553246D01*
X1604909Y554678D01*
X1601270Y555036D01*
Y530000D01*
Y504964D01*
X1604909Y505322D01*
X1609629Y506754D01*
X1613979Y509079D01*
X1617792Y512208D01*
X1620921Y516021D01*
X1623246Y520371D01*
X1623730Y521967D01*
X1625000Y521779D01*
Y475000D01*
X575000D01*
Y521779D01*
X576270Y521967D01*
X576754Y520371D01*
X579079Y516021D01*
X582208Y512208D01*
X586021Y509079D01*
X590371Y506754D01*
X595091Y505322D01*
X598730Y504964D01*
Y530000D01*
Y555036D01*
X595091Y554678D01*
X590371Y553246D01*
X586021Y550921D01*
X582208Y547792D01*
X579079Y543979D01*
X576754Y539629D01*
X576270Y538033D01*
X575000Y538221D01*
Y991779D01*
X576270Y991967D01*
X576754Y990371D01*
X579079Y986021D01*
X582208Y982208D01*
X586021Y979079D01*
X590371Y976754D01*
X595091Y975322D01*
X598730Y974964D01*
Y1000000D01*
Y1025036D01*
X595091Y1024678D01*
X590371Y1023246D01*
X586021Y1020921D01*
X582208Y1017792D01*
X579079Y1013979D01*
X576754Y1009629D01*
X576270Y1008033D01*
X575000Y1008221D01*
Y1050000D01*
X1625000D01*
Y1008221D01*
D02*
G37*
%LPC*%
G36*
X1051670Y1035864D02*
Y1026670D01*
X1060864D01*
X1060669Y1028151D01*
X1059607Y1030715D01*
X1057917Y1032917D01*
X1055716Y1034607D01*
X1053152Y1035669D01*
X1051670Y1035864D01*
D02*
G37*
G36*
X1049130D02*
X1047649Y1035669D01*
X1045085Y1034607D01*
X1042883Y1032917D01*
X1041193Y1030715D01*
X1040131Y1028151D01*
X1039936Y1026670D01*
X1049130D01*
Y1035864D01*
D02*
G37*
G36*
X1000870D02*
Y1026670D01*
X1010064D01*
X1009869Y1028151D01*
X1008807Y1030715D01*
X1007117Y1032917D01*
X1004916Y1034607D01*
X1002352Y1035669D01*
X1000870Y1035864D01*
D02*
G37*
G36*
X998330D02*
X996849Y1035669D01*
X994285Y1034607D01*
X992083Y1032917D01*
X990394Y1030715D01*
X989331Y1028151D01*
X989136Y1026670D01*
X998330D01*
Y1035864D01*
D02*
G37*
G36*
X951670D02*
Y1026670D01*
X960864D01*
X960669Y1028151D01*
X959607Y1030715D01*
X957917Y1032917D01*
X955716Y1034607D01*
X953152Y1035669D01*
X951670Y1035864D01*
D02*
G37*
G36*
X949130D02*
X947649Y1035669D01*
X945085Y1034607D01*
X942883Y1032917D01*
X941194Y1030715D01*
X940132Y1028151D01*
X939937Y1026670D01*
X949130D01*
Y1035864D01*
D02*
G37*
G36*
X900870D02*
Y1026670D01*
X910064D01*
X909869Y1028151D01*
X908807Y1030715D01*
X907117Y1032917D01*
X904916Y1034607D01*
X902352Y1035669D01*
X900870Y1035864D01*
D02*
G37*
G36*
X898330D02*
X896849Y1035669D01*
X894285Y1034607D01*
X892083Y1032917D01*
X890394Y1030715D01*
X889332Y1028151D01*
X889137Y1026670D01*
X898330D01*
Y1035864D01*
D02*
G37*
G36*
X851671D02*
Y1026670D01*
X860864D01*
X860669Y1028151D01*
X859607Y1030715D01*
X857918Y1032917D01*
X855716Y1034607D01*
X853152Y1035669D01*
X851671Y1035864D01*
D02*
G37*
G36*
X849130D02*
X847649Y1035669D01*
X845085Y1034607D01*
X842883Y1032917D01*
X841194Y1030715D01*
X840132Y1028151D01*
X839937Y1026670D01*
X849130D01*
Y1035864D01*
D02*
G37*
G36*
X800871D02*
Y1026670D01*
X810064D01*
X809869Y1028151D01*
X808807Y1030715D01*
X807118Y1032917D01*
X804916Y1034607D01*
X802352Y1035669D01*
X800871Y1035864D01*
D02*
G37*
G36*
X798331D02*
X796849Y1035669D01*
X794285Y1034607D01*
X792083Y1032917D01*
X790394Y1030715D01*
X789332Y1028151D01*
X789137Y1026670D01*
X798331D01*
Y1035864D01*
D02*
G37*
G36*
X751670D02*
Y1026670D01*
X760864D01*
X760669Y1028151D01*
X759607Y1030715D01*
X757917Y1032917D01*
X755716Y1034607D01*
X753152Y1035669D01*
X751670Y1035864D01*
D02*
G37*
G36*
X749130D02*
X747649Y1035669D01*
X745085Y1034607D01*
X742883Y1032917D01*
X741194Y1030715D01*
X740132Y1028151D01*
X739937Y1026670D01*
X749130D01*
Y1035864D01*
D02*
G37*
G36*
X700870D02*
Y1026670D01*
X710064D01*
X709869Y1028151D01*
X708807Y1030715D01*
X707117Y1032917D01*
X704916Y1034607D01*
X702352Y1035669D01*
X700870Y1035864D01*
D02*
G37*
G36*
X698330D02*
X696849Y1035669D01*
X694285Y1034607D01*
X692083Y1032917D01*
X690394Y1030715D01*
X689332Y1028151D01*
X689137Y1026670D01*
X698330D01*
Y1035864D01*
D02*
G37*
G36*
X1502870Y1035464D02*
Y1026270D01*
X1512064D01*
X1511869Y1027752D01*
X1510807Y1030316D01*
X1509117Y1032517D01*
X1506916Y1034207D01*
X1504352Y1035269D01*
X1502870Y1035464D01*
D02*
G37*
G36*
X1500330D02*
X1498849Y1035269D01*
X1496285Y1034207D01*
X1494083Y1032517D01*
X1492394Y1030316D01*
X1491331Y1027752D01*
X1491136Y1026270D01*
X1500330D01*
Y1035464D01*
D02*
G37*
G36*
X1452070D02*
Y1026270D01*
X1461264D01*
X1461069Y1027752D01*
X1460007Y1030316D01*
X1458318Y1032517D01*
X1456116Y1034207D01*
X1453552Y1035269D01*
X1452070Y1035464D01*
D02*
G37*
G36*
X1449530D02*
X1448049Y1035269D01*
X1445485Y1034207D01*
X1443283Y1032517D01*
X1441594Y1030316D01*
X1440531Y1027752D01*
X1440336Y1026270D01*
X1449530D01*
Y1035464D01*
D02*
G37*
G36*
X1202070D02*
Y1026270D01*
X1211264D01*
X1211069Y1027752D01*
X1210007Y1030316D01*
X1208317Y1032517D01*
X1206116Y1034207D01*
X1203552Y1035269D01*
X1202070Y1035464D01*
D02*
G37*
G36*
X1199530D02*
X1198049Y1035269D01*
X1195485Y1034207D01*
X1193283Y1032517D01*
X1191594Y1030316D01*
X1190531Y1027752D01*
X1190337Y1026270D01*
X1199530D01*
Y1035464D01*
D02*
G37*
G36*
X1151270D02*
Y1026270D01*
X1160464D01*
X1160269Y1027752D01*
X1159207Y1030316D01*
X1157517Y1032517D01*
X1155316Y1034207D01*
X1152752Y1035269D01*
X1151270Y1035464D01*
D02*
G37*
G36*
X1148730D02*
X1147249Y1035269D01*
X1144685Y1034207D01*
X1142483Y1032517D01*
X1140794Y1030316D01*
X1139732Y1027752D01*
X1139537Y1026270D01*
X1148730D01*
Y1035464D01*
D02*
G37*
G36*
X1402870Y1034664D02*
Y1025470D01*
X1412064D01*
X1411869Y1026952D01*
X1410807Y1029516D01*
X1409118Y1031717D01*
X1406916Y1033407D01*
X1404352Y1034469D01*
X1402870Y1034664D01*
D02*
G37*
G36*
X1400330D02*
X1398849Y1034469D01*
X1396285Y1033407D01*
X1394083Y1031717D01*
X1392394Y1029516D01*
X1391332Y1026952D01*
X1391137Y1025470D01*
X1400330D01*
Y1034664D01*
D02*
G37*
G36*
X1352070D02*
Y1025470D01*
X1361264D01*
X1361069Y1026952D01*
X1360007Y1029516D01*
X1358318Y1031717D01*
X1356116Y1033407D01*
X1353552Y1034469D01*
X1352070Y1034664D01*
D02*
G37*
G36*
X1349530D02*
X1348049Y1034469D01*
X1345485Y1033407D01*
X1343283Y1031717D01*
X1341594Y1029516D01*
X1340532Y1026952D01*
X1340337Y1025470D01*
X1349530D01*
Y1034664D01*
D02*
G37*
G36*
X1302070D02*
Y1025470D01*
X1311264D01*
X1311069Y1026952D01*
X1310007Y1029516D01*
X1308317Y1031717D01*
X1306116Y1033407D01*
X1303551Y1034469D01*
X1302070Y1034664D01*
D02*
G37*
G36*
X1299530D02*
X1298049Y1034469D01*
X1295485Y1033407D01*
X1293283Y1031717D01*
X1291593Y1029516D01*
X1290531Y1026952D01*
X1290336Y1025470D01*
X1299530D01*
Y1034664D01*
D02*
G37*
G36*
X1251270D02*
Y1025470D01*
X1260464D01*
X1260269Y1026952D01*
X1259207Y1029516D01*
X1257517Y1031717D01*
X1255315Y1033407D01*
X1252751Y1034469D01*
X1251270Y1034664D01*
D02*
G37*
G36*
X1248730D02*
X1247249Y1034469D01*
X1244685Y1033407D01*
X1242483Y1031717D01*
X1240793Y1029516D01*
X1239731Y1026952D01*
X1239536Y1025470D01*
X1248730D01*
Y1034664D01*
D02*
G37*
G36*
X1060864Y1024130D02*
X1051670D01*
Y1014936D01*
X1053152Y1015131D01*
X1055716Y1016193D01*
X1057917Y1017883D01*
X1059607Y1020085D01*
X1060669Y1022649D01*
X1060864Y1024130D01*
D02*
G37*
G36*
X1049130D02*
X1039936D01*
X1040131Y1022649D01*
X1041193Y1020085D01*
X1042883Y1017883D01*
X1045085Y1016193D01*
X1047649Y1015131D01*
X1049130Y1014936D01*
Y1024130D01*
D02*
G37*
G36*
X1010064D02*
X1000870D01*
Y1014936D01*
X1002352Y1015131D01*
X1004916Y1016193D01*
X1007117Y1017883D01*
X1008807Y1020085D01*
X1009869Y1022649D01*
X1010064Y1024130D01*
D02*
G37*
G36*
X998330D02*
X989136D01*
X989331Y1022649D01*
X990394Y1020085D01*
X992083Y1017883D01*
X994285Y1016193D01*
X996849Y1015131D01*
X998330Y1014936D01*
Y1024130D01*
D02*
G37*
G36*
X960864D02*
X951670D01*
Y1014936D01*
X953152Y1015131D01*
X955716Y1016193D01*
X957917Y1017883D01*
X959607Y1020085D01*
X960669Y1022649D01*
X960864Y1024130D01*
D02*
G37*
G36*
X949130D02*
X939937D01*
X940132Y1022649D01*
X941194Y1020085D01*
X942883Y1017883D01*
X945085Y1016193D01*
X947649Y1015131D01*
X949130Y1014936D01*
Y1024130D01*
D02*
G37*
G36*
X910064D02*
X900870D01*
Y1014936D01*
X902352Y1015131D01*
X904916Y1016193D01*
X907117Y1017883D01*
X908807Y1020085D01*
X909869Y1022649D01*
X910064Y1024130D01*
D02*
G37*
G36*
X898330D02*
X889137D01*
X889332Y1022649D01*
X890394Y1020085D01*
X892083Y1017883D01*
X894285Y1016193D01*
X896849Y1015131D01*
X898330Y1014936D01*
Y1024130D01*
D02*
G37*
G36*
X860864D02*
X851671D01*
Y1014936D01*
X853152Y1015131D01*
X855716Y1016193D01*
X857918Y1017883D01*
X859607Y1020085D01*
X860669Y1022649D01*
X860864Y1024130D01*
D02*
G37*
G36*
X849130D02*
X839937D01*
X840132Y1022649D01*
X841194Y1020085D01*
X842883Y1017883D01*
X845085Y1016193D01*
X847649Y1015131D01*
X849130Y1014936D01*
Y1024130D01*
D02*
G37*
G36*
X810064D02*
X800871D01*
Y1014936D01*
X802352Y1015131D01*
X804916Y1016193D01*
X807118Y1017883D01*
X808807Y1020085D01*
X809869Y1022649D01*
X810064Y1024130D01*
D02*
G37*
G36*
X798331D02*
X789137D01*
X789332Y1022649D01*
X790394Y1020085D01*
X792083Y1017883D01*
X794285Y1016193D01*
X796849Y1015131D01*
X798331Y1014936D01*
Y1024130D01*
D02*
G37*
G36*
X760864D02*
X751670D01*
Y1014936D01*
X753152Y1015131D01*
X755716Y1016193D01*
X757917Y1017883D01*
X759607Y1020085D01*
X760669Y1022649D01*
X760864Y1024130D01*
D02*
G37*
G36*
X749130D02*
X739937D01*
X740132Y1022649D01*
X741194Y1020085D01*
X742883Y1017883D01*
X745085Y1016193D01*
X747649Y1015131D01*
X749130Y1014936D01*
Y1024130D01*
D02*
G37*
G36*
X710064D02*
X700870D01*
Y1014936D01*
X702352Y1015131D01*
X704916Y1016193D01*
X707117Y1017883D01*
X708807Y1020085D01*
X709869Y1022649D01*
X710064Y1024130D01*
D02*
G37*
G36*
X698330D02*
X689137D01*
X689332Y1022649D01*
X690394Y1020085D01*
X692083Y1017883D01*
X694285Y1016193D01*
X696849Y1015131D01*
X698330Y1014936D01*
Y1024130D01*
D02*
G37*
G36*
X1512064Y1023730D02*
X1502870D01*
Y1014537D01*
X1504352Y1014732D01*
X1506916Y1015794D01*
X1509117Y1017483D01*
X1510807Y1019685D01*
X1511869Y1022249D01*
X1512064Y1023730D01*
D02*
G37*
G36*
X1500330D02*
X1491136D01*
X1491331Y1022249D01*
X1492394Y1019685D01*
X1494083Y1017483D01*
X1496285Y1015794D01*
X1498849Y1014732D01*
X1500330Y1014537D01*
Y1023730D01*
D02*
G37*
G36*
X1461264D02*
X1452070D01*
Y1014537D01*
X1453552Y1014732D01*
X1456116Y1015794D01*
X1458318Y1017483D01*
X1460007Y1019685D01*
X1461069Y1022249D01*
X1461264Y1023730D01*
D02*
G37*
G36*
X1449530D02*
X1440336D01*
X1440531Y1022249D01*
X1441594Y1019685D01*
X1443283Y1017483D01*
X1445485Y1015794D01*
X1448049Y1014732D01*
X1449530Y1014537D01*
Y1023730D01*
D02*
G37*
G36*
X1211264D02*
X1202070D01*
Y1014537D01*
X1203552Y1014732D01*
X1206116Y1015794D01*
X1208317Y1017483D01*
X1210007Y1019685D01*
X1211069Y1022249D01*
X1211264Y1023730D01*
D02*
G37*
G36*
X1199530D02*
X1190337D01*
X1190531Y1022249D01*
X1191594Y1019685D01*
X1193283Y1017483D01*
X1195485Y1015794D01*
X1198049Y1014732D01*
X1199530Y1014537D01*
Y1023730D01*
D02*
G37*
G36*
X1160464D02*
X1151270D01*
Y1014537D01*
X1152752Y1014732D01*
X1155316Y1015794D01*
X1157517Y1017483D01*
X1159207Y1019685D01*
X1160269Y1022249D01*
X1160464Y1023730D01*
D02*
G37*
G36*
X1148730D02*
X1139537D01*
X1139732Y1022249D01*
X1140794Y1019685D01*
X1142483Y1017483D01*
X1144685Y1015794D01*
X1147249Y1014732D01*
X1148730Y1014537D01*
Y1023730D01*
D02*
G37*
G36*
X1412064Y1022930D02*
X1402870D01*
Y1013736D01*
X1404352Y1013931D01*
X1406916Y1014994D01*
X1409118Y1016683D01*
X1410807Y1018885D01*
X1411869Y1021449D01*
X1412064Y1022930D01*
D02*
G37*
G36*
X1400330D02*
X1391137D01*
X1391332Y1021449D01*
X1392394Y1018885D01*
X1394083Y1016683D01*
X1396285Y1014994D01*
X1398849Y1013931D01*
X1400330Y1013736D01*
Y1022930D01*
D02*
G37*
G36*
X1361264D02*
X1352070D01*
Y1013736D01*
X1353552Y1013931D01*
X1356116Y1014994D01*
X1358318Y1016683D01*
X1360007Y1018885D01*
X1361069Y1021449D01*
X1361264Y1022930D01*
D02*
G37*
G36*
X1349530D02*
X1340337D01*
X1340532Y1021449D01*
X1341594Y1018885D01*
X1343283Y1016683D01*
X1345485Y1014994D01*
X1348049Y1013931D01*
X1349530Y1013736D01*
Y1022930D01*
D02*
G37*
G36*
X1311264D02*
X1302070D01*
Y1013736D01*
X1303551Y1013931D01*
X1306116Y1014994D01*
X1308317Y1016683D01*
X1310007Y1018885D01*
X1311069Y1021449D01*
X1311264Y1022930D01*
D02*
G37*
G36*
X1299530D02*
X1290336D01*
X1290531Y1021449D01*
X1291593Y1018885D01*
X1293283Y1016683D01*
X1295485Y1014994D01*
X1298049Y1013931D01*
X1299530Y1013736D01*
Y1022930D01*
D02*
G37*
G36*
X1260464D02*
X1251270D01*
Y1013736D01*
X1252751Y1013931D01*
X1255315Y1014994D01*
X1257517Y1016683D01*
X1259207Y1018885D01*
X1260269Y1021449D01*
X1260464Y1022930D01*
D02*
G37*
G36*
X1248730D02*
X1239536D01*
X1239731Y1021449D01*
X1240793Y1018885D01*
X1242483Y1016683D01*
X1244685Y1014994D01*
X1247249Y1013931D01*
X1248730Y1013736D01*
Y1022930D01*
D02*
G37*
G36*
X1598730Y1025036D02*
X1595091Y1024678D01*
X1590371Y1023246D01*
X1586021Y1020921D01*
X1582208Y1017792D01*
X1579079Y1013979D01*
X1576754Y1009629D01*
X1575322Y1004909D01*
X1574964Y1001270D01*
X1598730D01*
Y1025036D01*
D02*
G37*
G36*
X601270D02*
Y1001270D01*
X625036D01*
X624678Y1004909D01*
X623246Y1009629D01*
X620921Y1013979D01*
X617792Y1017792D01*
X613979Y1020921D01*
X609629Y1023246D01*
X604909Y1024678D01*
X601270Y1025036D01*
D02*
G37*
G36*
X1025000Y1010631D02*
X1022249Y1010269D01*
X1019685Y1009207D01*
X1017483Y1007517D01*
X1015794Y1005315D01*
X1014731Y1002751D01*
X1014369Y1000000D01*
X1014731Y997249D01*
X1015794Y994685D01*
X1017483Y992483D01*
X1019685Y990793D01*
X1022249Y989731D01*
X1025000Y989369D01*
X1027752Y989731D01*
X1030316Y990793D01*
X1032517Y992483D01*
X1034207Y994685D01*
X1035269Y997249D01*
X1035631Y1000000D01*
X1035269Y1002751D01*
X1034207Y1005315D01*
X1032517Y1007517D01*
X1030316Y1009207D01*
X1027752Y1010269D01*
X1025000Y1010631D01*
D02*
G37*
G36*
X925000D02*
X922249Y1010269D01*
X919685Y1009207D01*
X917483Y1007517D01*
X915794Y1005315D01*
X914732Y1002751D01*
X914369Y1000000D01*
X914732Y997249D01*
X915794Y994685D01*
X917483Y992483D01*
X919685Y990793D01*
X922249Y989731D01*
X925000Y989369D01*
X927752Y989731D01*
X930316Y990793D01*
X932517Y992483D01*
X934207Y994685D01*
X935269Y997249D01*
X935631Y1000000D01*
X935269Y1002751D01*
X934207Y1005315D01*
X932517Y1007517D01*
X930316Y1009207D01*
X927752Y1010269D01*
X925000Y1010631D01*
D02*
G37*
G36*
X825001D02*
X822249Y1010269D01*
X819685Y1009207D01*
X817483Y1007517D01*
X815794Y1005315D01*
X814732Y1002751D01*
X814370Y1000000D01*
X814732Y997249D01*
X815794Y994685D01*
X817483Y992483D01*
X819685Y990793D01*
X822249Y989731D01*
X825001Y989369D01*
X827752Y989731D01*
X830316Y990793D01*
X832518Y992483D01*
X834207Y994685D01*
X835269Y997249D01*
X835631Y1000000D01*
X835269Y1002751D01*
X834207Y1005315D01*
X832518Y1007517D01*
X830316Y1009207D01*
X827752Y1010269D01*
X825001Y1010631D01*
D02*
G37*
G36*
X725000D02*
X722249Y1010269D01*
X719685Y1009207D01*
X717483Y1007517D01*
X715794Y1005315D01*
X714732Y1002751D01*
X714369Y1000000D01*
X714732Y997249D01*
X715794Y994685D01*
X717483Y992483D01*
X719685Y990793D01*
X722249Y989731D01*
X725000Y989369D01*
X727752Y989731D01*
X730316Y990793D01*
X732517Y992483D01*
X734207Y994685D01*
X735269Y997249D01*
X735631Y1000000D01*
X735269Y1002751D01*
X734207Y1005315D01*
X732517Y1007517D01*
X730316Y1009207D01*
X727752Y1010269D01*
X725000Y1010631D01*
D02*
G37*
G36*
X1476200Y1010231D02*
X1473449Y1009869D01*
X1470885Y1008807D01*
X1468683Y1007117D01*
X1466994Y1004916D01*
X1465932Y1002352D01*
X1465569Y999600D01*
X1465932Y996849D01*
X1466994Y994285D01*
X1468683Y992083D01*
X1470885Y990394D01*
X1473449Y989332D01*
X1476200Y988969D01*
X1478952Y989332D01*
X1481516Y990394D01*
X1483717Y992083D01*
X1485407Y994285D01*
X1486469Y996849D01*
X1486831Y999600D01*
X1486469Y1002352D01*
X1485407Y1004916D01*
X1483717Y1007117D01*
X1481516Y1008807D01*
X1478952Y1009869D01*
X1476200Y1010231D01*
D02*
G37*
G36*
X1175400D02*
X1172649Y1009869D01*
X1170085Y1008807D01*
X1167883Y1007117D01*
X1166194Y1004916D01*
X1165132Y1002352D01*
X1164769Y999600D01*
X1165132Y996849D01*
X1166194Y994285D01*
X1167883Y992083D01*
X1170085Y990394D01*
X1172649Y989332D01*
X1175400Y988969D01*
X1178152Y989332D01*
X1180716Y990394D01*
X1182917Y992083D01*
X1184607Y994285D01*
X1185669Y996849D01*
X1186031Y999600D01*
X1185669Y1002352D01*
X1184607Y1004916D01*
X1182917Y1007117D01*
X1180716Y1008807D01*
X1178152Y1009869D01*
X1175400Y1010231D01*
D02*
G37*
G36*
X1376200Y1009431D02*
X1373449Y1009069D01*
X1370885Y1008007D01*
X1368683Y1006317D01*
X1366994Y1004116D01*
X1365932Y1001552D01*
X1365569Y998800D01*
X1365932Y996049D01*
X1366994Y993485D01*
X1368683Y991283D01*
X1370885Y989594D01*
X1373449Y988531D01*
X1376200Y988169D01*
X1378952Y988531D01*
X1381516Y989594D01*
X1383718Y991283D01*
X1385407Y993485D01*
X1386469Y996049D01*
X1386831Y998800D01*
X1386469Y1001552D01*
X1385407Y1004116D01*
X1383718Y1006317D01*
X1381516Y1008007D01*
X1378952Y1009069D01*
X1376200Y1009431D01*
D02*
G37*
G36*
X1275400D02*
X1272649Y1009069D01*
X1270085Y1008007D01*
X1267883Y1006317D01*
X1266193Y1004116D01*
X1265131Y1001552D01*
X1264769Y998800D01*
X1265131Y996049D01*
X1266193Y993485D01*
X1267883Y991283D01*
X1270085Y989594D01*
X1272649Y988531D01*
X1275400Y988169D01*
X1278151Y988531D01*
X1280715Y989594D01*
X1282917Y991283D01*
X1284607Y993485D01*
X1285669Y996049D01*
X1286031Y998800D01*
X1285669Y1001552D01*
X1284607Y1004116D01*
X1282917Y1006317D01*
X1280715Y1008007D01*
X1278151Y1009069D01*
X1275400Y1009431D01*
D02*
G37*
G36*
X1051670Y985064D02*
Y975870D01*
X1060864D01*
X1060669Y977352D01*
X1059607Y979915D01*
X1057917Y982117D01*
X1055716Y983807D01*
X1053152Y984869D01*
X1051670Y985064D01*
D02*
G37*
G36*
X1049130D02*
X1047649Y984869D01*
X1045085Y983807D01*
X1042883Y982117D01*
X1041193Y979915D01*
X1040131Y977352D01*
X1039936Y975870D01*
X1049130D01*
Y985064D01*
D02*
G37*
G36*
X1000870D02*
Y975870D01*
X1010064D01*
X1009869Y977352D01*
X1008807Y979915D01*
X1007117Y982117D01*
X1004916Y983807D01*
X1002352Y984869D01*
X1000870Y985064D01*
D02*
G37*
G36*
X998330D02*
X996849Y984869D01*
X994285Y983807D01*
X992083Y982117D01*
X990394Y979915D01*
X989331Y977352D01*
X989136Y975870D01*
X998330D01*
Y985064D01*
D02*
G37*
G36*
X951670D02*
Y975870D01*
X960864D01*
X960669Y977352D01*
X959607Y979915D01*
X957917Y982117D01*
X955716Y983807D01*
X953152Y984869D01*
X951670Y985064D01*
D02*
G37*
G36*
X949130D02*
X947649Y984869D01*
X945085Y983807D01*
X942883Y982117D01*
X941194Y979915D01*
X940132Y977352D01*
X939937Y975870D01*
X949130D01*
Y985064D01*
D02*
G37*
G36*
X900870D02*
Y975870D01*
X910064D01*
X909869Y977352D01*
X908807Y979915D01*
X907117Y982117D01*
X904916Y983807D01*
X902352Y984869D01*
X900870Y985064D01*
D02*
G37*
G36*
X898330D02*
X896849Y984869D01*
X894285Y983807D01*
X892083Y982117D01*
X890394Y979915D01*
X889332Y977352D01*
X889137Y975870D01*
X898330D01*
Y985064D01*
D02*
G37*
G36*
X851671D02*
Y975870D01*
X860864D01*
X860669Y977352D01*
X859607Y979915D01*
X857918Y982117D01*
X855716Y983807D01*
X853152Y984869D01*
X851671Y985064D01*
D02*
G37*
G36*
X849130D02*
X847649Y984869D01*
X845085Y983807D01*
X842883Y982117D01*
X841194Y979915D01*
X840132Y977352D01*
X839937Y975870D01*
X849130D01*
Y985064D01*
D02*
G37*
G36*
X800871D02*
Y975870D01*
X810064D01*
X809869Y977352D01*
X808807Y979915D01*
X807118Y982117D01*
X804916Y983807D01*
X802352Y984869D01*
X800871Y985064D01*
D02*
G37*
G36*
X798331D02*
X796849Y984869D01*
X794285Y983807D01*
X792083Y982117D01*
X790394Y979915D01*
X789332Y977352D01*
X789137Y975870D01*
X798331D01*
Y985064D01*
D02*
G37*
G36*
X751670D02*
Y975870D01*
X760864D01*
X760669Y977352D01*
X759607Y979915D01*
X757917Y982117D01*
X755716Y983807D01*
X753152Y984869D01*
X751670Y985064D01*
D02*
G37*
G36*
X749130D02*
X747649Y984869D01*
X745085Y983807D01*
X742883Y982117D01*
X741194Y979915D01*
X740132Y977352D01*
X739937Y975870D01*
X749130D01*
Y985064D01*
D02*
G37*
G36*
X700870D02*
Y975870D01*
X710064D01*
X709869Y977352D01*
X708807Y979915D01*
X707117Y982117D01*
X704916Y983807D01*
X702352Y984869D01*
X700870Y985064D01*
D02*
G37*
G36*
X698330D02*
X696849Y984869D01*
X694285Y983807D01*
X692083Y982117D01*
X690394Y979915D01*
X689332Y977352D01*
X689137Y975870D01*
X698330D01*
Y985064D01*
D02*
G37*
G36*
X1502870Y984664D02*
Y975470D01*
X1512064D01*
X1511869Y976952D01*
X1510807Y979516D01*
X1509117Y981717D01*
X1506916Y983407D01*
X1504352Y984469D01*
X1502870Y984664D01*
D02*
G37*
G36*
X1500330D02*
X1498849Y984469D01*
X1496285Y983407D01*
X1494083Y981717D01*
X1492394Y979516D01*
X1491331Y976952D01*
X1491136Y975470D01*
X1500330D01*
Y984664D01*
D02*
G37*
G36*
X1452070D02*
Y975470D01*
X1461264D01*
X1461069Y976952D01*
X1460007Y979516D01*
X1458318Y981717D01*
X1456116Y983407D01*
X1453552Y984469D01*
X1452070Y984664D01*
D02*
G37*
G36*
X1449530D02*
X1448049Y984469D01*
X1445485Y983407D01*
X1443283Y981717D01*
X1441594Y979516D01*
X1440531Y976952D01*
X1440336Y975470D01*
X1449530D01*
Y984664D01*
D02*
G37*
G36*
X1202070D02*
Y975470D01*
X1211264D01*
X1211069Y976952D01*
X1210007Y979516D01*
X1208317Y981717D01*
X1206116Y983407D01*
X1203552Y984469D01*
X1202070Y984664D01*
D02*
G37*
G36*
X1199530D02*
X1198049Y984469D01*
X1195485Y983407D01*
X1193283Y981717D01*
X1191594Y979516D01*
X1190531Y976952D01*
X1190337Y975470D01*
X1199530D01*
Y984664D01*
D02*
G37*
G36*
X1151270D02*
Y975470D01*
X1160464D01*
X1160269Y976952D01*
X1159207Y979516D01*
X1157517Y981717D01*
X1155316Y983407D01*
X1152752Y984469D01*
X1151270Y984664D01*
D02*
G37*
G36*
X1148730D02*
X1147249Y984469D01*
X1144685Y983407D01*
X1142483Y981717D01*
X1140794Y979516D01*
X1139732Y976952D01*
X1139537Y975470D01*
X1148730D01*
Y984664D01*
D02*
G37*
G36*
X1598730Y998730D02*
X1574964D01*
X1575322Y995091D01*
X1576754Y990371D01*
X1579079Y986021D01*
X1582208Y982208D01*
X1586021Y979079D01*
X1590371Y976754D01*
X1595091Y975322D01*
X1598730Y974964D01*
Y998730D01*
D02*
G37*
G36*
X625036D02*
X601270D01*
Y974964D01*
X604909Y975322D01*
X609629Y976754D01*
X613979Y979079D01*
X617792Y982208D01*
X620921Y986021D01*
X623246Y990371D01*
X624678Y995091D01*
X625036Y998730D01*
D02*
G37*
G36*
X1402870Y983864D02*
Y974670D01*
X1412064D01*
X1411869Y976152D01*
X1410807Y978716D01*
X1409118Y980917D01*
X1406916Y982607D01*
X1404352Y983669D01*
X1402870Y983864D01*
D02*
G37*
G36*
X1400330D02*
X1398849Y983669D01*
X1396285Y982607D01*
X1394083Y980917D01*
X1392394Y978716D01*
X1391332Y976152D01*
X1391137Y974670D01*
X1400330D01*
Y983864D01*
D02*
G37*
G36*
X1352070D02*
Y974670D01*
X1361264D01*
X1361069Y976152D01*
X1360007Y978716D01*
X1358318Y980917D01*
X1356116Y982607D01*
X1353552Y983669D01*
X1352070Y983864D01*
D02*
G37*
G36*
X1349530D02*
X1348049Y983669D01*
X1345485Y982607D01*
X1343283Y980917D01*
X1341594Y978716D01*
X1340532Y976152D01*
X1340337Y974670D01*
X1349530D01*
Y983864D01*
D02*
G37*
G36*
X1302070D02*
Y974670D01*
X1311264D01*
X1311069Y976152D01*
X1310007Y978716D01*
X1308317Y980917D01*
X1306116Y982607D01*
X1303551Y983669D01*
X1302070Y983864D01*
D02*
G37*
G36*
X1299530D02*
X1298049Y983669D01*
X1295485Y982607D01*
X1293283Y980917D01*
X1291593Y978716D01*
X1290531Y976152D01*
X1290336Y974670D01*
X1299530D01*
Y983864D01*
D02*
G37*
G36*
X1251270D02*
Y974670D01*
X1260464D01*
X1260269Y976152D01*
X1259207Y978716D01*
X1257517Y980917D01*
X1255315Y982607D01*
X1252751Y983669D01*
X1251270Y983864D01*
D02*
G37*
G36*
X1248730D02*
X1247249Y983669D01*
X1244685Y982607D01*
X1242483Y980917D01*
X1240793Y978716D01*
X1239731Y976152D01*
X1239536Y974670D01*
X1248730D01*
Y983864D01*
D02*
G37*
G36*
X1060864Y973330D02*
X1051670D01*
Y964136D01*
X1053152Y964331D01*
X1055716Y965393D01*
X1057917Y967083D01*
X1059607Y969285D01*
X1060669Y971849D01*
X1060864Y973330D01*
D02*
G37*
G36*
X1049130D02*
X1039936D01*
X1040131Y971849D01*
X1041193Y969285D01*
X1042883Y967083D01*
X1045085Y965393D01*
X1047649Y964331D01*
X1049130Y964136D01*
Y973330D01*
D02*
G37*
G36*
X1010064D02*
X1000870D01*
Y964136D01*
X1002352Y964331D01*
X1004916Y965393D01*
X1007117Y967083D01*
X1008807Y969285D01*
X1009869Y971849D01*
X1010064Y973330D01*
D02*
G37*
G36*
X998330D02*
X989136D01*
X989331Y971849D01*
X990394Y969285D01*
X992083Y967083D01*
X994285Y965393D01*
X996849Y964331D01*
X998330Y964136D01*
Y973330D01*
D02*
G37*
G36*
X960864D02*
X951670D01*
Y964136D01*
X953152Y964331D01*
X955716Y965393D01*
X957917Y967083D01*
X959607Y969285D01*
X960669Y971849D01*
X960864Y973330D01*
D02*
G37*
G36*
X949130D02*
X939937D01*
X940132Y971849D01*
X941194Y969285D01*
X942883Y967083D01*
X945085Y965393D01*
X947649Y964331D01*
X949130Y964136D01*
Y973330D01*
D02*
G37*
G36*
X910064D02*
X900870D01*
Y964136D01*
X902352Y964331D01*
X904916Y965393D01*
X907117Y967083D01*
X908807Y969285D01*
X909869Y971849D01*
X910064Y973330D01*
D02*
G37*
G36*
X898330D02*
X889137D01*
X889332Y971849D01*
X890394Y969285D01*
X892083Y967083D01*
X894285Y965393D01*
X896849Y964331D01*
X898330Y964136D01*
Y973330D01*
D02*
G37*
G36*
X860864D02*
X851671D01*
Y964136D01*
X853152Y964331D01*
X855716Y965393D01*
X857918Y967083D01*
X859607Y969285D01*
X860669Y971849D01*
X860864Y973330D01*
D02*
G37*
G36*
X849130D02*
X839937D01*
X840132Y971849D01*
X841194Y969285D01*
X842883Y967083D01*
X845085Y965393D01*
X847649Y964331D01*
X849130Y964136D01*
Y973330D01*
D02*
G37*
G36*
X810064D02*
X800871D01*
Y964136D01*
X802352Y964331D01*
X804916Y965393D01*
X807118Y967083D01*
X808807Y969285D01*
X809869Y971849D01*
X810064Y973330D01*
D02*
G37*
G36*
X798331D02*
X789137D01*
X789332Y971849D01*
X790394Y969285D01*
X792083Y967083D01*
X794285Y965393D01*
X796849Y964331D01*
X798331Y964136D01*
Y973330D01*
D02*
G37*
G36*
X760864D02*
X751670D01*
Y964136D01*
X753152Y964331D01*
X755716Y965393D01*
X757917Y967083D01*
X759607Y969285D01*
X760669Y971849D01*
X760864Y973330D01*
D02*
G37*
G36*
X749130D02*
X739937D01*
X740132Y971849D01*
X741194Y969285D01*
X742883Y967083D01*
X745085Y965393D01*
X747649Y964331D01*
X749130Y964136D01*
Y973330D01*
D02*
G37*
G36*
X710064D02*
X700870D01*
Y964136D01*
X702352Y964331D01*
X704916Y965393D01*
X707117Y967083D01*
X708807Y969285D01*
X709869Y971849D01*
X710064Y973330D01*
D02*
G37*
G36*
X698330D02*
X689137D01*
X689332Y971849D01*
X690394Y969285D01*
X692083Y967083D01*
X694285Y965393D01*
X696849Y964331D01*
X698330Y964136D01*
Y973330D01*
D02*
G37*
G36*
X1512064Y972930D02*
X1502870D01*
Y963736D01*
X1504352Y963932D01*
X1506916Y964994D01*
X1509117Y966683D01*
X1510807Y968885D01*
X1511869Y971449D01*
X1512064Y972930D01*
D02*
G37*
G36*
X1500330D02*
X1491136D01*
X1491331Y971449D01*
X1492394Y968885D01*
X1494083Y966683D01*
X1496285Y964994D01*
X1498849Y963932D01*
X1500330Y963736D01*
Y972930D01*
D02*
G37*
G36*
X1461264D02*
X1452070D01*
Y963736D01*
X1453552Y963932D01*
X1456116Y964994D01*
X1458318Y966683D01*
X1460007Y968885D01*
X1461069Y971449D01*
X1461264Y972930D01*
D02*
G37*
G36*
X1449530D02*
X1440336D01*
X1440531Y971449D01*
X1441594Y968885D01*
X1443283Y966683D01*
X1445485Y964994D01*
X1448049Y963932D01*
X1449530Y963736D01*
Y972930D01*
D02*
G37*
G36*
X1211264D02*
X1202070D01*
Y963736D01*
X1203552Y963932D01*
X1206116Y964994D01*
X1208317Y966683D01*
X1210007Y968885D01*
X1211069Y971449D01*
X1211264Y972930D01*
D02*
G37*
G36*
X1199530D02*
X1190337D01*
X1190531Y971449D01*
X1191594Y968885D01*
X1193283Y966683D01*
X1195485Y964994D01*
X1198049Y963932D01*
X1199530Y963736D01*
Y972930D01*
D02*
G37*
G36*
X1160464D02*
X1151270D01*
Y963736D01*
X1152752Y963932D01*
X1155316Y964994D01*
X1157517Y966683D01*
X1159207Y968885D01*
X1160269Y971449D01*
X1160464Y972930D01*
D02*
G37*
G36*
X1148730D02*
X1139537D01*
X1139732Y971449D01*
X1140794Y968885D01*
X1142483Y966683D01*
X1144685Y964994D01*
X1147249Y963932D01*
X1148730Y963736D01*
Y972930D01*
D02*
G37*
G36*
X1412064Y972130D02*
X1402870D01*
Y962936D01*
X1404352Y963131D01*
X1406916Y964193D01*
X1409118Y965883D01*
X1410807Y968085D01*
X1411869Y970649D01*
X1412064Y972130D01*
D02*
G37*
G36*
X1400330D02*
X1391137D01*
X1391332Y970649D01*
X1392394Y968085D01*
X1394083Y965883D01*
X1396285Y964193D01*
X1398849Y963131D01*
X1400330Y962936D01*
Y972130D01*
D02*
G37*
G36*
X1361264D02*
X1352070D01*
Y962936D01*
X1353552Y963131D01*
X1356116Y964193D01*
X1358318Y965883D01*
X1360007Y968085D01*
X1361069Y970649D01*
X1361264Y972130D01*
D02*
G37*
G36*
X1349530D02*
X1340337D01*
X1340532Y970649D01*
X1341594Y968085D01*
X1343283Y965883D01*
X1345485Y964193D01*
X1348049Y963131D01*
X1349530Y962936D01*
Y972130D01*
D02*
G37*
G36*
X1311264D02*
X1302070D01*
Y962936D01*
X1303551Y963131D01*
X1306116Y964193D01*
X1308317Y965883D01*
X1310007Y968085D01*
X1311069Y970649D01*
X1311264Y972130D01*
D02*
G37*
G36*
X1299530D02*
X1290336D01*
X1290531Y970649D01*
X1291593Y968085D01*
X1293283Y965883D01*
X1295485Y964193D01*
X1298049Y963131D01*
X1299530Y962936D01*
Y972130D01*
D02*
G37*
G36*
X1260464D02*
X1251270D01*
Y962936D01*
X1252751Y963131D01*
X1255315Y964193D01*
X1257517Y965883D01*
X1259207Y968085D01*
X1260269Y970649D01*
X1260464Y972130D01*
D02*
G37*
G36*
X1248730D02*
X1239536D01*
X1239731Y970649D01*
X1240793Y968085D01*
X1242483Y965883D01*
X1244685Y964193D01*
X1247249Y963131D01*
X1248730Y962936D01*
Y972130D01*
D02*
G37*
G36*
X960870Y910864D02*
Y901670D01*
X970064D01*
X969869Y903151D01*
X968807Y905715D01*
X967117Y907917D01*
X964915Y909607D01*
X962351Y910669D01*
X960870Y910864D01*
D02*
G37*
G36*
X958330D02*
X956848Y910669D01*
X954285Y909607D01*
X952083Y907917D01*
X950393Y905715D01*
X949331Y903151D01*
X949136Y901670D01*
X958330D01*
Y910864D01*
D02*
G37*
G36*
X910070D02*
Y901670D01*
X919264D01*
X919069Y903151D01*
X918007Y905715D01*
X916317Y907917D01*
X914115Y909607D01*
X911551Y910669D01*
X910070Y910864D01*
D02*
G37*
G36*
X907530D02*
X906048Y910669D01*
X903484Y909607D01*
X901283Y907917D01*
X899593Y905715D01*
X898531Y903151D01*
X898336Y901670D01*
X907530D01*
Y910864D01*
D02*
G37*
G36*
X860870D02*
Y901670D01*
X870064D01*
X869869Y903151D01*
X868807Y905715D01*
X867117Y907917D01*
X864916Y909607D01*
X862352Y910669D01*
X860870Y910864D01*
D02*
G37*
G36*
X858330D02*
X856849Y910669D01*
X854285Y909607D01*
X852083Y907917D01*
X850393Y905715D01*
X849331Y903151D01*
X849136Y901670D01*
X858330D01*
Y910864D01*
D02*
G37*
G36*
X810070D02*
Y901670D01*
X819264D01*
X819069Y903151D01*
X818007Y905715D01*
X816317Y907917D01*
X814116Y909607D01*
X811552Y910669D01*
X810070Y910864D01*
D02*
G37*
G36*
X807530D02*
X806049Y910669D01*
X803485Y909607D01*
X801283Y907917D01*
X799593Y905715D01*
X798531Y903151D01*
X798336Y901670D01*
X807530D01*
Y910864D01*
D02*
G37*
G36*
X760870D02*
Y901670D01*
X770064D01*
X769868Y903151D01*
X768807Y905715D01*
X767117Y907917D01*
X764915Y909607D01*
X762351Y910669D01*
X760870Y910864D01*
D02*
G37*
G36*
X758330D02*
X756848Y910669D01*
X754284Y909607D01*
X752083Y907917D01*
X750393Y905715D01*
X749331Y903151D01*
X749136Y901670D01*
X758330D01*
Y910864D01*
D02*
G37*
G36*
X710070D02*
Y901670D01*
X719264D01*
X719069Y903151D01*
X718007Y905715D01*
X716317Y907917D01*
X714115Y909607D01*
X711551Y910669D01*
X710070Y910864D01*
D02*
G37*
G36*
X707530D02*
X706048Y910669D01*
X703484Y909607D01*
X701283Y907917D01*
X699593Y905715D01*
X698531Y903151D01*
X698336Y901670D01*
X707530D01*
Y910864D01*
D02*
G37*
G36*
X661670D02*
Y901670D01*
X670864D01*
X670669Y903151D01*
X669607Y905715D01*
X667917Y907917D01*
X665716Y909607D01*
X663152Y910669D01*
X661670Y910864D01*
D02*
G37*
G36*
X659130D02*
X657649Y910669D01*
X655085Y909607D01*
X652883Y907917D01*
X651193Y905715D01*
X650131Y903151D01*
X649936Y901670D01*
X659130D01*
Y910864D01*
D02*
G37*
G36*
X610870D02*
Y901670D01*
X620064D01*
X619869Y903151D01*
X618807Y905715D01*
X617117Y907917D01*
X614916Y909607D01*
X612352Y910669D01*
X610870Y910864D01*
D02*
G37*
G36*
X608330D02*
X606849Y910669D01*
X604285Y909607D01*
X602083Y907917D01*
X600393Y905715D01*
X599331Y903151D01*
X599136Y901670D01*
X608330D01*
Y910864D01*
D02*
G37*
G36*
X1176670Y910864D02*
Y901670D01*
X1185864D01*
X1185669Y903151D01*
X1184607Y905715D01*
X1182917Y907917D01*
X1180715Y909607D01*
X1178151Y910669D01*
X1176670Y910864D01*
D02*
G37*
G36*
X1174130D02*
X1172648Y910669D01*
X1170085Y909607D01*
X1167883Y907917D01*
X1166193Y905715D01*
X1165131Y903151D01*
X1164936Y901670D01*
X1174130D01*
Y910864D01*
D02*
G37*
G36*
X1125870D02*
Y901670D01*
X1135064D01*
X1134869Y903151D01*
X1133807Y905715D01*
X1132117Y907917D01*
X1129915Y909607D01*
X1127352Y910669D01*
X1125870Y910864D01*
D02*
G37*
G36*
X1123330D02*
X1121849Y910669D01*
X1119285Y909607D01*
X1117083Y907917D01*
X1115393Y905715D01*
X1114331Y903151D01*
X1114136Y901670D01*
X1123330D01*
Y910864D01*
D02*
G37*
G36*
X1076670D02*
Y901670D01*
X1085864D01*
X1085669Y903151D01*
X1084607Y905715D01*
X1082917Y907917D01*
X1080715Y909607D01*
X1078151Y910669D01*
X1076670Y910864D01*
D02*
G37*
G36*
X1074130D02*
X1072648Y910669D01*
X1070085Y909607D01*
X1067883Y907917D01*
X1066193Y905715D01*
X1065131Y903151D01*
X1064936Y901670D01*
X1074130D01*
Y910864D01*
D02*
G37*
G36*
X1025870D02*
Y901670D01*
X1035064D01*
X1034869Y903151D01*
X1033807Y905715D01*
X1032117Y907917D01*
X1029915Y909607D01*
X1027352Y910669D01*
X1025870Y910864D01*
D02*
G37*
G36*
X1023330D02*
X1021849Y910669D01*
X1019285Y909607D01*
X1017083Y907917D01*
X1015393Y905715D01*
X1014331Y903151D01*
X1014136Y901670D01*
X1023330D01*
Y910864D01*
D02*
G37*
G36*
X1601270Y910464D02*
Y901270D01*
X1610464D01*
X1610269Y902751D01*
X1609207Y905315D01*
X1607517Y907517D01*
X1605316Y909207D01*
X1602751Y910269D01*
X1601270Y910464D01*
D02*
G37*
G36*
X1598730D02*
X1597249Y910269D01*
X1594684Y909207D01*
X1592483Y907517D01*
X1590793Y905315D01*
X1589731Y902751D01*
X1589536Y901270D01*
X1598730D01*
Y910464D01*
D02*
G37*
G36*
X1550470D02*
Y901270D01*
X1559664D01*
X1559469Y902751D01*
X1558407Y905315D01*
X1556717Y907517D01*
X1554516Y909207D01*
X1551951Y910269D01*
X1550470Y910464D01*
D02*
G37*
G36*
X1547930D02*
X1546449Y910269D01*
X1543884Y909207D01*
X1541683Y907517D01*
X1539993Y905315D01*
X1538931Y902751D01*
X1538736Y901270D01*
X1547930D01*
Y910464D01*
D02*
G37*
G36*
X1501270D02*
Y901270D01*
X1510464D01*
X1510268Y902751D01*
X1509206Y905315D01*
X1507517Y907517D01*
X1505315Y909207D01*
X1502751Y910269D01*
X1501270Y910464D01*
D02*
G37*
G36*
X1498730D02*
X1497248Y910269D01*
X1494684Y909207D01*
X1492482Y907517D01*
X1490793Y905315D01*
X1489731Y902751D01*
X1489536Y901270D01*
X1498730D01*
Y910464D01*
D02*
G37*
G36*
X1450470D02*
Y901270D01*
X1459664D01*
X1459468Y902751D01*
X1458406Y905315D01*
X1456717Y907517D01*
X1454515Y909207D01*
X1451951Y910269D01*
X1450470Y910464D01*
D02*
G37*
G36*
X1447930D02*
X1446448Y910269D01*
X1443884Y909207D01*
X1441682Y907517D01*
X1439993Y905315D01*
X1438931Y902751D01*
X1438736Y901270D01*
X1447930D01*
Y910464D01*
D02*
G37*
G36*
X1401270D02*
Y901270D01*
X1410464D01*
X1410269Y902751D01*
X1409207Y905315D01*
X1407517Y907517D01*
X1405315Y909207D01*
X1402751Y910269D01*
X1401270Y910464D01*
D02*
G37*
G36*
X1398730D02*
X1397248Y910269D01*
X1394684Y909207D01*
X1392483Y907517D01*
X1390793Y905315D01*
X1389731Y902751D01*
X1389536Y901270D01*
X1398730D01*
Y910464D01*
D02*
G37*
G36*
X1350470D02*
Y901270D01*
X1359664D01*
X1359469Y902751D01*
X1358407Y905315D01*
X1356717Y907517D01*
X1354515Y909207D01*
X1351951Y910269D01*
X1350470Y910464D01*
D02*
G37*
G36*
X1347930D02*
X1346448Y910269D01*
X1343884Y909207D01*
X1341683Y907517D01*
X1339993Y905315D01*
X1338931Y902751D01*
X1338736Y901270D01*
X1347930D01*
Y910464D01*
D02*
G37*
G36*
X1301270D02*
Y901270D01*
X1310463D01*
X1310268Y902751D01*
X1309206Y905315D01*
X1307517Y907517D01*
X1305315Y909207D01*
X1302751Y910269D01*
X1301270Y910464D01*
D02*
G37*
G36*
X1298730D02*
X1297248Y910269D01*
X1294684Y909207D01*
X1292482Y907517D01*
X1290793Y905315D01*
X1289731Y902751D01*
X1289536Y901270D01*
X1298730D01*
Y910464D01*
D02*
G37*
G36*
X1250470D02*
Y901270D01*
X1259663D01*
X1259468Y902751D01*
X1258406Y905315D01*
X1256717Y907517D01*
X1254515Y909207D01*
X1251951Y910269D01*
X1250470Y910464D01*
D02*
G37*
G36*
X1247930D02*
X1246448Y910269D01*
X1243884Y909207D01*
X1241682Y907517D01*
X1239993Y905315D01*
X1238931Y902751D01*
X1238736Y901270D01*
X1247930D01*
Y910464D01*
D02*
G37*
G36*
X970064Y899130D02*
X960870D01*
Y889936D01*
X962351Y890131D01*
X964915Y891193D01*
X967117Y892883D01*
X968807Y895085D01*
X969869Y897648D01*
X970064Y899130D01*
D02*
G37*
G36*
X958330D02*
X949136D01*
X949331Y897648D01*
X950393Y895085D01*
X952083Y892883D01*
X954285Y891193D01*
X956848Y890131D01*
X958330Y889936D01*
Y899130D01*
D02*
G37*
G36*
X919264D02*
X910070D01*
Y889936D01*
X911551Y890131D01*
X914115Y891193D01*
X916317Y892883D01*
X918007Y895085D01*
X919069Y897648D01*
X919264Y899130D01*
D02*
G37*
G36*
X907530D02*
X898336D01*
X898531Y897648D01*
X899593Y895085D01*
X901283Y892883D01*
X903484Y891193D01*
X906048Y890131D01*
X907530Y889936D01*
Y899130D01*
D02*
G37*
G36*
X870064D02*
X860870D01*
Y889936D01*
X862352Y890131D01*
X864916Y891193D01*
X867117Y892883D01*
X868807Y895085D01*
X869869Y897648D01*
X870064Y899130D01*
D02*
G37*
G36*
X858330D02*
X849136D01*
X849331Y897648D01*
X850393Y895085D01*
X852083Y892883D01*
X854285Y891193D01*
X856849Y890131D01*
X858330Y889936D01*
Y899130D01*
D02*
G37*
G36*
X819264D02*
X810070D01*
Y889936D01*
X811552Y890131D01*
X814116Y891193D01*
X816317Y892883D01*
X818007Y895085D01*
X819069Y897648D01*
X819264Y899130D01*
D02*
G37*
G36*
X807530D02*
X798336D01*
X798531Y897648D01*
X799593Y895085D01*
X801283Y892883D01*
X803485Y891193D01*
X806049Y890131D01*
X807530Y889936D01*
Y899130D01*
D02*
G37*
G36*
X770064D02*
X760870D01*
Y889936D01*
X762351Y890131D01*
X764915Y891193D01*
X767117Y892883D01*
X768807Y895085D01*
X769868Y897648D01*
X770064Y899130D01*
D02*
G37*
G36*
X758330D02*
X749136D01*
X749331Y897648D01*
X750393Y895085D01*
X752083Y892883D01*
X754284Y891193D01*
X756848Y890131D01*
X758330Y889936D01*
Y899130D01*
D02*
G37*
G36*
X719264D02*
X710070D01*
Y889936D01*
X711551Y890131D01*
X714115Y891193D01*
X716317Y892883D01*
X718007Y895085D01*
X719069Y897648D01*
X719264Y899130D01*
D02*
G37*
G36*
X707530D02*
X698336D01*
X698531Y897648D01*
X699593Y895085D01*
X701283Y892883D01*
X703484Y891193D01*
X706048Y890131D01*
X707530Y889936D01*
Y899130D01*
D02*
G37*
G36*
X670864D02*
X661670D01*
Y889936D01*
X663152Y890131D01*
X665716Y891193D01*
X667917Y892883D01*
X669607Y895085D01*
X670669Y897648D01*
X670864Y899130D01*
D02*
G37*
G36*
X659130D02*
X649936D01*
X650131Y897648D01*
X651193Y895085D01*
X652883Y892883D01*
X655085Y891193D01*
X657649Y890131D01*
X659130Y889936D01*
Y899130D01*
D02*
G37*
G36*
X620064D02*
X610870D01*
Y889936D01*
X612352Y890131D01*
X614916Y891193D01*
X617117Y892883D01*
X618807Y895085D01*
X619869Y897648D01*
X620064Y899130D01*
D02*
G37*
G36*
X608330D02*
X599136D01*
X599331Y897648D01*
X600393Y895085D01*
X602083Y892883D01*
X604285Y891193D01*
X606849Y890131D01*
X608330Y889936D01*
Y899130D01*
D02*
G37*
G36*
X1185864Y899130D02*
X1176670D01*
Y889936D01*
X1178151Y890131D01*
X1180715Y891193D01*
X1182917Y892883D01*
X1184607Y895085D01*
X1185669Y897648D01*
X1185864Y899130D01*
D02*
G37*
G36*
X1174130D02*
X1164936D01*
X1165131Y897648D01*
X1166193Y895085D01*
X1167883Y892883D01*
X1170085Y891193D01*
X1172648Y890131D01*
X1174130Y889936D01*
Y899130D01*
D02*
G37*
G36*
X1135064D02*
X1125870D01*
Y889936D01*
X1127352Y890131D01*
X1129915Y891193D01*
X1132117Y892883D01*
X1133807Y895085D01*
X1134869Y897648D01*
X1135064Y899130D01*
D02*
G37*
G36*
X1123330D02*
X1114136D01*
X1114331Y897648D01*
X1115393Y895085D01*
X1117083Y892883D01*
X1119285Y891193D01*
X1121849Y890131D01*
X1123330Y889936D01*
Y899130D01*
D02*
G37*
G36*
X1085864D02*
X1076670D01*
Y889936D01*
X1078151Y890131D01*
X1080715Y891193D01*
X1082917Y892883D01*
X1084607Y895085D01*
X1085669Y897648D01*
X1085864Y899130D01*
D02*
G37*
G36*
X1074130D02*
X1064936D01*
X1065131Y897648D01*
X1066193Y895085D01*
X1067883Y892883D01*
X1070085Y891193D01*
X1072648Y890131D01*
X1074130Y889936D01*
Y899130D01*
D02*
G37*
G36*
X1035064D02*
X1025870D01*
Y889936D01*
X1027352Y890131D01*
X1029915Y891193D01*
X1032117Y892883D01*
X1033807Y895085D01*
X1034869Y897648D01*
X1035064Y899130D01*
D02*
G37*
G36*
X1023330D02*
X1014136D01*
X1014331Y897648D01*
X1015393Y895085D01*
X1017083Y892883D01*
X1019285Y891193D01*
X1021849Y890131D01*
X1023330Y889936D01*
Y899130D01*
D02*
G37*
G36*
X1610464Y898730D02*
X1601270D01*
Y889536D01*
X1602751Y889731D01*
X1605316Y890793D01*
X1607517Y892483D01*
X1609207Y894685D01*
X1610269Y897249D01*
X1610464Y898730D01*
D02*
G37*
G36*
X1598730D02*
X1589536D01*
X1589731Y897249D01*
X1590793Y894685D01*
X1592483Y892483D01*
X1594684Y890793D01*
X1597249Y889731D01*
X1598730Y889536D01*
Y898730D01*
D02*
G37*
G36*
X1559664D02*
X1550470D01*
Y889536D01*
X1551951Y889731D01*
X1554516Y890793D01*
X1556717Y892483D01*
X1558407Y894685D01*
X1559469Y897249D01*
X1559664Y898730D01*
D02*
G37*
G36*
X1547930D02*
X1538736D01*
X1538931Y897249D01*
X1539993Y894685D01*
X1541683Y892483D01*
X1543884Y890793D01*
X1546449Y889731D01*
X1547930Y889536D01*
Y898730D01*
D02*
G37*
G36*
X1510464D02*
X1501270D01*
Y889536D01*
X1502751Y889731D01*
X1505315Y890793D01*
X1507517Y892483D01*
X1509206Y894685D01*
X1510268Y897249D01*
X1510464Y898730D01*
D02*
G37*
G36*
X1498730D02*
X1489536D01*
X1489731Y897249D01*
X1490793Y894685D01*
X1492482Y892483D01*
X1494684Y890793D01*
X1497248Y889731D01*
X1498730Y889536D01*
Y898730D01*
D02*
G37*
G36*
X1459664D02*
X1450470D01*
Y889536D01*
X1451951Y889731D01*
X1454515Y890793D01*
X1456717Y892483D01*
X1458406Y894685D01*
X1459468Y897249D01*
X1459664Y898730D01*
D02*
G37*
G36*
X1447930D02*
X1438736D01*
X1438931Y897249D01*
X1439993Y894685D01*
X1441682Y892483D01*
X1443884Y890793D01*
X1446448Y889731D01*
X1447930Y889536D01*
Y898730D01*
D02*
G37*
G36*
X1410464D02*
X1401270D01*
Y889536D01*
X1402751Y889731D01*
X1405315Y890793D01*
X1407517Y892483D01*
X1409207Y894685D01*
X1410269Y897249D01*
X1410464Y898730D01*
D02*
G37*
G36*
X1398730D02*
X1389536D01*
X1389731Y897249D01*
X1390793Y894685D01*
X1392483Y892483D01*
X1394684Y890793D01*
X1397248Y889731D01*
X1398730Y889536D01*
Y898730D01*
D02*
G37*
G36*
X1359664D02*
X1350470D01*
Y889536D01*
X1351951Y889731D01*
X1354515Y890793D01*
X1356717Y892483D01*
X1358407Y894685D01*
X1359469Y897249D01*
X1359664Y898730D01*
D02*
G37*
G36*
X1347930D02*
X1338736D01*
X1338931Y897249D01*
X1339993Y894685D01*
X1341683Y892483D01*
X1343884Y890793D01*
X1346448Y889731D01*
X1347930Y889536D01*
Y898730D01*
D02*
G37*
G36*
X1310463D02*
X1301270D01*
Y889536D01*
X1302751Y889731D01*
X1305315Y890793D01*
X1307517Y892483D01*
X1309206Y894685D01*
X1310268Y897249D01*
X1310463Y898730D01*
D02*
G37*
G36*
X1298730D02*
X1289536D01*
X1289731Y897249D01*
X1290793Y894685D01*
X1292482Y892483D01*
X1294684Y890793D01*
X1297248Y889731D01*
X1298730Y889536D01*
Y898730D01*
D02*
G37*
G36*
X1259663D02*
X1250470D01*
Y889536D01*
X1251951Y889731D01*
X1254515Y890793D01*
X1256717Y892483D01*
X1258406Y894685D01*
X1259468Y897249D01*
X1259663Y898730D01*
D02*
G37*
G36*
X1247930D02*
X1238736D01*
X1238931Y897249D01*
X1239993Y894685D01*
X1241682Y892483D01*
X1243884Y890793D01*
X1246448Y889731D01*
X1247930Y889536D01*
Y898730D01*
D02*
G37*
G36*
X1151270Y885464D02*
Y876270D01*
X1160464D01*
X1160269Y877751D01*
X1159207Y880315D01*
X1157517Y882517D01*
X1155315Y884207D01*
X1152751Y885269D01*
X1151270Y885464D01*
D02*
G37*
G36*
X1148730D02*
X1147249Y885269D01*
X1144685Y884207D01*
X1142483Y882517D01*
X1140793Y880315D01*
X1139731Y877751D01*
X1139536Y876270D01*
X1148730D01*
Y885464D01*
D02*
G37*
G36*
X1160464Y873730D02*
X1151270D01*
Y864536D01*
X1152751Y864731D01*
X1155315Y865793D01*
X1157517Y867483D01*
X1159207Y869685D01*
X1160269Y872249D01*
X1160464Y873730D01*
D02*
G37*
G36*
X1148730D02*
X1139536D01*
X1139731Y872249D01*
X1140793Y869685D01*
X1142483Y867483D01*
X1144685Y865793D01*
X1147249Y864731D01*
X1148730Y864536D01*
Y873730D01*
D02*
G37*
G36*
X934200Y885631D02*
X931448Y885269D01*
X928885Y884207D01*
X926683Y882517D01*
X924993Y880315D01*
X923931Y877751D01*
X923569Y875000D01*
X923931Y872249D01*
X924993Y869685D01*
X926683Y867483D01*
X928885Y865793D01*
X931448Y864731D01*
X934200Y864369D01*
X936951Y864731D01*
X939515Y865793D01*
X941717Y867483D01*
X943407Y869685D01*
X944469Y872249D01*
X944831Y875000D01*
X944469Y877751D01*
X943407Y880315D01*
X941717Y882517D01*
X939515Y884207D01*
X936951Y885269D01*
X934200Y885631D01*
D02*
G37*
G36*
X834200D02*
X831449Y885269D01*
X828885Y884207D01*
X826683Y882517D01*
X824993Y880315D01*
X823931Y877751D01*
X823569Y875000D01*
X823931Y872249D01*
X824993Y869685D01*
X826683Y867483D01*
X828885Y865793D01*
X831449Y864731D01*
X834200Y864369D01*
X836952Y864731D01*
X839516Y865793D01*
X841717Y867483D01*
X843407Y869685D01*
X844469Y872249D01*
X844831Y875000D01*
X844469Y877751D01*
X843407Y880315D01*
X841717Y882517D01*
X839516Y884207D01*
X836952Y885269D01*
X834200Y885631D01*
D02*
G37*
G36*
X734200D02*
X731448Y885269D01*
X728884Y884207D01*
X726683Y882517D01*
X724993Y880315D01*
X723931Y877751D01*
X723569Y875000D01*
X723931Y872249D01*
X724993Y869685D01*
X726683Y867483D01*
X728884Y865793D01*
X731448Y864731D01*
X734200Y864369D01*
X736951Y864731D01*
X739515Y865793D01*
X741717Y867483D01*
X743407Y869685D01*
X744469Y872249D01*
X744831Y875000D01*
X744469Y877751D01*
X743407Y880315D01*
X741717Y882517D01*
X739515Y884207D01*
X736951Y885269D01*
X734200Y885631D01*
D02*
G37*
G36*
X635000D02*
X632249Y885269D01*
X629685Y884207D01*
X627483Y882517D01*
X625793Y880315D01*
X624731Y877751D01*
X624369Y875000D01*
X624731Y872249D01*
X625793Y869685D01*
X627483Y867483D01*
X629685Y865793D01*
X632249Y864731D01*
X635000Y864369D01*
X637752Y864731D01*
X640316Y865793D01*
X642517Y867483D01*
X644207Y869685D01*
X645269Y872249D01*
X645631Y875000D01*
X645269Y877751D01*
X644207Y880315D01*
X642517Y882517D01*
X640316Y884207D01*
X637752Y885269D01*
X635000Y885631D01*
D02*
G37*
G36*
X1050000Y885631D02*
X1047249Y885269D01*
X1044685Y884207D01*
X1042483Y882517D01*
X1040793Y880315D01*
X1039731Y877751D01*
X1039369Y875000D01*
X1039731Y872249D01*
X1040793Y869685D01*
X1042483Y867483D01*
X1044685Y865793D01*
X1047249Y864731D01*
X1050000Y864369D01*
X1052751Y864731D01*
X1055315Y865793D01*
X1057517Y867483D01*
X1059207Y869685D01*
X1060269Y872249D01*
X1060631Y875000D01*
X1060269Y877751D01*
X1059207Y880315D01*
X1057517Y882517D01*
X1055315Y884207D01*
X1052751Y885269D01*
X1050000Y885631D01*
D02*
G37*
G36*
X1574600Y885231D02*
X1571848Y884869D01*
X1569285Y883807D01*
X1567083Y882117D01*
X1565393Y879915D01*
X1564331Y877352D01*
X1563969Y874600D01*
X1564331Y871849D01*
X1565393Y869285D01*
X1567083Y867083D01*
X1569285Y865393D01*
X1571848Y864331D01*
X1574600Y863969D01*
X1577352Y864331D01*
X1579915Y865393D01*
X1582117Y867083D01*
X1583807Y869285D01*
X1584869Y871849D01*
X1585231Y874600D01*
X1584869Y877352D01*
X1583807Y879915D01*
X1582117Y882117D01*
X1579915Y883807D01*
X1577352Y884869D01*
X1574600Y885231D01*
D02*
G37*
G36*
X1474600D02*
X1471848Y884869D01*
X1469284Y883807D01*
X1467083Y882117D01*
X1465393Y879915D01*
X1464331Y877352D01*
X1463969Y874600D01*
X1464331Y871849D01*
X1465393Y869285D01*
X1467083Y867083D01*
X1469284Y865393D01*
X1471848Y864331D01*
X1474600Y863969D01*
X1477351Y864331D01*
X1479915Y865393D01*
X1482117Y867083D01*
X1483806Y869285D01*
X1484868Y871849D01*
X1485231Y874600D01*
X1484868Y877352D01*
X1483806Y879915D01*
X1482117Y882117D01*
X1479915Y883807D01*
X1477351Y884869D01*
X1474600Y885231D01*
D02*
G37*
G36*
X1374600D02*
X1371848Y884869D01*
X1369284Y883807D01*
X1367083Y882117D01*
X1365393Y879915D01*
X1364331Y877352D01*
X1363969Y874600D01*
X1364331Y871849D01*
X1365393Y869285D01*
X1367083Y867083D01*
X1369284Y865393D01*
X1371848Y864331D01*
X1374600Y863969D01*
X1377351Y864331D01*
X1379915Y865393D01*
X1382117Y867083D01*
X1383807Y869285D01*
X1384869Y871849D01*
X1385231Y874600D01*
X1384869Y877352D01*
X1383807Y879915D01*
X1382117Y882117D01*
X1379915Y883807D01*
X1377351Y884869D01*
X1374600Y885231D01*
D02*
G37*
G36*
X1274600D02*
X1271848Y884869D01*
X1269284Y883807D01*
X1267082Y882117D01*
X1265393Y879915D01*
X1264331Y877352D01*
X1263969Y874600D01*
X1264331Y871849D01*
X1265393Y869285D01*
X1267082Y867083D01*
X1269284Y865393D01*
X1271848Y864331D01*
X1274600Y863969D01*
X1277351Y864331D01*
X1279915Y865393D01*
X1282117Y867083D01*
X1283806Y869285D01*
X1284868Y871849D01*
X1285231Y874600D01*
X1284868Y877352D01*
X1283806Y879915D01*
X1282117Y882117D01*
X1279915Y883807D01*
X1277351Y884869D01*
X1274600Y885231D01*
D02*
G37*
G36*
X960870Y860064D02*
Y850870D01*
X970064D01*
X969869Y852352D01*
X968807Y854915D01*
X967117Y857117D01*
X964915Y858807D01*
X962351Y859869D01*
X960870Y860064D01*
D02*
G37*
G36*
X958330D02*
X956848Y859869D01*
X954285Y858807D01*
X952083Y857117D01*
X950393Y854915D01*
X949331Y852352D01*
X949136Y850870D01*
X958330D01*
Y860064D01*
D02*
G37*
G36*
X910070D02*
Y850870D01*
X919264D01*
X919069Y852352D01*
X918007Y854915D01*
X916317Y857117D01*
X914115Y858807D01*
X911551Y859869D01*
X910070Y860064D01*
D02*
G37*
G36*
X907530D02*
X906048Y859869D01*
X903484Y858807D01*
X901283Y857117D01*
X899593Y854915D01*
X898531Y852352D01*
X898336Y850870D01*
X907530D01*
Y860064D01*
D02*
G37*
G36*
X860870D02*
Y850870D01*
X870064D01*
X869869Y852352D01*
X868807Y854915D01*
X867117Y857117D01*
X864916Y858807D01*
X862352Y859869D01*
X860870Y860064D01*
D02*
G37*
G36*
X858330D02*
X856849Y859869D01*
X854285Y858807D01*
X852083Y857117D01*
X850393Y854915D01*
X849331Y852352D01*
X849136Y850870D01*
X858330D01*
Y860064D01*
D02*
G37*
G36*
X810070D02*
Y850870D01*
X819264D01*
X819069Y852352D01*
X818007Y854915D01*
X816317Y857117D01*
X814116Y858807D01*
X811552Y859869D01*
X810070Y860064D01*
D02*
G37*
G36*
X807530D02*
X806049Y859869D01*
X803485Y858807D01*
X801283Y857117D01*
X799593Y854915D01*
X798531Y852352D01*
X798336Y850870D01*
X807530D01*
Y860064D01*
D02*
G37*
G36*
X760870D02*
Y850870D01*
X770064D01*
X769868Y852352D01*
X768807Y854915D01*
X767117Y857117D01*
X764915Y858807D01*
X762351Y859869D01*
X760870Y860064D01*
D02*
G37*
G36*
X758330D02*
X756848Y859869D01*
X754284Y858807D01*
X752083Y857117D01*
X750393Y854915D01*
X749331Y852352D01*
X749136Y850870D01*
X758330D01*
Y860064D01*
D02*
G37*
G36*
X710070D02*
Y850870D01*
X719264D01*
X719069Y852352D01*
X718007Y854915D01*
X716317Y857117D01*
X714115Y858807D01*
X711551Y859869D01*
X710070Y860064D01*
D02*
G37*
G36*
X707530D02*
X706048Y859869D01*
X703484Y858807D01*
X701283Y857117D01*
X699593Y854915D01*
X698531Y852352D01*
X698336Y850870D01*
X707530D01*
Y860064D01*
D02*
G37*
G36*
X661670D02*
Y850870D01*
X670864D01*
X670669Y852352D01*
X669607Y854915D01*
X667917Y857117D01*
X665716Y858807D01*
X663152Y859869D01*
X661670Y860064D01*
D02*
G37*
G36*
X659130D02*
X657649Y859869D01*
X655085Y858807D01*
X652883Y857117D01*
X651193Y854915D01*
X650131Y852352D01*
X649936Y850870D01*
X659130D01*
Y860064D01*
D02*
G37*
G36*
X610870D02*
Y850870D01*
X620064D01*
X619869Y852352D01*
X618807Y854915D01*
X617117Y857117D01*
X614916Y858807D01*
X612352Y859869D01*
X610870Y860064D01*
D02*
G37*
G36*
X608330D02*
X606849Y859869D01*
X604285Y858807D01*
X602083Y857117D01*
X600393Y854915D01*
X599331Y852352D01*
X599136Y850870D01*
X608330D01*
Y860064D01*
D02*
G37*
G36*
X1176670Y860064D02*
Y850870D01*
X1185864D01*
X1185669Y852352D01*
X1184607Y854915D01*
X1182917Y857117D01*
X1180715Y858807D01*
X1178151Y859869D01*
X1176670Y860064D01*
D02*
G37*
G36*
X1174130D02*
X1172648Y859869D01*
X1170085Y858807D01*
X1167883Y857117D01*
X1166193Y854915D01*
X1165131Y852352D01*
X1164936Y850870D01*
X1174130D01*
Y860064D01*
D02*
G37*
G36*
X1125870D02*
Y850870D01*
X1135064D01*
X1134869Y852352D01*
X1133807Y854915D01*
X1132117Y857117D01*
X1129915Y858807D01*
X1127352Y859869D01*
X1125870Y860064D01*
D02*
G37*
G36*
X1123330D02*
X1121849Y859869D01*
X1119285Y858807D01*
X1117083Y857117D01*
X1115393Y854915D01*
X1114331Y852352D01*
X1114136Y850870D01*
X1123330D01*
Y860064D01*
D02*
G37*
G36*
X1076670D02*
Y850870D01*
X1085864D01*
X1085669Y852352D01*
X1084607Y854915D01*
X1082917Y857117D01*
X1080715Y858807D01*
X1078151Y859869D01*
X1076670Y860064D01*
D02*
G37*
G36*
X1074130D02*
X1072648Y859869D01*
X1070085Y858807D01*
X1067883Y857117D01*
X1066193Y854915D01*
X1065131Y852352D01*
X1064936Y850870D01*
X1074130D01*
Y860064D01*
D02*
G37*
G36*
X1025870D02*
Y850870D01*
X1035064D01*
X1034869Y852352D01*
X1033807Y854915D01*
X1032117Y857117D01*
X1029915Y858807D01*
X1027352Y859869D01*
X1025870Y860064D01*
D02*
G37*
G36*
X1023330D02*
X1021849Y859869D01*
X1019285Y858807D01*
X1017083Y857117D01*
X1015393Y854915D01*
X1014331Y852352D01*
X1014136Y850870D01*
X1023330D01*
Y860064D01*
D02*
G37*
G36*
X1601270Y859664D02*
Y850470D01*
X1610464D01*
X1610269Y851952D01*
X1609207Y854516D01*
X1607517Y856717D01*
X1605316Y858407D01*
X1602751Y859469D01*
X1601270Y859664D01*
D02*
G37*
G36*
X1598730D02*
X1597249Y859469D01*
X1594684Y858407D01*
X1592483Y856717D01*
X1590793Y854516D01*
X1589731Y851952D01*
X1589536Y850470D01*
X1598730D01*
Y859664D01*
D02*
G37*
G36*
X1550470D02*
Y850470D01*
X1559664D01*
X1559469Y851952D01*
X1558407Y854516D01*
X1556717Y856717D01*
X1554516Y858407D01*
X1551951Y859469D01*
X1550470Y859664D01*
D02*
G37*
G36*
X1547930D02*
X1546449Y859469D01*
X1543884Y858407D01*
X1541683Y856717D01*
X1539993Y854516D01*
X1538931Y851952D01*
X1538736Y850470D01*
X1547930D01*
Y859664D01*
D02*
G37*
G36*
X1501270D02*
Y850470D01*
X1510464D01*
X1510268Y851952D01*
X1509206Y854516D01*
X1507517Y856717D01*
X1505315Y858407D01*
X1502751Y859469D01*
X1501270Y859664D01*
D02*
G37*
G36*
X1498730D02*
X1497248Y859469D01*
X1494684Y858407D01*
X1492482Y856717D01*
X1490793Y854516D01*
X1489731Y851952D01*
X1489536Y850470D01*
X1498730D01*
Y859664D01*
D02*
G37*
G36*
X1450470D02*
Y850470D01*
X1459664D01*
X1459468Y851952D01*
X1458406Y854516D01*
X1456717Y856717D01*
X1454515Y858407D01*
X1451951Y859469D01*
X1450470Y859664D01*
D02*
G37*
G36*
X1447930D02*
X1446448Y859469D01*
X1443884Y858407D01*
X1441682Y856717D01*
X1439993Y854516D01*
X1438931Y851952D01*
X1438736Y850470D01*
X1447930D01*
Y859664D01*
D02*
G37*
G36*
X1401270D02*
Y850470D01*
X1410464D01*
X1410269Y851952D01*
X1409207Y854516D01*
X1407517Y856717D01*
X1405315Y858407D01*
X1402751Y859469D01*
X1401270Y859664D01*
D02*
G37*
G36*
X1398730D02*
X1397248Y859469D01*
X1394684Y858407D01*
X1392483Y856717D01*
X1390793Y854516D01*
X1389731Y851952D01*
X1389536Y850470D01*
X1398730D01*
Y859664D01*
D02*
G37*
G36*
X1350470D02*
Y850470D01*
X1359664D01*
X1359469Y851952D01*
X1358407Y854516D01*
X1356717Y856717D01*
X1354515Y858407D01*
X1351951Y859469D01*
X1350470Y859664D01*
D02*
G37*
G36*
X1347930D02*
X1346448Y859469D01*
X1343884Y858407D01*
X1341683Y856717D01*
X1339993Y854516D01*
X1338931Y851952D01*
X1338736Y850470D01*
X1347930D01*
Y859664D01*
D02*
G37*
G36*
X1301270D02*
Y850470D01*
X1310463D01*
X1310268Y851952D01*
X1309206Y854516D01*
X1307517Y856717D01*
X1305315Y858407D01*
X1302751Y859469D01*
X1301270Y859664D01*
D02*
G37*
G36*
X1298730D02*
X1297248Y859469D01*
X1294684Y858407D01*
X1292482Y856717D01*
X1290793Y854516D01*
X1289731Y851952D01*
X1289536Y850470D01*
X1298730D01*
Y859664D01*
D02*
G37*
G36*
X1250470D02*
Y850470D01*
X1259663D01*
X1259468Y851952D01*
X1258406Y854516D01*
X1256717Y856717D01*
X1254515Y858407D01*
X1251951Y859469D01*
X1250470Y859664D01*
D02*
G37*
G36*
X1247930D02*
X1246448Y859469D01*
X1243884Y858407D01*
X1241682Y856717D01*
X1239993Y854516D01*
X1238931Y851952D01*
X1238736Y850470D01*
X1247930D01*
Y859664D01*
D02*
G37*
G36*
X970064Y848330D02*
X960870D01*
Y839136D01*
X962351Y839331D01*
X964915Y840393D01*
X967117Y842083D01*
X968807Y844285D01*
X969869Y846849D01*
X970064Y848330D01*
D02*
G37*
G36*
X958330D02*
X949136D01*
X949331Y846849D01*
X950393Y844285D01*
X952083Y842083D01*
X954285Y840393D01*
X956848Y839331D01*
X958330Y839136D01*
Y848330D01*
D02*
G37*
G36*
X919264D02*
X910070D01*
Y839136D01*
X911551Y839331D01*
X914115Y840393D01*
X916317Y842083D01*
X918007Y844285D01*
X919069Y846849D01*
X919264Y848330D01*
D02*
G37*
G36*
X907530D02*
X898336D01*
X898531Y846849D01*
X899593Y844285D01*
X901283Y842083D01*
X903484Y840393D01*
X906048Y839331D01*
X907530Y839136D01*
Y848330D01*
D02*
G37*
G36*
X870064D02*
X860870D01*
Y839136D01*
X862352Y839331D01*
X864916Y840393D01*
X867117Y842083D01*
X868807Y844285D01*
X869869Y846849D01*
X870064Y848330D01*
D02*
G37*
G36*
X858330D02*
X849136D01*
X849331Y846849D01*
X850393Y844285D01*
X852083Y842083D01*
X854285Y840393D01*
X856849Y839331D01*
X858330Y839136D01*
Y848330D01*
D02*
G37*
G36*
X819264D02*
X810070D01*
Y839136D01*
X811552Y839331D01*
X814116Y840393D01*
X816317Y842083D01*
X818007Y844285D01*
X819069Y846849D01*
X819264Y848330D01*
D02*
G37*
G36*
X807530D02*
X798336D01*
X798531Y846849D01*
X799593Y844285D01*
X801283Y842083D01*
X803485Y840393D01*
X806049Y839331D01*
X807530Y839136D01*
Y848330D01*
D02*
G37*
G36*
X770064D02*
X760870D01*
Y839136D01*
X762351Y839331D01*
X764915Y840393D01*
X767117Y842083D01*
X768807Y844285D01*
X769868Y846849D01*
X770064Y848330D01*
D02*
G37*
G36*
X758330D02*
X749136D01*
X749331Y846849D01*
X750393Y844285D01*
X752083Y842083D01*
X754284Y840393D01*
X756848Y839331D01*
X758330Y839136D01*
Y848330D01*
D02*
G37*
G36*
X719264D02*
X710070D01*
Y839136D01*
X711551Y839331D01*
X714115Y840393D01*
X716317Y842083D01*
X718007Y844285D01*
X719069Y846849D01*
X719264Y848330D01*
D02*
G37*
G36*
X707530D02*
X698336D01*
X698531Y846849D01*
X699593Y844285D01*
X701283Y842083D01*
X703484Y840393D01*
X706048Y839331D01*
X707530Y839136D01*
Y848330D01*
D02*
G37*
G36*
X670864D02*
X661670D01*
Y839136D01*
X663152Y839331D01*
X665716Y840393D01*
X667917Y842083D01*
X669607Y844285D01*
X670669Y846849D01*
X670864Y848330D01*
D02*
G37*
G36*
X659130D02*
X649936D01*
X650131Y846849D01*
X651193Y844285D01*
X652883Y842083D01*
X655085Y840393D01*
X657649Y839331D01*
X659130Y839136D01*
Y848330D01*
D02*
G37*
G36*
X620064D02*
X610870D01*
Y839136D01*
X612352Y839331D01*
X614916Y840393D01*
X617117Y842083D01*
X618807Y844285D01*
X619869Y846849D01*
X620064Y848330D01*
D02*
G37*
G36*
X608330D02*
X599136D01*
X599331Y846849D01*
X600393Y844285D01*
X602083Y842083D01*
X604285Y840393D01*
X606849Y839331D01*
X608330Y839136D01*
Y848330D01*
D02*
G37*
G36*
X1185864Y848330D02*
X1176670D01*
Y839136D01*
X1178151Y839331D01*
X1180715Y840393D01*
X1182917Y842083D01*
X1184607Y844285D01*
X1185669Y846849D01*
X1185864Y848330D01*
D02*
G37*
G36*
X1174130D02*
X1164936D01*
X1165131Y846849D01*
X1166193Y844285D01*
X1167883Y842083D01*
X1170085Y840393D01*
X1172648Y839331D01*
X1174130Y839136D01*
Y848330D01*
D02*
G37*
G36*
X1135064D02*
X1125870D01*
Y839136D01*
X1127352Y839331D01*
X1129915Y840393D01*
X1132117Y842083D01*
X1133807Y844285D01*
X1134869Y846849D01*
X1135064Y848330D01*
D02*
G37*
G36*
X1123330D02*
X1114136D01*
X1114331Y846849D01*
X1115393Y844285D01*
X1117083Y842083D01*
X1119285Y840393D01*
X1121849Y839331D01*
X1123330Y839136D01*
Y848330D01*
D02*
G37*
G36*
X1085864D02*
X1076670D01*
Y839136D01*
X1078151Y839331D01*
X1080715Y840393D01*
X1082917Y842083D01*
X1084607Y844285D01*
X1085669Y846849D01*
X1085864Y848330D01*
D02*
G37*
G36*
X1074130D02*
X1064936D01*
X1065131Y846849D01*
X1066193Y844285D01*
X1067883Y842083D01*
X1070085Y840393D01*
X1072648Y839331D01*
X1074130Y839136D01*
Y848330D01*
D02*
G37*
G36*
X1035064D02*
X1025870D01*
Y839136D01*
X1027352Y839331D01*
X1029915Y840393D01*
X1032117Y842083D01*
X1033807Y844285D01*
X1034869Y846849D01*
X1035064Y848330D01*
D02*
G37*
G36*
X1023330D02*
X1014136D01*
X1014331Y846849D01*
X1015393Y844285D01*
X1017083Y842083D01*
X1019285Y840393D01*
X1021849Y839331D01*
X1023330Y839136D01*
Y848330D01*
D02*
G37*
G36*
X1610464Y847930D02*
X1601270D01*
Y838736D01*
X1602751Y838931D01*
X1605316Y839993D01*
X1607517Y841683D01*
X1609207Y843885D01*
X1610269Y846449D01*
X1610464Y847930D01*
D02*
G37*
G36*
X1598730D02*
X1589536D01*
X1589731Y846449D01*
X1590793Y843885D01*
X1592483Y841683D01*
X1594684Y839993D01*
X1597249Y838931D01*
X1598730Y838736D01*
Y847930D01*
D02*
G37*
G36*
X1559664D02*
X1550470D01*
Y838736D01*
X1551951Y838931D01*
X1554516Y839993D01*
X1556717Y841683D01*
X1558407Y843885D01*
X1559469Y846449D01*
X1559664Y847930D01*
D02*
G37*
G36*
X1547930D02*
X1538736D01*
X1538931Y846449D01*
X1539993Y843885D01*
X1541683Y841683D01*
X1543884Y839993D01*
X1546449Y838931D01*
X1547930Y838736D01*
Y847930D01*
D02*
G37*
G36*
X1510464D02*
X1501270D01*
Y838736D01*
X1502751Y838931D01*
X1505315Y839993D01*
X1507517Y841683D01*
X1509206Y843885D01*
X1510268Y846449D01*
X1510464Y847930D01*
D02*
G37*
G36*
X1498730D02*
X1489536D01*
X1489731Y846449D01*
X1490793Y843885D01*
X1492482Y841683D01*
X1494684Y839993D01*
X1497248Y838931D01*
X1498730Y838736D01*
Y847930D01*
D02*
G37*
G36*
X1459664D02*
X1450470D01*
Y838736D01*
X1451951Y838931D01*
X1454515Y839993D01*
X1456717Y841683D01*
X1458406Y843885D01*
X1459468Y846449D01*
X1459664Y847930D01*
D02*
G37*
G36*
X1447930D02*
X1438736D01*
X1438931Y846449D01*
X1439993Y843885D01*
X1441682Y841683D01*
X1443884Y839993D01*
X1446448Y838931D01*
X1447930Y838736D01*
Y847930D01*
D02*
G37*
G36*
X1410464D02*
X1401270D01*
Y838736D01*
X1402751Y838931D01*
X1405315Y839993D01*
X1407517Y841683D01*
X1409207Y843885D01*
X1410269Y846449D01*
X1410464Y847930D01*
D02*
G37*
G36*
X1398730D02*
X1389536D01*
X1389731Y846449D01*
X1390793Y843885D01*
X1392483Y841683D01*
X1394684Y839993D01*
X1397248Y838931D01*
X1398730Y838736D01*
Y847930D01*
D02*
G37*
G36*
X1359664D02*
X1350470D01*
Y838736D01*
X1351951Y838931D01*
X1354515Y839993D01*
X1356717Y841683D01*
X1358407Y843885D01*
X1359469Y846449D01*
X1359664Y847930D01*
D02*
G37*
G36*
X1347930D02*
X1338736D01*
X1338931Y846449D01*
X1339993Y843885D01*
X1341683Y841683D01*
X1343884Y839993D01*
X1346448Y838931D01*
X1347930Y838736D01*
Y847930D01*
D02*
G37*
G36*
X1310463D02*
X1301270D01*
Y838736D01*
X1302751Y838931D01*
X1305315Y839993D01*
X1307517Y841683D01*
X1309206Y843885D01*
X1310268Y846449D01*
X1310463Y847930D01*
D02*
G37*
G36*
X1298730D02*
X1289536D01*
X1289731Y846449D01*
X1290793Y843885D01*
X1292482Y841683D01*
X1294684Y839993D01*
X1297248Y838931D01*
X1298730Y838736D01*
Y847930D01*
D02*
G37*
G36*
X1259663D02*
X1250470D01*
Y838736D01*
X1251951Y838931D01*
X1254515Y839993D01*
X1256717Y841683D01*
X1258406Y843885D01*
X1259468Y846449D01*
X1259663Y847930D01*
D02*
G37*
G36*
X1247930D02*
X1238736D01*
X1238931Y846449D01*
X1239993Y843885D01*
X1241682Y841683D01*
X1243884Y839993D01*
X1246448Y838931D01*
X1247930Y838736D01*
Y847930D01*
D02*
G37*
G36*
X1576670Y785864D02*
Y776670D01*
X1585864D01*
X1585669Y778151D01*
X1584606Y780715D01*
X1582917Y782917D01*
X1580715Y784607D01*
X1578151Y785669D01*
X1576670Y785864D01*
D02*
G37*
G36*
X1574130D02*
X1572648Y785669D01*
X1570084Y784607D01*
X1567883Y782917D01*
X1566193Y780715D01*
X1565131Y778151D01*
X1564936Y776670D01*
X1574130D01*
Y785864D01*
D02*
G37*
G36*
X1525870D02*
Y776670D01*
X1535064D01*
X1534869Y778151D01*
X1533806Y780715D01*
X1532117Y782917D01*
X1529915Y784607D01*
X1527351Y785669D01*
X1525870Y785864D01*
D02*
G37*
G36*
X1523330D02*
X1521848Y785669D01*
X1519284Y784607D01*
X1517083Y782917D01*
X1515393Y780715D01*
X1514331Y778151D01*
X1514136Y776670D01*
X1523330D01*
Y785864D01*
D02*
G37*
G36*
X1133125Y775696D02*
Y765494D01*
X1143327D01*
X1143098Y767237D01*
X1141935Y770044D01*
X1140085Y772454D01*
X1137675Y774304D01*
X1134867Y775467D01*
X1133125Y775696D01*
D02*
G37*
G36*
X1130585D02*
X1128842Y775467D01*
X1126035Y774304D01*
X1123625Y772454D01*
X1121775Y770044D01*
X1120612Y767237D01*
X1120383Y765494D01*
X1130585D01*
Y775696D01*
D02*
G37*
G36*
X1585864Y774130D02*
X1576670D01*
Y764936D01*
X1578151Y765131D01*
X1580715Y766193D01*
X1582917Y767883D01*
X1584606Y770085D01*
X1585669Y772648D01*
X1585864Y774130D01*
D02*
G37*
G36*
X1574130D02*
X1564936D01*
X1565131Y772648D01*
X1566193Y770085D01*
X1567883Y767883D01*
X1570084Y766193D01*
X1572648Y765131D01*
X1574130Y764936D01*
Y774130D01*
D02*
G37*
G36*
X1535064D02*
X1525870D01*
Y764936D01*
X1527351Y765131D01*
X1529915Y766193D01*
X1532117Y767883D01*
X1533806Y770085D01*
X1534869Y772648D01*
X1535064Y774130D01*
D02*
G37*
G36*
X1523330D02*
X1514136D01*
X1514331Y772648D01*
X1515393Y770085D01*
X1517083Y767883D01*
X1519284Y766193D01*
X1521848Y765131D01*
X1523330Y764936D01*
Y774130D01*
D02*
G37*
G36*
X1143327Y762954D02*
X1133125D01*
Y752752D01*
X1134867Y752981D01*
X1137675Y754144D01*
X1140085Y755994D01*
X1141935Y758404D01*
X1143098Y761211D01*
X1143327Y762954D01*
D02*
G37*
G36*
X1130585D02*
X1120383D01*
X1120612Y761211D01*
X1121775Y758404D01*
X1123625Y755994D01*
X1126035Y754144D01*
X1128842Y752981D01*
X1130585Y752752D01*
Y762954D01*
D02*
G37*
G36*
X1352672Y775864D02*
X1349660Y775467D01*
X1346853Y774304D01*
X1344442Y772454D01*
X1342592Y770044D01*
X1341429Y767237D01*
X1341033Y764224D01*
X1341429Y761211D01*
X1342592Y758404D01*
X1344442Y755994D01*
X1346853Y754144D01*
X1349660Y752981D01*
X1352672Y752585D01*
X1355685Y752981D01*
X1358492Y754144D01*
X1360903Y755994D01*
X1362753Y758404D01*
X1363915Y761211D01*
X1364312Y764224D01*
X1363915Y767237D01*
X1362753Y770044D01*
X1360903Y772454D01*
X1358492Y774304D01*
X1355685Y775467D01*
X1352672Y775864D01*
D02*
G37*
G36*
X1325070D02*
X1322058Y775467D01*
X1319250Y774304D01*
X1316840Y772454D01*
X1314990Y770044D01*
X1313827Y767237D01*
X1313431Y764224D01*
X1313827Y761211D01*
X1314990Y758404D01*
X1316840Y755994D01*
X1319250Y754144D01*
X1322058Y752981D01*
X1325070Y752585D01*
X1328083Y752981D01*
X1330890Y754144D01*
X1333301Y755994D01*
X1335150Y758404D01*
X1336313Y761211D01*
X1336710Y764224D01*
X1336313Y767237D01*
X1335150Y770044D01*
X1333301Y772454D01*
X1330890Y774304D01*
X1328083Y775467D01*
X1325070Y775864D01*
D02*
G37*
G36*
X1297468D02*
X1294456Y775467D01*
X1291648Y774304D01*
X1289238Y772454D01*
X1287388Y770044D01*
X1286225Y767237D01*
X1285829Y764224D01*
X1286225Y761211D01*
X1287388Y758404D01*
X1289238Y755994D01*
X1291648Y754144D01*
X1294456Y752981D01*
X1297468Y752585D01*
X1300481Y752981D01*
X1303288Y754144D01*
X1305699Y755994D01*
X1307548Y758404D01*
X1308711Y761211D01*
X1309108Y764224D01*
X1308711Y767237D01*
X1307548Y770044D01*
X1305699Y772454D01*
X1303288Y774304D01*
X1300481Y775467D01*
X1297468Y775864D01*
D02*
G37*
G36*
X1269866D02*
X1266853Y775467D01*
X1264046Y774304D01*
X1261636Y772454D01*
X1259786Y770044D01*
X1258623Y767237D01*
X1258226Y764224D01*
X1258623Y761211D01*
X1259786Y758404D01*
X1261636Y755994D01*
X1264046Y754144D01*
X1266853Y752981D01*
X1269866Y752585D01*
X1272878Y752981D01*
X1275686Y754144D01*
X1278096Y755994D01*
X1279946Y758404D01*
X1281109Y761211D01*
X1281505Y764224D01*
X1281109Y767237D01*
X1279946Y770044D01*
X1278096Y772454D01*
X1275686Y774304D01*
X1272878Y775467D01*
X1269866Y775864D01*
D02*
G37*
G36*
X1242264D02*
X1239251Y775467D01*
X1236444Y774304D01*
X1234033Y772454D01*
X1232184Y770044D01*
X1231021Y767237D01*
X1230624Y764224D01*
X1231021Y761211D01*
X1232184Y758404D01*
X1234033Y755994D01*
X1236444Y754144D01*
X1239251Y752981D01*
X1242264Y752585D01*
X1245276Y752981D01*
X1248083Y754144D01*
X1250494Y755994D01*
X1252344Y758404D01*
X1253507Y761211D01*
X1253903Y764224D01*
X1253507Y767237D01*
X1252344Y770044D01*
X1250494Y772454D01*
X1248083Y774304D01*
X1245276Y775467D01*
X1242264Y775864D01*
D02*
G37*
G36*
X1214661D02*
X1211649Y775467D01*
X1208842Y774304D01*
X1206431Y772454D01*
X1204581Y770044D01*
X1203419Y767237D01*
X1203022Y764224D01*
X1203419Y761211D01*
X1204581Y758404D01*
X1206431Y755994D01*
X1208842Y754144D01*
X1211649Y752981D01*
X1214661Y752585D01*
X1217674Y752981D01*
X1220481Y754144D01*
X1222892Y755994D01*
X1224742Y758404D01*
X1225904Y761211D01*
X1226301Y764224D01*
X1225904Y767237D01*
X1224742Y770044D01*
X1222892Y772454D01*
X1220481Y774304D01*
X1217674Y775467D01*
X1214661Y775864D01*
D02*
G37*
G36*
X1187059D02*
X1184047Y775467D01*
X1181240Y774304D01*
X1178829Y772454D01*
X1176979Y770044D01*
X1175816Y767237D01*
X1175420Y764224D01*
X1175816Y761211D01*
X1176979Y758404D01*
X1178829Y755994D01*
X1181240Y754144D01*
X1184047Y752981D01*
X1187059Y752585D01*
X1190072Y752981D01*
X1192879Y754144D01*
X1195290Y755994D01*
X1197140Y758404D01*
X1198302Y761211D01*
X1198699Y764224D01*
X1198302Y767237D01*
X1197140Y770044D01*
X1195290Y772454D01*
X1192879Y774304D01*
X1190072Y775467D01*
X1187059Y775864D01*
D02*
G37*
G36*
X1159457D02*
X1156445Y775467D01*
X1153637Y774304D01*
X1151227Y772454D01*
X1149377Y770044D01*
X1148214Y767237D01*
X1147818Y764224D01*
X1148214Y761211D01*
X1149377Y758404D01*
X1151227Y755994D01*
X1153637Y754144D01*
X1156445Y752981D01*
X1159457Y752585D01*
X1162470Y752981D01*
X1165277Y754144D01*
X1167688Y755994D01*
X1169537Y758404D01*
X1170700Y761211D01*
X1171097Y764224D01*
X1170700Y767237D01*
X1169537Y770044D01*
X1167688Y772454D01*
X1165277Y774304D01*
X1162470Y775467D01*
X1159457Y775864D01*
D02*
G37*
G36*
X1104253D02*
X1101240Y775467D01*
X1098433Y774304D01*
X1096022Y772454D01*
X1094173Y770044D01*
X1093010Y767237D01*
X1092613Y764224D01*
X1093010Y761211D01*
X1094173Y758404D01*
X1096022Y755994D01*
X1098433Y754144D01*
X1101240Y752981D01*
X1104253Y752585D01*
X1107265Y752981D01*
X1110073Y754144D01*
X1112483Y755994D01*
X1114333Y758404D01*
X1115496Y761211D01*
X1115892Y764224D01*
X1115496Y767237D01*
X1114333Y770044D01*
X1112483Y772454D01*
X1110073Y774304D01*
X1107265Y775467D01*
X1104253Y775864D01*
D02*
G37*
G36*
X1076651D02*
X1073638Y775467D01*
X1070831Y774304D01*
X1068420Y772454D01*
X1066571Y770044D01*
X1065408Y767237D01*
X1065011Y764224D01*
X1065408Y761211D01*
X1066571Y758404D01*
X1068420Y755994D01*
X1070831Y754144D01*
X1073638Y752981D01*
X1076651Y752585D01*
X1079663Y752981D01*
X1082470Y754144D01*
X1084881Y755994D01*
X1086731Y758404D01*
X1087894Y761211D01*
X1088290Y764224D01*
X1087894Y767237D01*
X1086731Y770044D01*
X1084881Y772454D01*
X1082470Y774304D01*
X1079663Y775467D01*
X1076651Y775864D01*
D02*
G37*
G36*
X1049048D02*
X1046036Y775467D01*
X1043229Y774304D01*
X1040818Y772454D01*
X1038968Y770044D01*
X1037805Y767237D01*
X1037409Y764224D01*
X1037805Y761211D01*
X1038968Y758404D01*
X1040818Y755994D01*
X1043229Y754144D01*
X1046036Y752981D01*
X1049048Y752585D01*
X1052061Y752981D01*
X1054868Y754144D01*
X1057279Y755994D01*
X1059129Y758404D01*
X1060291Y761211D01*
X1060688Y764224D01*
X1060291Y767237D01*
X1059129Y770044D01*
X1057279Y772454D01*
X1054868Y774304D01*
X1052061Y775467D01*
X1049048Y775864D01*
D02*
G37*
G36*
X1021446D02*
X1018434Y775467D01*
X1015627Y774304D01*
X1013216Y772454D01*
X1011366Y770044D01*
X1010203Y767237D01*
X1009807Y764224D01*
X1010203Y761211D01*
X1011366Y758404D01*
X1013216Y755994D01*
X1015627Y754144D01*
X1018434Y752981D01*
X1021446Y752585D01*
X1024459Y752981D01*
X1027266Y754144D01*
X1029677Y755994D01*
X1031526Y758404D01*
X1032689Y761211D01*
X1033086Y764224D01*
X1032689Y767237D01*
X1031526Y770044D01*
X1029677Y772454D01*
X1027266Y774304D01*
X1024459Y775467D01*
X1021446Y775864D01*
D02*
G37*
G36*
X993844D02*
X990832Y775467D01*
X988024Y774304D01*
X985614Y772454D01*
X983764Y770044D01*
X982601Y767237D01*
X982205Y764224D01*
X982601Y761211D01*
X983764Y758404D01*
X985614Y755994D01*
X988024Y754144D01*
X990832Y752981D01*
X993844Y752585D01*
X996857Y752981D01*
X999664Y754144D01*
X1002075Y755994D01*
X1003924Y758404D01*
X1005087Y761211D01*
X1005484Y764224D01*
X1005087Y767237D01*
X1003924Y770044D01*
X1002075Y772454D01*
X999664Y774304D01*
X996857Y775467D01*
X993844Y775864D01*
D02*
G37*
G36*
X966242D02*
X963229Y775467D01*
X960422Y774304D01*
X958011Y772454D01*
X956162Y770044D01*
X954999Y767237D01*
X954602Y764224D01*
X954999Y761211D01*
X956162Y758404D01*
X958011Y755994D01*
X960422Y754144D01*
X963229Y752981D01*
X966242Y752585D01*
X969254Y752981D01*
X972062Y754144D01*
X974472Y755994D01*
X976322Y758404D01*
X977485Y761211D01*
X977881Y764224D01*
X977485Y767237D01*
X976322Y770044D01*
X974472Y772454D01*
X972062Y774304D01*
X969254Y775467D01*
X966242Y775864D01*
D02*
G37*
G36*
X938640D02*
X935627Y775467D01*
X932820Y774304D01*
X930409Y772454D01*
X928560Y770044D01*
X927397Y767237D01*
X927000Y764224D01*
X927397Y761211D01*
X928560Y758404D01*
X930409Y755994D01*
X932820Y754144D01*
X935627Y752981D01*
X938640Y752585D01*
X941652Y752981D01*
X944460Y754144D01*
X946870Y755994D01*
X948720Y758404D01*
X949883Y761211D01*
X950279Y764224D01*
X949883Y767237D01*
X948720Y770044D01*
X946870Y772454D01*
X944460Y774304D01*
X941652Y775467D01*
X938640Y775864D01*
D02*
G37*
G36*
X911038D02*
X908025Y775467D01*
X905218Y774304D01*
X902807Y772454D01*
X900957Y770044D01*
X899795Y767237D01*
X899398Y764224D01*
X899795Y761211D01*
X900957Y758404D01*
X902807Y755994D01*
X905218Y754144D01*
X908025Y752981D01*
X911038Y752585D01*
X914050Y752981D01*
X916857Y754144D01*
X919268Y755994D01*
X921118Y758404D01*
X922281Y761211D01*
X922677Y764224D01*
X922281Y767237D01*
X921118Y770044D01*
X919268Y772454D01*
X916857Y774304D01*
X914050Y775467D01*
X911038Y775864D01*
D02*
G37*
G36*
X883435D02*
X880423Y775467D01*
X877616Y774304D01*
X875205Y772454D01*
X873355Y770044D01*
X872192Y767237D01*
X871796Y764224D01*
X872192Y761211D01*
X873355Y758404D01*
X875205Y755994D01*
X877616Y754144D01*
X880423Y752981D01*
X883435Y752585D01*
X886448Y752981D01*
X889255Y754144D01*
X891666Y755994D01*
X893515Y758404D01*
X894678Y761211D01*
X895075Y764224D01*
X894678Y767237D01*
X893515Y770044D01*
X891666Y772454D01*
X889255Y774304D01*
X886448Y775467D01*
X883435Y775864D01*
D02*
G37*
G36*
X1437283Y780033D02*
Y751270D01*
X1466046D01*
X1465775Y754714D01*
X1464671Y759312D01*
X1462862Y763680D01*
X1460391Y767712D01*
X1457321Y771307D01*
X1453725Y774378D01*
X1449693Y776849D01*
X1445325Y778658D01*
X1440727Y779762D01*
X1437283Y780033D01*
D02*
G37*
G36*
X801270D02*
Y751270D01*
X830033D01*
X829762Y754714D01*
X828658Y759312D01*
X826849Y763680D01*
X824378Y767712D01*
X821307Y771307D01*
X817712Y774378D01*
X813680Y776849D01*
X809312Y778658D01*
X804714Y779762D01*
X801270Y780033D01*
D02*
G37*
G36*
X1434743D02*
X1431300Y779762D01*
X1426702Y778658D01*
X1422333Y776849D01*
X1418302Y774378D01*
X1414706Y771307D01*
X1411635Y767712D01*
X1409165Y763680D01*
X1407355Y759312D01*
X1406252Y754714D01*
X1405980Y751270D01*
X1434743D01*
Y780033D01*
D02*
G37*
G36*
X798730D02*
X795286Y779762D01*
X790688Y778658D01*
X786320Y776849D01*
X782288Y774378D01*
X778693Y771307D01*
X775622Y767712D01*
X773151Y763680D01*
X771342Y759312D01*
X770238Y754714D01*
X769967Y751270D01*
X798730D01*
Y780033D01*
D02*
G37*
G36*
X1550000Y760631D02*
X1547248Y760269D01*
X1544684Y759207D01*
X1542483Y757517D01*
X1540793Y755315D01*
X1539731Y752751D01*
X1539369Y750000D01*
X1539731Y747249D01*
X1540793Y744685D01*
X1542483Y742483D01*
X1544684Y740793D01*
X1547248Y739731D01*
X1550000Y739369D01*
X1552751Y739731D01*
X1555315Y740793D01*
X1557517Y742483D01*
X1559207Y744685D01*
X1560269Y747249D01*
X1560631Y750000D01*
X1560269Y752751D01*
X1559207Y755315D01*
X1557517Y757517D01*
X1555315Y759207D01*
X1552751Y760269D01*
X1550000Y760631D01*
D02*
G37*
G36*
X1119282Y747248D02*
Y737046D01*
X1129484D01*
X1129255Y738789D01*
X1128092Y741596D01*
X1126242Y744006D01*
X1123832Y745856D01*
X1121024Y747019D01*
X1119282Y747248D01*
D02*
G37*
G36*
X1116742D02*
X1114999Y747019D01*
X1112192Y745856D01*
X1109782Y744006D01*
X1107932Y741596D01*
X1106769Y738789D01*
X1106540Y737046D01*
X1116742D01*
Y747248D01*
D02*
G37*
G36*
X1576670Y735064D02*
Y725870D01*
X1585864D01*
X1585669Y727352D01*
X1584606Y729915D01*
X1582917Y732117D01*
X1580715Y733807D01*
X1578151Y734869D01*
X1576670Y735064D01*
D02*
G37*
G36*
X1574130D02*
X1572648Y734869D01*
X1570084Y733807D01*
X1567883Y732117D01*
X1566193Y729915D01*
X1565131Y727352D01*
X1564936Y725870D01*
X1574130D01*
Y735064D01*
D02*
G37*
G36*
X1525870D02*
Y725870D01*
X1535064D01*
X1534869Y727352D01*
X1533806Y729915D01*
X1532117Y732117D01*
X1529915Y733807D01*
X1527351Y734869D01*
X1525870Y735064D01*
D02*
G37*
G36*
X1523330D02*
X1521848Y734869D01*
X1519284Y733807D01*
X1517083Y732117D01*
X1515393Y729915D01*
X1514331Y727352D01*
X1514136Y725870D01*
X1523330D01*
Y735064D01*
D02*
G37*
G36*
X1129484Y734506D02*
X1119282D01*
Y724304D01*
X1121024Y724533D01*
X1123832Y725696D01*
X1126242Y727546D01*
X1128092Y729956D01*
X1129255Y732764D01*
X1129484Y734506D01*
D02*
G37*
G36*
X1116742D02*
X1106540D01*
X1106769Y732764D01*
X1107932Y729956D01*
X1109782Y727546D01*
X1112192Y725696D01*
X1114999Y724533D01*
X1116742Y724304D01*
Y734506D01*
D02*
G37*
G36*
X1366432Y747416D02*
X1363419Y747019D01*
X1360612Y745856D01*
X1358201Y744006D01*
X1356351Y741596D01*
X1355189Y738789D01*
X1354792Y735776D01*
X1355189Y732764D01*
X1356351Y729956D01*
X1358201Y727546D01*
X1360612Y725696D01*
X1363419Y724533D01*
X1366432Y724137D01*
X1369444Y724533D01*
X1372251Y725696D01*
X1374662Y727546D01*
X1376512Y729956D01*
X1377675Y732764D01*
X1378071Y735776D01*
X1377675Y738789D01*
X1376512Y741596D01*
X1374662Y744006D01*
X1372251Y745856D01*
X1369444Y747019D01*
X1366432Y747416D01*
D02*
G37*
G36*
X1338829D02*
X1335817Y747019D01*
X1333010Y745856D01*
X1330599Y744006D01*
X1328749Y741596D01*
X1327587Y738789D01*
X1327190Y735776D01*
X1327587Y732764D01*
X1328749Y729956D01*
X1330599Y727546D01*
X1333010Y725696D01*
X1335817Y724533D01*
X1338829Y724137D01*
X1341842Y724533D01*
X1344649Y725696D01*
X1347060Y727546D01*
X1348910Y729956D01*
X1350072Y732764D01*
X1350469Y735776D01*
X1350072Y738789D01*
X1348910Y741596D01*
X1347060Y744006D01*
X1344649Y745856D01*
X1341842Y747019D01*
X1338829Y747416D01*
D02*
G37*
G36*
X1311227D02*
X1308215Y747019D01*
X1305408Y745856D01*
X1302997Y744006D01*
X1301147Y741596D01*
X1299984Y738789D01*
X1299588Y735776D01*
X1299984Y732764D01*
X1301147Y729956D01*
X1302997Y727546D01*
X1305408Y725696D01*
X1308215Y724533D01*
X1311227Y724137D01*
X1314240Y724533D01*
X1317047Y725696D01*
X1319458Y727546D01*
X1321307Y729956D01*
X1322470Y732764D01*
X1322867Y735776D01*
X1322470Y738789D01*
X1321307Y741596D01*
X1319458Y744006D01*
X1317047Y745856D01*
X1314240Y747019D01*
X1311227Y747416D01*
D02*
G37*
G36*
X1283625D02*
X1280612Y747019D01*
X1277805Y745856D01*
X1275395Y744006D01*
X1273545Y741596D01*
X1272382Y738789D01*
X1271985Y735776D01*
X1272382Y732764D01*
X1273545Y729956D01*
X1275395Y727546D01*
X1277805Y725696D01*
X1280612Y724533D01*
X1283625Y724137D01*
X1286638Y724533D01*
X1289445Y725696D01*
X1291855Y727546D01*
X1293705Y729956D01*
X1294868Y732764D01*
X1295265Y735776D01*
X1294868Y738789D01*
X1293705Y741596D01*
X1291855Y744006D01*
X1289445Y745856D01*
X1286638Y747019D01*
X1283625Y747416D01*
D02*
G37*
G36*
X1256023D02*
X1253010Y747019D01*
X1250203Y745856D01*
X1247793Y744006D01*
X1245943Y741596D01*
X1244780Y738789D01*
X1244383Y735776D01*
X1244780Y732764D01*
X1245943Y729956D01*
X1247793Y727546D01*
X1250203Y725696D01*
X1253010Y724533D01*
X1256023Y724137D01*
X1259035Y724533D01*
X1261843Y725696D01*
X1264253Y727546D01*
X1266103Y729956D01*
X1267266Y732764D01*
X1267662Y735776D01*
X1267266Y738789D01*
X1266103Y741596D01*
X1264253Y744006D01*
X1261843Y745856D01*
X1259035Y747019D01*
X1256023Y747416D01*
D02*
G37*
G36*
X1228421D02*
X1225408Y747019D01*
X1222601Y745856D01*
X1220190Y744006D01*
X1218341Y741596D01*
X1217178Y738789D01*
X1216781Y735776D01*
X1217178Y732764D01*
X1218341Y729956D01*
X1220190Y727546D01*
X1222601Y725696D01*
X1225408Y724533D01*
X1228421Y724137D01*
X1231433Y724533D01*
X1234240Y725696D01*
X1236651Y727546D01*
X1238501Y729956D01*
X1239664Y732764D01*
X1240060Y735776D01*
X1239664Y738789D01*
X1238501Y741596D01*
X1236651Y744006D01*
X1234240Y745856D01*
X1231433Y747019D01*
X1228421Y747416D01*
D02*
G37*
G36*
X1200818D02*
X1197806Y747019D01*
X1194999Y745856D01*
X1192588Y744006D01*
X1190738Y741596D01*
X1189576Y738789D01*
X1189179Y735776D01*
X1189576Y732764D01*
X1190738Y729956D01*
X1192588Y727546D01*
X1194999Y725696D01*
X1197806Y724533D01*
X1200818Y724137D01*
X1203831Y724533D01*
X1206638Y725696D01*
X1209049Y727546D01*
X1210899Y729956D01*
X1212061Y732764D01*
X1212458Y735776D01*
X1212061Y738789D01*
X1210899Y741596D01*
X1209049Y744006D01*
X1206638Y745856D01*
X1203831Y747019D01*
X1200818Y747416D01*
D02*
G37*
G36*
X1173216D02*
X1170204Y747019D01*
X1167397Y745856D01*
X1164986Y744006D01*
X1163136Y741596D01*
X1161973Y738789D01*
X1161577Y735776D01*
X1161973Y732764D01*
X1163136Y729956D01*
X1164986Y727546D01*
X1167397Y725696D01*
X1170204Y724533D01*
X1173216Y724137D01*
X1176229Y724533D01*
X1179036Y725696D01*
X1181447Y727546D01*
X1183297Y729956D01*
X1184459Y732764D01*
X1184856Y735776D01*
X1184459Y738789D01*
X1183297Y741596D01*
X1181447Y744006D01*
X1179036Y745856D01*
X1176229Y747019D01*
X1173216Y747416D01*
D02*
G37*
G36*
X1145614D02*
X1142602Y747019D01*
X1139794Y745856D01*
X1137384Y744006D01*
X1135534Y741596D01*
X1134371Y738789D01*
X1133975Y735776D01*
X1134371Y732764D01*
X1135534Y729956D01*
X1137384Y727546D01*
X1139794Y725696D01*
X1142602Y724533D01*
X1145614Y724137D01*
X1148627Y724533D01*
X1151434Y725696D01*
X1153845Y727546D01*
X1155694Y729956D01*
X1156857Y732764D01*
X1157254Y735776D01*
X1156857Y738789D01*
X1155694Y741596D01*
X1153845Y744006D01*
X1151434Y745856D01*
X1148627Y747019D01*
X1145614Y747416D01*
D02*
G37*
G36*
X1090410D02*
X1087397Y747019D01*
X1084590Y745856D01*
X1082179Y744006D01*
X1080330Y741596D01*
X1079167Y738789D01*
X1078770Y735776D01*
X1079167Y732764D01*
X1080330Y729956D01*
X1082179Y727546D01*
X1084590Y725696D01*
X1087397Y724533D01*
X1090410Y724137D01*
X1093422Y724533D01*
X1096230Y725696D01*
X1098640Y727546D01*
X1100490Y729956D01*
X1101653Y732764D01*
X1102049Y735776D01*
X1101653Y738789D01*
X1100490Y741596D01*
X1098640Y744006D01*
X1096230Y745856D01*
X1093422Y747019D01*
X1090410Y747416D01*
D02*
G37*
G36*
X1062808D02*
X1059795Y747019D01*
X1056988Y745856D01*
X1054577Y744006D01*
X1052728Y741596D01*
X1051565Y738789D01*
X1051168Y735776D01*
X1051565Y732764D01*
X1052728Y729956D01*
X1054577Y727546D01*
X1056988Y725696D01*
X1059795Y724533D01*
X1062808Y724137D01*
X1065820Y724533D01*
X1068627Y725696D01*
X1071038Y727546D01*
X1072888Y729956D01*
X1074051Y732764D01*
X1074447Y735776D01*
X1074051Y738789D01*
X1072888Y741596D01*
X1071038Y744006D01*
X1068627Y745856D01*
X1065820Y747019D01*
X1062808Y747416D01*
D02*
G37*
G36*
X1035205D02*
X1032193Y747019D01*
X1029386Y745856D01*
X1026975Y744006D01*
X1025125Y741596D01*
X1023962Y738789D01*
X1023566Y735776D01*
X1023962Y732764D01*
X1025125Y729956D01*
X1026975Y727546D01*
X1029386Y725696D01*
X1032193Y724533D01*
X1035205Y724137D01*
X1038218Y724533D01*
X1041025Y725696D01*
X1043436Y727546D01*
X1045286Y729956D01*
X1046448Y732764D01*
X1046845Y735776D01*
X1046448Y738789D01*
X1045286Y741596D01*
X1043436Y744006D01*
X1041025Y745856D01*
X1038218Y747019D01*
X1035205Y747416D01*
D02*
G37*
G36*
X1007603D02*
X1004591Y747019D01*
X1001784Y745856D01*
X999373Y744006D01*
X997523Y741596D01*
X996360Y738789D01*
X995964Y735776D01*
X996360Y732764D01*
X997523Y729956D01*
X999373Y727546D01*
X1001784Y725696D01*
X1004591Y724533D01*
X1007603Y724137D01*
X1010616Y724533D01*
X1013423Y725696D01*
X1015834Y727546D01*
X1017683Y729956D01*
X1018846Y732764D01*
X1019243Y735776D01*
X1018846Y738789D01*
X1017683Y741596D01*
X1015834Y744006D01*
X1013423Y745856D01*
X1010616Y747019D01*
X1007603Y747416D01*
D02*
G37*
G36*
X980001D02*
X976989Y747019D01*
X974181Y745856D01*
X971771Y744006D01*
X969921Y741596D01*
X968758Y738789D01*
X968362Y735776D01*
X968758Y732764D01*
X969921Y729956D01*
X971771Y727546D01*
X974181Y725696D01*
X976989Y724533D01*
X980001Y724137D01*
X983014Y724533D01*
X985821Y725696D01*
X988232Y727546D01*
X990081Y729956D01*
X991244Y732764D01*
X991641Y735776D01*
X991244Y738789D01*
X990081Y741596D01*
X988232Y744006D01*
X985821Y745856D01*
X983014Y747019D01*
X980001Y747416D01*
D02*
G37*
G36*
X952399D02*
X949386Y747019D01*
X946579Y745856D01*
X944168Y744006D01*
X942319Y741596D01*
X941156Y738789D01*
X940759Y735776D01*
X941156Y732764D01*
X942319Y729956D01*
X944168Y727546D01*
X946579Y725696D01*
X949386Y724533D01*
X952399Y724137D01*
X955411Y724533D01*
X958219Y725696D01*
X960629Y727546D01*
X962479Y729956D01*
X963642Y732764D01*
X964038Y735776D01*
X963642Y738789D01*
X962479Y741596D01*
X960629Y744006D01*
X958219Y745856D01*
X955411Y747019D01*
X952399Y747416D01*
D02*
G37*
G36*
X924797D02*
X921784Y747019D01*
X918977Y745856D01*
X916566Y744006D01*
X914717Y741596D01*
X913554Y738789D01*
X913157Y735776D01*
X913554Y732764D01*
X914717Y729956D01*
X916566Y727546D01*
X918977Y725696D01*
X921784Y724533D01*
X924797Y724137D01*
X927809Y724533D01*
X930617Y725696D01*
X933027Y727546D01*
X934877Y729956D01*
X936040Y732764D01*
X936436Y735776D01*
X936040Y738789D01*
X934877Y741596D01*
X933027Y744006D01*
X930617Y745856D01*
X927809Y747019D01*
X924797Y747416D01*
D02*
G37*
G36*
X897195D02*
X894182Y747019D01*
X891375Y745856D01*
X888964Y744006D01*
X887114Y741596D01*
X885952Y738789D01*
X885555Y735776D01*
X885952Y732764D01*
X887114Y729956D01*
X888964Y727546D01*
X891375Y725696D01*
X894182Y724533D01*
X897195Y724137D01*
X900207Y724533D01*
X903014Y725696D01*
X905425Y727546D01*
X907275Y729956D01*
X908438Y732764D01*
X908834Y735776D01*
X908438Y738789D01*
X907275Y741596D01*
X905425Y744006D01*
X903014Y745856D01*
X900207Y747019D01*
X897195Y747416D01*
D02*
G37*
G36*
X869592D02*
X866580Y747019D01*
X863773Y745856D01*
X861362Y744006D01*
X859512Y741596D01*
X858349Y738789D01*
X857953Y735776D01*
X858349Y732764D01*
X859512Y729956D01*
X861362Y727546D01*
X863773Y725696D01*
X866580Y724533D01*
X869592Y724137D01*
X872605Y724533D01*
X875412Y725696D01*
X877823Y727546D01*
X879672Y729956D01*
X880835Y732764D01*
X881232Y735776D01*
X880835Y738789D01*
X879672Y741596D01*
X877823Y744006D01*
X875412Y745856D01*
X872605Y747019D01*
X869592Y747416D01*
D02*
G37*
G36*
X830033Y748730D02*
X801270D01*
Y719967D01*
X804714Y720238D01*
X809312Y721342D01*
X813680Y723151D01*
X817712Y725622D01*
X821307Y728693D01*
X824378Y732288D01*
X826849Y736320D01*
X828658Y740688D01*
X829762Y745286D01*
X830033Y748730D01*
D02*
G37*
G36*
X1466046D02*
X1437283D01*
Y719967D01*
X1440727Y720238D01*
X1445325Y721342D01*
X1449693Y723151D01*
X1453725Y725622D01*
X1457321Y728693D01*
X1460391Y732288D01*
X1462862Y736320D01*
X1464671Y740688D01*
X1465775Y745286D01*
X1466046Y748730D01*
D02*
G37*
G36*
X1434743D02*
X1405980D01*
X1406252Y745286D01*
X1407355Y740688D01*
X1409165Y736320D01*
X1411635Y732288D01*
X1414706Y728693D01*
X1418302Y725622D01*
X1422333Y723151D01*
X1426702Y721342D01*
X1431300Y720238D01*
X1434743Y719967D01*
Y748730D01*
D02*
G37*
G36*
X798730D02*
X769967D01*
X770238Y745286D01*
X771342Y740688D01*
X773151Y736320D01*
X775622Y732288D01*
X778693Y728693D01*
X782288Y725622D01*
X786320Y723151D01*
X790688Y721342D01*
X795286Y720238D01*
X798730Y719967D01*
Y748730D01*
D02*
G37*
G36*
X1585864Y723330D02*
X1576670D01*
Y714136D01*
X1578151Y714331D01*
X1580715Y715393D01*
X1582917Y717083D01*
X1584606Y719285D01*
X1585669Y721849D01*
X1585864Y723330D01*
D02*
G37*
G36*
X1574130D02*
X1564936D01*
X1565131Y721849D01*
X1566193Y719285D01*
X1567883Y717083D01*
X1570084Y715393D01*
X1572648Y714331D01*
X1574130Y714136D01*
Y723330D01*
D02*
G37*
G36*
X1535064D02*
X1525870D01*
Y714136D01*
X1527351Y714331D01*
X1529915Y715393D01*
X1532117Y717083D01*
X1533806Y719285D01*
X1534869Y721849D01*
X1535064Y723330D01*
D02*
G37*
G36*
X1523330D02*
X1514136D01*
X1514331Y721849D01*
X1515393Y719285D01*
X1517083Y717083D01*
X1519284Y715393D01*
X1521848Y714331D01*
X1523330Y714136D01*
Y723330D01*
D02*
G37*
G36*
X1126670Y660864D02*
Y651670D01*
X1135864D01*
X1135668Y653151D01*
X1134606Y655715D01*
X1132917Y657917D01*
X1130715Y659606D01*
X1128151Y660668D01*
X1126670Y660864D01*
D02*
G37*
G36*
X1124130D02*
X1122648Y660668D01*
X1120084Y659606D01*
X1117883Y657917D01*
X1116193Y655715D01*
X1115131Y653151D01*
X1114936Y651670D01*
X1124130D01*
Y660864D01*
D02*
G37*
G36*
X1075870D02*
Y651670D01*
X1085064D01*
X1084868Y653151D01*
X1083807Y655715D01*
X1082117Y657917D01*
X1079915Y659606D01*
X1077351Y660668D01*
X1075870Y660864D01*
D02*
G37*
G36*
X1073330D02*
X1071848Y660668D01*
X1069284Y659606D01*
X1067083Y657917D01*
X1065393Y655715D01*
X1064331Y653151D01*
X1064136Y651670D01*
X1073330D01*
Y660864D01*
D02*
G37*
G36*
X1601270Y660464D02*
Y651270D01*
X1610464D01*
X1610269Y652751D01*
X1609207Y655315D01*
X1607517Y657517D01*
X1605316Y659207D01*
X1602751Y660269D01*
X1601270Y660464D01*
D02*
G37*
G36*
X1598730D02*
X1597249Y660269D01*
X1594684Y659207D01*
X1592483Y657517D01*
X1590793Y655315D01*
X1589731Y652751D01*
X1589536Y651270D01*
X1598730D01*
Y660464D01*
D02*
G37*
G36*
X1550470D02*
Y651270D01*
X1559664D01*
X1559469Y652751D01*
X1558407Y655315D01*
X1556717Y657517D01*
X1554516Y659207D01*
X1551951Y660269D01*
X1550470Y660464D01*
D02*
G37*
G36*
X1547930D02*
X1546449Y660269D01*
X1543884Y659207D01*
X1541683Y657517D01*
X1539993Y655315D01*
X1538931Y652751D01*
X1538736Y651270D01*
X1547930D01*
Y660464D01*
D02*
G37*
G36*
X1501270D02*
Y651270D01*
X1510464D01*
X1510268Y652751D01*
X1509206Y655315D01*
X1507517Y657517D01*
X1505315Y659207D01*
X1502751Y660269D01*
X1501270Y660464D01*
D02*
G37*
G36*
X1498730D02*
X1497248Y660269D01*
X1494684Y659207D01*
X1492482Y657517D01*
X1490793Y655315D01*
X1489731Y652751D01*
X1489536Y651270D01*
X1498730D01*
Y660464D01*
D02*
G37*
G36*
X1450470D02*
Y651270D01*
X1459664D01*
X1459468Y652751D01*
X1458406Y655315D01*
X1456717Y657517D01*
X1454515Y659207D01*
X1451951Y660269D01*
X1450470Y660464D01*
D02*
G37*
G36*
X1447930D02*
X1446448Y660269D01*
X1443884Y659207D01*
X1441682Y657517D01*
X1439993Y655315D01*
X1438931Y652751D01*
X1438736Y651270D01*
X1447930D01*
Y660464D01*
D02*
G37*
G36*
X1401270D02*
Y651270D01*
X1410464D01*
X1410269Y652751D01*
X1409207Y655315D01*
X1407517Y657517D01*
X1405315Y659207D01*
X1402751Y660269D01*
X1401270Y660464D01*
D02*
G37*
G36*
X1398730D02*
X1397248Y660269D01*
X1394684Y659207D01*
X1392483Y657517D01*
X1390793Y655315D01*
X1389731Y652751D01*
X1389536Y651270D01*
X1398730D01*
Y660464D01*
D02*
G37*
G36*
X1350470D02*
Y651270D01*
X1359664D01*
X1359469Y652751D01*
X1358407Y655315D01*
X1356717Y657517D01*
X1354515Y659207D01*
X1351951Y660269D01*
X1350470Y660464D01*
D02*
G37*
G36*
X1347930D02*
X1346448Y660269D01*
X1343884Y659207D01*
X1341683Y657517D01*
X1339993Y655315D01*
X1338931Y652751D01*
X1338736Y651270D01*
X1347930D01*
Y660464D01*
D02*
G37*
G36*
X1301270D02*
Y651270D01*
X1310463D01*
X1310268Y652751D01*
X1309206Y655315D01*
X1307517Y657517D01*
X1305315Y659207D01*
X1302751Y660269D01*
X1301270Y660464D01*
D02*
G37*
G36*
X1298730D02*
X1297248Y660269D01*
X1294684Y659207D01*
X1292482Y657517D01*
X1290793Y655315D01*
X1289731Y652751D01*
X1289536Y651270D01*
X1298730D01*
Y660464D01*
D02*
G37*
G36*
X1250470D02*
Y651270D01*
X1259663D01*
X1259468Y652751D01*
X1258406Y655315D01*
X1256717Y657517D01*
X1254515Y659207D01*
X1251951Y660269D01*
X1250470Y660464D01*
D02*
G37*
G36*
X1247930D02*
X1246448Y660269D01*
X1243884Y659207D01*
X1241682Y657517D01*
X1239993Y655315D01*
X1238931Y652751D01*
X1238736Y651270D01*
X1247930D01*
Y660464D01*
D02*
G37*
G36*
X952070D02*
Y651270D01*
X961264D01*
X961069Y652751D01*
X960007Y655315D01*
X958317Y657517D01*
X956115Y659207D01*
X953551Y660269D01*
X952070Y660464D01*
D02*
G37*
G36*
X949530D02*
X948048Y660269D01*
X945484Y659207D01*
X943283Y657517D01*
X941593Y655315D01*
X940531Y652751D01*
X940336Y651270D01*
X949530D01*
Y660464D01*
D02*
G37*
G36*
X901270D02*
Y651270D01*
X910464D01*
X910269Y652751D01*
X909207Y655315D01*
X907517Y657517D01*
X905315Y659207D01*
X902751Y660269D01*
X901270Y660464D01*
D02*
G37*
G36*
X898730D02*
X897248Y660269D01*
X894684Y659207D01*
X892483Y657517D01*
X890793Y655315D01*
X889731Y652751D01*
X889536Y651270D01*
X898730D01*
Y660464D01*
D02*
G37*
G36*
X852070D02*
Y651270D01*
X861264D01*
X861069Y652751D01*
X860007Y655315D01*
X858317Y657517D01*
X856116Y659207D01*
X853552Y660269D01*
X852070Y660464D01*
D02*
G37*
G36*
X849530D02*
X848049Y660269D01*
X845485Y659207D01*
X843283Y657517D01*
X841593Y655315D01*
X840531Y652751D01*
X840336Y651270D01*
X849530D01*
Y660464D01*
D02*
G37*
G36*
X801270D02*
Y651270D01*
X810464D01*
X810269Y652751D01*
X809207Y655315D01*
X807517Y657517D01*
X805316Y659207D01*
X802752Y660269D01*
X801270Y660464D01*
D02*
G37*
G36*
X798730D02*
X797249Y660269D01*
X794685Y659207D01*
X792483Y657517D01*
X790793Y655315D01*
X789731Y652751D01*
X789536Y651270D01*
X798730D01*
Y660464D01*
D02*
G37*
G36*
X752070D02*
Y651270D01*
X761264D01*
X761069Y652751D01*
X760007Y655315D01*
X758317Y657517D01*
X756116Y659207D01*
X753552Y660269D01*
X752070Y660464D01*
D02*
G37*
G36*
X749530D02*
X748049Y660269D01*
X745485Y659207D01*
X743283Y657517D01*
X741594Y655315D01*
X740532Y652751D01*
X740337Y651270D01*
X749530D01*
Y660464D01*
D02*
G37*
G36*
X701270D02*
Y651270D01*
X710464D01*
X710269Y652751D01*
X709207Y655315D01*
X707517Y657517D01*
X705316Y659207D01*
X702752Y660269D01*
X701270Y660464D01*
D02*
G37*
G36*
X698730D02*
X697249Y660269D01*
X694685Y659207D01*
X692483Y657517D01*
X690794Y655315D01*
X689732Y652751D01*
X689537Y651270D01*
X698730D01*
Y660464D01*
D02*
G37*
G36*
X652070D02*
Y651270D01*
X661264D01*
X661069Y652751D01*
X660007Y655315D01*
X658317Y657517D01*
X656115Y659207D01*
X653551Y660269D01*
X652070Y660464D01*
D02*
G37*
G36*
X649530D02*
X648048Y660269D01*
X645484Y659207D01*
X643283Y657517D01*
X641593Y655315D01*
X640531Y652751D01*
X640336Y651270D01*
X649530D01*
Y660464D01*
D02*
G37*
G36*
X601270D02*
Y651270D01*
X610464D01*
X610269Y652751D01*
X609207Y655315D01*
X607517Y657517D01*
X605316Y659207D01*
X602752Y660269D01*
X601270Y660464D01*
D02*
G37*
G36*
X598730D02*
X597248Y660269D01*
X594684Y659207D01*
X592483Y657517D01*
X590793Y655315D01*
X589731Y652751D01*
X589536Y651270D01*
X598730D01*
Y660464D01*
D02*
G37*
G36*
X1135864Y649130D02*
X1126670D01*
Y639936D01*
X1128151Y640131D01*
X1130715Y641193D01*
X1132917Y642883D01*
X1134606Y645084D01*
X1135668Y647648D01*
X1135864Y649130D01*
D02*
G37*
G36*
X1124130D02*
X1114936D01*
X1115131Y647648D01*
X1116193Y645084D01*
X1117883Y642883D01*
X1120084Y641193D01*
X1122648Y640131D01*
X1124130Y639936D01*
Y649130D01*
D02*
G37*
G36*
X1085064D02*
X1075870D01*
Y639936D01*
X1077351Y640131D01*
X1079915Y641193D01*
X1082117Y642883D01*
X1083807Y645084D01*
X1084868Y647648D01*
X1085064Y649130D01*
D02*
G37*
G36*
X1073330D02*
X1064136D01*
X1064331Y647648D01*
X1065393Y645084D01*
X1067083Y642883D01*
X1069284Y641193D01*
X1071848Y640131D01*
X1073330Y639936D01*
Y649130D01*
D02*
G37*
G36*
X1610464Y648730D02*
X1601270D01*
Y639536D01*
X1602751Y639731D01*
X1605316Y640793D01*
X1607517Y642483D01*
X1609207Y644685D01*
X1610269Y647249D01*
X1610464Y648730D01*
D02*
G37*
G36*
X1598730D02*
X1589536D01*
X1589731Y647249D01*
X1590793Y644685D01*
X1592483Y642483D01*
X1594684Y640793D01*
X1597249Y639731D01*
X1598730Y639536D01*
Y648730D01*
D02*
G37*
G36*
X1559664D02*
X1550470D01*
Y639536D01*
X1551951Y639731D01*
X1554516Y640793D01*
X1556717Y642483D01*
X1558407Y644685D01*
X1559469Y647249D01*
X1559664Y648730D01*
D02*
G37*
G36*
X1547930D02*
X1538736D01*
X1538931Y647249D01*
X1539993Y644685D01*
X1541683Y642483D01*
X1543884Y640793D01*
X1546449Y639731D01*
X1547930Y639536D01*
Y648730D01*
D02*
G37*
G36*
X1510464D02*
X1501270D01*
Y639536D01*
X1502751Y639731D01*
X1505315Y640793D01*
X1507517Y642483D01*
X1509206Y644685D01*
X1510268Y647249D01*
X1510464Y648730D01*
D02*
G37*
G36*
X1498730D02*
X1489536D01*
X1489731Y647249D01*
X1490793Y644685D01*
X1492482Y642483D01*
X1494684Y640793D01*
X1497248Y639731D01*
X1498730Y639536D01*
Y648730D01*
D02*
G37*
G36*
X1459664D02*
X1450470D01*
Y639536D01*
X1451951Y639731D01*
X1454515Y640793D01*
X1456717Y642483D01*
X1458406Y644685D01*
X1459468Y647249D01*
X1459664Y648730D01*
D02*
G37*
G36*
X1447930D02*
X1438736D01*
X1438931Y647249D01*
X1439993Y644685D01*
X1441682Y642483D01*
X1443884Y640793D01*
X1446448Y639731D01*
X1447930Y639536D01*
Y648730D01*
D02*
G37*
G36*
X1410464D02*
X1401270D01*
Y639536D01*
X1402751Y639731D01*
X1405315Y640793D01*
X1407517Y642483D01*
X1409207Y644685D01*
X1410269Y647249D01*
X1410464Y648730D01*
D02*
G37*
G36*
X1398730D02*
X1389536D01*
X1389731Y647249D01*
X1390793Y644685D01*
X1392483Y642483D01*
X1394684Y640793D01*
X1397248Y639731D01*
X1398730Y639536D01*
Y648730D01*
D02*
G37*
G36*
X1359664D02*
X1350470D01*
Y639536D01*
X1351951Y639731D01*
X1354515Y640793D01*
X1356717Y642483D01*
X1358407Y644685D01*
X1359469Y647249D01*
X1359664Y648730D01*
D02*
G37*
G36*
X1347930D02*
X1338736D01*
X1338931Y647249D01*
X1339993Y644685D01*
X1341683Y642483D01*
X1343884Y640793D01*
X1346448Y639731D01*
X1347930Y639536D01*
Y648730D01*
D02*
G37*
G36*
X1310463D02*
X1301270D01*
Y639536D01*
X1302751Y639731D01*
X1305315Y640793D01*
X1307517Y642483D01*
X1309206Y644685D01*
X1310268Y647249D01*
X1310463Y648730D01*
D02*
G37*
G36*
X1298730D02*
X1289536D01*
X1289731Y647249D01*
X1290793Y644685D01*
X1292482Y642483D01*
X1294684Y640793D01*
X1297248Y639731D01*
X1298730Y639536D01*
Y648730D01*
D02*
G37*
G36*
X1259663D02*
X1250470D01*
Y639536D01*
X1251951Y639731D01*
X1254515Y640793D01*
X1256717Y642483D01*
X1258406Y644685D01*
X1259468Y647249D01*
X1259663Y648730D01*
D02*
G37*
G36*
X1247930D02*
X1238736D01*
X1238931Y647249D01*
X1239993Y644685D01*
X1241682Y642483D01*
X1243884Y640793D01*
X1246448Y639731D01*
X1247930Y639536D01*
Y648730D01*
D02*
G37*
G36*
X961264D02*
X952070D01*
Y639536D01*
X953551Y639731D01*
X956115Y640793D01*
X958317Y642483D01*
X960007Y644685D01*
X961069Y647249D01*
X961264Y648730D01*
D02*
G37*
G36*
X949530D02*
X940336D01*
X940531Y647249D01*
X941593Y644685D01*
X943283Y642483D01*
X945484Y640793D01*
X948048Y639731D01*
X949530Y639536D01*
Y648730D01*
D02*
G37*
G36*
X910464D02*
X901270D01*
Y639536D01*
X902751Y639731D01*
X905315Y640793D01*
X907517Y642483D01*
X909207Y644685D01*
X910269Y647249D01*
X910464Y648730D01*
D02*
G37*
G36*
X898730D02*
X889536D01*
X889731Y647249D01*
X890793Y644685D01*
X892483Y642483D01*
X894684Y640793D01*
X897248Y639731D01*
X898730Y639536D01*
Y648730D01*
D02*
G37*
G36*
X861264D02*
X852070D01*
Y639536D01*
X853552Y639731D01*
X856116Y640793D01*
X858317Y642483D01*
X860007Y644685D01*
X861069Y647249D01*
X861264Y648730D01*
D02*
G37*
G36*
X849530D02*
X840336D01*
X840531Y647249D01*
X841593Y644685D01*
X843283Y642483D01*
X845485Y640793D01*
X848049Y639731D01*
X849530Y639536D01*
Y648730D01*
D02*
G37*
G36*
X810464D02*
X801270D01*
Y639536D01*
X802752Y639731D01*
X805316Y640793D01*
X807517Y642483D01*
X809207Y644685D01*
X810269Y647249D01*
X810464Y648730D01*
D02*
G37*
G36*
X798730D02*
X789536D01*
X789731Y647249D01*
X790793Y644685D01*
X792483Y642483D01*
X794685Y640793D01*
X797249Y639731D01*
X798730Y639536D01*
Y648730D01*
D02*
G37*
G36*
X761264D02*
X752070D01*
Y639536D01*
X753552Y639731D01*
X756116Y640793D01*
X758317Y642483D01*
X760007Y644685D01*
X761069Y647249D01*
X761264Y648730D01*
D02*
G37*
G36*
X749530D02*
X740337D01*
X740532Y647249D01*
X741594Y644685D01*
X743283Y642483D01*
X745485Y640793D01*
X748049Y639731D01*
X749530Y639536D01*
Y648730D01*
D02*
G37*
G36*
X710464D02*
X701270D01*
Y639536D01*
X702752Y639731D01*
X705316Y640793D01*
X707517Y642483D01*
X709207Y644685D01*
X710269Y647249D01*
X710464Y648730D01*
D02*
G37*
G36*
X698730D02*
X689537D01*
X689732Y647249D01*
X690794Y644685D01*
X692483Y642483D01*
X694685Y640793D01*
X697249Y639731D01*
X698730Y639536D01*
Y648730D01*
D02*
G37*
G36*
X661264D02*
X652070D01*
Y639536D01*
X653551Y639731D01*
X656115Y640793D01*
X658317Y642483D01*
X660007Y644685D01*
X661069Y647249D01*
X661264Y648730D01*
D02*
G37*
G36*
X649530D02*
X640336D01*
X640531Y647249D01*
X641593Y644685D01*
X643283Y642483D01*
X645484Y640793D01*
X648048Y639731D01*
X649530Y639536D01*
Y648730D01*
D02*
G37*
G36*
X610464D02*
X601270D01*
Y639536D01*
X602752Y639731D01*
X605316Y640793D01*
X607517Y642483D01*
X609207Y644685D01*
X610269Y647249D01*
X610464Y648730D01*
D02*
G37*
G36*
X598730D02*
X589536D01*
X589731Y647249D01*
X590793Y644685D01*
X592483Y642483D01*
X594684Y640793D01*
X597248Y639731D01*
X598730Y639536D01*
Y648730D01*
D02*
G37*
G36*
X1100000Y635631D02*
X1097248Y635269D01*
X1094684Y634207D01*
X1092483Y632517D01*
X1090793Y630315D01*
X1089731Y627751D01*
X1089369Y625000D01*
X1089731Y622248D01*
X1090793Y619684D01*
X1092483Y617483D01*
X1094684Y615793D01*
X1097248Y614731D01*
X1100000Y614369D01*
X1102751Y614731D01*
X1105315Y615793D01*
X1107517Y617483D01*
X1109206Y619684D01*
X1110268Y622248D01*
X1110631Y625000D01*
X1110268Y627751D01*
X1109206Y630315D01*
X1107517Y632517D01*
X1105315Y634207D01*
X1102751Y635269D01*
X1100000Y635631D01*
D02*
G37*
G36*
X1574600Y635231D02*
X1571848Y634869D01*
X1569285Y633807D01*
X1567083Y632117D01*
X1565393Y629916D01*
X1564331Y627351D01*
X1563969Y624600D01*
X1564331Y621848D01*
X1565393Y619285D01*
X1567083Y617083D01*
X1569285Y615393D01*
X1571848Y614331D01*
X1574600Y613969D01*
X1577352Y614331D01*
X1579915Y615393D01*
X1582117Y617083D01*
X1583807Y619285D01*
X1584869Y621848D01*
X1585231Y624600D01*
X1584869Y627351D01*
X1583807Y629916D01*
X1582117Y632117D01*
X1579915Y633807D01*
X1577352Y634869D01*
X1574600Y635231D01*
D02*
G37*
G36*
X1474600D02*
X1471848Y634869D01*
X1469284Y633807D01*
X1467083Y632117D01*
X1465393Y629916D01*
X1464331Y627351D01*
X1463969Y624600D01*
X1464331Y621848D01*
X1465393Y619285D01*
X1467083Y617083D01*
X1469284Y615393D01*
X1471848Y614331D01*
X1474600Y613969D01*
X1477351Y614331D01*
X1479915Y615393D01*
X1482117Y617083D01*
X1483806Y619285D01*
X1484868Y621848D01*
X1485231Y624600D01*
X1484868Y627351D01*
X1483806Y629916D01*
X1482117Y632117D01*
X1479915Y633807D01*
X1477351Y634869D01*
X1474600Y635231D01*
D02*
G37*
G36*
X1374600D02*
X1371848Y634869D01*
X1369284Y633807D01*
X1367083Y632117D01*
X1365393Y629916D01*
X1364331Y627351D01*
X1363969Y624600D01*
X1364331Y621848D01*
X1365393Y619285D01*
X1367083Y617083D01*
X1369284Y615393D01*
X1371848Y614331D01*
X1374600Y613969D01*
X1377351Y614331D01*
X1379915Y615393D01*
X1382117Y617083D01*
X1383807Y619285D01*
X1384869Y621848D01*
X1385231Y624600D01*
X1384869Y627351D01*
X1383807Y629916D01*
X1382117Y632117D01*
X1379915Y633807D01*
X1377351Y634869D01*
X1374600Y635231D01*
D02*
G37*
G36*
X1274600D02*
X1271848Y634869D01*
X1269284Y633807D01*
X1267082Y632117D01*
X1265393Y629916D01*
X1264331Y627351D01*
X1263969Y624600D01*
X1264331Y621848D01*
X1265393Y619285D01*
X1267082Y617083D01*
X1269284Y615393D01*
X1271848Y614331D01*
X1274600Y613969D01*
X1277351Y614331D01*
X1279915Y615393D01*
X1282117Y617083D01*
X1283806Y619285D01*
X1284868Y621848D01*
X1285231Y624600D01*
X1284868Y627351D01*
X1283806Y629916D01*
X1282117Y632117D01*
X1279915Y633807D01*
X1277351Y634869D01*
X1274600Y635231D01*
D02*
G37*
G36*
X925400D02*
X922648Y634869D01*
X920084Y633807D01*
X917883Y632117D01*
X916193Y629916D01*
X915131Y627351D01*
X914769Y624600D01*
X915131Y621848D01*
X916193Y619285D01*
X917883Y617083D01*
X920084Y615393D01*
X922648Y614331D01*
X925400Y613969D01*
X928151Y614331D01*
X930715Y615393D01*
X932917Y617083D01*
X934607Y619285D01*
X935669Y621848D01*
X936031Y624600D01*
X935669Y627351D01*
X934607Y629916D01*
X932917Y632117D01*
X930715Y633807D01*
X928151Y634869D01*
X925400Y635231D01*
D02*
G37*
G36*
X825400D02*
X822649Y634869D01*
X820085Y633807D01*
X817883Y632117D01*
X816193Y629916D01*
X815131Y627351D01*
X814769Y624600D01*
X815131Y621848D01*
X816193Y619285D01*
X817883Y617083D01*
X820085Y615393D01*
X822649Y614331D01*
X825400Y613969D01*
X828152Y614331D01*
X830716Y615393D01*
X832917Y617083D01*
X834607Y619285D01*
X835669Y621848D01*
X836031Y624600D01*
X835669Y627351D01*
X834607Y629916D01*
X832917Y632117D01*
X830716Y633807D01*
X828152Y634869D01*
X825400Y635231D01*
D02*
G37*
G36*
X725400D02*
X722649Y634869D01*
X720085Y633807D01*
X717883Y632117D01*
X716194Y629916D01*
X715132Y627351D01*
X714769Y624600D01*
X715132Y621848D01*
X716194Y619285D01*
X717883Y617083D01*
X720085Y615393D01*
X722649Y614331D01*
X725400Y613969D01*
X728152Y614331D01*
X730716Y615393D01*
X732917Y617083D01*
X734607Y619285D01*
X735669Y621848D01*
X736031Y624600D01*
X735669Y627351D01*
X734607Y629916D01*
X732917Y632117D01*
X730716Y633807D01*
X728152Y634869D01*
X725400Y635231D01*
D02*
G37*
G36*
X625400D02*
X622649Y634869D01*
X620084Y633807D01*
X617883Y632117D01*
X616193Y629916D01*
X615131Y627351D01*
X614769Y624600D01*
X615131Y621848D01*
X616193Y619285D01*
X617883Y617083D01*
X620084Y615393D01*
X622649Y614331D01*
X625400Y613969D01*
X628152Y614331D01*
X630715Y615393D01*
X632917Y617083D01*
X634607Y619285D01*
X635669Y621848D01*
X636031Y624600D01*
X635669Y627351D01*
X634607Y629916D01*
X632917Y632117D01*
X630715Y633807D01*
X628152Y634869D01*
X625400Y635231D01*
D02*
G37*
G36*
X1126670Y610064D02*
Y600870D01*
X1135864D01*
X1135668Y602351D01*
X1134606Y604915D01*
X1132917Y607117D01*
X1130715Y608806D01*
X1128151Y609869D01*
X1126670Y610064D01*
D02*
G37*
G36*
X1124130D02*
X1122648Y609869D01*
X1120084Y608806D01*
X1117883Y607117D01*
X1116193Y604915D01*
X1115131Y602351D01*
X1114936Y600870D01*
X1124130D01*
Y610064D01*
D02*
G37*
G36*
X1075870D02*
Y600870D01*
X1085064D01*
X1084868Y602351D01*
X1083807Y604915D01*
X1082117Y607117D01*
X1079915Y608806D01*
X1077351Y609869D01*
X1075870Y610064D01*
D02*
G37*
G36*
X1073330D02*
X1071848Y609869D01*
X1069284Y608806D01*
X1067083Y607117D01*
X1065393Y604915D01*
X1064331Y602351D01*
X1064136Y600870D01*
X1073330D01*
Y610064D01*
D02*
G37*
G36*
X1601270Y609664D02*
Y600470D01*
X1610464D01*
X1610269Y601951D01*
X1609207Y604515D01*
X1607517Y606717D01*
X1605316Y608407D01*
X1602751Y609469D01*
X1601270Y609664D01*
D02*
G37*
G36*
X1598730D02*
X1597249Y609469D01*
X1594684Y608407D01*
X1592483Y606717D01*
X1590793Y604515D01*
X1589731Y601951D01*
X1589536Y600470D01*
X1598730D01*
Y609664D01*
D02*
G37*
G36*
X1550470D02*
Y600470D01*
X1559664D01*
X1559469Y601951D01*
X1558407Y604515D01*
X1556717Y606717D01*
X1554516Y608407D01*
X1551951Y609469D01*
X1550470Y609664D01*
D02*
G37*
G36*
X1547930D02*
X1546449Y609469D01*
X1543884Y608407D01*
X1541683Y606717D01*
X1539993Y604515D01*
X1538931Y601951D01*
X1538736Y600470D01*
X1547930D01*
Y609664D01*
D02*
G37*
G36*
X1501270D02*
Y600470D01*
X1510464D01*
X1510268Y601951D01*
X1509206Y604515D01*
X1507517Y606717D01*
X1505315Y608407D01*
X1502751Y609469D01*
X1501270Y609664D01*
D02*
G37*
G36*
X1498730D02*
X1497248Y609469D01*
X1494684Y608407D01*
X1492482Y606717D01*
X1490793Y604515D01*
X1489731Y601951D01*
X1489536Y600470D01*
X1498730D01*
Y609664D01*
D02*
G37*
G36*
X1450470D02*
Y600470D01*
X1459664D01*
X1459468Y601951D01*
X1458406Y604515D01*
X1456717Y606717D01*
X1454515Y608407D01*
X1451951Y609469D01*
X1450470Y609664D01*
D02*
G37*
G36*
X1447930D02*
X1446448Y609469D01*
X1443884Y608407D01*
X1441682Y606717D01*
X1439993Y604515D01*
X1438931Y601951D01*
X1438736Y600470D01*
X1447930D01*
Y609664D01*
D02*
G37*
G36*
X1401270D02*
Y600470D01*
X1410464D01*
X1410269Y601951D01*
X1409207Y604515D01*
X1407517Y606717D01*
X1405315Y608407D01*
X1402751Y609469D01*
X1401270Y609664D01*
D02*
G37*
G36*
X1398730D02*
X1397248Y609469D01*
X1394684Y608407D01*
X1392483Y606717D01*
X1390793Y604515D01*
X1389731Y601951D01*
X1389536Y600470D01*
X1398730D01*
Y609664D01*
D02*
G37*
G36*
X1350470D02*
Y600470D01*
X1359664D01*
X1359469Y601951D01*
X1358407Y604515D01*
X1356717Y606717D01*
X1354515Y608407D01*
X1351951Y609469D01*
X1350470Y609664D01*
D02*
G37*
G36*
X1347930D02*
X1346448Y609469D01*
X1343884Y608407D01*
X1341683Y606717D01*
X1339993Y604515D01*
X1338931Y601951D01*
X1338736Y600470D01*
X1347930D01*
Y609664D01*
D02*
G37*
G36*
X1301270D02*
Y600470D01*
X1310463D01*
X1310268Y601951D01*
X1309206Y604515D01*
X1307517Y606717D01*
X1305315Y608407D01*
X1302751Y609469D01*
X1301270Y609664D01*
D02*
G37*
G36*
X1298730D02*
X1297248Y609469D01*
X1294684Y608407D01*
X1292482Y606717D01*
X1290793Y604515D01*
X1289731Y601951D01*
X1289536Y600470D01*
X1298730D01*
Y609664D01*
D02*
G37*
G36*
X1250470D02*
Y600470D01*
X1259663D01*
X1259468Y601951D01*
X1258406Y604515D01*
X1256717Y606717D01*
X1254515Y608407D01*
X1251951Y609469D01*
X1250470Y609664D01*
D02*
G37*
G36*
X1247930D02*
X1246448Y609469D01*
X1243884Y608407D01*
X1241682Y606717D01*
X1239993Y604515D01*
X1238931Y601951D01*
X1238736Y600470D01*
X1247930D01*
Y609664D01*
D02*
G37*
G36*
X952070D02*
Y600470D01*
X961264D01*
X961069Y601951D01*
X960007Y604515D01*
X958317Y606717D01*
X956115Y608407D01*
X953551Y609469D01*
X952070Y609664D01*
D02*
G37*
G36*
X949530D02*
X948048Y609469D01*
X945484Y608407D01*
X943283Y606717D01*
X941593Y604515D01*
X940531Y601951D01*
X940336Y600470D01*
X949530D01*
Y609664D01*
D02*
G37*
G36*
X901270D02*
Y600470D01*
X910464D01*
X910269Y601951D01*
X909207Y604515D01*
X907517Y606717D01*
X905315Y608407D01*
X902751Y609469D01*
X901270Y609664D01*
D02*
G37*
G36*
X898730D02*
X897248Y609469D01*
X894684Y608407D01*
X892483Y606717D01*
X890793Y604515D01*
X889731Y601951D01*
X889536Y600470D01*
X898730D01*
Y609664D01*
D02*
G37*
G36*
X852070D02*
Y600470D01*
X861264D01*
X861069Y601951D01*
X860007Y604515D01*
X858317Y606717D01*
X856116Y608407D01*
X853552Y609469D01*
X852070Y609664D01*
D02*
G37*
G36*
X849530D02*
X848049Y609469D01*
X845485Y608407D01*
X843283Y606717D01*
X841593Y604515D01*
X840531Y601951D01*
X840336Y600470D01*
X849530D01*
Y609664D01*
D02*
G37*
G36*
X801270D02*
Y600470D01*
X810464D01*
X810269Y601951D01*
X809207Y604515D01*
X807517Y606717D01*
X805316Y608407D01*
X802752Y609469D01*
X801270Y609664D01*
D02*
G37*
G36*
X798730D02*
X797249Y609469D01*
X794685Y608407D01*
X792483Y606717D01*
X790793Y604515D01*
X789731Y601951D01*
X789536Y600470D01*
X798730D01*
Y609664D01*
D02*
G37*
G36*
X752070D02*
Y600470D01*
X761264D01*
X761069Y601951D01*
X760007Y604515D01*
X758317Y606717D01*
X756116Y608407D01*
X753552Y609469D01*
X752070Y609664D01*
D02*
G37*
G36*
X749530D02*
X748049Y609469D01*
X745485Y608407D01*
X743283Y606717D01*
X741594Y604515D01*
X740532Y601951D01*
X740337Y600470D01*
X749530D01*
Y609664D01*
D02*
G37*
G36*
X701270D02*
Y600470D01*
X710464D01*
X710269Y601951D01*
X709207Y604515D01*
X707517Y606717D01*
X705316Y608407D01*
X702752Y609469D01*
X701270Y609664D01*
D02*
G37*
G36*
X698730D02*
X697249Y609469D01*
X694685Y608407D01*
X692483Y606717D01*
X690794Y604515D01*
X689732Y601951D01*
X689537Y600470D01*
X698730D01*
Y609664D01*
D02*
G37*
G36*
X652070D02*
Y600470D01*
X661264D01*
X661069Y601951D01*
X660007Y604515D01*
X658317Y606717D01*
X656115Y608407D01*
X653551Y609469D01*
X652070Y609664D01*
D02*
G37*
G36*
X649530D02*
X648048Y609469D01*
X645484Y608407D01*
X643283Y606717D01*
X641593Y604515D01*
X640531Y601951D01*
X640336Y600470D01*
X649530D01*
Y609664D01*
D02*
G37*
G36*
X601270D02*
Y600470D01*
X610464D01*
X610269Y601951D01*
X609207Y604515D01*
X607517Y606717D01*
X605316Y608407D01*
X602752Y609469D01*
X601270Y609664D01*
D02*
G37*
G36*
X598730D02*
X597248Y609469D01*
X594684Y608407D01*
X592483Y606717D01*
X590793Y604515D01*
X589731Y601951D01*
X589536Y600470D01*
X598730D01*
Y609664D01*
D02*
G37*
G36*
X1135864Y598330D02*
X1126670D01*
Y589136D01*
X1128151Y589331D01*
X1130715Y590393D01*
X1132917Y592083D01*
X1134606Y594284D01*
X1135668Y596848D01*
X1135864Y598330D01*
D02*
G37*
G36*
X1124130D02*
X1114936D01*
X1115131Y596848D01*
X1116193Y594284D01*
X1117883Y592083D01*
X1120084Y590393D01*
X1122648Y589331D01*
X1124130Y589136D01*
Y598330D01*
D02*
G37*
G36*
X1085064D02*
X1075870D01*
Y589136D01*
X1077351Y589331D01*
X1079915Y590393D01*
X1082117Y592083D01*
X1083807Y594284D01*
X1084868Y596848D01*
X1085064Y598330D01*
D02*
G37*
G36*
X1073330D02*
X1064136D01*
X1064331Y596848D01*
X1065393Y594284D01*
X1067083Y592083D01*
X1069284Y590393D01*
X1071848Y589331D01*
X1073330Y589136D01*
Y598330D01*
D02*
G37*
G36*
X1610464Y597930D02*
X1601270D01*
Y588736D01*
X1602751Y588931D01*
X1605316Y589993D01*
X1607517Y591683D01*
X1609207Y593885D01*
X1610269Y596449D01*
X1610464Y597930D01*
D02*
G37*
G36*
X1598730D02*
X1589536D01*
X1589731Y596449D01*
X1590793Y593885D01*
X1592483Y591683D01*
X1594684Y589993D01*
X1597249Y588931D01*
X1598730Y588736D01*
Y597930D01*
D02*
G37*
G36*
X1559664D02*
X1550470D01*
Y588736D01*
X1551951Y588931D01*
X1554516Y589993D01*
X1556717Y591683D01*
X1558407Y593885D01*
X1559469Y596449D01*
X1559664Y597930D01*
D02*
G37*
G36*
X1547930D02*
X1538736D01*
X1538931Y596449D01*
X1539993Y593885D01*
X1541683Y591683D01*
X1543884Y589993D01*
X1546449Y588931D01*
X1547930Y588736D01*
Y597930D01*
D02*
G37*
G36*
X1510464D02*
X1501270D01*
Y588736D01*
X1502751Y588931D01*
X1505315Y589993D01*
X1507517Y591683D01*
X1509206Y593885D01*
X1510268Y596449D01*
X1510464Y597930D01*
D02*
G37*
G36*
X1498730D02*
X1489536D01*
X1489731Y596449D01*
X1490793Y593885D01*
X1492482Y591683D01*
X1494684Y589993D01*
X1497248Y588931D01*
X1498730Y588736D01*
Y597930D01*
D02*
G37*
G36*
X1459664D02*
X1450470D01*
Y588736D01*
X1451951Y588931D01*
X1454515Y589993D01*
X1456717Y591683D01*
X1458406Y593885D01*
X1459468Y596449D01*
X1459664Y597930D01*
D02*
G37*
G36*
X1447930D02*
X1438736D01*
X1438931Y596449D01*
X1439993Y593885D01*
X1441682Y591683D01*
X1443884Y589993D01*
X1446448Y588931D01*
X1447930Y588736D01*
Y597930D01*
D02*
G37*
G36*
X1410464D02*
X1401270D01*
Y588736D01*
X1402751Y588931D01*
X1405315Y589993D01*
X1407517Y591683D01*
X1409207Y593885D01*
X1410269Y596449D01*
X1410464Y597930D01*
D02*
G37*
G36*
X1398730D02*
X1389536D01*
X1389731Y596449D01*
X1390793Y593885D01*
X1392483Y591683D01*
X1394684Y589993D01*
X1397248Y588931D01*
X1398730Y588736D01*
Y597930D01*
D02*
G37*
G36*
X1359664D02*
X1350470D01*
Y588736D01*
X1351951Y588931D01*
X1354515Y589993D01*
X1356717Y591683D01*
X1358407Y593885D01*
X1359469Y596449D01*
X1359664Y597930D01*
D02*
G37*
G36*
X1347930D02*
X1338736D01*
X1338931Y596449D01*
X1339993Y593885D01*
X1341683Y591683D01*
X1343884Y589993D01*
X1346448Y588931D01*
X1347930Y588736D01*
Y597930D01*
D02*
G37*
G36*
X1310463D02*
X1301270D01*
Y588736D01*
X1302751Y588931D01*
X1305315Y589993D01*
X1307517Y591683D01*
X1309206Y593885D01*
X1310268Y596449D01*
X1310463Y597930D01*
D02*
G37*
G36*
X1298730D02*
X1289536D01*
X1289731Y596449D01*
X1290793Y593885D01*
X1292482Y591683D01*
X1294684Y589993D01*
X1297248Y588931D01*
X1298730Y588736D01*
Y597930D01*
D02*
G37*
G36*
X1259663D02*
X1250470D01*
Y588736D01*
X1251951Y588931D01*
X1254515Y589993D01*
X1256717Y591683D01*
X1258406Y593885D01*
X1259468Y596449D01*
X1259663Y597930D01*
D02*
G37*
G36*
X1247930D02*
X1238736D01*
X1238931Y596449D01*
X1239993Y593885D01*
X1241682Y591683D01*
X1243884Y589993D01*
X1246448Y588931D01*
X1247930Y588736D01*
Y597930D01*
D02*
G37*
G36*
X961264D02*
X952070D01*
Y588736D01*
X953551Y588931D01*
X956115Y589993D01*
X958317Y591683D01*
X960007Y593885D01*
X961069Y596449D01*
X961264Y597930D01*
D02*
G37*
G36*
X949530D02*
X940336D01*
X940531Y596449D01*
X941593Y593885D01*
X943283Y591683D01*
X945484Y589993D01*
X948048Y588931D01*
X949530Y588736D01*
Y597930D01*
D02*
G37*
G36*
X910464D02*
X901270D01*
Y588736D01*
X902751Y588931D01*
X905315Y589993D01*
X907517Y591683D01*
X909207Y593885D01*
X910269Y596449D01*
X910464Y597930D01*
D02*
G37*
G36*
X898730D02*
X889536D01*
X889731Y596449D01*
X890793Y593885D01*
X892483Y591683D01*
X894684Y589993D01*
X897248Y588931D01*
X898730Y588736D01*
Y597930D01*
D02*
G37*
G36*
X861264D02*
X852070D01*
Y588736D01*
X853552Y588931D01*
X856116Y589993D01*
X858317Y591683D01*
X860007Y593885D01*
X861069Y596449D01*
X861264Y597930D01*
D02*
G37*
G36*
X849530D02*
X840336D01*
X840531Y596449D01*
X841593Y593885D01*
X843283Y591683D01*
X845485Y589993D01*
X848049Y588931D01*
X849530Y588736D01*
Y597930D01*
D02*
G37*
G36*
X810464D02*
X801270D01*
Y588736D01*
X802752Y588931D01*
X805316Y589993D01*
X807517Y591683D01*
X809207Y593885D01*
X810269Y596449D01*
X810464Y597930D01*
D02*
G37*
G36*
X798730D02*
X789536D01*
X789731Y596449D01*
X790793Y593885D01*
X792483Y591683D01*
X794685Y589993D01*
X797249Y588931D01*
X798730Y588736D01*
Y597930D01*
D02*
G37*
G36*
X761264D02*
X752070D01*
Y588736D01*
X753552Y588931D01*
X756116Y589993D01*
X758317Y591683D01*
X760007Y593885D01*
X761069Y596449D01*
X761264Y597930D01*
D02*
G37*
G36*
X749530D02*
X740337D01*
X740532Y596449D01*
X741594Y593885D01*
X743283Y591683D01*
X745485Y589993D01*
X748049Y588931D01*
X749530Y588736D01*
Y597930D01*
D02*
G37*
G36*
X710464D02*
X701270D01*
Y588736D01*
X702752Y588931D01*
X705316Y589993D01*
X707517Y591683D01*
X709207Y593885D01*
X710269Y596449D01*
X710464Y597930D01*
D02*
G37*
G36*
X698730D02*
X689537D01*
X689732Y596449D01*
X690794Y593885D01*
X692483Y591683D01*
X694685Y589993D01*
X697249Y588931D01*
X698730Y588736D01*
Y597930D01*
D02*
G37*
G36*
X661264D02*
X652070D01*
Y588736D01*
X653551Y588931D01*
X656115Y589993D01*
X658317Y591683D01*
X660007Y593885D01*
X661069Y596449D01*
X661264Y597930D01*
D02*
G37*
G36*
X649530D02*
X640336D01*
X640531Y596449D01*
X641593Y593885D01*
X643283Y591683D01*
X645484Y589993D01*
X648048Y588931D01*
X649530Y588736D01*
Y597930D01*
D02*
G37*
G36*
X610464D02*
X601270D01*
Y588736D01*
X602752Y588931D01*
X605316Y589993D01*
X607517Y591683D01*
X609207Y593885D01*
X610269Y596449D01*
X610464Y597930D01*
D02*
G37*
G36*
X598730D02*
X589536D01*
X589731Y596449D01*
X590793Y593885D01*
X592483Y591683D01*
X594684Y589993D01*
X597248Y588931D01*
X598730Y588736D01*
Y597930D01*
D02*
G37*
G36*
X1501670Y560864D02*
Y551670D01*
X1510864D01*
X1510669Y553152D01*
X1509606Y555716D01*
X1507917Y557917D01*
X1505715Y559607D01*
X1503151Y560669D01*
X1501670Y560864D01*
D02*
G37*
G36*
X1499130D02*
X1497648Y560669D01*
X1495084Y559607D01*
X1492883Y557917D01*
X1491193Y555716D01*
X1490131Y553152D01*
X1489936Y551670D01*
X1499130D01*
Y560864D01*
D02*
G37*
G36*
X1450870D02*
Y551670D01*
X1460064D01*
X1459869Y553152D01*
X1458806Y555716D01*
X1457117Y557917D01*
X1454915Y559607D01*
X1452351Y560669D01*
X1450870Y560864D01*
D02*
G37*
G36*
X1448330D02*
X1446848Y560669D01*
X1444284Y559607D01*
X1442083Y557917D01*
X1440393Y555716D01*
X1439331Y553152D01*
X1439136Y551670D01*
X1448330D01*
Y560864D01*
D02*
G37*
G36*
X1401670D02*
Y551670D01*
X1410864D01*
X1410669Y553152D01*
X1409607Y555716D01*
X1407917Y557917D01*
X1405715Y559607D01*
X1403152Y560669D01*
X1401670Y560864D01*
D02*
G37*
G36*
X1399130D02*
X1397649Y560669D01*
X1395085Y559607D01*
X1392883Y557917D01*
X1391193Y555716D01*
X1390131Y553152D01*
X1389936Y551670D01*
X1399130D01*
Y560864D01*
D02*
G37*
G36*
X1350870D02*
Y551670D01*
X1360064D01*
X1359869Y553152D01*
X1358807Y555716D01*
X1357117Y557917D01*
X1354915Y559607D01*
X1352352Y560669D01*
X1350870Y560864D01*
D02*
G37*
G36*
X1348330D02*
X1346849Y560669D01*
X1344285Y559607D01*
X1342083Y557917D01*
X1340393Y555716D01*
X1339331Y553152D01*
X1339136Y551670D01*
X1348330D01*
Y560864D01*
D02*
G37*
G36*
X1301670D02*
Y551670D01*
X1310863D01*
X1310668Y553152D01*
X1309606Y555716D01*
X1307917Y557917D01*
X1305715Y559607D01*
X1303151Y560669D01*
X1301670Y560864D01*
D02*
G37*
G36*
X1299130D02*
X1297648Y560669D01*
X1295084Y559607D01*
X1292883Y557917D01*
X1291193Y555716D01*
X1290131Y553152D01*
X1289936Y551670D01*
X1299130D01*
Y560864D01*
D02*
G37*
G36*
X1250870D02*
Y551670D01*
X1260063D01*
X1259868Y553152D01*
X1258806Y555716D01*
X1257117Y557917D01*
X1254915Y559607D01*
X1252351Y560669D01*
X1250870Y560864D01*
D02*
G37*
G36*
X1248330D02*
X1246848Y560669D01*
X1244284Y559607D01*
X1242083Y557917D01*
X1240393Y555716D01*
X1239331Y553152D01*
X1239136Y551670D01*
X1248330D01*
Y560864D01*
D02*
G37*
G36*
X1201670D02*
Y551670D01*
X1210864D01*
X1210669Y553152D01*
X1209607Y555716D01*
X1207917Y557917D01*
X1205715Y559607D01*
X1203151Y560669D01*
X1201670Y560864D01*
D02*
G37*
G36*
X1199130D02*
X1197648Y560669D01*
X1195085Y559607D01*
X1192883Y557917D01*
X1191193Y555716D01*
X1190131Y553152D01*
X1189936Y551670D01*
X1199130D01*
Y560864D01*
D02*
G37*
G36*
X1150870D02*
Y551670D01*
X1160064D01*
X1159869Y553152D01*
X1158807Y555716D01*
X1157117Y557917D01*
X1154915Y559607D01*
X1152351Y560669D01*
X1150870Y560864D01*
D02*
G37*
G36*
X1148330D02*
X1146849Y560669D01*
X1144285Y559607D01*
X1142083Y557917D01*
X1140393Y555716D01*
X1139331Y553152D01*
X1139136Y551670D01*
X1148330D01*
Y560864D01*
D02*
G37*
G36*
X1051670D02*
Y551670D01*
X1060864D01*
X1060669Y553152D01*
X1059607Y555716D01*
X1057917Y557917D01*
X1055716Y559607D01*
X1053152Y560669D01*
X1051670Y560864D01*
D02*
G37*
G36*
X1049130D02*
X1047649Y560669D01*
X1045085Y559607D01*
X1042883Y557917D01*
X1041193Y555716D01*
X1040131Y553152D01*
X1039936Y551670D01*
X1049130D01*
Y560864D01*
D02*
G37*
G36*
X1000870D02*
Y551670D01*
X1010064D01*
X1009869Y553152D01*
X1008807Y555716D01*
X1007117Y557917D01*
X1004916Y559607D01*
X1002352Y560669D01*
X1000870Y560864D01*
D02*
G37*
G36*
X998330D02*
X996849Y560669D01*
X994285Y559607D01*
X992083Y557917D01*
X990394Y555716D01*
X989331Y553152D01*
X989136Y551670D01*
X998330D01*
Y560864D01*
D02*
G37*
G36*
X951670D02*
Y551670D01*
X960864D01*
X960669Y553152D01*
X959607Y555716D01*
X957917Y557917D01*
X955716Y559607D01*
X953152Y560669D01*
X951670Y560864D01*
D02*
G37*
G36*
X949130D02*
X947649Y560669D01*
X945085Y559607D01*
X942883Y557917D01*
X941194Y555716D01*
X940132Y553152D01*
X939937Y551670D01*
X949130D01*
Y560864D01*
D02*
G37*
G36*
X900870D02*
Y551670D01*
X910064D01*
X909869Y553152D01*
X908807Y555716D01*
X907117Y557917D01*
X904916Y559607D01*
X902352Y560669D01*
X900870Y560864D01*
D02*
G37*
G36*
X898330D02*
X896849Y560669D01*
X894285Y559607D01*
X892083Y557917D01*
X890394Y555716D01*
X889332Y553152D01*
X889137Y551670D01*
X898330D01*
Y560864D01*
D02*
G37*
G36*
X851670D02*
Y551670D01*
X860864D01*
X860669Y553152D01*
X859607Y555716D01*
X857917Y557917D01*
X855715Y559607D01*
X853151Y560669D01*
X851670Y560864D01*
D02*
G37*
G36*
X849130D02*
X847648Y560669D01*
X845085Y559607D01*
X842883Y557917D01*
X841193Y555716D01*
X840131Y553152D01*
X839936Y551670D01*
X849130D01*
Y560864D01*
D02*
G37*
G36*
X800870D02*
Y551670D01*
X810064D01*
X809869Y553152D01*
X808807Y555716D01*
X807117Y557917D01*
X804915Y559607D01*
X802352Y560669D01*
X800870Y560864D01*
D02*
G37*
G36*
X798330D02*
X796849Y560669D01*
X794285Y559607D01*
X792083Y557917D01*
X790393Y555716D01*
X789331Y553152D01*
X789136Y551670D01*
X798330D01*
Y560864D01*
D02*
G37*
G36*
X751670D02*
Y551670D01*
X760864D01*
X760669Y553152D01*
X759607Y555716D01*
X757917Y557917D01*
X755716Y559607D01*
X753152Y560669D01*
X751670Y560864D01*
D02*
G37*
G36*
X749130D02*
X747649Y560669D01*
X745085Y559607D01*
X742883Y557917D01*
X741194Y555716D01*
X740132Y553152D01*
X739937Y551670D01*
X749130D01*
Y560864D01*
D02*
G37*
G36*
X700870D02*
Y551670D01*
X710064D01*
X709869Y553152D01*
X708807Y555716D01*
X707117Y557917D01*
X704916Y559607D01*
X702352Y560669D01*
X700870Y560864D01*
D02*
G37*
G36*
X698330D02*
X696849Y560669D01*
X694285Y559607D01*
X692083Y557917D01*
X690394Y555716D01*
X689332Y553152D01*
X689137Y551670D01*
X698330D01*
Y560864D01*
D02*
G37*
G36*
X1510864Y549130D02*
X1501670D01*
Y539936D01*
X1503151Y540131D01*
X1505715Y541194D01*
X1507917Y542883D01*
X1509606Y545085D01*
X1510669Y547649D01*
X1510864Y549130D01*
D02*
G37*
G36*
X1499130D02*
X1489936D01*
X1490131Y547649D01*
X1491193Y545085D01*
X1492883Y542883D01*
X1495084Y541194D01*
X1497648Y540131D01*
X1499130Y539936D01*
Y549130D01*
D02*
G37*
G36*
X1460064D02*
X1450870D01*
Y539936D01*
X1452351Y540131D01*
X1454915Y541194D01*
X1457117Y542883D01*
X1458806Y545085D01*
X1459869Y547649D01*
X1460064Y549130D01*
D02*
G37*
G36*
X1448330D02*
X1439136D01*
X1439331Y547649D01*
X1440393Y545085D01*
X1442083Y542883D01*
X1444284Y541194D01*
X1446848Y540131D01*
X1448330Y539936D01*
Y549130D01*
D02*
G37*
G36*
X1410864D02*
X1401670D01*
Y539936D01*
X1403152Y540131D01*
X1405715Y541194D01*
X1407917Y542883D01*
X1409607Y545085D01*
X1410669Y547649D01*
X1410864Y549130D01*
D02*
G37*
G36*
X1399130D02*
X1389936D01*
X1390131Y547649D01*
X1391193Y545085D01*
X1392883Y542883D01*
X1395085Y541194D01*
X1397649Y540131D01*
X1399130Y539936D01*
Y549130D01*
D02*
G37*
G36*
X1360064D02*
X1350870D01*
Y539936D01*
X1352352Y540131D01*
X1354915Y541194D01*
X1357117Y542883D01*
X1358807Y545085D01*
X1359869Y547649D01*
X1360064Y549130D01*
D02*
G37*
G36*
X1348330D02*
X1339136D01*
X1339331Y547649D01*
X1340393Y545085D01*
X1342083Y542883D01*
X1344285Y541194D01*
X1346849Y540131D01*
X1348330Y539936D01*
Y549130D01*
D02*
G37*
G36*
X1310863D02*
X1301670D01*
Y539936D01*
X1303151Y540131D01*
X1305715Y541194D01*
X1307917Y542883D01*
X1309606Y545085D01*
X1310668Y547649D01*
X1310863Y549130D01*
D02*
G37*
G36*
X1299130D02*
X1289936D01*
X1290131Y547649D01*
X1291193Y545085D01*
X1292883Y542883D01*
X1295084Y541194D01*
X1297648Y540131D01*
X1299130Y539936D01*
Y549130D01*
D02*
G37*
G36*
X1260063D02*
X1250870D01*
Y539936D01*
X1252351Y540131D01*
X1254915Y541194D01*
X1257117Y542883D01*
X1258806Y545085D01*
X1259868Y547649D01*
X1260063Y549130D01*
D02*
G37*
G36*
X1248330D02*
X1239136D01*
X1239331Y547649D01*
X1240393Y545085D01*
X1242083Y542883D01*
X1244284Y541194D01*
X1246848Y540131D01*
X1248330Y539936D01*
Y549130D01*
D02*
G37*
G36*
X1210864D02*
X1201670D01*
Y539936D01*
X1203151Y540131D01*
X1205715Y541194D01*
X1207917Y542883D01*
X1209607Y545085D01*
X1210669Y547649D01*
X1210864Y549130D01*
D02*
G37*
G36*
X1199130D02*
X1189936D01*
X1190131Y547649D01*
X1191193Y545085D01*
X1192883Y542883D01*
X1195085Y541194D01*
X1197648Y540131D01*
X1199130Y539936D01*
Y549130D01*
D02*
G37*
G36*
X1160064D02*
X1150870D01*
Y539936D01*
X1152351Y540131D01*
X1154915Y541194D01*
X1157117Y542883D01*
X1158807Y545085D01*
X1159869Y547649D01*
X1160064Y549130D01*
D02*
G37*
G36*
X1148330D02*
X1139136D01*
X1139331Y547649D01*
X1140393Y545085D01*
X1142083Y542883D01*
X1144285Y541194D01*
X1146849Y540131D01*
X1148330Y539936D01*
Y549130D01*
D02*
G37*
G36*
X1060864D02*
X1051670D01*
Y539936D01*
X1053152Y540131D01*
X1055716Y541194D01*
X1057917Y542883D01*
X1059607Y545085D01*
X1060669Y547649D01*
X1060864Y549130D01*
D02*
G37*
G36*
X1049130D02*
X1039936D01*
X1040131Y547649D01*
X1041193Y545085D01*
X1042883Y542883D01*
X1045085Y541194D01*
X1047649Y540131D01*
X1049130Y539936D01*
Y549130D01*
D02*
G37*
G36*
X1010064D02*
X1000870D01*
Y539936D01*
X1002352Y540131D01*
X1004916Y541194D01*
X1007117Y542883D01*
X1008807Y545085D01*
X1009869Y547649D01*
X1010064Y549130D01*
D02*
G37*
G36*
X998330D02*
X989136D01*
X989331Y547649D01*
X990394Y545085D01*
X992083Y542883D01*
X994285Y541194D01*
X996849Y540131D01*
X998330Y539936D01*
Y549130D01*
D02*
G37*
G36*
X960864D02*
X951670D01*
Y539936D01*
X953152Y540131D01*
X955716Y541194D01*
X957917Y542883D01*
X959607Y545085D01*
X960669Y547649D01*
X960864Y549130D01*
D02*
G37*
G36*
X949130D02*
X939937D01*
X940132Y547649D01*
X941194Y545085D01*
X942883Y542883D01*
X945085Y541194D01*
X947649Y540131D01*
X949130Y539936D01*
Y549130D01*
D02*
G37*
G36*
X910064D02*
X900870D01*
Y539936D01*
X902352Y540131D01*
X904916Y541194D01*
X907117Y542883D01*
X908807Y545085D01*
X909869Y547649D01*
X910064Y549130D01*
D02*
G37*
G36*
X898330D02*
X889137D01*
X889332Y547649D01*
X890394Y545085D01*
X892083Y542883D01*
X894285Y541194D01*
X896849Y540131D01*
X898330Y539936D01*
Y549130D01*
D02*
G37*
G36*
X860864D02*
X851670D01*
Y539936D01*
X853151Y540131D01*
X855715Y541194D01*
X857917Y542883D01*
X859607Y545085D01*
X860669Y547649D01*
X860864Y549130D01*
D02*
G37*
G36*
X849130D02*
X839936D01*
X840131Y547649D01*
X841193Y545085D01*
X842883Y542883D01*
X845085Y541194D01*
X847648Y540131D01*
X849130Y539936D01*
Y549130D01*
D02*
G37*
G36*
X810064D02*
X800870D01*
Y539936D01*
X802352Y540131D01*
X804915Y541194D01*
X807117Y542883D01*
X808807Y545085D01*
X809869Y547649D01*
X810064Y549130D01*
D02*
G37*
G36*
X798330D02*
X789136D01*
X789331Y547649D01*
X790393Y545085D01*
X792083Y542883D01*
X794285Y541194D01*
X796849Y540131D01*
X798330Y539936D01*
Y549130D01*
D02*
G37*
G36*
X760864D02*
X751670D01*
Y539936D01*
X753152Y540131D01*
X755716Y541194D01*
X757917Y542883D01*
X759607Y545085D01*
X760669Y547649D01*
X760864Y549130D01*
D02*
G37*
G36*
X749130D02*
X739937D01*
X740132Y547649D01*
X741194Y545085D01*
X742883Y542883D01*
X745085Y541194D01*
X747649Y540131D01*
X749130Y539936D01*
Y549130D01*
D02*
G37*
G36*
X710064D02*
X700870D01*
Y539936D01*
X702352Y540131D01*
X704916Y541194D01*
X707117Y542883D01*
X708807Y545085D01*
X709869Y547649D01*
X710064Y549130D01*
D02*
G37*
G36*
X698330D02*
X689137D01*
X689332Y547649D01*
X690394Y545085D01*
X692083Y542883D01*
X694285Y541194D01*
X696849Y540131D01*
X698330Y539936D01*
Y549130D01*
D02*
G37*
G36*
X1598730Y555036D02*
X1595091Y554678D01*
X1590371Y553246D01*
X1586021Y550921D01*
X1582208Y547792D01*
X1579079Y543979D01*
X1576754Y539629D01*
X1575322Y534909D01*
X1574964Y531270D01*
X1598730D01*
Y555036D01*
D02*
G37*
G36*
X601270D02*
Y531270D01*
X625036D01*
X624678Y534909D01*
X623246Y539629D01*
X620921Y543979D01*
X617792Y547792D01*
X613979Y550921D01*
X609629Y553246D01*
X604909Y554678D01*
X601270Y555036D01*
D02*
G37*
G36*
X1475000Y535631D02*
X1472248Y535269D01*
X1469684Y534207D01*
X1467483Y532517D01*
X1465793Y530316D01*
X1464731Y527752D01*
X1464369Y525000D01*
X1464731Y522249D01*
X1465793Y519685D01*
X1467483Y517483D01*
X1469684Y515794D01*
X1472248Y514731D01*
X1475000Y514369D01*
X1477751Y514731D01*
X1480315Y515794D01*
X1482517Y517483D01*
X1484207Y519685D01*
X1485269Y522249D01*
X1485631Y525000D01*
X1485269Y527752D01*
X1484207Y530316D01*
X1482517Y532517D01*
X1480315Y534207D01*
X1477751Y535269D01*
X1475000Y535631D01*
D02*
G37*
G36*
X1375000D02*
X1372249Y535269D01*
X1369685Y534207D01*
X1367483Y532517D01*
X1365793Y530316D01*
X1364731Y527752D01*
X1364369Y525000D01*
X1364731Y522249D01*
X1365793Y519685D01*
X1367483Y517483D01*
X1369685Y515794D01*
X1372249Y514731D01*
X1375000Y514369D01*
X1377751Y514731D01*
X1380316Y515794D01*
X1382517Y517483D01*
X1384207Y519685D01*
X1385269Y522249D01*
X1385631Y525000D01*
X1385269Y527752D01*
X1384207Y530316D01*
X1382517Y532517D01*
X1380316Y534207D01*
X1377751Y535269D01*
X1375000Y535631D01*
D02*
G37*
G36*
X1275000D02*
X1272248Y535269D01*
X1269684Y534207D01*
X1267483Y532517D01*
X1265793Y530316D01*
X1264731Y527752D01*
X1264369Y525000D01*
X1264731Y522249D01*
X1265793Y519685D01*
X1267483Y517483D01*
X1269684Y515794D01*
X1272248Y514731D01*
X1275000Y514369D01*
X1277751Y514731D01*
X1280315Y515794D01*
X1282517Y517483D01*
X1284206Y519685D01*
X1285268Y522249D01*
X1285631Y525000D01*
X1285268Y527752D01*
X1284206Y530316D01*
X1282517Y532517D01*
X1280315Y534207D01*
X1277751Y535269D01*
X1275000Y535631D01*
D02*
G37*
G36*
X1175000D02*
X1172249Y535269D01*
X1169685Y534207D01*
X1167483Y532517D01*
X1165793Y530316D01*
X1164731Y527752D01*
X1164369Y525000D01*
X1164731Y522249D01*
X1165793Y519685D01*
X1167483Y517483D01*
X1169685Y515794D01*
X1172249Y514731D01*
X1175000Y514369D01*
X1177751Y514731D01*
X1180315Y515794D01*
X1182517Y517483D01*
X1184207Y519685D01*
X1185269Y522249D01*
X1185631Y525000D01*
X1185269Y527752D01*
X1184207Y530316D01*
X1182517Y532517D01*
X1180315Y534207D01*
X1177751Y535269D01*
X1175000Y535631D01*
D02*
G37*
G36*
X1025000D02*
X1022249Y535269D01*
X1019685Y534207D01*
X1017483Y532517D01*
X1015794Y530316D01*
X1014731Y527752D01*
X1014369Y525000D01*
X1014731Y522249D01*
X1015794Y519685D01*
X1017483Y517483D01*
X1019685Y515794D01*
X1022249Y514731D01*
X1025000Y514369D01*
X1027752Y514731D01*
X1030316Y515794D01*
X1032517Y517483D01*
X1034207Y519685D01*
X1035269Y522249D01*
X1035631Y525000D01*
X1035269Y527752D01*
X1034207Y530316D01*
X1032517Y532517D01*
X1030316Y534207D01*
X1027752Y535269D01*
X1025000Y535631D01*
D02*
G37*
G36*
X925000D02*
X922249Y535269D01*
X919685Y534207D01*
X917483Y532517D01*
X915794Y530316D01*
X914732Y527752D01*
X914369Y525000D01*
X914732Y522249D01*
X915794Y519685D01*
X917483Y517483D01*
X919685Y515794D01*
X922249Y514731D01*
X925000Y514369D01*
X927752Y514731D01*
X930316Y515794D01*
X932517Y517483D01*
X934207Y519685D01*
X935269Y522249D01*
X935631Y525000D01*
X935269Y527752D01*
X934207Y530316D01*
X932517Y532517D01*
X930316Y534207D01*
X927752Y535269D01*
X925000Y535631D01*
D02*
G37*
G36*
X825000D02*
X822249Y535269D01*
X819685Y534207D01*
X817483Y532517D01*
X815793Y530316D01*
X814731Y527752D01*
X814369Y525000D01*
X814731Y522249D01*
X815793Y519685D01*
X817483Y517483D01*
X819685Y515794D01*
X822249Y514731D01*
X825000Y514369D01*
X827751Y514731D01*
X830315Y515794D01*
X832517Y517483D01*
X834207Y519685D01*
X835269Y522249D01*
X835631Y525000D01*
X835269Y527752D01*
X834207Y530316D01*
X832517Y532517D01*
X830315Y534207D01*
X827751Y535269D01*
X825000Y535631D01*
D02*
G37*
G36*
X725000D02*
X722249Y535269D01*
X719685Y534207D01*
X717483Y532517D01*
X715794Y530316D01*
X714732Y527752D01*
X714369Y525000D01*
X714732Y522249D01*
X715794Y519685D01*
X717483Y517483D01*
X719685Y515794D01*
X722249Y514731D01*
X725000Y514369D01*
X727752Y514731D01*
X730316Y515794D01*
X732517Y517483D01*
X734207Y519685D01*
X735269Y522249D01*
X735631Y525000D01*
X735269Y527752D01*
X734207Y530316D01*
X732517Y532517D01*
X730316Y534207D01*
X727752Y535269D01*
X725000Y535631D01*
D02*
G37*
G36*
X1598730Y528730D02*
X1574964D01*
X1575322Y525091D01*
X1576754Y520371D01*
X1579079Y516021D01*
X1582208Y512208D01*
X1586021Y509079D01*
X1590371Y506754D01*
X1595091Y505322D01*
X1598730Y504964D01*
Y528730D01*
D02*
G37*
G36*
X625036D02*
X601270D01*
Y504964D01*
X604909Y505322D01*
X609629Y506754D01*
X613979Y509079D01*
X617792Y512208D01*
X620921Y516021D01*
X623246Y520371D01*
X624678Y525091D01*
X625036Y528730D01*
D02*
G37*
G36*
X1501670Y510064D02*
Y500870D01*
X1510864D01*
X1510669Y502352D01*
X1509606Y504916D01*
X1507917Y507117D01*
X1505715Y508807D01*
X1503151Y509869D01*
X1501670Y510064D01*
D02*
G37*
G36*
X1499130D02*
X1497648Y509869D01*
X1495084Y508807D01*
X1492883Y507117D01*
X1491193Y504916D01*
X1490131Y502352D01*
X1489936Y500870D01*
X1499130D01*
Y510064D01*
D02*
G37*
G36*
X1450870D02*
Y500870D01*
X1460064D01*
X1459869Y502352D01*
X1458806Y504916D01*
X1457117Y507117D01*
X1454915Y508807D01*
X1452351Y509869D01*
X1450870Y510064D01*
D02*
G37*
G36*
X1448330D02*
X1446848Y509869D01*
X1444284Y508807D01*
X1442083Y507117D01*
X1440393Y504916D01*
X1439331Y502352D01*
X1439136Y500870D01*
X1448330D01*
Y510064D01*
D02*
G37*
G36*
X1401670D02*
Y500870D01*
X1410864D01*
X1410669Y502352D01*
X1409607Y504916D01*
X1407917Y507117D01*
X1405715Y508807D01*
X1403152Y509869D01*
X1401670Y510064D01*
D02*
G37*
G36*
X1399130D02*
X1397649Y509869D01*
X1395085Y508807D01*
X1392883Y507117D01*
X1391193Y504916D01*
X1390131Y502352D01*
X1389936Y500870D01*
X1399130D01*
Y510064D01*
D02*
G37*
G36*
X1350870D02*
Y500870D01*
X1360064D01*
X1359869Y502352D01*
X1358807Y504916D01*
X1357117Y507117D01*
X1354915Y508807D01*
X1352352Y509869D01*
X1350870Y510064D01*
D02*
G37*
G36*
X1348330D02*
X1346849Y509869D01*
X1344285Y508807D01*
X1342083Y507117D01*
X1340393Y504916D01*
X1339331Y502352D01*
X1339136Y500870D01*
X1348330D01*
Y510064D01*
D02*
G37*
G36*
X1301670D02*
Y500870D01*
X1310863D01*
X1310668Y502352D01*
X1309606Y504916D01*
X1307917Y507117D01*
X1305715Y508807D01*
X1303151Y509869D01*
X1301670Y510064D01*
D02*
G37*
G36*
X1299130D02*
X1297648Y509869D01*
X1295084Y508807D01*
X1292883Y507117D01*
X1291193Y504916D01*
X1290131Y502352D01*
X1289936Y500870D01*
X1299130D01*
Y510064D01*
D02*
G37*
G36*
X1250870D02*
Y500870D01*
X1260063D01*
X1259868Y502352D01*
X1258806Y504916D01*
X1257117Y507117D01*
X1254915Y508807D01*
X1252351Y509869D01*
X1250870Y510064D01*
D02*
G37*
G36*
X1248330D02*
X1246848Y509869D01*
X1244284Y508807D01*
X1242083Y507117D01*
X1240393Y504916D01*
X1239331Y502352D01*
X1239136Y500870D01*
X1248330D01*
Y510064D01*
D02*
G37*
G36*
X1201670D02*
Y500870D01*
X1210864D01*
X1210669Y502352D01*
X1209607Y504916D01*
X1207917Y507117D01*
X1205715Y508807D01*
X1203151Y509869D01*
X1201670Y510064D01*
D02*
G37*
G36*
X1199130D02*
X1197648Y509869D01*
X1195085Y508807D01*
X1192883Y507117D01*
X1191193Y504916D01*
X1190131Y502352D01*
X1189936Y500870D01*
X1199130D01*
Y510064D01*
D02*
G37*
G36*
X1150870D02*
Y500870D01*
X1160064D01*
X1159869Y502352D01*
X1158807Y504916D01*
X1157117Y507117D01*
X1154915Y508807D01*
X1152351Y509869D01*
X1150870Y510064D01*
D02*
G37*
G36*
X1148330D02*
X1146849Y509869D01*
X1144285Y508807D01*
X1142083Y507117D01*
X1140393Y504916D01*
X1139331Y502352D01*
X1139136Y500870D01*
X1148330D01*
Y510064D01*
D02*
G37*
G36*
X1051670D02*
Y500870D01*
X1060864D01*
X1060669Y502352D01*
X1059607Y504916D01*
X1057917Y507117D01*
X1055716Y508807D01*
X1053152Y509869D01*
X1051670Y510064D01*
D02*
G37*
G36*
X1049130D02*
X1047649Y509869D01*
X1045085Y508807D01*
X1042883Y507117D01*
X1041193Y504916D01*
X1040131Y502352D01*
X1039936Y500870D01*
X1049130D01*
Y510064D01*
D02*
G37*
G36*
X1000870D02*
Y500870D01*
X1010064D01*
X1009869Y502352D01*
X1008807Y504916D01*
X1007117Y507117D01*
X1004916Y508807D01*
X1002352Y509869D01*
X1000870Y510064D01*
D02*
G37*
G36*
X998330D02*
X996849Y509869D01*
X994285Y508807D01*
X992083Y507117D01*
X990394Y504916D01*
X989331Y502352D01*
X989136Y500870D01*
X998330D01*
Y510064D01*
D02*
G37*
G36*
X951670D02*
Y500870D01*
X960864D01*
X960669Y502352D01*
X959607Y504916D01*
X957917Y507117D01*
X955716Y508807D01*
X953152Y509869D01*
X951670Y510064D01*
D02*
G37*
G36*
X949130D02*
X947649Y509869D01*
X945085Y508807D01*
X942883Y507117D01*
X941194Y504916D01*
X940132Y502352D01*
X939937Y500870D01*
X949130D01*
Y510064D01*
D02*
G37*
G36*
X900870D02*
Y500870D01*
X910064D01*
X909869Y502352D01*
X908807Y504916D01*
X907117Y507117D01*
X904916Y508807D01*
X902352Y509869D01*
X900870Y510064D01*
D02*
G37*
G36*
X898330D02*
X896849Y509869D01*
X894285Y508807D01*
X892083Y507117D01*
X890394Y504916D01*
X889332Y502352D01*
X889137Y500870D01*
X898330D01*
Y510064D01*
D02*
G37*
G36*
X851670D02*
Y500870D01*
X860864D01*
X860669Y502352D01*
X859607Y504916D01*
X857917Y507117D01*
X855715Y508807D01*
X853151Y509869D01*
X851670Y510064D01*
D02*
G37*
G36*
X849130D02*
X847648Y509869D01*
X845085Y508807D01*
X842883Y507117D01*
X841193Y504916D01*
X840131Y502352D01*
X839936Y500870D01*
X849130D01*
Y510064D01*
D02*
G37*
G36*
X800870D02*
Y500870D01*
X810064D01*
X809869Y502352D01*
X808807Y504916D01*
X807117Y507117D01*
X804915Y508807D01*
X802352Y509869D01*
X800870Y510064D01*
D02*
G37*
G36*
X798330D02*
X796849Y509869D01*
X794285Y508807D01*
X792083Y507117D01*
X790393Y504916D01*
X789331Y502352D01*
X789136Y500870D01*
X798330D01*
Y510064D01*
D02*
G37*
G36*
X751670D02*
Y500870D01*
X760864D01*
X760669Y502352D01*
X759607Y504916D01*
X757917Y507117D01*
X755716Y508807D01*
X753152Y509869D01*
X751670Y510064D01*
D02*
G37*
G36*
X749130D02*
X747649Y509869D01*
X745085Y508807D01*
X742883Y507117D01*
X741194Y504916D01*
X740132Y502352D01*
X739937Y500870D01*
X749130D01*
Y510064D01*
D02*
G37*
G36*
X700870D02*
Y500870D01*
X710064D01*
X709869Y502352D01*
X708807Y504916D01*
X707117Y507117D01*
X704916Y508807D01*
X702352Y509869D01*
X700870Y510064D01*
D02*
G37*
G36*
X698330D02*
X696849Y509869D01*
X694285Y508807D01*
X692083Y507117D01*
X690394Y504916D01*
X689332Y502352D01*
X689137Y500870D01*
X698330D01*
Y510064D01*
D02*
G37*
G36*
X1510864Y498330D02*
X1501670D01*
Y489137D01*
X1503151Y489332D01*
X1505715Y490394D01*
X1507917Y492083D01*
X1509606Y494285D01*
X1510669Y496849D01*
X1510864Y498330D01*
D02*
G37*
G36*
X1499130D02*
X1489936D01*
X1490131Y496849D01*
X1491193Y494285D01*
X1492883Y492083D01*
X1495084Y490394D01*
X1497648Y489332D01*
X1499130Y489137D01*
Y498330D01*
D02*
G37*
G36*
X1460064D02*
X1450870D01*
Y489137D01*
X1452351Y489332D01*
X1454915Y490394D01*
X1457117Y492083D01*
X1458806Y494285D01*
X1459869Y496849D01*
X1460064Y498330D01*
D02*
G37*
G36*
X1448330D02*
X1439136D01*
X1439331Y496849D01*
X1440393Y494285D01*
X1442083Y492083D01*
X1444284Y490394D01*
X1446848Y489332D01*
X1448330Y489137D01*
Y498330D01*
D02*
G37*
G36*
X1410864D02*
X1401670D01*
Y489137D01*
X1403152Y489332D01*
X1405715Y490394D01*
X1407917Y492083D01*
X1409607Y494285D01*
X1410669Y496849D01*
X1410864Y498330D01*
D02*
G37*
G36*
X1399130D02*
X1389936D01*
X1390131Y496849D01*
X1391193Y494285D01*
X1392883Y492083D01*
X1395085Y490394D01*
X1397649Y489332D01*
X1399130Y489137D01*
Y498330D01*
D02*
G37*
G36*
X1360064D02*
X1350870D01*
Y489137D01*
X1352352Y489332D01*
X1354915Y490394D01*
X1357117Y492083D01*
X1358807Y494285D01*
X1359869Y496849D01*
X1360064Y498330D01*
D02*
G37*
G36*
X1348330D02*
X1339136D01*
X1339331Y496849D01*
X1340393Y494285D01*
X1342083Y492083D01*
X1344285Y490394D01*
X1346849Y489332D01*
X1348330Y489137D01*
Y498330D01*
D02*
G37*
G36*
X1310863D02*
X1301670D01*
Y489137D01*
X1303151Y489332D01*
X1305715Y490394D01*
X1307917Y492083D01*
X1309606Y494285D01*
X1310668Y496849D01*
X1310863Y498330D01*
D02*
G37*
G36*
X1299130D02*
X1289936D01*
X1290131Y496849D01*
X1291193Y494285D01*
X1292883Y492083D01*
X1295084Y490394D01*
X1297648Y489332D01*
X1299130Y489137D01*
Y498330D01*
D02*
G37*
G36*
X1260063D02*
X1250870D01*
Y489137D01*
X1252351Y489332D01*
X1254915Y490394D01*
X1257117Y492083D01*
X1258806Y494285D01*
X1259868Y496849D01*
X1260063Y498330D01*
D02*
G37*
G36*
X1248330D02*
X1239136D01*
X1239331Y496849D01*
X1240393Y494285D01*
X1242083Y492083D01*
X1244284Y490394D01*
X1246848Y489332D01*
X1248330Y489137D01*
Y498330D01*
D02*
G37*
G36*
X1210864D02*
X1201670D01*
Y489137D01*
X1203151Y489332D01*
X1205715Y490394D01*
X1207917Y492083D01*
X1209607Y494285D01*
X1210669Y496849D01*
X1210864Y498330D01*
D02*
G37*
G36*
X1199130D02*
X1189936D01*
X1190131Y496849D01*
X1191193Y494285D01*
X1192883Y492083D01*
X1195085Y490394D01*
X1197648Y489332D01*
X1199130Y489137D01*
Y498330D01*
D02*
G37*
G36*
X1160064D02*
X1150870D01*
Y489137D01*
X1152351Y489332D01*
X1154915Y490394D01*
X1157117Y492083D01*
X1158807Y494285D01*
X1159869Y496849D01*
X1160064Y498330D01*
D02*
G37*
G36*
X1148330D02*
X1139136D01*
X1139331Y496849D01*
X1140393Y494285D01*
X1142083Y492083D01*
X1144285Y490394D01*
X1146849Y489332D01*
X1148330Y489137D01*
Y498330D01*
D02*
G37*
G36*
X1060864D02*
X1051670D01*
Y489137D01*
X1053152Y489332D01*
X1055716Y490394D01*
X1057917Y492083D01*
X1059607Y494285D01*
X1060669Y496849D01*
X1060864Y498330D01*
D02*
G37*
G36*
X1049130D02*
X1039936D01*
X1040131Y496849D01*
X1041193Y494285D01*
X1042883Y492083D01*
X1045085Y490394D01*
X1047649Y489332D01*
X1049130Y489137D01*
Y498330D01*
D02*
G37*
G36*
X1010064D02*
X1000870D01*
Y489137D01*
X1002352Y489332D01*
X1004916Y490394D01*
X1007117Y492083D01*
X1008807Y494285D01*
X1009869Y496849D01*
X1010064Y498330D01*
D02*
G37*
G36*
X998330D02*
X989136D01*
X989331Y496849D01*
X990394Y494285D01*
X992083Y492083D01*
X994285Y490394D01*
X996849Y489332D01*
X998330Y489137D01*
Y498330D01*
D02*
G37*
G36*
X960864D02*
X951670D01*
Y489137D01*
X953152Y489332D01*
X955716Y490394D01*
X957917Y492083D01*
X959607Y494285D01*
X960669Y496849D01*
X960864Y498330D01*
D02*
G37*
G36*
X949130D02*
X939937D01*
X940132Y496849D01*
X941194Y494285D01*
X942883Y492083D01*
X945085Y490394D01*
X947649Y489332D01*
X949130Y489137D01*
Y498330D01*
D02*
G37*
G36*
X910064D02*
X900870D01*
Y489137D01*
X902352Y489332D01*
X904916Y490394D01*
X907117Y492083D01*
X908807Y494285D01*
X909869Y496849D01*
X910064Y498330D01*
D02*
G37*
G36*
X898330D02*
X889137D01*
X889332Y496849D01*
X890394Y494285D01*
X892083Y492083D01*
X894285Y490394D01*
X896849Y489332D01*
X898330Y489137D01*
Y498330D01*
D02*
G37*
G36*
X860864D02*
X851670D01*
Y489137D01*
X853151Y489332D01*
X855715Y490394D01*
X857917Y492083D01*
X859607Y494285D01*
X860669Y496849D01*
X860864Y498330D01*
D02*
G37*
G36*
X849130D02*
X839936D01*
X840131Y496849D01*
X841193Y494285D01*
X842883Y492083D01*
X845085Y490394D01*
X847648Y489332D01*
X849130Y489137D01*
Y498330D01*
D02*
G37*
G36*
X810064D02*
X800870D01*
Y489137D01*
X802352Y489332D01*
X804915Y490394D01*
X807117Y492083D01*
X808807Y494285D01*
X809869Y496849D01*
X810064Y498330D01*
D02*
G37*
G36*
X798330D02*
X789136D01*
X789331Y496849D01*
X790393Y494285D01*
X792083Y492083D01*
X794285Y490394D01*
X796849Y489332D01*
X798330Y489137D01*
Y498330D01*
D02*
G37*
G36*
X760864D02*
X751670D01*
Y489137D01*
X753152Y489332D01*
X755716Y490394D01*
X757917Y492083D01*
X759607Y494285D01*
X760669Y496849D01*
X760864Y498330D01*
D02*
G37*
G36*
X749130D02*
X739937D01*
X740132Y496849D01*
X741194Y494285D01*
X742883Y492083D01*
X745085Y490394D01*
X747649Y489332D01*
X749130Y489137D01*
Y498330D01*
D02*
G37*
G36*
X710064D02*
X700870D01*
Y489137D01*
X702352Y489332D01*
X704916Y490394D01*
X707117Y492083D01*
X708807Y494285D01*
X709869Y496849D01*
X710064Y498330D01*
D02*
G37*
G36*
X698330D02*
X689137D01*
X689332Y496849D01*
X690394Y494285D01*
X692083Y492083D01*
X694285Y490394D01*
X696849Y489332D01*
X698330Y489137D01*
Y498330D01*
D02*
G37*
%LPD*%
D16*
X1476200Y999600D02*
D03*
X1450800Y1025000D02*
D03*
Y974200D02*
D03*
X1501600D02*
D03*
Y1025000D02*
D03*
X1475000Y525000D02*
D03*
X1449600Y550400D02*
D03*
Y499600D02*
D03*
X1500400D02*
D03*
Y550400D02*
D03*
X1375000Y525000D02*
D03*
X1349600Y550400D02*
D03*
Y499600D02*
D03*
X1400400D02*
D03*
Y550400D02*
D03*
X1275000Y525000D02*
D03*
X1249600Y550400D02*
D03*
Y499600D02*
D03*
X1300400D02*
D03*
Y550400D02*
D03*
X1175000Y525000D02*
D03*
X1149600Y550400D02*
D03*
Y499600D02*
D03*
X1200400D02*
D03*
Y550400D02*
D03*
X1025000Y525000D02*
D03*
X999600Y550400D02*
D03*
Y499600D02*
D03*
X1050400D02*
D03*
Y550400D02*
D03*
X925000Y525000D02*
D03*
X899600Y550400D02*
D03*
Y499600D02*
D03*
X950400D02*
D03*
Y550400D02*
D03*
X825000Y525000D02*
D03*
X799600Y550400D02*
D03*
Y499600D02*
D03*
X850400D02*
D03*
Y550400D02*
D03*
X725000Y525000D02*
D03*
X699600Y550400D02*
D03*
Y499600D02*
D03*
X750400D02*
D03*
Y550400D02*
D03*
X1025000Y1000000D02*
D03*
X999600Y1025400D02*
D03*
Y974600D02*
D03*
X1050400D02*
D03*
Y1025400D02*
D03*
X925000Y1000000D02*
D03*
X899600Y1025400D02*
D03*
Y974600D02*
D03*
X950400D02*
D03*
Y1025400D02*
D03*
X950800Y650000D02*
D03*
Y599200D02*
D03*
X900000D02*
D03*
Y650000D02*
D03*
X925400Y624600D02*
D03*
X850800Y650000D02*
D03*
Y599200D02*
D03*
X800000D02*
D03*
Y650000D02*
D03*
X825400Y624600D02*
D03*
X750800Y650000D02*
D03*
Y599200D02*
D03*
X700000D02*
D03*
Y650000D02*
D03*
X725400Y624600D02*
D03*
X650800Y650000D02*
D03*
Y599200D02*
D03*
X600000D02*
D03*
Y650000D02*
D03*
X625400Y624600D02*
D03*
X959600Y900400D02*
D03*
Y849600D02*
D03*
X908800D02*
D03*
Y900400D02*
D03*
X934200Y875000D02*
D03*
X859600Y900400D02*
D03*
Y849600D02*
D03*
X808800D02*
D03*
Y900400D02*
D03*
X834200Y875000D02*
D03*
X759600Y900400D02*
D03*
Y849600D02*
D03*
X708800D02*
D03*
Y900400D02*
D03*
X734200Y875000D02*
D03*
X660400Y900400D02*
D03*
Y849600D02*
D03*
X609600D02*
D03*
Y900400D02*
D03*
X635000Y875000D02*
D03*
X850401Y1025400D02*
D03*
Y974600D02*
D03*
X799601D02*
D03*
Y1025400D02*
D03*
X825001Y1000000D02*
D03*
X750400Y1025400D02*
D03*
Y974600D02*
D03*
X699600D02*
D03*
Y1025400D02*
D03*
X725000Y1000000D02*
D03*
X1600000Y650000D02*
D03*
Y599200D02*
D03*
X1549200D02*
D03*
Y650000D02*
D03*
X1574600Y624600D02*
D03*
X1500000Y650000D02*
D03*
Y599200D02*
D03*
X1449200D02*
D03*
Y650000D02*
D03*
X1474599Y624600D02*
D03*
X1400000Y650000D02*
D03*
Y599200D02*
D03*
X1349200D02*
D03*
Y650000D02*
D03*
X1374600Y624600D02*
D03*
X1299999Y650000D02*
D03*
Y599200D02*
D03*
X1249199D02*
D03*
Y650000D02*
D03*
X1274599Y624600D02*
D03*
X1401600Y1024200D02*
D03*
Y973400D02*
D03*
X1350800D02*
D03*
Y1024200D02*
D03*
X1376200Y998800D02*
D03*
X1300800Y1024200D02*
D03*
Y973400D02*
D03*
X1250000D02*
D03*
Y1024200D02*
D03*
X1275400Y998800D02*
D03*
X1200800Y1025000D02*
D03*
Y974200D02*
D03*
X1150000D02*
D03*
Y1025000D02*
D03*
X1175400Y999600D02*
D03*
X1600000Y900000D02*
D03*
Y849200D02*
D03*
X1549200D02*
D03*
Y900000D02*
D03*
X1574600Y874600D02*
D03*
X1500000Y900000D02*
D03*
Y849200D02*
D03*
X1449200D02*
D03*
Y900000D02*
D03*
X1474599Y874600D02*
D03*
X1400000Y900000D02*
D03*
Y849200D02*
D03*
X1349200D02*
D03*
Y900000D02*
D03*
X1374600Y874600D02*
D03*
X1299999Y900000D02*
D03*
Y849200D02*
D03*
X1249199D02*
D03*
Y900000D02*
D03*
X1274599Y874600D02*
D03*
X1575400Y775400D02*
D03*
Y724600D02*
D03*
X1524600D02*
D03*
Y775400D02*
D03*
X1550000Y750000D02*
D03*
X1125400Y650400D02*
D03*
Y599600D02*
D03*
X1074600D02*
D03*
Y650400D02*
D03*
X1100000Y625000D02*
D03*
X1075400Y900400D02*
D03*
Y849600D02*
D03*
X1024600D02*
D03*
Y900400D02*
D03*
X1050000Y875000D02*
D03*
X1175400Y900400D02*
D03*
Y849600D02*
D03*
X1124600D02*
D03*
Y900400D02*
D03*
X1150000Y875000D02*
D03*
D17*
X600000Y530000D02*
D03*
Y1000000D02*
D03*
X1600000Y530000D02*
D03*
Y1000000D02*
D03*
D18*
X1269866Y764224D02*
D03*
X1242264D02*
D03*
X1214661D02*
D03*
X1187059D02*
D03*
X1159457D02*
D03*
X1131855D02*
D03*
X1104253D02*
D03*
X1076651D02*
D03*
X1049048D02*
D03*
X1021446D02*
D03*
X993844D02*
D03*
X966242D02*
D03*
X1283625Y735776D02*
D03*
X1256023D02*
D03*
X1228421D02*
D03*
X1200818D02*
D03*
X1173216D02*
D03*
X1145614D02*
D03*
X1118012D02*
D03*
X1090410D02*
D03*
X1062808D02*
D03*
X1035205D02*
D03*
X1007603D02*
D03*
X980001D02*
D03*
X952399D02*
D03*
X1311227D02*
D03*
X1338829D02*
D03*
X1366432D02*
D03*
X1297468Y764224D02*
D03*
X1325070D02*
D03*
X1352672D02*
D03*
X869592Y735776D02*
D03*
X897195D02*
D03*
X924797D02*
D03*
X883435Y764224D02*
D03*
X911038D02*
D03*
X938640D02*
D03*
D19*
X800000Y750000D02*
D03*
X1436013D02*
D03*
M02*
