G04*
G04 #@! TF.GenerationSoftware,Altium Limited,Altium Designer,19.1.5 (86)*
G04*
G04 Layer_Color=255*
%FSLAX44Y44*%
%MOMM*%
G71*
G01*
G75*
%ADD16C,1.6000*%
%ADD17C,4.5000*%
%ADD18C,1.8000*%
%ADD19C,5.5000*%
D16*
X1476200Y999600D02*
D03*
X1450800Y1025000D02*
D03*
Y974200D02*
D03*
X1501600D02*
D03*
Y1025000D02*
D03*
X1475000Y525000D02*
D03*
X1449600Y550400D02*
D03*
Y499600D02*
D03*
X1500400D02*
D03*
Y550400D02*
D03*
X1375000Y525000D02*
D03*
X1349600Y550400D02*
D03*
Y499600D02*
D03*
X1400400D02*
D03*
Y550400D02*
D03*
X1275000Y525000D02*
D03*
X1249600Y550400D02*
D03*
Y499600D02*
D03*
X1300400D02*
D03*
Y550400D02*
D03*
X1175000Y525000D02*
D03*
X1149600Y550400D02*
D03*
Y499600D02*
D03*
X1200400D02*
D03*
Y550400D02*
D03*
X1025000Y525000D02*
D03*
X999600Y550400D02*
D03*
Y499600D02*
D03*
X1050400D02*
D03*
Y550400D02*
D03*
X925000Y525000D02*
D03*
X899600Y550400D02*
D03*
Y499600D02*
D03*
X950400D02*
D03*
Y550400D02*
D03*
X825000Y525000D02*
D03*
X799600Y550400D02*
D03*
Y499600D02*
D03*
X850400D02*
D03*
Y550400D02*
D03*
X725000Y525000D02*
D03*
X699600Y550400D02*
D03*
Y499600D02*
D03*
X750400D02*
D03*
Y550400D02*
D03*
X1025000Y1000000D02*
D03*
X999600Y1025400D02*
D03*
Y974600D02*
D03*
X1050400D02*
D03*
Y1025400D02*
D03*
X925000Y1000000D02*
D03*
X899600Y1025400D02*
D03*
Y974600D02*
D03*
X950400D02*
D03*
Y1025400D02*
D03*
X950800Y650000D02*
D03*
Y599200D02*
D03*
X900000D02*
D03*
Y650000D02*
D03*
X925400Y624600D02*
D03*
X850800Y650000D02*
D03*
Y599200D02*
D03*
X800000D02*
D03*
Y650000D02*
D03*
X825400Y624600D02*
D03*
X750800Y650000D02*
D03*
Y599200D02*
D03*
X700000D02*
D03*
Y650000D02*
D03*
X725400Y624600D02*
D03*
X650800Y650000D02*
D03*
Y599200D02*
D03*
X600000D02*
D03*
Y650000D02*
D03*
X625400Y624600D02*
D03*
X959600Y900400D02*
D03*
Y849600D02*
D03*
X908800D02*
D03*
Y900400D02*
D03*
X934200Y875000D02*
D03*
X859600Y900400D02*
D03*
Y849600D02*
D03*
X808800D02*
D03*
Y900400D02*
D03*
X834200Y875000D02*
D03*
X759600Y900400D02*
D03*
Y849600D02*
D03*
X708800D02*
D03*
Y900400D02*
D03*
X734200Y875000D02*
D03*
X660400Y900400D02*
D03*
Y849600D02*
D03*
X609600D02*
D03*
Y900400D02*
D03*
X635000Y875000D02*
D03*
X850401Y1025400D02*
D03*
Y974600D02*
D03*
X799601D02*
D03*
Y1025400D02*
D03*
X825001Y1000000D02*
D03*
X750400Y1025400D02*
D03*
Y974600D02*
D03*
X699600D02*
D03*
Y1025400D02*
D03*
X725000Y1000000D02*
D03*
X1600000Y650000D02*
D03*
Y599200D02*
D03*
X1549200D02*
D03*
Y650000D02*
D03*
X1574600Y624600D02*
D03*
X1500000Y650000D02*
D03*
Y599200D02*
D03*
X1449200D02*
D03*
Y650000D02*
D03*
X1474599Y624600D02*
D03*
X1400000Y650000D02*
D03*
Y599200D02*
D03*
X1349200D02*
D03*
Y650000D02*
D03*
X1374600Y624600D02*
D03*
X1299999Y650000D02*
D03*
Y599200D02*
D03*
X1249199D02*
D03*
Y650000D02*
D03*
X1274599Y624600D02*
D03*
X1401600Y1024200D02*
D03*
Y973400D02*
D03*
X1350800D02*
D03*
Y1024200D02*
D03*
X1376200Y998800D02*
D03*
X1300800Y1024200D02*
D03*
Y973400D02*
D03*
X1250000D02*
D03*
Y1024200D02*
D03*
X1275400Y998800D02*
D03*
X1200800Y1025000D02*
D03*
Y974200D02*
D03*
X1150000D02*
D03*
Y1025000D02*
D03*
X1175400Y999600D02*
D03*
X1600000Y900000D02*
D03*
Y849200D02*
D03*
X1549200D02*
D03*
Y900000D02*
D03*
X1574600Y874600D02*
D03*
X1500000Y900000D02*
D03*
Y849200D02*
D03*
X1449200D02*
D03*
Y900000D02*
D03*
X1474599Y874600D02*
D03*
X1400000Y900000D02*
D03*
Y849200D02*
D03*
X1349200D02*
D03*
Y900000D02*
D03*
X1374600Y874600D02*
D03*
X1299999Y900000D02*
D03*
Y849200D02*
D03*
X1249199D02*
D03*
Y900000D02*
D03*
X1274599Y874600D02*
D03*
X1575400Y775400D02*
D03*
Y724600D02*
D03*
X1524600D02*
D03*
Y775400D02*
D03*
X1550000Y750000D02*
D03*
X1125400Y650400D02*
D03*
Y599600D02*
D03*
X1074600D02*
D03*
Y650400D02*
D03*
X1100000Y625000D02*
D03*
X1075400Y900400D02*
D03*
Y849600D02*
D03*
X1024600D02*
D03*
Y900400D02*
D03*
X1050000Y875000D02*
D03*
X1175400Y900400D02*
D03*
Y849600D02*
D03*
X1124600D02*
D03*
Y900400D02*
D03*
X1150000Y875000D02*
D03*
D17*
X600000Y530000D02*
D03*
Y1000000D02*
D03*
X1600000Y530000D02*
D03*
Y1000000D02*
D03*
D18*
X1269866Y764224D02*
D03*
X1242264D02*
D03*
X1214661D02*
D03*
X1187059D02*
D03*
X1159457D02*
D03*
X1131855D02*
D03*
X1104253D02*
D03*
X1076651D02*
D03*
X1049048D02*
D03*
X1021446D02*
D03*
X993844D02*
D03*
X966242D02*
D03*
X1283625Y735776D02*
D03*
X1256023D02*
D03*
X1228421D02*
D03*
X1200818D02*
D03*
X1173216D02*
D03*
X1145614D02*
D03*
X1118012D02*
D03*
X1090410D02*
D03*
X1062808D02*
D03*
X1035205D02*
D03*
X1007603D02*
D03*
X980001D02*
D03*
X952399D02*
D03*
X1311227D02*
D03*
X1338829D02*
D03*
X1366432D02*
D03*
X1297468Y764224D02*
D03*
X1325070D02*
D03*
X1352672D02*
D03*
X869592Y735776D02*
D03*
X897195D02*
D03*
X924797D02*
D03*
X883435Y764224D02*
D03*
X911038D02*
D03*
X938640D02*
D03*
D19*
X800000Y750000D02*
D03*
X1436013D02*
D03*
M02*
