M48
;Layer_Color=9474304
;FILE_FORMAT=2:5
INCH,LZ
;TYPE=PLATED
T1F00S00C0.03543
T2F00S00C0.04331
T3F00S00C0.07874
T4F00S00C0.12598
%
T01
X0629921Y0235906
Y0255906
X0609921
X0590551
Y0235906
X0590709Y0216693
X0580709Y0206693
X0570709Y0216693
X0551339
X0551181Y0235906
X0570551
Y0255906
X0551181
X0531181
X0511811
Y0235906
X0511968Y0216693
X0531339
X0531181Y0235906
X0541181Y0245906
X0580551
X0609921Y0235906
X0619921Y0245906
X0620236Y0285276
Y0305276
X0600236
Y0285276
X0610236Y0295276
X0590709Y0196693
X0570709
X0551339
X0541339Y0206693
X0531339Y0196693
X0511968
X0501968Y0206693
X0491968Y0216693
X0472598
Y0196693
X0491968
X0491811Y0235906
Y0255906
X0501811Y0245906
X0443071Y0236063
Y0256063
X0423071
Y0236063
X0433071Y0246063
X0413543Y0216693
X0403543Y0206693
X0393543Y0216693
X0374173
X0374331Y0235906
Y0255906
X0354331
X0334961
Y0235906
X0334803Y0216693
X0354173
X0354331Y0235906
X0364331Y0245906
X0364173Y0206693
X0354173Y0196693
X0334803
X0324803Y0206693
X0314803Y0216693
X0314961Y0235906
Y0255906
X0324961Y0245906
X0314803Y0196693
X0374173
X0393543
X0413543
X0452598
X0462598Y0206693
X0452598Y0216693
X0295433
X0295591Y0235906
Y0255906
X0275591
X025622
Y0235906
X0275591
X0275433Y0216693
X0285433Y0206693
X0275433Y0196693
X0295433
X0285591Y0245906
X024622
X023622Y0235906
Y0255906
X024Y0334488
X026
X0279055
X0299055
Y0354488
X0279055
X026
X024
X025Y0344488
X0289055
X0295433Y0383701
Y0403701
X0275433
Y0383701
X0285433Y0393701
X0314803Y0383701
X0334803
X0354173
X0364173Y0393701
X0354173Y0403701
X0334803
X0314803
X0324803Y0393701
X0318425Y0354488
X0338425
X0357795
X0377795
Y0334488
X0357795
X0338425
X0318425
X0328425Y0344488
X0367795
X0403386Y0334488
X0423386
X0442756
X0462756
Y0354488
X0442756
X0423386
X0403386
X0413386Y0344488
X0413543Y0383701
X0403543Y0393701
X0393543Y0403701
X0374173
Y0383701
X0393543
X0413543Y0403701
X0452756Y0403543
Y0383543
X0462756Y0393543
X0452756Y0344488
X0491811Y0354331
X0511811
X0531181
X0551181
X0570551
X0590551
X0609921
Y0334331
X0590551
X0570551
X0551181
X0531181
X0511811
X0491811
X0501811Y0344331
X0541181
X0580551
X0619921
X0591181Y0383543
X0581181Y0393543
X0571181Y0403543
X0551811Y0403228
Y0383228
X0571181Y0383543
X0541811Y0393228
X0531811Y0383228
X0512126
Y0403228
X0531811
X0492126
X0472756Y0403543
Y0383543
X0492126Y0383228
X0502126Y0393228
X0591181Y0403543
X0629921Y0354331
Y0334331
T02
X0472763Y0289676
X048363
X0494497
X0505364
X0516231
X0527098
X0537965
X0532548Y0300876
X0521681
X0510814
X0499947
X048908
X0478213
X0467346
X0456479
X0445612
X0434745
X0423878
X0413011
X0402144
X0391277
X038041
X0369543
X0358676
X0347809
X0353226Y0289676
X0342359
X0364093
X037496
X0385827
X0396694
X0407561
X0418428
X0429295
X0440162
X0451029
X0461896
T03
X0629921Y0208661
X023622
Y0393701
X0629921
T04
X056536Y0295276
X0314961
M30
