G04*
G04 #@! TF.GenerationSoftware,Altium Limited,Altium Designer,19.1.5 (86)*
G04*
G04 Layer_Color=8388736*
%FSLAX25Y25*%
%MOIN*%
G70*
G01*
G75*
%ADD12C,0.18517*%
%ADD13C,0.07099*%
%ADD14C,0.07887*%
%ADD15C,0.22453*%
D12*
X-413386Y-27559D02*
D03*
Y-212598D02*
D03*
X-19685Y-27559D02*
D03*
Y-212598D02*
D03*
D13*
X-236063Y-204567D02*
D03*
Y-224567D02*
D03*
X-256063D02*
D03*
Y-204567D02*
D03*
X-246063Y-214567D02*
D03*
X-108425Y-175354D02*
D03*
X-118425Y-165354D02*
D03*
Y-185354D02*
D03*
X-98425D02*
D03*
Y-165354D02*
D03*
X-68425Y-27716D02*
D03*
X-78425Y-17716D02*
D03*
Y-37716D02*
D03*
X-58425D02*
D03*
Y-17716D02*
D03*
X-68898Y-214567D02*
D03*
X-78898Y-204567D02*
D03*
Y-224567D02*
D03*
X-58898D02*
D03*
Y-204567D02*
D03*
X-108268Y-214567D02*
D03*
X-118268Y-204567D02*
D03*
Y-224567D02*
D03*
X-98268D02*
D03*
Y-204567D02*
D03*
X-147638Y-214567D02*
D03*
X-157638Y-204567D02*
D03*
Y-224567D02*
D03*
X-137638D02*
D03*
Y-204567D02*
D03*
X-187008Y-214567D02*
D03*
X-197008Y-204567D02*
D03*
Y-224567D02*
D03*
X-177008D02*
D03*
Y-204567D02*
D03*
X-285433Y-214567D02*
D03*
X-295433Y-204567D02*
D03*
Y-224567D02*
D03*
X-275433D02*
D03*
Y-204567D02*
D03*
X-324803Y-214567D02*
D03*
X-334803Y-204567D02*
D03*
Y-224567D02*
D03*
X-314803D02*
D03*
Y-204567D02*
D03*
X-364173Y-214567D02*
D03*
X-374173Y-204567D02*
D03*
Y-224567D02*
D03*
X-354173D02*
D03*
Y-204567D02*
D03*
X-246063Y-27559D02*
D03*
X-256063Y-17559D02*
D03*
Y-37559D02*
D03*
X-236063D02*
D03*
Y-17559D02*
D03*
X-285433Y-27559D02*
D03*
X-295433Y-17559D02*
D03*
Y-37559D02*
D03*
X-275433D02*
D03*
Y-17559D02*
D03*
X-275276Y-165354D02*
D03*
Y-185354D02*
D03*
X-295276D02*
D03*
Y-165354D02*
D03*
X-285276Y-175354D02*
D03*
X-314646Y-165354D02*
D03*
Y-185354D02*
D03*
X-334646D02*
D03*
Y-165354D02*
D03*
X-324646Y-175354D02*
D03*
X-354016Y-165354D02*
D03*
Y-185354D02*
D03*
X-374016D02*
D03*
Y-165354D02*
D03*
X-364016Y-175354D02*
D03*
X-393386Y-165354D02*
D03*
Y-185354D02*
D03*
X-413386D02*
D03*
Y-165354D02*
D03*
X-403386Y-175354D02*
D03*
X-271811Y-66772D02*
D03*
Y-86772D02*
D03*
X-291811D02*
D03*
Y-66772D02*
D03*
X-281811Y-76772D02*
D03*
X-311181Y-66772D02*
D03*
Y-86772D02*
D03*
X-331181D02*
D03*
Y-66772D02*
D03*
X-321181Y-76772D02*
D03*
X-350551Y-66772D02*
D03*
Y-86772D02*
D03*
X-370551D02*
D03*
Y-66772D02*
D03*
X-360551Y-76772D02*
D03*
X-389606Y-66772D02*
D03*
Y-86772D02*
D03*
X-409606D02*
D03*
Y-66772D02*
D03*
X-399606Y-76772D02*
D03*
X-314803Y-17559D02*
D03*
Y-37559D02*
D03*
X-334803D02*
D03*
Y-17559D02*
D03*
X-324803Y-27559D02*
D03*
X-354173Y-17559D02*
D03*
Y-37559D02*
D03*
X-374173D02*
D03*
Y-17559D02*
D03*
X-364173Y-27559D02*
D03*
X-19685Y-165354D02*
D03*
Y-185354D02*
D03*
X-39685D02*
D03*
Y-165354D02*
D03*
X-29685Y-175354D02*
D03*
X-59055Y-165354D02*
D03*
Y-185354D02*
D03*
X-79055D02*
D03*
Y-165354D02*
D03*
X-69055Y-175354D02*
D03*
X-137795Y-165354D02*
D03*
Y-185354D02*
D03*
X-157796D02*
D03*
Y-165354D02*
D03*
X-147795Y-175354D02*
D03*
X-97795Y-18031D02*
D03*
Y-38031D02*
D03*
X-117795D02*
D03*
Y-18031D02*
D03*
X-107795Y-28031D02*
D03*
X-137480Y-18031D02*
D03*
Y-38031D02*
D03*
X-157480D02*
D03*
Y-18031D02*
D03*
X-147480Y-28031D02*
D03*
X-176850Y-17716D02*
D03*
Y-37716D02*
D03*
X-196850D02*
D03*
Y-17716D02*
D03*
X-186850Y-27716D02*
D03*
X-19685Y-66929D02*
D03*
Y-86929D02*
D03*
X-39685D02*
D03*
Y-66929D02*
D03*
X-29685Y-76929D02*
D03*
X-59055Y-66929D02*
D03*
Y-86929D02*
D03*
X-79055D02*
D03*
Y-66929D02*
D03*
X-69055Y-76929D02*
D03*
X-98425Y-66929D02*
D03*
Y-86929D02*
D03*
X-118425D02*
D03*
Y-66929D02*
D03*
X-108425Y-76929D02*
D03*
X-137795Y-66929D02*
D03*
Y-86929D02*
D03*
X-157796D02*
D03*
Y-66929D02*
D03*
X-147795Y-76929D02*
D03*
X-226220Y-66772D02*
D03*
Y-86772D02*
D03*
X-246220D02*
D03*
Y-66772D02*
D03*
X-236221Y-76772D02*
D03*
X-186850Y-66772D02*
D03*
Y-86772D02*
D03*
X-206850D02*
D03*
Y-66772D02*
D03*
X-196850Y-76772D02*
D03*
D14*
X-149659Y-120384D02*
D03*
X-160526D02*
D03*
X-171393D02*
D03*
X-182260D02*
D03*
X-193127D02*
D03*
X-203994D02*
D03*
X-214861D02*
D03*
X-225728D02*
D03*
X-236595D02*
D03*
X-247462D02*
D03*
X-258329D02*
D03*
X-269196D02*
D03*
X-144242Y-131584D02*
D03*
X-155109D02*
D03*
X-165976D02*
D03*
X-176843D02*
D03*
X-187710D02*
D03*
X-198577D02*
D03*
X-209444D02*
D03*
X-220311D02*
D03*
X-231178D02*
D03*
X-242045D02*
D03*
X-252912D02*
D03*
X-263779D02*
D03*
X-274646D02*
D03*
X-133375D02*
D03*
X-122508D02*
D03*
X-111641D02*
D03*
X-138792Y-120384D02*
D03*
X-127925D02*
D03*
X-117058D02*
D03*
X-307247Y-131584D02*
D03*
X-296380D02*
D03*
X-285513D02*
D03*
X-301797Y-120384D02*
D03*
X-290930D02*
D03*
X-280063D02*
D03*
D15*
X-334646Y-125984D02*
D03*
X-84247D02*
D03*
M02*
