G04*
G04 #@! TF.GenerationSoftware,Altium Limited,Altium Designer,19.1.5 (86)*
G04*
G04 Layer_Physical_Order=1*
G04 Layer_Color=255*
%FSLAX25Y25*%
%MOIN*%
G70*
G01*
G75*
%ADD10C,0.00787*%
%ADD11C,0.01000*%
%ADD16C,0.17717*%
%ADD17C,0.06299*%
%ADD18C,0.07087*%
%ADD19C,0.21654*%
D10*
X-433071Y0D02*
X0D01*
X-433071Y-236220D02*
Y0D01*
Y-236220D02*
X0D01*
Y-55118D02*
Y0D01*
Y-236220D02*
Y-173228D01*
Y-55118D01*
D11*
X-399606Y-92520D02*
Y-76772D01*
Y-92520D02*
X-397638Y-94488D01*
X-350394D01*
X-334646Y-110236D02*
X-244094D01*
X-350394Y-94488D02*
X-334646Y-110236D01*
X-209037Y-122473D02*
Y-119076D01*
X-213457Y-114656D02*
X-209037Y-119076D01*
X-239675Y-114656D02*
X-213457D01*
X-199926Y-131584D02*
X-198577D01*
X-244094Y-110236D02*
X-239675Y-114656D01*
X-209037Y-122473D02*
X-199926Y-131584D01*
X-272557Y-126541D02*
X-268678Y-130420D01*
X-276735Y-126541D02*
X-272557D01*
X-279689Y-129495D02*
X-276735Y-126541D01*
X-332677Y-76772D02*
X-303150Y-106299D01*
X-360551Y-76772D02*
X-332677D01*
X-303150Y-106299D02*
X-244094D01*
X-240094Y-110299D01*
X-204724D01*
X-198170Y-116853D01*
Y-122473D02*
Y-116853D01*
Y-122473D02*
X-189059Y-131584D01*
X-187710D01*
X-321181Y-76772D02*
X-301181D01*
X-299213Y-78740D01*
Y-85946D02*
Y-78740D01*
Y-85946D02*
X-286733Y-98425D01*
X-232283D01*
X-222410Y-108299D01*
X-198080D01*
X-187303Y-119076D01*
Y-122473D02*
Y-119076D01*
Y-122473D02*
X-178192Y-131584D01*
X-176843D01*
X-269685Y-76772D02*
X-251969Y-94488D01*
X-281811Y-76772D02*
X-269685D01*
X-251969Y-94488D02*
X-224410D01*
X-212598Y-106299D01*
X-185039D01*
X-177165Y-114173D01*
Y-121744D02*
Y-114173D01*
Y-121744D02*
X-167325Y-131584D01*
X-165976D01*
X-246063Y-214567D02*
Y-146469D01*
X-231178Y-131584D01*
X-278810Y-216535D02*
X-275591D01*
X-280779Y-214567D02*
X-278810Y-216535D01*
X-285433Y-214567D02*
X-280779D01*
X-275591Y-216535D02*
X-267717Y-208661D01*
Y-192913D01*
X-255463Y-180660D01*
Y-145002D01*
X-242045Y-131584D01*
X-307087Y-203426D02*
Y-200787D01*
X-318228Y-214567D02*
X-307087Y-203426D01*
X-324803Y-214567D02*
X-318228D01*
X-307087Y-200787D02*
X-303150Y-196850D01*
X-279528D01*
X-267717Y-185039D01*
Y-146389D01*
X-252912Y-131584D01*
X-364173Y-214567D02*
Y-206693D01*
X-354331Y-196850D01*
X-311024D01*
X-307087Y-192913D01*
Y-165354D01*
X-279689Y-137957D01*
Y-129495D01*
X-268678Y-130420D02*
X-264944D01*
X-263779Y-131584D01*
X-285276Y-175354D02*
Y-158890D01*
X-274646Y-148261D01*
Y-131584D01*
X-324646Y-175354D02*
Y-167165D01*
X-304563Y-147083D01*
X-301012D01*
X-285513Y-131584D01*
X-364016Y-175354D02*
Y-167165D01*
X-354331Y-157480D01*
X-326011D01*
X-301279Y-132749D01*
X-297545D01*
X-296380Y-131584D01*
X-403386Y-175354D02*
Y-163228D01*
X-387241Y-147083D01*
X-338312D01*
X-322813Y-131584D01*
X-307247D01*
X-364173Y-41339D02*
X-346457Y-59055D01*
X-364173Y-41339D02*
Y-27559D01*
X-346457Y-59055D02*
X-224410D01*
X-220472Y-62992D01*
Y-86614D02*
Y-62992D01*
Y-86614D02*
X-208554Y-98533D01*
X-173551D01*
X-165569Y-106514D01*
Y-122473D02*
Y-106514D01*
Y-122473D02*
X-156458Y-131584D01*
X-155109D01*
X-324803Y-27559D02*
X-311024D01*
X-324803Y-27559D02*
X-324803Y-27559D01*
X-311024D02*
X-309055Y-25591D01*
Y-17717D01*
X-299213Y-7874D01*
X-232283D01*
X-228346Y-11811D01*
Y-31496D02*
Y-11811D01*
Y-31496D02*
X-216535Y-43307D01*
X-241519Y-38679D02*
X-232953Y-47244D01*
X-11811D01*
X-241519Y-38679D02*
Y-32103D01*
X-246063Y-27559D02*
X-241519Y-32103D01*
X-216535Y-43307D02*
X-12920D01*
X-7874Y-48353D01*
Y-98425D02*
Y-48353D01*
X-11811Y-102362D02*
X-7874Y-98425D01*
X-11811Y-114173D02*
Y-102362D01*
X-19685Y-122047D02*
X-11811Y-114173D01*
X-47244Y-122047D02*
X-19685D01*
X-70866Y-145669D02*
X-47244Y-122047D01*
X-130157Y-145669D02*
X-70866D01*
X-103199Y-113657D02*
X-30980D01*
X-121126Y-131584D02*
X-103199Y-113657D01*
X-30980D02*
X-11811Y-94488D01*
X-122508Y-131584D02*
X-121126D01*
X-144242D02*
X-130157Y-145669D01*
X-11811Y-94488D02*
Y-47244D01*
X-150635Y-126541D02*
X-142153D01*
X-155483Y-121693D02*
X-150635Y-126541D01*
X-155483Y-121693D02*
Y-105152D01*
X-264449Y-55118D02*
X-188976D01*
X-280889Y-38679D02*
X-264449Y-55118D01*
X-280889Y-38679D02*
Y-32103D01*
X-285433Y-27559D02*
X-280889Y-32103D01*
X-188976Y-55118D02*
X-169291Y-74803D01*
Y-91344D02*
Y-74803D01*
Y-91344D02*
X-155483Y-105152D01*
X-142153Y-126541D02*
X-138274Y-130420D01*
X-134540D01*
X-133375Y-131584D01*
X-149659Y-120384D02*
X-148727Y-119452D01*
Y-77861D01*
X-147795Y-76929D01*
X-138792Y-120384D02*
X-108425Y-90017D01*
Y-76929D01*
X-127925Y-120384D02*
Y-120051D01*
X-112205Y-104331D01*
X-84646D01*
X-69055Y-88740D01*
Y-76929D01*
X-117058Y-120384D02*
X-116447D01*
X-104331Y-108268D01*
X-49213D01*
X-35035Y-94090D01*
Y-82279D01*
X-29685Y-76929D01*
X-428134Y-119538D02*
Y-113540D01*
X-424135Y-119538D01*
Y-113540D01*
X-422136D02*
X-420136D01*
X-421136D01*
Y-119538D01*
X-422136D01*
X-420136D01*
X-411139Y-118538D02*
X-410140Y-119538D01*
X-408140D01*
X-407141Y-118538D01*
Y-114539D01*
X-408140Y-113540D01*
X-410140D01*
X-411139Y-114539D01*
Y-115539D01*
X-410140Y-116539D01*
X-407141D01*
X-402142Y-119538D02*
Y-113540D01*
X-405141Y-116539D01*
X-401143D01*
X-399143Y-114539D02*
X-398144Y-113540D01*
X-396144D01*
X-395145Y-114539D01*
Y-118538D01*
X-396144Y-119538D01*
X-398144D01*
X-399143Y-118538D01*
Y-114539D01*
X-393145D02*
X-392145Y-113540D01*
X-390146D01*
X-389146Y-114539D01*
Y-115539D01*
X-390146Y-116539D01*
X-391146D01*
X-390146D01*
X-389146Y-117538D01*
Y-118538D01*
X-390146Y-119538D01*
X-392145D01*
X-393145Y-118538D01*
X-428134Y-129135D02*
Y-125136D01*
X-426134Y-123137D01*
X-424135Y-125136D01*
Y-129135D01*
Y-126136D01*
X-428134D01*
X-422136Y-129135D02*
X-420136D01*
X-421136D01*
Y-123137D01*
X-422136D01*
X-417137Y-129135D02*
X-415138D01*
X-416138D01*
Y-125136D01*
X-417137D01*
X-408140Y-123137D02*
X-412139D01*
Y-126136D01*
X-410140D01*
X-412139D01*
Y-129135D01*
X-403142D02*
X-405141D01*
X-406141Y-128136D01*
Y-126136D01*
X-405141Y-125136D01*
X-403142D01*
X-402142Y-126136D01*
Y-127136D01*
X-406141D01*
X-400143Y-129135D02*
X-398144D01*
X-399143D01*
Y-123137D01*
X-400143D01*
X-392145Y-129135D02*
X-394145D01*
X-395145Y-128136D01*
Y-126136D01*
X-394145Y-125136D01*
X-392145D01*
X-391146Y-126136D01*
Y-127136D01*
X-395145D01*
X-389146Y-129135D02*
Y-123137D01*
X-386147D01*
X-385148Y-124137D01*
Y-126136D01*
X-386147Y-127136D01*
X-389146D01*
X-382149Y-125136D02*
X-380149D01*
X-379150Y-126136D01*
Y-129135D01*
X-382149D01*
X-383148Y-128136D01*
X-382149Y-127136D01*
X-379150D01*
X-377150Y-125136D02*
Y-129135D01*
Y-127136D01*
X-376151Y-126136D01*
X-375151Y-125136D01*
X-374151D01*
X-370153D02*
X-368153D01*
X-367154Y-126136D01*
Y-129135D01*
X-370153D01*
X-371152Y-128136D01*
X-370153Y-127136D01*
X-367154D01*
X-365154Y-129135D02*
Y-125136D01*
X-362155D01*
X-361156Y-126136D01*
Y-129135D01*
X-359156Y-131135D02*
X-358156D01*
X-357157Y-130135D01*
Y-125136D01*
X-428134Y-140732D02*
X-426134D01*
X-427134D01*
Y-134734D01*
X-428134Y-135734D01*
X-423136Y-140732D02*
X-421136D01*
X-422136D01*
Y-134734D01*
X-423136Y-135734D01*
X-418137D02*
X-417137Y-134734D01*
X-415138D01*
X-414138Y-135734D01*
Y-139733D01*
X-415138Y-140732D01*
X-417137D01*
X-418137Y-139733D01*
Y-135734D01*
X-412139D02*
X-411139Y-134734D01*
X-409140D01*
X-408140Y-135734D01*
Y-136733D01*
X-409140Y-137733D01*
X-408140Y-138733D01*
Y-139733D01*
X-409140Y-140732D01*
X-411139D01*
X-412139Y-139733D01*
Y-138733D01*
X-411139Y-137733D01*
X-412139Y-136733D01*
Y-135734D01*
X-411139Y-137733D02*
X-409140D01*
X-402142Y-140732D02*
X-406141D01*
X-402142Y-136733D01*
Y-135734D01*
X-403142Y-134734D01*
X-405141D01*
X-406141Y-135734D01*
X-400143D02*
X-399143Y-134734D01*
X-397144D01*
X-396144Y-135734D01*
Y-139733D01*
X-397144Y-140732D01*
X-399143D01*
X-400143Y-139733D01*
Y-135734D01*
X-394145Y-140732D02*
X-392145D01*
X-393145D01*
Y-134734D01*
X-394145Y-135734D01*
X-389146Y-139733D02*
X-388147Y-140732D01*
X-386147D01*
X-385148Y-139733D01*
Y-135734D01*
X-386147Y-134734D01*
X-388147D01*
X-389146Y-135734D01*
Y-136733D01*
X-388147Y-137733D01*
X-385148D01*
D16*
X-413386Y-27559D02*
D03*
Y-212598D02*
D03*
X-19685Y-27559D02*
D03*
Y-212598D02*
D03*
D17*
X-236063Y-204567D02*
D03*
Y-224567D02*
D03*
X-256063D02*
D03*
Y-204567D02*
D03*
X-246063Y-214567D02*
D03*
X-108425Y-175354D02*
D03*
X-118425Y-165354D02*
D03*
Y-185354D02*
D03*
X-98425D02*
D03*
Y-165354D02*
D03*
X-68425Y-27716D02*
D03*
X-78425Y-17716D02*
D03*
Y-37716D02*
D03*
X-58425D02*
D03*
Y-17716D02*
D03*
X-68898Y-214567D02*
D03*
X-78898Y-204567D02*
D03*
Y-224567D02*
D03*
X-58898D02*
D03*
Y-204567D02*
D03*
X-108268Y-214567D02*
D03*
X-118268Y-204567D02*
D03*
Y-224567D02*
D03*
X-98268D02*
D03*
Y-204567D02*
D03*
X-147638Y-214567D02*
D03*
X-157638Y-204567D02*
D03*
Y-224567D02*
D03*
X-137638D02*
D03*
Y-204567D02*
D03*
X-187008Y-214567D02*
D03*
X-197008Y-204567D02*
D03*
Y-224567D02*
D03*
X-177008D02*
D03*
Y-204567D02*
D03*
X-285433Y-214567D02*
D03*
X-295433Y-204567D02*
D03*
Y-224567D02*
D03*
X-275433D02*
D03*
Y-204567D02*
D03*
X-324803Y-214567D02*
D03*
X-334803Y-204567D02*
D03*
Y-224567D02*
D03*
X-314803D02*
D03*
Y-204567D02*
D03*
X-364173Y-214567D02*
D03*
X-374173Y-204567D02*
D03*
Y-224567D02*
D03*
X-354173D02*
D03*
Y-204567D02*
D03*
X-246063Y-27559D02*
D03*
X-256063Y-17559D02*
D03*
Y-37559D02*
D03*
X-236063D02*
D03*
Y-17559D02*
D03*
X-285433Y-27559D02*
D03*
X-295433Y-17559D02*
D03*
Y-37559D02*
D03*
X-275433D02*
D03*
Y-17559D02*
D03*
X-275276Y-165354D02*
D03*
Y-185354D02*
D03*
X-295276D02*
D03*
Y-165354D02*
D03*
X-285276Y-175354D02*
D03*
X-314646Y-165354D02*
D03*
Y-185354D02*
D03*
X-334646D02*
D03*
Y-165354D02*
D03*
X-324646Y-175354D02*
D03*
X-354016Y-165354D02*
D03*
Y-185354D02*
D03*
X-374016D02*
D03*
Y-165354D02*
D03*
X-364016Y-175354D02*
D03*
X-393386Y-165354D02*
D03*
Y-185354D02*
D03*
X-413386D02*
D03*
Y-165354D02*
D03*
X-403386Y-175354D02*
D03*
X-271811Y-66772D02*
D03*
Y-86772D02*
D03*
X-291811D02*
D03*
Y-66772D02*
D03*
X-281811Y-76772D02*
D03*
X-311181Y-66772D02*
D03*
Y-86772D02*
D03*
X-331181D02*
D03*
Y-66772D02*
D03*
X-321181Y-76772D02*
D03*
X-350551Y-66772D02*
D03*
Y-86772D02*
D03*
X-370551D02*
D03*
Y-66772D02*
D03*
X-360551Y-76772D02*
D03*
X-389606Y-66772D02*
D03*
Y-86772D02*
D03*
X-409606D02*
D03*
Y-66772D02*
D03*
X-399606Y-76772D02*
D03*
X-314803Y-17559D02*
D03*
Y-37559D02*
D03*
X-334803D02*
D03*
Y-17559D02*
D03*
X-324803Y-27559D02*
D03*
X-354173Y-17559D02*
D03*
Y-37559D02*
D03*
X-374173D02*
D03*
Y-17559D02*
D03*
X-364173Y-27559D02*
D03*
X-19685Y-165354D02*
D03*
Y-185354D02*
D03*
X-39685D02*
D03*
Y-165354D02*
D03*
X-29685Y-175354D02*
D03*
X-59055Y-165354D02*
D03*
Y-185354D02*
D03*
X-79055D02*
D03*
Y-165354D02*
D03*
X-69055Y-175354D02*
D03*
X-137795Y-165354D02*
D03*
Y-185354D02*
D03*
X-157796D02*
D03*
Y-165354D02*
D03*
X-147795Y-175354D02*
D03*
X-97795Y-18031D02*
D03*
Y-38031D02*
D03*
X-117795D02*
D03*
Y-18031D02*
D03*
X-107795Y-28031D02*
D03*
X-137480Y-18031D02*
D03*
Y-38031D02*
D03*
X-157480D02*
D03*
Y-18031D02*
D03*
X-147480Y-28031D02*
D03*
X-176850Y-17716D02*
D03*
Y-37716D02*
D03*
X-196850D02*
D03*
Y-17716D02*
D03*
X-186850Y-27716D02*
D03*
X-19685Y-66929D02*
D03*
Y-86929D02*
D03*
X-39685D02*
D03*
Y-66929D02*
D03*
X-29685Y-76929D02*
D03*
X-59055Y-66929D02*
D03*
Y-86929D02*
D03*
X-79055D02*
D03*
Y-66929D02*
D03*
X-69055Y-76929D02*
D03*
X-98425Y-66929D02*
D03*
Y-86929D02*
D03*
X-118425D02*
D03*
Y-66929D02*
D03*
X-108425Y-76929D02*
D03*
X-137795Y-66929D02*
D03*
Y-86929D02*
D03*
X-157796D02*
D03*
Y-66929D02*
D03*
X-147795Y-76929D02*
D03*
X-226220Y-66772D02*
D03*
Y-86772D02*
D03*
X-246220D02*
D03*
Y-66772D02*
D03*
X-236221Y-76772D02*
D03*
X-186850Y-66772D02*
D03*
Y-86772D02*
D03*
X-206850D02*
D03*
Y-66772D02*
D03*
X-196850Y-76772D02*
D03*
D18*
X-149659Y-120384D02*
D03*
X-160526D02*
D03*
X-171393D02*
D03*
X-182260D02*
D03*
X-193127D02*
D03*
X-203994D02*
D03*
X-214861D02*
D03*
X-225728D02*
D03*
X-236595D02*
D03*
X-247462D02*
D03*
X-258329D02*
D03*
X-269196D02*
D03*
X-144242Y-131584D02*
D03*
X-155109D02*
D03*
X-165976D02*
D03*
X-176843D02*
D03*
X-187710D02*
D03*
X-198577D02*
D03*
X-209444D02*
D03*
X-220311D02*
D03*
X-231178D02*
D03*
X-242045D02*
D03*
X-252912D02*
D03*
X-263779D02*
D03*
X-274646D02*
D03*
X-133375D02*
D03*
X-122508D02*
D03*
X-111641D02*
D03*
X-138792Y-120384D02*
D03*
X-127925D02*
D03*
X-117058D02*
D03*
X-307247Y-131584D02*
D03*
X-296380D02*
D03*
X-285513D02*
D03*
X-301797Y-120384D02*
D03*
X-290930D02*
D03*
X-280063D02*
D03*
D19*
X-334646Y-125984D02*
D03*
X-84247D02*
D03*
M02*
