G04*
G04 #@! TF.GenerationSoftware,Altium Limited,Altium Designer,19.1.5 (86)*
G04*
G04 Layer_Color=128*
%FSLAX25Y25*%
%MOIN*%
G70*
G01*
G75*
%ADD20C,0.00200*%
D20*
X13780Y-208661D02*
X25591D01*
X19685Y-214567D02*
Y-202756D01*
X13780Y-27559D02*
X25591D01*
X19685Y-33465D02*
Y-21654D01*
X407480Y-212598D02*
X419291D01*
X413386Y-218504D02*
Y-206693D01*
X407480Y-27559D02*
X419291D01*
X413386Y-33465D02*
Y-21654D01*
X279984Y-120384D02*
X284314D01*
X282149Y-122550D02*
Y-118219D01*
X269117Y-120384D02*
X273447D01*
X271282Y-122550D02*
Y-118219D01*
X258250Y-120384D02*
X262580D01*
X260415Y-122550D02*
Y-118219D01*
X247383Y-120384D02*
X251713D01*
X249548Y-122550D02*
Y-118219D01*
X236516Y-120384D02*
X240846D01*
X238681Y-122550D02*
Y-118219D01*
X225649Y-120384D02*
X229979D01*
X227814Y-122550D02*
Y-118219D01*
X214782Y-120384D02*
X219112D01*
X216947Y-122550D02*
Y-118219D01*
X203915Y-120384D02*
X208245D01*
X206080Y-122550D02*
Y-118219D01*
X193048Y-120384D02*
X197379D01*
X195213Y-122550D02*
Y-118219D01*
X182181Y-120384D02*
X186512D01*
X184346Y-122550D02*
Y-118219D01*
X171314Y-120384D02*
X175645D01*
X173479Y-122550D02*
Y-118219D01*
X160447Y-120384D02*
X164778D01*
X162612Y-122550D02*
Y-118219D01*
X285401Y-131584D02*
X289732D01*
X287566Y-133750D02*
Y-129419D01*
X274534Y-131584D02*
X278865D01*
X276699Y-133750D02*
Y-129419D01*
X263667Y-131584D02*
X267998D01*
X265832Y-133750D02*
Y-129419D01*
X252800Y-131584D02*
X257131D01*
X254965Y-133750D02*
Y-129419D01*
X241933Y-131584D02*
X246264D01*
X244098Y-133750D02*
Y-129419D01*
X231066Y-131584D02*
X235397D01*
X233231Y-133750D02*
Y-129419D01*
X220199Y-131584D02*
X224530D01*
X222364Y-133750D02*
Y-129419D01*
X209332Y-131584D02*
X213663D01*
X211497Y-133750D02*
Y-129419D01*
X198465Y-131584D02*
X202796D01*
X200630Y-133750D02*
Y-129419D01*
X187598Y-131584D02*
X191929D01*
X189763Y-133750D02*
Y-129419D01*
X176731Y-131584D02*
X181061D01*
X178896Y-133750D02*
Y-129419D01*
X165864Y-131584D02*
X170194D01*
X168029Y-133750D02*
Y-129419D01*
X154997Y-131584D02*
X159327D01*
X157162Y-133750D02*
Y-129419D01*
X123465Y-125984D02*
X136063D01*
X129764Y-132283D02*
Y-119685D01*
X308661Y-125984D02*
X321260D01*
X314961Y-132283D02*
Y-119685D01*
X185236Y-214567D02*
X188780D01*
X187008Y-216338D02*
Y-212795D01*
X175236Y-204567D02*
X178780D01*
X177008Y-206339D02*
Y-202795D01*
X175236Y-224567D02*
X178780D01*
X177008Y-226339D02*
Y-222795D01*
X195236Y-224567D02*
X198780D01*
X197008Y-226339D02*
Y-222795D01*
X195236Y-204567D02*
X198780D01*
X197008Y-206339D02*
Y-202795D01*
X145866Y-214567D02*
X149410D01*
X147638Y-216338D02*
Y-212795D01*
X135866Y-204567D02*
X139410D01*
X137638Y-206339D02*
Y-202795D01*
X135866Y-224567D02*
X139410D01*
X137638Y-226339D02*
Y-222795D01*
X155866Y-224567D02*
X159410D01*
X157638Y-226339D02*
Y-222795D01*
X155866Y-204567D02*
X159410D01*
X157638Y-206339D02*
Y-202795D01*
X106496Y-214567D02*
X110039D01*
X108268Y-216338D02*
Y-212795D01*
X96496Y-204567D02*
X100039D01*
X98268Y-206339D02*
Y-202795D01*
X96496Y-224567D02*
X100039D01*
X98268Y-226339D02*
Y-222795D01*
X116496Y-224567D02*
X120039D01*
X118268Y-226339D02*
Y-222795D01*
X116496Y-204567D02*
X120039D01*
X118268Y-206339D02*
Y-202795D01*
X67126Y-214567D02*
X70669D01*
X68898Y-216338D02*
Y-212795D01*
X57126Y-204567D02*
X60669D01*
X58898Y-206339D02*
Y-202795D01*
X57126Y-224567D02*
X60669D01*
X58898Y-226339D02*
Y-222795D01*
X77126Y-224567D02*
X80669D01*
X78898Y-226339D02*
Y-222795D01*
X77126Y-204567D02*
X80669D01*
X78898Y-206339D02*
Y-202795D01*
X156024Y-165354D02*
X159567D01*
X157795Y-167126D02*
Y-163583D01*
X156024Y-185354D02*
X159567D01*
X157795Y-187126D02*
Y-183583D01*
X136023Y-185354D02*
X139567D01*
X137795Y-187126D02*
Y-183583D01*
X136023Y-165354D02*
X139567D01*
X137795Y-167126D02*
Y-163583D01*
X146023Y-175354D02*
X149567D01*
X147795Y-177126D02*
Y-173583D01*
X116654Y-165354D02*
X120197D01*
X118425Y-167126D02*
Y-163583D01*
X116654Y-185354D02*
X120197D01*
X118425Y-187126D02*
Y-183583D01*
X96653Y-185354D02*
X100197D01*
X98425Y-187126D02*
Y-183583D01*
X96653Y-165354D02*
X100197D01*
X98425Y-167126D02*
Y-163583D01*
X106653Y-175354D02*
X110197D01*
X108425Y-177126D02*
Y-173583D01*
X77284Y-165354D02*
X80827D01*
X79055Y-167126D02*
Y-163583D01*
X77284Y-185354D02*
X80827D01*
X79055Y-187126D02*
Y-183583D01*
X57284Y-185354D02*
X60827D01*
X59055Y-187126D02*
Y-183583D01*
X57284Y-165354D02*
X60827D01*
X59055Y-167126D02*
Y-163583D01*
X67283Y-175354D02*
X70827D01*
X69055Y-177126D02*
Y-173583D01*
X37913Y-165354D02*
X41457D01*
X39685Y-167126D02*
Y-163583D01*
X37913Y-185354D02*
X41457D01*
X39685Y-187126D02*
Y-183583D01*
X17913Y-185354D02*
X21457D01*
X19685Y-187126D02*
Y-183583D01*
X17913Y-165354D02*
X21457D01*
X19685Y-167126D02*
Y-163583D01*
X27913Y-175354D02*
X31457D01*
X29685Y-177126D02*
Y-173583D01*
X205079Y-66772D02*
X208622D01*
X206850Y-68543D02*
Y-65000D01*
X205079Y-86772D02*
X208622D01*
X206850Y-88543D02*
Y-85000D01*
X185079Y-86772D02*
X188622D01*
X186850Y-88543D02*
Y-85000D01*
X185079Y-66772D02*
X188622D01*
X186850Y-68543D02*
Y-65000D01*
X195079Y-76772D02*
X198622D01*
X196850Y-78543D02*
Y-75000D01*
X244449Y-66772D02*
X247992D01*
X246221Y-68543D02*
Y-65000D01*
X244449Y-86772D02*
X247992D01*
X246221Y-88543D02*
Y-85000D01*
X224449Y-86772D02*
X227992D01*
X226221Y-88543D02*
Y-85000D01*
X224449Y-66772D02*
X227992D01*
X226221Y-68543D02*
Y-65000D01*
X234449Y-76772D02*
X237992D01*
X236221Y-78543D02*
Y-75000D01*
M02*
