G04*
G04 #@! TF.GenerationSoftware,Altium Limited,Altium Designer,19.1.5 (86)*
G04*
G04 Layer_Color=2752767*
%FSLAX25Y25*%
%MOIN*%
G70*
G01*
G75*
%ADD20C,0.00200*%
%ADD21C,0.00267*%
D20*
X18885Y-209461D02*
Y-207861D01*
X20485D01*
Y-209461D01*
X18885D01*
Y-28359D02*
Y-26759D01*
X20485D01*
Y-28359D01*
X18885D01*
X412586Y-213398D02*
Y-211798D01*
X414186D01*
Y-213398D01*
X412586D01*
Y-28359D02*
Y-26759D01*
X414186D01*
Y-28359D01*
X412586D01*
X129764Y-126784D02*
X128964Y-125184D01*
X130564D01*
X129764Y-126784D01*
X314961D02*
X314161Y-125184D01*
X315761D01*
X314961Y-126784D01*
X187008Y-215367D02*
X187408Y-214967D01*
X187808D01*
X187408Y-214567D01*
X187808Y-214167D01*
X187408D01*
X187008Y-213767D01*
X186608Y-214167D01*
X186208D01*
X186608Y-214567D01*
X186208Y-214967D01*
X186608D01*
X187008Y-215367D01*
X177008Y-205367D02*
X177408Y-204967D01*
X177808D01*
X177408Y-204567D01*
X177808Y-204167D01*
X177408D01*
X177008Y-203767D01*
X176608Y-204167D01*
X176208D01*
X176608Y-204567D01*
X176208Y-204967D01*
X176608D01*
X177008Y-205367D01*
Y-225367D02*
X177408Y-224967D01*
X177808D01*
X177408Y-224567D01*
X177808Y-224167D01*
X177408D01*
X177008Y-223767D01*
X176608Y-224167D01*
X176208D01*
X176608Y-224567D01*
X176208Y-224967D01*
X176608D01*
X177008Y-225367D01*
X197008D02*
X197408Y-224967D01*
X197808D01*
X197408Y-224567D01*
X197808Y-224167D01*
X197408D01*
X197008Y-223767D01*
X196608Y-224167D01*
X196208D01*
X196608Y-224567D01*
X196208Y-224967D01*
X196608D01*
X197008Y-225367D01*
Y-205367D02*
X197408Y-204967D01*
X197808D01*
X197408Y-204567D01*
X197808Y-204167D01*
X197408D01*
X197008Y-203767D01*
X196608Y-204167D01*
X196208D01*
X196608Y-204567D01*
X196208Y-204967D01*
X196608D01*
X197008Y-205367D01*
X147638Y-215367D02*
X148038Y-214967D01*
X148438D01*
X148038Y-214567D01*
X148438Y-214167D01*
X148038D01*
X147638Y-213767D01*
X147238Y-214167D01*
X146838D01*
X147238Y-214567D01*
X146838Y-214967D01*
X147238D01*
X147638Y-215367D01*
X137638Y-205367D02*
X138038Y-204967D01*
X138438D01*
X138038Y-204567D01*
X138438Y-204167D01*
X138038D01*
X137638Y-203767D01*
X137238Y-204167D01*
X136838D01*
X137238Y-204567D01*
X136838Y-204967D01*
X137238D01*
X137638Y-205367D01*
Y-225367D02*
X138038Y-224967D01*
X138438D01*
X138038Y-224567D01*
X138438Y-224167D01*
X138038D01*
X137638Y-223767D01*
X137238Y-224167D01*
X136838D01*
X137238Y-224567D01*
X136838Y-224967D01*
X137238D01*
X137638Y-225367D01*
X157638D02*
X158038Y-224967D01*
X158438D01*
X158038Y-224567D01*
X158438Y-224167D01*
X158038D01*
X157638Y-223767D01*
X157238Y-224167D01*
X156838D01*
X157238Y-224567D01*
X156838Y-224967D01*
X157238D01*
X157638Y-225367D01*
Y-205367D02*
X158038Y-204967D01*
X158438D01*
X158038Y-204567D01*
X158438Y-204167D01*
X158038D01*
X157638Y-203767D01*
X157238Y-204167D01*
X156838D01*
X157238Y-204567D01*
X156838Y-204967D01*
X157238D01*
X157638Y-205367D01*
X108268Y-215367D02*
X108668Y-214967D01*
X109068D01*
X108668Y-214567D01*
X109068Y-214167D01*
X108668D01*
X108268Y-213767D01*
X107868Y-214167D01*
X107468D01*
X107868Y-214567D01*
X107468Y-214967D01*
X107868D01*
X108268Y-215367D01*
X98268Y-205367D02*
X98668Y-204967D01*
X99068D01*
X98668Y-204567D01*
X99068Y-204167D01*
X98668D01*
X98268Y-203767D01*
X97868Y-204167D01*
X97468D01*
X97868Y-204567D01*
X97468Y-204967D01*
X97868D01*
X98268Y-205367D01*
Y-225367D02*
X98668Y-224967D01*
X99068D01*
X98668Y-224567D01*
X99068Y-224167D01*
X98668D01*
X98268Y-223767D01*
X97868Y-224167D01*
X97468D01*
X97868Y-224567D01*
X97468Y-224967D01*
X97868D01*
X98268Y-225367D01*
X118268D02*
X118668Y-224967D01*
X119068D01*
X118668Y-224567D01*
X119068Y-224167D01*
X118668D01*
X118268Y-223767D01*
X117868Y-224167D01*
X117468D01*
X117868Y-224567D01*
X117468Y-224967D01*
X117868D01*
X118268Y-225367D01*
Y-205367D02*
X118668Y-204967D01*
X119068D01*
X118668Y-204567D01*
X119068Y-204167D01*
X118668D01*
X118268Y-203767D01*
X117868Y-204167D01*
X117468D01*
X117868Y-204567D01*
X117468Y-204967D01*
X117868D01*
X118268Y-205367D01*
X68898Y-215367D02*
X69298Y-214967D01*
X69698D01*
X69298Y-214567D01*
X69698Y-214167D01*
X69298D01*
X68898Y-213767D01*
X68498Y-214167D01*
X68098D01*
X68498Y-214567D01*
X68098Y-214967D01*
X68498D01*
X68898Y-215367D01*
X58898Y-205367D02*
X59298Y-204967D01*
X59698D01*
X59298Y-204567D01*
X59698Y-204167D01*
X59298D01*
X58898Y-203767D01*
X58498Y-204167D01*
X58098D01*
X58498Y-204567D01*
X58098Y-204967D01*
X58498D01*
X58898Y-205367D01*
Y-225367D02*
X59298Y-224967D01*
X59698D01*
X59298Y-224567D01*
X59698Y-224167D01*
X59298D01*
X58898Y-223767D01*
X58498Y-224167D01*
X58098D01*
X58498Y-224567D01*
X58098Y-224967D01*
X58498D01*
X58898Y-225367D01*
X78898D02*
X79298Y-224967D01*
X79698D01*
X79298Y-224567D01*
X79698Y-224167D01*
X79298D01*
X78898Y-223767D01*
X78498Y-224167D01*
X78098D01*
X78498Y-224567D01*
X78098Y-224967D01*
X78498D01*
X78898Y-225367D01*
Y-205367D02*
X79298Y-204967D01*
X79698D01*
X79298Y-204567D01*
X79698Y-204167D01*
X79298D01*
X78898Y-203767D01*
X78498Y-204167D01*
X78098D01*
X78498Y-204567D01*
X78098Y-204967D01*
X78498D01*
X78898Y-205367D01*
X157795Y-166154D02*
X158195Y-165754D01*
X158595D01*
X158195Y-165354D01*
X158595Y-164954D01*
X158195D01*
X157795Y-164554D01*
X157395Y-164954D01*
X156995D01*
X157395Y-165354D01*
X156995Y-165754D01*
X157395D01*
X157795Y-166154D01*
Y-186154D02*
X158195Y-185754D01*
X158595D01*
X158195Y-185354D01*
X158595Y-184954D01*
X158195D01*
X157795Y-184554D01*
X157395Y-184954D01*
X156995D01*
X157395Y-185354D01*
X156995Y-185754D01*
X157395D01*
X157795Y-186154D01*
X137795D02*
X138195Y-185754D01*
X138595D01*
X138195Y-185354D01*
X138595Y-184954D01*
X138195D01*
X137795Y-184554D01*
X137395Y-184954D01*
X136995D01*
X137395Y-185354D01*
X136995Y-185754D01*
X137395D01*
X137795Y-186154D01*
Y-166154D02*
X138195Y-165754D01*
X138595D01*
X138195Y-165354D01*
X138595Y-164954D01*
X138195D01*
X137795Y-164554D01*
X137395Y-164954D01*
X136995D01*
X137395Y-165354D01*
X136995Y-165754D01*
X137395D01*
X137795Y-166154D01*
X147795Y-176154D02*
X148195Y-175754D01*
X148595D01*
X148195Y-175354D01*
X148595Y-174954D01*
X148195D01*
X147795Y-174554D01*
X147395Y-174954D01*
X146995D01*
X147395Y-175354D01*
X146995Y-175754D01*
X147395D01*
X147795Y-176154D01*
X118425Y-166154D02*
X118825Y-165754D01*
X119225D01*
X118825Y-165354D01*
X119225Y-164954D01*
X118825D01*
X118425Y-164554D01*
X118025Y-164954D01*
X117625D01*
X118025Y-165354D01*
X117625Y-165754D01*
X118025D01*
X118425Y-166154D01*
Y-186154D02*
X118825Y-185754D01*
X119225D01*
X118825Y-185354D01*
X119225Y-184954D01*
X118825D01*
X118425Y-184554D01*
X118025Y-184954D01*
X117625D01*
X118025Y-185354D01*
X117625Y-185754D01*
X118025D01*
X118425Y-186154D01*
X98425D02*
X98825Y-185754D01*
X99225D01*
X98825Y-185354D01*
X99225Y-184954D01*
X98825D01*
X98425Y-184554D01*
X98025Y-184954D01*
X97625D01*
X98025Y-185354D01*
X97625Y-185754D01*
X98025D01*
X98425Y-186154D01*
Y-166154D02*
X98825Y-165754D01*
X99225D01*
X98825Y-165354D01*
X99225Y-164954D01*
X98825D01*
X98425Y-164554D01*
X98025Y-164954D01*
X97625D01*
X98025Y-165354D01*
X97625Y-165754D01*
X98025D01*
X98425Y-166154D01*
X108425Y-176154D02*
X108825Y-175754D01*
X109225D01*
X108825Y-175354D01*
X109225Y-174954D01*
X108825D01*
X108425Y-174554D01*
X108025Y-174954D01*
X107625D01*
X108025Y-175354D01*
X107625Y-175754D01*
X108025D01*
X108425Y-176154D01*
X79055Y-166154D02*
X79455Y-165754D01*
X79855D01*
X79455Y-165354D01*
X79855Y-164954D01*
X79455D01*
X79055Y-164554D01*
X78655Y-164954D01*
X78255D01*
X78655Y-165354D01*
X78255Y-165754D01*
X78655D01*
X79055Y-166154D01*
Y-186154D02*
X79455Y-185754D01*
X79855D01*
X79455Y-185354D01*
X79855Y-184954D01*
X79455D01*
X79055Y-184554D01*
X78655Y-184954D01*
X78255D01*
X78655Y-185354D01*
X78255Y-185754D01*
X78655D01*
X79055Y-186154D01*
X59055D02*
X59455Y-185754D01*
X59855D01*
X59455Y-185354D01*
X59855Y-184954D01*
X59455D01*
X59055Y-184554D01*
X58655Y-184954D01*
X58255D01*
X58655Y-185354D01*
X58255Y-185754D01*
X58655D01*
X59055Y-186154D01*
Y-166154D02*
X59455Y-165754D01*
X59855D01*
X59455Y-165354D01*
X59855Y-164954D01*
X59455D01*
X59055Y-164554D01*
X58655Y-164954D01*
X58255D01*
X58655Y-165354D01*
X58255Y-165754D01*
X58655D01*
X59055Y-166154D01*
X69055Y-176154D02*
X69455Y-175754D01*
X69855D01*
X69455Y-175354D01*
X69855Y-174954D01*
X69455D01*
X69055Y-174554D01*
X68655Y-174954D01*
X68255D01*
X68655Y-175354D01*
X68255Y-175754D01*
X68655D01*
X69055Y-176154D01*
X39685Y-166154D02*
X40085Y-165754D01*
X40485D01*
X40085Y-165354D01*
X40485Y-164954D01*
X40085D01*
X39685Y-164554D01*
X39285Y-164954D01*
X38885D01*
X39285Y-165354D01*
X38885Y-165754D01*
X39285D01*
X39685Y-166154D01*
Y-186154D02*
X40085Y-185754D01*
X40485D01*
X40085Y-185354D01*
X40485Y-184954D01*
X40085D01*
X39685Y-184554D01*
X39285Y-184954D01*
X38885D01*
X39285Y-185354D01*
X38885Y-185754D01*
X39285D01*
X39685Y-186154D01*
X19685D02*
X20085Y-185754D01*
X20485D01*
X20085Y-185354D01*
X20485Y-184954D01*
X20085D01*
X19685Y-184554D01*
X19285Y-184954D01*
X18885D01*
X19285Y-185354D01*
X18885Y-185754D01*
X19285D01*
X19685Y-186154D01*
Y-166154D02*
X20085Y-165754D01*
X20485D01*
X20085Y-165354D01*
X20485Y-164954D01*
X20085D01*
X19685Y-164554D01*
X19285Y-164954D01*
X18885D01*
X19285Y-165354D01*
X18885Y-165754D01*
X19285D01*
X19685Y-166154D01*
X29685Y-176154D02*
X30085Y-175754D01*
X30485D01*
X30085Y-175354D01*
X30485Y-174954D01*
X30085D01*
X29685Y-174554D01*
X29285Y-174954D01*
X28885D01*
X29285Y-175354D01*
X28885Y-175754D01*
X29285D01*
X29685Y-176154D01*
X206850Y-67572D02*
X207250Y-67172D01*
X207650D01*
X207250Y-66772D01*
X207650Y-66372D01*
X207250D01*
X206850Y-65972D01*
X206450Y-66372D01*
X206050D01*
X206450Y-66772D01*
X206050Y-67172D01*
X206450D01*
X206850Y-67572D01*
Y-87572D02*
X207250Y-87172D01*
X207650D01*
X207250Y-86772D01*
X207650Y-86372D01*
X207250D01*
X206850Y-85972D01*
X206450Y-86372D01*
X206050D01*
X206450Y-86772D01*
X206050Y-87172D01*
X206450D01*
X206850Y-87572D01*
X186850D02*
X187250Y-87172D01*
X187650D01*
X187250Y-86772D01*
X187650Y-86372D01*
X187250D01*
X186850Y-85972D01*
X186450Y-86372D01*
X186050D01*
X186450Y-86772D01*
X186050Y-87172D01*
X186450D01*
X186850Y-87572D01*
Y-67572D02*
X187250Y-67172D01*
X187650D01*
X187250Y-66772D01*
X187650Y-66372D01*
X187250D01*
X186850Y-65972D01*
X186450Y-66372D01*
X186050D01*
X186450Y-66772D01*
X186050Y-67172D01*
X186450D01*
X186850Y-67572D01*
X196850Y-77572D02*
X197250Y-77172D01*
X197650D01*
X197250Y-76772D01*
X197650Y-76372D01*
X197250D01*
X196850Y-75972D01*
X196450Y-76372D01*
X196050D01*
X196450Y-76772D01*
X196050Y-77172D01*
X196450D01*
X196850Y-77572D01*
X246221Y-67572D02*
X246621Y-67172D01*
X247021D01*
X246621Y-66772D01*
X247021Y-66372D01*
X246621D01*
X246221Y-65972D01*
X245821Y-66372D01*
X245421D01*
X245821Y-66772D01*
X245421Y-67172D01*
X245821D01*
X246221Y-67572D01*
Y-87572D02*
X246621Y-87172D01*
X247021D01*
X246621Y-86772D01*
X247021Y-86372D01*
X246621D01*
X246221Y-85972D01*
X245821Y-86372D01*
X245421D01*
X245821Y-86772D01*
X245421Y-87172D01*
X245821D01*
X246221Y-87572D01*
X226221D02*
X226621Y-87172D01*
X227021D01*
X226621Y-86772D01*
X227021Y-86372D01*
X226621D01*
X226221Y-85972D01*
X225821Y-86372D01*
X225421D01*
X225821Y-86772D01*
X225421Y-87172D01*
X225821D01*
X226221Y-87572D01*
Y-67572D02*
X226621Y-67172D01*
X227021D01*
X226621Y-66772D01*
X227021Y-66372D01*
X226621D01*
X226221Y-65972D01*
X225821Y-66372D01*
X225421D01*
X225821Y-66772D01*
X225421Y-67172D01*
X225821D01*
X226221Y-67572D01*
X236221Y-77572D02*
X236621Y-77172D01*
X237021D01*
X236621Y-76772D01*
X237021Y-76372D01*
X236621D01*
X236221Y-75972D01*
X235821Y-76372D01*
X235421D01*
X235821Y-76772D01*
X235421Y-77172D01*
X235821D01*
X236221Y-77572D01*
D21*
X282949Y-120384D02*
G03*
X282949Y-120384I-800J0D01*
G01*
X272082D02*
G03*
X272082Y-120384I-800J0D01*
G01*
X261215D02*
G03*
X261215Y-120384I-800J0D01*
G01*
X250348D02*
G03*
X250348Y-120384I-800J0D01*
G01*
X239481D02*
G03*
X239481Y-120384I-800J0D01*
G01*
X228614D02*
G03*
X228614Y-120384I-800J0D01*
G01*
X217747D02*
G03*
X217747Y-120384I-800J0D01*
G01*
X206880D02*
G03*
X206880Y-120384I-800J0D01*
G01*
X196013D02*
G03*
X196013Y-120384I-800J0D01*
G01*
X185146D02*
G03*
X185146Y-120384I-800J0D01*
G01*
X174279D02*
G03*
X174279Y-120384I-800J0D01*
G01*
X163412D02*
G03*
X163412Y-120384I-800J0D01*
G01*
X288366Y-131584D02*
G03*
X288366Y-131584I-800J0D01*
G01*
X277499D02*
G03*
X277499Y-131584I-800J0D01*
G01*
X266632D02*
G03*
X266632Y-131584I-800J0D01*
G01*
X255765D02*
G03*
X255765Y-131584I-800J0D01*
G01*
X244898D02*
G03*
X244898Y-131584I-800J0D01*
G01*
X234031D02*
G03*
X234031Y-131584I-800J0D01*
G01*
X223164D02*
G03*
X223164Y-131584I-800J0D01*
G01*
X212297D02*
G03*
X212297Y-131584I-800J0D01*
G01*
X201430D02*
G03*
X201430Y-131584I-800J0D01*
G01*
X190563D02*
G03*
X190563Y-131584I-800J0D01*
G01*
X179696D02*
G03*
X179696Y-131584I-800J0D01*
G01*
X168829D02*
G03*
X168829Y-131584I-800J0D01*
G01*
X157962D02*
G03*
X157962Y-131584I-800J0D01*
G01*
M02*
