G04*
G04 #@! TF.GenerationSoftware,Altium Limited,Altium Designer,19.1.5 (86)*
G04*
G04 Layer_Physical_Order=2*
G04 Layer_Color=16711680*
%FSLAX25Y25*%
%MOIN*%
G70*
G01*
G75*
%ADD11C,0.01000*%
%ADD16C,0.17717*%
%ADD17C,0.07087*%
%ADD18C,0.21654*%
%ADD19C,0.06299*%
G36*
X-57087Y-230807D02*
D01*
D02*
G37*
G36*
X433071Y-236220D02*
X433071Y-236220D01*
X-0D01*
X0Y0D01*
X433071D01*
Y-236220D01*
D02*
G37*
%LPC*%
G36*
X413886Y-17702D02*
Y-27059D01*
X423243D01*
X423101Y-25627D01*
X422538Y-23768D01*
X421622Y-22056D01*
X420390Y-20554D01*
X418889Y-19322D01*
X417177Y-18407D01*
X415318Y-17843D01*
X413886Y-17702D01*
D02*
G37*
G36*
X412886D02*
X411453Y-17843D01*
X409595Y-18407D01*
X407882Y-19322D01*
X406381Y-20554D01*
X405149Y-22056D01*
X404234Y-23768D01*
X403670Y-25627D01*
X403529Y-27059D01*
X412886D01*
Y-17702D01*
D02*
G37*
G36*
X20185D02*
Y-27059D01*
X29542D01*
X29401Y-25627D01*
X28837Y-23768D01*
X27922Y-22056D01*
X26690Y-20554D01*
X25188Y-19322D01*
X23476Y-18407D01*
X21618Y-17843D01*
X20185Y-17702D01*
D02*
G37*
G36*
X19185D02*
X17752Y-17843D01*
X15894Y-18407D01*
X14182Y-19322D01*
X12680Y-20554D01*
X11449Y-22056D01*
X10533Y-23768D01*
X9969Y-25627D01*
X9828Y-27059D01*
X19185D01*
Y-17702D01*
D02*
G37*
G36*
X423243Y-28059D02*
X413886D01*
Y-37416D01*
X415318Y-37275D01*
X417177Y-36711D01*
X418889Y-35796D01*
X420390Y-34564D01*
X421622Y-33062D01*
X422538Y-31350D01*
X423101Y-29492D01*
X423243Y-28059D01*
D02*
G37*
G36*
X412886D02*
X403529D01*
X403670Y-29492D01*
X404234Y-31350D01*
X405149Y-33062D01*
X406381Y-34564D01*
X407882Y-35796D01*
X409595Y-36711D01*
X411453Y-37275D01*
X412886Y-37416D01*
Y-28059D01*
D02*
G37*
G36*
X29542D02*
X20185D01*
Y-37416D01*
X21618Y-37275D01*
X23476Y-36711D01*
X25188Y-35796D01*
X26690Y-34564D01*
X27922Y-33062D01*
X28837Y-31350D01*
X29401Y-29492D01*
X29542Y-28059D01*
D02*
G37*
G36*
X19185D02*
X9828D01*
X9969Y-29492D01*
X10533Y-31350D01*
X11449Y-33062D01*
X12680Y-34564D01*
X14182Y-35796D01*
X15894Y-36711D01*
X17752Y-37275D01*
X19185Y-37416D01*
Y-28059D01*
D02*
G37*
G36*
X246721Y-62652D02*
Y-66272D01*
X250340D01*
X250263Y-65688D01*
X249845Y-64679D01*
X249180Y-63812D01*
X248313Y-63147D01*
X247304Y-62729D01*
X246721Y-62652D01*
D02*
G37*
G36*
X245721D02*
X245137Y-62729D01*
X244128Y-63147D01*
X243261Y-63812D01*
X242596Y-64679D01*
X242178Y-65688D01*
X242101Y-66272D01*
X245721D01*
Y-62652D01*
D02*
G37*
G36*
X226721D02*
Y-66272D01*
X230340D01*
X230263Y-65688D01*
X229845Y-64679D01*
X229180Y-63812D01*
X228313Y-63147D01*
X227304Y-62729D01*
X226721Y-62652D01*
D02*
G37*
G36*
X225721D02*
X225137Y-62729D01*
X224128Y-63147D01*
X223261Y-63812D01*
X222596Y-64679D01*
X222178Y-65688D01*
X222101Y-66272D01*
X225721D01*
Y-62652D01*
D02*
G37*
G36*
X207350D02*
Y-66272D01*
X210970D01*
X210893Y-65688D01*
X210475Y-64679D01*
X209810Y-63812D01*
X208943Y-63147D01*
X207934Y-62729D01*
X207350Y-62652D01*
D02*
G37*
G36*
X206350D02*
X205767Y-62729D01*
X204758Y-63147D01*
X203891Y-63812D01*
X203226Y-64679D01*
X202808Y-65688D01*
X202731Y-66272D01*
X206350D01*
Y-62652D01*
D02*
G37*
G36*
X187350D02*
Y-66272D01*
X190970D01*
X190893Y-65688D01*
X190475Y-64679D01*
X189810Y-63812D01*
X188943Y-63147D01*
X187934Y-62729D01*
X187350Y-62652D01*
D02*
G37*
G36*
X186350D02*
X185767Y-62729D01*
X184758Y-63147D01*
X183891Y-63812D01*
X183226Y-64679D01*
X182808Y-65688D01*
X182731Y-66272D01*
X186350D01*
Y-62652D01*
D02*
G37*
G36*
X250340Y-67272D02*
X246721D01*
Y-70891D01*
X247304Y-70814D01*
X248313Y-70396D01*
X249180Y-69731D01*
X249845Y-68864D01*
X250263Y-67855D01*
X250340Y-67272D01*
D02*
G37*
G36*
X245721D02*
X242101D01*
X242178Y-67855D01*
X242596Y-68864D01*
X243261Y-69731D01*
X244128Y-70396D01*
X245137Y-70814D01*
X245721Y-70891D01*
Y-67272D01*
D02*
G37*
G36*
X230340D02*
X226721D01*
Y-70891D01*
X227304Y-70814D01*
X228313Y-70396D01*
X229180Y-69731D01*
X229845Y-68864D01*
X230263Y-67855D01*
X230340Y-67272D01*
D02*
G37*
G36*
X225721D02*
X222101D01*
X222178Y-67855D01*
X222596Y-68864D01*
X223261Y-69731D01*
X224128Y-70396D01*
X225137Y-70814D01*
X225721Y-70891D01*
Y-67272D01*
D02*
G37*
G36*
X210970D02*
X207350D01*
Y-70891D01*
X207934Y-70814D01*
X208943Y-70396D01*
X209810Y-69731D01*
X210475Y-68864D01*
X210893Y-67855D01*
X210970Y-67272D01*
D02*
G37*
G36*
X206350D02*
X202731D01*
X202808Y-67855D01*
X203226Y-68864D01*
X203891Y-69731D01*
X204758Y-70396D01*
X205767Y-70814D01*
X206350Y-70891D01*
Y-67272D01*
D02*
G37*
G36*
X190970D02*
X187350D01*
Y-70891D01*
X187934Y-70814D01*
X188943Y-70396D01*
X189810Y-69731D01*
X190475Y-68864D01*
X190893Y-67855D01*
X190970Y-67272D01*
D02*
G37*
G36*
X186350D02*
X182731D01*
X182808Y-67855D01*
X183226Y-68864D01*
X183891Y-69731D01*
X184758Y-70396D01*
X185767Y-70814D01*
X186350Y-70891D01*
Y-67272D01*
D02*
G37*
G36*
X236721Y-72652D02*
Y-76272D01*
X240340D01*
X240263Y-75688D01*
X239845Y-74679D01*
X239180Y-73812D01*
X238313Y-73147D01*
X237304Y-72729D01*
X236721Y-72652D01*
D02*
G37*
G36*
X235721D02*
X235137Y-72729D01*
X234128Y-73147D01*
X233261Y-73812D01*
X232596Y-74679D01*
X232178Y-75688D01*
X232101Y-76272D01*
X235721D01*
Y-72652D01*
D02*
G37*
G36*
X240340Y-77272D02*
X236721D01*
Y-80891D01*
X237304Y-80814D01*
X238313Y-80396D01*
X239180Y-79731D01*
X239845Y-78864D01*
X240263Y-77855D01*
X240340Y-77272D01*
D02*
G37*
G36*
X235721D02*
X232101D01*
X232178Y-77855D01*
X232596Y-78864D01*
X233261Y-79731D01*
X234128Y-80396D01*
X235137Y-80814D01*
X235721Y-80891D01*
Y-77272D01*
D02*
G37*
G36*
X246721Y-82652D02*
Y-86272D01*
X250340D01*
X250263Y-85688D01*
X249845Y-84679D01*
X249180Y-83812D01*
X248313Y-83147D01*
X247304Y-82729D01*
X246721Y-82652D01*
D02*
G37*
G36*
X245721D02*
X245137Y-82729D01*
X244128Y-83147D01*
X243261Y-83812D01*
X242596Y-84679D01*
X242178Y-85688D01*
X242101Y-86272D01*
X245721D01*
Y-82652D01*
D02*
G37*
G36*
X226721D02*
Y-86272D01*
X230340D01*
X230263Y-85688D01*
X229845Y-84679D01*
X229180Y-83812D01*
X228313Y-83147D01*
X227304Y-82729D01*
X226721Y-82652D01*
D02*
G37*
G36*
X225721D02*
X225137Y-82729D01*
X224128Y-83147D01*
X223261Y-83812D01*
X222596Y-84679D01*
X222178Y-85688D01*
X222101Y-86272D01*
X225721D01*
Y-82652D01*
D02*
G37*
G36*
X207350D02*
Y-86272D01*
X210970D01*
X210893Y-85688D01*
X210475Y-84679D01*
X209810Y-83812D01*
X208943Y-83147D01*
X207934Y-82729D01*
X207350Y-82652D01*
D02*
G37*
G36*
X206350D02*
X205767Y-82729D01*
X204758Y-83147D01*
X203891Y-83812D01*
X203226Y-84679D01*
X202808Y-85688D01*
X202731Y-86272D01*
X206350D01*
Y-82652D01*
D02*
G37*
G36*
X187350D02*
Y-86272D01*
X190970D01*
X190893Y-85688D01*
X190475Y-84679D01*
X189810Y-83812D01*
X188943Y-83147D01*
X187934Y-82729D01*
X187350Y-82652D01*
D02*
G37*
G36*
X186350D02*
X185767Y-82729D01*
X184758Y-83147D01*
X183891Y-83812D01*
X183226Y-84679D01*
X182808Y-85688D01*
X182731Y-86272D01*
X186350D01*
Y-82652D01*
D02*
G37*
G36*
X250340Y-87272D02*
X246721D01*
Y-90891D01*
X247304Y-90814D01*
X248313Y-90396D01*
X249180Y-89731D01*
X249845Y-88864D01*
X250263Y-87855D01*
X250340Y-87272D01*
D02*
G37*
G36*
X245721D02*
X242101D01*
X242178Y-87855D01*
X242596Y-88864D01*
X243261Y-89731D01*
X244128Y-90396D01*
X245137Y-90814D01*
X245721Y-90891D01*
Y-87272D01*
D02*
G37*
G36*
X230340D02*
X226721D01*
Y-90891D01*
X227304Y-90814D01*
X228313Y-90396D01*
X229180Y-89731D01*
X229845Y-88864D01*
X230263Y-87855D01*
X230340Y-87272D01*
D02*
G37*
G36*
X225721D02*
X222101D01*
X222178Y-87855D01*
X222596Y-88864D01*
X223261Y-89731D01*
X224128Y-90396D01*
X225137Y-90814D01*
X225721Y-90891D01*
Y-87272D01*
D02*
G37*
G36*
X210970D02*
X207350D01*
Y-90891D01*
X207934Y-90814D01*
X208943Y-90396D01*
X209810Y-89731D01*
X210475Y-88864D01*
X210893Y-87855D01*
X210970Y-87272D01*
D02*
G37*
G36*
X206350D02*
X202731D01*
X202808Y-87855D01*
X203226Y-88864D01*
X203891Y-89731D01*
X204758Y-90396D01*
X205767Y-90814D01*
X206350Y-90891D01*
Y-87272D01*
D02*
G37*
G36*
X190970D02*
X187350D01*
Y-90891D01*
X187934Y-90814D01*
X188943Y-90396D01*
X189810Y-89731D01*
X190475Y-88864D01*
X190893Y-87855D01*
X190970Y-87272D01*
D02*
G37*
G36*
X186350D02*
X182731D01*
X182808Y-87855D01*
X183226Y-88864D01*
X183891Y-89731D01*
X184758Y-90396D01*
X185767Y-90814D01*
X186350Y-90891D01*
Y-87272D01*
D02*
G37*
G36*
X282149Y-115802D02*
X280963Y-115958D01*
X279858Y-116416D01*
X278909Y-117144D01*
X278181Y-118093D01*
X277723Y-119198D01*
X277567Y-120384D01*
X277723Y-121570D01*
X278181Y-122676D01*
X278909Y-123625D01*
X279858Y-124353D01*
X280963Y-124811D01*
X282149Y-124967D01*
X283335Y-124811D01*
X284440Y-124353D01*
X285389Y-123625D01*
X286118Y-122676D01*
X286576Y-121570D01*
X286732Y-120384D01*
X286576Y-119198D01*
X286118Y-118093D01*
X285389Y-117144D01*
X284440Y-116416D01*
X283335Y-115958D01*
X282149Y-115802D01*
D02*
G37*
G36*
X260415D02*
X259229Y-115958D01*
X258124Y-116416D01*
X257175Y-117144D01*
X256447Y-118093D01*
X255989Y-119198D01*
X255833Y-120384D01*
X255989Y-121570D01*
X256447Y-122676D01*
X257175Y-123625D01*
X258124Y-124353D01*
X259229Y-124811D01*
X260415Y-124967D01*
X261601Y-124811D01*
X262706Y-124353D01*
X263655Y-123625D01*
X264384Y-122676D01*
X264842Y-121570D01*
X264998Y-120384D01*
X264842Y-119198D01*
X264384Y-118093D01*
X263655Y-117144D01*
X262706Y-116416D01*
X261601Y-115958D01*
X260415Y-115802D01*
D02*
G37*
G36*
X249548D02*
X248362Y-115958D01*
X247257Y-116416D01*
X246308Y-117144D01*
X245580Y-118093D01*
X245122Y-119198D01*
X244966Y-120384D01*
X245122Y-121570D01*
X245580Y-122676D01*
X246308Y-123625D01*
X247257Y-124353D01*
X248362Y-124811D01*
X249548Y-124967D01*
X250734Y-124811D01*
X251839Y-124353D01*
X252788Y-123625D01*
X253517Y-122676D01*
X253975Y-121570D01*
X254131Y-120384D01*
X253975Y-119198D01*
X253517Y-118093D01*
X252788Y-117144D01*
X251839Y-116416D01*
X250734Y-115958D01*
X249548Y-115802D01*
D02*
G37*
G36*
X227814D02*
X226628Y-115958D01*
X225523Y-116416D01*
X224574Y-117144D01*
X223846Y-118093D01*
X223388Y-119198D01*
X223232Y-120384D01*
X223388Y-121570D01*
X223846Y-122676D01*
X224574Y-123625D01*
X225523Y-124353D01*
X226628Y-124811D01*
X227814Y-124967D01*
X229000Y-124811D01*
X230105Y-124353D01*
X231054Y-123625D01*
X231783Y-122676D01*
X232241Y-121570D01*
X232397Y-120384D01*
X232241Y-119198D01*
X231783Y-118093D01*
X231054Y-117144D01*
X230105Y-116416D01*
X229000Y-115958D01*
X227814Y-115802D01*
D02*
G37*
G36*
X216947D02*
X215761Y-115958D01*
X214656Y-116416D01*
X213707Y-117144D01*
X212979Y-118093D01*
X212521Y-119198D01*
X212365Y-120384D01*
X212521Y-121570D01*
X212979Y-122676D01*
X213707Y-123625D01*
X214656Y-124353D01*
X215761Y-124811D01*
X216947Y-124967D01*
X218133Y-124811D01*
X219238Y-124353D01*
X220187Y-123625D01*
X220916Y-122676D01*
X221374Y-121570D01*
X221530Y-120384D01*
X221374Y-119198D01*
X220916Y-118093D01*
X220187Y-117144D01*
X219238Y-116416D01*
X218133Y-115958D01*
X216947Y-115802D01*
D02*
G37*
G36*
X195213D02*
X194027Y-115958D01*
X192922Y-116416D01*
X191973Y-117144D01*
X191245Y-118093D01*
X190787Y-119198D01*
X190631Y-120384D01*
X190787Y-121570D01*
X191245Y-122676D01*
X191973Y-123625D01*
X192922Y-124353D01*
X194027Y-124811D01*
X195213Y-124967D01*
X196399Y-124811D01*
X197504Y-124353D01*
X198453Y-123625D01*
X199182Y-122676D01*
X199639Y-121570D01*
X199796Y-120384D01*
X199639Y-119198D01*
X199182Y-118093D01*
X198453Y-117144D01*
X197504Y-116416D01*
X196399Y-115958D01*
X195213Y-115802D01*
D02*
G37*
G36*
X184346D02*
X183160Y-115958D01*
X182055Y-116416D01*
X181106Y-117144D01*
X180378Y-118093D01*
X179920Y-119198D01*
X179764Y-120384D01*
X179920Y-121570D01*
X180378Y-122676D01*
X181106Y-123625D01*
X182055Y-124353D01*
X183160Y-124811D01*
X184346Y-124967D01*
X185532Y-124811D01*
X186637Y-124353D01*
X187586Y-123625D01*
X188315Y-122676D01*
X188772Y-121570D01*
X188929Y-120384D01*
X188772Y-119198D01*
X188315Y-118093D01*
X187586Y-117144D01*
X186637Y-116416D01*
X185532Y-115958D01*
X184346Y-115802D01*
D02*
G37*
G36*
X162612D02*
X161426Y-115958D01*
X160321Y-116416D01*
X159372Y-117144D01*
X158644Y-118093D01*
X158186Y-119198D01*
X158030Y-120384D01*
X158186Y-121570D01*
X158644Y-122676D01*
X159372Y-123625D01*
X160321Y-124353D01*
X161426Y-124811D01*
X162612Y-124967D01*
X163798Y-124811D01*
X164903Y-124353D01*
X165852Y-123625D01*
X166581Y-122676D01*
X167039Y-121570D01*
X167195Y-120384D01*
X167039Y-119198D01*
X166581Y-118093D01*
X165852Y-117144D01*
X164903Y-116416D01*
X163798Y-115958D01*
X162612Y-115802D01*
D02*
G37*
G36*
X315461Y-114160D02*
Y-125484D01*
X326785D01*
X326678Y-124128D01*
X326243Y-122318D01*
X325531Y-120598D01*
X324558Y-119011D01*
X323349Y-117596D01*
X321934Y-116387D01*
X320346Y-115414D01*
X318626Y-114701D01*
X316816Y-114267D01*
X315461Y-114160D01*
D02*
G37*
G36*
X130264D02*
Y-125484D01*
X141588D01*
X141481Y-124128D01*
X141047Y-122318D01*
X140334Y-120598D01*
X139361Y-119011D01*
X138152Y-117596D01*
X136737Y-116387D01*
X135150Y-115414D01*
X133430Y-114701D01*
X131620Y-114267D01*
X130264Y-114160D01*
D02*
G37*
G36*
X129264D02*
X127908Y-114267D01*
X126098Y-114701D01*
X124378Y-115414D01*
X122791Y-116387D01*
X121375Y-117596D01*
X120166Y-119011D01*
X119193Y-120598D01*
X118481Y-122318D01*
X118046Y-124128D01*
X117940Y-125484D01*
X129264D01*
Y-114160D01*
D02*
G37*
G36*
X314461D02*
X313105Y-114267D01*
X311295Y-114701D01*
X309575Y-115414D01*
X307987Y-116387D01*
X306572Y-117596D01*
X305363Y-119011D01*
X304390Y-120598D01*
X303678Y-122318D01*
X303243Y-124128D01*
X303137Y-125484D01*
X314461D01*
Y-114160D01*
D02*
G37*
G36*
X196850Y-72586D02*
X195767Y-72729D01*
X194758Y-73147D01*
X193891Y-73812D01*
X193226Y-74679D01*
X192808Y-75688D01*
X192665Y-76772D01*
X192808Y-77855D01*
X193226Y-78864D01*
X193891Y-79731D01*
X194758Y-80396D01*
X195321Y-80630D01*
Y-93857D01*
X195437Y-94442D01*
X195769Y-94938D01*
X204551Y-103720D01*
Y-116100D01*
X203789Y-116416D01*
X202840Y-117144D01*
X202112Y-118093D01*
X201654Y-119198D01*
X201498Y-120384D01*
X201654Y-121570D01*
X202112Y-122676D01*
X202840Y-123625D01*
X203789Y-124353D01*
X204551Y-124668D01*
Y-125501D01*
X202578Y-127473D01*
X201816Y-127158D01*
X200630Y-127002D01*
X199444Y-127158D01*
X198339Y-127616D01*
X197390Y-128344D01*
X196662Y-129293D01*
X196204Y-130398D01*
X196048Y-131584D01*
X196204Y-132770D01*
X196662Y-133876D01*
X197390Y-134825D01*
X198339Y-135553D01*
X199101Y-135868D01*
Y-144140D01*
X182748D01*
X172140Y-133532D01*
X172456Y-132770D01*
X172612Y-131584D01*
X172456Y-130398D01*
X172140Y-129636D01*
X174561Y-127216D01*
X174892Y-126719D01*
X175009Y-126134D01*
Y-124668D01*
X175770Y-124353D01*
X176719Y-123625D01*
X177448Y-122676D01*
X177905Y-121570D01*
X178062Y-120384D01*
X177905Y-119198D01*
X177448Y-118093D01*
X176719Y-117144D01*
X175770Y-116416D01*
X174665Y-115958D01*
X173479Y-115802D01*
X172293Y-115958D01*
X171188Y-116416D01*
X170239Y-117144D01*
X169511Y-118093D01*
X169053Y-119198D01*
X168897Y-120384D01*
X169053Y-121570D01*
X169511Y-122676D01*
X170239Y-123625D01*
X171188Y-124353D01*
X171950Y-124668D01*
Y-125501D01*
X169977Y-127473D01*
X169215Y-127158D01*
X168029Y-127002D01*
X166843Y-127158D01*
X165738Y-127616D01*
X164789Y-128344D01*
X164061Y-129293D01*
X163603Y-130398D01*
X163447Y-131584D01*
X163603Y-132770D01*
X164061Y-133876D01*
X164789Y-134825D01*
X165738Y-135553D01*
X166843Y-136011D01*
X168029Y-136167D01*
X169215Y-136011D01*
X169977Y-135695D01*
X181033Y-146751D01*
X181529Y-147082D01*
X182114Y-147199D01*
X200044D01*
X200630Y-147082D01*
X201126Y-146751D01*
X201712Y-146165D01*
X202043Y-145669D01*
X202160Y-145083D01*
Y-135892D01*
X202595Y-135712D01*
X213634Y-146751D01*
X214130Y-147082D01*
X214715Y-147199D01*
X220472D01*
X221058Y-147082D01*
X221554Y-146751D01*
X232265Y-136040D01*
X233231Y-136167D01*
X234417Y-136011D01*
X235179Y-135695D01*
X235747Y-136263D01*
Y-138851D01*
X235864Y-139437D01*
X236195Y-139933D01*
X239076Y-142814D01*
X239572Y-143145D01*
X240158Y-143262D01*
X255684D01*
X256269Y-143145D01*
X256766Y-142814D01*
X263884Y-135695D01*
X264646Y-136011D01*
X265832Y-136167D01*
X267018Y-136011D01*
X268123Y-135553D01*
X269073Y-134825D01*
X269801Y-133876D01*
X270258Y-132770D01*
X270415Y-131584D01*
X270258Y-130398D01*
X269943Y-129636D01*
X272364Y-127216D01*
X272695Y-126719D01*
X272812Y-126134D01*
Y-124668D01*
X273573Y-124353D01*
X274522Y-123625D01*
X275251Y-122676D01*
X275709Y-121570D01*
X275865Y-120384D01*
X275709Y-119198D01*
X275251Y-118093D01*
X274522Y-117144D01*
X273573Y-116416D01*
X272468Y-115958D01*
X271282Y-115802D01*
X270096Y-115958D01*
X268991Y-116416D01*
X268042Y-117144D01*
X267314Y-118093D01*
X266856Y-119198D01*
X266700Y-120384D01*
X266856Y-121570D01*
X267314Y-122676D01*
X268042Y-123625D01*
X268991Y-124353D01*
X269753Y-124668D01*
Y-125501D01*
X267780Y-127473D01*
X267018Y-127158D01*
X265832Y-127002D01*
X264646Y-127158D01*
X263541Y-127616D01*
X262592Y-128344D01*
X261864Y-129293D01*
X261406Y-130398D01*
X261250Y-131584D01*
X261406Y-132770D01*
X261721Y-133532D01*
X255051Y-140203D01*
X240791D01*
X238806Y-138218D01*
Y-135630D01*
X238690Y-135044D01*
X238358Y-134548D01*
X237342Y-133532D01*
X237657Y-132770D01*
X237814Y-131584D01*
X237657Y-130398D01*
X237200Y-129293D01*
X236472Y-128344D01*
X235522Y-127616D01*
X234761Y-127300D01*
Y-126468D01*
X236733Y-124495D01*
X237495Y-124811D01*
X238681Y-124967D01*
X239867Y-124811D01*
X240972Y-124353D01*
X241921Y-123625D01*
X242650Y-122676D01*
X243108Y-121570D01*
X243264Y-120384D01*
X243108Y-119198D01*
X242650Y-118093D01*
X241921Y-117144D01*
X240972Y-116416D01*
X239867Y-115958D01*
X238681Y-115802D01*
X237495Y-115958D01*
X236390Y-116416D01*
X235441Y-117144D01*
X234713Y-118093D01*
X234255Y-119198D01*
X234099Y-120384D01*
X234255Y-121570D01*
X234570Y-122332D01*
X232150Y-124753D01*
X231818Y-125249D01*
X231702Y-125834D01*
Y-127300D01*
X230940Y-127616D01*
X229991Y-128344D01*
X229263Y-129293D01*
X228805Y-130398D01*
X228649Y-131584D01*
X228805Y-132770D01*
X229263Y-133876D01*
X229628Y-134351D01*
X219839Y-144140D01*
X215349D01*
X204741Y-133532D01*
X205057Y-132770D01*
X205213Y-131584D01*
X205057Y-130398D01*
X204741Y-129636D01*
X207162Y-127216D01*
X207493Y-126719D01*
X207610Y-126134D01*
Y-124668D01*
X208371Y-124353D01*
X209320Y-123625D01*
X210049Y-122676D01*
X210507Y-121570D01*
X210663Y-120384D01*
X210507Y-119198D01*
X210049Y-118093D01*
X209320Y-117144D01*
X208371Y-116416D01*
X207610Y-116100D01*
Y-103086D01*
X207493Y-102501D01*
X207162Y-102005D01*
X198380Y-93223D01*
Y-80630D01*
X198943Y-80396D01*
X199810Y-79731D01*
X200475Y-78864D01*
X200893Y-77855D01*
X201036Y-76772D01*
X200893Y-75688D01*
X200475Y-74679D01*
X199810Y-73812D01*
X198943Y-73147D01*
X197934Y-72729D01*
X196850Y-72586D01*
D02*
G37*
G36*
X288066Y-127068D02*
Y-131084D01*
X292083D01*
X291992Y-130398D01*
X291535Y-129293D01*
X290807Y-128344D01*
X289857Y-127616D01*
X288752Y-127158D01*
X288066Y-127068D01*
D02*
G37*
G36*
X287066D02*
X286380Y-127158D01*
X285275Y-127616D01*
X284326Y-128344D01*
X283598Y-129293D01*
X283140Y-130398D01*
X283050Y-131084D01*
X287066D01*
Y-127068D01*
D02*
G37*
G36*
X277199D02*
Y-131084D01*
X281216D01*
X281125Y-130398D01*
X280668Y-129293D01*
X279940Y-128344D01*
X278990Y-127616D01*
X277885Y-127158D01*
X277199Y-127068D01*
D02*
G37*
G36*
X276199D02*
X275513Y-127158D01*
X274408Y-127616D01*
X273459Y-128344D01*
X272731Y-129293D01*
X272273Y-130398D01*
X272182Y-131084D01*
X276199D01*
Y-127068D01*
D02*
G37*
G36*
X255465D02*
Y-131084D01*
X259482D01*
X259391Y-130398D01*
X258934Y-129293D01*
X258206Y-128344D01*
X257256Y-127616D01*
X256151Y-127158D01*
X255465Y-127068D01*
D02*
G37*
G36*
X254465D02*
X253779Y-127158D01*
X252674Y-127616D01*
X251725Y-128344D01*
X250997Y-129293D01*
X250539Y-130398D01*
X250448Y-131084D01*
X254465D01*
Y-127068D01*
D02*
G37*
G36*
X244598D02*
Y-131084D01*
X248615D01*
X248524Y-130398D01*
X248067Y-129293D01*
X247339Y-128344D01*
X246389Y-127616D01*
X245284Y-127158D01*
X244598Y-127068D01*
D02*
G37*
G36*
X243598D02*
X242912Y-127158D01*
X241807Y-127616D01*
X240858Y-128344D01*
X240130Y-129293D01*
X239672Y-130398D01*
X239581Y-131084D01*
X243598D01*
Y-127068D01*
D02*
G37*
G36*
X222864D02*
Y-131084D01*
X226881D01*
X226790Y-130398D01*
X226333Y-129293D01*
X225605Y-128344D01*
X224655Y-127616D01*
X223550Y-127158D01*
X222864Y-127068D01*
D02*
G37*
G36*
X221864D02*
X221178Y-127158D01*
X220073Y-127616D01*
X219124Y-128344D01*
X218396Y-129293D01*
X217938Y-130398D01*
X217847Y-131084D01*
X221864D01*
Y-127068D01*
D02*
G37*
G36*
X211997D02*
Y-131084D01*
X216014D01*
X215924Y-130398D01*
X215466Y-129293D01*
X214738Y-128344D01*
X213788Y-127616D01*
X212683Y-127158D01*
X211997Y-127068D01*
D02*
G37*
G36*
X210997D02*
X210311Y-127158D01*
X209206Y-127616D01*
X208257Y-128344D01*
X207529Y-129293D01*
X207071Y-130398D01*
X206980Y-131084D01*
X210997D01*
Y-127068D01*
D02*
G37*
G36*
X190263D02*
Y-131084D01*
X194280D01*
X194190Y-130398D01*
X193732Y-129293D01*
X193003Y-128344D01*
X192054Y-127616D01*
X190949Y-127158D01*
X190263Y-127068D01*
D02*
G37*
G36*
X189263D02*
X188577Y-127158D01*
X187472Y-127616D01*
X186523Y-128344D01*
X185795Y-129293D01*
X185337Y-130398D01*
X185247Y-131084D01*
X189263D01*
Y-127068D01*
D02*
G37*
G36*
X179396D02*
Y-131084D01*
X183413D01*
X183323Y-130398D01*
X182865Y-129293D01*
X182136Y-128344D01*
X181187Y-127616D01*
X180082Y-127158D01*
X179396Y-127068D01*
D02*
G37*
G36*
X178396D02*
X177710Y-127158D01*
X176605Y-127616D01*
X175656Y-128344D01*
X174928Y-129293D01*
X174470Y-130398D01*
X174380Y-131084D01*
X178396D01*
Y-127068D01*
D02*
G37*
G36*
X157662D02*
Y-131084D01*
X161679D01*
X161589Y-130398D01*
X161131Y-129293D01*
X160403Y-128344D01*
X159453Y-127616D01*
X158348Y-127158D01*
X157662Y-127068D01*
D02*
G37*
G36*
X156662D02*
X155976Y-127158D01*
X154871Y-127616D01*
X153922Y-128344D01*
X153194Y-129293D01*
X152736Y-130398D01*
X152646Y-131084D01*
X156662D01*
Y-127068D01*
D02*
G37*
G36*
X292083Y-132084D02*
X288066D01*
Y-136101D01*
X288752Y-136011D01*
X289857Y-135553D01*
X290807Y-134825D01*
X291535Y-133876D01*
X291992Y-132770D01*
X292083Y-132084D01*
D02*
G37*
G36*
X287066D02*
X283050D01*
X283140Y-132770D01*
X283598Y-133876D01*
X284326Y-134825D01*
X285275Y-135553D01*
X286380Y-136011D01*
X287066Y-136101D01*
Y-132084D01*
D02*
G37*
G36*
X281216D02*
X277199D01*
Y-136101D01*
X277885Y-136011D01*
X278990Y-135553D01*
X279940Y-134825D01*
X280668Y-133876D01*
X281125Y-132770D01*
X281216Y-132084D01*
D02*
G37*
G36*
X276199D02*
X272182D01*
X272273Y-132770D01*
X272731Y-133876D01*
X273459Y-134825D01*
X274408Y-135553D01*
X275513Y-136011D01*
X276199Y-136101D01*
Y-132084D01*
D02*
G37*
G36*
X259482D02*
X255465D01*
Y-136101D01*
X256151Y-136011D01*
X257256Y-135553D01*
X258206Y-134825D01*
X258934Y-133876D01*
X259391Y-132770D01*
X259482Y-132084D01*
D02*
G37*
G36*
X254465D02*
X250448D01*
X250539Y-132770D01*
X250997Y-133876D01*
X251725Y-134825D01*
X252674Y-135553D01*
X253779Y-136011D01*
X254465Y-136101D01*
Y-132084D01*
D02*
G37*
G36*
X248615D02*
X244598D01*
Y-136101D01*
X245284Y-136011D01*
X246389Y-135553D01*
X247339Y-134825D01*
X248067Y-133876D01*
X248524Y-132770D01*
X248615Y-132084D01*
D02*
G37*
G36*
X243598D02*
X239581D01*
X239672Y-132770D01*
X240130Y-133876D01*
X240858Y-134825D01*
X241807Y-135553D01*
X242912Y-136011D01*
X243598Y-136101D01*
Y-132084D01*
D02*
G37*
G36*
X226881D02*
X222864D01*
Y-136101D01*
X223550Y-136011D01*
X224655Y-135553D01*
X225605Y-134825D01*
X226333Y-133876D01*
X226790Y-132770D01*
X226881Y-132084D01*
D02*
G37*
G36*
X221864D02*
X217847D01*
X217938Y-132770D01*
X218396Y-133876D01*
X219124Y-134825D01*
X220073Y-135553D01*
X221178Y-136011D01*
X221864Y-136101D01*
Y-132084D01*
D02*
G37*
G36*
X216014D02*
X211997D01*
Y-136101D01*
X212683Y-136011D01*
X213788Y-135553D01*
X214738Y-134825D01*
X215466Y-133876D01*
X215924Y-132770D01*
X216014Y-132084D01*
D02*
G37*
G36*
X210997D02*
X206980D01*
X207071Y-132770D01*
X207529Y-133876D01*
X208257Y-134825D01*
X209206Y-135553D01*
X210311Y-136011D01*
X210997Y-136101D01*
Y-132084D01*
D02*
G37*
G36*
X194280D02*
X190263D01*
Y-136101D01*
X190949Y-136011D01*
X192054Y-135553D01*
X193003Y-134825D01*
X193732Y-133876D01*
X194190Y-132770D01*
X194280Y-132084D01*
D02*
G37*
G36*
X189263D02*
X185247D01*
X185337Y-132770D01*
X185795Y-133876D01*
X186523Y-134825D01*
X187472Y-135553D01*
X188577Y-136011D01*
X189263Y-136101D01*
Y-132084D01*
D02*
G37*
G36*
X183413D02*
X179396D01*
Y-136101D01*
X180082Y-136011D01*
X181187Y-135553D01*
X182136Y-134825D01*
X182865Y-133876D01*
X183323Y-132770D01*
X183413Y-132084D01*
D02*
G37*
G36*
X178396D02*
X174380D01*
X174470Y-132770D01*
X174928Y-133876D01*
X175656Y-134825D01*
X176605Y-135553D01*
X177710Y-136011D01*
X178396Y-136101D01*
Y-132084D01*
D02*
G37*
G36*
X161679D02*
X157662D01*
Y-136101D01*
X158348Y-136011D01*
X159453Y-135553D01*
X160403Y-134825D01*
X161131Y-133876D01*
X161589Y-132770D01*
X161679Y-132084D01*
D02*
G37*
G36*
X156662D02*
X152646D01*
X152736Y-132770D01*
X153194Y-133876D01*
X153922Y-134825D01*
X154871Y-135553D01*
X155976Y-136011D01*
X156662Y-136101D01*
Y-132084D01*
D02*
G37*
G36*
X326785Y-126484D02*
X315461D01*
Y-137808D01*
X316816Y-137701D01*
X318626Y-137267D01*
X320346Y-136555D01*
X321934Y-135582D01*
X323349Y-134373D01*
X324558Y-132957D01*
X325531Y-131370D01*
X326243Y-129650D01*
X326678Y-127840D01*
X326785Y-126484D01*
D02*
G37*
G36*
X141588D02*
X130264D01*
Y-137808D01*
X131620Y-137701D01*
X133430Y-137267D01*
X135150Y-136555D01*
X136737Y-135582D01*
X138152Y-134373D01*
X139361Y-132957D01*
X140334Y-131370D01*
X141047Y-129650D01*
X141481Y-127840D01*
X141588Y-126484D01*
D02*
G37*
G36*
X314461D02*
X303137D01*
X303243Y-127840D01*
X303678Y-129650D01*
X304390Y-131370D01*
X305363Y-132957D01*
X306572Y-134373D01*
X307987Y-135582D01*
X309575Y-136555D01*
X311295Y-137267D01*
X313105Y-137701D01*
X314461Y-137808D01*
Y-126484D01*
D02*
G37*
G36*
X129264D02*
X117940D01*
X118046Y-127840D01*
X118481Y-129650D01*
X119193Y-131370D01*
X120166Y-132957D01*
X121375Y-134373D01*
X122791Y-135582D01*
X124378Y-136555D01*
X126098Y-137267D01*
X127908Y-137701D01*
X129264Y-137808D01*
Y-126484D01*
D02*
G37*
G36*
X158295Y-161235D02*
Y-164854D01*
X161915D01*
X161838Y-164271D01*
X161420Y-163261D01*
X160755Y-162395D01*
X159888Y-161730D01*
X158878Y-161311D01*
X158295Y-161235D01*
D02*
G37*
G36*
X157295D02*
X156712Y-161311D01*
X155702Y-161730D01*
X154836Y-162395D01*
X154171Y-163261D01*
X153752Y-164271D01*
X153676Y-164854D01*
X157295D01*
Y-161235D01*
D02*
G37*
G36*
X138295D02*
Y-164854D01*
X141915D01*
X141838Y-164271D01*
X141420Y-163261D01*
X140755Y-162395D01*
X139888Y-161730D01*
X138878Y-161311D01*
X138295Y-161235D01*
D02*
G37*
G36*
X137295D02*
X136712Y-161311D01*
X135703Y-161730D01*
X134836Y-162395D01*
X134170Y-163261D01*
X133752Y-164271D01*
X133676Y-164854D01*
X137295D01*
Y-161235D01*
D02*
G37*
G36*
X118925D02*
Y-164854D01*
X122545D01*
X122468Y-164271D01*
X122050Y-163261D01*
X121385Y-162395D01*
X120518Y-161730D01*
X119508Y-161311D01*
X118925Y-161235D01*
D02*
G37*
G36*
X117925D02*
X117342Y-161311D01*
X116332Y-161730D01*
X115466Y-162395D01*
X114801Y-163261D01*
X114382Y-164271D01*
X114306Y-164854D01*
X117925D01*
Y-161235D01*
D02*
G37*
G36*
X98925D02*
Y-164854D01*
X102545D01*
X102468Y-164271D01*
X102050Y-163261D01*
X101385Y-162395D01*
X100518Y-161730D01*
X99508Y-161311D01*
X98925Y-161235D01*
D02*
G37*
G36*
X97925D02*
X97342Y-161311D01*
X96333Y-161730D01*
X95466Y-162395D01*
X94801Y-163261D01*
X94382Y-164271D01*
X94306Y-164854D01*
X97925D01*
Y-161235D01*
D02*
G37*
G36*
X79555D02*
Y-164854D01*
X83175D01*
X83098Y-164271D01*
X82680Y-163261D01*
X82015Y-162395D01*
X81148Y-161730D01*
X80138Y-161311D01*
X79555Y-161235D01*
D02*
G37*
G36*
X78555D02*
X77972Y-161311D01*
X76963Y-161730D01*
X76096Y-162395D01*
X75431Y-163261D01*
X75012Y-164271D01*
X74936Y-164854D01*
X78555D01*
Y-161235D01*
D02*
G37*
G36*
X59555D02*
Y-164854D01*
X63175D01*
X63098Y-164271D01*
X62680Y-163261D01*
X62015Y-162395D01*
X61148Y-161730D01*
X60138Y-161311D01*
X59555Y-161235D01*
D02*
G37*
G36*
X58555D02*
X57972Y-161311D01*
X56963Y-161730D01*
X56096Y-162395D01*
X55431Y-163261D01*
X55012Y-164271D01*
X54936Y-164854D01*
X58555D01*
Y-161235D01*
D02*
G37*
G36*
X40185D02*
Y-164854D01*
X43805D01*
X43728Y-164271D01*
X43310Y-163261D01*
X42645Y-162395D01*
X41778Y-161730D01*
X40768Y-161311D01*
X40185Y-161235D01*
D02*
G37*
G36*
X39185D02*
X38602Y-161311D01*
X37592Y-161730D01*
X36725Y-162395D01*
X36060Y-163261D01*
X35642Y-164271D01*
X35565Y-164854D01*
X39185D01*
Y-161235D01*
D02*
G37*
G36*
X20185D02*
Y-164854D01*
X23805D01*
X23728Y-164271D01*
X23310Y-163261D01*
X22645Y-162395D01*
X21778Y-161730D01*
X20768Y-161311D01*
X20185Y-161235D01*
D02*
G37*
G36*
X19185D02*
X18602Y-161311D01*
X17592Y-161730D01*
X16725Y-162395D01*
X16060Y-163261D01*
X15642Y-164271D01*
X15565Y-164854D01*
X19185D01*
Y-161235D01*
D02*
G37*
G36*
X161915Y-165854D02*
X158295D01*
Y-169474D01*
X158878Y-169397D01*
X159888Y-168979D01*
X160755Y-168314D01*
X161420Y-167447D01*
X161838Y-166437D01*
X161915Y-165854D01*
D02*
G37*
G36*
X157295D02*
X153676D01*
X153752Y-166437D01*
X154171Y-167447D01*
X154836Y-168314D01*
X155702Y-168979D01*
X156712Y-169397D01*
X157295Y-169474D01*
Y-165854D01*
D02*
G37*
G36*
X141915D02*
X138295D01*
Y-169474D01*
X138878Y-169397D01*
X139888Y-168979D01*
X140755Y-168314D01*
X141420Y-167447D01*
X141838Y-166437D01*
X141915Y-165854D01*
D02*
G37*
G36*
X137295D02*
X133676D01*
X133752Y-166437D01*
X134170Y-167447D01*
X134836Y-168314D01*
X135703Y-168979D01*
X136712Y-169397D01*
X137295Y-169474D01*
Y-165854D01*
D02*
G37*
G36*
X122545D02*
X118925D01*
Y-169474D01*
X119508Y-169397D01*
X120518Y-168979D01*
X121385Y-168314D01*
X122050Y-167447D01*
X122468Y-166437D01*
X122545Y-165854D01*
D02*
G37*
G36*
X117925D02*
X114306D01*
X114382Y-166437D01*
X114801Y-167447D01*
X115466Y-168314D01*
X116332Y-168979D01*
X117342Y-169397D01*
X117925Y-169474D01*
Y-165854D01*
D02*
G37*
G36*
X102545D02*
X98925D01*
Y-169474D01*
X99508Y-169397D01*
X100518Y-168979D01*
X101385Y-168314D01*
X102050Y-167447D01*
X102468Y-166437D01*
X102545Y-165854D01*
D02*
G37*
G36*
X97925D02*
X94306D01*
X94382Y-166437D01*
X94801Y-167447D01*
X95466Y-168314D01*
X96333Y-168979D01*
X97342Y-169397D01*
X97925Y-169474D01*
Y-165854D01*
D02*
G37*
G36*
X83175D02*
X79555D01*
Y-169474D01*
X80138Y-169397D01*
X81148Y-168979D01*
X82015Y-168314D01*
X82680Y-167447D01*
X83098Y-166437D01*
X83175Y-165854D01*
D02*
G37*
G36*
X78555D02*
X74936D01*
X75012Y-166437D01*
X75431Y-167447D01*
X76096Y-168314D01*
X76963Y-168979D01*
X77972Y-169397D01*
X78555Y-169474D01*
Y-165854D01*
D02*
G37*
G36*
X63175D02*
X59555D01*
Y-169474D01*
X60138Y-169397D01*
X61148Y-168979D01*
X62015Y-168314D01*
X62680Y-167447D01*
X63098Y-166437D01*
X63175Y-165854D01*
D02*
G37*
G36*
X58555D02*
X54936D01*
X55012Y-166437D01*
X55431Y-167447D01*
X56096Y-168314D01*
X56963Y-168979D01*
X57972Y-169397D01*
X58555Y-169474D01*
Y-165854D01*
D02*
G37*
G36*
X43805D02*
X40185D01*
Y-169474D01*
X40768Y-169397D01*
X41778Y-168979D01*
X42645Y-168314D01*
X43310Y-167447D01*
X43728Y-166437D01*
X43805Y-165854D01*
D02*
G37*
G36*
X39185D02*
X35565D01*
X35642Y-166437D01*
X36060Y-167447D01*
X36725Y-168314D01*
X37592Y-168979D01*
X38602Y-169397D01*
X39185Y-169474D01*
Y-165854D01*
D02*
G37*
G36*
X23805D02*
X20185D01*
Y-169474D01*
X20768Y-169397D01*
X21778Y-168979D01*
X22645Y-168314D01*
X23310Y-167447D01*
X23728Y-166437D01*
X23805Y-165854D01*
D02*
G37*
G36*
X19185D02*
X15565D01*
X15642Y-166437D01*
X16060Y-167447D01*
X16725Y-168314D01*
X17592Y-168979D01*
X18602Y-169397D01*
X19185Y-169474D01*
Y-165854D01*
D02*
G37*
G36*
X147795Y-171169D02*
X146712Y-171311D01*
X145703Y-171730D01*
X144836Y-172395D01*
X144170Y-173261D01*
X143752Y-174271D01*
X143610Y-175354D01*
X143752Y-176437D01*
X144170Y-177447D01*
X144836Y-178314D01*
X145703Y-178979D01*
X146712Y-179397D01*
X147795Y-179540D01*
X148878Y-179397D01*
X149888Y-178979D01*
X150755Y-178314D01*
X151420Y-177447D01*
X151838Y-176437D01*
X151981Y-175354D01*
X151838Y-174271D01*
X151420Y-173261D01*
X150755Y-172395D01*
X149888Y-171730D01*
X148878Y-171311D01*
X147795Y-171169D01*
D02*
G37*
G36*
X108425D02*
X107342Y-171311D01*
X106333Y-171730D01*
X105466Y-172395D01*
X104800Y-173261D01*
X104382Y-174271D01*
X104240Y-175354D01*
X104382Y-176437D01*
X104800Y-177447D01*
X105466Y-178314D01*
X106333Y-178979D01*
X107342Y-179397D01*
X108425Y-179540D01*
X109508Y-179397D01*
X110518Y-178979D01*
X111385Y-178314D01*
X112050Y-177447D01*
X112468Y-176437D01*
X112611Y-175354D01*
X112468Y-174271D01*
X112050Y-173261D01*
X111385Y-172395D01*
X110518Y-171730D01*
X109508Y-171311D01*
X108425Y-171169D01*
D02*
G37*
G36*
X69055D02*
X67972Y-171311D01*
X66962Y-171730D01*
X66096Y-172395D01*
X65430Y-173261D01*
X65012Y-174271D01*
X64870Y-175354D01*
X65012Y-176437D01*
X65430Y-177447D01*
X66096Y-178314D01*
X66962Y-178979D01*
X67972Y-179397D01*
X69055Y-179540D01*
X70138Y-179397D01*
X71148Y-178979D01*
X72015Y-178314D01*
X72680Y-177447D01*
X73098Y-176437D01*
X73241Y-175354D01*
X73098Y-174271D01*
X72680Y-173261D01*
X72015Y-172395D01*
X71148Y-171730D01*
X70138Y-171311D01*
X69055Y-171169D01*
D02*
G37*
G36*
X29685D02*
X28602Y-171311D01*
X27592Y-171730D01*
X26725Y-172395D01*
X26060Y-173261D01*
X25642Y-174271D01*
X25500Y-175354D01*
X25642Y-176437D01*
X26060Y-177447D01*
X26725Y-178314D01*
X27592Y-178979D01*
X28602Y-179397D01*
X29685Y-179540D01*
X30768Y-179397D01*
X31778Y-178979D01*
X32645Y-178314D01*
X33310Y-177447D01*
X33728Y-176437D01*
X33870Y-175354D01*
X33728Y-174271D01*
X33310Y-173261D01*
X32645Y-172395D01*
X31778Y-171730D01*
X30768Y-171311D01*
X29685Y-171169D01*
D02*
G37*
G36*
X158295Y-181235D02*
Y-184854D01*
X161915D01*
X161838Y-184271D01*
X161420Y-183262D01*
X160755Y-182395D01*
X159888Y-181730D01*
X158878Y-181311D01*
X158295Y-181235D01*
D02*
G37*
G36*
X157295D02*
X156712Y-181311D01*
X155702Y-181730D01*
X154836Y-182395D01*
X154171Y-183262D01*
X153752Y-184271D01*
X153676Y-184854D01*
X157295D01*
Y-181235D01*
D02*
G37*
G36*
X138295D02*
Y-184854D01*
X141915D01*
X141838Y-184271D01*
X141420Y-183262D01*
X140755Y-182395D01*
X139888Y-181730D01*
X138878Y-181311D01*
X138295Y-181235D01*
D02*
G37*
G36*
X137295D02*
X136712Y-181311D01*
X135703Y-181730D01*
X134836Y-182395D01*
X134170Y-183262D01*
X133752Y-184271D01*
X133676Y-184854D01*
X137295D01*
Y-181235D01*
D02*
G37*
G36*
X118925D02*
Y-184854D01*
X122545D01*
X122468Y-184271D01*
X122050Y-183262D01*
X121385Y-182395D01*
X120518Y-181730D01*
X119508Y-181311D01*
X118925Y-181235D01*
D02*
G37*
G36*
X117925D02*
X117342Y-181311D01*
X116332Y-181730D01*
X115466Y-182395D01*
X114801Y-183262D01*
X114382Y-184271D01*
X114306Y-184854D01*
X117925D01*
Y-181235D01*
D02*
G37*
G36*
X98925D02*
Y-184854D01*
X102545D01*
X102468Y-184271D01*
X102050Y-183262D01*
X101385Y-182395D01*
X100518Y-181730D01*
X99508Y-181311D01*
X98925Y-181235D01*
D02*
G37*
G36*
X97925D02*
X97342Y-181311D01*
X96333Y-181730D01*
X95466Y-182395D01*
X94801Y-183262D01*
X94382Y-184271D01*
X94306Y-184854D01*
X97925D01*
Y-181235D01*
D02*
G37*
G36*
X79555D02*
Y-184854D01*
X83175D01*
X83098Y-184271D01*
X82680Y-183262D01*
X82015Y-182395D01*
X81148Y-181730D01*
X80138Y-181311D01*
X79555Y-181235D01*
D02*
G37*
G36*
X78555D02*
X77972Y-181311D01*
X76963Y-181730D01*
X76096Y-182395D01*
X75431Y-183262D01*
X75012Y-184271D01*
X74936Y-184854D01*
X78555D01*
Y-181235D01*
D02*
G37*
G36*
X59555D02*
Y-184854D01*
X63175D01*
X63098Y-184271D01*
X62680Y-183262D01*
X62015Y-182395D01*
X61148Y-181730D01*
X60138Y-181311D01*
X59555Y-181235D01*
D02*
G37*
G36*
X58555D02*
X57972Y-181311D01*
X56963Y-181730D01*
X56096Y-182395D01*
X55431Y-183262D01*
X55012Y-184271D01*
X54936Y-184854D01*
X58555D01*
Y-181235D01*
D02*
G37*
G36*
X40185D02*
Y-184854D01*
X43805D01*
X43728Y-184271D01*
X43310Y-183262D01*
X42645Y-182395D01*
X41778Y-181730D01*
X40768Y-181311D01*
X40185Y-181235D01*
D02*
G37*
G36*
X39185D02*
X38602Y-181311D01*
X37592Y-181730D01*
X36725Y-182395D01*
X36060Y-183262D01*
X35642Y-184271D01*
X35565Y-184854D01*
X39185D01*
Y-181235D01*
D02*
G37*
G36*
X20185D02*
Y-184854D01*
X23805D01*
X23728Y-184271D01*
X23310Y-183262D01*
X22645Y-182395D01*
X21778Y-181730D01*
X20768Y-181311D01*
X20185Y-181235D01*
D02*
G37*
G36*
X19185D02*
X18602Y-181311D01*
X17592Y-181730D01*
X16725Y-182395D01*
X16060Y-183262D01*
X15642Y-184271D01*
X15565Y-184854D01*
X19185D01*
Y-181235D01*
D02*
G37*
G36*
X161915Y-185854D02*
X158295D01*
Y-189474D01*
X158878Y-189397D01*
X159888Y-188979D01*
X160755Y-188314D01*
X161420Y-187447D01*
X161838Y-186437D01*
X161915Y-185854D01*
D02*
G37*
G36*
X157295D02*
X153676D01*
X153752Y-186437D01*
X154171Y-187447D01*
X154836Y-188314D01*
X155702Y-188979D01*
X156712Y-189397D01*
X157295Y-189474D01*
Y-185854D01*
D02*
G37*
G36*
X141915D02*
X138295D01*
Y-189474D01*
X138878Y-189397D01*
X139888Y-188979D01*
X140755Y-188314D01*
X141420Y-187447D01*
X141838Y-186437D01*
X141915Y-185854D01*
D02*
G37*
G36*
X137295D02*
X133676D01*
X133752Y-186437D01*
X134170Y-187447D01*
X134836Y-188314D01*
X135703Y-188979D01*
X136712Y-189397D01*
X137295Y-189474D01*
Y-185854D01*
D02*
G37*
G36*
X122545D02*
X118925D01*
Y-189474D01*
X119508Y-189397D01*
X120518Y-188979D01*
X121385Y-188314D01*
X122050Y-187447D01*
X122468Y-186437D01*
X122545Y-185854D01*
D02*
G37*
G36*
X117925D02*
X114306D01*
X114382Y-186437D01*
X114801Y-187447D01*
X115466Y-188314D01*
X116332Y-188979D01*
X117342Y-189397D01*
X117925Y-189474D01*
Y-185854D01*
D02*
G37*
G36*
X102545D02*
X98925D01*
Y-189474D01*
X99508Y-189397D01*
X100518Y-188979D01*
X101385Y-188314D01*
X102050Y-187447D01*
X102468Y-186437D01*
X102545Y-185854D01*
D02*
G37*
G36*
X97925D02*
X94306D01*
X94382Y-186437D01*
X94801Y-187447D01*
X95466Y-188314D01*
X96333Y-188979D01*
X97342Y-189397D01*
X97925Y-189474D01*
Y-185854D01*
D02*
G37*
G36*
X83175D02*
X79555D01*
Y-189474D01*
X80138Y-189397D01*
X81148Y-188979D01*
X82015Y-188314D01*
X82680Y-187447D01*
X83098Y-186437D01*
X83175Y-185854D01*
D02*
G37*
G36*
X78555D02*
X74936D01*
X75012Y-186437D01*
X75431Y-187447D01*
X76096Y-188314D01*
X76963Y-188979D01*
X77972Y-189397D01*
X78555Y-189474D01*
Y-185854D01*
D02*
G37*
G36*
X63175D02*
X59555D01*
Y-189474D01*
X60138Y-189397D01*
X61148Y-188979D01*
X62015Y-188314D01*
X62680Y-187447D01*
X63098Y-186437D01*
X63175Y-185854D01*
D02*
G37*
G36*
X58555D02*
X54936D01*
X55012Y-186437D01*
X55431Y-187447D01*
X56096Y-188314D01*
X56963Y-188979D01*
X57972Y-189397D01*
X58555Y-189474D01*
Y-185854D01*
D02*
G37*
G36*
X43805D02*
X40185D01*
Y-189474D01*
X40768Y-189397D01*
X41778Y-188979D01*
X42645Y-188314D01*
X43310Y-187447D01*
X43728Y-186437D01*
X43805Y-185854D01*
D02*
G37*
G36*
X39185D02*
X35565D01*
X35642Y-186437D01*
X36060Y-187447D01*
X36725Y-188314D01*
X37592Y-188979D01*
X38602Y-189397D01*
X39185Y-189474D01*
Y-185854D01*
D02*
G37*
G36*
X23805D02*
X20185D01*
Y-189474D01*
X20768Y-189397D01*
X21778Y-188979D01*
X22645Y-188314D01*
X23310Y-187447D01*
X23728Y-186437D01*
X23805Y-185854D01*
D02*
G37*
G36*
X19185D02*
X15565D01*
X15642Y-186437D01*
X16060Y-187447D01*
X16725Y-188314D01*
X17592Y-188979D01*
X18602Y-189397D01*
X19185Y-189474D01*
Y-185854D01*
D02*
G37*
G36*
X197508Y-200447D02*
Y-204067D01*
X201128D01*
X201051Y-203484D01*
X200633Y-202474D01*
X199968Y-201607D01*
X199101Y-200942D01*
X198091Y-200524D01*
X197508Y-200447D01*
D02*
G37*
G36*
X196508D02*
X195925Y-200524D01*
X194915Y-200942D01*
X194048Y-201607D01*
X193383Y-202474D01*
X192965Y-203484D01*
X192888Y-204067D01*
X196508D01*
Y-200447D01*
D02*
G37*
G36*
X177508D02*
Y-204067D01*
X181128D01*
X181051Y-203484D01*
X180633Y-202474D01*
X179967Y-201607D01*
X179101Y-200942D01*
X178091Y-200524D01*
X177508Y-200447D01*
D02*
G37*
G36*
X176508D02*
X175925Y-200524D01*
X174915Y-200942D01*
X174048Y-201607D01*
X173383Y-202474D01*
X172965Y-203484D01*
X172888Y-204067D01*
X176508D01*
Y-200447D01*
D02*
G37*
G36*
X158138D02*
Y-204067D01*
X161758D01*
X161681Y-203484D01*
X161263Y-202474D01*
X160598Y-201607D01*
X159731Y-200942D01*
X158721Y-200524D01*
X158138Y-200447D01*
D02*
G37*
G36*
X157138D02*
X156555Y-200524D01*
X155545Y-200942D01*
X154678Y-201607D01*
X154013Y-202474D01*
X153595Y-203484D01*
X153518Y-204067D01*
X157138D01*
Y-200447D01*
D02*
G37*
G36*
X138138D02*
Y-204067D01*
X141758D01*
X141681Y-203484D01*
X141263Y-202474D01*
X140597Y-201607D01*
X139731Y-200942D01*
X138721Y-200524D01*
X138138Y-200447D01*
D02*
G37*
G36*
X137138D02*
X136555Y-200524D01*
X135545Y-200942D01*
X134678Y-201607D01*
X134013Y-202474D01*
X133595Y-203484D01*
X133518Y-204067D01*
X137138D01*
Y-200447D01*
D02*
G37*
G36*
X118768D02*
Y-204067D01*
X122387D01*
X122311Y-203484D01*
X121892Y-202474D01*
X121227Y-201607D01*
X120361Y-200942D01*
X119351Y-200524D01*
X118768Y-200447D01*
D02*
G37*
G36*
X117768D02*
X117184Y-200524D01*
X116175Y-200942D01*
X115308Y-201607D01*
X114643Y-202474D01*
X114225Y-203484D01*
X114148Y-204067D01*
X117768D01*
Y-200447D01*
D02*
G37*
G36*
X98768D02*
Y-204067D01*
X102387D01*
X102311Y-203484D01*
X101892Y-202474D01*
X101227Y-201607D01*
X100361Y-200942D01*
X99351Y-200524D01*
X98768Y-200447D01*
D02*
G37*
G36*
X97768D02*
X97184Y-200524D01*
X96175Y-200942D01*
X95308Y-201607D01*
X94643Y-202474D01*
X94225Y-203484D01*
X94148Y-204067D01*
X97768D01*
Y-200447D01*
D02*
G37*
G36*
X79398D02*
Y-204067D01*
X83017D01*
X82941Y-203484D01*
X82522Y-202474D01*
X81857Y-201607D01*
X80990Y-200942D01*
X79981Y-200524D01*
X79398Y-200447D01*
D02*
G37*
G36*
X78398D02*
X77815Y-200524D01*
X76805Y-200942D01*
X75938Y-201607D01*
X75273Y-202474D01*
X74855Y-203484D01*
X74778Y-204067D01*
X78398D01*
Y-200447D01*
D02*
G37*
G36*
X59398D02*
Y-204067D01*
X63017D01*
X62941Y-203484D01*
X62522Y-202474D01*
X61857Y-201607D01*
X60991Y-200942D01*
X59981Y-200524D01*
X59398Y-200447D01*
D02*
G37*
G36*
X58398D02*
X57815Y-200524D01*
X56805Y-200942D01*
X55938Y-201607D01*
X55273Y-202474D01*
X54855Y-203484D01*
X54778Y-204067D01*
X58398D01*
Y-200447D01*
D02*
G37*
G36*
X20185Y-198805D02*
Y-208161D01*
X29542D01*
X29401Y-206729D01*
X28837Y-204871D01*
X27922Y-203158D01*
X26690Y-201657D01*
X25188Y-200425D01*
X23476Y-199510D01*
X21618Y-198946D01*
X20185Y-198805D01*
D02*
G37*
G36*
X19185D02*
X17752Y-198946D01*
X15894Y-199510D01*
X14182Y-200425D01*
X12680Y-201657D01*
X11449Y-203158D01*
X10533Y-204871D01*
X9969Y-206729D01*
X9828Y-208161D01*
X19185D01*
Y-198805D01*
D02*
G37*
G36*
X201128Y-205067D02*
X197508D01*
Y-208686D01*
X198091Y-208610D01*
X199101Y-208191D01*
X199968Y-207526D01*
X200633Y-206660D01*
X201051Y-205650D01*
X201128Y-205067D01*
D02*
G37*
G36*
X196508D02*
X192888D01*
X192965Y-205650D01*
X193383Y-206660D01*
X194048Y-207526D01*
X194915Y-208191D01*
X195925Y-208610D01*
X196508Y-208686D01*
Y-205067D01*
D02*
G37*
G36*
X181128D02*
X177508D01*
Y-208686D01*
X178091Y-208610D01*
X179101Y-208191D01*
X179967Y-207526D01*
X180633Y-206660D01*
X181051Y-205650D01*
X181128Y-205067D01*
D02*
G37*
G36*
X176508D02*
X172888D01*
X172965Y-205650D01*
X173383Y-206660D01*
X174048Y-207526D01*
X174915Y-208191D01*
X175925Y-208610D01*
X176508Y-208686D01*
Y-205067D01*
D02*
G37*
G36*
X161758D02*
X158138D01*
Y-208686D01*
X158721Y-208610D01*
X159731Y-208191D01*
X160598Y-207526D01*
X161263Y-206660D01*
X161681Y-205650D01*
X161758Y-205067D01*
D02*
G37*
G36*
X157138D02*
X153518D01*
X153595Y-205650D01*
X154013Y-206660D01*
X154678Y-207526D01*
X155545Y-208191D01*
X156555Y-208610D01*
X157138Y-208686D01*
Y-205067D01*
D02*
G37*
G36*
X141758D02*
X138138D01*
Y-208686D01*
X138721Y-208610D01*
X139731Y-208191D01*
X140597Y-207526D01*
X141263Y-206660D01*
X141681Y-205650D01*
X141758Y-205067D01*
D02*
G37*
G36*
X137138D02*
X133518D01*
X133595Y-205650D01*
X134013Y-206660D01*
X134678Y-207526D01*
X135545Y-208191D01*
X136555Y-208610D01*
X137138Y-208686D01*
Y-205067D01*
D02*
G37*
G36*
X122387D02*
X118768D01*
Y-208686D01*
X119351Y-208610D01*
X120361Y-208191D01*
X121227Y-207526D01*
X121892Y-206660D01*
X122311Y-205650D01*
X122387Y-205067D01*
D02*
G37*
G36*
X117768D02*
X114148D01*
X114225Y-205650D01*
X114643Y-206660D01*
X115308Y-207526D01*
X116175Y-208191D01*
X117184Y-208610D01*
X117768Y-208686D01*
Y-205067D01*
D02*
G37*
G36*
X102387D02*
X98768D01*
Y-208686D01*
X99351Y-208610D01*
X100361Y-208191D01*
X101227Y-207526D01*
X101892Y-206660D01*
X102311Y-205650D01*
X102387Y-205067D01*
D02*
G37*
G36*
X97768D02*
X94148D01*
X94225Y-205650D01*
X94643Y-206660D01*
X95308Y-207526D01*
X96175Y-208191D01*
X97184Y-208610D01*
X97768Y-208686D01*
Y-205067D01*
D02*
G37*
G36*
X83017D02*
X79398D01*
Y-208686D01*
X79981Y-208610D01*
X80990Y-208191D01*
X81857Y-207526D01*
X82522Y-206660D01*
X82941Y-205650D01*
X83017Y-205067D01*
D02*
G37*
G36*
X78398D02*
X74778D01*
X74855Y-205650D01*
X75273Y-206660D01*
X75938Y-207526D01*
X76805Y-208191D01*
X77815Y-208610D01*
X78398Y-208686D01*
Y-205067D01*
D02*
G37*
G36*
X63017D02*
X59398D01*
Y-208686D01*
X59981Y-208610D01*
X60991Y-208191D01*
X61857Y-207526D01*
X62522Y-206660D01*
X62941Y-205650D01*
X63017Y-205067D01*
D02*
G37*
G36*
X58398D02*
X54778D01*
X54855Y-205650D01*
X55273Y-206660D01*
X55938Y-207526D01*
X56805Y-208191D01*
X57815Y-208610D01*
X58398Y-208686D01*
Y-205067D01*
D02*
G37*
G36*
X413886Y-202742D02*
Y-212098D01*
X423243D01*
X423101Y-210666D01*
X422538Y-208808D01*
X421622Y-207095D01*
X420390Y-205594D01*
X418889Y-204362D01*
X417177Y-203447D01*
X415318Y-202883D01*
X413886Y-202742D01*
D02*
G37*
G36*
X412886D02*
X411453Y-202883D01*
X409595Y-203447D01*
X407882Y-204362D01*
X406381Y-205594D01*
X405149Y-207095D01*
X404234Y-208808D01*
X403670Y-210666D01*
X403529Y-212098D01*
X412886D01*
Y-202742D01*
D02*
G37*
G36*
X29542Y-209161D02*
X20185D01*
Y-218518D01*
X21618Y-218377D01*
X23476Y-217813D01*
X25188Y-216898D01*
X26690Y-215666D01*
X27922Y-214165D01*
X28837Y-212452D01*
X29401Y-210594D01*
X29542Y-209161D01*
D02*
G37*
G36*
X19185D02*
X9828D01*
X9969Y-210594D01*
X10533Y-212452D01*
X11449Y-214165D01*
X12680Y-215666D01*
X14182Y-216898D01*
X15894Y-217813D01*
X17752Y-218377D01*
X19185Y-218518D01*
Y-209161D01*
D02*
G37*
G36*
X187008Y-210381D02*
X185925Y-210524D01*
X184915Y-210942D01*
X184048Y-211607D01*
X183383Y-212474D01*
X182965Y-213484D01*
X182823Y-214567D01*
X182965Y-215650D01*
X183383Y-216659D01*
X184048Y-217526D01*
X184915Y-218192D01*
X185925Y-218610D01*
X187008Y-218752D01*
X188091Y-218610D01*
X189101Y-218192D01*
X189968Y-217526D01*
X190633Y-216659D01*
X191051Y-215650D01*
X191193Y-214567D01*
X191051Y-213484D01*
X190633Y-212474D01*
X189968Y-211607D01*
X189101Y-210942D01*
X188091Y-210524D01*
X187008Y-210381D01*
D02*
G37*
G36*
X147638D02*
X146555Y-210524D01*
X145545Y-210942D01*
X144678Y-211607D01*
X144013Y-212474D01*
X143595Y-213484D01*
X143453Y-214567D01*
X143595Y-215650D01*
X144013Y-216659D01*
X144678Y-217526D01*
X145545Y-218192D01*
X146555Y-218610D01*
X147638Y-218752D01*
X148721Y-218610D01*
X149731Y-218192D01*
X150598Y-217526D01*
X151263Y-216659D01*
X151681Y-215650D01*
X151823Y-214567D01*
X151681Y-213484D01*
X151263Y-212474D01*
X150598Y-211607D01*
X149731Y-210942D01*
X148721Y-210524D01*
X147638Y-210381D01*
D02*
G37*
G36*
X108268D02*
X107185Y-210524D01*
X106175Y-210942D01*
X105308Y-211607D01*
X104643Y-212474D01*
X104225Y-213484D01*
X104082Y-214567D01*
X104225Y-215650D01*
X104643Y-216659D01*
X105308Y-217526D01*
X106175Y-218192D01*
X107185Y-218610D01*
X108268Y-218752D01*
X109351Y-218610D01*
X110361Y-218192D01*
X111227Y-217526D01*
X111892Y-216659D01*
X112311Y-215650D01*
X112453Y-214567D01*
X112311Y-213484D01*
X111892Y-212474D01*
X111227Y-211607D01*
X110361Y-210942D01*
X109351Y-210524D01*
X108268Y-210381D01*
D02*
G37*
G36*
X68898D02*
X67814Y-210524D01*
X66805Y-210942D01*
X65938Y-211607D01*
X65273Y-212474D01*
X64855Y-213484D01*
X64712Y-214567D01*
X64855Y-215650D01*
X65273Y-216659D01*
X65938Y-217526D01*
X66805Y-218192D01*
X67814Y-218610D01*
X68898Y-218752D01*
X69981Y-218610D01*
X70991Y-218192D01*
X71857Y-217526D01*
X72522Y-216659D01*
X72941Y-215650D01*
X73083Y-214567D01*
X72941Y-213484D01*
X72522Y-212474D01*
X71857Y-211607D01*
X70991Y-210942D01*
X69981Y-210524D01*
X68898Y-210381D01*
D02*
G37*
G36*
X423243Y-213098D02*
X413886D01*
Y-222455D01*
X415318Y-222314D01*
X417177Y-221750D01*
X418889Y-220835D01*
X420390Y-219603D01*
X421622Y-218102D01*
X422538Y-216389D01*
X423101Y-214531D01*
X423243Y-213098D01*
D02*
G37*
G36*
X412886D02*
X403529D01*
X403670Y-214531D01*
X404234Y-216389D01*
X405149Y-218102D01*
X406381Y-219603D01*
X407882Y-220835D01*
X409595Y-221750D01*
X411453Y-222314D01*
X412886Y-222455D01*
Y-213098D01*
D02*
G37*
G36*
X197508Y-220447D02*
Y-224067D01*
X201128D01*
X201051Y-223484D01*
X200633Y-222474D01*
X199968Y-221607D01*
X199101Y-220942D01*
X198091Y-220524D01*
X197508Y-220447D01*
D02*
G37*
G36*
X196508D02*
X195925Y-220524D01*
X194915Y-220942D01*
X194048Y-221607D01*
X193383Y-222474D01*
X192965Y-223484D01*
X192888Y-224067D01*
X196508D01*
Y-220447D01*
D02*
G37*
G36*
X177508D02*
Y-224067D01*
X181128D01*
X181051Y-223484D01*
X180633Y-222474D01*
X179967Y-221607D01*
X179101Y-220942D01*
X178091Y-220524D01*
X177508Y-220447D01*
D02*
G37*
G36*
X176508D02*
X175925Y-220524D01*
X174915Y-220942D01*
X174048Y-221607D01*
X173383Y-222474D01*
X172965Y-223484D01*
X172888Y-224067D01*
X176508D01*
Y-220447D01*
D02*
G37*
G36*
X158138D02*
Y-224067D01*
X161758D01*
X161681Y-223484D01*
X161263Y-222474D01*
X160598Y-221607D01*
X159731Y-220942D01*
X158721Y-220524D01*
X158138Y-220447D01*
D02*
G37*
G36*
X157138D02*
X156555Y-220524D01*
X155545Y-220942D01*
X154678Y-221607D01*
X154013Y-222474D01*
X153595Y-223484D01*
X153518Y-224067D01*
X157138D01*
Y-220447D01*
D02*
G37*
G36*
X138138D02*
Y-224067D01*
X141758D01*
X141681Y-223484D01*
X141263Y-222474D01*
X140597Y-221607D01*
X139731Y-220942D01*
X138721Y-220524D01*
X138138Y-220447D01*
D02*
G37*
G36*
X137138D02*
X136555Y-220524D01*
X135545Y-220942D01*
X134678Y-221607D01*
X134013Y-222474D01*
X133595Y-223484D01*
X133518Y-224067D01*
X137138D01*
Y-220447D01*
D02*
G37*
G36*
X118768D02*
Y-224067D01*
X122387D01*
X122311Y-223484D01*
X121892Y-222474D01*
X121227Y-221607D01*
X120361Y-220942D01*
X119351Y-220524D01*
X118768Y-220447D01*
D02*
G37*
G36*
X117768D02*
X117184Y-220524D01*
X116175Y-220942D01*
X115308Y-221607D01*
X114643Y-222474D01*
X114225Y-223484D01*
X114148Y-224067D01*
X117768D01*
Y-220447D01*
D02*
G37*
G36*
X98768D02*
Y-224067D01*
X102387D01*
X102311Y-223484D01*
X101892Y-222474D01*
X101227Y-221607D01*
X100361Y-220942D01*
X99351Y-220524D01*
X98768Y-220447D01*
D02*
G37*
G36*
X97768D02*
X97184Y-220524D01*
X96175Y-220942D01*
X95308Y-221607D01*
X94643Y-222474D01*
X94225Y-223484D01*
X94148Y-224067D01*
X97768D01*
Y-220447D01*
D02*
G37*
G36*
X79398D02*
Y-224067D01*
X83017D01*
X82941Y-223484D01*
X82522Y-222474D01*
X81857Y-221607D01*
X80990Y-220942D01*
X79981Y-220524D01*
X79398Y-220447D01*
D02*
G37*
G36*
X78398D02*
X77815Y-220524D01*
X76805Y-220942D01*
X75938Y-221607D01*
X75273Y-222474D01*
X74855Y-223484D01*
X74778Y-224067D01*
X78398D01*
Y-220447D01*
D02*
G37*
G36*
X59398D02*
Y-224067D01*
X63017D01*
X62941Y-223484D01*
X62522Y-222474D01*
X61857Y-221607D01*
X60991Y-220942D01*
X59981Y-220524D01*
X59398Y-220447D01*
D02*
G37*
G36*
X58398D02*
X57815Y-220524D01*
X56805Y-220942D01*
X55938Y-221607D01*
X55273Y-222474D01*
X54855Y-223484D01*
X54778Y-224067D01*
X58398D01*
Y-220447D01*
D02*
G37*
G36*
X201128Y-225067D02*
X197508D01*
Y-228686D01*
X198091Y-228610D01*
X199101Y-228191D01*
X199968Y-227526D01*
X200633Y-226659D01*
X201051Y-225650D01*
X201128Y-225067D01*
D02*
G37*
G36*
X196508D02*
X192888D01*
X192965Y-225650D01*
X193383Y-226659D01*
X194048Y-227526D01*
X194915Y-228191D01*
X195925Y-228610D01*
X196508Y-228686D01*
Y-225067D01*
D02*
G37*
G36*
X181128D02*
X177508D01*
Y-228686D01*
X178091Y-228610D01*
X179101Y-228191D01*
X179967Y-227526D01*
X180633Y-226659D01*
X181051Y-225650D01*
X181128Y-225067D01*
D02*
G37*
G36*
X176508D02*
X172888D01*
X172965Y-225650D01*
X173383Y-226659D01*
X174048Y-227526D01*
X174915Y-228191D01*
X175925Y-228610D01*
X176508Y-228686D01*
Y-225067D01*
D02*
G37*
G36*
X161758D02*
X158138D01*
Y-228686D01*
X158721Y-228610D01*
X159731Y-228191D01*
X160598Y-227526D01*
X161263Y-226659D01*
X161681Y-225650D01*
X161758Y-225067D01*
D02*
G37*
G36*
X157138D02*
X153518D01*
X153595Y-225650D01*
X154013Y-226659D01*
X154678Y-227526D01*
X155545Y-228191D01*
X156555Y-228610D01*
X157138Y-228686D01*
Y-225067D01*
D02*
G37*
G36*
X141758D02*
X138138D01*
Y-228686D01*
X138721Y-228610D01*
X139731Y-228191D01*
X140597Y-227526D01*
X141263Y-226659D01*
X141681Y-225650D01*
X141758Y-225067D01*
D02*
G37*
G36*
X137138D02*
X133518D01*
X133595Y-225650D01*
X134013Y-226659D01*
X134678Y-227526D01*
X135545Y-228191D01*
X136555Y-228610D01*
X137138Y-228686D01*
Y-225067D01*
D02*
G37*
G36*
X122387D02*
X118768D01*
Y-228686D01*
X119351Y-228610D01*
X120361Y-228191D01*
X121227Y-227526D01*
X121892Y-226659D01*
X122311Y-225650D01*
X122387Y-225067D01*
D02*
G37*
G36*
X117768D02*
X114148D01*
X114225Y-225650D01*
X114643Y-226659D01*
X115308Y-227526D01*
X116175Y-228191D01*
X117184Y-228610D01*
X117768Y-228686D01*
Y-225067D01*
D02*
G37*
G36*
X102387D02*
X98768D01*
Y-228686D01*
X99351Y-228610D01*
X100361Y-228191D01*
X101227Y-227526D01*
X101892Y-226659D01*
X102311Y-225650D01*
X102387Y-225067D01*
D02*
G37*
G36*
X97768D02*
X94148D01*
X94225Y-225650D01*
X94643Y-226659D01*
X95308Y-227526D01*
X96175Y-228191D01*
X97184Y-228610D01*
X97768Y-228686D01*
Y-225067D01*
D02*
G37*
G36*
X83017D02*
X79398D01*
Y-228686D01*
X79981Y-228610D01*
X80990Y-228191D01*
X81857Y-227526D01*
X82522Y-226659D01*
X82941Y-225650D01*
X83017Y-225067D01*
D02*
G37*
G36*
X78398D02*
X74778D01*
X74855Y-225650D01*
X75273Y-226659D01*
X75938Y-227526D01*
X76805Y-228191D01*
X77815Y-228610D01*
X78398Y-228686D01*
Y-225067D01*
D02*
G37*
G36*
X63017D02*
X59398D01*
Y-228686D01*
X59981Y-228610D01*
X60991Y-228191D01*
X61857Y-227526D01*
X62522Y-226659D01*
X62941Y-225650D01*
X63017Y-225067D01*
D02*
G37*
G36*
X58398D02*
X54778D01*
X54855Y-225650D01*
X55273Y-226659D01*
X55938Y-227526D01*
X56805Y-228191D01*
X57815Y-228610D01*
X58398Y-228686D01*
Y-225067D01*
D02*
G37*
%LPD*%
D11*
X220472Y-145669D02*
X233231Y-132911D01*
Y-131584D01*
X214715Y-145669D02*
X220472D01*
X200630Y-131584D02*
X214715Y-145669D01*
X200630Y-145083D02*
Y-131584D01*
X200044Y-145669D02*
X200630Y-145083D01*
X182114Y-145669D02*
X200044D01*
X168029Y-131584D02*
X182114Y-145669D01*
X196850Y-93857D02*
Y-76772D01*
Y-93857D02*
X206080Y-103086D01*
Y-120384D02*
Y-103086D01*
X168029Y-131584D02*
X173479Y-126134D01*
Y-120384D01*
X200630Y-131584D02*
X206080Y-126134D01*
Y-120384D01*
X233231Y-131584D02*
Y-125834D01*
X238681Y-120384D01*
X237277Y-138851D02*
X240158Y-141732D01*
X237277Y-138851D02*
Y-135630D01*
X233231Y-131584D02*
X237277Y-135630D01*
X240158Y-141732D02*
X255684D01*
X265832Y-131584D01*
X271282Y-126134D01*
Y-120384D01*
D16*
X19685Y-208661D02*
D03*
Y-27559D02*
D03*
X413386Y-212598D02*
D03*
Y-27559D02*
D03*
D17*
X282149Y-120384D02*
D03*
X271282D02*
D03*
X260415D02*
D03*
X249548D02*
D03*
X238681D02*
D03*
X227814D02*
D03*
X216947D02*
D03*
X206080D02*
D03*
X195213D02*
D03*
X184346D02*
D03*
X173479D02*
D03*
X162612D02*
D03*
X287566Y-131584D02*
D03*
X276699D02*
D03*
X265832D02*
D03*
X254965D02*
D03*
X244098D02*
D03*
X233231D02*
D03*
X222364D02*
D03*
X211497D02*
D03*
X200630D02*
D03*
X189763D02*
D03*
X178896D02*
D03*
X168029D02*
D03*
X157162D02*
D03*
D18*
X129764Y-125984D02*
D03*
X314961D02*
D03*
D19*
X187008Y-214567D02*
D03*
X177008Y-204567D02*
D03*
Y-224567D02*
D03*
X197008D02*
D03*
Y-204567D02*
D03*
X147638Y-214567D02*
D03*
X137638Y-204567D02*
D03*
Y-224567D02*
D03*
X157638D02*
D03*
Y-204567D02*
D03*
X108268Y-214567D02*
D03*
X98268Y-204567D02*
D03*
Y-224567D02*
D03*
X118268D02*
D03*
Y-204567D02*
D03*
X68898Y-214567D02*
D03*
X58898Y-204567D02*
D03*
Y-224567D02*
D03*
X78898D02*
D03*
Y-204567D02*
D03*
X157795Y-165354D02*
D03*
Y-185354D02*
D03*
X137795D02*
D03*
Y-165354D02*
D03*
X147795Y-175354D02*
D03*
X118425Y-165354D02*
D03*
Y-185354D02*
D03*
X98425D02*
D03*
Y-165354D02*
D03*
X108425Y-175354D02*
D03*
X79055Y-165354D02*
D03*
Y-185354D02*
D03*
X59055D02*
D03*
Y-165354D02*
D03*
X69055Y-175354D02*
D03*
X39685Y-165354D02*
D03*
Y-185354D02*
D03*
X19685D02*
D03*
Y-165354D02*
D03*
X29685Y-175354D02*
D03*
X206850Y-66772D02*
D03*
Y-86772D02*
D03*
X186850D02*
D03*
Y-66772D02*
D03*
X196850Y-76772D02*
D03*
X246221Y-66772D02*
D03*
Y-86772D02*
D03*
X226221D02*
D03*
Y-66772D02*
D03*
X236221Y-76772D02*
D03*
M02*
