G04*
G04 #@! TF.GenerationSoftware,Altium Limited,Altium Designer,19.1.5 (86)*
G04*
G04 Layer_Physical_Order=1*
G04 Layer_Color=255*
%FSLAX25Y25*%
%MOIN*%
G70*
G01*
G75*
%ADD10C,0.00787*%
%ADD11C,0.01000*%
%ADD16C,0.17717*%
%ADD17C,0.07087*%
%ADD18C,0.21654*%
%ADD19C,0.06299*%
D10*
X-0Y-0D02*
X433071D01*
X-0Y-236220D02*
Y-0D01*
Y-236220D02*
X433071D01*
Y-55118D02*
Y-0D01*
Y-236220D02*
Y-173228D01*
Y-55118D01*
D11*
X249142Y-128811D02*
X256404Y-121549D01*
X259251D01*
X260415Y-120384D01*
X249142Y-133673D02*
Y-128811D01*
X214658Y-168157D02*
X249142Y-133673D01*
X240676Y-125522D02*
X244649Y-121549D01*
X232161Y-125522D02*
X240676D01*
X206842Y-168157D02*
X214658D01*
X172358Y-202641D02*
X206842Y-168157D01*
X172358Y-205594D02*
Y-202641D01*
X161831Y-216121D02*
X172358Y-205594D01*
X161003Y-216121D02*
X161831D01*
X159449Y-214567D02*
X161003Y-216121D01*
X227408Y-130276D02*
X232161Y-125522D01*
X227408Y-134797D02*
Y-130276D01*
X177165Y-185039D02*
X227408Y-134797D01*
X216541Y-130276D02*
X226432Y-120384D01*
X216541Y-137790D02*
Y-130276D01*
X147638Y-214567D02*
X159449D01*
X244649Y-121549D02*
X248384D01*
X249548Y-120384D01*
X177165Y-191615D02*
Y-185039D01*
X158863Y-209917D02*
X177165Y-191615D01*
X145712Y-209917D02*
X158863D01*
X141062Y-214567D02*
X145712Y-209917D01*
X108268Y-214567D02*
X141062D01*
X161417Y-192913D02*
X216541Y-137790D01*
X226432Y-120384D02*
X227814D01*
X78740Y-192913D02*
X161417D01*
X205674Y-128972D02*
X213097Y-121549D01*
X205674Y-133673D02*
Y-128972D01*
X163993Y-175354D02*
X205674Y-133673D01*
X213097Y-121549D02*
X215782D01*
X147795Y-175354D02*
X163993D01*
X215782Y-121549D02*
X216947Y-120384D01*
X74248Y-197405D02*
X78740Y-192913D01*
X74248Y-209216D02*
Y-197405D01*
X68898Y-214567D02*
X74248Y-209216D01*
X186435Y-125427D02*
X190314Y-121549D01*
X177921Y-125427D02*
X186435D01*
X173073Y-130276D02*
X177921Y-125427D01*
X173073Y-133673D02*
Y-130276D01*
X152739Y-154007D02*
X173073Y-133673D01*
X190314Y-121549D02*
X194049D01*
X195213Y-120384D01*
X142567Y-154007D02*
X152739D01*
X121220Y-175354D02*
X142567Y-154007D01*
X108425Y-175354D02*
X121220D01*
X164701Y-125427D02*
X168436Y-121693D01*
X156502Y-125427D02*
X164701D01*
X155720Y-124646D02*
X156502Y-125427D01*
X147521Y-124646D02*
X155720D01*
X172814Y-110650D02*
X174612D01*
X184346Y-120384D01*
X168436Y-115029D02*
X172814Y-110650D01*
X168436Y-121693D02*
Y-115029D01*
X146935Y-125232D02*
X147521Y-124646D01*
X146935Y-126246D02*
Y-125232D01*
X131448Y-141732D02*
X146935Y-126246D01*
X96102Y-141732D02*
X131448D01*
X69055Y-168779D02*
X96102Y-141732D01*
X69055Y-175354D02*
Y-168779D01*
X29685Y-159877D02*
X32082Y-157480D01*
X29685Y-175354D02*
Y-159877D01*
X32082Y-157480D02*
X70866D01*
X114689Y-113657D01*
X139448D01*
X146175Y-120384D01*
X162612D01*
X282149D02*
X289676D01*
X298798Y-129507D01*
Y-153957D02*
Y-129507D01*
X238189Y-214567D02*
X298798Y-153957D01*
X187008Y-214567D02*
X238189D01*
X4937Y-119538D02*
Y-113540D01*
X8936Y-119538D01*
Y-113540D01*
X10935D02*
X12934D01*
X11935D01*
Y-119538D01*
X10935D01*
X12934D01*
X21932Y-118538D02*
X22931Y-119538D01*
X24930D01*
X25930Y-118538D01*
Y-114539D01*
X24930Y-113540D01*
X22931D01*
X21932Y-114539D01*
Y-115539D01*
X22931Y-116539D01*
X25930D01*
X30929Y-119538D02*
Y-113540D01*
X27930Y-116539D01*
X31928D01*
X33928Y-114539D02*
X34927Y-113540D01*
X36927D01*
X37926Y-114539D01*
Y-118538D01*
X36927Y-119538D01*
X34927D01*
X33928Y-118538D01*
Y-114539D01*
X39926Y-119538D02*
X41925D01*
X40925D01*
Y-113540D01*
X39926Y-114539D01*
X4937Y-129135D02*
Y-125137D01*
X6936Y-123137D01*
X8936Y-125137D01*
Y-129135D01*
Y-126136D01*
X4937D01*
X10935Y-129135D02*
X12934D01*
X11935D01*
Y-123137D01*
X10935D01*
X15933Y-129135D02*
X17933D01*
X16933D01*
Y-125137D01*
X15933D01*
X24930Y-123137D02*
X20932D01*
Y-126136D01*
X22931D01*
X20932D01*
Y-129135D01*
X29929D02*
X27930D01*
X26930Y-128136D01*
Y-126136D01*
X27930Y-125137D01*
X29929D01*
X30929Y-126136D01*
Y-127136D01*
X26930D01*
X32928Y-129135D02*
X34927D01*
X33928D01*
Y-123137D01*
X32928D01*
X40925Y-129135D02*
X38926D01*
X37926Y-128136D01*
Y-126136D01*
X38926Y-125137D01*
X40925D01*
X41925Y-126136D01*
Y-127136D01*
X37926D01*
X43924Y-129135D02*
Y-123137D01*
X46923D01*
X47923Y-124137D01*
Y-126136D01*
X46923Y-127136D01*
X43924D01*
X50922Y-125137D02*
X52921D01*
X53921Y-126136D01*
Y-129135D01*
X50922D01*
X49922Y-128136D01*
X50922Y-127136D01*
X53921D01*
X55920Y-125137D02*
Y-129135D01*
Y-127136D01*
X56920Y-126136D01*
X57920Y-125137D01*
X58920D01*
X62918D02*
X64918D01*
X65917Y-126136D01*
Y-129135D01*
X62918D01*
X61919Y-128136D01*
X62918Y-127136D01*
X65917D01*
X67917Y-129135D02*
Y-125137D01*
X70916D01*
X71915Y-126136D01*
Y-129135D01*
X73915Y-131135D02*
X74914D01*
X75914Y-130135D01*
Y-125137D01*
X4937Y-140732D02*
X6936D01*
X5937D01*
Y-134734D01*
X4937Y-135734D01*
X9935Y-140732D02*
X11935D01*
X10935D01*
Y-134734D01*
X9935Y-135734D01*
X14934D02*
X15933Y-134734D01*
X17933D01*
X18933Y-135734D01*
Y-139733D01*
X17933Y-140732D01*
X15933D01*
X14934Y-139733D01*
Y-135734D01*
X20932D02*
X21932Y-134734D01*
X23931D01*
X24930Y-135734D01*
Y-136734D01*
X23931Y-137733D01*
X24930Y-138733D01*
Y-139733D01*
X23931Y-140732D01*
X21932D01*
X20932Y-139733D01*
Y-138733D01*
X21932Y-137733D01*
X20932Y-136734D01*
Y-135734D01*
X21932Y-137733D02*
X23931D01*
X30929Y-140732D02*
X26930D01*
X30929Y-136734D01*
Y-135734D01*
X29929Y-134734D01*
X27930D01*
X26930Y-135734D01*
X32928D02*
X33928Y-134734D01*
X35927D01*
X36927Y-135734D01*
Y-139733D01*
X35927Y-140732D01*
X33928D01*
X32928Y-139733D01*
Y-135734D01*
X38926Y-140732D02*
X40925D01*
X39926D01*
Y-134734D01*
X38926Y-135734D01*
X43924Y-139733D02*
X44924Y-140732D01*
X46923D01*
X47923Y-139733D01*
Y-135734D01*
X46923Y-134734D01*
X44924D01*
X43924Y-135734D01*
Y-136734D01*
X44924Y-137733D01*
X47923D01*
D16*
X19685Y-208661D02*
D03*
Y-27559D02*
D03*
X413386Y-212598D02*
D03*
Y-27559D02*
D03*
D17*
X282149Y-120384D02*
D03*
X271282D02*
D03*
X260415D02*
D03*
X249548D02*
D03*
X238681D02*
D03*
X227814D02*
D03*
X216947D02*
D03*
X206080D02*
D03*
X195213D02*
D03*
X184346D02*
D03*
X173479D02*
D03*
X162612D02*
D03*
X287566Y-131584D02*
D03*
X276699D02*
D03*
X265832D02*
D03*
X254965D02*
D03*
X244098D02*
D03*
X233231D02*
D03*
X222364D02*
D03*
X211497D02*
D03*
X200630D02*
D03*
X189763D02*
D03*
X178896D02*
D03*
X168029D02*
D03*
X157162D02*
D03*
D18*
X129764Y-125984D02*
D03*
X314961D02*
D03*
D19*
X187008Y-214567D02*
D03*
X177008Y-204567D02*
D03*
Y-224567D02*
D03*
X197008D02*
D03*
Y-204567D02*
D03*
X147638Y-214567D02*
D03*
X137638Y-204567D02*
D03*
Y-224567D02*
D03*
X157638D02*
D03*
Y-204567D02*
D03*
X108268Y-214567D02*
D03*
X98268Y-204567D02*
D03*
Y-224567D02*
D03*
X118268D02*
D03*
Y-204567D02*
D03*
X68898Y-214567D02*
D03*
X58898Y-204567D02*
D03*
Y-224567D02*
D03*
X78898D02*
D03*
Y-204567D02*
D03*
X157795Y-165354D02*
D03*
Y-185354D02*
D03*
X137795D02*
D03*
Y-165354D02*
D03*
X147795Y-175354D02*
D03*
X118425Y-165354D02*
D03*
Y-185354D02*
D03*
X98425D02*
D03*
Y-165354D02*
D03*
X108425Y-175354D02*
D03*
X79055Y-165354D02*
D03*
Y-185354D02*
D03*
X59055D02*
D03*
Y-165354D02*
D03*
X69055Y-175354D02*
D03*
X39685Y-165354D02*
D03*
Y-185354D02*
D03*
X19685D02*
D03*
Y-165354D02*
D03*
X29685Y-175354D02*
D03*
X206850Y-66772D02*
D03*
Y-86772D02*
D03*
X186850D02*
D03*
Y-66772D02*
D03*
X196850Y-76772D02*
D03*
X246221Y-66772D02*
D03*
Y-86772D02*
D03*
X226221D02*
D03*
Y-66772D02*
D03*
X236221Y-76772D02*
D03*
M02*
