G04*
G04 #@! TF.GenerationSoftware,Altium Limited,Altium Designer,19.1.5 (86)*
G04*
G04 Layer_Color=128*
%FSLAX25Y25*%
%MOIN*%
G70*
G01*
G75*
%ADD20C,0.00200*%
D20*
X-419291Y-27559D02*
X-407480D01*
X-413386Y-33465D02*
Y-21654D01*
X-419291Y-212598D02*
X-407480D01*
X-413386Y-218504D02*
Y-206693D01*
X-25591Y-27559D02*
X-13780D01*
X-19685Y-33465D02*
Y-21654D01*
X-237835Y-204567D02*
X-234291D01*
X-236063Y-206339D02*
Y-202795D01*
X-237835Y-224567D02*
X-234291D01*
X-236063Y-226339D02*
Y-222795D01*
X-257835Y-224567D02*
X-254291D01*
X-256063Y-226339D02*
Y-222795D01*
X-257835Y-204567D02*
X-254291D01*
X-256063Y-206339D02*
Y-202795D01*
X-247834Y-214567D02*
X-244291D01*
X-246063Y-216338D02*
Y-212795D01*
X-25591Y-212598D02*
X-13780D01*
X-19685Y-218504D02*
Y-206693D01*
X-110197Y-175354D02*
X-106654D01*
X-108425Y-177126D02*
Y-173582D01*
X-120197Y-165354D02*
X-116654D01*
X-118425Y-167126D02*
Y-163583D01*
X-120197Y-185354D02*
X-116654D01*
X-118425Y-187126D02*
Y-183582D01*
X-100197Y-185354D02*
X-96654D01*
X-98425Y-187126D02*
Y-183582D01*
X-100197Y-165354D02*
X-96654D01*
X-98425Y-167126D02*
Y-163583D01*
X-70197Y-27716D02*
X-66653D01*
X-68425Y-29488D02*
Y-25945D01*
X-80197Y-17716D02*
X-76653D01*
X-78425Y-19488D02*
Y-15945D01*
X-80197Y-37716D02*
X-76653D01*
X-78425Y-39488D02*
Y-35945D01*
X-60197Y-37716D02*
X-56653D01*
X-58425Y-39488D02*
Y-35945D01*
X-60197Y-17716D02*
X-56653D01*
X-58425Y-19488D02*
Y-15945D01*
X-70669Y-214567D02*
X-67126D01*
X-68898Y-216338D02*
Y-212795D01*
X-80669Y-204567D02*
X-77126D01*
X-78898Y-206339D02*
Y-202795D01*
X-80669Y-224567D02*
X-77126D01*
X-78898Y-226339D02*
Y-222795D01*
X-60669Y-224567D02*
X-57126D01*
X-58898Y-226339D02*
Y-222795D01*
X-60669Y-204567D02*
X-57126D01*
X-58898Y-206339D02*
Y-202795D01*
X-110039Y-214567D02*
X-106496D01*
X-108268Y-216338D02*
Y-212795D01*
X-120039Y-204567D02*
X-116496D01*
X-118268Y-206339D02*
Y-202795D01*
X-120039Y-224567D02*
X-116496D01*
X-118268Y-226339D02*
Y-222795D01*
X-100039Y-224567D02*
X-96496D01*
X-98268Y-226339D02*
Y-222795D01*
X-100039Y-204567D02*
X-96496D01*
X-98268Y-206339D02*
Y-202795D01*
X-149409Y-214567D02*
X-145866D01*
X-147638Y-216338D02*
Y-212795D01*
X-159409Y-204567D02*
X-155866D01*
X-157638Y-206339D02*
Y-202795D01*
X-159409Y-224567D02*
X-155866D01*
X-157638Y-226339D02*
Y-222795D01*
X-139409Y-224567D02*
X-135866D01*
X-137638Y-226339D02*
Y-222795D01*
X-139409Y-204567D02*
X-135866D01*
X-137638Y-206339D02*
Y-202795D01*
X-188779Y-214567D02*
X-185236D01*
X-187008Y-216338D02*
Y-212795D01*
X-198779Y-204567D02*
X-195236D01*
X-197008Y-206339D02*
Y-202795D01*
X-198779Y-224567D02*
X-195236D01*
X-197008Y-226339D02*
Y-222795D01*
X-178779Y-224567D02*
X-175236D01*
X-177008Y-226339D02*
Y-222795D01*
X-178779Y-204567D02*
X-175236D01*
X-177008Y-206339D02*
Y-202795D01*
X-287205Y-214567D02*
X-283661D01*
X-285433Y-216338D02*
Y-212795D01*
X-297204Y-204567D02*
X-293661D01*
X-295433Y-206339D02*
Y-202795D01*
X-297204Y-224567D02*
X-293661D01*
X-295433Y-226339D02*
Y-222795D01*
X-277204Y-224567D02*
X-273661D01*
X-275433Y-226339D02*
Y-222795D01*
X-277204Y-204567D02*
X-273661D01*
X-275433Y-206339D02*
Y-202795D01*
X-326575Y-214567D02*
X-323031D01*
X-324803Y-216338D02*
Y-212795D01*
X-336575Y-204567D02*
X-333031D01*
X-334803Y-206339D02*
Y-202795D01*
X-336575Y-224567D02*
X-333031D01*
X-334803Y-226339D02*
Y-222795D01*
X-316575Y-224567D02*
X-313031D01*
X-314803Y-226339D02*
Y-222795D01*
X-316575Y-204567D02*
X-313031D01*
X-314803Y-206339D02*
Y-202795D01*
X-365945Y-214567D02*
X-362401D01*
X-364173Y-216338D02*
Y-212795D01*
X-375945Y-204567D02*
X-372401D01*
X-374173Y-206339D02*
Y-202795D01*
X-375945Y-224567D02*
X-372401D01*
X-374173Y-226339D02*
Y-222795D01*
X-355945Y-224567D02*
X-352401D01*
X-354173Y-226339D02*
Y-222795D01*
X-355945Y-204567D02*
X-352401D01*
X-354173Y-206339D02*
Y-202795D01*
X-247834Y-27559D02*
X-244291D01*
X-246063Y-29331D02*
Y-25787D01*
X-257835Y-17559D02*
X-254291D01*
X-256063Y-19331D02*
Y-15787D01*
X-257835Y-37559D02*
X-254291D01*
X-256063Y-39331D02*
Y-35787D01*
X-237835Y-37559D02*
X-234291D01*
X-236063Y-39331D02*
Y-35787D01*
X-237835Y-17559D02*
X-234291D01*
X-236063Y-19331D02*
Y-15787D01*
X-287205Y-27559D02*
X-283661D01*
X-285433Y-29331D02*
Y-25787D01*
X-297204Y-17559D02*
X-293661D01*
X-295433Y-19331D02*
Y-15787D01*
X-297204Y-37559D02*
X-293661D01*
X-295433Y-39331D02*
Y-35787D01*
X-277204Y-37559D02*
X-273661D01*
X-275433Y-39331D02*
Y-35787D01*
X-277204Y-17559D02*
X-273661D01*
X-275433Y-19331D02*
Y-15787D01*
X-151824Y-120384D02*
X-147494D01*
X-149659Y-122549D02*
Y-118219D01*
X-162691Y-120384D02*
X-158361D01*
X-160526Y-122549D02*
Y-118219D01*
X-173558Y-120384D02*
X-169228D01*
X-171393Y-122549D02*
Y-118219D01*
X-184425Y-120384D02*
X-180095D01*
X-182260Y-122549D02*
Y-118219D01*
X-195292Y-120384D02*
X-190962D01*
X-193127Y-122549D02*
Y-118219D01*
X-206159Y-120384D02*
X-201829D01*
X-203994Y-122549D02*
Y-118219D01*
X-217026Y-120384D02*
X-212696D01*
X-214861Y-122549D02*
Y-118219D01*
X-227893Y-120384D02*
X-223563D01*
X-225728Y-122549D02*
Y-118219D01*
X-238760Y-120384D02*
X-234430D01*
X-236595Y-122549D02*
Y-118219D01*
X-249627Y-120384D02*
X-245297D01*
X-247462Y-122549D02*
Y-118219D01*
X-260494Y-120384D02*
X-256164D01*
X-258329Y-122549D02*
Y-118219D01*
X-271361Y-120384D02*
X-267031D01*
X-269196Y-122549D02*
Y-118219D01*
X-146407Y-131584D02*
X-142077D01*
X-144242Y-133749D02*
Y-129419D01*
X-157274Y-131584D02*
X-152944D01*
X-155109Y-133749D02*
Y-129419D01*
X-168141Y-131584D02*
X-163811D01*
X-165976Y-133749D02*
Y-129419D01*
X-179008Y-131584D02*
X-174678D01*
X-176843Y-133749D02*
Y-129419D01*
X-189875Y-131584D02*
X-185545D01*
X-187710Y-133749D02*
Y-129419D01*
X-200742Y-131584D02*
X-196412D01*
X-198577Y-133749D02*
Y-129419D01*
X-211609Y-131584D02*
X-207279D01*
X-209444Y-133749D02*
Y-129419D01*
X-222476Y-131584D02*
X-218146D01*
X-220311Y-133749D02*
Y-129419D01*
X-233343Y-131584D02*
X-229013D01*
X-231178Y-133749D02*
Y-129419D01*
X-244210Y-131584D02*
X-239880D01*
X-242045Y-133749D02*
Y-129419D01*
X-255077Y-131584D02*
X-250747D01*
X-252912Y-133749D02*
Y-129419D01*
X-265944Y-131584D02*
X-261614D01*
X-263779Y-133749D02*
Y-129419D01*
X-276811Y-131584D02*
X-272481D01*
X-274646Y-133749D02*
Y-129419D01*
X-340945Y-125984D02*
X-328346D01*
X-334646Y-132283D02*
Y-119685D01*
X-90546Y-125984D02*
X-77947D01*
X-84247Y-132283D02*
Y-119685D01*
X-135540Y-131584D02*
X-131210D01*
X-133375Y-133749D02*
Y-129419D01*
X-124673Y-131584D02*
X-120343D01*
X-122508Y-133749D02*
Y-129419D01*
X-113806Y-131584D02*
X-109476D01*
X-111641Y-133749D02*
Y-129419D01*
X-140957Y-120384D02*
X-136627D01*
X-138792Y-122549D02*
Y-118219D01*
X-130090Y-120384D02*
X-125760D01*
X-127925Y-122549D02*
Y-118219D01*
X-119223Y-120384D02*
X-114893D01*
X-117058Y-122549D02*
Y-118219D01*
X-309412Y-131584D02*
X-305082D01*
X-307247Y-133749D02*
Y-129419D01*
X-298545Y-131584D02*
X-294215D01*
X-296380Y-133749D02*
Y-129419D01*
X-287678Y-131584D02*
X-283348D01*
X-285513Y-133749D02*
Y-129419D01*
X-303962Y-120384D02*
X-299632D01*
X-301797Y-122549D02*
Y-118219D01*
X-293095Y-120384D02*
X-288765D01*
X-290930Y-122549D02*
Y-118219D01*
X-282228Y-120384D02*
X-277898D01*
X-280063Y-122549D02*
Y-118219D01*
X-277047Y-165354D02*
X-273504D01*
X-275276Y-167126D02*
Y-163583D01*
X-277047Y-185354D02*
X-273504D01*
X-275276Y-187126D02*
Y-183582D01*
X-297047Y-185354D02*
X-293504D01*
X-295276Y-187126D02*
Y-183582D01*
X-297047Y-165354D02*
X-293504D01*
X-295276Y-167126D02*
Y-163583D01*
X-287047Y-175354D02*
X-283504D01*
X-285276Y-177126D02*
Y-173582D01*
X-316417Y-165354D02*
X-312874D01*
X-314646Y-167126D02*
Y-163583D01*
X-316417Y-185354D02*
X-312874D01*
X-314646Y-187126D02*
Y-183582D01*
X-336417Y-185354D02*
X-332874D01*
X-334646Y-187126D02*
Y-183582D01*
X-336417Y-165354D02*
X-332874D01*
X-334646Y-167126D02*
Y-163583D01*
X-326417Y-175354D02*
X-322874D01*
X-324646Y-177126D02*
Y-173582D01*
X-355787Y-165354D02*
X-352244D01*
X-354016Y-167126D02*
Y-163583D01*
X-355787Y-185354D02*
X-352244D01*
X-354016Y-187126D02*
Y-183582D01*
X-375787Y-185354D02*
X-372244D01*
X-374016Y-187126D02*
Y-183582D01*
X-375787Y-165354D02*
X-372244D01*
X-374016Y-167126D02*
Y-163583D01*
X-365787Y-175354D02*
X-362244D01*
X-364016Y-177126D02*
Y-173582D01*
X-395158Y-165354D02*
X-391614D01*
X-393386Y-167126D02*
Y-163583D01*
X-395158Y-185354D02*
X-391614D01*
X-393386Y-187126D02*
Y-183582D01*
X-415158Y-185354D02*
X-411614D01*
X-413386Y-187126D02*
Y-183582D01*
X-415158Y-165354D02*
X-411614D01*
X-413386Y-167126D02*
Y-163583D01*
X-405158Y-175354D02*
X-401614D01*
X-403386Y-177126D02*
Y-173582D01*
X-273583Y-66772D02*
X-270039D01*
X-271811Y-68543D02*
Y-65000D01*
X-273583Y-86772D02*
X-270039D01*
X-271811Y-88543D02*
Y-85000D01*
X-293583Y-86772D02*
X-290039D01*
X-291811Y-88543D02*
Y-85000D01*
X-293583Y-66772D02*
X-290039D01*
X-291811Y-68543D02*
Y-65000D01*
X-283583Y-76772D02*
X-280039D01*
X-281811Y-78543D02*
Y-75000D01*
X-312953Y-66772D02*
X-309409D01*
X-311181Y-68543D02*
Y-65000D01*
X-312953Y-86772D02*
X-309409D01*
X-311181Y-88543D02*
Y-85000D01*
X-332953Y-86772D02*
X-329409D01*
X-331181Y-88543D02*
Y-85000D01*
X-332953Y-66772D02*
X-329409D01*
X-331181Y-68543D02*
Y-65000D01*
X-322953Y-76772D02*
X-319409D01*
X-321181Y-78543D02*
Y-75000D01*
X-352323Y-66772D02*
X-348780D01*
X-350551Y-68543D02*
Y-65000D01*
X-352323Y-86772D02*
X-348780D01*
X-350551Y-88543D02*
Y-85000D01*
X-372323Y-86772D02*
X-368780D01*
X-370551Y-88543D02*
Y-85000D01*
X-372323Y-66772D02*
X-368780D01*
X-370551Y-68543D02*
Y-65000D01*
X-362323Y-76772D02*
X-358780D01*
X-360551Y-78543D02*
Y-75000D01*
X-391378Y-66772D02*
X-387835D01*
X-389606Y-68543D02*
Y-65000D01*
X-391378Y-86772D02*
X-387835D01*
X-389606Y-88543D02*
Y-85000D01*
X-411378Y-86772D02*
X-407835D01*
X-409606Y-88543D02*
Y-85000D01*
X-411378Y-66772D02*
X-407835D01*
X-409606Y-68543D02*
Y-65000D01*
X-401378Y-76772D02*
X-397835D01*
X-399606Y-78543D02*
Y-75000D01*
X-316575Y-17559D02*
X-313031D01*
X-314803Y-19331D02*
Y-15787D01*
X-316575Y-37559D02*
X-313031D01*
X-314803Y-39331D02*
Y-35787D01*
X-336575Y-37559D02*
X-333031D01*
X-334803Y-39331D02*
Y-35787D01*
X-336575Y-17559D02*
X-333031D01*
X-334803Y-19331D02*
Y-15787D01*
X-326574Y-27559D02*
X-323031D01*
X-324803Y-29331D02*
Y-25787D01*
X-355945Y-17559D02*
X-352401D01*
X-354173Y-19331D02*
Y-15787D01*
X-355945Y-37559D02*
X-352401D01*
X-354173Y-39331D02*
Y-35787D01*
X-375945Y-37559D02*
X-372401D01*
X-374173Y-39331D02*
Y-35787D01*
X-375945Y-17559D02*
X-372401D01*
X-374173Y-19331D02*
Y-15787D01*
X-365945Y-27559D02*
X-362401D01*
X-364173Y-29331D02*
Y-25787D01*
X-21457Y-165354D02*
X-17913D01*
X-19685Y-167126D02*
Y-163583D01*
X-21457Y-185354D02*
X-17913D01*
X-19685Y-187126D02*
Y-183582D01*
X-41457Y-185354D02*
X-37913D01*
X-39685Y-187126D02*
Y-183582D01*
X-41457Y-165354D02*
X-37913D01*
X-39685Y-167126D02*
Y-163583D01*
X-31457Y-175354D02*
X-27913D01*
X-29685Y-177126D02*
Y-173582D01*
X-60827Y-165354D02*
X-57284D01*
X-59055Y-167126D02*
Y-163583D01*
X-60827Y-185354D02*
X-57284D01*
X-59055Y-187126D02*
Y-183582D01*
X-80827Y-185354D02*
X-77284D01*
X-79055Y-187126D02*
Y-183582D01*
X-80827Y-165354D02*
X-77284D01*
X-79055Y-167126D02*
Y-163583D01*
X-70827Y-175354D02*
X-67284D01*
X-69055Y-177126D02*
Y-173582D01*
X-139567Y-165354D02*
X-136024D01*
X-137795Y-167126D02*
Y-163583D01*
X-139567Y-185354D02*
X-136024D01*
X-137795Y-187126D02*
Y-183582D01*
X-159567Y-185354D02*
X-156024D01*
X-157796Y-187126D02*
Y-183582D01*
X-159567Y-165354D02*
X-156024D01*
X-157796Y-167126D02*
Y-163583D01*
X-149567Y-175354D02*
X-146024D01*
X-147795Y-177126D02*
Y-173582D01*
X-99567Y-18031D02*
X-96023D01*
X-97795Y-19803D02*
Y-16260D01*
X-99567Y-38031D02*
X-96023D01*
X-97795Y-39803D02*
Y-36260D01*
X-119567Y-38031D02*
X-116023D01*
X-117795Y-39803D02*
Y-36260D01*
X-119567Y-18031D02*
X-116023D01*
X-117795Y-19803D02*
Y-16260D01*
X-109567Y-28031D02*
X-106023D01*
X-107795Y-29803D02*
Y-26260D01*
X-139252Y-18031D02*
X-135709D01*
X-137480Y-19803D02*
Y-16260D01*
X-139252Y-38031D02*
X-135709D01*
X-137480Y-39803D02*
Y-36260D01*
X-159252Y-38031D02*
X-155709D01*
X-157480Y-39803D02*
Y-36260D01*
X-159252Y-18031D02*
X-155709D01*
X-157480Y-19803D02*
Y-16260D01*
X-149252Y-28031D02*
X-145709D01*
X-147480Y-29803D02*
Y-26260D01*
X-178622Y-17716D02*
X-175079D01*
X-176850Y-19488D02*
Y-15945D01*
X-178622Y-37716D02*
X-175079D01*
X-176850Y-39488D02*
Y-35945D01*
X-198622Y-37716D02*
X-195079D01*
X-196850Y-39488D02*
Y-35945D01*
X-198622Y-17716D02*
X-195079D01*
X-196850Y-19488D02*
Y-15945D01*
X-188622Y-27716D02*
X-185079D01*
X-186850Y-29488D02*
Y-25945D01*
X-21457Y-66929D02*
X-17913D01*
X-19685Y-68701D02*
Y-65157D01*
X-21457Y-86929D02*
X-17913D01*
X-19685Y-88701D02*
Y-85157D01*
X-41457Y-86929D02*
X-37913D01*
X-39685Y-88701D02*
Y-85157D01*
X-41457Y-66929D02*
X-37913D01*
X-39685Y-68701D02*
Y-65157D01*
X-31457Y-76929D02*
X-27913D01*
X-29685Y-78701D02*
Y-75157D01*
X-60827Y-66929D02*
X-57284D01*
X-59055Y-68701D02*
Y-65157D01*
X-60827Y-86929D02*
X-57284D01*
X-59055Y-88701D02*
Y-85157D01*
X-80827Y-86929D02*
X-77284D01*
X-79055Y-88701D02*
Y-85157D01*
X-80827Y-66929D02*
X-77284D01*
X-79055Y-68701D02*
Y-65157D01*
X-70827Y-76929D02*
X-67284D01*
X-69055Y-78701D02*
Y-75157D01*
X-100197Y-66929D02*
X-96654D01*
X-98425Y-68701D02*
Y-65157D01*
X-100197Y-86929D02*
X-96654D01*
X-98425Y-88701D02*
Y-85157D01*
X-120197Y-86929D02*
X-116654D01*
X-118425Y-88701D02*
Y-85157D01*
X-120197Y-66929D02*
X-116654D01*
X-118425Y-68701D02*
Y-65157D01*
X-110197Y-76929D02*
X-106654D01*
X-108425Y-78701D02*
Y-75157D01*
X-139567Y-66929D02*
X-136024D01*
X-137795Y-68701D02*
Y-65157D01*
X-139567Y-86929D02*
X-136024D01*
X-137795Y-88701D02*
Y-85157D01*
X-159567Y-86929D02*
X-156024D01*
X-157796Y-88701D02*
Y-85157D01*
X-159567Y-66929D02*
X-156024D01*
X-157796Y-68701D02*
Y-65157D01*
X-149567Y-76929D02*
X-146024D01*
X-147795Y-78701D02*
Y-75157D01*
X-227992Y-66772D02*
X-224449D01*
X-226220Y-68543D02*
Y-65000D01*
X-227992Y-86772D02*
X-224449D01*
X-226220Y-88543D02*
Y-85000D01*
X-247992Y-86772D02*
X-244449D01*
X-246220Y-88543D02*
Y-85000D01*
X-247992Y-66772D02*
X-244449D01*
X-246220Y-68543D02*
Y-65000D01*
X-237992Y-76772D02*
X-234449D01*
X-236221Y-78543D02*
Y-75000D01*
X-188622Y-66772D02*
X-185079D01*
X-186850Y-68543D02*
Y-65000D01*
X-188622Y-86772D02*
X-185079D01*
X-186850Y-88543D02*
Y-85000D01*
X-208622Y-86772D02*
X-205079D01*
X-206850Y-88543D02*
Y-85000D01*
X-208622Y-66772D02*
X-205079D01*
X-206850Y-68543D02*
Y-65000D01*
X-198622Y-76772D02*
X-195079D01*
X-196850Y-78543D02*
Y-75000D01*
M02*
