G04*
G04 #@! TF.GenerationSoftware,Altium Limited,Altium Designer,19.1.5 (86)*
G04*
G04 Layer_Color=65535*
%FSLAX25Y25*%
%MOIN*%
G70*
G01*
G75*
%ADD10C,0.00787*%
%ADD11C,0.01000*%
D10*
X-104053Y-115470D02*
G03*
X-110651Y-109934I-6598J-1164D01*
G01*
X-107351Y-142034D02*
G03*
X-100753Y-134170I0J6700D01*
G01*
X-318140D02*
G03*
X-311542Y-142034I6598J-1164D01*
G01*
X-308242Y-109934D02*
G03*
X-314840Y-115470I0J-6700D01*
G01*
X-103068Y-115296D02*
G03*
X-110651Y-108934I-7583J-1338D01*
G01*
X-107351Y-143034D02*
G03*
X-99768Y-133996I0J7700D01*
G01*
X-319124D02*
G03*
X-311542Y-143034I7583J-1338D01*
G01*
X-308242Y-108934D02*
G03*
X-315824Y-115296I0J-7700D01*
G01*
X-75995Y-150784D02*
G03*
X-72495Y-147284I0J3500D01*
G01*
Y-104684D02*
G03*
X-75995Y-101184I-3500J-0D01*
G01*
X-342897Y-101184D02*
G03*
X-346397Y-104684I0J-3500D01*
G01*
X-346397Y-147284D02*
G03*
X-342897Y-150784I3500J0D01*
G01*
X-259449Y-199567D02*
X-232677D01*
Y-229567D02*
X-231063Y-227953D01*
X-261063D02*
Y-201181D01*
Y-227953D02*
X-259449Y-229567D01*
X-232677Y-199567D02*
X-231063Y-201181D01*
X-261063D02*
X-259449Y-199567D01*
Y-229567D02*
X-232677D01*
X-231063Y-227953D02*
Y-201181D01*
X-93425Y-188740D02*
Y-161968D01*
X-121811Y-190354D02*
X-95039D01*
X-123425Y-161968D02*
X-121811Y-160354D01*
X-95039D02*
X-93425Y-161968D01*
X-123425Y-188740D02*
X-121811Y-190354D01*
X-123425Y-188740D02*
Y-161968D01*
X-95039Y-190354D02*
X-93425Y-188740D01*
X-121811Y-160354D02*
X-95039D01*
X-53425Y-41102D02*
Y-14331D01*
X-81811Y-42716D02*
X-55039D01*
X-83425Y-14331D02*
X-81811Y-12716D01*
X-55039D02*
X-53425Y-14331D01*
X-83425Y-41102D02*
X-81811Y-42716D01*
X-83425Y-41102D02*
Y-14331D01*
X-55039Y-42716D02*
X-53425Y-41102D01*
X-81811Y-12716D02*
X-55039D01*
X-53898Y-227953D02*
Y-201181D01*
X-82284Y-229567D02*
X-55512D01*
X-83898Y-201181D02*
X-82284Y-199567D01*
X-55512D02*
X-53898Y-201181D01*
X-83898Y-227953D02*
X-82284Y-229567D01*
X-83898Y-227953D02*
Y-201181D01*
X-55512Y-229567D02*
X-53898Y-227953D01*
X-82284Y-199567D02*
X-55512D01*
X-93268Y-227953D02*
Y-201181D01*
X-121653Y-229567D02*
X-94882D01*
X-123268Y-201181D02*
X-121653Y-199567D01*
X-94882D02*
X-93268Y-201181D01*
X-123268Y-227953D02*
X-121653Y-229567D01*
X-123268Y-227953D02*
Y-201181D01*
X-94882Y-229567D02*
X-93268Y-227953D01*
X-121653Y-199567D02*
X-94882D01*
X-132638Y-227953D02*
Y-201181D01*
X-161024Y-229567D02*
X-134252D01*
X-162638Y-201181D02*
X-161024Y-199567D01*
X-134252D02*
X-132638Y-201181D01*
X-162638Y-227953D02*
X-161024Y-229567D01*
X-162638Y-227953D02*
Y-201181D01*
X-134252Y-229567D02*
X-132638Y-227953D01*
X-161024Y-199567D02*
X-134252D01*
X-172008Y-227953D02*
Y-201181D01*
X-200394Y-229567D02*
X-173622D01*
X-202008Y-201181D02*
X-200394Y-199567D01*
X-173622D02*
X-172008Y-201181D01*
X-202008Y-227953D02*
X-200394Y-229567D01*
X-202008Y-227953D02*
Y-201181D01*
X-173622Y-229567D02*
X-172008Y-227953D01*
X-200394Y-199567D02*
X-173622D01*
X-270433Y-227953D02*
Y-201181D01*
X-298819Y-229567D02*
X-272047D01*
X-300433Y-201181D02*
X-298819Y-199567D01*
X-272047D02*
X-270433Y-201181D01*
X-300433Y-227953D02*
X-298819Y-229567D01*
X-300433Y-227953D02*
Y-201181D01*
X-272047Y-229567D02*
X-270433Y-227953D01*
X-298819Y-199567D02*
X-272047D01*
X-309803Y-227953D02*
Y-201181D01*
X-338189Y-229567D02*
X-311417D01*
X-339803Y-201181D02*
X-338189Y-199567D01*
X-311417D02*
X-309803Y-201181D01*
X-339803Y-227953D02*
X-338189Y-229567D01*
X-339803Y-227953D02*
Y-201181D01*
X-311417Y-229567D02*
X-309803Y-227953D01*
X-338189Y-199567D02*
X-311417D01*
X-349173Y-227953D02*
Y-201181D01*
X-377559Y-229567D02*
X-350787D01*
X-379173Y-201181D02*
X-377559Y-199567D01*
X-350787D02*
X-349173Y-201181D01*
X-379173Y-227953D02*
X-377559Y-229567D01*
X-379173Y-227953D02*
Y-201181D01*
X-350787Y-229567D02*
X-349173Y-227953D01*
X-377559Y-199567D02*
X-350787D01*
X-231063Y-40945D02*
Y-14173D01*
X-259449Y-42559D02*
X-232677D01*
X-261063Y-14173D02*
X-259449Y-12559D01*
X-232677D02*
X-231063Y-14173D01*
X-261063Y-40945D02*
X-259449Y-42559D01*
X-261063Y-40945D02*
Y-14173D01*
X-232677Y-42559D02*
X-231063Y-40945D01*
X-259449Y-12559D02*
X-232677D01*
X-270433Y-40945D02*
Y-14173D01*
X-298819Y-42559D02*
X-272047D01*
X-300433Y-14173D02*
X-298819Y-12559D01*
X-272047D02*
X-270433Y-14173D01*
X-300433Y-40945D02*
X-298819Y-42559D01*
X-300433Y-40945D02*
Y-14173D01*
X-272047Y-42559D02*
X-270433Y-40945D01*
X-298819Y-12559D02*
X-272047D01*
X-104053Y-115470D02*
X-100753Y-134170D01*
X-311542Y-142034D02*
X-107351D01*
X-318140Y-134170D02*
X-314840Y-115470D01*
X-308242Y-109934D02*
X-110651D01*
X-103068Y-115296D02*
X-99768Y-133996D01*
X-311542Y-143034D02*
X-107351D01*
X-319124Y-133996D02*
X-315824Y-115296D01*
X-308242Y-108934D02*
X-110651D01*
X-342897Y-101184D02*
X-75995D01*
X-342897Y-150784D02*
X-75995D01*
X-346397Y-147284D02*
Y-131890D01*
X-72495Y-147284D02*
Y-131890D01*
Y-120079D02*
Y-104684D01*
X-346397Y-120079D02*
Y-104684D01*
X-298661Y-160354D02*
X-271890D01*
Y-190354D02*
X-270276Y-188740D01*
X-300276D02*
Y-161968D01*
Y-188740D02*
X-298661Y-190354D01*
X-271890Y-160354D02*
X-270276Y-161968D01*
X-300276D02*
X-298661Y-160354D01*
Y-190354D02*
X-271890D01*
X-270276Y-188740D02*
Y-161968D01*
X-338032Y-160354D02*
X-311260D01*
Y-190354D02*
X-309646Y-188740D01*
X-339646D02*
Y-161968D01*
Y-188740D02*
X-338032Y-190354D01*
X-311260Y-160354D02*
X-309646Y-161968D01*
X-339646D02*
X-338032Y-160354D01*
Y-190354D02*
X-311260D01*
X-309646Y-188740D02*
Y-161968D01*
X-377401Y-160354D02*
X-350630D01*
Y-190354D02*
X-349016Y-188740D01*
X-379016D02*
Y-161968D01*
Y-188740D02*
X-377401Y-190354D01*
X-350630Y-160354D02*
X-349016Y-161968D01*
X-379016D02*
X-377401Y-160354D01*
Y-190354D02*
X-350630D01*
X-349016Y-188740D02*
Y-161968D01*
X-416772Y-160354D02*
X-390000D01*
Y-190354D02*
X-388386Y-188740D01*
X-418386D02*
Y-161968D01*
Y-188740D02*
X-416772Y-190354D01*
X-390000Y-160354D02*
X-388386Y-161968D01*
X-418386D02*
X-416772Y-160354D01*
Y-190354D02*
X-390000D01*
X-388386Y-188740D02*
Y-161968D01*
X-295197Y-61772D02*
X-268425D01*
Y-91772D02*
X-266811Y-90157D01*
X-296811D02*
Y-63386D01*
Y-90157D02*
X-295197Y-91772D01*
X-268425Y-61772D02*
X-266811Y-63386D01*
X-296811D02*
X-295197Y-61772D01*
Y-91772D02*
X-268425D01*
X-266811Y-90157D02*
Y-63386D01*
X-334567Y-61772D02*
X-307795D01*
Y-91772D02*
X-306181Y-90157D01*
X-336181D02*
Y-63386D01*
Y-90157D02*
X-334567Y-91772D01*
X-307795Y-61772D02*
X-306181Y-63386D01*
X-336181D02*
X-334567Y-61772D01*
Y-91772D02*
X-307795D01*
X-306181Y-90157D02*
Y-63386D01*
X-373937Y-61772D02*
X-347165D01*
Y-91772D02*
X-345551Y-90157D01*
X-375551D02*
Y-63386D01*
Y-90157D02*
X-373937Y-91772D01*
X-347165Y-61772D02*
X-345551Y-63386D01*
X-375551D02*
X-373937Y-61772D01*
Y-91772D02*
X-347165D01*
X-345551Y-90157D02*
Y-63386D01*
X-412992Y-61772D02*
X-386221D01*
Y-91772D02*
X-384606Y-90157D01*
X-414606D02*
Y-63386D01*
Y-90157D02*
X-412992Y-91772D01*
X-386221Y-61772D02*
X-384606Y-63386D01*
X-414606D02*
X-412992Y-61772D01*
Y-91772D02*
X-386221D01*
X-384606Y-90157D02*
Y-63386D01*
X-338189Y-12559D02*
X-311417D01*
Y-42559D02*
X-309803Y-40945D01*
X-339803D02*
Y-14173D01*
Y-40945D02*
X-338189Y-42559D01*
X-311417Y-12559D02*
X-309803Y-14173D01*
X-339803D02*
X-338189Y-12559D01*
Y-42559D02*
X-311417D01*
X-309803Y-40945D02*
Y-14173D01*
X-377559Y-12559D02*
X-350787D01*
Y-42559D02*
X-349173Y-40945D01*
X-379173D02*
Y-14173D01*
Y-40945D02*
X-377559Y-42559D01*
X-350787Y-12559D02*
X-349173Y-14173D01*
X-379173D02*
X-377559Y-12559D01*
Y-42559D02*
X-350787D01*
X-349173Y-40945D02*
Y-14173D01*
X-43071Y-160354D02*
X-16299D01*
Y-190354D02*
X-14685Y-188740D01*
X-44685D02*
Y-161968D01*
Y-188740D02*
X-43071Y-190354D01*
X-16299Y-160354D02*
X-14685Y-161968D01*
X-44685D02*
X-43071Y-160354D01*
Y-190354D02*
X-16299D01*
X-14685Y-188740D02*
Y-161968D01*
X-82441Y-160354D02*
X-55669D01*
Y-190354D02*
X-54055Y-188740D01*
X-84055D02*
Y-161968D01*
Y-188740D02*
X-82441Y-190354D01*
X-55669Y-160354D02*
X-54055Y-161968D01*
X-84055D02*
X-82441Y-160354D01*
Y-190354D02*
X-55669D01*
X-54055Y-188740D02*
Y-161968D01*
X-161181Y-160354D02*
X-134410D01*
Y-190354D02*
X-132796Y-188740D01*
X-162795D02*
Y-161968D01*
Y-188740D02*
X-161181Y-190354D01*
X-134410Y-160354D02*
X-132796Y-161968D01*
X-162795D02*
X-161181Y-160354D01*
Y-190354D02*
X-134410D01*
X-132796Y-188740D02*
Y-161968D01*
X-121181Y-13031D02*
X-94409D01*
Y-43031D02*
X-92795Y-41417D01*
X-122795D02*
Y-14646D01*
Y-41417D02*
X-121181Y-43031D01*
X-94409Y-13031D02*
X-92795Y-14646D01*
X-122795D02*
X-121181Y-13031D01*
Y-43031D02*
X-94409D01*
X-92795Y-41417D02*
Y-14646D01*
X-160866Y-13031D02*
X-134095D01*
Y-43031D02*
X-132480Y-41417D01*
X-162480D02*
Y-14646D01*
Y-41417D02*
X-160866Y-43031D01*
X-134095Y-13031D02*
X-132480Y-14646D01*
X-162480D02*
X-160866Y-13031D01*
Y-43031D02*
X-134095D01*
X-132480Y-41417D02*
Y-14646D01*
X-200236Y-12716D02*
X-173465D01*
Y-42716D02*
X-171850Y-41102D01*
X-201850D02*
Y-14331D01*
Y-41102D02*
X-200236Y-42716D01*
X-173465Y-12716D02*
X-171850Y-14331D01*
X-201850D02*
X-200236Y-12716D01*
Y-42716D02*
X-173465D01*
X-171850Y-41102D02*
Y-14331D01*
X-43071Y-61929D02*
X-16299D01*
Y-91929D02*
X-14685Y-90315D01*
X-44685D02*
Y-63543D01*
Y-90315D02*
X-43071Y-91929D01*
X-16299Y-61929D02*
X-14685Y-63543D01*
X-44685D02*
X-43071Y-61929D01*
Y-91929D02*
X-16299D01*
X-14685Y-90315D02*
Y-63543D01*
X-82441Y-61929D02*
X-55669D01*
Y-91929D02*
X-54055Y-90315D01*
X-84055D02*
Y-63543D01*
Y-90315D02*
X-82441Y-91929D01*
X-55669Y-61929D02*
X-54055Y-63543D01*
X-84055D02*
X-82441Y-61929D01*
Y-91929D02*
X-55669D01*
X-54055Y-90315D02*
Y-63543D01*
X-121811Y-61929D02*
X-95039D01*
Y-91929D02*
X-93425Y-90315D01*
X-123425D02*
Y-63543D01*
Y-90315D02*
X-121811Y-91929D01*
X-95039Y-61929D02*
X-93425Y-63543D01*
X-123425D02*
X-121811Y-61929D01*
Y-91929D02*
X-95039D01*
X-93425Y-90315D02*
Y-63543D01*
X-161181Y-61929D02*
X-134410D01*
Y-91929D02*
X-132796Y-90315D01*
X-162795D02*
Y-63543D01*
Y-90315D02*
X-161181Y-91929D01*
X-134410Y-61929D02*
X-132796Y-63543D01*
X-162795D02*
X-161181Y-61929D01*
Y-91929D02*
X-134410D01*
X-132796Y-90315D02*
Y-63543D01*
X-249606Y-61772D02*
X-222835D01*
Y-91772D02*
X-221220Y-90157D01*
X-251220D02*
Y-63386D01*
Y-90157D02*
X-249606Y-91772D01*
X-222835Y-61772D02*
X-221220Y-63386D01*
X-251220D02*
X-249606Y-61772D01*
Y-91772D02*
X-222835D01*
X-221220Y-90157D02*
Y-63386D01*
X-210236Y-61772D02*
X-183465D01*
Y-91772D02*
X-181850Y-90157D01*
X-211850D02*
Y-63386D01*
Y-90157D02*
X-210236Y-91772D01*
X-183465Y-61772D02*
X-181850Y-63386D01*
X-211850D02*
X-210236Y-61772D01*
Y-91772D02*
X-183465D01*
X-181850Y-90157D02*
Y-63386D01*
X-320026Y-112260D02*
Y-112485D01*
X-320251Y-112935D01*
X-320476Y-113160D01*
X-320925Y-113385D01*
X-321825D01*
X-322275Y-113160D01*
X-322500Y-112935D01*
X-322725Y-112485D01*
Y-112035D01*
X-322500Y-111585D01*
X-322050Y-110911D01*
X-319801Y-108661D01*
X-322950D01*
X-325356Y-113385D02*
X-324682Y-113160D01*
X-324232Y-112485D01*
X-324007Y-111361D01*
Y-110686D01*
X-324232Y-109561D01*
X-324682Y-108886D01*
X-325356Y-108661D01*
X-325806D01*
X-326481Y-108886D01*
X-326931Y-109561D01*
X-327156Y-110686D01*
Y-111361D01*
X-326931Y-112485D01*
X-326481Y-113160D01*
X-325806Y-113385D01*
X-325356D01*
X-91213Y-144769D02*
X-91663Y-144993D01*
X-92338Y-145668D01*
Y-140945D01*
X-97601Y-144094D02*
X-97376Y-143419D01*
X-96926Y-142969D01*
X-96251Y-142744D01*
X-96026D01*
X-95351Y-142969D01*
X-94902Y-143419D01*
X-94677Y-144094D01*
Y-144319D01*
X-94902Y-144993D01*
X-95351Y-145443D01*
X-96026Y-145668D01*
X-96251D01*
X-96926Y-145443D01*
X-97376Y-144993D01*
X-97601Y-144094D01*
Y-142969D01*
X-97376Y-141844D01*
X-96926Y-141170D01*
X-96251Y-140945D01*
X-95801D01*
X-95127Y-141170D01*
X-94902Y-141620D01*
X-93631Y-113385D02*
X-96105D01*
X-94756Y-111585D01*
X-95431D01*
X-95881Y-111361D01*
X-96105Y-111135D01*
X-96330Y-110461D01*
Y-110011D01*
X-96105Y-109336D01*
X-95656Y-108886D01*
X-94981Y-108661D01*
X-94306D01*
X-93631Y-108886D01*
X-93406Y-109111D01*
X-93181Y-109561D01*
X-100537Y-113385D02*
X-98287Y-108661D01*
X-97387Y-113385D02*
X-100537D01*
X-323147Y-144769D02*
X-323597Y-144993D01*
X-324272Y-145668D01*
Y-140945D01*
D11*
X-265748Y-228254D02*
Y-234252D01*
X-262749D01*
X-261749Y-233252D01*
Y-229254D01*
X-262749Y-228254D01*
X-265748D01*
X-259750D02*
X-257751D01*
X-258750D01*
Y-234252D01*
X-259750D01*
X-257751D01*
X-251752Y-228254D02*
X-253752D01*
X-254752Y-229254D01*
Y-233252D01*
X-253752Y-234252D01*
X-251752D01*
X-250753Y-233252D01*
Y-229254D01*
X-251752Y-228254D01*
X-248753D02*
X-244755D01*
Y-229254D01*
X-248753Y-233252D01*
Y-234252D01*
X-122806Y-150962D02*
Y-156960D01*
X-119807D01*
X-118808Y-155960D01*
Y-151961D01*
X-119807Y-150962D01*
X-122806D01*
X-116808D02*
X-114809D01*
X-115808D01*
Y-156960D01*
X-116808D01*
X-114809D01*
X-108811Y-150962D02*
X-110810D01*
X-111810Y-151961D01*
Y-155960D01*
X-110810Y-156960D01*
X-108811D01*
X-107811Y-155960D01*
Y-151961D01*
X-108811Y-150962D01*
X-101813Y-156960D02*
X-105812D01*
X-101813Y-152961D01*
Y-151961D01*
X-102813Y-150962D01*
X-104812D01*
X-105812Y-151961D01*
X-99814Y-156960D02*
X-97814D01*
X-98814D01*
Y-150962D01*
X-99814Y-151961D01*
X-357476Y-114386D02*
X-359475D01*
X-358475D01*
Y-119385D01*
X-359475Y-120384D01*
X-360475D01*
X-361474Y-119385D01*
X-352477Y-120384D02*
Y-114386D01*
X-355476Y-117385D01*
X-351478D01*
X-349478Y-120384D02*
X-347479D01*
X-348479D01*
Y-114386D01*
X-349478Y-115386D01*
X-250606Y-58360D02*
Y-52362D01*
X-247607D01*
X-246608Y-53361D01*
Y-55361D01*
X-247607Y-56361D01*
X-250606D01*
X-248607D02*
X-246608Y-58360D01*
X-240610Y-53361D02*
X-241609Y-52362D01*
X-243608D01*
X-244608Y-53361D01*
Y-54361D01*
X-243608Y-55361D01*
X-241609D01*
X-240610Y-56361D01*
Y-57360D01*
X-241609Y-58360D01*
X-243608D01*
X-244608Y-57360D01*
X-238610Y-52362D02*
Y-56361D01*
X-236611Y-58360D01*
X-234611Y-56361D01*
Y-52362D01*
X-232612D02*
Y-58360D01*
X-229613D01*
X-228613Y-57360D01*
Y-53361D01*
X-229613Y-52362D01*
X-232612D01*
X-207293Y-53404D02*
X-208292Y-52404D01*
X-210292D01*
X-211291Y-53404D01*
Y-57403D01*
X-210292Y-58402D01*
X-208292D01*
X-207293Y-57403D01*
Y-55403D01*
X-209292D01*
X-205293Y-58402D02*
Y-52404D01*
X-201295Y-58402D01*
Y-52404D01*
X-199295D02*
Y-58402D01*
X-196296D01*
X-195297Y-57403D01*
Y-53404D01*
X-196296Y-52404D01*
X-199295D01*
X-44106Y-52562D02*
Y-58560D01*
X-41107D01*
X-40108Y-57560D01*
Y-53561D01*
X-41107Y-52562D01*
X-44106D01*
X-38108D02*
X-36109D01*
X-37108D01*
Y-58560D01*
X-38108D01*
X-36109D01*
X-30111Y-52562D02*
X-32110D01*
X-33110Y-53561D01*
Y-57560D01*
X-32110Y-58560D01*
X-30111D01*
X-29111Y-57560D01*
Y-53561D01*
X-30111Y-52562D01*
X-27112Y-53561D02*
X-26112Y-52562D01*
X-24113D01*
X-23113Y-53561D01*
Y-54561D01*
X-24113Y-55561D01*
X-25112D01*
X-24113D01*
X-23113Y-56560D01*
Y-57560D01*
X-24113Y-58560D01*
X-26112D01*
X-27112Y-57560D01*
X-21114Y-58560D02*
X-19114D01*
X-20114D01*
Y-52562D01*
X-21114Y-53561D01*
X-83406Y-52562D02*
Y-58560D01*
X-80407D01*
X-79408Y-57560D01*
Y-53561D01*
X-80407Y-52562D01*
X-83406D01*
X-77408D02*
X-75409D01*
X-76408D01*
Y-58560D01*
X-77408D01*
X-75409D01*
X-69411Y-52562D02*
X-71410D01*
X-72410Y-53561D01*
Y-57560D01*
X-71410Y-58560D01*
X-69411D01*
X-68411Y-57560D01*
Y-53561D01*
X-69411Y-52562D01*
X-66412Y-53561D02*
X-65412Y-52562D01*
X-63413D01*
X-62413Y-53561D01*
Y-54561D01*
X-63413Y-55561D01*
X-64412D01*
X-63413D01*
X-62413Y-56560D01*
Y-57560D01*
X-63413Y-58560D01*
X-65412D01*
X-66412Y-57560D01*
X-60414Y-53561D02*
X-59414Y-52562D01*
X-57415D01*
X-56415Y-53561D01*
Y-57560D01*
X-57415Y-58560D01*
X-59414D01*
X-60414Y-57560D01*
Y-53561D01*
X-122806Y-52562D02*
Y-58560D01*
X-119807D01*
X-118808Y-57560D01*
Y-53561D01*
X-119807Y-52562D01*
X-122806D01*
X-116808D02*
X-114809D01*
X-115808D01*
Y-58560D01*
X-116808D01*
X-114809D01*
X-108811Y-52562D02*
X-110810D01*
X-111810Y-53561D01*
Y-57560D01*
X-110810Y-58560D01*
X-108811D01*
X-107811Y-57560D01*
Y-53561D01*
X-108811Y-52562D01*
X-101813Y-58560D02*
X-105812D01*
X-101813Y-54561D01*
Y-53561D01*
X-102813Y-52562D01*
X-104812D01*
X-105812Y-53561D01*
X-99814Y-57560D02*
X-98814Y-58560D01*
X-96815D01*
X-95815Y-57560D01*
Y-53561D01*
X-96815Y-52562D01*
X-98814D01*
X-99814Y-53561D01*
Y-54561D01*
X-98814Y-55561D01*
X-95815D01*
X-162206Y-52562D02*
Y-58560D01*
X-159207D01*
X-158208Y-57560D01*
Y-53561D01*
X-159207Y-52562D01*
X-162206D01*
X-156208D02*
X-154209D01*
X-155209D01*
Y-58560D01*
X-156208D01*
X-154209D01*
X-148211Y-52562D02*
X-150210D01*
X-151210Y-53561D01*
Y-57560D01*
X-150210Y-58560D01*
X-148211D01*
X-147211Y-57560D01*
Y-53561D01*
X-148211Y-52562D01*
X-141213Y-58560D02*
X-145212D01*
X-141213Y-54561D01*
Y-53561D01*
X-142213Y-52562D01*
X-144212D01*
X-145212Y-53561D01*
X-139214D02*
X-138214Y-52562D01*
X-136215D01*
X-135215Y-53561D01*
Y-54561D01*
X-136215Y-55561D01*
X-135215Y-56560D01*
Y-57560D01*
X-136215Y-58560D01*
X-138214D01*
X-139214Y-57560D01*
Y-56560D01*
X-138214Y-55561D01*
X-139214Y-54561D01*
Y-53561D01*
X-138214Y-55561D02*
X-136215D01*
X-82806Y-3362D02*
Y-9360D01*
X-79807D01*
X-78808Y-8360D01*
Y-4361D01*
X-79807Y-3362D01*
X-82806D01*
X-76808D02*
X-74809D01*
X-75809D01*
Y-9360D01*
X-76808D01*
X-74809D01*
X-68811Y-3362D02*
X-70810D01*
X-71810Y-4361D01*
Y-8360D01*
X-70810Y-9360D01*
X-68811D01*
X-67811Y-8360D01*
Y-4361D01*
X-68811Y-3362D01*
X-61813Y-9360D02*
X-65812D01*
X-61813Y-5361D01*
Y-4361D01*
X-62813Y-3362D01*
X-64812D01*
X-65812Y-4361D01*
X-59814Y-3362D02*
X-55815D01*
Y-4361D01*
X-59814Y-8360D01*
Y-9360D01*
X-122206Y-3662D02*
Y-9660D01*
X-119207D01*
X-118208Y-8660D01*
Y-4661D01*
X-119207Y-3662D01*
X-122206D01*
X-116208D02*
X-114209D01*
X-115208D01*
Y-9660D01*
X-116208D01*
X-114209D01*
X-108211Y-3662D02*
X-110210D01*
X-111210Y-4661D01*
Y-8660D01*
X-110210Y-9660D01*
X-108211D01*
X-107211Y-8660D01*
Y-4661D01*
X-108211Y-3662D01*
X-101213Y-9660D02*
X-105212D01*
X-101213Y-5661D01*
Y-4661D01*
X-102213Y-3662D01*
X-104212D01*
X-105212Y-4661D01*
X-95215Y-3662D02*
X-97214Y-4661D01*
X-99214Y-6661D01*
Y-8660D01*
X-98214Y-9660D01*
X-96215D01*
X-95215Y-8660D01*
Y-7660D01*
X-96215Y-6661D01*
X-99214D01*
X-161906Y-3662D02*
Y-9660D01*
X-158907D01*
X-157908Y-8660D01*
Y-4661D01*
X-158907Y-3662D01*
X-161906D01*
X-155908D02*
X-153909D01*
X-154909D01*
Y-9660D01*
X-155908D01*
X-153909D01*
X-147911Y-3662D02*
X-149910D01*
X-150910Y-4661D01*
Y-8660D01*
X-149910Y-9660D01*
X-147911D01*
X-146911Y-8660D01*
Y-4661D01*
X-147911Y-3662D01*
X-140913Y-9660D02*
X-144912D01*
X-140913Y-5661D01*
Y-4661D01*
X-141913Y-3662D01*
X-143912D01*
X-144912Y-4661D01*
X-134915Y-3662D02*
X-138914D01*
Y-6661D01*
X-136914Y-5661D01*
X-135915D01*
X-134915Y-6661D01*
Y-8660D01*
X-135915Y-9660D01*
X-137914D01*
X-138914Y-8660D01*
X-201206Y-3362D02*
Y-9360D01*
X-198207D01*
X-197208Y-8360D01*
Y-4361D01*
X-198207Y-3362D01*
X-201206D01*
X-195208D02*
X-193209D01*
X-194209D01*
Y-9360D01*
X-195208D01*
X-193209D01*
X-187211Y-3362D02*
X-189210D01*
X-190210Y-4361D01*
Y-8360D01*
X-189210Y-9360D01*
X-187211D01*
X-186211Y-8360D01*
Y-4361D01*
X-187211Y-3362D01*
X-180213Y-9360D02*
X-184212D01*
X-180213Y-5361D01*
Y-4361D01*
X-181213Y-3362D01*
X-183212D01*
X-184212Y-4361D01*
X-175215Y-9360D02*
Y-3362D01*
X-178214Y-6361D01*
X-174215D01*
X-44106Y-150962D02*
Y-156960D01*
X-41107D01*
X-40108Y-155960D01*
Y-151961D01*
X-41107Y-150962D01*
X-44106D01*
X-38108D02*
X-36109D01*
X-37108D01*
Y-156960D01*
X-38108D01*
X-36109D01*
X-30111Y-150962D02*
X-32110D01*
X-33110Y-151961D01*
Y-155960D01*
X-32110Y-156960D01*
X-30111D01*
X-29111Y-155960D01*
Y-151961D01*
X-30111Y-150962D01*
X-23113Y-156960D02*
X-27112D01*
X-23113Y-152961D01*
Y-151961D01*
X-24113Y-150962D01*
X-26112D01*
X-27112Y-151961D01*
X-21114D02*
X-20114Y-150962D01*
X-18115D01*
X-17115Y-151961D01*
Y-152961D01*
X-18115Y-153961D01*
X-19114D01*
X-18115D01*
X-17115Y-154960D01*
Y-155960D01*
X-18115Y-156960D01*
X-20114D01*
X-21114Y-155960D01*
X-83406Y-150962D02*
Y-156960D01*
X-80407D01*
X-79408Y-155960D01*
Y-151961D01*
X-80407Y-150962D01*
X-83406D01*
X-77408D02*
X-75409D01*
X-76408D01*
Y-156960D01*
X-77408D01*
X-75409D01*
X-69411Y-150962D02*
X-71410D01*
X-72410Y-151961D01*
Y-155960D01*
X-71410Y-156960D01*
X-69411D01*
X-68411Y-155960D01*
Y-151961D01*
X-69411Y-150962D01*
X-62413Y-156960D02*
X-66412D01*
X-62413Y-152961D01*
Y-151961D01*
X-63413Y-150962D01*
X-65412D01*
X-66412Y-151961D01*
X-56415Y-156960D02*
X-60414D01*
X-56415Y-152961D01*
Y-151961D01*
X-57415Y-150962D01*
X-59414D01*
X-60414Y-151961D01*
X-162206Y-150962D02*
Y-156960D01*
X-159207D01*
X-158208Y-155960D01*
Y-151961D01*
X-159207Y-150962D01*
X-162206D01*
X-156208D02*
X-154209D01*
X-155209D01*
Y-156960D01*
X-156208D01*
X-154209D01*
X-148211Y-150962D02*
X-150210D01*
X-151210Y-151961D01*
Y-155960D01*
X-150210Y-156960D01*
X-148211D01*
X-147211Y-155960D01*
Y-151961D01*
X-148211Y-150962D01*
X-141213Y-156960D02*
X-145212D01*
X-141213Y-152961D01*
Y-151961D01*
X-142213Y-150962D01*
X-144212D01*
X-145212Y-151961D01*
X-139214D02*
X-138214Y-150962D01*
X-136215D01*
X-135215Y-151961D01*
Y-155960D01*
X-136215Y-156960D01*
X-138214D01*
X-139214Y-155960D01*
Y-151961D01*
X-88583Y-228254D02*
Y-234252D01*
X-85584D01*
X-84584Y-233252D01*
Y-229254D01*
X-85584Y-228254D01*
X-88583D01*
X-82585D02*
X-80585D01*
X-81585D01*
Y-234252D01*
X-82585D01*
X-80585D01*
X-74587Y-228254D02*
X-76587D01*
X-77586Y-229254D01*
Y-233252D01*
X-76587Y-234252D01*
X-74587D01*
X-73588Y-233252D01*
Y-229254D01*
X-74587Y-228254D01*
X-71588Y-234252D02*
X-69589D01*
X-70588D01*
Y-228254D01*
X-71588Y-229254D01*
X-66590Y-233252D02*
X-65590Y-234252D01*
X-63591D01*
X-62591Y-233252D01*
Y-229254D01*
X-63591Y-228254D01*
X-65590D01*
X-66590Y-229254D01*
Y-230253D01*
X-65590Y-231253D01*
X-62591D01*
X-127953Y-228254D02*
Y-234252D01*
X-124954D01*
X-123954Y-233252D01*
Y-229254D01*
X-124954Y-228254D01*
X-127953D01*
X-121955D02*
X-119955D01*
X-120955D01*
Y-234252D01*
X-121955D01*
X-119955D01*
X-113957Y-228254D02*
X-115957D01*
X-116956Y-229254D01*
Y-233252D01*
X-115957Y-234252D01*
X-113957D01*
X-112958Y-233252D01*
Y-229254D01*
X-113957Y-228254D01*
X-110958Y-234252D02*
X-108959D01*
X-109959D01*
Y-228254D01*
X-110958Y-229254D01*
X-105960D02*
X-104960Y-228254D01*
X-102961D01*
X-101961Y-229254D01*
Y-230253D01*
X-102961Y-231253D01*
X-101961Y-232253D01*
Y-233252D01*
X-102961Y-234252D01*
X-104960D01*
X-105960Y-233252D01*
Y-232253D01*
X-104960Y-231253D01*
X-105960Y-230253D01*
Y-229254D01*
X-104960Y-231253D02*
X-102961D01*
X-167323Y-228254D02*
Y-234252D01*
X-164324D01*
X-163324Y-233252D01*
Y-229254D01*
X-164324Y-228254D01*
X-167323D01*
X-161325D02*
X-159325D01*
X-160325D01*
Y-234252D01*
X-161325D01*
X-159325D01*
X-153327Y-228254D02*
X-155327D01*
X-156326Y-229254D01*
Y-233252D01*
X-155327Y-234252D01*
X-153327D01*
X-152328Y-233252D01*
Y-229254D01*
X-153327Y-228254D01*
X-150328Y-234252D02*
X-148329D01*
X-149329D01*
Y-228254D01*
X-150328Y-229254D01*
X-145330Y-228254D02*
X-141331D01*
Y-229254D01*
X-145330Y-233252D01*
Y-234252D01*
X-206693Y-228254D02*
Y-234252D01*
X-203694D01*
X-202694Y-233252D01*
Y-229254D01*
X-203694Y-228254D01*
X-206693D01*
X-200695D02*
X-198696D01*
X-199695D01*
Y-234252D01*
X-200695D01*
X-198696D01*
X-192697Y-228254D02*
X-194697D01*
X-195696Y-229254D01*
Y-233252D01*
X-194697Y-234252D01*
X-192697D01*
X-191698Y-233252D01*
Y-229254D01*
X-192697Y-228254D01*
X-189698Y-234252D02*
X-187699D01*
X-188699D01*
Y-228254D01*
X-189698Y-229254D01*
X-180701Y-228254D02*
X-182701Y-229254D01*
X-184700Y-231253D01*
Y-233252D01*
X-183700Y-234252D01*
X-181701D01*
X-180701Y-233252D01*
Y-232253D01*
X-181701Y-231253D01*
X-184700D01*
X-255906Y-1876D02*
Y-7874D01*
X-252906D01*
X-251907Y-6874D01*
Y-2876D01*
X-252906Y-1876D01*
X-255906D01*
X-249907D02*
X-247908D01*
X-248908D01*
Y-7874D01*
X-249907D01*
X-247908D01*
X-241910Y-1876D02*
X-243909D01*
X-244909Y-2876D01*
Y-6874D01*
X-243909Y-7874D01*
X-241910D01*
X-240910Y-6874D01*
Y-2876D01*
X-241910Y-1876D01*
X-238911Y-7874D02*
X-236912D01*
X-237911D01*
Y-1876D01*
X-238911Y-2876D01*
X-229914Y-1876D02*
X-233913D01*
Y-4875D01*
X-231913Y-3875D01*
X-230914D01*
X-229914Y-4875D01*
Y-6874D01*
X-230914Y-7874D01*
X-232913D01*
X-233913Y-6874D01*
X-295276Y-1876D02*
Y-7874D01*
X-292277D01*
X-291277Y-6874D01*
Y-2876D01*
X-292277Y-1876D01*
X-295276D01*
X-289278D02*
X-287278D01*
X-288278D01*
Y-7874D01*
X-289278D01*
X-287278D01*
X-281280Y-1876D02*
X-283279D01*
X-284279Y-2876D01*
Y-6874D01*
X-283279Y-7874D01*
X-281280D01*
X-280280Y-6874D01*
Y-2876D01*
X-281280Y-1876D01*
X-278281Y-7874D02*
X-276282D01*
X-277281D01*
Y-1876D01*
X-278281Y-2876D01*
X-270284Y-7874D02*
Y-1876D01*
X-273283Y-4875D01*
X-269284D01*
X-339206Y-3162D02*
Y-9160D01*
X-336207D01*
X-335208Y-8160D01*
Y-4161D01*
X-336207Y-3162D01*
X-339206D01*
X-333208D02*
X-331209D01*
X-332208D01*
Y-9160D01*
X-333208D01*
X-331209D01*
X-325211Y-3162D02*
X-327210D01*
X-328210Y-4161D01*
Y-8160D01*
X-327210Y-9160D01*
X-325211D01*
X-324211Y-8160D01*
Y-4161D01*
X-325211Y-3162D01*
X-322212Y-9160D02*
X-320212D01*
X-321212D01*
Y-3162D01*
X-322212Y-4161D01*
X-317213D02*
X-316214Y-3162D01*
X-314214D01*
X-313215Y-4161D01*
Y-5161D01*
X-314214Y-6161D01*
X-315214D01*
X-314214D01*
X-313215Y-7160D01*
Y-8160D01*
X-314214Y-9160D01*
X-316214D01*
X-317213Y-8160D01*
X-378606Y-3162D02*
Y-9160D01*
X-375607D01*
X-374608Y-8160D01*
Y-4161D01*
X-375607Y-3162D01*
X-378606D01*
X-372608D02*
X-370609D01*
X-371608D01*
Y-9160D01*
X-372608D01*
X-370609D01*
X-364611Y-3162D02*
X-366610D01*
X-367610Y-4161D01*
Y-8160D01*
X-366610Y-9160D01*
X-364611D01*
X-363611Y-8160D01*
Y-4161D01*
X-364611Y-3162D01*
X-361612Y-9160D02*
X-359612D01*
X-360612D01*
Y-3162D01*
X-361612Y-4161D01*
X-352615Y-9160D02*
X-356613D01*
X-352615Y-5161D01*
Y-4161D01*
X-353614Y-3162D01*
X-355614D01*
X-356613Y-4161D01*
X-296206Y-52362D02*
Y-58360D01*
X-293207D01*
X-292208Y-57360D01*
Y-53361D01*
X-293207Y-52362D01*
X-296206D01*
X-290208D02*
X-288209D01*
X-289209D01*
Y-58360D01*
X-290208D01*
X-288209D01*
X-282211Y-52362D02*
X-284210D01*
X-285210Y-53361D01*
Y-57360D01*
X-284210Y-58360D01*
X-282211D01*
X-281211Y-57360D01*
Y-53361D01*
X-282211Y-52362D01*
X-279212Y-58360D02*
X-277212D01*
X-278212D01*
Y-52362D01*
X-279212Y-53361D01*
X-274213Y-58360D02*
X-272214D01*
X-273214D01*
Y-52362D01*
X-274213Y-53361D01*
X-335606Y-52362D02*
Y-58360D01*
X-332607D01*
X-331608Y-57360D01*
Y-53361D01*
X-332607Y-52362D01*
X-335606D01*
X-329608D02*
X-327609D01*
X-328608D01*
Y-58360D01*
X-329608D01*
X-327609D01*
X-321611Y-52362D02*
X-323610D01*
X-324610Y-53361D01*
Y-57360D01*
X-323610Y-58360D01*
X-321611D01*
X-320611Y-57360D01*
Y-53361D01*
X-321611Y-52362D01*
X-318612Y-58360D02*
X-316612D01*
X-317612D01*
Y-52362D01*
X-318612Y-53361D01*
X-313613D02*
X-312614Y-52362D01*
X-310614D01*
X-309615Y-53361D01*
Y-57360D01*
X-310614Y-58360D01*
X-312614D01*
X-313613Y-57360D01*
Y-53361D01*
X-374906Y-52362D02*
Y-58360D01*
X-371907D01*
X-370908Y-57360D01*
Y-53361D01*
X-371907Y-52362D01*
X-374906D01*
X-368908D02*
X-366909D01*
X-367909D01*
Y-58360D01*
X-368908D01*
X-366909D01*
X-360911Y-52362D02*
X-362910D01*
X-363910Y-53361D01*
Y-57360D01*
X-362910Y-58360D01*
X-360911D01*
X-359911Y-57360D01*
Y-53361D01*
X-360911Y-52362D01*
X-357912Y-57360D02*
X-356912Y-58360D01*
X-354913D01*
X-353913Y-57360D01*
Y-53361D01*
X-354913Y-52362D01*
X-356912D01*
X-357912Y-53361D01*
Y-54361D01*
X-356912Y-55361D01*
X-353913D01*
X-414006Y-52362D02*
Y-58360D01*
X-411007D01*
X-410008Y-57360D01*
Y-53361D01*
X-411007Y-52362D01*
X-414006D01*
X-408008D02*
X-406009D01*
X-407009D01*
Y-58360D01*
X-408008D01*
X-406009D01*
X-400011Y-52362D02*
X-402010D01*
X-403010Y-53361D01*
Y-57360D01*
X-402010Y-58360D01*
X-400011D01*
X-399011Y-57360D01*
Y-53361D01*
X-400011Y-52362D01*
X-397012Y-53361D02*
X-396012Y-52362D01*
X-394013D01*
X-393013Y-53361D01*
Y-54361D01*
X-394013Y-55361D01*
X-393013Y-56361D01*
Y-57360D01*
X-394013Y-58360D01*
X-396012D01*
X-397012Y-57360D01*
Y-56361D01*
X-396012Y-55361D01*
X-397012Y-54361D01*
Y-53361D01*
X-396012Y-55361D02*
X-394013D01*
X-305118Y-228254D02*
Y-234252D01*
X-302119D01*
X-301119Y-233252D01*
Y-229254D01*
X-302119Y-228254D01*
X-305118D01*
X-299120D02*
X-297121D01*
X-298120D01*
Y-234252D01*
X-299120D01*
X-297121D01*
X-291123Y-228254D02*
X-293122D01*
X-294122Y-229254D01*
Y-233252D01*
X-293122Y-234252D01*
X-291123D01*
X-290123Y-233252D01*
Y-229254D01*
X-291123Y-228254D01*
X-284125D02*
X-286124Y-229254D01*
X-288124Y-231253D01*
Y-233252D01*
X-287124Y-234252D01*
X-285124D01*
X-284125Y-233252D01*
Y-232253D01*
X-285124Y-231253D01*
X-288124D01*
X-344488Y-228254D02*
Y-234252D01*
X-341489D01*
X-340489Y-233252D01*
Y-229254D01*
X-341489Y-228254D01*
X-344488D01*
X-338490D02*
X-336491D01*
X-337490D01*
Y-234252D01*
X-338490D01*
X-336491D01*
X-330493Y-228254D02*
X-332492D01*
X-333492Y-229254D01*
Y-233252D01*
X-332492Y-234252D01*
X-330493D01*
X-329493Y-233252D01*
Y-229254D01*
X-330493Y-228254D01*
X-323495D02*
X-327494D01*
Y-231253D01*
X-325494Y-230253D01*
X-324495D01*
X-323495Y-231253D01*
Y-233252D01*
X-324495Y-234252D01*
X-326494D01*
X-327494Y-233252D01*
X-383858Y-228254D02*
Y-234252D01*
X-380859D01*
X-379859Y-233252D01*
Y-229254D01*
X-380859Y-228254D01*
X-383858D01*
X-377860D02*
X-375861D01*
X-376860D01*
Y-234252D01*
X-377860D01*
X-375861D01*
X-369863Y-228254D02*
X-371862D01*
X-372862Y-229254D01*
Y-233252D01*
X-371862Y-234252D01*
X-369863D01*
X-368863Y-233252D01*
Y-229254D01*
X-369863Y-228254D01*
X-363865Y-234252D02*
Y-228254D01*
X-366864Y-231253D01*
X-362865D01*
X-299706Y-150962D02*
Y-156960D01*
X-296707D01*
X-295708Y-155960D01*
Y-151961D01*
X-296707Y-150962D01*
X-299706D01*
X-293708D02*
X-291709D01*
X-292708D01*
Y-156960D01*
X-293708D01*
X-291709D01*
X-285711Y-150962D02*
X-287710D01*
X-288710Y-151961D01*
Y-155960D01*
X-287710Y-156960D01*
X-285711D01*
X-284711Y-155960D01*
Y-151961D01*
X-285711Y-150962D01*
X-282712Y-151961D02*
X-281712Y-150962D01*
X-279713D01*
X-278713Y-151961D01*
Y-152961D01*
X-279713Y-153961D01*
X-280712D01*
X-279713D01*
X-278713Y-154960D01*
Y-155960D01*
X-279713Y-156960D01*
X-281712D01*
X-282712Y-155960D01*
X-339006Y-150962D02*
Y-156960D01*
X-336007D01*
X-335008Y-155960D01*
Y-151961D01*
X-336007Y-150962D01*
X-339006D01*
X-333008D02*
X-331009D01*
X-332009D01*
Y-156960D01*
X-333008D01*
X-331009D01*
X-325011Y-150962D02*
X-327010D01*
X-328010Y-151961D01*
Y-155960D01*
X-327010Y-156960D01*
X-325011D01*
X-324011Y-155960D01*
Y-151961D01*
X-325011Y-150962D01*
X-318013Y-156960D02*
X-322012D01*
X-318013Y-152961D01*
Y-151961D01*
X-319013Y-150962D01*
X-321012D01*
X-322012Y-151961D01*
X-378406Y-150962D02*
Y-156960D01*
X-375407D01*
X-374408Y-155960D01*
Y-151961D01*
X-375407Y-150962D01*
X-378406D01*
X-372408D02*
X-370409D01*
X-371409D01*
Y-156960D01*
X-372408D01*
X-370409D01*
X-364411Y-150962D02*
X-366410D01*
X-367410Y-151961D01*
Y-155960D01*
X-366410Y-156960D01*
X-364411D01*
X-363411Y-155960D01*
Y-151961D01*
X-364411Y-150962D01*
X-361412Y-156960D02*
X-359412D01*
X-360412D01*
Y-150962D01*
X-361412Y-151961D01*
X-417806Y-150962D02*
Y-156960D01*
X-414807D01*
X-413808Y-155960D01*
Y-151961D01*
X-414807Y-150962D01*
X-417806D01*
X-411808D02*
X-409809D01*
X-410809D01*
Y-156960D01*
X-411808D01*
X-409809D01*
X-403811Y-150962D02*
X-405810D01*
X-406810Y-151961D01*
Y-155960D01*
X-405810Y-156960D01*
X-403811D01*
X-402811Y-155960D01*
Y-151961D01*
X-403811Y-150962D01*
X-400812Y-151961D02*
X-399812Y-150962D01*
X-397813D01*
X-396813Y-151961D01*
Y-155960D01*
X-397813Y-156960D01*
X-399812D01*
X-400812Y-155960D01*
Y-151961D01*
M02*
