G04*
G04 #@! TF.GenerationSoftware,Altium Limited,Altium Designer,19.1.5 (86)*
G04*
G04 Layer_Physical_Order=2*
G04 Layer_Color=16711680*
%FSLAX25Y25*%
%MOIN*%
G70*
G01*
G75*
%ADD16C,0.17717*%
%ADD17C,0.06299*%
%ADD18C,0.07087*%
%ADD19C,0.21654*%
G36*
X-57087Y-230807D02*
D01*
D02*
G37*
G36*
X433071Y-235720D02*
X433071Y-236220D01*
X-0D01*
Y-0D01*
X433071D01*
Y-235720D01*
D02*
G37*
%LPC*%
G36*
X197508Y-13439D02*
Y-17059D01*
X201128D01*
X201051Y-16476D01*
X200633Y-15466D01*
X199968Y-14600D01*
X199101Y-13934D01*
X198091Y-13516D01*
X197508Y-13439D01*
D02*
G37*
G36*
X196508D02*
X195925Y-13516D01*
X194915Y-13934D01*
X194048Y-14600D01*
X193383Y-15466D01*
X192965Y-16476D01*
X192888Y-17059D01*
X196508D01*
Y-13439D01*
D02*
G37*
G36*
X177508D02*
Y-17059D01*
X181128D01*
X181051Y-16476D01*
X180633Y-15466D01*
X179967Y-14600D01*
X179101Y-13934D01*
X178091Y-13516D01*
X177508Y-13439D01*
D02*
G37*
G36*
X176508D02*
X175925Y-13516D01*
X174915Y-13934D01*
X174048Y-14600D01*
X173383Y-15466D01*
X172965Y-16476D01*
X172888Y-17059D01*
X176508D01*
Y-13439D01*
D02*
G37*
G36*
X158138D02*
Y-17059D01*
X161758D01*
X161681Y-16476D01*
X161263Y-15466D01*
X160598Y-14600D01*
X159731Y-13934D01*
X158721Y-13516D01*
X158138Y-13439D01*
D02*
G37*
G36*
X157138D02*
X156555Y-13516D01*
X155545Y-13934D01*
X154678Y-14600D01*
X154013Y-15466D01*
X153595Y-16476D01*
X153518Y-17059D01*
X157138D01*
Y-13439D01*
D02*
G37*
G36*
X138138D02*
Y-17059D01*
X141758D01*
X141681Y-16476D01*
X141263Y-15466D01*
X140597Y-14600D01*
X139731Y-13934D01*
X138721Y-13516D01*
X138138Y-13439D01*
D02*
G37*
G36*
X137138D02*
X136555Y-13516D01*
X135545Y-13934D01*
X134678Y-14600D01*
X134013Y-15466D01*
X133595Y-16476D01*
X133518Y-17059D01*
X137138D01*
Y-13439D01*
D02*
G37*
G36*
X118768D02*
Y-17059D01*
X122388D01*
X122311Y-16476D01*
X121893Y-15466D01*
X121228Y-14600D01*
X120361Y-13934D01*
X119351Y-13516D01*
X118768Y-13439D01*
D02*
G37*
G36*
X117768D02*
X117185Y-13516D01*
X116175Y-13934D01*
X115308Y-14600D01*
X114643Y-15466D01*
X114225Y-16476D01*
X114148Y-17059D01*
X117768D01*
Y-13439D01*
D02*
G37*
G36*
X98768D02*
Y-17059D01*
X102388D01*
X102311Y-16476D01*
X101893Y-15466D01*
X101227Y-14600D01*
X100361Y-13934D01*
X99351Y-13516D01*
X98768Y-13439D01*
D02*
G37*
G36*
X97768D02*
X97185Y-13516D01*
X96175Y-13934D01*
X95308Y-14600D01*
X94643Y-15466D01*
X94225Y-16476D01*
X94148Y-17059D01*
X97768D01*
Y-13439D01*
D02*
G37*
G36*
X79398D02*
Y-17059D01*
X83017D01*
X82941Y-16476D01*
X82522Y-15466D01*
X81857Y-14600D01*
X80990Y-13934D01*
X79981Y-13516D01*
X79398Y-13439D01*
D02*
G37*
G36*
X78398D02*
X77815Y-13516D01*
X76805Y-13934D01*
X75938Y-14600D01*
X75273Y-15466D01*
X74855Y-16476D01*
X74778Y-17059D01*
X78398D01*
Y-13439D01*
D02*
G37*
G36*
X59398D02*
Y-17059D01*
X63017D01*
X62941Y-16476D01*
X62522Y-15466D01*
X61857Y-14600D01*
X60991Y-13934D01*
X59981Y-13516D01*
X59398Y-13439D01*
D02*
G37*
G36*
X58398D02*
X57815Y-13516D01*
X56805Y-13934D01*
X55938Y-14600D01*
X55273Y-15466D01*
X54855Y-16476D01*
X54778Y-17059D01*
X58398D01*
Y-13439D01*
D02*
G37*
G36*
X201128Y-18059D02*
X197508D01*
Y-21679D01*
X198091Y-21602D01*
X199101Y-21184D01*
X199968Y-20519D01*
X200633Y-19652D01*
X201051Y-18642D01*
X201128Y-18059D01*
D02*
G37*
G36*
X196508D02*
X192888D01*
X192965Y-18642D01*
X193383Y-19652D01*
X194048Y-20519D01*
X194915Y-21184D01*
X195925Y-21602D01*
X196508Y-21679D01*
Y-18059D01*
D02*
G37*
G36*
X181128D02*
X177508D01*
Y-21679D01*
X178091Y-21602D01*
X179101Y-21184D01*
X179967Y-20519D01*
X180633Y-19652D01*
X181051Y-18642D01*
X181128Y-18059D01*
D02*
G37*
G36*
X176508D02*
X172888D01*
X172965Y-18642D01*
X173383Y-19652D01*
X174048Y-20519D01*
X174915Y-21184D01*
X175925Y-21602D01*
X176508Y-21679D01*
Y-18059D01*
D02*
G37*
G36*
X161758D02*
X158138D01*
Y-21679D01*
X158721Y-21602D01*
X159731Y-21184D01*
X160598Y-20519D01*
X161263Y-19652D01*
X161681Y-18642D01*
X161758Y-18059D01*
D02*
G37*
G36*
X157138D02*
X153518D01*
X153595Y-18642D01*
X154013Y-19652D01*
X154678Y-20519D01*
X155545Y-21184D01*
X156555Y-21602D01*
X157138Y-21679D01*
Y-18059D01*
D02*
G37*
G36*
X141758D02*
X138138D01*
Y-21679D01*
X138721Y-21602D01*
X139731Y-21184D01*
X140597Y-20519D01*
X141263Y-19652D01*
X141681Y-18642D01*
X141758Y-18059D01*
D02*
G37*
G36*
X137138D02*
X133518D01*
X133595Y-18642D01*
X134013Y-19652D01*
X134678Y-20519D01*
X135545Y-21184D01*
X136555Y-21602D01*
X137138Y-21679D01*
Y-18059D01*
D02*
G37*
G36*
X122388D02*
X118768D01*
Y-21679D01*
X119351Y-21602D01*
X120361Y-21184D01*
X121228Y-20519D01*
X121893Y-19652D01*
X122311Y-18642D01*
X122388Y-18059D01*
D02*
G37*
G36*
X117768D02*
X114148D01*
X114225Y-18642D01*
X114643Y-19652D01*
X115308Y-20519D01*
X116175Y-21184D01*
X117185Y-21602D01*
X117768Y-21679D01*
Y-18059D01*
D02*
G37*
G36*
X102388D02*
X98768D01*
Y-21679D01*
X99351Y-21602D01*
X100361Y-21184D01*
X101227Y-20519D01*
X101893Y-19652D01*
X102311Y-18642D01*
X102388Y-18059D01*
D02*
G37*
G36*
X97768D02*
X94148D01*
X94225Y-18642D01*
X94643Y-19652D01*
X95308Y-20519D01*
X96175Y-21184D01*
X97185Y-21602D01*
X97768Y-21679D01*
Y-18059D01*
D02*
G37*
G36*
X83017D02*
X79398D01*
Y-21679D01*
X79981Y-21602D01*
X80990Y-21184D01*
X81857Y-20519D01*
X82522Y-19652D01*
X82941Y-18642D01*
X83017Y-18059D01*
D02*
G37*
G36*
X78398D02*
X74778D01*
X74855Y-18642D01*
X75273Y-19652D01*
X75938Y-20519D01*
X76805Y-21184D01*
X77815Y-21602D01*
X78398Y-21679D01*
Y-18059D01*
D02*
G37*
G36*
X63017D02*
X59398D01*
Y-21679D01*
X59981Y-21602D01*
X60991Y-21184D01*
X61857Y-20519D01*
X62522Y-19652D01*
X62941Y-18642D01*
X63017Y-18059D01*
D02*
G37*
G36*
X58398D02*
X54778D01*
X54855Y-18642D01*
X55273Y-19652D01*
X55938Y-20519D01*
X56805Y-21184D01*
X57815Y-21602D01*
X58398Y-21679D01*
Y-18059D01*
D02*
G37*
G36*
X413886Y-17702D02*
Y-27059D01*
X423243D01*
X423101Y-25627D01*
X422538Y-23768D01*
X421622Y-22056D01*
X420390Y-20554D01*
X418889Y-19322D01*
X417177Y-18407D01*
X415318Y-17843D01*
X413886Y-17702D01*
D02*
G37*
G36*
X412886D02*
X411453Y-17843D01*
X409595Y-18407D01*
X407882Y-19322D01*
X406381Y-20554D01*
X405149Y-22056D01*
X404234Y-23768D01*
X403670Y-25627D01*
X403529Y-27059D01*
X412886D01*
Y-17702D01*
D02*
G37*
G36*
X20185D02*
Y-27059D01*
X29542D01*
X29401Y-25627D01*
X28837Y-23768D01*
X27922Y-22056D01*
X26690Y-20554D01*
X25188Y-19322D01*
X23476Y-18407D01*
X21618Y-17843D01*
X20185Y-17702D01*
D02*
G37*
G36*
X19185D02*
X17752Y-17843D01*
X15894Y-18407D01*
X14182Y-19322D01*
X12680Y-20554D01*
X11449Y-22056D01*
X10533Y-23768D01*
X9969Y-25627D01*
X9828Y-27059D01*
X19185D01*
Y-17702D01*
D02*
G37*
G36*
X187008Y-23374D02*
X185925Y-23516D01*
X184915Y-23934D01*
X184048Y-24600D01*
X183383Y-25466D01*
X182965Y-26476D01*
X182823Y-27559D01*
X182965Y-28642D01*
X183383Y-29652D01*
X184048Y-30519D01*
X184915Y-31184D01*
X185925Y-31602D01*
X187008Y-31745D01*
X188091Y-31602D01*
X189101Y-31184D01*
X189968Y-30519D01*
X190633Y-29652D01*
X191051Y-28642D01*
X191193Y-27559D01*
X191051Y-26476D01*
X190633Y-25466D01*
X189968Y-24600D01*
X189101Y-23934D01*
X188091Y-23516D01*
X187008Y-23374D01*
D02*
G37*
G36*
X147638D02*
X146555Y-23516D01*
X145545Y-23934D01*
X144678Y-24600D01*
X144013Y-25466D01*
X143595Y-26476D01*
X143453Y-27559D01*
X143595Y-28642D01*
X144013Y-29652D01*
X144678Y-30519D01*
X145545Y-31184D01*
X146555Y-31602D01*
X147638Y-31745D01*
X148721Y-31602D01*
X149731Y-31184D01*
X150598Y-30519D01*
X151263Y-29652D01*
X151681Y-28642D01*
X151823Y-27559D01*
X151681Y-26476D01*
X151263Y-25466D01*
X150598Y-24600D01*
X149731Y-23934D01*
X148721Y-23516D01*
X147638Y-23374D01*
D02*
G37*
G36*
X108268D02*
X107185Y-23516D01*
X106175Y-23934D01*
X105308Y-24600D01*
X104643Y-25466D01*
X104225Y-26476D01*
X104083Y-27559D01*
X104225Y-28642D01*
X104643Y-29652D01*
X105308Y-30519D01*
X106175Y-31184D01*
X107185Y-31602D01*
X108268Y-31745D01*
X109351Y-31602D01*
X110361Y-31184D01*
X111228Y-30519D01*
X111893Y-29652D01*
X112311Y-28642D01*
X112453Y-27559D01*
X112311Y-26476D01*
X111893Y-25466D01*
X111228Y-24600D01*
X110361Y-23934D01*
X109351Y-23516D01*
X108268Y-23374D01*
D02*
G37*
G36*
X68898D02*
X67814Y-23516D01*
X66805Y-23934D01*
X65938Y-24600D01*
X65273Y-25466D01*
X64855Y-26476D01*
X64712Y-27559D01*
X64855Y-28642D01*
X65273Y-29652D01*
X65938Y-30519D01*
X66805Y-31184D01*
X67814Y-31602D01*
X68898Y-31745D01*
X69981Y-31602D01*
X70991Y-31184D01*
X71857Y-30519D01*
X72522Y-29652D01*
X72941Y-28642D01*
X73083Y-27559D01*
X72941Y-26476D01*
X72522Y-25466D01*
X71857Y-24600D01*
X70991Y-23934D01*
X69981Y-23516D01*
X68898Y-23374D01*
D02*
G37*
G36*
X197508Y-33439D02*
Y-37059D01*
X201128D01*
X201051Y-36476D01*
X200633Y-35466D01*
X199968Y-34600D01*
X199101Y-33934D01*
X198091Y-33516D01*
X197508Y-33439D01*
D02*
G37*
G36*
X196508D02*
X195925Y-33516D01*
X194915Y-33934D01*
X194048Y-34600D01*
X193383Y-35466D01*
X192965Y-36476D01*
X192888Y-37059D01*
X196508D01*
Y-33439D01*
D02*
G37*
G36*
X177508D02*
Y-37059D01*
X181128D01*
X181051Y-36476D01*
X180633Y-35466D01*
X179967Y-34600D01*
X179101Y-33934D01*
X178091Y-33516D01*
X177508Y-33439D01*
D02*
G37*
G36*
X176508D02*
X175925Y-33516D01*
X174915Y-33934D01*
X174048Y-34600D01*
X173383Y-35466D01*
X172965Y-36476D01*
X172888Y-37059D01*
X176508D01*
Y-33439D01*
D02*
G37*
G36*
X158138D02*
Y-37059D01*
X161758D01*
X161681Y-36476D01*
X161263Y-35466D01*
X160598Y-34600D01*
X159731Y-33934D01*
X158721Y-33516D01*
X158138Y-33439D01*
D02*
G37*
G36*
X157138D02*
X156555Y-33516D01*
X155545Y-33934D01*
X154678Y-34600D01*
X154013Y-35466D01*
X153595Y-36476D01*
X153518Y-37059D01*
X157138D01*
Y-33439D01*
D02*
G37*
G36*
X138138D02*
Y-37059D01*
X141758D01*
X141681Y-36476D01*
X141263Y-35466D01*
X140597Y-34600D01*
X139731Y-33934D01*
X138721Y-33516D01*
X138138Y-33439D01*
D02*
G37*
G36*
X137138D02*
X136555Y-33516D01*
X135545Y-33934D01*
X134678Y-34600D01*
X134013Y-35466D01*
X133595Y-36476D01*
X133518Y-37059D01*
X137138D01*
Y-33439D01*
D02*
G37*
G36*
X118768D02*
Y-37059D01*
X122388D01*
X122311Y-36476D01*
X121893Y-35466D01*
X121228Y-34600D01*
X120361Y-33934D01*
X119351Y-33516D01*
X118768Y-33439D01*
D02*
G37*
G36*
X117768D02*
X117185Y-33516D01*
X116175Y-33934D01*
X115308Y-34600D01*
X114643Y-35466D01*
X114225Y-36476D01*
X114148Y-37059D01*
X117768D01*
Y-33439D01*
D02*
G37*
G36*
X98768D02*
Y-37059D01*
X102388D01*
X102311Y-36476D01*
X101893Y-35466D01*
X101227Y-34600D01*
X100361Y-33934D01*
X99351Y-33516D01*
X98768Y-33439D01*
D02*
G37*
G36*
X97768D02*
X97185Y-33516D01*
X96175Y-33934D01*
X95308Y-34600D01*
X94643Y-35466D01*
X94225Y-36476D01*
X94148Y-37059D01*
X97768D01*
Y-33439D01*
D02*
G37*
G36*
X79398D02*
Y-37059D01*
X83017D01*
X82941Y-36476D01*
X82522Y-35466D01*
X81857Y-34600D01*
X80990Y-33934D01*
X79981Y-33516D01*
X79398Y-33439D01*
D02*
G37*
G36*
X78398D02*
X77815Y-33516D01*
X76805Y-33934D01*
X75938Y-34600D01*
X75273Y-35466D01*
X74855Y-36476D01*
X74778Y-37059D01*
X78398D01*
Y-33439D01*
D02*
G37*
G36*
X59398D02*
Y-37059D01*
X63017D01*
X62941Y-36476D01*
X62522Y-35466D01*
X61857Y-34600D01*
X60991Y-33934D01*
X59981Y-33516D01*
X59398Y-33439D01*
D02*
G37*
G36*
X58398D02*
X57815Y-33516D01*
X56805Y-33934D01*
X55938Y-34600D01*
X55273Y-35466D01*
X54855Y-36476D01*
X54778Y-37059D01*
X58398D01*
Y-33439D01*
D02*
G37*
G36*
X423243Y-28059D02*
X413886D01*
Y-37416D01*
X415318Y-37275D01*
X417177Y-36711D01*
X418889Y-35796D01*
X420390Y-34564D01*
X421622Y-33062D01*
X422538Y-31350D01*
X423101Y-29492D01*
X423243Y-28059D01*
D02*
G37*
G36*
X412886D02*
X403529D01*
X403670Y-29492D01*
X404234Y-31350D01*
X405149Y-33062D01*
X406381Y-34564D01*
X407882Y-35796D01*
X409595Y-36711D01*
X411453Y-37275D01*
X412886Y-37416D01*
Y-28059D01*
D02*
G37*
G36*
X29542D02*
X20185D01*
Y-37416D01*
X21618Y-37275D01*
X23476Y-36711D01*
X25188Y-35796D01*
X26690Y-34564D01*
X27922Y-33062D01*
X28837Y-31350D01*
X29401Y-29492D01*
X29542Y-28059D01*
D02*
G37*
G36*
X19185D02*
X9828D01*
X9969Y-29492D01*
X10533Y-31350D01*
X11449Y-33062D01*
X12680Y-34564D01*
X14182Y-35796D01*
X15894Y-36711D01*
X17752Y-37275D01*
X19185Y-37416D01*
Y-28059D01*
D02*
G37*
G36*
X201128Y-38059D02*
X197508D01*
Y-41679D01*
X198091Y-41602D01*
X199101Y-41184D01*
X199968Y-40519D01*
X200633Y-39652D01*
X201051Y-38642D01*
X201128Y-38059D01*
D02*
G37*
G36*
X196508D02*
X192888D01*
X192965Y-38642D01*
X193383Y-39652D01*
X194048Y-40519D01*
X194915Y-41184D01*
X195925Y-41602D01*
X196508Y-41679D01*
Y-38059D01*
D02*
G37*
G36*
X181128D02*
X177508D01*
Y-41679D01*
X178091Y-41602D01*
X179101Y-41184D01*
X179967Y-40519D01*
X180633Y-39652D01*
X181051Y-38642D01*
X181128Y-38059D01*
D02*
G37*
G36*
X176508D02*
X172888D01*
X172965Y-38642D01*
X173383Y-39652D01*
X174048Y-40519D01*
X174915Y-41184D01*
X175925Y-41602D01*
X176508Y-41679D01*
Y-38059D01*
D02*
G37*
G36*
X161758D02*
X158138D01*
Y-41679D01*
X158721Y-41602D01*
X159731Y-41184D01*
X160598Y-40519D01*
X161263Y-39652D01*
X161681Y-38642D01*
X161758Y-38059D01*
D02*
G37*
G36*
X157138D02*
X153518D01*
X153595Y-38642D01*
X154013Y-39652D01*
X154678Y-40519D01*
X155545Y-41184D01*
X156555Y-41602D01*
X157138Y-41679D01*
Y-38059D01*
D02*
G37*
G36*
X141758D02*
X138138D01*
Y-41679D01*
X138721Y-41602D01*
X139731Y-41184D01*
X140597Y-40519D01*
X141263Y-39652D01*
X141681Y-38642D01*
X141758Y-38059D01*
D02*
G37*
G36*
X137138D02*
X133518D01*
X133595Y-38642D01*
X134013Y-39652D01*
X134678Y-40519D01*
X135545Y-41184D01*
X136555Y-41602D01*
X137138Y-41679D01*
Y-38059D01*
D02*
G37*
G36*
X122388D02*
X118768D01*
Y-41679D01*
X119351Y-41602D01*
X120361Y-41184D01*
X121228Y-40519D01*
X121893Y-39652D01*
X122311Y-38642D01*
X122388Y-38059D01*
D02*
G37*
G36*
X117768D02*
X114148D01*
X114225Y-38642D01*
X114643Y-39652D01*
X115308Y-40519D01*
X116175Y-41184D01*
X117185Y-41602D01*
X117768Y-41679D01*
Y-38059D01*
D02*
G37*
G36*
X102388D02*
X98768D01*
Y-41679D01*
X99351Y-41602D01*
X100361Y-41184D01*
X101227Y-40519D01*
X101893Y-39652D01*
X102311Y-38642D01*
X102388Y-38059D01*
D02*
G37*
G36*
X97768D02*
X94148D01*
X94225Y-38642D01*
X94643Y-39652D01*
X95308Y-40519D01*
X96175Y-41184D01*
X97185Y-41602D01*
X97768Y-41679D01*
Y-38059D01*
D02*
G37*
G36*
X83017D02*
X79398D01*
Y-41679D01*
X79981Y-41602D01*
X80990Y-41184D01*
X81857Y-40519D01*
X82522Y-39652D01*
X82941Y-38642D01*
X83017Y-38059D01*
D02*
G37*
G36*
X78398D02*
X74778D01*
X74855Y-38642D01*
X75273Y-39652D01*
X75938Y-40519D01*
X76805Y-41184D01*
X77815Y-41602D01*
X78398Y-41679D01*
Y-38059D01*
D02*
G37*
G36*
X63017D02*
X59398D01*
Y-41679D01*
X59981Y-41602D01*
X60991Y-41184D01*
X61857Y-40519D01*
X62522Y-39652D01*
X62941Y-38642D01*
X63017Y-38059D01*
D02*
G37*
G36*
X58398D02*
X54778D01*
X54855Y-38642D01*
X55273Y-39652D01*
X55938Y-40519D01*
X56805Y-41184D01*
X57815Y-41602D01*
X58398Y-41679D01*
Y-38059D01*
D02*
G37*
G36*
X161760Y-62652D02*
Y-66272D01*
X165379D01*
X165303Y-65688D01*
X164884Y-64679D01*
X164219Y-63812D01*
X163353Y-63147D01*
X162343Y-62729D01*
X161760Y-62652D01*
D02*
G37*
G36*
X160760D02*
X160177Y-62729D01*
X159167Y-63147D01*
X158300Y-63812D01*
X157635Y-64679D01*
X157217Y-65688D01*
X157140Y-66272D01*
X160760D01*
Y-62652D01*
D02*
G37*
G36*
X141760D02*
Y-66272D01*
X145379D01*
X145303Y-65688D01*
X144884Y-64679D01*
X144219Y-63812D01*
X143352Y-63147D01*
X142343Y-62729D01*
X141760Y-62652D01*
D02*
G37*
G36*
X140760D02*
X140176Y-62729D01*
X139167Y-63147D01*
X138300Y-63812D01*
X137635Y-64679D01*
X137217Y-65688D01*
X137140Y-66272D01*
X140760D01*
Y-62652D01*
D02*
G37*
G36*
X122390D02*
Y-66272D01*
X126009D01*
X125933Y-65688D01*
X125514Y-64679D01*
X124849Y-63812D01*
X123983Y-63147D01*
X122973Y-62729D01*
X122390Y-62652D01*
D02*
G37*
G36*
X121390D02*
X120807Y-62729D01*
X119797Y-63147D01*
X118930Y-63812D01*
X118265Y-64679D01*
X117847Y-65688D01*
X117770Y-66272D01*
X121390D01*
Y-62652D01*
D02*
G37*
G36*
X102390D02*
Y-66272D01*
X106009D01*
X105933Y-65688D01*
X105514Y-64679D01*
X104849Y-63812D01*
X103982Y-63147D01*
X102973Y-62729D01*
X102390Y-62652D01*
D02*
G37*
G36*
X101390D02*
X100806Y-62729D01*
X99797Y-63147D01*
X98930Y-63812D01*
X98265Y-64679D01*
X97847Y-65688D01*
X97770Y-66272D01*
X101390D01*
Y-62652D01*
D02*
G37*
G36*
X83020D02*
Y-66272D01*
X86639D01*
X86562Y-65688D01*
X86144Y-64679D01*
X85479Y-63812D01*
X84612Y-63147D01*
X83603Y-62729D01*
X83020Y-62652D01*
D02*
G37*
G36*
X82020D02*
X81436Y-62729D01*
X80427Y-63147D01*
X79560Y-63812D01*
X78895Y-64679D01*
X78477Y-65688D01*
X78400Y-66272D01*
X82020D01*
Y-62652D01*
D02*
G37*
G36*
X63020D02*
Y-66272D01*
X66639D01*
X66562Y-65688D01*
X66144Y-64679D01*
X65479Y-63812D01*
X64612Y-63147D01*
X63603Y-62729D01*
X63020Y-62652D01*
D02*
G37*
G36*
X62020D02*
X61436Y-62729D01*
X60427Y-63147D01*
X59560Y-63812D01*
X58895Y-64679D01*
X58477Y-65688D01*
X58400Y-66272D01*
X62020D01*
Y-62652D01*
D02*
G37*
G36*
X43965D02*
Y-66272D01*
X47584D01*
X47507Y-65688D01*
X47089Y-64679D01*
X46424Y-63812D01*
X45557Y-63147D01*
X44548Y-62729D01*
X43965Y-62652D01*
D02*
G37*
G36*
X42965D02*
X42381Y-62729D01*
X41372Y-63147D01*
X40505Y-63812D01*
X39840Y-64679D01*
X39422Y-65688D01*
X39345Y-66272D01*
X42965D01*
Y-62652D01*
D02*
G37*
G36*
X23965D02*
Y-66272D01*
X27584D01*
X27507Y-65688D01*
X27089Y-64679D01*
X26424Y-63812D01*
X25557Y-63147D01*
X24548Y-62729D01*
X23965Y-62652D01*
D02*
G37*
G36*
X22965D02*
X22381Y-62729D01*
X21372Y-63147D01*
X20505Y-63812D01*
X19840Y-64679D01*
X19422Y-65688D01*
X19345Y-66272D01*
X22965D01*
Y-62652D01*
D02*
G37*
G36*
X165379Y-67272D02*
X161760D01*
Y-70891D01*
X162343Y-70814D01*
X163353Y-70396D01*
X164219Y-69731D01*
X164884Y-68864D01*
X165303Y-67855D01*
X165379Y-67272D01*
D02*
G37*
G36*
X160760D02*
X157140D01*
X157217Y-67855D01*
X157635Y-68864D01*
X158300Y-69731D01*
X159167Y-70396D01*
X160177Y-70814D01*
X160760Y-70891D01*
Y-67272D01*
D02*
G37*
G36*
X145379D02*
X141760D01*
Y-70891D01*
X142343Y-70814D01*
X143352Y-70396D01*
X144219Y-69731D01*
X144884Y-68864D01*
X145303Y-67855D01*
X145379Y-67272D01*
D02*
G37*
G36*
X140760D02*
X137140D01*
X137217Y-67855D01*
X137635Y-68864D01*
X138300Y-69731D01*
X139167Y-70396D01*
X140176Y-70814D01*
X140760Y-70891D01*
Y-67272D01*
D02*
G37*
G36*
X126009D02*
X122390D01*
Y-70891D01*
X122973Y-70814D01*
X123983Y-70396D01*
X124849Y-69731D01*
X125514Y-68864D01*
X125933Y-67855D01*
X126009Y-67272D01*
D02*
G37*
G36*
X121390D02*
X117770D01*
X117847Y-67855D01*
X118265Y-68864D01*
X118930Y-69731D01*
X119797Y-70396D01*
X120807Y-70814D01*
X121390Y-70891D01*
Y-67272D01*
D02*
G37*
G36*
X106009D02*
X102390D01*
Y-70891D01*
X102973Y-70814D01*
X103982Y-70396D01*
X104849Y-69731D01*
X105514Y-68864D01*
X105933Y-67855D01*
X106009Y-67272D01*
D02*
G37*
G36*
X101390D02*
X97770D01*
X97847Y-67855D01*
X98265Y-68864D01*
X98930Y-69731D01*
X99797Y-70396D01*
X100806Y-70814D01*
X101390Y-70891D01*
Y-67272D01*
D02*
G37*
G36*
X86639D02*
X83020D01*
Y-70891D01*
X83603Y-70814D01*
X84612Y-70396D01*
X85479Y-69731D01*
X86144Y-68864D01*
X86562Y-67855D01*
X86639Y-67272D01*
D02*
G37*
G36*
X82020D02*
X78400D01*
X78477Y-67855D01*
X78895Y-68864D01*
X79560Y-69731D01*
X80427Y-70396D01*
X81436Y-70814D01*
X82020Y-70891D01*
Y-67272D01*
D02*
G37*
G36*
X66639D02*
X63020D01*
Y-70891D01*
X63603Y-70814D01*
X64612Y-70396D01*
X65479Y-69731D01*
X66144Y-68864D01*
X66562Y-67855D01*
X66639Y-67272D01*
D02*
G37*
G36*
X62020D02*
X58400D01*
X58477Y-67855D01*
X58895Y-68864D01*
X59560Y-69731D01*
X60427Y-70396D01*
X61436Y-70814D01*
X62020Y-70891D01*
Y-67272D01*
D02*
G37*
G36*
X47584D02*
X43965D01*
Y-70891D01*
X44548Y-70814D01*
X45557Y-70396D01*
X46424Y-69731D01*
X47089Y-68864D01*
X47507Y-67855D01*
X47584Y-67272D01*
D02*
G37*
G36*
X42965D02*
X39345D01*
X39422Y-67855D01*
X39840Y-68864D01*
X40505Y-69731D01*
X41372Y-70396D01*
X42381Y-70814D01*
X42965Y-70891D01*
Y-67272D01*
D02*
G37*
G36*
X27584D02*
X23965D01*
Y-70891D01*
X24548Y-70814D01*
X25557Y-70396D01*
X26424Y-69731D01*
X27089Y-68864D01*
X27507Y-67855D01*
X27584Y-67272D01*
D02*
G37*
G36*
X22965D02*
X19345D01*
X19422Y-67855D01*
X19840Y-68864D01*
X20505Y-69731D01*
X21372Y-70396D01*
X22381Y-70814D01*
X22965Y-70891D01*
Y-67272D01*
D02*
G37*
G36*
X151260Y-72586D02*
X150177Y-72729D01*
X149167Y-73147D01*
X148300Y-73812D01*
X147635Y-74679D01*
X147217Y-75688D01*
X147074Y-76772D01*
X147217Y-77855D01*
X147635Y-78864D01*
X148300Y-79731D01*
X149167Y-80396D01*
X150177Y-80814D01*
X151260Y-80957D01*
X152343Y-80814D01*
X153352Y-80396D01*
X154219Y-79731D01*
X154884Y-78864D01*
X155303Y-77855D01*
X155445Y-76772D01*
X155303Y-75688D01*
X154884Y-74679D01*
X154219Y-73812D01*
X153352Y-73147D01*
X152343Y-72729D01*
X151260Y-72586D01*
D02*
G37*
G36*
X111890D02*
X110807Y-72729D01*
X109797Y-73147D01*
X108930Y-73812D01*
X108265Y-74679D01*
X107847Y-75688D01*
X107704Y-76772D01*
X107847Y-77855D01*
X108265Y-78864D01*
X108930Y-79731D01*
X109797Y-80396D01*
X110807Y-80814D01*
X111890Y-80957D01*
X112973Y-80814D01*
X113982Y-80396D01*
X114849Y-79731D01*
X115514Y-78864D01*
X115933Y-77855D01*
X116075Y-76772D01*
X115933Y-75688D01*
X115514Y-74679D01*
X114849Y-73812D01*
X113982Y-73147D01*
X112973Y-72729D01*
X111890Y-72586D01*
D02*
G37*
G36*
X72520D02*
X71436Y-72729D01*
X70427Y-73147D01*
X69560Y-73812D01*
X68895Y-74679D01*
X68477Y-75688D01*
X68334Y-76772D01*
X68477Y-77855D01*
X68895Y-78864D01*
X69560Y-79731D01*
X70427Y-80396D01*
X71436Y-80814D01*
X72520Y-80957D01*
X73603Y-80814D01*
X74612Y-80396D01*
X75479Y-79731D01*
X76144Y-78864D01*
X76562Y-77855D01*
X76705Y-76772D01*
X76562Y-75688D01*
X76144Y-74679D01*
X75479Y-73812D01*
X74612Y-73147D01*
X73603Y-72729D01*
X72520Y-72586D01*
D02*
G37*
G36*
X33465D02*
X32381Y-72729D01*
X31372Y-73147D01*
X30505Y-73812D01*
X29840Y-74679D01*
X29422Y-75688D01*
X29279Y-76772D01*
X29422Y-77855D01*
X29840Y-78864D01*
X30505Y-79731D01*
X31372Y-80396D01*
X32381Y-80814D01*
X33465Y-80957D01*
X34548Y-80814D01*
X35557Y-80396D01*
X36424Y-79731D01*
X37089Y-78864D01*
X37507Y-77855D01*
X37650Y-76772D01*
X37507Y-75688D01*
X37089Y-74679D01*
X36424Y-73812D01*
X35557Y-73147D01*
X34548Y-72729D01*
X33465Y-72586D01*
D02*
G37*
G36*
X161760Y-82652D02*
Y-86272D01*
X165379D01*
X165303Y-85688D01*
X164884Y-84679D01*
X164219Y-83812D01*
X163353Y-83147D01*
X162343Y-82729D01*
X161760Y-82652D01*
D02*
G37*
G36*
X160760D02*
X160177Y-82729D01*
X159167Y-83147D01*
X158300Y-83812D01*
X157635Y-84679D01*
X157217Y-85688D01*
X157140Y-86272D01*
X160760D01*
Y-82652D01*
D02*
G37*
G36*
X141760D02*
Y-86272D01*
X145379D01*
X145303Y-85688D01*
X144884Y-84679D01*
X144219Y-83812D01*
X143352Y-83147D01*
X142343Y-82729D01*
X141760Y-82652D01*
D02*
G37*
G36*
X140760D02*
X140176Y-82729D01*
X139167Y-83147D01*
X138300Y-83812D01*
X137635Y-84679D01*
X137217Y-85688D01*
X137140Y-86272D01*
X140760D01*
Y-82652D01*
D02*
G37*
G36*
X122390D02*
Y-86272D01*
X126009D01*
X125933Y-85688D01*
X125514Y-84679D01*
X124849Y-83812D01*
X123983Y-83147D01*
X122973Y-82729D01*
X122390Y-82652D01*
D02*
G37*
G36*
X121390D02*
X120807Y-82729D01*
X119797Y-83147D01*
X118930Y-83812D01*
X118265Y-84679D01*
X117847Y-85688D01*
X117770Y-86272D01*
X121390D01*
Y-82652D01*
D02*
G37*
G36*
X102390D02*
Y-86272D01*
X106009D01*
X105933Y-85688D01*
X105514Y-84679D01*
X104849Y-83812D01*
X103982Y-83147D01*
X102973Y-82729D01*
X102390Y-82652D01*
D02*
G37*
G36*
X101390D02*
X100806Y-82729D01*
X99797Y-83147D01*
X98930Y-83812D01*
X98265Y-84679D01*
X97847Y-85688D01*
X97770Y-86272D01*
X101390D01*
Y-82652D01*
D02*
G37*
G36*
X83020D02*
Y-86272D01*
X86639D01*
X86562Y-85688D01*
X86144Y-84679D01*
X85479Y-83812D01*
X84612Y-83147D01*
X83603Y-82729D01*
X83020Y-82652D01*
D02*
G37*
G36*
X82020D02*
X81436Y-82729D01*
X80427Y-83147D01*
X79560Y-83812D01*
X78895Y-84679D01*
X78477Y-85688D01*
X78400Y-86272D01*
X82020D01*
Y-82652D01*
D02*
G37*
G36*
X63020D02*
Y-86272D01*
X66639D01*
X66562Y-85688D01*
X66144Y-84679D01*
X65479Y-83812D01*
X64612Y-83147D01*
X63603Y-82729D01*
X63020Y-82652D01*
D02*
G37*
G36*
X62020D02*
X61436Y-82729D01*
X60427Y-83147D01*
X59560Y-83812D01*
X58895Y-84679D01*
X58477Y-85688D01*
X58400Y-86272D01*
X62020D01*
Y-82652D01*
D02*
G37*
G36*
X43965D02*
Y-86272D01*
X47584D01*
X47507Y-85688D01*
X47089Y-84679D01*
X46424Y-83812D01*
X45557Y-83147D01*
X44548Y-82729D01*
X43965Y-82652D01*
D02*
G37*
G36*
X42965D02*
X42381Y-82729D01*
X41372Y-83147D01*
X40505Y-83812D01*
X39840Y-84679D01*
X39422Y-85688D01*
X39345Y-86272D01*
X42965D01*
Y-82652D01*
D02*
G37*
G36*
X23965D02*
Y-86272D01*
X27584D01*
X27507Y-85688D01*
X27089Y-84679D01*
X26424Y-83812D01*
X25557Y-83147D01*
X24548Y-82729D01*
X23965Y-82652D01*
D02*
G37*
G36*
X22965D02*
X22381Y-82729D01*
X21372Y-83147D01*
X20505Y-83812D01*
X19840Y-84679D01*
X19422Y-85688D01*
X19345Y-86272D01*
X22965D01*
Y-82652D01*
D02*
G37*
G36*
X165379Y-87272D02*
X161760D01*
Y-90891D01*
X162343Y-90814D01*
X163353Y-90396D01*
X164219Y-89731D01*
X164884Y-88864D01*
X165303Y-87855D01*
X165379Y-87272D01*
D02*
G37*
G36*
X160760D02*
X157140D01*
X157217Y-87855D01*
X157635Y-88864D01*
X158300Y-89731D01*
X159167Y-90396D01*
X160177Y-90814D01*
X160760Y-90891D01*
Y-87272D01*
D02*
G37*
G36*
X145379D02*
X141760D01*
Y-90891D01*
X142343Y-90814D01*
X143352Y-90396D01*
X144219Y-89731D01*
X144884Y-88864D01*
X145303Y-87855D01*
X145379Y-87272D01*
D02*
G37*
G36*
X140760D02*
X137140D01*
X137217Y-87855D01*
X137635Y-88864D01*
X138300Y-89731D01*
X139167Y-90396D01*
X140176Y-90814D01*
X140760Y-90891D01*
Y-87272D01*
D02*
G37*
G36*
X126009D02*
X122390D01*
Y-90891D01*
X122973Y-90814D01*
X123983Y-90396D01*
X124849Y-89731D01*
X125514Y-88864D01*
X125933Y-87855D01*
X126009Y-87272D01*
D02*
G37*
G36*
X121390D02*
X117770D01*
X117847Y-87855D01*
X118265Y-88864D01*
X118930Y-89731D01*
X119797Y-90396D01*
X120807Y-90814D01*
X121390Y-90891D01*
Y-87272D01*
D02*
G37*
G36*
X106009D02*
X102390D01*
Y-90891D01*
X102973Y-90814D01*
X103982Y-90396D01*
X104849Y-89731D01*
X105514Y-88864D01*
X105933Y-87855D01*
X106009Y-87272D01*
D02*
G37*
G36*
X101390D02*
X97770D01*
X97847Y-87855D01*
X98265Y-88864D01*
X98930Y-89731D01*
X99797Y-90396D01*
X100806Y-90814D01*
X101390Y-90891D01*
Y-87272D01*
D02*
G37*
G36*
X86639D02*
X83020D01*
Y-90891D01*
X83603Y-90814D01*
X84612Y-90396D01*
X85479Y-89731D01*
X86144Y-88864D01*
X86562Y-87855D01*
X86639Y-87272D01*
D02*
G37*
G36*
X82020D02*
X78400D01*
X78477Y-87855D01*
X78895Y-88864D01*
X79560Y-89731D01*
X80427Y-90396D01*
X81436Y-90814D01*
X82020Y-90891D01*
Y-87272D01*
D02*
G37*
G36*
X66639D02*
X63020D01*
Y-90891D01*
X63603Y-90814D01*
X64612Y-90396D01*
X65479Y-89731D01*
X66144Y-88864D01*
X66562Y-87855D01*
X66639Y-87272D01*
D02*
G37*
G36*
X62020D02*
X58400D01*
X58477Y-87855D01*
X58895Y-88864D01*
X59560Y-89731D01*
X60427Y-90396D01*
X61436Y-90814D01*
X62020Y-90891D01*
Y-87272D01*
D02*
G37*
G36*
X47584D02*
X43965D01*
Y-90891D01*
X44548Y-90814D01*
X45557Y-90396D01*
X46424Y-89731D01*
X47089Y-88864D01*
X47507Y-87855D01*
X47584Y-87272D01*
D02*
G37*
G36*
X42965D02*
X39345D01*
X39422Y-87855D01*
X39840Y-88864D01*
X40505Y-89731D01*
X41372Y-90396D01*
X42381Y-90814D01*
X42965Y-90891D01*
Y-87272D01*
D02*
G37*
G36*
X27584D02*
X23965D01*
Y-90891D01*
X24548Y-90814D01*
X25557Y-90396D01*
X26424Y-89731D01*
X27089Y-88864D01*
X27507Y-87855D01*
X27584Y-87272D01*
D02*
G37*
G36*
X22965D02*
X19345D01*
X19422Y-87855D01*
X19840Y-88864D01*
X20505Y-89731D01*
X21372Y-90396D01*
X22381Y-90814D01*
X22965Y-90891D01*
Y-87272D01*
D02*
G37*
G36*
X316513Y-115868D02*
Y-119884D01*
X320529D01*
X320439Y-119198D01*
X319981Y-118093D01*
X319253Y-117144D01*
X318304Y-116416D01*
X317199Y-115958D01*
X316513Y-115868D01*
D02*
G37*
G36*
X315513D02*
X314827Y-115958D01*
X313721Y-116416D01*
X312772Y-117144D01*
X312044Y-118093D01*
X311586Y-119198D01*
X311496Y-119884D01*
X315513D01*
Y-115868D01*
D02*
G37*
G36*
X305646D02*
Y-119884D01*
X309662D01*
X309572Y-119198D01*
X309114Y-118093D01*
X308386Y-117144D01*
X307437Y-116416D01*
X306332Y-115958D01*
X305646Y-115868D01*
D02*
G37*
G36*
X304646D02*
X303960Y-115958D01*
X302854Y-116416D01*
X301905Y-117144D01*
X301177Y-118093D01*
X300719Y-119198D01*
X300629Y-119884D01*
X304646D01*
Y-115868D01*
D02*
G37*
G36*
X294779D02*
Y-119884D01*
X298795D01*
X298705Y-119198D01*
X298247Y-118093D01*
X297519Y-117144D01*
X296570Y-116416D01*
X295465Y-115958D01*
X294779Y-115868D01*
D02*
G37*
G36*
X293779D02*
X293093Y-115958D01*
X291987Y-116416D01*
X291038Y-117144D01*
X290310Y-118093D01*
X289852Y-119198D01*
X289762Y-119884D01*
X293779D01*
Y-115868D01*
D02*
G37*
G36*
X283912D02*
Y-119884D01*
X287929D01*
X287838Y-119198D01*
X287380Y-118093D01*
X286652Y-117144D01*
X285703Y-116416D01*
X284598Y-115958D01*
X283912Y-115868D01*
D02*
G37*
G36*
X282912D02*
X282226Y-115958D01*
X281120Y-116416D01*
X280171Y-117144D01*
X279443Y-118093D01*
X278985Y-119198D01*
X278895Y-119884D01*
X282912D01*
Y-115868D01*
D02*
G37*
G36*
X273045D02*
Y-119884D01*
X277062D01*
X276971Y-119198D01*
X276513Y-118093D01*
X275785Y-117144D01*
X274836Y-116416D01*
X273731Y-115958D01*
X273045Y-115868D01*
D02*
G37*
G36*
X272045D02*
X271359Y-115958D01*
X270253Y-116416D01*
X269304Y-117144D01*
X268576Y-118093D01*
X268118Y-119198D01*
X268028Y-119884D01*
X272045D01*
Y-115868D01*
D02*
G37*
G36*
X262178D02*
Y-119884D01*
X266195D01*
X266104Y-119198D01*
X265646Y-118093D01*
X264918Y-117144D01*
X263969Y-116416D01*
X262864Y-115958D01*
X262178Y-115868D01*
D02*
G37*
G36*
X261178D02*
X260492Y-115958D01*
X259386Y-116416D01*
X258437Y-117144D01*
X257709Y-118093D01*
X257251Y-119198D01*
X257161Y-119884D01*
X261178D01*
Y-115868D01*
D02*
G37*
G36*
X251311D02*
Y-119884D01*
X255327D01*
X255237Y-119198D01*
X254779Y-118093D01*
X254051Y-117144D01*
X253102Y-116416D01*
X251997Y-115958D01*
X251311Y-115868D01*
D02*
G37*
G36*
X250311D02*
X249625Y-115958D01*
X248519Y-116416D01*
X247570Y-117144D01*
X246842Y-118093D01*
X246384Y-119198D01*
X246294Y-119884D01*
X250311D01*
Y-115868D01*
D02*
G37*
G36*
X240444D02*
Y-119884D01*
X244460D01*
X244370Y-119198D01*
X243912Y-118093D01*
X243184Y-117144D01*
X242235Y-116416D01*
X241130Y-115958D01*
X240444Y-115868D01*
D02*
G37*
G36*
X239444D02*
X238758Y-115958D01*
X237652Y-116416D01*
X236703Y-117144D01*
X235975Y-118093D01*
X235517Y-119198D01*
X235427Y-119884D01*
X239444D01*
Y-115868D01*
D02*
G37*
G36*
X207843D02*
Y-119884D01*
X211859D01*
X211769Y-119198D01*
X211311Y-118093D01*
X210583Y-117144D01*
X209634Y-116416D01*
X208529Y-115958D01*
X207843Y-115868D01*
D02*
G37*
G36*
X206843D02*
X206157Y-115958D01*
X205051Y-116416D01*
X204102Y-117144D01*
X203374Y-118093D01*
X202916Y-119198D01*
X202826Y-119884D01*
X206843D01*
Y-115868D01*
D02*
G37*
G36*
X196976D02*
Y-119884D01*
X200992D01*
X200902Y-119198D01*
X200444Y-118093D01*
X199716Y-117144D01*
X198767Y-116416D01*
X197662Y-115958D01*
X196976Y-115868D01*
D02*
G37*
G36*
X195976D02*
X195290Y-115958D01*
X194185Y-116416D01*
X193235Y-117144D01*
X192507Y-118093D01*
X192049Y-119198D01*
X191959Y-119884D01*
X195976D01*
Y-115868D01*
D02*
G37*
G36*
X186109D02*
Y-119884D01*
X190126D01*
X190035Y-119198D01*
X189577Y-118093D01*
X188849Y-117144D01*
X187900Y-116416D01*
X186795Y-115958D01*
X186109Y-115868D01*
D02*
G37*
G36*
X185109D02*
X184423Y-115958D01*
X183317Y-116416D01*
X182369Y-117144D01*
X181640Y-118093D01*
X181182Y-119198D01*
X181092Y-119884D01*
X185109D01*
Y-115868D01*
D02*
G37*
G36*
X175242D02*
Y-119884D01*
X179258D01*
X179168Y-119198D01*
X178710Y-118093D01*
X177982Y-117144D01*
X177033Y-116416D01*
X175928Y-115958D01*
X175242Y-115868D01*
D02*
G37*
G36*
X174242D02*
X173556Y-115958D01*
X172450Y-116416D01*
X171501Y-117144D01*
X170773Y-118093D01*
X170315Y-119198D01*
X170225Y-119884D01*
X174242D01*
Y-115868D01*
D02*
G37*
G36*
X164375D02*
Y-119884D01*
X168392D01*
X168301Y-119198D01*
X167843Y-118093D01*
X167115Y-117144D01*
X166166Y-116416D01*
X165061Y-115958D01*
X164375Y-115868D01*
D02*
G37*
G36*
X163375D02*
X162689Y-115958D01*
X161583Y-116416D01*
X160634Y-117144D01*
X159906Y-118093D01*
X159448Y-119198D01*
X159358Y-119884D01*
X163375D01*
Y-115868D01*
D02*
G37*
G36*
X153508D02*
Y-119884D01*
X157525D01*
X157434Y-119198D01*
X156976Y-118093D01*
X156248Y-117144D01*
X155299Y-116416D01*
X154194Y-115958D01*
X153508Y-115868D01*
D02*
G37*
G36*
X152508D02*
X151822Y-115958D01*
X150716Y-116416D01*
X149767Y-117144D01*
X149039Y-118093D01*
X148581Y-119198D01*
X148491Y-119884D01*
X152508D01*
Y-115868D01*
D02*
G37*
G36*
X142641D02*
Y-119884D01*
X146657D01*
X146567Y-119198D01*
X146109Y-118093D01*
X145381Y-117144D01*
X144432Y-116416D01*
X143327Y-115958D01*
X142641Y-115868D01*
D02*
G37*
G36*
X141641D02*
X140955Y-115958D01*
X139849Y-116416D01*
X138900Y-117144D01*
X138172Y-118093D01*
X137714Y-119198D01*
X137624Y-119884D01*
X141641D01*
Y-115868D01*
D02*
G37*
G36*
X131774D02*
Y-119884D01*
X135791D01*
X135700Y-119198D01*
X135242Y-118093D01*
X134514Y-117144D01*
X133565Y-116416D01*
X132460Y-115958D01*
X131774Y-115868D01*
D02*
G37*
G36*
X130774D02*
X130088Y-115958D01*
X128982Y-116416D01*
X128033Y-117144D01*
X127305Y-118093D01*
X126847Y-119198D01*
X126757Y-119884D01*
X130774D01*
Y-115868D01*
D02*
G37*
G36*
X320529Y-120884D02*
X316513D01*
Y-124901D01*
X317199Y-124811D01*
X318304Y-124353D01*
X319253Y-123625D01*
X319981Y-122676D01*
X320439Y-121570D01*
X320529Y-120884D01*
D02*
G37*
G36*
X315513D02*
X311496D01*
X311586Y-121570D01*
X312044Y-122676D01*
X312772Y-123625D01*
X313721Y-124353D01*
X314827Y-124811D01*
X315513Y-124901D01*
Y-120884D01*
D02*
G37*
G36*
X309662D02*
X305646D01*
Y-124901D01*
X306332Y-124811D01*
X307437Y-124353D01*
X308386Y-123625D01*
X309114Y-122676D01*
X309572Y-121570D01*
X309662Y-120884D01*
D02*
G37*
G36*
X304646D02*
X300629D01*
X300719Y-121570D01*
X301177Y-122676D01*
X301905Y-123625D01*
X302854Y-124353D01*
X303960Y-124811D01*
X304646Y-124901D01*
Y-120884D01*
D02*
G37*
G36*
X298795D02*
X294779D01*
Y-124901D01*
X295465Y-124811D01*
X296570Y-124353D01*
X297519Y-123625D01*
X298247Y-122676D01*
X298705Y-121570D01*
X298795Y-120884D01*
D02*
G37*
G36*
X293779D02*
X289762D01*
X289852Y-121570D01*
X290310Y-122676D01*
X291038Y-123625D01*
X291987Y-124353D01*
X293093Y-124811D01*
X293779Y-124901D01*
Y-120884D01*
D02*
G37*
G36*
X287929D02*
X283912D01*
Y-124901D01*
X284598Y-124811D01*
X285703Y-124353D01*
X286652Y-123625D01*
X287380Y-122676D01*
X287838Y-121570D01*
X287929Y-120884D01*
D02*
G37*
G36*
X282912D02*
X278895D01*
X278985Y-121570D01*
X279443Y-122676D01*
X280171Y-123625D01*
X281120Y-124353D01*
X282226Y-124811D01*
X282912Y-124901D01*
Y-120884D01*
D02*
G37*
G36*
X277062D02*
X273045D01*
Y-124901D01*
X273731Y-124811D01*
X274836Y-124353D01*
X275785Y-123625D01*
X276513Y-122676D01*
X276971Y-121570D01*
X277062Y-120884D01*
D02*
G37*
G36*
X272045D02*
X268028D01*
X268118Y-121570D01*
X268576Y-122676D01*
X269304Y-123625D01*
X270253Y-124353D01*
X271359Y-124811D01*
X272045Y-124901D01*
Y-120884D01*
D02*
G37*
G36*
X266195D02*
X262178D01*
Y-124901D01*
X262864Y-124811D01*
X263969Y-124353D01*
X264918Y-123625D01*
X265646Y-122676D01*
X266104Y-121570D01*
X266195Y-120884D01*
D02*
G37*
G36*
X261178D02*
X257161D01*
X257251Y-121570D01*
X257709Y-122676D01*
X258437Y-123625D01*
X259386Y-124353D01*
X260492Y-124811D01*
X261178Y-124901D01*
Y-120884D01*
D02*
G37*
G36*
X255327D02*
X251311D01*
Y-124901D01*
X251997Y-124811D01*
X253102Y-124353D01*
X254051Y-123625D01*
X254779Y-122676D01*
X255237Y-121570D01*
X255327Y-120884D01*
D02*
G37*
G36*
X250311D02*
X246294D01*
X246384Y-121570D01*
X246842Y-122676D01*
X247570Y-123625D01*
X248519Y-124353D01*
X249625Y-124811D01*
X250311Y-124901D01*
Y-120884D01*
D02*
G37*
G36*
X244460D02*
X240444D01*
Y-124901D01*
X241130Y-124811D01*
X242235Y-124353D01*
X243184Y-123625D01*
X243912Y-122676D01*
X244370Y-121570D01*
X244460Y-120884D01*
D02*
G37*
G36*
X239444D02*
X235427D01*
X235517Y-121570D01*
X235975Y-122676D01*
X236703Y-123625D01*
X237652Y-124353D01*
X238758Y-124811D01*
X239444Y-124901D01*
Y-120884D01*
D02*
G37*
G36*
X211859D02*
X207843D01*
Y-124901D01*
X208529Y-124811D01*
X209634Y-124353D01*
X210583Y-123625D01*
X211311Y-122676D01*
X211769Y-121570D01*
X211859Y-120884D01*
D02*
G37*
G36*
X206843D02*
X202826D01*
X202916Y-121570D01*
X203374Y-122676D01*
X204102Y-123625D01*
X205051Y-124353D01*
X206157Y-124811D01*
X206843Y-124901D01*
Y-120884D01*
D02*
G37*
G36*
X200992D02*
X196976D01*
Y-124901D01*
X197662Y-124811D01*
X198767Y-124353D01*
X199716Y-123625D01*
X200444Y-122676D01*
X200902Y-121570D01*
X200992Y-120884D01*
D02*
G37*
G36*
X195976D02*
X191959D01*
X192049Y-121570D01*
X192507Y-122676D01*
X193235Y-123625D01*
X194185Y-124353D01*
X195290Y-124811D01*
X195976Y-124901D01*
Y-120884D01*
D02*
G37*
G36*
X190126D02*
X186109D01*
Y-124901D01*
X186795Y-124811D01*
X187900Y-124353D01*
X188849Y-123625D01*
X189577Y-122676D01*
X190035Y-121570D01*
X190126Y-120884D01*
D02*
G37*
G36*
X185109D02*
X181092D01*
X181182Y-121570D01*
X181640Y-122676D01*
X182369Y-123625D01*
X183317Y-124353D01*
X184423Y-124811D01*
X185109Y-124901D01*
Y-120884D01*
D02*
G37*
G36*
X179258D02*
X175242D01*
Y-124901D01*
X175928Y-124811D01*
X177033Y-124353D01*
X177982Y-123625D01*
X178710Y-122676D01*
X179168Y-121570D01*
X179258Y-120884D01*
D02*
G37*
G36*
X174242D02*
X170225D01*
X170315Y-121570D01*
X170773Y-122676D01*
X171501Y-123625D01*
X172450Y-124353D01*
X173556Y-124811D01*
X174242Y-124901D01*
Y-120884D01*
D02*
G37*
G36*
X168392D02*
X164375D01*
Y-124901D01*
X165061Y-124811D01*
X166166Y-124353D01*
X167115Y-123625D01*
X167843Y-122676D01*
X168301Y-121570D01*
X168392Y-120884D01*
D02*
G37*
G36*
X163375D02*
X159358D01*
X159448Y-121570D01*
X159906Y-122676D01*
X160634Y-123625D01*
X161583Y-124353D01*
X162689Y-124811D01*
X163375Y-124901D01*
Y-120884D01*
D02*
G37*
G36*
X157525D02*
X153508D01*
Y-124901D01*
X154194Y-124811D01*
X155299Y-124353D01*
X156248Y-123625D01*
X156976Y-122676D01*
X157434Y-121570D01*
X157525Y-120884D01*
D02*
G37*
G36*
X152508D02*
X148491D01*
X148581Y-121570D01*
X149039Y-122676D01*
X149767Y-123625D01*
X150716Y-124353D01*
X151822Y-124811D01*
X152508Y-124901D01*
Y-120884D01*
D02*
G37*
G36*
X146657D02*
X142641D01*
Y-124901D01*
X143327Y-124811D01*
X144432Y-124353D01*
X145381Y-123625D01*
X146109Y-122676D01*
X146567Y-121570D01*
X146657Y-120884D01*
D02*
G37*
G36*
X141641D02*
X137624D01*
X137714Y-121570D01*
X138172Y-122676D01*
X138900Y-123625D01*
X139849Y-124353D01*
X140955Y-124811D01*
X141641Y-124901D01*
Y-120884D01*
D02*
G37*
G36*
X135791D02*
X131774D01*
Y-124901D01*
X132460Y-124811D01*
X133565Y-124353D01*
X134514Y-123625D01*
X135242Y-122676D01*
X135700Y-121570D01*
X135791Y-120884D01*
D02*
G37*
G36*
X130774D02*
X126757D01*
X126847Y-121570D01*
X127305Y-122676D01*
X128033Y-123625D01*
X128982Y-124353D01*
X130088Y-124811D01*
X130774Y-124901D01*
Y-120884D01*
D02*
G37*
G36*
X229077Y-115802D02*
X227891Y-115958D01*
X226785Y-116416D01*
X225836Y-117144D01*
X225108Y-118093D01*
X224650Y-119198D01*
X224494Y-120384D01*
X224650Y-121570D01*
X225108Y-122676D01*
X225836Y-123625D01*
X226785Y-124353D01*
X227891Y-124811D01*
X229077Y-124967D01*
X230263Y-124811D01*
X231368Y-124353D01*
X232317Y-123625D01*
X233045Y-122676D01*
X233503Y-121570D01*
X233659Y-120384D01*
X233503Y-119198D01*
X233045Y-118093D01*
X232317Y-117144D01*
X231368Y-116416D01*
X230263Y-115958D01*
X229077Y-115802D01*
D02*
G37*
G36*
X218210D02*
X217024Y-115958D01*
X215918Y-116416D01*
X214969Y-117144D01*
X214241Y-118093D01*
X213783Y-119198D01*
X213627Y-120384D01*
X213783Y-121570D01*
X214241Y-122676D01*
X214969Y-123625D01*
X215918Y-124353D01*
X217024Y-124811D01*
X218210Y-124967D01*
X219396Y-124811D01*
X220501Y-124353D01*
X221450Y-123625D01*
X222178Y-122676D01*
X222636Y-121570D01*
X222792Y-120384D01*
X222636Y-119198D01*
X222178Y-118093D01*
X221450Y-117144D01*
X220501Y-116416D01*
X219396Y-115958D01*
X218210Y-115802D01*
D02*
G37*
G36*
X349324Y-114160D02*
Y-125484D01*
X360648D01*
X360541Y-124128D01*
X360107Y-122318D01*
X359395Y-120598D01*
X358422Y-119011D01*
X357213Y-117596D01*
X355797Y-116387D01*
X354210Y-115414D01*
X352490Y-114701D01*
X350680Y-114267D01*
X349324Y-114160D01*
D02*
G37*
G36*
X98925D02*
Y-125484D01*
X110249D01*
X110143Y-124128D01*
X109708Y-122318D01*
X108995Y-120598D01*
X108023Y-119011D01*
X106814Y-117596D01*
X105398Y-116387D01*
X103811Y-115414D01*
X102091Y-114701D01*
X100281Y-114267D01*
X98925Y-114160D01*
D02*
G37*
G36*
X348324D02*
X346968Y-114267D01*
X345158Y-114701D01*
X343438Y-115414D01*
X341851Y-116387D01*
X340436Y-117596D01*
X339227Y-119011D01*
X338254Y-120598D01*
X337542Y-122318D01*
X337107Y-124128D01*
X337000Y-125484D01*
X348324D01*
Y-114160D01*
D02*
G37*
G36*
X97925D02*
X96569Y-114267D01*
X94759Y-114701D01*
X93039Y-115414D01*
X91452Y-116387D01*
X90036Y-117596D01*
X88828Y-119011D01*
X87855Y-120598D01*
X87142Y-122318D01*
X86708Y-124128D01*
X86601Y-125484D01*
X97925D01*
Y-114160D01*
D02*
G37*
G36*
X321930Y-127068D02*
Y-131084D01*
X325946D01*
X325856Y-130398D01*
X325398Y-129293D01*
X324670Y-128344D01*
X323721Y-127616D01*
X322616Y-127158D01*
X321930Y-127068D01*
D02*
G37*
G36*
X320930D02*
X320244Y-127158D01*
X319139Y-127616D01*
X318189Y-128344D01*
X317461Y-129293D01*
X317003Y-130398D01*
X316913Y-131084D01*
X320930D01*
Y-127068D01*
D02*
G37*
G36*
X325946Y-132084D02*
X321930D01*
Y-136101D01*
X322616Y-136011D01*
X323721Y-135553D01*
X324670Y-134825D01*
X325398Y-133876D01*
X325856Y-132770D01*
X325946Y-132084D01*
D02*
G37*
G36*
X320930D02*
X316913D01*
X317003Y-132770D01*
X317461Y-133876D01*
X318189Y-134825D01*
X319139Y-135553D01*
X320244Y-136011D01*
X320930Y-136101D01*
Y-132084D01*
D02*
G37*
G36*
X310563Y-127002D02*
X309377Y-127158D01*
X308272Y-127616D01*
X307322Y-128344D01*
X306594Y-129293D01*
X306136Y-130398D01*
X305980Y-131584D01*
X306136Y-132770D01*
X306594Y-133876D01*
X307322Y-134825D01*
X308272Y-135553D01*
X309377Y-136011D01*
X310563Y-136167D01*
X311749Y-136011D01*
X312854Y-135553D01*
X313803Y-134825D01*
X314531Y-133876D01*
X314989Y-132770D01*
X315145Y-131584D01*
X314989Y-130398D01*
X314531Y-129293D01*
X313803Y-128344D01*
X312854Y-127616D01*
X311749Y-127158D01*
X310563Y-127002D01*
D02*
G37*
G36*
X299696D02*
X298510Y-127158D01*
X297405Y-127616D01*
X296456Y-128344D01*
X295727Y-129293D01*
X295269Y-130398D01*
X295113Y-131584D01*
X295269Y-132770D01*
X295727Y-133876D01*
X296456Y-134825D01*
X297405Y-135553D01*
X298510Y-136011D01*
X299696Y-136167D01*
X300882Y-136011D01*
X301987Y-135553D01*
X302936Y-134825D01*
X303664Y-133876D01*
X304122Y-132770D01*
X304278Y-131584D01*
X304122Y-130398D01*
X303664Y-129293D01*
X302936Y-128344D01*
X301987Y-127616D01*
X300882Y-127158D01*
X299696Y-127002D01*
D02*
G37*
G36*
X288829D02*
X287643Y-127158D01*
X286538Y-127616D01*
X285589Y-128344D01*
X284860Y-129293D01*
X284402Y-130398D01*
X284246Y-131584D01*
X284402Y-132770D01*
X284860Y-133876D01*
X285589Y-134825D01*
X286538Y-135553D01*
X287643Y-136011D01*
X288829Y-136167D01*
X290015Y-136011D01*
X291120Y-135553D01*
X292069Y-134825D01*
X292797Y-133876D01*
X293255Y-132770D01*
X293411Y-131584D01*
X293255Y-130398D01*
X292797Y-129293D01*
X292069Y-128344D01*
X291120Y-127616D01*
X290015Y-127158D01*
X288829Y-127002D01*
D02*
G37*
G36*
X277962D02*
X276776Y-127158D01*
X275671Y-127616D01*
X274722Y-128344D01*
X273993Y-129293D01*
X273535Y-130398D01*
X273379Y-131584D01*
X273535Y-132770D01*
X273993Y-133876D01*
X274722Y-134825D01*
X275671Y-135553D01*
X276776Y-136011D01*
X277962Y-136167D01*
X279148Y-136011D01*
X280253Y-135553D01*
X281202Y-134825D01*
X281930Y-133876D01*
X282388Y-132770D01*
X282544Y-131584D01*
X282388Y-130398D01*
X281930Y-129293D01*
X281202Y-128344D01*
X280253Y-127616D01*
X279148Y-127158D01*
X277962Y-127002D01*
D02*
G37*
G36*
X267095D02*
X265909Y-127158D01*
X264804Y-127616D01*
X263854Y-128344D01*
X263126Y-129293D01*
X262668Y-130398D01*
X262512Y-131584D01*
X262668Y-132770D01*
X263126Y-133876D01*
X263854Y-134825D01*
X264804Y-135553D01*
X265909Y-136011D01*
X267095Y-136167D01*
X268281Y-136011D01*
X269386Y-135553D01*
X270335Y-134825D01*
X271063Y-133876D01*
X271521Y-132770D01*
X271677Y-131584D01*
X271521Y-130398D01*
X271063Y-129293D01*
X270335Y-128344D01*
X269386Y-127616D01*
X268281Y-127158D01*
X267095Y-127002D01*
D02*
G37*
G36*
X256228D02*
X255042Y-127158D01*
X253937Y-127616D01*
X252987Y-128344D01*
X252259Y-129293D01*
X251801Y-130398D01*
X251645Y-131584D01*
X251801Y-132770D01*
X252259Y-133876D01*
X252987Y-134825D01*
X253937Y-135553D01*
X255042Y-136011D01*
X256228Y-136167D01*
X257414Y-136011D01*
X258519Y-135553D01*
X259468Y-134825D01*
X260196Y-133876D01*
X260654Y-132770D01*
X260810Y-131584D01*
X260654Y-130398D01*
X260196Y-129293D01*
X259468Y-128344D01*
X258519Y-127616D01*
X257414Y-127158D01*
X256228Y-127002D01*
D02*
G37*
G36*
X245361D02*
X244175Y-127158D01*
X243070Y-127616D01*
X242120Y-128344D01*
X241392Y-129293D01*
X240934Y-130398D01*
X240778Y-131584D01*
X240934Y-132770D01*
X241392Y-133876D01*
X242120Y-134825D01*
X243070Y-135553D01*
X244175Y-136011D01*
X245361Y-136167D01*
X246547Y-136011D01*
X247652Y-135553D01*
X248601Y-134825D01*
X249329Y-133876D01*
X249787Y-132770D01*
X249943Y-131584D01*
X249787Y-130398D01*
X249329Y-129293D01*
X248601Y-128344D01*
X247652Y-127616D01*
X246547Y-127158D01*
X245361Y-127002D01*
D02*
G37*
G36*
X234494D02*
X233308Y-127158D01*
X232203Y-127616D01*
X231254Y-128344D01*
X230525Y-129293D01*
X230067Y-130398D01*
X229911Y-131584D01*
X230067Y-132770D01*
X230525Y-133876D01*
X231254Y-134825D01*
X232203Y-135553D01*
X233308Y-136011D01*
X234494Y-136167D01*
X235680Y-136011D01*
X236785Y-135553D01*
X237734Y-134825D01*
X238462Y-133876D01*
X238920Y-132770D01*
X239076Y-131584D01*
X238920Y-130398D01*
X238462Y-129293D01*
X237734Y-128344D01*
X236785Y-127616D01*
X235680Y-127158D01*
X234494Y-127002D01*
D02*
G37*
G36*
X223627D02*
X222441Y-127158D01*
X221336Y-127616D01*
X220387Y-128344D01*
X219658Y-129293D01*
X219200Y-130398D01*
X219044Y-131584D01*
X219200Y-132770D01*
X219658Y-133876D01*
X220387Y-134825D01*
X221336Y-135553D01*
X222441Y-136011D01*
X223627Y-136167D01*
X224813Y-136011D01*
X225918Y-135553D01*
X226867Y-134825D01*
X227595Y-133876D01*
X228053Y-132770D01*
X228209Y-131584D01*
X228053Y-130398D01*
X227595Y-129293D01*
X226867Y-128344D01*
X225918Y-127616D01*
X224813Y-127158D01*
X223627Y-127002D01*
D02*
G37*
G36*
X212760D02*
X211574Y-127158D01*
X210469Y-127616D01*
X209520Y-128344D01*
X208791Y-129293D01*
X208333Y-130398D01*
X208177Y-131584D01*
X208333Y-132770D01*
X208791Y-133876D01*
X209520Y-134825D01*
X210469Y-135553D01*
X211574Y-136011D01*
X212760Y-136167D01*
X213946Y-136011D01*
X215051Y-135553D01*
X216000Y-134825D01*
X216728Y-133876D01*
X217186Y-132770D01*
X217342Y-131584D01*
X217186Y-130398D01*
X216728Y-129293D01*
X216000Y-128344D01*
X215051Y-127616D01*
X213946Y-127158D01*
X212760Y-127002D01*
D02*
G37*
G36*
X201893D02*
X200707Y-127158D01*
X199601Y-127616D01*
X198652Y-128344D01*
X197924Y-129293D01*
X197466Y-130398D01*
X197310Y-131584D01*
X197466Y-132770D01*
X197924Y-133876D01*
X198652Y-134825D01*
X199601Y-135553D01*
X200707Y-136011D01*
X201893Y-136167D01*
X203079Y-136011D01*
X204184Y-135553D01*
X205133Y-134825D01*
X205861Y-133876D01*
X206319Y-132770D01*
X206475Y-131584D01*
X206319Y-130398D01*
X205861Y-129293D01*
X205133Y-128344D01*
X204184Y-127616D01*
X203079Y-127158D01*
X201893Y-127002D01*
D02*
G37*
G36*
X191026D02*
X189840Y-127158D01*
X188734Y-127616D01*
X187785Y-128344D01*
X187057Y-129293D01*
X186599Y-130398D01*
X186443Y-131584D01*
X186599Y-132770D01*
X187057Y-133876D01*
X187785Y-134825D01*
X188734Y-135553D01*
X189840Y-136011D01*
X191026Y-136167D01*
X192212Y-136011D01*
X193317Y-135553D01*
X194266Y-134825D01*
X194994Y-133876D01*
X195452Y-132770D01*
X195608Y-131584D01*
X195452Y-130398D01*
X194994Y-129293D01*
X194266Y-128344D01*
X193317Y-127616D01*
X192212Y-127158D01*
X191026Y-127002D01*
D02*
G37*
G36*
X180159D02*
X178973Y-127158D01*
X177867Y-127616D01*
X176918Y-128344D01*
X176190Y-129293D01*
X175732Y-130398D01*
X175576Y-131584D01*
X175732Y-132770D01*
X176190Y-133876D01*
X176918Y-134825D01*
X177867Y-135553D01*
X178973Y-136011D01*
X180159Y-136167D01*
X181345Y-136011D01*
X182450Y-135553D01*
X183399Y-134825D01*
X184127Y-133876D01*
X184585Y-132770D01*
X184741Y-131584D01*
X184585Y-130398D01*
X184127Y-129293D01*
X183399Y-128344D01*
X182450Y-127616D01*
X181345Y-127158D01*
X180159Y-127002D01*
D02*
G37*
G36*
X169292D02*
X168106Y-127158D01*
X167000Y-127616D01*
X166051Y-128344D01*
X165323Y-129293D01*
X164865Y-130398D01*
X164709Y-131584D01*
X164865Y-132770D01*
X165323Y-133876D01*
X166051Y-134825D01*
X167000Y-135553D01*
X168106Y-136011D01*
X169292Y-136167D01*
X170478Y-136011D01*
X171583Y-135553D01*
X172532Y-134825D01*
X173260Y-133876D01*
X173718Y-132770D01*
X173874Y-131584D01*
X173718Y-130398D01*
X173260Y-129293D01*
X172532Y-128344D01*
X171583Y-127616D01*
X170478Y-127158D01*
X169292Y-127002D01*
D02*
G37*
G36*
X158425D02*
X157239Y-127158D01*
X156133Y-127616D01*
X155184Y-128344D01*
X154456Y-129293D01*
X153998Y-130398D01*
X153842Y-131584D01*
X153998Y-132770D01*
X154456Y-133876D01*
X155184Y-134825D01*
X156133Y-135553D01*
X157239Y-136011D01*
X158425Y-136167D01*
X159611Y-136011D01*
X160716Y-135553D01*
X161665Y-134825D01*
X162393Y-133876D01*
X162851Y-132770D01*
X163007Y-131584D01*
X162851Y-130398D01*
X162393Y-129293D01*
X161665Y-128344D01*
X160716Y-127616D01*
X159611Y-127158D01*
X158425Y-127002D01*
D02*
G37*
G36*
X147558D02*
X146372Y-127158D01*
X145266Y-127616D01*
X144317Y-128344D01*
X143589Y-129293D01*
X143131Y-130398D01*
X142975Y-131584D01*
X143131Y-132770D01*
X143589Y-133876D01*
X144317Y-134825D01*
X145266Y-135553D01*
X146372Y-136011D01*
X147558Y-136167D01*
X148744Y-136011D01*
X149849Y-135553D01*
X150798Y-134825D01*
X151526Y-133876D01*
X151984Y-132770D01*
X152140Y-131584D01*
X151984Y-130398D01*
X151526Y-129293D01*
X150798Y-128344D01*
X149849Y-127616D01*
X148744Y-127158D01*
X147558Y-127002D01*
D02*
G37*
G36*
X136691D02*
X135505Y-127158D01*
X134399Y-127616D01*
X133450Y-128344D01*
X132722Y-129293D01*
X132264Y-130398D01*
X132108Y-131584D01*
X132264Y-132770D01*
X132722Y-133876D01*
X133450Y-134825D01*
X134399Y-135553D01*
X135505Y-136011D01*
X136691Y-136167D01*
X137877Y-136011D01*
X138982Y-135553D01*
X139931Y-134825D01*
X140659Y-133876D01*
X141117Y-132770D01*
X141273Y-131584D01*
X141117Y-130398D01*
X140659Y-129293D01*
X139931Y-128344D01*
X138982Y-127616D01*
X137877Y-127158D01*
X136691Y-127002D01*
D02*
G37*
G36*
X125824D02*
X124638Y-127158D01*
X123532Y-127616D01*
X122583Y-128344D01*
X121855Y-129293D01*
X121397Y-130398D01*
X121241Y-131584D01*
X121397Y-132770D01*
X121855Y-133876D01*
X122583Y-134825D01*
X123532Y-135553D01*
X124638Y-136011D01*
X125824Y-136167D01*
X127010Y-136011D01*
X128115Y-135553D01*
X129064Y-134825D01*
X129792Y-133876D01*
X130250Y-132770D01*
X130406Y-131584D01*
X130250Y-130398D01*
X129792Y-129293D01*
X129064Y-128344D01*
X128115Y-127616D01*
X127010Y-127158D01*
X125824Y-127002D01*
D02*
G37*
G36*
X110249Y-126484D02*
X98925D01*
Y-137808D01*
X100281Y-137701D01*
X102091Y-137267D01*
X103811Y-136555D01*
X105398Y-135582D01*
X106814Y-134373D01*
X108023Y-132957D01*
X108995Y-131370D01*
X109708Y-129650D01*
X110143Y-127840D01*
X110249Y-126484D01*
D02*
G37*
G36*
X360648D02*
X349324D01*
Y-137808D01*
X350680Y-137701D01*
X352490Y-137267D01*
X354210Y-136555D01*
X355797Y-135582D01*
X357213Y-134373D01*
X358422Y-132957D01*
X359395Y-131370D01*
X360107Y-129650D01*
X360541Y-127840D01*
X360648Y-126484D01*
D02*
G37*
G36*
X348324D02*
X337000D01*
X337107Y-127840D01*
X337542Y-129650D01*
X338254Y-131370D01*
X339227Y-132957D01*
X340436Y-134373D01*
X341851Y-135582D01*
X343438Y-136555D01*
X345158Y-137267D01*
X346968Y-137701D01*
X348324Y-137808D01*
Y-126484D01*
D02*
G37*
G36*
X97925D02*
X86601D01*
X86708Y-127840D01*
X87142Y-129650D01*
X87855Y-131370D01*
X88828Y-132957D01*
X90036Y-134373D01*
X91452Y-135582D01*
X93039Y-136555D01*
X94759Y-137267D01*
X96569Y-137701D01*
X97925Y-137808D01*
Y-126484D01*
D02*
G37*
G36*
X158295Y-161235D02*
Y-164854D01*
X161915D01*
X161838Y-164271D01*
X161420Y-163261D01*
X160755Y-162395D01*
X159888Y-161730D01*
X158878Y-161311D01*
X158295Y-161235D01*
D02*
G37*
G36*
X157295D02*
X156712Y-161311D01*
X155702Y-161730D01*
X154836Y-162395D01*
X154171Y-163261D01*
X153752Y-164271D01*
X153676Y-164854D01*
X157295D01*
Y-161235D01*
D02*
G37*
G36*
X138295D02*
Y-164854D01*
X141915D01*
X141838Y-164271D01*
X141420Y-163261D01*
X140755Y-162395D01*
X139888Y-161730D01*
X138878Y-161311D01*
X138295Y-161235D01*
D02*
G37*
G36*
X137295D02*
X136712Y-161311D01*
X135703Y-161730D01*
X134836Y-162395D01*
X134170Y-163261D01*
X133752Y-164271D01*
X133676Y-164854D01*
X137295D01*
Y-161235D01*
D02*
G37*
G36*
X118925D02*
Y-164854D01*
X122545D01*
X122468Y-164271D01*
X122050Y-163261D01*
X121385Y-162395D01*
X120518Y-161730D01*
X119508Y-161311D01*
X118925Y-161235D01*
D02*
G37*
G36*
X117925D02*
X117342Y-161311D01*
X116332Y-161730D01*
X115466Y-162395D01*
X114801Y-163261D01*
X114382Y-164271D01*
X114306Y-164854D01*
X117925D01*
Y-161235D01*
D02*
G37*
G36*
X98925D02*
Y-164854D01*
X102545D01*
X102468Y-164271D01*
X102050Y-163261D01*
X101385Y-162395D01*
X100518Y-161730D01*
X99508Y-161311D01*
X98925Y-161235D01*
D02*
G37*
G36*
X97925D02*
X97342Y-161311D01*
X96333Y-161730D01*
X95466Y-162395D01*
X94801Y-163261D01*
X94382Y-164271D01*
X94306Y-164854D01*
X97925D01*
Y-161235D01*
D02*
G37*
G36*
X79555D02*
Y-164854D01*
X83175D01*
X83098Y-164271D01*
X82680Y-163261D01*
X82015Y-162395D01*
X81148Y-161730D01*
X80138Y-161311D01*
X79555Y-161235D01*
D02*
G37*
G36*
X78555D02*
X77972Y-161311D01*
X76963Y-161730D01*
X76096Y-162395D01*
X75431Y-163261D01*
X75012Y-164271D01*
X74936Y-164854D01*
X78555D01*
Y-161235D01*
D02*
G37*
G36*
X59555D02*
Y-164854D01*
X63175D01*
X63098Y-164271D01*
X62680Y-163261D01*
X62015Y-162395D01*
X61148Y-161730D01*
X60138Y-161311D01*
X59555Y-161235D01*
D02*
G37*
G36*
X58555D02*
X57972Y-161311D01*
X56963Y-161730D01*
X56096Y-162395D01*
X55431Y-163261D01*
X55012Y-164271D01*
X54936Y-164854D01*
X58555D01*
Y-161235D01*
D02*
G37*
G36*
X40185D02*
Y-164854D01*
X43805D01*
X43728Y-164271D01*
X43310Y-163261D01*
X42645Y-162395D01*
X41778Y-161730D01*
X40768Y-161311D01*
X40185Y-161235D01*
D02*
G37*
G36*
X39185D02*
X38602Y-161311D01*
X37592Y-161730D01*
X36725Y-162395D01*
X36060Y-163261D01*
X35642Y-164271D01*
X35565Y-164854D01*
X39185D01*
Y-161235D01*
D02*
G37*
G36*
X20185D02*
Y-164854D01*
X23805D01*
X23728Y-164271D01*
X23310Y-163261D01*
X22645Y-162395D01*
X21778Y-161730D01*
X20768Y-161311D01*
X20185Y-161235D01*
D02*
G37*
G36*
X19185D02*
X18602Y-161311D01*
X17592Y-161730D01*
X16725Y-162395D01*
X16060Y-163261D01*
X15642Y-164271D01*
X15565Y-164854D01*
X19185D01*
Y-161235D01*
D02*
G37*
G36*
X161915Y-165854D02*
X158295D01*
Y-169474D01*
X158878Y-169397D01*
X159888Y-168979D01*
X160755Y-168314D01*
X161420Y-167447D01*
X161838Y-166437D01*
X161915Y-165854D01*
D02*
G37*
G36*
X157295D02*
X153676D01*
X153752Y-166437D01*
X154171Y-167447D01*
X154836Y-168314D01*
X155702Y-168979D01*
X156712Y-169397D01*
X157295Y-169474D01*
Y-165854D01*
D02*
G37*
G36*
X141915D02*
X138295D01*
Y-169474D01*
X138878Y-169397D01*
X139888Y-168979D01*
X140755Y-168314D01*
X141420Y-167447D01*
X141838Y-166437D01*
X141915Y-165854D01*
D02*
G37*
G36*
X137295D02*
X133676D01*
X133752Y-166437D01*
X134170Y-167447D01*
X134836Y-168314D01*
X135703Y-168979D01*
X136712Y-169397D01*
X137295Y-169474D01*
Y-165854D01*
D02*
G37*
G36*
X122545D02*
X118925D01*
Y-169474D01*
X119508Y-169397D01*
X120518Y-168979D01*
X121385Y-168314D01*
X122050Y-167447D01*
X122468Y-166437D01*
X122545Y-165854D01*
D02*
G37*
G36*
X117925D02*
X114306D01*
X114382Y-166437D01*
X114801Y-167447D01*
X115466Y-168314D01*
X116332Y-168979D01*
X117342Y-169397D01*
X117925Y-169474D01*
Y-165854D01*
D02*
G37*
G36*
X102545D02*
X98925D01*
Y-169474D01*
X99508Y-169397D01*
X100518Y-168979D01*
X101385Y-168314D01*
X102050Y-167447D01*
X102468Y-166437D01*
X102545Y-165854D01*
D02*
G37*
G36*
X97925D02*
X94306D01*
X94382Y-166437D01*
X94801Y-167447D01*
X95466Y-168314D01*
X96333Y-168979D01*
X97342Y-169397D01*
X97925Y-169474D01*
Y-165854D01*
D02*
G37*
G36*
X83175D02*
X79555D01*
Y-169474D01*
X80138Y-169397D01*
X81148Y-168979D01*
X82015Y-168314D01*
X82680Y-167447D01*
X83098Y-166437D01*
X83175Y-165854D01*
D02*
G37*
G36*
X78555D02*
X74936D01*
X75012Y-166437D01*
X75431Y-167447D01*
X76096Y-168314D01*
X76963Y-168979D01*
X77972Y-169397D01*
X78555Y-169474D01*
Y-165854D01*
D02*
G37*
G36*
X63175D02*
X59555D01*
Y-169474D01*
X60138Y-169397D01*
X61148Y-168979D01*
X62015Y-168314D01*
X62680Y-167447D01*
X63098Y-166437D01*
X63175Y-165854D01*
D02*
G37*
G36*
X58555D02*
X54936D01*
X55012Y-166437D01*
X55431Y-167447D01*
X56096Y-168314D01*
X56963Y-168979D01*
X57972Y-169397D01*
X58555Y-169474D01*
Y-165854D01*
D02*
G37*
G36*
X43805D02*
X40185D01*
Y-169474D01*
X40768Y-169397D01*
X41778Y-168979D01*
X42645Y-168314D01*
X43310Y-167447D01*
X43728Y-166437D01*
X43805Y-165854D01*
D02*
G37*
G36*
X39185D02*
X35565D01*
X35642Y-166437D01*
X36060Y-167447D01*
X36725Y-168314D01*
X37592Y-168979D01*
X38602Y-169397D01*
X39185Y-169474D01*
Y-165854D01*
D02*
G37*
G36*
X23805D02*
X20185D01*
Y-169474D01*
X20768Y-169397D01*
X21778Y-168979D01*
X22645Y-168314D01*
X23310Y-167447D01*
X23728Y-166437D01*
X23805Y-165854D01*
D02*
G37*
G36*
X19185D02*
X15565D01*
X15642Y-166437D01*
X16060Y-167447D01*
X16725Y-168314D01*
X17592Y-168979D01*
X18602Y-169397D01*
X19185Y-169474D01*
Y-165854D01*
D02*
G37*
G36*
X147795Y-171169D02*
X146712Y-171311D01*
X145703Y-171730D01*
X144836Y-172395D01*
X144170Y-173261D01*
X143752Y-174271D01*
X143610Y-175354D01*
X143752Y-176437D01*
X144170Y-177447D01*
X144836Y-178314D01*
X145703Y-178979D01*
X146712Y-179397D01*
X147795Y-179540D01*
X148878Y-179397D01*
X149888Y-178979D01*
X150755Y-178314D01*
X151420Y-177447D01*
X151838Y-176437D01*
X151981Y-175354D01*
X151838Y-174271D01*
X151420Y-173261D01*
X150755Y-172395D01*
X149888Y-171730D01*
X148878Y-171311D01*
X147795Y-171169D01*
D02*
G37*
G36*
X108425D02*
X107342Y-171311D01*
X106333Y-171730D01*
X105466Y-172395D01*
X104800Y-173261D01*
X104382Y-174271D01*
X104240Y-175354D01*
X104382Y-176437D01*
X104800Y-177447D01*
X105466Y-178314D01*
X106333Y-178979D01*
X107342Y-179397D01*
X108425Y-179540D01*
X109508Y-179397D01*
X110518Y-178979D01*
X111385Y-178314D01*
X112050Y-177447D01*
X112468Y-176437D01*
X112611Y-175354D01*
X112468Y-174271D01*
X112050Y-173261D01*
X111385Y-172395D01*
X110518Y-171730D01*
X109508Y-171311D01*
X108425Y-171169D01*
D02*
G37*
G36*
X69055D02*
X67972Y-171311D01*
X66962Y-171730D01*
X66096Y-172395D01*
X65430Y-173261D01*
X65012Y-174271D01*
X64870Y-175354D01*
X65012Y-176437D01*
X65430Y-177447D01*
X66096Y-178314D01*
X66962Y-178979D01*
X67972Y-179397D01*
X69055Y-179540D01*
X70138Y-179397D01*
X71148Y-178979D01*
X72015Y-178314D01*
X72680Y-177447D01*
X73098Y-176437D01*
X73241Y-175354D01*
X73098Y-174271D01*
X72680Y-173261D01*
X72015Y-172395D01*
X71148Y-171730D01*
X70138Y-171311D01*
X69055Y-171169D01*
D02*
G37*
G36*
X29685D02*
X28602Y-171311D01*
X27592Y-171730D01*
X26725Y-172395D01*
X26060Y-173261D01*
X25642Y-174271D01*
X25500Y-175354D01*
X25642Y-176437D01*
X26060Y-177447D01*
X26725Y-178314D01*
X27592Y-178979D01*
X28602Y-179397D01*
X29685Y-179540D01*
X30768Y-179397D01*
X31778Y-178979D01*
X32645Y-178314D01*
X33310Y-177447D01*
X33728Y-176437D01*
X33870Y-175354D01*
X33728Y-174271D01*
X33310Y-173261D01*
X32645Y-172395D01*
X31778Y-171730D01*
X30768Y-171311D01*
X29685Y-171169D01*
D02*
G37*
G36*
X158295Y-181235D02*
Y-184854D01*
X161915D01*
X161838Y-184271D01*
X161420Y-183262D01*
X160755Y-182395D01*
X159888Y-181730D01*
X158878Y-181311D01*
X158295Y-181235D01*
D02*
G37*
G36*
X157295D02*
X156712Y-181311D01*
X155702Y-181730D01*
X154836Y-182395D01*
X154171Y-183262D01*
X153752Y-184271D01*
X153676Y-184854D01*
X157295D01*
Y-181235D01*
D02*
G37*
G36*
X138295D02*
Y-184854D01*
X141915D01*
X141838Y-184271D01*
X141420Y-183262D01*
X140755Y-182395D01*
X139888Y-181730D01*
X138878Y-181311D01*
X138295Y-181235D01*
D02*
G37*
G36*
X137295D02*
X136712Y-181311D01*
X135703Y-181730D01*
X134836Y-182395D01*
X134170Y-183262D01*
X133752Y-184271D01*
X133676Y-184854D01*
X137295D01*
Y-181235D01*
D02*
G37*
G36*
X118925D02*
Y-184854D01*
X122545D01*
X122468Y-184271D01*
X122050Y-183262D01*
X121385Y-182395D01*
X120518Y-181730D01*
X119508Y-181311D01*
X118925Y-181235D01*
D02*
G37*
G36*
X117925D02*
X117342Y-181311D01*
X116332Y-181730D01*
X115466Y-182395D01*
X114801Y-183262D01*
X114382Y-184271D01*
X114306Y-184854D01*
X117925D01*
Y-181235D01*
D02*
G37*
G36*
X98925D02*
Y-184854D01*
X102545D01*
X102468Y-184271D01*
X102050Y-183262D01*
X101385Y-182395D01*
X100518Y-181730D01*
X99508Y-181311D01*
X98925Y-181235D01*
D02*
G37*
G36*
X97925D02*
X97342Y-181311D01*
X96333Y-181730D01*
X95466Y-182395D01*
X94801Y-183262D01*
X94382Y-184271D01*
X94306Y-184854D01*
X97925D01*
Y-181235D01*
D02*
G37*
G36*
X79555D02*
Y-184854D01*
X83175D01*
X83098Y-184271D01*
X82680Y-183262D01*
X82015Y-182395D01*
X81148Y-181730D01*
X80138Y-181311D01*
X79555Y-181235D01*
D02*
G37*
G36*
X78555D02*
X77972Y-181311D01*
X76963Y-181730D01*
X76096Y-182395D01*
X75431Y-183262D01*
X75012Y-184271D01*
X74936Y-184854D01*
X78555D01*
Y-181235D01*
D02*
G37*
G36*
X59555D02*
Y-184854D01*
X63175D01*
X63098Y-184271D01*
X62680Y-183262D01*
X62015Y-182395D01*
X61148Y-181730D01*
X60138Y-181311D01*
X59555Y-181235D01*
D02*
G37*
G36*
X58555D02*
X57972Y-181311D01*
X56963Y-181730D01*
X56096Y-182395D01*
X55431Y-183262D01*
X55012Y-184271D01*
X54936Y-184854D01*
X58555D01*
Y-181235D01*
D02*
G37*
G36*
X40185D02*
Y-184854D01*
X43805D01*
X43728Y-184271D01*
X43310Y-183262D01*
X42645Y-182395D01*
X41778Y-181730D01*
X40768Y-181311D01*
X40185Y-181235D01*
D02*
G37*
G36*
X39185D02*
X38602Y-181311D01*
X37592Y-181730D01*
X36725Y-182395D01*
X36060Y-183262D01*
X35642Y-184271D01*
X35565Y-184854D01*
X39185D01*
Y-181235D01*
D02*
G37*
G36*
X20185D02*
Y-184854D01*
X23805D01*
X23728Y-184271D01*
X23310Y-183262D01*
X22645Y-182395D01*
X21778Y-181730D01*
X20768Y-181311D01*
X20185Y-181235D01*
D02*
G37*
G36*
X19185D02*
X18602Y-181311D01*
X17592Y-181730D01*
X16725Y-182395D01*
X16060Y-183262D01*
X15642Y-184271D01*
X15565Y-184854D01*
X19185D01*
Y-181235D01*
D02*
G37*
G36*
X161915Y-185854D02*
X158295D01*
Y-189474D01*
X158878Y-189397D01*
X159888Y-188979D01*
X160755Y-188314D01*
X161420Y-187447D01*
X161838Y-186437D01*
X161915Y-185854D01*
D02*
G37*
G36*
X157295D02*
X153676D01*
X153752Y-186437D01*
X154171Y-187447D01*
X154836Y-188314D01*
X155702Y-188979D01*
X156712Y-189397D01*
X157295Y-189474D01*
Y-185854D01*
D02*
G37*
G36*
X141915D02*
X138295D01*
Y-189474D01*
X138878Y-189397D01*
X139888Y-188979D01*
X140755Y-188314D01*
X141420Y-187447D01*
X141838Y-186437D01*
X141915Y-185854D01*
D02*
G37*
G36*
X137295D02*
X133676D01*
X133752Y-186437D01*
X134170Y-187447D01*
X134836Y-188314D01*
X135703Y-188979D01*
X136712Y-189397D01*
X137295Y-189474D01*
Y-185854D01*
D02*
G37*
G36*
X122545D02*
X118925D01*
Y-189474D01*
X119508Y-189397D01*
X120518Y-188979D01*
X121385Y-188314D01*
X122050Y-187447D01*
X122468Y-186437D01*
X122545Y-185854D01*
D02*
G37*
G36*
X117925D02*
X114306D01*
X114382Y-186437D01*
X114801Y-187447D01*
X115466Y-188314D01*
X116332Y-188979D01*
X117342Y-189397D01*
X117925Y-189474D01*
Y-185854D01*
D02*
G37*
G36*
X102545D02*
X98925D01*
Y-189474D01*
X99508Y-189397D01*
X100518Y-188979D01*
X101385Y-188314D01*
X102050Y-187447D01*
X102468Y-186437D01*
X102545Y-185854D01*
D02*
G37*
G36*
X97925D02*
X94306D01*
X94382Y-186437D01*
X94801Y-187447D01*
X95466Y-188314D01*
X96333Y-188979D01*
X97342Y-189397D01*
X97925Y-189474D01*
Y-185854D01*
D02*
G37*
G36*
X83175D02*
X79555D01*
Y-189474D01*
X80138Y-189397D01*
X81148Y-188979D01*
X82015Y-188314D01*
X82680Y-187447D01*
X83098Y-186437D01*
X83175Y-185854D01*
D02*
G37*
G36*
X78555D02*
X74936D01*
X75012Y-186437D01*
X75431Y-187447D01*
X76096Y-188314D01*
X76963Y-188979D01*
X77972Y-189397D01*
X78555Y-189474D01*
Y-185854D01*
D02*
G37*
G36*
X63175D02*
X59555D01*
Y-189474D01*
X60138Y-189397D01*
X61148Y-188979D01*
X62015Y-188314D01*
X62680Y-187447D01*
X63098Y-186437D01*
X63175Y-185854D01*
D02*
G37*
G36*
X58555D02*
X54936D01*
X55012Y-186437D01*
X55431Y-187447D01*
X56096Y-188314D01*
X56963Y-188979D01*
X57972Y-189397D01*
X58555Y-189474D01*
Y-185854D01*
D02*
G37*
G36*
X43805D02*
X40185D01*
Y-189474D01*
X40768Y-189397D01*
X41778Y-188979D01*
X42645Y-188314D01*
X43310Y-187447D01*
X43728Y-186437D01*
X43805Y-185854D01*
D02*
G37*
G36*
X39185D02*
X35565D01*
X35642Y-186437D01*
X36060Y-187447D01*
X36725Y-188314D01*
X37592Y-188979D01*
X38602Y-189397D01*
X39185Y-189474D01*
Y-185854D01*
D02*
G37*
G36*
X23805D02*
X20185D01*
Y-189474D01*
X20768Y-189397D01*
X21778Y-188979D01*
X22645Y-188314D01*
X23310Y-187447D01*
X23728Y-186437D01*
X23805Y-185854D01*
D02*
G37*
G36*
X19185D02*
X15565D01*
X15642Y-186437D01*
X16060Y-187447D01*
X16725Y-188314D01*
X17592Y-188979D01*
X18602Y-189397D01*
X19185Y-189474D01*
Y-185854D01*
D02*
G37*
G36*
X295933Y-200447D02*
Y-204067D01*
X299553D01*
X299476Y-203484D01*
X299058Y-202474D01*
X298393Y-201607D01*
X297526Y-200942D01*
X296516Y-200524D01*
X295933Y-200447D01*
D02*
G37*
G36*
X294933D02*
X294350Y-200524D01*
X293340Y-200942D01*
X292473Y-201607D01*
X291808Y-202474D01*
X291390Y-203484D01*
X291313Y-204067D01*
X294933D01*
Y-200447D01*
D02*
G37*
G36*
X275933D02*
Y-204067D01*
X279553D01*
X279476Y-203484D01*
X279058Y-202474D01*
X278393Y-201607D01*
X277526Y-200942D01*
X276516Y-200524D01*
X275933Y-200447D01*
D02*
G37*
G36*
X274933D02*
X274350Y-200524D01*
X273340Y-200942D01*
X272473Y-201607D01*
X271808Y-202474D01*
X271390Y-203484D01*
X271313Y-204067D01*
X274933D01*
Y-200447D01*
D02*
G37*
G36*
X256563D02*
Y-204067D01*
X260183D01*
X260106Y-203484D01*
X259688Y-202474D01*
X259022Y-201607D01*
X258156Y-200942D01*
X257146Y-200524D01*
X256563Y-200447D01*
D02*
G37*
G36*
X255563D02*
X254980Y-200524D01*
X253970Y-200942D01*
X253103Y-201607D01*
X252438Y-202474D01*
X252020Y-203484D01*
X251943Y-204067D01*
X255563D01*
Y-200447D01*
D02*
G37*
G36*
X236563D02*
Y-204067D01*
X240183D01*
X240106Y-203484D01*
X239688Y-202474D01*
X239022Y-201607D01*
X238156Y-200942D01*
X237146Y-200524D01*
X236563Y-200447D01*
D02*
G37*
G36*
X235563D02*
X234980Y-200524D01*
X233970Y-200942D01*
X233103Y-201607D01*
X232438Y-202474D01*
X232020Y-203484D01*
X231943Y-204067D01*
X235563D01*
Y-200447D01*
D02*
G37*
G36*
X197508D02*
Y-204067D01*
X201128D01*
X201051Y-203484D01*
X200633Y-202474D01*
X199968Y-201607D01*
X199101Y-200942D01*
X198091Y-200524D01*
X197508Y-200447D01*
D02*
G37*
G36*
X196508D02*
X195925Y-200524D01*
X194915Y-200942D01*
X194048Y-201607D01*
X193383Y-202474D01*
X192965Y-203484D01*
X192888Y-204067D01*
X196508D01*
Y-200447D01*
D02*
G37*
G36*
X177508D02*
Y-204067D01*
X181128D01*
X181051Y-203484D01*
X180633Y-202474D01*
X179967Y-201607D01*
X179101Y-200942D01*
X178091Y-200524D01*
X177508Y-200447D01*
D02*
G37*
G36*
X176508D02*
X175925Y-200524D01*
X174915Y-200942D01*
X174048Y-201607D01*
X173383Y-202474D01*
X172965Y-203484D01*
X172888Y-204067D01*
X176508D01*
Y-200447D01*
D02*
G37*
G36*
X158138D02*
Y-204067D01*
X161758D01*
X161681Y-203484D01*
X161263Y-202474D01*
X160598Y-201607D01*
X159731Y-200942D01*
X158721Y-200524D01*
X158138Y-200447D01*
D02*
G37*
G36*
X157138D02*
X156555Y-200524D01*
X155545Y-200942D01*
X154678Y-201607D01*
X154013Y-202474D01*
X153595Y-203484D01*
X153518Y-204067D01*
X157138D01*
Y-200447D01*
D02*
G37*
G36*
X138138D02*
Y-204067D01*
X141758D01*
X141681Y-203484D01*
X141263Y-202474D01*
X140597Y-201607D01*
X139731Y-200942D01*
X138721Y-200524D01*
X138138Y-200447D01*
D02*
G37*
G36*
X137138D02*
X136555Y-200524D01*
X135545Y-200942D01*
X134678Y-201607D01*
X134013Y-202474D01*
X133595Y-203484D01*
X133518Y-204067D01*
X137138D01*
Y-200447D01*
D02*
G37*
G36*
X118768D02*
Y-204067D01*
X122387D01*
X122311Y-203484D01*
X121892Y-202474D01*
X121227Y-201607D01*
X120361Y-200942D01*
X119351Y-200524D01*
X118768Y-200447D01*
D02*
G37*
G36*
X117768D02*
X117184Y-200524D01*
X116175Y-200942D01*
X115308Y-201607D01*
X114643Y-202474D01*
X114225Y-203484D01*
X114148Y-204067D01*
X117768D01*
Y-200447D01*
D02*
G37*
G36*
X98768D02*
Y-204067D01*
X102387D01*
X102311Y-203484D01*
X101892Y-202474D01*
X101227Y-201607D01*
X100361Y-200942D01*
X99351Y-200524D01*
X98768Y-200447D01*
D02*
G37*
G36*
X97768D02*
X97184Y-200524D01*
X96175Y-200942D01*
X95308Y-201607D01*
X94643Y-202474D01*
X94225Y-203484D01*
X94148Y-204067D01*
X97768D01*
Y-200447D01*
D02*
G37*
G36*
X79398D02*
Y-204067D01*
X83017D01*
X82941Y-203484D01*
X82522Y-202474D01*
X81857Y-201607D01*
X80990Y-200942D01*
X79981Y-200524D01*
X79398Y-200447D01*
D02*
G37*
G36*
X78398D02*
X77815Y-200524D01*
X76805Y-200942D01*
X75938Y-201607D01*
X75273Y-202474D01*
X74855Y-203484D01*
X74778Y-204067D01*
X78398D01*
Y-200447D01*
D02*
G37*
G36*
X59398D02*
Y-204067D01*
X63017D01*
X62941Y-203484D01*
X62522Y-202474D01*
X61857Y-201607D01*
X60991Y-200942D01*
X59981Y-200524D01*
X59398Y-200447D01*
D02*
G37*
G36*
X58398D02*
X57815Y-200524D01*
X56805Y-200942D01*
X55938Y-201607D01*
X55273Y-202474D01*
X54855Y-203484D01*
X54778Y-204067D01*
X58398D01*
Y-200447D01*
D02*
G37*
G36*
X299553Y-205067D02*
X295933D01*
Y-208686D01*
X296516Y-208610D01*
X297526Y-208191D01*
X298393Y-207526D01*
X299058Y-206660D01*
X299476Y-205650D01*
X299553Y-205067D01*
D02*
G37*
G36*
X294933D02*
X291313D01*
X291390Y-205650D01*
X291808Y-206660D01*
X292473Y-207526D01*
X293340Y-208191D01*
X294350Y-208610D01*
X294933Y-208686D01*
Y-205067D01*
D02*
G37*
G36*
X279553D02*
X275933D01*
Y-208686D01*
X276516Y-208610D01*
X277526Y-208191D01*
X278393Y-207526D01*
X279058Y-206660D01*
X279476Y-205650D01*
X279553Y-205067D01*
D02*
G37*
G36*
X274933D02*
X271313D01*
X271390Y-205650D01*
X271808Y-206660D01*
X272473Y-207526D01*
X273340Y-208191D01*
X274350Y-208610D01*
X274933Y-208686D01*
Y-205067D01*
D02*
G37*
G36*
X260183D02*
X256563D01*
Y-208686D01*
X257146Y-208610D01*
X258156Y-208191D01*
X259022Y-207526D01*
X259688Y-206660D01*
X260106Y-205650D01*
X260183Y-205067D01*
D02*
G37*
G36*
X255563D02*
X251943D01*
X252020Y-205650D01*
X252438Y-206660D01*
X253103Y-207526D01*
X253970Y-208191D01*
X254980Y-208610D01*
X255563Y-208686D01*
Y-205067D01*
D02*
G37*
G36*
X240183D02*
X236563D01*
Y-208686D01*
X237146Y-208610D01*
X238156Y-208191D01*
X239022Y-207526D01*
X239688Y-206660D01*
X240106Y-205650D01*
X240183Y-205067D01*
D02*
G37*
G36*
X235563D02*
X231943D01*
X232020Y-205650D01*
X232438Y-206660D01*
X233103Y-207526D01*
X233970Y-208191D01*
X234980Y-208610D01*
X235563Y-208686D01*
Y-205067D01*
D02*
G37*
G36*
X201128D02*
X197508D01*
Y-208686D01*
X198091Y-208610D01*
X199101Y-208191D01*
X199968Y-207526D01*
X200633Y-206660D01*
X201051Y-205650D01*
X201128Y-205067D01*
D02*
G37*
G36*
X196508D02*
X192888D01*
X192965Y-205650D01*
X193383Y-206660D01*
X194048Y-207526D01*
X194915Y-208191D01*
X195925Y-208610D01*
X196508Y-208686D01*
Y-205067D01*
D02*
G37*
G36*
X181128D02*
X177508D01*
Y-208686D01*
X178091Y-208610D01*
X179101Y-208191D01*
X179967Y-207526D01*
X180633Y-206660D01*
X181051Y-205650D01*
X181128Y-205067D01*
D02*
G37*
G36*
X176508D02*
X172888D01*
X172965Y-205650D01*
X173383Y-206660D01*
X174048Y-207526D01*
X174915Y-208191D01*
X175925Y-208610D01*
X176508Y-208686D01*
Y-205067D01*
D02*
G37*
G36*
X161758D02*
X158138D01*
Y-208686D01*
X158721Y-208610D01*
X159731Y-208191D01*
X160598Y-207526D01*
X161263Y-206660D01*
X161681Y-205650D01*
X161758Y-205067D01*
D02*
G37*
G36*
X157138D02*
X153518D01*
X153595Y-205650D01*
X154013Y-206660D01*
X154678Y-207526D01*
X155545Y-208191D01*
X156555Y-208610D01*
X157138Y-208686D01*
Y-205067D01*
D02*
G37*
G36*
X141758D02*
X138138D01*
Y-208686D01*
X138721Y-208610D01*
X139731Y-208191D01*
X140597Y-207526D01*
X141263Y-206660D01*
X141681Y-205650D01*
X141758Y-205067D01*
D02*
G37*
G36*
X137138D02*
X133518D01*
X133595Y-205650D01*
X134013Y-206660D01*
X134678Y-207526D01*
X135545Y-208191D01*
X136555Y-208610D01*
X137138Y-208686D01*
Y-205067D01*
D02*
G37*
G36*
X122387D02*
X118768D01*
Y-208686D01*
X119351Y-208610D01*
X120361Y-208191D01*
X121227Y-207526D01*
X121892Y-206660D01*
X122311Y-205650D01*
X122387Y-205067D01*
D02*
G37*
G36*
X117768D02*
X114148D01*
X114225Y-205650D01*
X114643Y-206660D01*
X115308Y-207526D01*
X116175Y-208191D01*
X117184Y-208610D01*
X117768Y-208686D01*
Y-205067D01*
D02*
G37*
G36*
X102387D02*
X98768D01*
Y-208686D01*
X99351Y-208610D01*
X100361Y-208191D01*
X101227Y-207526D01*
X101892Y-206660D01*
X102311Y-205650D01*
X102387Y-205067D01*
D02*
G37*
G36*
X97768D02*
X94148D01*
X94225Y-205650D01*
X94643Y-206660D01*
X95308Y-207526D01*
X96175Y-208191D01*
X97184Y-208610D01*
X97768Y-208686D01*
Y-205067D01*
D02*
G37*
G36*
X83017D02*
X79398D01*
Y-208686D01*
X79981Y-208610D01*
X80990Y-208191D01*
X81857Y-207526D01*
X82522Y-206660D01*
X82941Y-205650D01*
X83017Y-205067D01*
D02*
G37*
G36*
X78398D02*
X74778D01*
X74855Y-205650D01*
X75273Y-206660D01*
X75938Y-207526D01*
X76805Y-208191D01*
X77815Y-208610D01*
X78398Y-208686D01*
Y-205067D01*
D02*
G37*
G36*
X63017D02*
X59398D01*
Y-208686D01*
X59981Y-208610D01*
X60991Y-208191D01*
X61857Y-207526D01*
X62522Y-206660D01*
X62941Y-205650D01*
X63017Y-205067D01*
D02*
G37*
G36*
X58398D02*
X54778D01*
X54855Y-205650D01*
X55273Y-206660D01*
X55938Y-207526D01*
X56805Y-208191D01*
X57815Y-208610D01*
X58398Y-208686D01*
Y-205067D01*
D02*
G37*
G36*
X413886Y-202742D02*
Y-212098D01*
X423243D01*
X423101Y-210666D01*
X422538Y-208808D01*
X421622Y-207095D01*
X420390Y-205594D01*
X418889Y-204362D01*
X417177Y-203447D01*
X415318Y-202883D01*
X413886Y-202742D01*
D02*
G37*
G36*
X412886D02*
X411453Y-202883D01*
X409595Y-203447D01*
X407882Y-204362D01*
X406381Y-205594D01*
X405149Y-207095D01*
X404234Y-208808D01*
X403670Y-210666D01*
X403529Y-212098D01*
X412886D01*
Y-202742D01*
D02*
G37*
G36*
X20185D02*
Y-212098D01*
X29542D01*
X29401Y-210666D01*
X28837Y-208808D01*
X27922Y-207095D01*
X26690Y-205594D01*
X25188Y-204362D01*
X23476Y-203447D01*
X21618Y-202883D01*
X20185Y-202742D01*
D02*
G37*
G36*
X19185D02*
X17752Y-202883D01*
X15894Y-203447D01*
X14182Y-204362D01*
X12680Y-205594D01*
X11449Y-207095D01*
X10533Y-208808D01*
X9969Y-210666D01*
X9828Y-212098D01*
X19185D01*
Y-202742D01*
D02*
G37*
G36*
X246563Y-210447D02*
Y-214067D01*
X250183D01*
X250106Y-213484D01*
X249688Y-212474D01*
X249023Y-211607D01*
X248156Y-210942D01*
X247146Y-210524D01*
X246563Y-210447D01*
D02*
G37*
G36*
X245563D02*
X244980Y-210524D01*
X243970Y-210942D01*
X243103Y-211607D01*
X242438Y-212474D01*
X242020Y-213484D01*
X241943Y-214067D01*
X245563D01*
Y-210447D01*
D02*
G37*
G36*
X250183Y-215067D02*
X246563D01*
Y-218686D01*
X247146Y-218610D01*
X248156Y-218192D01*
X249023Y-217526D01*
X249688Y-216659D01*
X250106Y-215650D01*
X250183Y-215067D01*
D02*
G37*
G36*
X245563D02*
X241943D01*
X242020Y-215650D01*
X242438Y-216659D01*
X243103Y-217526D01*
X243970Y-218192D01*
X244980Y-218610D01*
X245563Y-218686D01*
Y-215067D01*
D02*
G37*
G36*
X285433Y-210381D02*
X284350Y-210524D01*
X283340Y-210942D01*
X282473Y-211607D01*
X281808Y-212474D01*
X281390Y-213484D01*
X281248Y-214567D01*
X281390Y-215650D01*
X281808Y-216659D01*
X282473Y-217526D01*
X283340Y-218192D01*
X284350Y-218610D01*
X285433Y-218752D01*
X286516Y-218610D01*
X287526Y-218192D01*
X288392Y-217526D01*
X289058Y-216659D01*
X289476Y-215650D01*
X289618Y-214567D01*
X289476Y-213484D01*
X289058Y-212474D01*
X288392Y-211607D01*
X287526Y-210942D01*
X286516Y-210524D01*
X285433Y-210381D01*
D02*
G37*
G36*
X187008D02*
X185925Y-210524D01*
X184915Y-210942D01*
X184048Y-211607D01*
X183383Y-212474D01*
X182965Y-213484D01*
X182823Y-214567D01*
X182965Y-215650D01*
X183383Y-216659D01*
X184048Y-217526D01*
X184915Y-218192D01*
X185925Y-218610D01*
X187008Y-218752D01*
X188091Y-218610D01*
X189101Y-218192D01*
X189968Y-217526D01*
X190633Y-216659D01*
X191051Y-215650D01*
X191193Y-214567D01*
X191051Y-213484D01*
X190633Y-212474D01*
X189968Y-211607D01*
X189101Y-210942D01*
X188091Y-210524D01*
X187008Y-210381D01*
D02*
G37*
G36*
X147638D02*
X146555Y-210524D01*
X145545Y-210942D01*
X144678Y-211607D01*
X144013Y-212474D01*
X143595Y-213484D01*
X143453Y-214567D01*
X143595Y-215650D01*
X144013Y-216659D01*
X144678Y-217526D01*
X145545Y-218192D01*
X146555Y-218610D01*
X147638Y-218752D01*
X148721Y-218610D01*
X149731Y-218192D01*
X150598Y-217526D01*
X151263Y-216659D01*
X151681Y-215650D01*
X151823Y-214567D01*
X151681Y-213484D01*
X151263Y-212474D01*
X150598Y-211607D01*
X149731Y-210942D01*
X148721Y-210524D01*
X147638Y-210381D01*
D02*
G37*
G36*
X108268D02*
X107185Y-210524D01*
X106175Y-210942D01*
X105308Y-211607D01*
X104643Y-212474D01*
X104225Y-213484D01*
X104082Y-214567D01*
X104225Y-215650D01*
X104643Y-216659D01*
X105308Y-217526D01*
X106175Y-218192D01*
X107185Y-218610D01*
X108268Y-218752D01*
X109351Y-218610D01*
X110361Y-218192D01*
X111227Y-217526D01*
X111892Y-216659D01*
X112311Y-215650D01*
X112453Y-214567D01*
X112311Y-213484D01*
X111892Y-212474D01*
X111227Y-211607D01*
X110361Y-210942D01*
X109351Y-210524D01*
X108268Y-210381D01*
D02*
G37*
G36*
X68898D02*
X67814Y-210524D01*
X66805Y-210942D01*
X65938Y-211607D01*
X65273Y-212474D01*
X64855Y-213484D01*
X64712Y-214567D01*
X64855Y-215650D01*
X65273Y-216659D01*
X65938Y-217526D01*
X66805Y-218192D01*
X67814Y-218610D01*
X68898Y-218752D01*
X69981Y-218610D01*
X70991Y-218192D01*
X71857Y-217526D01*
X72522Y-216659D01*
X72941Y-215650D01*
X73083Y-214567D01*
X72941Y-213484D01*
X72522Y-212474D01*
X71857Y-211607D01*
X70991Y-210942D01*
X69981Y-210524D01*
X68898Y-210381D01*
D02*
G37*
G36*
X29542Y-213098D02*
X20185D01*
Y-222455D01*
X21618Y-222314D01*
X23476Y-221750D01*
X25188Y-220835D01*
X26690Y-219603D01*
X27922Y-218102D01*
X28837Y-216389D01*
X29401Y-214531D01*
X29542Y-213098D01*
D02*
G37*
G36*
X19185D02*
X9828D01*
X9969Y-214531D01*
X10533Y-216389D01*
X11449Y-218102D01*
X12680Y-219603D01*
X14182Y-220835D01*
X15894Y-221750D01*
X17752Y-222314D01*
X19185Y-222455D01*
Y-213098D01*
D02*
G37*
G36*
X423243D02*
X413886D01*
Y-222455D01*
X415318Y-222314D01*
X417177Y-221750D01*
X418889Y-220835D01*
X420390Y-219603D01*
X421622Y-218102D01*
X422538Y-216389D01*
X423101Y-214531D01*
X423243Y-213098D01*
D02*
G37*
G36*
X412886D02*
X403529D01*
X403670Y-214531D01*
X404234Y-216389D01*
X405149Y-218102D01*
X406381Y-219603D01*
X407882Y-220835D01*
X409595Y-221750D01*
X411453Y-222314D01*
X412886Y-222455D01*
Y-213098D01*
D02*
G37*
G36*
X295933Y-220447D02*
Y-224067D01*
X299553D01*
X299476Y-223484D01*
X299058Y-222474D01*
X298393Y-221607D01*
X297526Y-220942D01*
X296516Y-220524D01*
X295933Y-220447D01*
D02*
G37*
G36*
X294933D02*
X294350Y-220524D01*
X293340Y-220942D01*
X292473Y-221607D01*
X291808Y-222474D01*
X291390Y-223484D01*
X291313Y-224067D01*
X294933D01*
Y-220447D01*
D02*
G37*
G36*
X275933D02*
Y-224067D01*
X279553D01*
X279476Y-223484D01*
X279058Y-222474D01*
X278393Y-221607D01*
X277526Y-220942D01*
X276516Y-220524D01*
X275933Y-220447D01*
D02*
G37*
G36*
X274933D02*
X274350Y-220524D01*
X273340Y-220942D01*
X272473Y-221607D01*
X271808Y-222474D01*
X271390Y-223484D01*
X271313Y-224067D01*
X274933D01*
Y-220447D01*
D02*
G37*
G36*
X256563D02*
Y-224067D01*
X260183D01*
X260106Y-223484D01*
X259688Y-222474D01*
X259022Y-221607D01*
X258156Y-220942D01*
X257146Y-220524D01*
X256563Y-220447D01*
D02*
G37*
G36*
X255563D02*
X254980Y-220524D01*
X253970Y-220942D01*
X253103Y-221607D01*
X252438Y-222474D01*
X252020Y-223484D01*
X251943Y-224067D01*
X255563D01*
Y-220447D01*
D02*
G37*
G36*
X236563D02*
Y-224067D01*
X240183D01*
X240106Y-223484D01*
X239688Y-222474D01*
X239022Y-221607D01*
X238156Y-220942D01*
X237146Y-220524D01*
X236563Y-220447D01*
D02*
G37*
G36*
X235563D02*
X234980Y-220524D01*
X233970Y-220942D01*
X233103Y-221607D01*
X232438Y-222474D01*
X232020Y-223484D01*
X231943Y-224067D01*
X235563D01*
Y-220447D01*
D02*
G37*
G36*
X197508D02*
Y-224067D01*
X201128D01*
X201051Y-223484D01*
X200633Y-222474D01*
X199968Y-221607D01*
X199101Y-220942D01*
X198091Y-220524D01*
X197508Y-220447D01*
D02*
G37*
G36*
X196508D02*
X195925Y-220524D01*
X194915Y-220942D01*
X194048Y-221607D01*
X193383Y-222474D01*
X192965Y-223484D01*
X192888Y-224067D01*
X196508D01*
Y-220447D01*
D02*
G37*
G36*
X177508D02*
Y-224067D01*
X181128D01*
X181051Y-223484D01*
X180633Y-222474D01*
X179967Y-221607D01*
X179101Y-220942D01*
X178091Y-220524D01*
X177508Y-220447D01*
D02*
G37*
G36*
X176508D02*
X175925Y-220524D01*
X174915Y-220942D01*
X174048Y-221607D01*
X173383Y-222474D01*
X172965Y-223484D01*
X172888Y-224067D01*
X176508D01*
Y-220447D01*
D02*
G37*
G36*
X158138D02*
Y-224067D01*
X161758D01*
X161681Y-223484D01*
X161263Y-222474D01*
X160598Y-221607D01*
X159731Y-220942D01*
X158721Y-220524D01*
X158138Y-220447D01*
D02*
G37*
G36*
X157138D02*
X156555Y-220524D01*
X155545Y-220942D01*
X154678Y-221607D01*
X154013Y-222474D01*
X153595Y-223484D01*
X153518Y-224067D01*
X157138D01*
Y-220447D01*
D02*
G37*
G36*
X138138D02*
Y-224067D01*
X141758D01*
X141681Y-223484D01*
X141263Y-222474D01*
X140597Y-221607D01*
X139731Y-220942D01*
X138721Y-220524D01*
X138138Y-220447D01*
D02*
G37*
G36*
X137138D02*
X136555Y-220524D01*
X135545Y-220942D01*
X134678Y-221607D01*
X134013Y-222474D01*
X133595Y-223484D01*
X133518Y-224067D01*
X137138D01*
Y-220447D01*
D02*
G37*
G36*
X118768D02*
Y-224067D01*
X122387D01*
X122311Y-223484D01*
X121892Y-222474D01*
X121227Y-221607D01*
X120361Y-220942D01*
X119351Y-220524D01*
X118768Y-220447D01*
D02*
G37*
G36*
X117768D02*
X117184Y-220524D01*
X116175Y-220942D01*
X115308Y-221607D01*
X114643Y-222474D01*
X114225Y-223484D01*
X114148Y-224067D01*
X117768D01*
Y-220447D01*
D02*
G37*
G36*
X98768D02*
Y-224067D01*
X102387D01*
X102311Y-223484D01*
X101892Y-222474D01*
X101227Y-221607D01*
X100361Y-220942D01*
X99351Y-220524D01*
X98768Y-220447D01*
D02*
G37*
G36*
X97768D02*
X97184Y-220524D01*
X96175Y-220942D01*
X95308Y-221607D01*
X94643Y-222474D01*
X94225Y-223484D01*
X94148Y-224067D01*
X97768D01*
Y-220447D01*
D02*
G37*
G36*
X79398D02*
Y-224067D01*
X83017D01*
X82941Y-223484D01*
X82522Y-222474D01*
X81857Y-221607D01*
X80990Y-220942D01*
X79981Y-220524D01*
X79398Y-220447D01*
D02*
G37*
G36*
X78398D02*
X77815Y-220524D01*
X76805Y-220942D01*
X75938Y-221607D01*
X75273Y-222474D01*
X74855Y-223484D01*
X74778Y-224067D01*
X78398D01*
Y-220447D01*
D02*
G37*
G36*
X59398D02*
Y-224067D01*
X63017D01*
X62941Y-223484D01*
X62522Y-222474D01*
X61857Y-221607D01*
X60991Y-220942D01*
X59981Y-220524D01*
X59398Y-220447D01*
D02*
G37*
G36*
X58398D02*
X57815Y-220524D01*
X56805Y-220942D01*
X55938Y-221607D01*
X55273Y-222474D01*
X54855Y-223484D01*
X54778Y-224067D01*
X58398D01*
Y-220447D01*
D02*
G37*
G36*
X299553Y-225067D02*
X295933D01*
Y-228686D01*
X296516Y-228610D01*
X297526Y-228191D01*
X298393Y-227526D01*
X299058Y-226659D01*
X299476Y-225650D01*
X299553Y-225067D01*
D02*
G37*
G36*
X294933D02*
X291313D01*
X291390Y-225650D01*
X291808Y-226659D01*
X292473Y-227526D01*
X293340Y-228191D01*
X294350Y-228610D01*
X294933Y-228686D01*
Y-225067D01*
D02*
G37*
G36*
X279553D02*
X275933D01*
Y-228686D01*
X276516Y-228610D01*
X277526Y-228191D01*
X278393Y-227526D01*
X279058Y-226659D01*
X279476Y-225650D01*
X279553Y-225067D01*
D02*
G37*
G36*
X274933D02*
X271313D01*
X271390Y-225650D01*
X271808Y-226659D01*
X272473Y-227526D01*
X273340Y-228191D01*
X274350Y-228610D01*
X274933Y-228686D01*
Y-225067D01*
D02*
G37*
G36*
X260183D02*
X256563D01*
Y-228686D01*
X257146Y-228610D01*
X258156Y-228191D01*
X259022Y-227526D01*
X259688Y-226659D01*
X260106Y-225650D01*
X260183Y-225067D01*
D02*
G37*
G36*
X255563D02*
X251943D01*
X252020Y-225650D01*
X252438Y-226659D01*
X253103Y-227526D01*
X253970Y-228191D01*
X254980Y-228610D01*
X255563Y-228686D01*
Y-225067D01*
D02*
G37*
G36*
X240183D02*
X236563D01*
Y-228686D01*
X237146Y-228610D01*
X238156Y-228191D01*
X239022Y-227526D01*
X239688Y-226659D01*
X240106Y-225650D01*
X240183Y-225067D01*
D02*
G37*
G36*
X235563D02*
X231943D01*
X232020Y-225650D01*
X232438Y-226659D01*
X233103Y-227526D01*
X233970Y-228191D01*
X234980Y-228610D01*
X235563Y-228686D01*
Y-225067D01*
D02*
G37*
G36*
X201128D02*
X197508D01*
Y-228686D01*
X198091Y-228610D01*
X199101Y-228191D01*
X199968Y-227526D01*
X200633Y-226659D01*
X201051Y-225650D01*
X201128Y-225067D01*
D02*
G37*
G36*
X196508D02*
X192888D01*
X192965Y-225650D01*
X193383Y-226659D01*
X194048Y-227526D01*
X194915Y-228191D01*
X195925Y-228610D01*
X196508Y-228686D01*
Y-225067D01*
D02*
G37*
G36*
X181128D02*
X177508D01*
Y-228686D01*
X178091Y-228610D01*
X179101Y-228191D01*
X179967Y-227526D01*
X180633Y-226659D01*
X181051Y-225650D01*
X181128Y-225067D01*
D02*
G37*
G36*
X176508D02*
X172888D01*
X172965Y-225650D01*
X173383Y-226659D01*
X174048Y-227526D01*
X174915Y-228191D01*
X175925Y-228610D01*
X176508Y-228686D01*
Y-225067D01*
D02*
G37*
G36*
X161758D02*
X158138D01*
Y-228686D01*
X158721Y-228610D01*
X159731Y-228191D01*
X160598Y-227526D01*
X161263Y-226659D01*
X161681Y-225650D01*
X161758Y-225067D01*
D02*
G37*
G36*
X157138D02*
X153518D01*
X153595Y-225650D01*
X154013Y-226659D01*
X154678Y-227526D01*
X155545Y-228191D01*
X156555Y-228610D01*
X157138Y-228686D01*
Y-225067D01*
D02*
G37*
G36*
X141758D02*
X138138D01*
Y-228686D01*
X138721Y-228610D01*
X139731Y-228191D01*
X140597Y-227526D01*
X141263Y-226659D01*
X141681Y-225650D01*
X141758Y-225067D01*
D02*
G37*
G36*
X137138D02*
X133518D01*
X133595Y-225650D01*
X134013Y-226659D01*
X134678Y-227526D01*
X135545Y-228191D01*
X136555Y-228610D01*
X137138Y-228686D01*
Y-225067D01*
D02*
G37*
G36*
X122387D02*
X118768D01*
Y-228686D01*
X119351Y-228610D01*
X120361Y-228191D01*
X121227Y-227526D01*
X121892Y-226659D01*
X122311Y-225650D01*
X122387Y-225067D01*
D02*
G37*
G36*
X117768D02*
X114148D01*
X114225Y-225650D01*
X114643Y-226659D01*
X115308Y-227526D01*
X116175Y-228191D01*
X117184Y-228610D01*
X117768Y-228686D01*
Y-225067D01*
D02*
G37*
G36*
X102387D02*
X98768D01*
Y-228686D01*
X99351Y-228610D01*
X100361Y-228191D01*
X101227Y-227526D01*
X101892Y-226659D01*
X102311Y-225650D01*
X102387Y-225067D01*
D02*
G37*
G36*
X97768D02*
X94148D01*
X94225Y-225650D01*
X94643Y-226659D01*
X95308Y-227526D01*
X96175Y-228191D01*
X97184Y-228610D01*
X97768Y-228686D01*
Y-225067D01*
D02*
G37*
G36*
X83017D02*
X79398D01*
Y-228686D01*
X79981Y-228610D01*
X80990Y-228191D01*
X81857Y-227526D01*
X82522Y-226659D01*
X82941Y-225650D01*
X83017Y-225067D01*
D02*
G37*
G36*
X78398D02*
X74778D01*
X74855Y-225650D01*
X75273Y-226659D01*
X75938Y-227526D01*
X76805Y-228191D01*
X77815Y-228610D01*
X78398Y-228686D01*
Y-225067D01*
D02*
G37*
G36*
X63017D02*
X59398D01*
Y-228686D01*
X59981Y-228610D01*
X60991Y-228191D01*
X61857Y-227526D01*
X62522Y-226659D01*
X62941Y-225650D01*
X63017Y-225067D01*
D02*
G37*
G36*
X58398D02*
X54778D01*
X54855Y-225650D01*
X55273Y-226659D01*
X55938Y-227526D01*
X56805Y-228191D01*
X57815Y-228610D01*
X58398Y-228686D01*
Y-225067D01*
D02*
G37*
%LPD*%
D16*
X413386Y-212598D02*
D03*
Y-27559D02*
D03*
X19685Y-212598D02*
D03*
Y-27559D02*
D03*
D17*
X285433Y-214567D02*
D03*
X275433Y-204567D02*
D03*
Y-224567D02*
D03*
X295433D02*
D03*
Y-204567D02*
D03*
X246063Y-214567D02*
D03*
X236063Y-204567D02*
D03*
Y-224567D02*
D03*
X256063D02*
D03*
Y-204567D02*
D03*
X187008Y-214567D02*
D03*
X177008Y-204567D02*
D03*
Y-224567D02*
D03*
X197008D02*
D03*
Y-204567D02*
D03*
X147638Y-214567D02*
D03*
X137638Y-204567D02*
D03*
Y-224567D02*
D03*
X157638D02*
D03*
Y-204567D02*
D03*
X108268Y-214567D02*
D03*
X98268Y-204567D02*
D03*
Y-224567D02*
D03*
X118268D02*
D03*
Y-204567D02*
D03*
X68898Y-214567D02*
D03*
X58898Y-204567D02*
D03*
Y-224567D02*
D03*
X78898D02*
D03*
Y-204567D02*
D03*
X187008Y-27559D02*
D03*
X177008Y-17559D02*
D03*
Y-37559D02*
D03*
X197008D02*
D03*
Y-17559D02*
D03*
X147638Y-27559D02*
D03*
X137638Y-17559D02*
D03*
Y-37559D02*
D03*
X157638D02*
D03*
Y-17559D02*
D03*
X157795Y-165354D02*
D03*
Y-185354D02*
D03*
X137795D02*
D03*
Y-165354D02*
D03*
X147795Y-175354D02*
D03*
X118425Y-165354D02*
D03*
Y-185354D02*
D03*
X98425D02*
D03*
Y-165354D02*
D03*
X108425Y-175354D02*
D03*
X79055Y-165354D02*
D03*
Y-185354D02*
D03*
X59055D02*
D03*
Y-165354D02*
D03*
X69055Y-175354D02*
D03*
X39685Y-165354D02*
D03*
Y-185354D02*
D03*
X19685D02*
D03*
Y-165354D02*
D03*
X29685Y-175354D02*
D03*
X161260Y-66772D02*
D03*
Y-86772D02*
D03*
X141260D02*
D03*
Y-66772D02*
D03*
X151260Y-76772D02*
D03*
X121890Y-66772D02*
D03*
Y-86772D02*
D03*
X101890D02*
D03*
Y-66772D02*
D03*
X111890Y-76772D02*
D03*
X82520Y-66772D02*
D03*
Y-86772D02*
D03*
X62520D02*
D03*
Y-66772D02*
D03*
X72520Y-76772D02*
D03*
X43465Y-66772D02*
D03*
Y-86772D02*
D03*
X23465D02*
D03*
Y-66772D02*
D03*
X33465Y-76772D02*
D03*
X118268Y-17559D02*
D03*
Y-37559D02*
D03*
X98268D02*
D03*
Y-17559D02*
D03*
X108268Y-27559D02*
D03*
X78898Y-17559D02*
D03*
Y-37559D02*
D03*
X58898D02*
D03*
Y-17559D02*
D03*
X68898Y-27559D02*
D03*
D18*
X283412Y-120384D02*
D03*
X272545D02*
D03*
X261678D02*
D03*
X250811D02*
D03*
X239944D02*
D03*
X229077D02*
D03*
X218210D02*
D03*
X207343D02*
D03*
X196476D02*
D03*
X185609D02*
D03*
X174742D02*
D03*
X163875D02*
D03*
X288829Y-131584D02*
D03*
X277962D02*
D03*
X267095D02*
D03*
X256228D02*
D03*
X245361D02*
D03*
X234494D02*
D03*
X223627D02*
D03*
X212760D02*
D03*
X201893D02*
D03*
X191026D02*
D03*
X180159D02*
D03*
X169292D02*
D03*
X158425D02*
D03*
X299696D02*
D03*
X310563D02*
D03*
X321430D02*
D03*
X294279Y-120384D02*
D03*
X305146D02*
D03*
X316013D02*
D03*
X125824Y-131584D02*
D03*
X136691D02*
D03*
X147558D02*
D03*
X131274Y-120384D02*
D03*
X142141D02*
D03*
X153008D02*
D03*
D19*
X98425Y-125984D02*
D03*
X348824D02*
D03*
M02*
