G04*
G04 #@! TF.GenerationSoftware,Altium Limited,Altium Designer,19.1.5 (86)*
G04*
G04 Layer_Color=65535*
%FSLAX25Y25*%
%MOIN*%
G70*
G01*
G75*
%ADD10C,0.00787*%
%ADD11C,0.01000*%
D10*
X545554Y305790D02*
G03*
X538956Y311326I-6598J-1164D01*
G01*
X542256Y279226D02*
G03*
X548854Y287090I0J6700D01*
G01*
X331467D02*
G03*
X338065Y279226I6598J-1164D01*
G01*
X341365Y311326D02*
G03*
X334767Y305790I0J-6700D01*
G01*
X546538Y305964D02*
G03*
X538956Y312326I-7583J-1338D01*
G01*
X542256Y278226D02*
G03*
X549838Y287264I0J7700D01*
G01*
X330482D02*
G03*
X338065Y278226I7583J-1338D01*
G01*
X341365Y312326D02*
G03*
X333782Y305964I0J-7700D01*
G01*
X573611Y270476D02*
G03*
X577111Y273976I0J3500D01*
G01*
Y316576D02*
G03*
X573611Y320076I-3500J-0D01*
G01*
X306709Y320076D02*
G03*
X303209Y316576I0J-3500D01*
G01*
X303209Y273976D02*
G03*
X306709Y270476I3500J0D01*
G01*
X596181Y380158D02*
Y406929D01*
X567795Y378543D02*
X594567D01*
X566181Y406929D02*
X567795Y408543D01*
X594567D02*
X596181Y406929D01*
X566181Y380158D02*
X567795Y378543D01*
X566181Y380158D02*
Y406929D01*
X594567Y378543D02*
X596181Y380158D01*
X567795Y408543D02*
X594567D01*
X595709Y193307D02*
Y220079D01*
X567323Y191693D02*
X594094D01*
X565709Y220079D02*
X567323Y221693D01*
X594094D02*
X595709Y220079D01*
X565709Y193307D02*
X567323Y191693D01*
X565709Y193307D02*
Y220079D01*
X594094Y191693D02*
X595709Y193307D01*
X567323Y221693D02*
X594094D01*
X556339Y193307D02*
Y220079D01*
X527953Y191693D02*
X554724D01*
X526339Y220079D02*
X527953Y221693D01*
X554724D02*
X556339Y220079D01*
X526339Y193307D02*
X527953Y191693D01*
X526339Y193307D02*
Y220079D01*
X554724Y191693D02*
X556339Y193307D01*
X527953Y221693D02*
X554724D01*
X516968Y193307D02*
Y220079D01*
X488583Y191693D02*
X515354D01*
X486968Y220079D02*
X488583Y221693D01*
X515354D02*
X516968Y220079D01*
X486968Y193307D02*
X488583Y191693D01*
X486968Y193307D02*
Y220079D01*
X515354Y191693D02*
X516968Y193307D01*
X488583Y221693D02*
X515354D01*
X477598Y193307D02*
Y220079D01*
X449213Y191693D02*
X475984D01*
X447598Y220079D02*
X449213Y221693D01*
X475984D02*
X477598Y220079D01*
X447598Y193307D02*
X449213Y191693D01*
X447598Y193307D02*
Y220079D01*
X475984Y191693D02*
X477598Y193307D01*
X449213Y221693D02*
X475984D01*
X418543Y193307D02*
Y220079D01*
X390158Y191693D02*
X416929D01*
X388543Y220079D02*
X390158Y221693D01*
X416929D02*
X418543Y220079D01*
X388543Y193307D02*
X390158Y191693D01*
X388543Y193307D02*
Y220079D01*
X416929Y191693D02*
X418543Y193307D01*
X390158Y221693D02*
X416929D01*
X379173Y193307D02*
Y220079D01*
X350788Y191693D02*
X377559D01*
X349173Y220079D02*
X350788Y221693D01*
X377559D02*
X379173Y220079D01*
X349173Y193307D02*
X350788Y191693D01*
X349173Y193307D02*
Y220079D01*
X377559Y191693D02*
X379173Y193307D01*
X350788Y221693D02*
X377559D01*
X339803Y193307D02*
Y220079D01*
X311417Y191693D02*
X338189D01*
X309803Y220079D02*
X311417Y221693D01*
X338189D02*
X339803Y220079D01*
X309803Y193307D02*
X311417Y191693D01*
X309803Y193307D02*
Y220079D01*
X338189Y191693D02*
X339803Y193307D01*
X311417Y221693D02*
X338189D01*
X300433Y193307D02*
Y220079D01*
X272047Y191693D02*
X298819D01*
X270433Y220079D02*
X272047Y221693D01*
X298819D02*
X300433Y220079D01*
X270433Y193307D02*
X272047Y191693D01*
X270433Y193307D02*
Y220079D01*
X298819Y191693D02*
X300433Y193307D01*
X272047Y221693D02*
X298819D01*
X418543Y380315D02*
Y407087D01*
X390158Y378701D02*
X416929D01*
X388543Y407087D02*
X390158Y408701D01*
X416929D02*
X418543Y407087D01*
X388543Y380315D02*
X390158Y378701D01*
X388543Y380315D02*
Y407087D01*
X416929Y378701D02*
X418543Y380315D01*
X390158Y408701D02*
X416929D01*
X379173Y380315D02*
Y407087D01*
X350788Y378701D02*
X377559D01*
X349173Y407087D02*
X350788Y408701D01*
X377559D02*
X379173Y407087D01*
X349173Y380315D02*
X350788Y378701D01*
X349173Y380315D02*
Y407087D01*
X377559Y378701D02*
X379173Y380315D01*
X350788Y408701D02*
X377559D01*
X545554Y305790D02*
X548854Y287090D01*
X338065Y279226D02*
X542256D01*
X331467Y287090D02*
X334767Y305790D01*
X341365Y311326D02*
X538956D01*
X546538Y305964D02*
X549838Y287264D01*
X338065Y278226D02*
X542256D01*
X330482Y287264D02*
X333782Y305964D01*
X341365Y312326D02*
X538956D01*
X306709Y320076D02*
X573611D01*
X306709Y270476D02*
X573611D01*
X303209Y273976D02*
Y289370D01*
X577111Y273976D02*
Y289370D01*
Y301181D02*
Y316576D01*
X303209Y301181D02*
Y316576D01*
X350945Y260906D02*
X377716D01*
Y230906D02*
X379331Y232520D01*
X349331D02*
Y259291D01*
Y232520D02*
X350945Y230906D01*
X377716Y260906D02*
X379331Y259291D01*
X349331D02*
X350945Y260906D01*
Y230906D02*
X377716D01*
X379331Y232520D02*
Y259291D01*
X311575Y260906D02*
X338346D01*
Y230906D02*
X339961Y232520D01*
X309961D02*
Y259291D01*
Y232520D02*
X311575Y230906D01*
X338346Y260906D02*
X339961Y259291D01*
X309961D02*
X311575Y260906D01*
Y230906D02*
X338346D01*
X339961Y232520D02*
Y259291D01*
X272205Y260906D02*
X298976D01*
Y230906D02*
X300591Y232520D01*
X270591D02*
Y259291D01*
Y232520D02*
X272205Y230906D01*
X298976Y260906D02*
X300591Y259291D01*
X270591D02*
X272205Y260906D01*
Y230906D02*
X298976D01*
X300591Y232520D02*
Y259291D01*
X232835Y260906D02*
X259606D01*
Y230906D02*
X261220Y232520D01*
X231220D02*
Y259291D01*
Y232520D02*
X232835Y230906D01*
X259606Y260906D02*
X261220Y259291D01*
X231220D02*
X232835Y260906D01*
Y230906D02*
X259606D01*
X261220Y232520D02*
Y259291D01*
X354409Y359488D02*
X381181D01*
Y329488D02*
X382795Y331102D01*
X352795D02*
Y357874D01*
Y331102D02*
X354409Y329488D01*
X381181Y359488D02*
X382795Y357874D01*
X352795D02*
X354409Y359488D01*
Y329488D02*
X381181D01*
X382795Y331102D02*
Y357874D01*
X315039Y359488D02*
X341811D01*
Y329488D02*
X343425Y331102D01*
X313425D02*
Y357874D01*
Y331102D02*
X315039Y329488D01*
X341811Y359488D02*
X343425Y357874D01*
X313425D02*
X315039Y359488D01*
Y329488D02*
X341811D01*
X343425Y331102D02*
Y357874D01*
X275669Y359488D02*
X302441D01*
Y329488D02*
X304055Y331102D01*
X274055D02*
Y357874D01*
Y331102D02*
X275669Y329488D01*
X302441Y359488D02*
X304055Y357874D01*
X274055D02*
X275669Y359488D01*
Y329488D02*
X302441D01*
X304055Y331102D02*
Y357874D01*
X236614Y359488D02*
X263386D01*
Y329488D02*
X265000Y331102D01*
X235000D02*
Y357874D01*
Y331102D02*
X236614Y329488D01*
X263386Y359488D02*
X265000Y357874D01*
X235000D02*
X236614Y359488D01*
Y329488D02*
X263386D01*
X265000Y331102D02*
Y357874D01*
X311418Y408701D02*
X338189D01*
Y378701D02*
X339803Y380315D01*
X309803D02*
Y407087D01*
Y380315D02*
X311418Y378701D01*
X338189Y408701D02*
X339803Y407087D01*
X309803D02*
X311418Y408701D01*
Y378701D02*
X338189D01*
X339803Y380315D02*
Y407087D01*
X272047Y408701D02*
X298819D01*
Y378701D02*
X300433Y380315D01*
X270433D02*
Y407087D01*
Y380315D02*
X272047Y378701D01*
X298819Y408701D02*
X300433Y407087D01*
X270433D02*
X272047Y408701D01*
Y378701D02*
X298819D01*
X300433Y380315D02*
Y407087D01*
X606535Y260906D02*
X633307D01*
Y230906D02*
X634921Y232520D01*
X604921D02*
Y259291D01*
Y232520D02*
X606535Y230906D01*
X633307Y260906D02*
X634921Y259291D01*
X604921D02*
X606535Y260906D01*
Y230906D02*
X633307D01*
X634921Y232520D02*
Y259291D01*
X567165Y260906D02*
X593937D01*
Y230906D02*
X595551Y232520D01*
X565551D02*
Y259291D01*
Y232520D02*
X567165Y230906D01*
X593937Y260906D02*
X595551Y259291D01*
X565551D02*
X567165Y260906D01*
Y230906D02*
X593937D01*
X595551Y232520D02*
Y259291D01*
X527795Y260906D02*
X554567D01*
Y230906D02*
X556181Y232520D01*
X526181D02*
Y259291D01*
Y232520D02*
X527795Y230906D01*
X554567Y260906D02*
X556181Y259291D01*
X526181D02*
X527795Y260906D01*
Y230906D02*
X554567D01*
X556181Y232520D02*
Y259291D01*
X488425Y260906D02*
X515197D01*
Y230906D02*
X516811Y232520D01*
X486811D02*
Y259291D01*
Y232520D02*
X488425Y230906D01*
X515197Y260906D02*
X516811Y259291D01*
X486811D02*
X488425Y260906D01*
Y230906D02*
X515197D01*
X516811Y232520D02*
Y259291D01*
X528425Y408228D02*
X555197D01*
Y378228D02*
X556811Y379843D01*
X526811D02*
Y406614D01*
Y379843D02*
X528425Y378228D01*
X555197Y408228D02*
X556811Y406614D01*
X526811D02*
X528425Y408228D01*
Y378228D02*
X555197D01*
X556811Y379843D02*
Y406614D01*
X488740Y408228D02*
X515512D01*
Y378228D02*
X517126Y379843D01*
X487126D02*
Y406614D01*
Y379843D02*
X488740Y378228D01*
X515512Y408228D02*
X517126Y406614D01*
X487126D02*
X488740Y408228D01*
Y378228D02*
X515512D01*
X517126Y379843D02*
Y406614D01*
X449370Y408543D02*
X476142D01*
Y378543D02*
X477756Y380158D01*
X447756D02*
Y406929D01*
Y380158D02*
X449370Y378543D01*
X476142Y408543D02*
X477756Y406929D01*
X447756D02*
X449370Y408543D01*
Y378543D02*
X476142D01*
X477756Y380158D02*
Y406929D01*
X606535Y359331D02*
X633307D01*
Y329331D02*
X634921Y330945D01*
X604921D02*
Y357717D01*
Y330945D02*
X606535Y329331D01*
X633307Y359331D02*
X634921Y357717D01*
X604921D02*
X606535Y359331D01*
Y329331D02*
X633307D01*
X634921Y330945D02*
Y357717D01*
X567165Y359331D02*
X593937D01*
Y329331D02*
X595551Y330945D01*
X565551D02*
Y357717D01*
Y330945D02*
X567165Y329331D01*
X593937Y359331D02*
X595551Y357717D01*
X565551D02*
X567165Y359331D01*
Y329331D02*
X593937D01*
X595551Y330945D02*
Y357717D01*
X527795Y359331D02*
X554567D01*
Y329331D02*
X556181Y330945D01*
X526181D02*
Y357717D01*
Y330945D02*
X527795Y329331D01*
X554567Y359331D02*
X556181Y357717D01*
X526181D02*
X527795Y359331D01*
Y329331D02*
X554567D01*
X556181Y330945D02*
Y357717D01*
X488425Y359331D02*
X515197D01*
Y329331D02*
X516811Y330945D01*
X486811D02*
Y357717D01*
Y330945D02*
X488425Y329331D01*
X515197Y359331D02*
X516811Y357717D01*
X486811D02*
X488425Y359331D01*
Y329331D02*
X515197D01*
X516811Y330945D02*
Y357717D01*
X596850Y310276D02*
X623622D01*
Y280276D02*
X625236Y281890D01*
X595236D02*
Y308661D01*
Y281890D02*
X596850Y280276D01*
X623622Y310276D02*
X625236Y308661D01*
X595236D02*
X596850Y310276D01*
Y280276D02*
X623622D01*
X625236Y281890D02*
Y308661D01*
X419685Y261063D02*
X446457D01*
Y231063D02*
X448071Y232677D01*
X418071D02*
Y259449D01*
Y232677D02*
X419685Y231063D01*
X446457Y261063D02*
X448071Y259449D01*
X418071D02*
X419685Y261063D01*
Y231063D02*
X446457D01*
X448071Y232677D02*
Y259449D01*
X400000Y359488D02*
X426772D01*
Y329488D02*
X428386Y331102D01*
X398386D02*
Y357874D01*
Y331102D02*
X400000Y329488D01*
X426772Y359488D02*
X428386Y357874D01*
X398386D02*
X400000Y359488D01*
Y329488D02*
X426772D01*
X428386Y331102D02*
Y357874D01*
X439370Y359488D02*
X466142D01*
Y329488D02*
X467756Y331102D01*
X437756D02*
Y357874D01*
Y331102D02*
X439370Y329488D01*
X466142Y359488D02*
X467756Y357874D01*
X437756D02*
X439370Y359488D01*
Y329488D02*
X466142D01*
X467756Y331102D02*
Y357874D01*
X329580Y309000D02*
Y308775D01*
X329356Y308325D01*
X329131Y308100D01*
X328681Y307875D01*
X327781D01*
X327331Y308100D01*
X327106Y308325D01*
X326881Y308775D01*
Y309225D01*
X327106Y309674D01*
X327556Y310349D01*
X329805Y312598D01*
X326657D01*
X324250Y307875D02*
X324925Y308100D01*
X325375Y308775D01*
X325599Y309899D01*
Y310574D01*
X325375Y311699D01*
X324925Y312373D01*
X324250Y312598D01*
X323800D01*
X323125Y312373D01*
X322675Y311699D01*
X322450Y310574D01*
Y309899D01*
X322675Y308775D01*
X323125Y308100D01*
X323800Y307875D01*
X324250D01*
X558393Y276491D02*
X557943Y276266D01*
X557269Y275592D01*
Y280315D01*
X552005Y277166D02*
X552230Y277841D01*
X552680Y278291D01*
X553355Y278516D01*
X553580D01*
X554255Y278291D01*
X554705Y277841D01*
X554929Y277166D01*
Y276941D01*
X554705Y276266D01*
X554255Y275816D01*
X553580Y275592D01*
X553355D01*
X552680Y275816D01*
X552230Y276266D01*
X552005Y277166D01*
Y278291D01*
X552230Y279415D01*
X552680Y280090D01*
X553355Y280315D01*
X553805D01*
X554480Y280090D01*
X554705Y279640D01*
X555975Y307875D02*
X553501D01*
X554850Y309674D01*
X554176D01*
X553726Y309899D01*
X553501Y310124D01*
X553276Y310799D01*
Y311249D01*
X553501Y311924D01*
X553951Y312373D01*
X554625Y312598D01*
X555300D01*
X555975Y312373D01*
X556200Y312149D01*
X556425Y311699D01*
X549070Y307875D02*
X551319Y312598D01*
X552219Y307875D02*
X549070D01*
X326459Y276491D02*
X326009Y276266D01*
X325334Y275592D01*
Y280315D01*
D11*
X292131Y306874D02*
X290131D01*
X291131D01*
Y301875D01*
X290131Y300876D01*
X289132D01*
X288132Y301875D01*
X297129Y300876D02*
Y306874D01*
X294130Y303875D01*
X298129D01*
X300128Y300876D02*
X302127D01*
X301128D01*
Y306874D01*
X300128Y305874D01*
X595815Y313700D02*
Y317699D01*
X597814Y319698D01*
X599814Y317699D01*
Y313700D01*
Y316699D01*
X595815D01*
X601813Y319698D02*
X603812D01*
X602813D01*
Y313700D01*
X601813D01*
X603812D01*
X610810Y318698D02*
X609810Y319698D01*
X607811D01*
X606811Y318698D01*
Y317699D01*
X607811Y316699D01*
X609810D01*
X610810Y315699D01*
Y314700D01*
X609810Y313700D01*
X607811D01*
X606811Y314700D01*
X616808Y319698D02*
X612810D01*
Y313700D01*
X616808D01*
X612810Y316699D02*
X614809D01*
X618808Y313700D02*
Y319698D01*
X622806Y313700D01*
Y319698D01*
X628804Y318698D02*
X627805Y319698D01*
X625805D01*
X624806Y318698D01*
Y317699D01*
X625805Y316699D01*
X627805D01*
X628804Y315699D01*
Y314700D01*
X627805Y313700D01*
X625805D01*
X624806Y314700D01*
X634802Y319698D02*
X630804D01*
Y313700D01*
X634802D01*
X630804Y316699D02*
X632803D01*
X418700Y270441D02*
Y264442D01*
X421699D01*
X422699Y265442D01*
Y269441D01*
X421699Y270441D01*
X418700D01*
X427697D02*
X425698D01*
X424698Y269441D01*
Y265442D01*
X425698Y264442D01*
X427697D01*
X428697Y265442D01*
Y269441D01*
X427697Y270441D01*
X430696Y269441D02*
X431696Y270441D01*
X433695D01*
X434695Y269441D01*
Y265442D01*
X433695Y264442D01*
X431696D01*
X430696Y265442D01*
Y269441D01*
X399015Y362857D02*
Y368856D01*
X402014D01*
X403014Y367856D01*
Y365856D01*
X402014Y364857D01*
X399015D01*
X409012Y368856D02*
X405013D01*
Y365856D01*
X407012D01*
X405013D01*
Y362857D01*
X411011Y368856D02*
X413011D01*
X412011D01*
Y362857D01*
X411011D01*
X413011D01*
X419009Y368856D02*
X417009D01*
X416010Y367856D01*
Y363857D01*
X417009Y362857D01*
X419009D01*
X420008Y363857D01*
Y367856D01*
X419009Y368856D01*
X442314Y367856D02*
X441314Y368856D01*
X439315D01*
X438315Y367856D01*
Y363857D01*
X439315Y362857D01*
X441314D01*
X442314Y363857D01*
Y365856D01*
X440314D01*
X444313Y362857D02*
Y368856D01*
X448312Y362857D01*
Y368856D01*
X450311D02*
Y362857D01*
X453310D01*
X454310Y363857D01*
Y367856D01*
X453310Y368856D01*
X450311D01*
X605515Y362742D02*
Y366741D01*
X607514Y368741D01*
X609514Y366741D01*
Y362742D01*
Y365741D01*
X605515D01*
X611513Y367741D02*
X612513Y368741D01*
X614512D01*
X615512Y367741D01*
Y366741D01*
X614512Y365741D01*
X613512D01*
X614512D01*
X615512Y364742D01*
Y363742D01*
X614512Y362742D01*
X612513D01*
X611513Y363742D01*
X617511Y362742D02*
X619510D01*
X618511D01*
Y368741D01*
X617511Y367741D01*
X566115Y362742D02*
Y366741D01*
X568114Y368741D01*
X570114Y366741D01*
Y362742D01*
Y365741D01*
X566115D01*
X572113Y367741D02*
X573113Y368741D01*
X575112D01*
X576112Y367741D01*
Y366741D01*
X575112Y365741D01*
X574112D01*
X575112D01*
X576112Y364742D01*
Y363742D01*
X575112Y362742D01*
X573113D01*
X572113Y363742D01*
X578111Y367741D02*
X579111Y368741D01*
X581110D01*
X582110Y367741D01*
Y363742D01*
X581110Y362742D01*
X579111D01*
X578111Y363742D01*
Y367741D01*
X526815Y362742D02*
Y366741D01*
X528814Y368741D01*
X530814Y366741D01*
Y362742D01*
Y365741D01*
X526815D01*
X536812Y362742D02*
X532813D01*
X536812Y366741D01*
Y367741D01*
X535812Y368741D01*
X533813D01*
X532813Y367741D01*
X538811Y363742D02*
X539811Y362742D01*
X541810D01*
X542810Y363742D01*
Y367741D01*
X541810Y368741D01*
X539811D01*
X538811Y367741D01*
Y366741D01*
X539811Y365741D01*
X542810D01*
X487415Y362742D02*
Y366741D01*
X489414Y368741D01*
X491414Y366741D01*
Y362742D01*
Y365741D01*
X487415D01*
X497412Y362742D02*
X493413D01*
X497412Y366741D01*
Y367741D01*
X496412Y368741D01*
X494413D01*
X493413Y367741D01*
X499411D02*
X500411Y368741D01*
X502410D01*
X503410Y367741D01*
Y366741D01*
X502410Y365741D01*
X503410Y364742D01*
Y363742D01*
X502410Y362742D01*
X500411D01*
X499411Y363742D01*
Y364742D01*
X500411Y365741D01*
X499411Y366741D01*
Y367741D01*
X500411Y365741D02*
X502410D01*
X566800Y411900D02*
Y415899D01*
X568799Y417898D01*
X570799Y415899D01*
Y411900D01*
Y414899D01*
X566800D01*
X576797Y411900D02*
X572798D01*
X576797Y415899D01*
Y416898D01*
X575797Y417898D01*
X573798D01*
X572798Y416898D01*
X578796Y417898D02*
X582795D01*
Y416898D01*
X578796Y412900D01*
Y411900D01*
X527400Y411600D02*
Y415599D01*
X529399Y417598D01*
X531399Y415599D01*
Y411600D01*
Y414599D01*
X527400D01*
X537397Y411600D02*
X533398D01*
X537397Y415599D01*
Y416598D01*
X536397Y417598D01*
X534398D01*
X533398Y416598D01*
X543395Y417598D02*
X541396Y416598D01*
X539396Y414599D01*
Y412600D01*
X540396Y411600D01*
X542395D01*
X543395Y412600D01*
Y413599D01*
X542395Y414599D01*
X539396D01*
X487700Y411600D02*
Y415599D01*
X489699Y417598D01*
X491699Y415599D01*
Y411600D01*
Y414599D01*
X487700D01*
X497697Y411600D02*
X493698D01*
X497697Y415599D01*
Y416598D01*
X496697Y417598D01*
X494698D01*
X493698Y416598D01*
X503695Y417598D02*
X499696D01*
Y414599D01*
X501695Y415599D01*
X502695D01*
X503695Y414599D01*
Y412600D01*
X502695Y411600D01*
X500696D01*
X499696Y412600D01*
X448400Y411900D02*
Y415899D01*
X450399Y417898D01*
X452399Y415899D01*
Y411900D01*
Y414899D01*
X448400D01*
X458397Y411900D02*
X454398D01*
X458397Y415899D01*
Y416898D01*
X457397Y417898D01*
X455398D01*
X454398Y416898D01*
X463395Y411900D02*
Y417898D01*
X460396Y414899D01*
X464395D01*
X605515Y264342D02*
Y268341D01*
X607514Y270341D01*
X609514Y268341D01*
Y264342D01*
Y267341D01*
X605515D01*
X615512Y264342D02*
X611513D01*
X615512Y268341D01*
Y269341D01*
X614512Y270341D01*
X612513D01*
X611513Y269341D01*
X617511D02*
X618511Y270341D01*
X620510D01*
X621510Y269341D01*
Y268341D01*
X620510Y267341D01*
X619510D01*
X620510D01*
X621510Y266342D01*
Y265342D01*
X620510Y264342D01*
X618511D01*
X617511Y265342D01*
X566115Y264342D02*
Y268341D01*
X568114Y270341D01*
X570114Y268341D01*
Y264342D01*
Y267341D01*
X566115D01*
X576112Y264342D02*
X572113D01*
X576112Y268341D01*
Y269341D01*
X575112Y270341D01*
X573113D01*
X572113Y269341D01*
X582110Y264342D02*
X578111D01*
X582110Y268341D01*
Y269341D01*
X581110Y270341D01*
X579111D01*
X578111Y269341D01*
X526815Y264342D02*
Y268341D01*
X528814Y270341D01*
X530814Y268341D01*
Y264342D01*
Y267341D01*
X526815D01*
X536812Y264342D02*
X532813D01*
X536812Y268341D01*
Y269341D01*
X535812Y270341D01*
X533813D01*
X532813Y269341D01*
X538811Y264342D02*
X540810D01*
X539811D01*
Y270341D01*
X538811Y269341D01*
X487415Y264342D02*
Y268341D01*
X489414Y270341D01*
X491414Y268341D01*
Y264342D01*
Y267341D01*
X487415D01*
X497412Y264342D02*
X493413D01*
X497412Y268341D01*
Y269341D01*
X496412Y270341D01*
X494413D01*
X493413Y269341D01*
X499411D02*
X500411Y270341D01*
X502410D01*
X503410Y269341D01*
Y265342D01*
X502410Y264342D01*
X500411D01*
X499411Y265342D01*
Y269341D01*
X561024Y187008D02*
Y191007D01*
X563023Y193006D01*
X565022Y191007D01*
Y187008D01*
Y190007D01*
X561024D01*
X567022Y187008D02*
X569021D01*
X568021D01*
Y193006D01*
X567022Y192006D01*
X572020Y188007D02*
X573020Y187008D01*
X575019D01*
X576019Y188007D01*
Y192006D01*
X575019Y193006D01*
X573020D01*
X572020Y192006D01*
Y191007D01*
X573020Y190007D01*
X576019D01*
X521654Y187008D02*
Y191007D01*
X523653Y193006D01*
X525652Y191007D01*
Y187008D01*
Y190007D01*
X521654D01*
X527652Y187008D02*
X529651D01*
X528651D01*
Y193006D01*
X527652Y192006D01*
X532650D02*
X533650Y193006D01*
X535649D01*
X536649Y192006D01*
Y191007D01*
X535649Y190007D01*
X536649Y189007D01*
Y188007D01*
X535649Y187008D01*
X533650D01*
X532650Y188007D01*
Y189007D01*
X533650Y190007D01*
X532650Y191007D01*
Y192006D01*
X533650Y190007D02*
X535649D01*
X482283Y187008D02*
Y191007D01*
X484283Y193006D01*
X486282Y191007D01*
Y187008D01*
Y190007D01*
X482283D01*
X488281Y187008D02*
X490281D01*
X489281D01*
Y193006D01*
X488281Y192006D01*
X493280Y193006D02*
X497279D01*
Y192006D01*
X493280Y188007D01*
Y187008D01*
X442913D02*
Y191007D01*
X444913Y193006D01*
X446912Y191007D01*
Y187008D01*
Y190007D01*
X442913D01*
X448911Y187008D02*
X450911D01*
X449911D01*
Y193006D01*
X448911Y192006D01*
X457908Y193006D02*
X455909Y192006D01*
X453910Y190007D01*
Y188007D01*
X454910Y187008D01*
X456909D01*
X457908Y188007D01*
Y189007D01*
X456909Y190007D01*
X453910D01*
X393701Y413386D02*
Y417384D01*
X395700Y419384D01*
X397699Y417384D01*
Y413386D01*
Y416385D01*
X393701D01*
X399699Y413386D02*
X401698D01*
X400699D01*
Y419384D01*
X399699Y418384D01*
X408696Y419384D02*
X404697D01*
Y416385D01*
X406697Y417384D01*
X407696D01*
X408696Y416385D01*
Y414386D01*
X407696Y413386D01*
X405697D01*
X404697Y414386D01*
X354331Y413386D02*
Y417384D01*
X356330Y419384D01*
X358329Y417384D01*
Y413386D01*
Y416385D01*
X354331D01*
X360329Y413386D02*
X362328D01*
X361329D01*
Y419384D01*
X360329Y418384D01*
X368326Y413386D02*
Y419384D01*
X365327Y416385D01*
X369326D01*
X310415Y412100D02*
Y416099D01*
X312414Y418098D01*
X314414Y416099D01*
Y412100D01*
Y415099D01*
X310415D01*
X316413Y412100D02*
X318412D01*
X317413D01*
Y418098D01*
X316413Y417098D01*
X321411D02*
X322411Y418098D01*
X324410D01*
X325410Y417098D01*
Y416099D01*
X324410Y415099D01*
X323411D01*
X324410D01*
X325410Y414099D01*
Y413100D01*
X324410Y412100D01*
X322411D01*
X321411Y413100D01*
X271015Y412100D02*
Y416099D01*
X273014Y418098D01*
X275014Y416099D01*
Y412100D01*
Y415099D01*
X271015D01*
X277013Y412100D02*
X279012D01*
X278013D01*
Y418098D01*
X277013Y417098D01*
X286010Y412100D02*
X282011D01*
X286010Y416099D01*
Y417098D01*
X285010Y418098D01*
X283011D01*
X282011Y417098D01*
X353422Y362900D02*
Y366899D01*
X355421Y368898D01*
X357421Y366899D01*
Y362900D01*
Y365899D01*
X353422D01*
X359420Y362900D02*
X361420D01*
X360420D01*
Y368898D01*
X359420Y367898D01*
X364419Y362900D02*
X366418D01*
X365418D01*
Y368898D01*
X364419Y367898D01*
X314022Y362900D02*
Y366899D01*
X316021Y368898D01*
X318021Y366899D01*
Y362900D01*
Y365899D01*
X314022D01*
X320020Y362900D02*
X322020D01*
X321020D01*
Y368898D01*
X320020Y367898D01*
X325019D02*
X326018Y368898D01*
X328017D01*
X329017Y367898D01*
Y363900D01*
X328017Y362900D01*
X326018D01*
X325019Y363900D01*
Y367898D01*
X274622Y362900D02*
Y366899D01*
X276621Y368898D01*
X278621Y366899D01*
Y362900D01*
Y365899D01*
X274622D01*
X280620Y363900D02*
X281620Y362900D01*
X283619D01*
X284619Y363900D01*
Y367898D01*
X283619Y368898D01*
X281620D01*
X280620Y367898D01*
Y366899D01*
X281620Y365899D01*
X284619D01*
X235622Y362900D02*
Y366899D01*
X237621Y368898D01*
X239621Y366899D01*
Y362900D01*
Y365899D01*
X235622D01*
X241620Y367898D02*
X242620Y368898D01*
X244619D01*
X245619Y367898D01*
Y366899D01*
X244619Y365899D01*
X245619Y364899D01*
Y363900D01*
X244619Y362900D01*
X242620D01*
X241620Y363900D01*
Y364899D01*
X242620Y365899D01*
X241620Y366899D01*
Y367898D01*
X242620Y365899D02*
X244619D01*
X383858Y187008D02*
Y191007D01*
X385858Y193006D01*
X387857Y191007D01*
Y187008D01*
Y190007D01*
X383858D01*
X389856Y193006D02*
X393855D01*
Y192006D01*
X389856Y188007D01*
Y187008D01*
X344488D02*
Y191007D01*
X346487Y193006D01*
X348487Y191007D01*
Y187008D01*
Y190007D01*
X344488D01*
X354485Y193006D02*
X352486Y192006D01*
X350486Y190007D01*
Y188007D01*
X351486Y187008D01*
X353485D01*
X354485Y188007D01*
Y189007D01*
X353485Y190007D01*
X350486D01*
X305118Y187008D02*
Y191007D01*
X307118Y193006D01*
X309117Y191007D01*
Y187008D01*
Y190007D01*
X305118D01*
X315115Y193006D02*
X311116D01*
Y190007D01*
X313116Y191007D01*
X314115D01*
X315115Y190007D01*
Y188007D01*
X314115Y187008D01*
X312116D01*
X311116Y188007D01*
X265748Y187008D02*
Y191007D01*
X267747Y193006D01*
X269747Y191007D01*
Y187008D01*
Y190007D01*
X265748D01*
X274745Y187008D02*
Y193006D01*
X271746Y190007D01*
X275745D01*
X349985Y264342D02*
Y268341D01*
X351984Y270341D01*
X353984Y268341D01*
Y264342D01*
Y267341D01*
X349985D01*
X355983Y269341D02*
X356983Y270341D01*
X358982D01*
X359982Y269341D01*
Y268341D01*
X358982Y267341D01*
X357982D01*
X358982D01*
X359982Y266342D01*
Y265342D01*
X358982Y264342D01*
X356983D01*
X355983Y265342D01*
X310585Y264342D02*
Y268341D01*
X312584Y270341D01*
X314584Y268341D01*
Y264342D01*
Y267341D01*
X310585D01*
X320582Y264342D02*
X316583D01*
X320582Y268341D01*
Y269341D01*
X319582Y270341D01*
X317583D01*
X316583Y269341D01*
X271185Y264342D02*
Y268341D01*
X273184Y270341D01*
X275184Y268341D01*
Y264342D01*
Y267341D01*
X271185D01*
X277183Y264342D02*
X279183D01*
X278183D01*
Y270341D01*
X277183Y269341D01*
X231785Y264342D02*
Y268341D01*
X233784Y270341D01*
X235784Y268341D01*
Y264342D01*
Y267341D01*
X231785D01*
X237783Y269341D02*
X238783Y270341D01*
X240782D01*
X241782Y269341D01*
Y265342D01*
X240782Y264342D01*
X238783D01*
X237783Y265342D01*
Y269341D01*
M02*
